<?xml version="1.0" standalone="no"?>
<!DOCTYPE svg PUBLIC "-//W3C//DTD SVG 1.1//EN" "http://www.w3.org/Graphics/SVG/1.1/DTD/svg11.dtd" >
<svg>
<metadata>
Created by FontForge 20090914 at Fri Oct 28 23:31:35 2011
 By www-data
Copyright (c) 2010 by Stereotypes.de. All rights reserved.
</metadata>
<defs>
<font id="KelloggsSans" horiz-adv-x="577" >
  <font-face 
    font-family="Kelloggs Sans"
    font-weight="400"
    font-stretch="normal"
    units-per-em="1000"
    panose-1="2 0 5 3 2 0 0 2 0 3"
    ascent="714"
    descent="-286"
    x-height="482"
    cap-height="700"
    bbox="-77.7469 -278 1176 938"
    underline-thickness="50"
    underline-position="-75"
    stemh="70"
    stemv="75"
    unicode-range="U+000D-U+FB02"
  />
<missing-glyph horiz-adv-x="786" 
d="M80 0v700h626v-700h-626zM114 666v-632h559v632h-559zM229 343c0 89 73 162 162 162s162 -73 162 -162s-73 -162 -162 -162s-162 73 -162 162z" />
    <glyph glyph-name=".notdef" horiz-adv-x="786" 
d="M80 0v700h626v-700h-626zM114 666v-632h559v632h-559zM229 343c0 89 73 162 162 162s162 -73 162 -162s-73 -162 -162 -162s-162 73 -162 162z" />
    <glyph glyph-name=".null" horiz-adv-x="0" 
 />
    <glyph glyph-name=".null" horiz-adv-x="0" 
 />
    <glyph glyph-name="CR" unicode="&#xd;" horiz-adv-x="0" 
 />
    <glyph glyph-name="space" unicode=" " horiz-adv-x="242" 
 />
    <glyph glyph-name="exclam" unicode="!" horiz-adv-x="204" 
d="M99 700c21 0 42 -8 42 -31v-505c-6 -5 -21 -10 -39 -10c-22 0 -39 10 -39 41v497c8 5 17 8 36 8zM54 48c0 33 16 49 48 49s49 -16 49 -49s-17 -48 -49 -48c-31 0 -48 16 -48 48z" />
    <glyph glyph-name="quotedbl" unicode="&#x22;" horiz-adv-x="307" 
d="M182 528v149c0 18 11 24 35 24c31 0 41 -13 41 -56c0 -84 -17 -127 -43 -127c-17 0 -26 4 -33 10zM48 528v149c0 18 11 24 36 24c31 0 41 -13 41 -56c0 -84 -17 -127 -43 -127c-17 0 -26 4 -34 10z" />
    <glyph glyph-name="numbersign" unicode="#" horiz-adv-x="802" 
d="M731 422h-129l-38 -213h168c4 -5 8 -12 8 -29c0 -19 -9 -45 -53 -45h-135l-32 -181c-7 -5 -20 -8 -38 -8c-17 0 -41 5 -35 36l27 153h-211l-32 -181c-7 -5 -19 -8 -38 -8c-17 0 -40 5 -34 36l26 153h-159c-3 10 -8 17 -8 33c0 24 5 41 45 41h135l38 213h-166
c-3 10 -8 17 -8 33c0 25 5 41 45 41h142l37 208c8 5 16 8 35 8c21 0 42 -8 38 -31l-33 -185h211l37 208c8 5 16 8 35 8c21 0 43 -8 39 -31l-34 -185h162c4 -5 8 -12 8 -30s-9 -44 -53 -44zM313 422l-37 -213h210l38 213h-211z" />
    <glyph glyph-name="dollar" unicode="$" horiz-adv-x="599" 
d="M312 815c18 0 27 -8 26 -27v-80c85 -5 138 -35 164 -60c11 -10 16 -25 16 -38c0 -15 -11 -28 -22 -37c-27 23 -79 49 -159 54v-241c142 -41 208 -91 209 -204c0 -109 -67 -181 -211 -191v-100c-7 -5 -15 -7 -31 -7s-28 6 -28 33v73c-77 3 -139 22 -178 47
c-29 18 -44 38 -44 59c0 19 7 32 14 39c45 -41 126 -65 209 -68v256c-151 45 -206 94 -206 202c0 98 62 176 209 183v98c7 5 19 9 32 9zM470 180c0 59 -33 93 -134 128v-240c97 9 134 54 134 112zM146 524c0 -56 36 -86 133 -121v223c-99 -5 -133 -50 -133 -102z" />
    <glyph glyph-name="percent" unicode="%" horiz-adv-x="855" 
d="M555 700c23 0 35 -11 28 -31l-251 -665c-7 -3 -14 -6 -31 -6c-22 0 -33 10 -21 40l245 657c8 4 16 5 30 5zM507 204c0 146 69 211 157 211c92 0 156 -65 156 -211c0 -150 -66 -207 -157 -207c-89 0 -156 59 -156 207zM564 203c0 -116 45 -158 99 -158c58 0 99 41 99 158
c0 112 -40 161 -98 161c-55 0 -100 -50 -100 -161zM35 490c0 146 69 210 157 210c93 0 156 -64 156 -210c0 -151 -66 -207 -156 -207s-157 58 -157 207zM92 488c0 -116 45 -157 100 -157c57 0 98 41 98 157c0 113 -40 161 -98 161c-55 0 -100 -49 -100 -161z" />
    <glyph glyph-name="ampersand" unicode="&#x26;" horiz-adv-x="810" 
d="M700 376h-82c-8 -91 -43 -193 -103 -267c42 -20 87 -31 157 -31h70c5 -8 8 -19 8 -34c0 -28 -18 -44 -94 -44c-67 0 -134 19 -194 54c-49 -40 -107 -64 -190 -64c-129 0 -219 87 -219 220c0 127 74 188 157 215c-3 21 -4 41 -4 63c0 144 72 212 212 212
c91 0 127 -17 127 -45c0 -13 -2 -24 -7 -31h-112c-102 0 -142 -45 -142 -143c0 -144 72 -270 174 -341c58 63 93 156 101 236h-134c-4 10 -7 18 -7 31c0 25 11 38 42 38h264c5 -5 8 -17 8 -33c0 -24 -10 -36 -32 -36zM402 94c-84 65 -151 162 -179 272
c-61 -25 -100 -76 -100 -152c0 -96 68 -156 151 -156c58 0 96 13 128 36z" />
    <glyph glyph-name="quotesingle" unicode="'" horiz-adv-x="173" 
d="M48 528v149c0 18 11 24 36 24c31 0 41 -13 41 -56c0 -84 -17 -127 -43 -127c-17 0 -26 4 -34 10z" />
    <glyph glyph-name="parenleft" unicode="(" horiz-adv-x="235" 
d="M28 304c0 260 74 408 141 408c21 0 39 -11 43 -35c-54 -40 -108 -156 -108 -373c0 -207 50 -334 112 -379c-4 -25 -18 -37 -43 -37c-71 0 -145 169 -145 416z" />
    <glyph glyph-name="parenright" unicode=")" horiz-adv-x="235" 
d="M206 296c0 -260 -73 -408 -141 -408c-20 0 -39 11 -43 35c54 40 108 156 108 373c0 207 -50 334 -112 378c4 25 18 38 43 38c71 0 145 -169 145 -416z" />
    <glyph glyph-name="asterisk" unicode="*" horiz-adv-x="524" 
d="M417 484l-108 7l76 -112c-3 -7 -7 -16 -24 -26c-13 -8 -42 -15 -53 15l-47 100l-63 -125c-10 0 -19 1 -32 9c-19 11 -36 26 -14 52l62 89l-138 -8c-5 9 -9 17 -9 33c0 22 6 43 39 38l108 -6l-78 114c6 8 13 16 26 24c19 12 40 16 52 -14l50 -101l59 126c8 0 19 0 37 -10
c12 -7 31 -29 11 -53l-60 -88l138 9c3 -6 8 -14 8 -35c0 -16 -9 -42 -40 -38z" />
    <glyph glyph-name="plus" unicode="+" horiz-adv-x="524" 
d="M299 437v-134h163c4 -5 8 -17 8 -36c0 -21 -9 -38 -35 -38h-136v-163c-9 -5 -22 -8 -36 -8c-25 0 -38 9 -38 40v131h-163c-5 10 -8 17 -8 36c0 20 7 38 30 38h141v163c6 5 20 8 38 8c19 0 36 -9 36 -37z" />
    <glyph glyph-name="comma" unicode="," horiz-adv-x="175" 
d="M85 0c-29 0 -48 16 -48 47c0 34 18 50 49 50c32 0 52 -17 52 -74c0 -79 -26 -124 -54 -124c-16 0 -25 4 -28 17c20 19 29 63 29 84z" />
    <glyph glyph-name="hyphen" unicode="-" horiz-adv-x="427" 
d="M330 229h-267c-5 10 -9 19 -9 35c0 23 10 39 40 39h270c5 -6 8 -18 8 -34c0 -24 -10 -40 -42 -40z" />
    <glyph glyph-name="period" unicode="." horiz-adv-x="171" 
d="M37 48c0 33 16 49 48 49c31 0 49 -16 49 -49s-18 -48 -49 -48c-32 0 -48 16 -48 48z" />
    <glyph glyph-name="slash" unicode="/" horiz-adv-x="298" 
d="M200 712c20 0 41 -8 37 -31l-127 -727c-7 -5 -19 -8 -38 -8c-17 0 -41 5 -35 36l127 722c9 5 17 8 36 8z" />
    <glyph glyph-name="zero" unicode="0" 
d="M49 342c0 240 100 349 242 349c145 0 236 -109 236 -349c0 -253 -97 -348 -239 -348s-239 99 -239 348zM125 340c0 -203 67 -276 163 -276c99 0 162 72 162 276c0 192 -61 281 -159 281c-97 0 -166 -90 -166 -281z" />
    <glyph glyph-name="one" unicode="1" 
d="M476 0h-380c-4 10 -8 20 -8 34c0 23 5 38 46 38h132v508c-43 -41 -104 -57 -139 -57c-20 0 -33 12 -33 35c0 13 2 22 9 31c72 7 140 41 163 95c9 4 23 7 38 7c23 0 38 -11 38 -31v-588h157c4 -6 9 -15 9 -31c0 -24 -11 -41 -32 -41z" />
    <glyph glyph-name="two" unicode="2" 
d="M57 576c0 41 73 115 207 115c147 0 229 -76 229 -197c0 -189 -223 -353 -334 -420l1 -6l358 4c5 -8 7 -21 7 -37c0 -24 -9 -35 -30 -35h-436c-4 11 -7 19 -7 41c0 20 4 37 23 51c115 82 342 235 342 397c0 86 -63 132 -154 132c-79 0 -156 -44 -175 -91
c-19 8 -31 20 -31 46z" />
    <glyph glyph-name="three" unicode="3" 
d="M415 501c0 65 -50 120 -147 120c-80 0 -142 -38 -163 -85c-18 7 -30 18 -30 43c0 41 60 112 198 112c145 0 218 -82 218 -184c0 -73 -43 -136 -110 -154v-2c67 -12 129 -65 129 -163c0 -104 -68 -194 -237 -194c-165 0 -210 90 -210 137c0 28 11 40 34 46
c13 -50 59 -113 173 -113c117 0 165 59 165 131c0 74 -54 118 -136 118h-34c-14 0 -20 15 -20 33c0 16 2 24 6 32c109 0 164 50 164 123z" />
    <glyph glyph-name="four" unicode="4" 
d="M413 482c21 0 34 -8 34 -29v-243h95c4 -6 8 -17 8 -34c0 -21 -8 -33 -26 -33h-77v-137c-7 -4 -22 -6 -40 -6c-19 0 -33 8 -33 30v113h-326c-5 7 -7 16 -7 27c0 10 3 24 7 36l150 477c8 4 23 7 42 7c23 0 30 -15 24 -33l-139 -447h249v261c10 6 23 11 39 11z" />
    <glyph glyph-name="five" unicode="5" 
d="M466 615h-300l-10 -224c33 13 79 27 133 27c132 0 231 -58 231 -209c0 -117 -80 -215 -244 -215c-170 0 -218 93 -218 144c0 25 12 40 37 45c10 -52 59 -119 178 -119c117 0 171 62 171 148c0 99 -69 139 -176 139c-72 0 -118 -22 -156 -22c-17 0 -28 13 -27 35l11 313
c11 7 24 10 46 10h347c4 -6 9 -16 9 -32c0 -24 -11 -40 -32 -40z" />
    <glyph glyph-name="six" unicode="6" 
d="M56 333c0 220 81 358 256 358c112 0 181 -44 181 -84c0 -19 -9 -34 -22 -41c-21 16 -69 55 -157 55c-125 0 -176 -100 -183 -255c45 23 102 42 170 42c125 0 222 -49 222 -200c0 -110 -60 -214 -220 -214c-156 0 -247 97 -247 339zM294 344c-65 0 -124 -18 -163 -42
c4 -170 56 -238 171 -238c107 0 147 64 147 143c0 100 -63 137 -155 137z" />
    <glyph glyph-name="seven" unicode="7" 
d="M238 0c-26 0 -34 15 -28 33l221 579h-369c-4 6 -9 16 -9 39c0 18 11 36 32 36h428c4 -7 5 -16 5 -27s-3 -28 -8 -43l-232 -610c-7 -4 -20 -7 -40 -7z" />
    <glyph glyph-name="eight" unicode="8" 
d="M57 189c0 95 58 148 118 174c-56 38 -92 79 -92 157c0 107 73 171 202 171c135 0 208 -61 208 -174c0 -76 -45 -131 -99 -161c76 -31 124 -81 124 -170c0 -107 -73 -192 -231 -192c-152 0 -230 81 -230 195zM248 331h-1c-62 -14 -118 -58 -118 -142
c0 -73 59 -128 157 -128c109 0 159 52 159 123c0 89 -90 117 -197 147zM153 523c0 -81 70 -115 170 -142c59 17 104 65 104 136s-52 113 -138 113c-82 0 -136 -43 -136 -107z" />
    <glyph glyph-name="nine" unicode="9" 
d="M520 333c0 -222 -81 -337 -249 -337c-126 0 -207 49 -207 86c0 20 9 30 21 39c21 -16 89 -55 174 -55c131 0 181 78 185 244c-46 -30 -101 -48 -180 -48c-108 0 -209 56 -209 196c0 134 66 233 226 233c158 0 239 -85 239 -358zM271 328c75 0 131 18 173 48
c-6 181 -51 245 -158 245c-112 0 -158 -65 -158 -157c0 -91 64 -136 143 -136z" />
    <glyph glyph-name="colon" unicode=":" horiz-adv-x="171" 
d="M37 48c0 33 16 49 48 49c31 0 49 -16 49 -49s-18 -48 -49 -48c-32 0 -48 16 -48 48zM37 435c0 34 16 50 48 50c31 0 49 -16 49 -50c0 -32 -18 -47 -49 -47c-32 0 -48 16 -48 47z" />
    <glyph glyph-name="semicolon" unicode=";" horiz-adv-x="175" 
d="M85 0c-29 0 -48 16 -48 48c0 33 18 49 49 49c32 0 52 -17 52 -73c0 -79 -26 -125 -54 -125c-16 0 -25 5 -28 18c20 19 29 62 29 83zM38 435c0 34 16 50 48 50s49 -16 49 -50c0 -32 -17 -47 -49 -47c-31 0 -48 16 -48 47z" />
    <glyph glyph-name="less" unicode="&#x3c;" horiz-adv-x="524" 
d="M136 287l216 187c18 16 29 14 41 6c13 -5 22 -19 27 -33l-228 -200l224 -196c-5 -15 -16 -29 -29 -34c-13 -8 -24 -8 -41 6l-214 185c-13 11 -20 25 -20 39c0 15 8 25 24 40z" />
    <glyph glyph-name="equal" unicode="=" horiz-adv-x="524" 
d="M434 123h-372c-4 10 -8 20 -8 39s9 35 32 35h376c5 -8 8 -22 8 -36c0 -19 -7 -38 -36 -38zM434 313h-372c-4 10 -8 20 -8 39s9 35 32 35h376c5 -8 8 -22 8 -36c0 -19 -7 -38 -36 -38z" />
    <glyph glyph-name="greater" unicode="&#x3e;" horiz-adv-x="524" 
d="M161 481c22 -15 44 -32 65 -51l164 -146c14 -12 21 -24 21 -37c0 -25 -24 -41 -48 -62l-165 -142c-21 -18 -42 -32 -54 -32c-16 0 -34 25 -39 39l226 197l-226 199c6 15 24 39 41 39c5 0 10 -1 15 -4z" />
    <glyph glyph-name="question" unicode="?" horiz-adv-x="493" 
d="M372 481c0 98 -59 140 -145 140c-80 0 -143 -37 -163 -80c-18 7 -31 19 -31 44c0 42 61 112 198 112c135 0 220 -76 220 -202c0 -129 -87 -196 -201 -208l6 -132c-8 -7 -23 -10 -42 -10s-30 12 -30 31l-5 132c0 13 4 24 12 31c87 3 181 40 181 142zM178 48
c0 33 16 49 48 49c31 0 49 -16 49 -49s-18 -48 -49 -48c-32 0 -48 16 -48 48z" />
    <glyph glyph-name="at" unicode="@" horiz-adv-x="865" 
d="M542 148c-35 -36 -80 -58 -136 -58c-91 0 -172 67 -172 222c0 151 81 220 172 220c61 0 101 -24 126 -51v27c3 8 14 14 27 14c15 0 30 -5 35 -21v-279c0 -61 28 -78 59 -78c64 0 112 66 112 193c0 178 -132 307 -332 307c-198 0 -332 -135 -332 -331
c0 -207 142 -330 332 -330c109 0 163 17 218 40c11 -7 18 -13 18 -27c0 -40 -89 -77 -237 -77c-228 0 -398 151 -398 394c0 236 161 397 399 397c239 0 397 -156 397 -376c0 -155 -78 -246 -180 -246c-54 0 -93 28 -108 60zM419 148c55 0 89 23 112 48v215
c-24 36 -61 59 -118 59s-115 -49 -115 -158c0 -111 55 -164 121 -164z" />
    <glyph glyph-name="A" unicode="A" horiz-adv-x="616" 
d="M43 0c-19 0 -31 4 -38 11l258 676c12 7 22 13 46 13c23 0 38 -11 46 -30l256 -652c-7 -15 -25 -18 -40 -18c-20 0 -35 8 -44 30l-55 140h-330l-56 -145c-7 -19 -19 -25 -43 -25zM304 607l-138 -371h281z" />
    <glyph glyph-name="B" unicode="B" horiz-adv-x="654" 
d="M143 700h209c120 0 207 -44 207 -178c0 -78 -35 -126 -81 -153c71 -25 122 -77 122 -171c0 -142 -114 -198 -237 -198h-220c-21 0 -39 5 -39 36v657c8 5 20 7 39 7zM342 326h-161v-259h169c90 0 169 27 169 134c0 98 -73 125 -177 125zM344 632h-163v-240h162
c79 0 138 28 138 125c0 88 -50 115 -137 115z" />
    <glyph glyph-name="C" unicode="C" horiz-adv-x="642" 
d="M569 146c15 0 34 -7 34 -32c0 -18 -8 -31 -30 -52c-15 -14 -80 -72 -213 -72c-174 0 -297 105 -297 360c0 244 120 360 293 360c171 0 236 -82 236 -122c0 -19 -11 -36 -28 -40c-43 52 -106 88 -206 88c-129 0 -215 -91 -215 -288c0 -211 88 -285 220 -285
c87 0 159 28 206 83z" />
    <glyph glyph-name="D" unicode="D" horiz-adv-x="695" 
d="M143 700h136c238 0 354 -110 354 -357c0 -252 -125 -343 -327 -343h-163c-21 0 -39 5 -39 36v656c8 4 20 8 39 8zM283 629h-102v-558h122c163 0 250 72 250 270c0 197 -85 288 -270 288z" />
    <glyph glyph-name="E" unicode="E" horiz-adv-x="584" 
d="M441 324h-260v-253h342c5 -5 8 -13 8 -31c0 -24 -10 -40 -32 -40h-361c-16 0 -34 5 -34 36v656c8 5 18 8 37 8h382c5 -6 8 -14 8 -32c0 -25 -10 -39 -32 -39h-318v-234h282c5 -6 10 -16 10 -34c0 -25 -11 -37 -32 -37z" />
    <glyph glyph-name="F" unicode="F" horiz-adv-x="561" 
d="M441 311h-260v-304c-6 -4 -24 -7 -43 -7c-16 0 -34 5 -34 36v656c8 5 18 8 37 8h377c5 -6 9 -14 9 -32c0 -25 -11 -39 -32 -39h-314v-247h284c5 -5 9 -16 9 -32c0 -24 -10 -39 -33 -39z" />
    <glyph glyph-name="G" unicode="G" horiz-adv-x="710" 
d="M562 292h-188c-4 9 -7 18 -7 33c0 18 6 36 46 36h160c43 0 59 -17 59 -64v-289c-10 -7 -19 -9 -38 -9c-17 0 -32 5 -32 32v63c-50 -62 -118 -104 -206 -104c-151 0 -294 105 -294 360c0 245 137 360 308 360c141 0 231 -55 231 -100c0 -21 -15 -37 -32 -40
c-39 33 -99 67 -195 67c-129 0 -232 -95 -232 -288c0 -211 107 -286 221 -286c76 0 155 43 199 113v116z" />
    <glyph glyph-name="H" unicode="H" horiz-adv-x="732" 
d="M591 700c21 0 37 -8 37 -31v-661c-6 -4 -22 -8 -36 -8c-22 0 -41 5 -41 37v285h-370v-312c-6 -6 -24 -10 -43 -10c-16 0 -34 5 -34 37v654c9 5 24 9 41 9c21 0 36 -8 36 -31v-276h370v298c7 5 24 9 40 9z" />
    <glyph glyph-name="I" unicode="I" horiz-adv-x="286" 
d="M145 700c21 0 36 -8 36 -31v-659c-9 -6 -20 -10 -41 -10c-20 0 -36 7 -36 37v654c9 5 22 9 41 9z" />
    <glyph glyph-name="J" unicode="J" horiz-adv-x="365" 
d="M240 700c20 0 36 -7 36 -32v-533c0 -97 -53 -135 -137 -135c-88 0 -127 17 -127 45c0 11 2 18 6 28h102c53 0 80 21 80 78v540c10 6 23 9 40 9z" />
    <glyph glyph-name="K" unicode="K" horiz-adv-x="600" 
d="M145 700c21 0 36 -8 36 -31v-302c130 85 236 220 279 327c8 4 25 6 39 6c17 0 29 -12 29 -28c0 -60 -112 -206 -220 -295c75 -79 176 -309 261 -309h6c4 -5 7 -14 7 -26c0 -22 -12 -40 -41 -40c-113 0 -206 223 -288 330c-20 -16 -49 -31 -72 -47v-276
c-9 -7 -25 -9 -44 -9c-20 0 -33 7 -33 36v655c9 5 24 9 41 9z" />
    <glyph glyph-name="L" unicode="L" horiz-adv-x="540" 
d="M148 700c18 0 38 -8 38 -31v-597h331c4 -5 9 -17 9 -32c0 -25 -11 -40 -44 -40h-339c-20 0 -35 9 -35 35v657c8 5 23 8 40 8z" />
    <glyph glyph-name="M" unicode="M" horiz-adv-x="869" 
d="M432 38c-24 0 -38 12 -50 42l-201 494l-33 -546c-1 -21 -16 -28 -38 -28c-14 0 -31 2 -39 6l45 640c2 33 20 54 54 54c18 0 28 -3 39 -7l224 -562l197 527c11 29 26 42 51 42c23 0 35 -4 49 -11l71 -679c-9 -7 -23 -10 -41 -10c-21 0 -38 5 -40 28l-47 549l-188 -497
c-14 -36 -30 -42 -53 -42z" />
    <glyph glyph-name="N" unicode="N" horiz-adv-x="736" 
d="M555 20l-377 537l2 -548c-6 -5 -24 -9 -42 -9c-16 0 -34 4 -34 36v656c10 4 24 8 41 8c16 0 27 -8 35 -19l376 -538l-1 547c9 6 20 10 38 10c20 0 39 -8 39 -31v-662c-7 -4 -20 -7 -40 -7c-15 0 -28 7 -37 20z" />
    <glyph glyph-name="O" unicode="O" horiz-adv-x="712" 
d="M62 350c0 245 124 360 298 360c172 0 290 -115 290 -360c0 -258 -119 -360 -290 -360c-173 0 -298 105 -298 360zM142 349c0 -211 90 -286 218 -286c129 0 210 76 210 286c0 197 -83 288 -210 288c-132 0 -218 -92 -218 -288z" />
    <glyph glyph-name="P" unicode="P" horiz-adv-x="620" 
d="M143 700h218c110 0 202 -65 202 -206c0 -170 -117 -216 -227 -216h-155v-270c-7 -5 -23 -8 -43 -8c-18 0 -34 7 -34 36v657c10 5 20 7 39 7zM346 633h-165v-289h136c97 0 166 34 166 145c0 100 -54 144 -137 144z" />
    <glyph glyph-name="Q" unicode="Q" horiz-adv-x="713" 
d="M62 350c0 245 124 360 298 360c172 0 290 -115 290 -360c0 -187 -62 -291 -163 -334c47 -78 84 -103 171 -103h5c3 -5 6 -14 6 -27c0 -29 -23 -49 -67 -49c-80 0 -142 62 -185 158c-19 -3 -37 -5 -57 -5c-173 0 -298 105 -298 360zM142 349c0 -211 90 -286 218 -286
c129 0 210 76 210 286c0 197 -83 288 -210 288c-132 0 -218 -92 -218 -288z" />
    <glyph glyph-name="R" unicode="R" horiz-adv-x="645" 
d="M143 700h220c109 0 203 -52 203 -194c0 -112 -77 -177 -163 -195c74 -98 135 -243 204 -243h4c4 -5 7 -14 7 -26c0 -27 -16 -42 -49 -42c-103 0 -168 198 -248 301h-140v-292c-6 -6 -22 -9 -38 -9c-21 0 -39 5 -39 36v657c8 5 22 7 39 7zM344 632h-163v-263h149
c85 0 156 40 156 137c0 96 -56 126 -142 126z" />
    <glyph glyph-name="S" unicode="S" horiz-adv-x="601" 
d="M292 710c116 0 175 -31 203 -55c17 -15 20 -29 20 -42c0 -15 -11 -31 -22 -40c-31 26 -93 64 -200 64s-147 -53 -147 -111c0 -61 41 -97 181 -137c147 -42 218 -92 218 -207c0 -116 -79 -192 -246 -192c-103 0 -172 20 -212 46c-29 20 -36 38 -36 59c0 19 7 31 15 38
c49 -43 139 -70 229 -70c126 0 171 52 171 115s-38 101 -169 139c-170 50 -230 99 -230 208c0 105 71 185 225 185z" />
    <glyph glyph-name="T" unicode="T" horiz-adv-x="563" 
d="M517 628h-196v-621c-8 -5 -24 -7 -44 -7c-18 0 -33 9 -33 36v592h-222c-4 10 -8 23 -8 36c0 18 9 36 40 36h487c5 -6 8 -17 8 -32c0 -25 -10 -40 -32 -40z" />
    <glyph glyph-name="U" unicode="U" horiz-adv-x="688" 
d="M522 265v426c8 5 20 9 38 9c23 0 40 -8 40 -31v-416c0 -175 -85 -263 -258 -263s-253 85 -253 263v439c7 5 22 8 39 8c23 0 38 -8 38 -31v-403c0 -136 48 -203 176 -203c133 0 180 66 180 202z" />
    <glyph glyph-name="V" unicode="V" horiz-adv-x="632" 
d="M53 700c19 0 34 -8 41 -27l221 -566c85 141 202 445 220 584c12 6 23 9 41 9c15 0 33 -8 33 -20s-2 -24 -7 -52c-23 -124 -141 -419 -260 -623c-11 -3 -22 -5 -35 -5c-19 0 -34 9 -43 31l-260 661c9 5 29 8 49 8z" />
    <glyph glyph-name="W" unicode="W" horiz-adv-x="997" 
d="M98 673l198 -565c46 114 137 407 172 584c11 4 23 8 37 8c23 0 43 -9 50 -31l168 -566c81 145 174 450 191 588c12 6 23 9 42 9c15 0 29 -8 29 -20c0 -5 -1 -17 -4 -38c-14 -87 -87 -391 -232 -637c-9 -3 -21 -5 -35 -5c-18 0 -36 10 -43 32l-163 551
c-33 -155 -116 -422 -181 -575c-12 -4 -27 -8 -44 -8c-19 0 -34 9 -42 31l-233 661c9 4 29 8 48 8s35 -8 42 -27z" />
    <glyph glyph-name="X" unicode="X" horiz-adv-x="616" 
d="M83 700c29 0 42 -15 60 -40l168 -237l175 248c14 19 29 29 55 29c25 0 35 -7 41 -16l-228 -323l245 -346c-10 -9 -19 -16 -47 -16c-21 0 -47 11 -61 31l-188 267l-193 -271c-13 -18 -30 -26 -53 -26c-22 0 -32 6 -40 18l242 342l-224 319c8 12 21 21 48 21z" />
    <glyph glyph-name="Y" unicode="Y" horiz-adv-x="579" 
d="M336 232v-223c-7 -5 -23 -9 -43 -9c-22 0 -34 8 -34 29v201c-97 138 -182 303 -229 458c10 7 25 12 43 12c21 0 40 -5 47 -25c43 -135 100 -252 183 -373c77 120 162 304 178 393c8 4 26 5 33 5c24 0 35 -12 35 -27c0 -83 -133 -331 -213 -441z" />
    <glyph glyph-name="Z" unicode="Z" horiz-adv-x="593" 
d="M524 632l-399 -562h440c4 -7 8 -18 8 -34c0 -19 -9 -36 -38 -36h-509c-4 9 -6 15 -6 28c0 15 5 28 14 39l397 561h-376c-5 9 -9 16 -9 34c0 20 9 38 35 38h452c5 -6 7 -15 7 -27c0 -14 -5 -27 -16 -41z" />
    <glyph glyph-name="bracketleft" unicode="[" horiz-adv-x="306" 
d="M58 -74v774c13 8 29 12 52 12h158c4 -6 9 -16 9 -33c0 -25 -8 -36 -27 -36h-117v-686h135c4 -6 9 -14 9 -31c0 -24 -10 -37 -29 -37h-180c-6 9 -10 21 -10 37z" />
    <glyph glyph-name="backslash" unicode="\" horiz-adv-x="298" 
d="M72 712c19 0 27 -3 36 -8l127 -722c6 -31 -18 -36 -35 -36c-19 0 -31 3 -38 8l-127 727c-4 23 17 31 37 31z" />
    <glyph glyph-name="bracketright" unicode="]" horiz-adv-x="306" 
d="M248 673v-774c-13 -7 -29 -11 -52 -11h-158c-4 5 -9 15 -9 33c0 24 8 35 27 35h117v687h-135c-4 6 -9 15 -9 32c0 25 10 36 29 36h180c6 -9 10 -21 10 -38z" />
    <glyph glyph-name="asciicircum" unicode="^" horiz-adv-x="479" 
d="M441 342c-7 -11 -23 -17 -39 -17c-66 0 -97 193 -163 261c-64 -59 -101 -264 -165 -264c-20 0 -30 7 -37 20c25 9 111 308 199 330c93 -20 175 -319 205 -330z" />
    <glyph glyph-name="underscore" unicode="_" horiz-adv-x="608" 
d="M558 -155h-530c-4 10 -8 22 -8 37c0 19 9 37 36 37h525c4 -5 7 -20 7 -34c0 -19 -7 -40 -30 -40z" />
    <glyph glyph-name="grave" unicode="`" horiz-adv-x="540" 
d="M338 577c-4 -17 -16 -27 -35 -27c-33 0 -111 79 -161 106c1 19 11 33 38 33c41 0 124 -92 158 -112z" />
    <glyph glyph-name="a" unicode="a" horiz-adv-x="569" 
d="M473 0c-34 0 -67 13 -77 49c-38 -36 -87 -59 -143 -59c-101 0 -197 69 -197 251c0 180 104 251 202 251c63 0 102 -23 131 -56v25c0 17 14 25 32 25c19 0 33 -4 43 -9v-384c0 -27 12 -34 36 -34h25c4 -8 6 -14 6 -26c0 -18 -18 -33 -58 -33zM264 60c57 0 96 21 124 48
v249c-29 39 -61 65 -120 65c-62 0 -134 -52 -134 -180c0 -129 58 -182 130 -182z" />
    <glyph glyph-name="b" unicode="b" horiz-adv-x="542" 
d="M160 670v-243c35 38 85 65 141 65c104 0 185 -77 185 -242c0 -181 -94 -260 -216 -260c-66 0 -120 18 -158 46c-14 11 -27 26 -27 41v613c9 6 25 10 40 10c21 0 35 -8 35 -30zM285 422c-53 0 -92 -27 -125 -69v-258c22 -17 61 -35 112 -35c84 0 136 60 136 183
c0 118 -51 179 -123 179z" />
    <glyph glyph-name="c" unicode="c" horiz-adv-x="473" 
d="M428 421c0 -11 -8 -27 -21 -37c-42 24 -70 38 -129 38c-78 0 -144 -51 -144 -183c0 -114 59 -179 149 -179c62 0 112 22 135 38c8 -6 13 -18 13 -32c0 -19 -11 -35 -30 -46s-58 -30 -122 -30c-135 0 -223 95 -223 249c0 188 114 253 221 253c70 0 105 -17 127 -32
c16 -10 24 -22 24 -39z" />
    <glyph glyph-name="d" unicode="d" horiz-adv-x="568" 
d="M475 0c-35 0 -69 13 -80 49c-38 -36 -87 -59 -144 -59c-102 0 -196 70 -196 249c0 180 107 253 205 253c59 0 97 -19 128 -49v228c0 18 11 29 30 29c22 0 38 -5 45 -10v-597c0 -27 13 -34 36 -34h26c3 -8 6 -14 6 -26c0 -18 -17 -33 -56 -33zM262 60c57 0 97 21 126 48
v255c-31 37 -62 59 -119 59c-67 0 -136 -55 -136 -180c0 -127 55 -182 129 -182z" />
    <glyph glyph-name="e" unicode="e" horiz-adv-x="506" 
d="M452 233h-318c5 -120 66 -175 147 -175c70 0 130 28 153 46c9 -6 17 -16 17 -32c0 -31 -55 -82 -179 -82c-132 0 -216 99 -216 248c0 169 104 254 218 254c121 0 185 -92 185 -209c0 -18 -3 -37 -7 -50zM272 425c-66 0 -120 -45 -135 -137h251c0 80 -37 137 -116 137z
" />
    <glyph glyph-name="f" unicode="f" horiz-adv-x="328" 
d="M181 560v-78h122c4 -6 6 -16 6 -27c0 -17 -6 -38 -33 -38h-95v-392c0 -20 -18 -25 -43 -25c-12 0 -26 3 -32 9v408h-60c-4 7 -7 17 -7 28c0 21 9 37 35 37h32v83c0 95 39 141 127 141c82 0 96 -16 96 -40c0 -13 -4 -23 -9 -29h-72c-43 0 -67 -16 -67 -77z" />
    <glyph glyph-name="g" unicode="g" horiz-adv-x="565" 
d="M392 -16v59c-37 -33 -82 -53 -143 -53c-107 0 -193 80 -193 251s93 251 197 251c69 0 116 -25 147 -59c12 32 41 49 76 49c38 0 58 -14 58 -36c0 -15 -2 -24 -6 -32h-34c-16 0 -26 -8 -26 -31v-396c0 -134 -73 -193 -195 -193c-105 0 -181 34 -181 81c0 15 4 28 16 38
c34 -26 97 -49 162 -49c79 0 122 42 122 120zM264 60c62 0 100 22 128 48v248c-28 40 -69 66 -131 66c-67 0 -127 -58 -127 -181c0 -122 57 -181 130 -181z" />
    <glyph glyph-name="h" unicode="h" horiz-adv-x="564" 
d="M124 700c20 0 36 -9 36 -31v-275c43 59 106 98 174 98c86 0 136 -52 136 -159v-252c0 -19 7 -26 20 -26h30c4 -5 5 -11 5 -21c0 -20 -23 -34 -70 -34c-38 0 -61 20 -61 74v241c0 69 -22 107 -78 107c-58 0 -122 -45 -156 -105v-309c-7 -5 -22 -8 -40 -8
c-17 0 -35 4 -35 36v655c8 5 21 9 39 9z" />
    <glyph glyph-name="i" unicode="i" horiz-adv-x="273" 
d="M104 482c43 0 71 -16 71 -78v-317c0 -19 10 -25 23 -25h30c3 -6 5 -13 5 -25c0 -23 -19 -37 -68 -37c-41 0 -65 17 -65 68v315c0 22 -11 28 -26 28h-28c-4 7 -6 17 -6 30c0 29 27 41 64 41zM79 619c0 33 16 49 48 49s50 -16 50 -49s-18 -48 -50 -48s-48 16 -48 48z" />
    <glyph glyph-name="j" unicode="j" horiz-adv-x="267" 
d="M106 482c51 0 76 -21 76 -77v-486c0 -92 -52 -125 -122 -125c-55 0 -94 11 -94 41c0 9 1 17 5 28h73c38 0 62 21 62 69v451c0 21 -9 28 -23 28h-39c-3 8 -5 16 -5 30c0 26 20 41 67 41zM85 619c0 33 16 49 49 49c32 0 49 -16 49 -49s-17 -48 -49 -48s-49 16 -49 48z" />
    <glyph glyph-name="k" unicode="k" horiz-adv-x="469" 
d="M120 700c20 0 40 -8 40 -31v-390c98 43 167 115 169 195c8 5 23 8 35 8c22 0 40 -9 40 -32c0 -80 -88 -166 -174 -197c66 -39 123 -180 207 -180h11c4 -7 6 -17 6 -32c0 -28 -17 -41 -45 -41c-104 0 -170 176 -249 228v-218c-7 -6 -22 -10 -41 -10c-16 0 -34 5 -34 36
v654c8 6 18 10 35 10z" />
    <glyph glyph-name="l" unicode="l" horiz-adv-x="285" 
d="M156 667v-526c0 -60 19 -76 68 -76h45c1 -7 3 -12 3 -22c0 -25 -16 -43 -74 -43c-81 0 -117 36 -117 123v567c9 7 17 10 37 10c29 0 38 -14 38 -33z" />
    <glyph glyph-name="m" unicode="m" horiz-adv-x="884" 
d="M403 38v273c0 60 -29 111 -77 111c-58 0 -109 -47 -145 -104v-310c-9 -6 -20 -8 -40 -8c-19 0 -35 7 -35 38v344c0 21 -10 29 -25 29h-36c-5 8 -7 15 -7 27c0 28 18 44 72 44c51 0 69 -28 69 -85v-13c44 64 98 108 172 108c66 0 108 -37 121 -109c46 62 102 109 177 109
c82 0 137 -54 137 -165v-245c0 -16 7 -26 20 -26h38c3 -5 5 -10 5 -21c0 -22 -24 -35 -75 -35c-54 0 -63 24 -63 100v209c0 61 -32 113 -82 113c-62 0 -111 -46 -151 -105v-309c-9 -6 -21 -8 -40 -8c-17 0 -35 6 -35 38z" />
    <glyph glyph-name="n" unicode="n" horiz-adv-x="592" 
d="M106 482c55 0 73 -31 73 -86v-12c43 61 99 107 170 107c88 0 146 -46 146 -164v-245c0 -16 7 -26 19 -26h39c2 -5 3 -9 3 -21c0 -22 -20 -35 -72 -35c-53 0 -64 24 -64 96v213c0 73 -29 113 -84 113c-63 0 -115 -48 -155 -110v-304c-9 -6 -20 -8 -40 -8
c-19 0 -35 7 -35 38v344c0 21 -10 29 -25 29h-36c-5 8 -7 15 -7 27c0 27 14 44 68 44z" />
    <glyph glyph-name="o" unicode="o" horiz-adv-x="550" 
d="M56 240c0 172 94 252 223 252c130 0 215 -80 215 -252c0 -182 -91 -250 -220 -250c-128 0 -218 71 -218 250zM134 239c0 -134 57 -179 140 -179c85 0 142 45 142 179c0 124 -53 183 -137 183c-85 0 -145 -60 -145 -183z" />
    <glyph glyph-name="p" unicode="p" horiz-adv-x="571" 
d="M110 482c44 0 67 -24 67 -63v-14c40 51 96 87 158 87c91 0 180 -55 180 -243c0 -177 -90 -259 -196 -259c-64 0 -108 28 -139 60v-247c-11 -6 -20 -9 -38 -9c-19 0 -37 8 -37 39v549c0 21 -10 29 -24 29h-35c-4 7 -7 13 -7 22c0 31 9 49 71 49zM315 422
c-53 0 -100 -33 -135 -86v-206c21 -28 66 -70 127 -70c75 0 130 57 130 181c0 144 -61 181 -122 181z" />
    <glyph glyph-name="q" unicode="q" horiz-adv-x="567" 
d="M389 -176v219c-37 -33 -81 -53 -142 -53c-106 0 -191 80 -191 251c0 174 93 251 197 251c66 0 112 -25 143 -59c11 32 42 49 77 49c38 0 55 -14 55 -36c0 -15 -2 -24 -5 -32h-35c-16 0 -26 -8 -26 -31v-581c-7 -4 -21 -8 -41 -8s-32 10 -32 30zM262 60c62 0 99 22 127 48
v248c-27 39 -66 66 -130 66c-63 0 -125 -55 -125 -181c0 -122 57 -181 128 -181z" />
    <glyph glyph-name="r" unicode="r" horiz-adv-x="433" 
d="M107 482c50 0 72 -25 72 -79v-14c41 55 102 103 159 103c54 0 86 -27 86 -84c0 -41 -16 -53 -41 -53c-13 0 -26 5 -31 11c0 16 -2 44 -42 44c-46 0 -94 -34 -129 -91v-311c-6 -5 -23 -8 -45 -8c-24 0 -30 15 -30 61v319c0 21 -8 30 -25 30h-37c-3 10 -6 20 -6 32
c0 23 26 40 69 40z" />
    <glyph glyph-name="s" unicode="s" horiz-adv-x="450" 
d="M222 492c111 0 165 -40 165 -77c0 -18 -6 -28 -18 -36c-21 20 -76 45 -145 45c-70 0 -97 -35 -97 -69c0 -41 33 -60 112 -74c119 -22 166 -64 166 -150c0 -89 -59 -141 -178 -141c-108 0 -182 40 -182 82c0 11 4 24 16 34c29 -22 102 -49 161 -49c80 0 111 32 111 70
c0 44 -29 66 -111 81c-121 22 -167 62 -167 148c0 77 57 136 167 136z" />
    <glyph glyph-name="t" unicode="t" horiz-adv-x="366" 
d="M304 417h-122v-276c0 -60 21 -75 61 -75h96c3 -7 5 -12 5 -22c0 -25 -24 -44 -123 -44c-65 0 -114 26 -114 124v293h-59c-4 7 -8 16 -8 28c0 23 7 37 33 37h34v131c7 4 23 8 39 8c20 0 36 -10 36 -33v-106h153c5 -6 7 -13 7 -26c0 -16 -5 -39 -38 -39z" />
    <glyph glyph-name="u" unicode="u" horiz-adv-x="594" 
d="M476 0c-41 0 -61 19 -61 92c-47 -62 -108 -102 -181 -102c-79 0 -132 41 -132 161v234c0 19 -8 27 -23 27h-44c-2 6 -4 14 -4 25c0 30 25 45 77 45c63 0 70 -28 70 -97v-220c0 -74 29 -105 79 -105c66 0 117 46 155 115v297c10 5 25 9 41 9c25 0 35 -9 35 -30v-358
c0 -23 8 -29 22 -29h37c1 -4 2 -8 2 -17c0 -30 -17 -47 -73 -47z" />
    <glyph glyph-name="v" unicode="v" horiz-adv-x="503" 
d="M57 482c43 0 59 -17 70 -45l129 -342c67 93 126 231 126 296c0 21 -12 31 -30 31h-29c-4 6 -5 14 -5 28c0 18 21 32 60 32c52 0 80 -21 80 -75c0 -90 -79 -256 -157 -368c-18 -26 -35 -39 -60 -39c-9 0 -22 2 -29 6l-150 393c-6 15 -14 23 -27 23h-29c-3 7 -6 16 -6 29
c0 17 23 31 57 31z" />
    <glyph glyph-name="w" unicode="w" horiz-adv-x="779" 
d="M508 7l-109 315c-22 -92 -69 -202 -112 -275c-20 -34 -37 -47 -58 -47c-13 0 -21 3 -27 7l-130 396c-4 12 -11 19 -22 19h-32c-4 7 -5 15 -5 26c0 21 16 34 59 34c40 0 56 -16 68 -54l104 -326c59 106 103 234 112 371c11 7 23 9 34 9c20 0 30 -11 37 -32l120 -349
c66 89 111 224 111 293c0 17 -10 28 -24 28h-34c-3 7 -5 14 -5 26c0 20 26 34 65 34c50 0 70 -27 70 -75c0 -96 -66 -261 -136 -359c-20 -28 -34 -48 -56 -48c-14 0 -23 2 -30 7z" />
    <glyph glyph-name="x" unicode="x" horiz-adv-x="499" 
d="M101 482c36 0 56 -15 74 -44l84 -133l109 146c15 20 29 31 49 31c31 0 42 -22 42 -42l-164 -192l100 -156c16 -25 28 -32 45 -32h37c4 -7 4 -13 4 -24c0 -21 -22 -36 -66 -36c-32 0 -59 13 -76 40l-95 147l-120 -159c-14 -18 -28 -28 -49 -28c-26 0 -38 19 -40 41
l174 202l-104 163c-7 10 -15 16 -28 16h-42c-2 6 -4 13 -4 21c0 25 32 39 70 39z" />
    <glyph glyph-name="y" unicode="y" horiz-adv-x="529" 
d="M26 -139h66c57 0 93 32 159 150c-30 5 -42 30 -59 74l-122 316c-5 14 -12 20 -24 20h-38c-3 7 -5 16 -5 23c0 23 18 38 64 38c56 0 71 -45 87 -89l110 -293c5 -14 12 -21 21 -23c60 117 123 263 123 317c0 16 -7 27 -24 27h-37c-2 5 -4 12 -4 19c0 25 18 42 60 42
c58 0 82 -27 82 -72c0 -82 -92 -284 -165 -416c-85 -152 -144 -200 -230 -200c-58 0 -71 20 -71 41c0 6 2 16 7 26z" />
    <glyph glyph-name="z" unicode="z" horiz-adv-x="471" 
d="M32 29c0 12 3 22 11 32l283 356h-274c-4 7 -7 16 -7 28c0 19 3 37 33 37h343c2 -6 5 -13 5 -27s-6 -27 -13 -36l-280 -353h308c4 -5 6 -14 6 -29c0 -18 -6 -37 -38 -37h-369c-4 7 -8 17 -8 29z" />
    <glyph glyph-name="braceleft" unicode="{" horiz-adv-x="320" 
d="M199 712c54 0 85 -13 85 -44c0 -11 -3 -19 -7 -26h-69c-31 0 -50 -21 -50 -58v-204c0 -62 -30 -78 -45 -80v-4c15 -1 45 -22 45 -84v-202c0 -40 20 -54 49 -54h71c3 -6 6 -14 6 -24c0 -30 -37 -44 -96 -44c-49 0 -99 28 -99 102v219c0 38 -19 49 -38 52
c-14 3 -22 14 -22 38c0 14 3 26 6 31c29 -1 54 21 54 54v214c0 89 56 114 110 114z" />
    <glyph glyph-name="bar" unicode="|" horiz-adv-x="266" 
d="M136 712c23 0 36 -7 36 -27v-789c-10 -5 -23 -8 -44 -8c-19 0 -33 10 -33 33v783c8 5 24 8 41 8z" />
    <glyph glyph-name="braceright" unicode="}" horiz-adv-x="320" 
d="M121 -112c-54 0 -85 13 -85 44c0 11 2 19 6 26h69c31 0 51 21 51 58v204c0 62 29 78 44 80v4c-14 1 -44 22 -44 83v203c0 40 -21 53 -49 53h-71c-4 6 -6 15 -6 25c0 30 36 44 95 44c49 0 99 -28 99 -103v-218c0 -38 19 -49 39 -52c14 -3 22 -14 22 -38
c0 -14 -3 -26 -7 -31c-29 1 -54 -22 -54 -54v-215c0 -88 -56 -113 -109 -113z" />
    <glyph glyph-name="asciitilde" unicode="~" horiz-adv-x="548" 
d="M160 414c78 0 152 -39 220 -39c63 0 77 34 85 43c12 -5 25 -28 25 -53c0 -35 -33 -62 -95 -62c-72 0 -173 38 -237 38c-45 0 -69 -33 -73 -48c-19 9 -27 29 -27 51c0 30 31 70 102 70z" />
    <glyph glyph-name="uni00A0" unicode="&#xa0;" horiz-adv-x="242" 
 />
    <glyph glyph-name="exclamdown" unicode="&#xa1;" horiz-adv-x="204" 
d="M106 -218c-21 0 -42 8 -42 30v506c6 5 21 10 39 10c22 0 39 -10 39 -42v-497c-8 -5 -17 -7 -36 -7zM151 434c0 -34 -16 -50 -48 -50s-49 16 -49 50c0 32 17 48 49 48c31 0 48 -17 48 -48z" />
    <glyph glyph-name="cent" unicode="&#xa2;" horiz-adv-x="503" 
d="M449 423c0 -12 -7 -26 -19 -38c-36 17 -59 27 -111 29l-2 -353c56 4 107 23 125 37c9 -6 14 -18 14 -32c0 -19 -11 -36 -31 -46c-18 -11 -53 -25 -109 -28v-76c-6 -5 -16 -8 -31 -8c-14 0 -26 5 -26 27l1 57c-123 14 -200 105 -200 247c0 174 103 243 203 251l1 80
c6 4 15 6 27 6c17 0 29 -7 29 -26l-1 -61c58 -3 88 -18 107 -29c18 -10 23 -19 23 -37zM127 239c0 -100 51 -163 133 -175l2 350c-72 -7 -135 -56 -135 -175z" />
    <glyph glyph-name="sterling" unicode="&#xa3;" horiz-adv-x="584" 
d="M530 0h-509c-4 10 -8 19 -8 36c0 20 7 35 26 37c36 3 61 52 69 211h-66c-4 10 -8 19 -8 33c0 24 5 41 42 41h35c1 12 1 27 1 41c0 159 54 298 235 298c109 0 174 -30 174 -66c0 -18 -8 -34 -22 -41c-26 16 -65 35 -145 35c-144 0 -167 -112 -167 -227c0 -14 0 -28 -1 -40
h255c5 -5 8 -12 8 -30c0 -19 -8 -44 -52 -44h-215c-4 -103 -18 -175 -44 -211h416c4 -5 9 -15 9 -32c0 -24 -10 -41 -33 -41z" />
    <glyph glyph-name="currency" unicode="&#xa4;" horiz-adv-x="528" 
d="M79 243c0 36 11 69 31 96l-16 16c-23 19 -47 49 -47 73c0 19 19 49 37 49l79 -84c28 20 60 31 97 31c32 0 62 -9 86 -24c30 30 51 71 90 71c21 0 47 -17 47 -31l-80 -90c24 -30 39 -67 39 -107c0 -37 -12 -70 -32 -97l18 -17c24 -23 55 -59 54 -82c0 -22 -20 -45 -40 -45
l-84 90c-28 -19 -62 -30 -98 -30c-29 0 -56 8 -80 22l-14 -18c-23 -30 -58 -60 -81 -60c-19 0 -40 16 -43 36l79 87c-27 31 -42 70 -42 114zM138 243c0 -67 55 -122 122 -122s123 55 123 122s-56 122 -123 122s-122 -55 -122 -122z" />
    <glyph glyph-name="yen" unicode="&#xa5;" horiz-adv-x="590" 
d="M340 233v-38h168c5 -4 8 -12 8 -25c0 -17 -8 -38 -53 -38h-123v-123c-7 -5 -23 -9 -43 -9c-22 0 -34 8 -34 29v103h-162c-4 8 -9 16 -9 28c0 20 6 35 41 35h130v35l-17 23h-145c-4 9 -9 16 -9 30c0 19 5 32 40 32h77c-73 117 -131 247 -169 373c11 7 23 12 40 12
c21 0 31 -6 38 -26c41 -132 100 -267 186 -391c82 123 170 322 186 412c8 4 18 5 34 5c15 0 26 -12 26 -27c-2 -67 -84 -239 -158 -358h116c5 -4 8 -11 8 -25c0 -19 -13 -37 -57 -37h-105z" />
    <glyph glyph-name="brokenbar" unicode="&#xa6;" horiz-adv-x="266" 
d="M131 712c21 0 41 -8 41 -31v-334c-6 -6 -24 -10 -43 -10c-17 0 -34 5 -34 37v330c7 5 17 8 36 8zM131 263c21 0 41 -8 41 -31v-334c-6 -6 -24 -10 -43 -10c-17 0 -34 5 -34 36v330c7 5 17 9 36 9z" />
    <glyph glyph-name="section" unicode="&#xa7;" horiz-adv-x="592" 
d="M306 723c118 0 183 -47 183 -86c0 -24 -12 -36 -28 -43c-19 27 -74 55 -162 55c-106 0 -135 -33 -135 -71c0 -44 49 -70 148 -91c121 -27 215 -68 215 -164c0 -58 -26 -101 -60 -143c20 -17 34 -40 34 -71c0 -97 -86 -149 -212 -149c-125 0 -198 52 -198 92
c0 18 6 25 19 34c31 -29 94 -56 179 -56c91 0 140 27 140 77c0 38 -53 59 -155 83c-125 30 -213 63 -213 166c0 60 33 99 69 132c-24 23 -37 51 -37 92c0 76 61 143 213 143zM275 428c-37 9 -70 18 -96 31c-32 -28 -50 -62 -50 -101c0 -62 71 -88 177 -114
c40 -10 78 -19 108 -32c27 27 43 64 43 100c0 55 -62 88 -182 116z" />
    <glyph glyph-name="dieresis" unicode="&#xa8;" horiz-adv-x="477" 
d="M76 615c0 31 15 46 46 46c29 0 45 -15 45 -46s-16 -45 -45 -45c-31 0 -46 14 -46 45zM286 615c0 31 14 46 45 46c30 0 46 -15 46 -46s-16 -45 -46 -45s-45 14 -45 45z" />
    <glyph glyph-name="copyright" unicode="&#xa9;" horiz-adv-x="794" 
d="M37 350c0 220 140 360 360 360c219 0 360 -140 360 -360c0 -219 -141 -360 -360 -360c-220 0 -360 141 -360 360zM102 350c0 -180 115 -295 295 -295s295 115 295 295c0 182 -115 295 -295 295s-295 -113 -295 -295zM518 498c0 -10 -9 -22 -17 -31c-35 18 -51 26 -104 26
c-60 0 -114 -37 -114 -141c0 -91 49 -144 121 -144c48 0 88 19 105 30c6 -3 13 -15 13 -25c0 -15 -8 -28 -23 -37c-14 -9 -48 -24 -99 -24c-107 0 -177 77 -177 200c0 148 90 201 172 201c62 0 87 -14 103 -25c15 -10 20 -17 20 -30z" />
    <glyph glyph-name="ordfeminine" unicode="&#xaa;" horiz-adv-x="282" 
d="M236 450c-18 0 -36 7 -44 22c-19 -16 -43 -27 -69 -27c-53 0 -106 32 -106 126c0 93 57 129 108 129c26 0 45 -8 62 -23v4c0 11 8 16 19 16s23 -2 28 -6v-187c0 -10 6 -13 14 -13h17c1 -6 3 -11 3 -20c0 -10 -11 -21 -32 -21zM128 489c25 0 46 11 58 22v117
c-11 14 -32 28 -56 28c-30 0 -64 -24 -64 -85s28 -82 62 -82z" />
    <glyph glyph-name="guillemotleft" unicode="&#xab;" horiz-adv-x="495" 
d="M53 280l143 161c10 10 17 13 25 13c18 0 34 -18 34 -33c0 -11 -5 -18 -12 -27l-132 -151l133 -155c7 -8 9 -14 9 -22c0 -16 -16 -31 -32 -31c-11 0 -20 4 -29 15l-141 159c-8 10 -13 19 -13 34s6 28 15 37zM253 280l144 161c9 10 16 13 24 13c19 0 34 -18 34 -33
c0 -11 -4 -18 -12 -27l-132 -151l133 -155c7 -8 9 -14 9 -22c0 -16 -16 -31 -32 -31c-10 0 -19 4 -29 15l-141 159c-8 10 -13 19 -13 34s6 28 15 37z" />
    <glyph glyph-name="logicalnot" unicode="&#xac;" horiz-adv-x="524" 
d="M427 128c-17 0 -35 6 -35 37v138h-330c-4 10 -8 19 -8 39c0 18 9 35 32 35h376c5 -9 8 -22 8 -36v-203c-6 -6 -24 -10 -43 -10z" />
    <glyph glyph-name="uni00AD" unicode="&#xad;" horiz-adv-x="427" 
d="M330 229h-267c-5 10 -9 19 -9 35c0 23 10 39 40 39h270c5 -6 8 -18 8 -34c0 -24 -10 -40 -42 -40z" />
    <glyph glyph-name="registered" unicode="&#xae;" horiz-adv-x="583" 
d="M37 447c0 155 99 255 254 255s254 -100 254 -255s-99 -254 -254 -254s-254 99 -254 254zM85 448c0 -126 80 -207 206 -207c127 0 207 81 207 207c0 127 -80 205 -207 205c-126 0 -206 -78 -206 -205zM225 578h84c42 0 83 -20 83 -76c0 -40 -27 -65 -57 -74
c21 -27 37 -71 61 -71h13c3 -4 4 -8 4 -17c0 -15 -10 -26 -33 -26c-46 0 -57 66 -90 109h-41v-104c-4 -4 -15 -5 -25 -5c-12 0 -24 3 -24 23v237c5 3 14 4 25 4zM302 539h-53v-79h47c30 0 50 15 50 41s-18 38 -44 38z" />
    <glyph glyph-name="macron" unicode="&#xaf;" horiz-adv-x="453" 
d="M332 581h-266c-4 8 -8 13 -8 26c0 20 5 34 45 34h273c5 -4 8 -10 8 -24c0 -17 -8 -36 -52 -36z" />
    <glyph glyph-name="degree" unicode="&#xb0;" horiz-adv-x="331" 
d="M32 567c0 73 59 134 133 134c73 0 133 -61 133 -134s-60 -133 -133 -133c-74 0 -133 60 -133 133zM83 567c0 -46 36 -83 83 -83c46 0 83 37 83 83s-37 83 -83 83c-47 0 -83 -37 -83 -83z" />
    <glyph glyph-name="plusminus" unicode="&#xb1;" horiz-adv-x="524" 
d="M299 472v-134h163c4 -5 8 -18 8 -36c0 -22 -9 -38 -35 -38h-136v-163c-9 -5 -22 -8 -36 -8c-25 0 -38 9 -38 40v131h-163c-5 10 -8 17 -8 36s7 38 30 38h141v163c6 4 20 8 38 8c19 0 36 -9 36 -37zM434 -9h-372c-4 9 -8 18 -8 34c0 17 9 31 32 31h376c5 -7 8 -19 8 -31
c0 -18 -7 -34 -36 -34z" />
    <glyph glyph-name="twosuperior" unicode="&#xb2;" horiz-adv-x="343" 
d="M25 630c0 27 46 69 132 69c96 0 146 -47 146 -119c0 -106 -130 -201 -203 -243v-3l217 3c2 -6 5 -16 5 -27c0 -17 -7 -25 -22 -25h-273c-3 7 -6 13 -6 29c0 15 4 27 18 37c70 50 205 139 205 221c0 48 -35 72 -89 72c-47 0 -93 -22 -109 -47c-12 6 -21 15 -21 33z" />
    <glyph glyph-name="threesuperior" unicode="&#xb3;" horiz-adv-x="338" 
d="M236 579c0 37 -29 64 -85 64c-47 0 -86 -19 -102 -43c-13 6 -21 13 -21 30c0 27 39 69 127 69c93 0 139 -49 139 -111c0 -43 -28 -83 -68 -93v-1c41 -6 79 -38 79 -97c0 -61 -43 -116 -149 -116c-105 0 -135 49 -135 79c0 19 8 28 23 33c12 -28 41 -61 109 -61
c66 0 96 32 96 71c0 41 -31 64 -81 64h-21c-10 0 -15 10 -15 23c0 12 2 17 4 23c64 0 101 26 100 66z" />
    <glyph glyph-name="acute" unicode="&#xb4;" horiz-adv-x="518" 
d="M143 579c35 19 117 112 158 112c27 0 37 -15 38 -34c-50 -27 -127 -106 -161 -106c-19 0 -31 10 -35 28z" />
    <glyph glyph-name="mu" unicode="&#xb5;" horiz-adv-x="615" 
d="M512 0c-62 0 -81 26 -81 93c-46 -61 -104 -102 -176 -102c-36 0 -62 5 -81 23v-194c-7 -5 -17 -8 -37 -8c-24 0 -34 15 -34 42v531c0 19 -10 27 -25 27h-46c-2 9 -4 17 -4 32c0 26 30 38 78 38c64 0 74 -40 74 -122v-173c0 -82 23 -122 82 -122c70 0 133 40 169 107v301
c11 6 26 9 42 9c26 0 35 -11 35 -30c0 -25 1 -335 1 -359c0 -23 8 -29 23 -29h39c2 -6 3 -14 3 -26c0 -30 -34 -38 -62 -38z" />
    <glyph glyph-name="paragraph" unicode="&#xb6;" horiz-adv-x="682" 
d="M601 626h-63v-768c-6 -5 -20 -9 -33 -9c-22 0 -41 6 -41 38v739h-106v-645c0 -73 -48 -96 -87 -96c-31 0 -48 18 -48 41c33 7 61 22 61 64v251c-127 0 -232 102 -232 229s98 230 232 230h341c4 -6 8 -17 8 -32c0 -25 -10 -42 -32 -42z" />
    <glyph glyph-name="periodcentered" unicode="&#xb7;" horiz-adv-x="171" 
d="M37 262c0 33 16 50 48 50c31 0 49 -17 49 -50c0 -32 -18 -48 -49 -48c-32 0 -48 16 -48 48z" />
    <glyph glyph-name="cedilla" unicode="&#xb8;" horiz-adv-x="555" 
d="M311 -112c0 30 -35 40 -64 41c-3 3 -6 11 -6 20l1 66l49 -1l-5 -50c45 -6 70 -31 70 -80c0 -50 -33 -80 -86 -80s-78 24 -78 44c0 15 11 23 19 26c9 -12 31 -25 56 -25c26 0 44 13 44 39z" />
    <glyph glyph-name="onesuperior" unicode="&#xb9;" horiz-adv-x="318" 
d="M278 285h-229c-3 7 -6 13 -6 24c0 17 3 28 33 28h72v285c-27 -22 -65 -33 -90 -33c-15 0 -24 10 -24 27c0 9 1 15 6 22c48 3 94 26 108 58c6 3 17 5 29 5c17 0 28 -7 28 -22v-342h89c2 -4 6 -11 6 -22c0 -18 -7 -30 -22 -30z" />
    <glyph glyph-name="ordmasculine" unicode="&#xba;" horiz-adv-x="293" 
d="M29 572c0 89 51 128 119 128c69 0 116 -39 116 -128c0 -92 -50 -126 -118 -126c-69 0 -117 36 -117 126zM80 572c0 -61 28 -83 66 -83c40 0 67 21 67 83c0 58 -25 84 -65 84s-68 -27 -68 -84z" />
    <glyph glyph-name="guillemotright" unicode="&#xbb;" horiz-adv-x="495" 
d="M241 209l-143 -160c-9 -11 -17 -14 -25 -14c-18 0 -34 18 -34 33c0 11 5 18 12 27l133 151l-134 155c-6 9 -9 14 -9 22c0 16 16 31 32 31c11 0 20 -4 29 -15l142 -159c7 -10 13 -19 13 -34c0 -14 -7 -27 -16 -37zM442 209l-144 -160c-9 -11 -17 -14 -25 -14
c-18 0 -34 18 -34 33c0 11 5 18 12 27l133 151l-133 155c-7 9 -10 14 -10 22c0 16 17 31 32 31c11 0 20 -4 29 -15l142 -159c8 -10 13 -19 13 -34c0 -14 -7 -27 -15 -37z" />
    <glyph glyph-name="onequarter" unicode="&#xbc;" horiz-adv-x="849" 
d="M554 700c23 0 35 -11 28 -31l-251 -665c-7 -3 -14 -6 -31 -6c-22 0 -33 10 -21 40l245 657c8 4 16 5 30 5zM278 285h-229c-3 7 -6 13 -6 24c0 17 3 28 33 28h72v285c-27 -22 -65 -33 -90 -33c-15 0 -24 10 -24 27c0 9 1 15 6 22c48 3 94 26 108 58c6 3 17 5 29 5
c17 0 28 -7 28 -22v-342h89c2 -4 6 -11 6 -22c0 -18 -7 -30 -22 -30zM736 291c15 0 25 -5 25 -20v-140h60c4 -3 7 -12 7 -24c0 -15 -7 -23 -19 -23h-47v-79c-6 -4 -17 -5 -30 -5c-14 0 -24 5 -24 21l-1 63h-203c-3 5 -5 11 -5 19c0 6 3 16 6 25l92 281c6 2 17 5 31 5
c17 0 24 -11 19 -23l-84 -260h144v153c7 4 17 7 29 7z" />
    <glyph glyph-name="onehalf" unicode="&#xbd;" horiz-adv-x="882" 
d="M554 700c23 0 35 -11 28 -31l-251 -665c-7 -3 -14 -6 -31 -6c-22 0 -33 10 -21 40l245 657c8 4 16 5 30 5zM278 285h-229c-3 7 -6 13 -6 24c0 17 3 28 33 28h72v285c-27 -22 -65 -33 -90 -33c-15 0 -24 10 -24 27c0 9 1 15 6 22c48 3 94 26 108 58c6 3 17 5 29 5
c17 0 28 -7 28 -22v-342h89c2 -4 6 -11 6 -22c0 -18 -7 -30 -22 -30zM564 345c0 27 46 69 132 69c96 0 146 -47 146 -119c0 -106 -130 -201 -203 -243v-3l217 3c2 -6 5 -16 5 -27c0 -17 -7 -25 -22 -25h-273c-3 7 -6 13 -6 29c0 15 4 27 18 37c70 50 205 139 205 221
c0 48 -35 72 -89 72c-47 0 -93 -22 -109 -47c-12 6 -21 15 -21 33z" />
    <glyph glyph-name="threequarters" unicode="&#xbe;" horiz-adv-x="829" 
d="M533 700c23 0 36 -11 28 -31l-250 -665c-8 -3 -15 -6 -31 -6c-22 0 -34 10 -22 40l245 657c9 4 16 5 30 5zM236 579c0 37 -29 64 -85 64c-47 0 -86 -19 -102 -43c-13 6 -21 13 -21 30c0 27 39 69 127 69c93 0 139 -49 139 -111c0 -43 -28 -83 -68 -93v-1
c41 -6 79 -38 79 -97c0 -61 -43 -116 -149 -116c-105 0 -135 49 -135 79c0 19 8 28 23 33c12 -28 41 -61 109 -61c66 0 96 32 96 71c0 41 -31 64 -81 64h-21c-10 0 -15 10 -15 23c0 12 2 17 4 23c64 0 101 26 100 66zM716 291c16 0 26 -5 26 -20v-140h60c3 -3 6 -12 6 -24
c0 -15 -7 -23 -19 -23h-47l1 -79c-6 -4 -17 -5 -31 -5s-24 5 -24 21v63h-203c-4 5 -5 11 -5 19c0 6 2 16 5 25l92 281c7 2 17 5 31 5c17 0 24 -11 20 -23l-84 -260h144l-1 153c7 4 17 7 29 7z" />
    <glyph glyph-name="questiondown" unicode="&#xbf;" horiz-adv-x="493" 
d="M120 4c0 -95 59 -145 146 -145c79 0 142 47 162 89c18 -6 31 -19 31 -44c0 -42 -60 -122 -197 -122c-135 0 -221 85 -221 211c0 129 87 197 201 209l-6 125c8 7 19 10 38 10c20 0 30 -13 31 -31l5 -126c0 -12 -3 -23 -8 -30c-87 -3 -182 -39 -182 -146zM314 432
c0 -32 -16 -48 -48 -48s-48 16 -48 48c0 34 16 50 48 50c31 0 48 -17 48 -50z" />
    <glyph glyph-name="Agrave" unicode="&#xc0;" horiz-adv-x="616" 
d="M43 0c-19 0 -31 4 -38 11l258 676c12 7 22 13 46 13c23 0 38 -11 46 -30l256 -652c-7 -15 -25 -18 -40 -18c-20 0 -35 8 -44 30l-55 140h-330l-56 -145c-7 -19 -19 -25 -43 -25zM304 607l-138 -371h281zM382 797c-4 -17 -16 -27 -35 -27c-33 0 -111 79 -161 106
c1 19 11 33 38 33c41 0 124 -92 158 -112z" />
    <glyph glyph-name="Aacute" unicode="&#xc1;" horiz-adv-x="616" 
d="M43 0c-19 0 -31 4 -38 11l258 676c12 7 22 13 46 13c23 0 38 -11 46 -30l256 -652c-7 -15 -25 -18 -40 -18c-20 0 -35 8 -44 30l-55 140h-330l-56 -145c-7 -19 -19 -25 -43 -25zM304 607l-138 -371h281zM243 799c35 19 117 112 158 112c27 0 37 -15 38 -34
c-50 -27 -127 -106 -161 -106c-19 0 -31 10 -35 28z" />
    <glyph glyph-name="Acircumflex" unicode="&#xc2;" horiz-adv-x="616" 
d="M43 0c-19 0 -31 4 -38 11l258 676c12 7 22 13 46 13c23 0 38 -11 46 -30l256 -652c-7 -15 -25 -18 -40 -18c-20 0 -35 8 -44 30l-55 140h-330l-56 -145c-7 -19 -19 -25 -43 -25zM304 607l-138 -371h281zM463 799c-3 -13 -11 -23 -23 -25c-5 -2 -12 -2 -19 0
c-30 8 -75 49 -117 77c-40 -28 -87 -69 -116 -77c-6 -2 -13 -2 -18 0c-13 2 -21 12 -24 25c34 19 115 112 157 112c41 0 121 -91 160 -112z" />
    <glyph glyph-name="Atilde" unicode="&#xc3;" horiz-adv-x="616" 
d="M43 0c-19 0 -31 4 -38 11l258 676c12 7 22 13 46 13c23 0 38 -11 46 -30l256 -652c-7 -15 -25 -18 -40 -18c-20 0 -35 8 -44 30l-55 140h-330l-56 -145c-7 -19 -19 -25 -43 -25zM304 607l-138 -371h281zM226 885c64 0 111 -41 159 -41c45 0 56 36 63 44
c8 -5 18 -24 18 -40c0 -25 -18 -62 -76 -62c-67 0 -110 39 -164 39c-35 0 -53 -35 -56 -46c-15 5 -20 24 -20 39c0 25 20 67 76 67z" />
    <glyph glyph-name="Adieresis" unicode="&#xc4;" horiz-adv-x="616" 
d="M43 0c-19 0 -31 4 -38 11l258 676c12 7 22 13 46 13c23 0 38 -11 46 -30l256 -652c-7 -15 -25 -18 -40 -18c-20 0 -35 8 -44 30l-55 140h-330l-56 -145c-7 -19 -19 -25 -43 -25zM304 607l-138 -371h281zM154 835c0 31 15 46 46 46c29 0 45 -15 45 -46s-16 -45 -45 -45
c-31 0 -46 14 -46 45zM364 835c0 31 14 46 45 46c30 0 46 -15 46 -46s-16 -45 -46 -45s-45 14 -45 45z" />
    <glyph glyph-name="Aring" unicode="&#xc5;" horiz-adv-x="616" 
d="M219 747c0 59 29 88 88 88c58 0 88 -32 88 -88c0 -38 -14 -64 -40 -78l256 -651c-7 -15 -25 -18 -40 -18c-20 0 -35 8 -44 30l-55 140h-330l-56 -145c-7 -19 -19 -25 -43 -25c-19 0 -31 4 -38 11l251 659c-25 14 -37 40 -37 77zM304 607l-138 -371h281zM260 747
c0 -29 16 -47 47 -47c30 0 48 18 48 47s-18 48 -48 48c-32 0 -47 -16 -47 -48z" />
    <glyph glyph-name="AE" unicode="&#xc6;" horiz-adv-x="913" 
d="M770 323h-260v-252h342c5 -5 8 -13 8 -31c0 -24 -10 -40 -32 -40h-361c-16 0 -34 5 -34 36v134h-285l-58 -145c-8 -19 -20 -25 -45 -25c-19 0 -33 3 -40 11l272 676c18 12 45 13 74 13h501c5 -6 8 -14 8 -32c0 -25 -10 -40 -32 -40h-318v-233h282c5 -6 10 -16 10 -35
c0 -24 -11 -37 -32 -37zM331 628l-156 -389h258v389h-102z" />
    <glyph glyph-name="Ccedilla" unicode="&#xc7;" horiz-adv-x="642" 
d="M408 -112c0 30 -35 40 -64 41c-3 3 -6 11 -6 20v42c-162 8 -275 114 -275 359c0 244 120 360 293 360c171 0 236 -82 236 -122c0 -19 -11 -36 -28 -40c-43 52 -106 88 -206 88c-129 0 -215 -91 -215 -288c0 -211 88 -285 220 -285c87 0 159 28 206 83c15 0 34 -7 34 -32
c0 -18 -8 -31 -30 -52c-14 -13 -72 -64 -188 -71l-2 -27c45 -6 70 -31 70 -80c0 -50 -33 -80 -86 -80s-78 24 -78 44c0 15 11 23 19 26c9 -12 31 -25 56 -25c26 0 44 13 44 39z" />
    <glyph glyph-name="Egrave" unicode="&#xc8;" horiz-adv-x="584" 
d="M441 324h-260v-253h342c5 -5 8 -13 8 -31c0 -24 -10 -40 -32 -40h-361c-16 0 -34 5 -34 36v656c8 5 18 8 37 8h382c5 -6 8 -14 8 -32c0 -25 -10 -39 -32 -39h-318v-234h282c5 -6 10 -16 10 -34c0 -25 -11 -37 -32 -37zM377 801c-4 -17 -16 -27 -35 -27
c-33 0 -111 79 -161 106c1 19 11 33 38 33c41 0 124 -92 158 -112z" />
    <glyph glyph-name="Eacute" unicode="&#xc9;" horiz-adv-x="584" 
d="M441 324h-260v-253h342c5 -5 8 -13 8 -31c0 -24 -10 -40 -32 -40h-361c-16 0 -34 5 -34 36v656c8 5 18 8 37 8h382c5 -6 8 -14 8 -32c0 -25 -10 -39 -32 -39h-318v-234h282c5 -6 10 -16 10 -34c0 -25 -11 -37 -32 -37zM266 803c35 19 117 112 158 112c27 0 37 -15 38 -34
c-50 -27 -127 -106 -161 -106c-19 0 -31 10 -35 28z" />
    <glyph glyph-name="Ecircumflex" unicode="&#xca;" horiz-adv-x="584" 
d="M441 324h-260v-253h342c5 -5 8 -13 8 -31c0 -24 -10 -40 -32 -40h-361c-16 0 -34 5 -34 36v656c8 5 18 8 37 8h382c5 -6 8 -14 8 -32c0 -25 -10 -39 -32 -39h-318v-234h282c5 -6 10 -16 10 -34c0 -25 -11 -37 -32 -37zM473 803c-3 -13 -11 -23 -23 -25
c-5 -2 -12 -2 -19 0c-30 8 -75 49 -117 77c-40 -28 -87 -69 -116 -77c-6 -2 -13 -2 -18 0c-13 2 -21 12 -24 25c34 19 115 112 157 112c41 0 121 -91 160 -112z" />
    <glyph glyph-name="Edieresis" unicode="&#xcb;" horiz-adv-x="584" 
d="M441 324h-260v-253h342c5 -5 8 -13 8 -31c0 -24 -10 -40 -32 -40h-361c-16 0 -34 5 -34 36v656c8 5 18 8 37 8h382c5 -6 8 -14 8 -32c0 -25 -10 -39 -32 -39h-318v-234h282c5 -6 10 -16 10 -34c0 -25 -11 -37 -32 -37zM169 839c0 31 15 46 46 46c29 0 45 -15 45 -46
s-16 -45 -45 -45c-31 0 -46 14 -46 45zM379 839c0 31 14 46 45 46c30 0 46 -15 46 -46s-16 -45 -46 -45s-45 14 -45 45z" />
    <glyph glyph-name="Igrave" unicode="&#xcc;" horiz-adv-x="286" 
d="M145 700c21 0 36 -8 36 -31v-659c-9 -6 -20 -10 -41 -10c-20 0 -36 7 -36 37v654c9 5 22 9 41 9zM237 801c-4 -17 -16 -27 -35 -27c-33 0 -111 79 -161 106c1 19 11 33 38 33c41 0 124 -92 158 -112z" />
    <glyph glyph-name="Iacute" unicode="&#xcd;" horiz-adv-x="286" 
d="M145 700c21 0 36 -8 36 -31v-659c-9 -6 -20 -10 -41 -10c-20 0 -36 7 -36 37v654c9 5 22 9 41 9zM40 803c35 19 117 112 158 112c27 0 37 -15 38 -34c-50 -27 -127 -106 -161 -106c-19 0 -31 10 -35 28z" />
    <glyph glyph-name="Icircumflex" unicode="&#xce;" horiz-adv-x="286" 
d="M145 700c21 0 36 -8 36 -31v-659c-9 -6 -20 -10 -41 -10c-20 0 -36 7 -36 37v654c9 5 22 9 41 9zM296 803c-3 -13 -11 -23 -23 -25c-5 -2 -12 -2 -19 0c-30 8 -75 49 -117 77c-40 -28 -87 -69 -116 -77c-6 -2 -13 -2 -18 0c-13 2 -21 12 -24 25c34 19 115 112 157 112
c41 0 121 -91 160 -112z" />
    <glyph glyph-name="Idieresis" unicode="&#xcf;" horiz-adv-x="286" 
d="M145 700c21 0 36 -8 36 -31v-659c-9 -6 -20 -10 -41 -10c-20 0 -36 7 -36 37v654c9 5 22 9 41 9zM-11 839c0 31 15 46 46 46c29 0 45 -15 45 -46s-16 -45 -45 -45c-31 0 -46 14 -46 45zM199 839c0 31 14 46 45 46c30 0 46 -15 46 -46s-16 -45 -46 -45s-45 14 -45 45z" />
    <glyph glyph-name="Eth" unicode="&#xd0;" horiz-adv-x="695" 
d="M143 700h136c238 0 354 -110 354 -357c0 -252 -125 -343 -327 -343h-163c-21 0 -39 5 -39 36v271h-79c-5 10 -9 18 -9 35c0 23 10 39 40 39h48v311c8 4 20 8 39 8zM283 629h-102v-248h165c5 -7 8 -19 8 -35c0 -24 -11 -39 -42 -39h-131v-236h122c163 0 250 72 250 270
c0 197 -85 288 -270 288z" />
    <glyph glyph-name="Ntilde" unicode="&#xd1;" horiz-adv-x="736" 
d="M555 20l-377 537l2 -548c-6 -5 -24 -9 -42 -9c-16 0 -34 4 -34 36v656c10 4 24 8 41 8c16 0 27 -8 35 -19l376 -538l-1 547c9 6 20 10 38 10c20 0 39 -8 39 -31v-662c-7 -4 -20 -7 -40 -7c-15 0 -28 7 -37 20zM288 885c64 0 111 -41 159 -41c45 0 56 36 63 44
c8 -5 18 -24 18 -40c0 -25 -18 -62 -76 -62c-67 0 -110 39 -164 39c-35 0 -53 -35 -56 -46c-15 5 -20 24 -20 39c0 25 20 67 76 67z" />
    <glyph glyph-name="Ograve" unicode="&#xd2;" horiz-adv-x="712" 
d="M62 350c0 245 124 360 298 360c172 0 290 -115 290 -360c0 -258 -119 -360 -290 -360c-173 0 -298 105 -298 360zM142 349c0 -211 90 -286 218 -286c129 0 210 76 210 286c0 197 -83 288 -210 288c-132 0 -218 -92 -218 -288zM416 797c-4 -17 -16 -27 -35 -27
c-33 0 -111 79 -161 106c1 19 11 33 38 33c41 0 124 -92 158 -112z" />
    <glyph glyph-name="Oacute" unicode="&#xd3;" horiz-adv-x="712" 
d="M62 350c0 245 124 360 298 360c172 0 290 -115 290 -360c0 -258 -119 -360 -290 -360c-173 0 -298 105 -298 360zM142 349c0 -211 90 -286 218 -286c129 0 210 76 210 286c0 197 -83 288 -210 288c-132 0 -218 -92 -218 -288zM287 799c35 19 117 112 158 112
c27 0 37 -15 38 -34c-50 -27 -127 -106 -161 -106c-19 0 -31 10 -35 28z" />
    <glyph glyph-name="Ocircumflex" unicode="&#xd4;" horiz-adv-x="712" 
d="M62 350c0 245 124 360 298 360c172 0 290 -115 290 -360c0 -258 -119 -360 -290 -360c-173 0 -298 105 -298 360zM142 349c0 -211 90 -286 218 -286c129 0 210 76 210 286c0 197 -83 288 -210 288c-132 0 -218 -92 -218 -288zM514 799c-3 -13 -11 -23 -23 -25
c-5 -2 -12 -2 -19 0c-30 8 -75 49 -117 77c-40 -28 -87 -69 -116 -77c-6 -2 -13 -2 -18 0c-13 2 -21 12 -24 25c34 19 115 112 157 112c41 0 121 -91 160 -112z" />
    <glyph glyph-name="Otilde" unicode="&#xd5;" horiz-adv-x="712" 
d="M62 350c0 245 124 360 298 360c172 0 290 -115 290 -360c0 -258 -119 -360 -290 -360c-173 0 -298 105 -298 360zM142 349c0 -211 90 -286 218 -286c129 0 210 76 210 286c0 197 -83 288 -210 288c-132 0 -218 -92 -218 -288zM275 885c64 0 111 -41 159 -41
c45 0 56 36 63 44c8 -5 18 -24 18 -40c0 -25 -18 -62 -76 -62c-67 0 -110 39 -164 39c-35 0 -53 -35 -56 -46c-15 5 -20 24 -20 39c0 25 20 67 76 67z" />
    <glyph glyph-name="Odieresis" unicode="&#xd6;" horiz-adv-x="712" 
d="M62 350c0 245 124 360 298 360c172 0 290 -115 290 -360c0 -258 -119 -360 -290 -360c-173 0 -298 105 -298 360zM142 349c0 -211 90 -286 218 -286c129 0 210 76 210 286c0 197 -83 288 -210 288c-132 0 -218 -92 -218 -288zM205 835c0 31 15 46 46 46
c29 0 45 -15 45 -46s-16 -45 -45 -45c-31 0 -46 14 -46 45zM415 835c0 31 14 46 45 46c30 0 46 -15 46 -46s-16 -45 -46 -45s-45 14 -45 45z" />
    <glyph glyph-name="multiply" unicode="&#xd7;" horiz-adv-x="524" 
d="M158 422l104 -104l135 135c6 1 13 -2 26 -15c14 -13 26 -37 -5 -68l-104 -104l135 -134c-4 -10 -5 -17 -17 -30c-17 -17 -33 -24 -61 3l-109 109l-135 -135c-11 4 -18 6 -29 17c-18 18 -25 33 2 61l109 109l-135 135c1 8 3 15 16 27c13 14 38 25 68 -6z" />
    <glyph glyph-name="Oslash" unicode="&#xd8;" horiz-adv-x="712" 
d="M62 350c0 245 124 360 298 360c38 0 73 -6 105 -18l45 115c8 4 17 4 28 4c16 0 27 -9 27 -20c0 -4 0 -9 -2 -14l-44 -112c82 -53 131 -157 131 -315c0 -258 -119 -360 -290 -360c-36 0 -69 4 -100 13l-53 -138c-7 -2 -14 -2 -24 -2c-14 0 -31 8 -31 21c0 4 1 10 4 16
l50 128c-89 50 -144 152 -144 322zM142 349c0 -130 36 -208 95 -246l199 520c-23 9 -49 14 -76 14c-132 0 -218 -92 -218 -288zM570 349c0 115 -31 195 -83 238l-198 -515c22 -6 46 -9 71 -9c129 0 210 76 210 286z" />
    <glyph glyph-name="Ugrave" unicode="&#xd9;" horiz-adv-x="688" 
d="M522 265v426c8 5 20 9 38 9c23 0 40 -8 40 -31v-416c0 -175 -85 -263 -258 -263s-253 85 -253 263v439c7 5 22 8 39 8c23 0 38 -8 38 -31v-403c0 -136 48 -203 176 -203c133 0 180 66 180 202zM411 797c-4 -17 -16 -27 -35 -27c-33 0 -111 79 -161 106c1 19 11 33 38 33
c41 0 124 -92 158 -112z" />
    <glyph glyph-name="Uacute" unicode="&#xda;" horiz-adv-x="688" 
d="M522 265v426c8 5 20 9 38 9c23 0 40 -8 40 -31v-416c0 -175 -85 -263 -258 -263s-253 85 -253 263v439c7 5 22 8 39 8c23 0 38 -8 38 -31v-403c0 -136 48 -203 176 -203c133 0 180 66 180 202zM293 799c35 19 117 112 158 112c27 0 37 -15 38 -34
c-50 -27 -127 -106 -161 -106c-19 0 -31 10 -35 28z" />
    <glyph glyph-name="Ucircumflex" unicode="&#xdb;" horiz-adv-x="688" 
d="M522 265v426c8 5 20 9 38 9c23 0 40 -8 40 -31v-416c0 -175 -85 -263 -258 -263s-253 85 -253 263v439c7 5 22 8 39 8c23 0 38 -8 38 -31v-403c0 -136 48 -203 176 -203c133 0 180 66 180 202zM502 799c-3 -13 -11 -23 -23 -25c-5 -2 -12 -2 -19 0c-30 8 -75 49 -117 77
c-40 -28 -87 -69 -116 -77c-6 -2 -13 -2 -18 0c-13 2 -21 12 -24 25c34 19 115 112 157 112c41 0 121 -91 160 -112z" />
    <glyph glyph-name="Udieresis" unicode="&#xdc;" horiz-adv-x="688" 
d="M522 265v426c8 5 20 9 38 9c23 0 40 -8 40 -31v-416c0 -175 -85 -263 -258 -263s-253 85 -253 263v439c7 5 22 8 39 8c23 0 38 -8 38 -31v-403c0 -136 48 -203 176 -203c133 0 180 66 180 202zM194 835c0 31 15 46 46 46c29 0 45 -15 45 -46s-16 -45 -45 -45
c-31 0 -46 14 -46 45zM404 835c0 31 14 46 45 46c30 0 46 -15 46 -46s-16 -45 -46 -45s-45 14 -45 45z" />
    <glyph glyph-name="Yacute" unicode="&#xdd;" horiz-adv-x="579" 
d="M336 232v-223c-7 -5 -23 -9 -43 -9c-22 0 -34 8 -34 29v201c-97 138 -182 303 -229 458c10 7 25 12 43 12c21 0 40 -5 47 -25c43 -135 100 -252 183 -373c77 120 162 304 178 393c8 4 26 5 33 5c24 0 35 -12 35 -27c0 -83 -133 -331 -213 -441zM242 799
c35 19 117 112 158 112c27 0 37 -15 38 -34c-50 -27 -127 -106 -161 -106c-19 0 -31 10 -35 28z" />
    <glyph glyph-name="Thorn" unicode="&#xde;" horiz-adv-x="620" 
d="M148 700c17 0 33 -7 33 -30v-96h181c110 0 201 -65 201 -207c0 -170 -116 -215 -226 -215h-156v-144c-7 -5 -23 -8 -43 -8c-18 0 -34 7 -34 36v656c8 5 24 8 44 8zM347 507h-166v-289h137c97 0 165 33 165 144c0 101 -52 145 -136 145z" />
    <glyph glyph-name="germandbls" unicode="&#xdf;" horiz-adv-x="625" 
d="M467 429c-8 1 -27 2 -39 2c-66 0 -101 -26 -101 -70c0 -38 35 -62 112 -80c90 -21 141 -60 141 -149c0 -85 -56 -142 -162 -142c-96 0 -166 48 -166 82c0 20 5 29 15 38c24 -21 83 -51 150 -51s95 35 95 71c0 44 -25 69 -98 85c-97 23 -155 67 -155 147
c0 75 48 128 146 134c2 9 3 29 3 44c0 62 -51 88 -114 88c-68 0 -137 -33 -137 -165v-443c0 -12 -15 -20 -34 -20c-18 0 -33 3 -42 9v468c0 161 103 223 213 223c100 0 185 -46 185 -158c0 -54 -6 -97 -12 -113z" />
    <glyph glyph-name="agrave" unicode="&#xe0;" horiz-adv-x="569" 
d="M473 0c-34 0 -67 13 -77 49c-38 -36 -87 -59 -143 -59c-101 0 -197 69 -197 251c0 180 104 251 202 251c63 0 102 -23 131 -56v25c0 17 14 25 32 25c19 0 33 -4 43 -9v-384c0 -27 12 -34 36 -34h25c4 -8 6 -14 6 -26c0 -18 -18 -33 -58 -33zM264 60c57 0 96 21 124 48
v249c-29 39 -61 65 -120 65c-62 0 -134 -52 -134 -180c0 -129 58 -182 130 -182zM345 577c-4 -17 -16 -27 -35 -27c-33 0 -111 79 -161 106c1 19 11 33 38 33c41 0 124 -92 158 -112z" />
    <glyph glyph-name="aacute" unicode="&#xe1;" horiz-adv-x="569" 
d="M473 0c-34 0 -67 13 -77 49c-38 -36 -87 -59 -143 -59c-101 0 -197 69 -197 251c0 180 104 251 202 251c63 0 102 -23 131 -56v25c0 17 14 25 32 25c19 0 33 -4 43 -9v-384c0 -27 12 -34 36 -34h25c4 -8 6 -14 6 -26c0 -18 -18 -33 -58 -33zM264 60c57 0 96 21 124 48
v249c-29 39 -61 65 -120 65c-62 0 -134 -52 -134 -180c0 -129 58 -182 130 -182zM215 579c35 19 117 112 158 112c27 0 37 -15 38 -34c-50 -27 -127 -106 -161 -106c-19 0 -31 10 -35 28z" />
    <glyph glyph-name="acircumflex" unicode="&#xe2;" horiz-adv-x="569" 
d="M473 0c-34 0 -67 13 -77 49c-38 -36 -87 -59 -143 -59c-101 0 -197 69 -197 251c0 180 104 251 202 251c63 0 102 -23 131 -56v25c0 17 14 25 32 25c19 0 33 -4 43 -9v-384c0 -27 12 -34 36 -34h25c4 -8 6 -14 6 -26c0 -18 -18 -33 -58 -33zM264 60c57 0 96 21 124 48
v249c-29 39 -61 65 -120 65c-62 0 -134 -52 -134 -180c0 -129 58 -182 130 -182zM430 579c-3 -13 -11 -23 -23 -25c-5 -2 -12 -2 -19 0c-30 8 -75 49 -117 77c-40 -28 -87 -69 -116 -77c-6 -2 -13 -2 -18 0c-13 2 -21 12 -24 25c34 19 115 112 157 112
c41 0 121 -91 160 -112z" />
    <glyph glyph-name="atilde" unicode="&#xe3;" horiz-adv-x="569" 
d="M473 0c-34 0 -67 13 -77 49c-38 -36 -87 -59 -143 -59c-101 0 -197 69 -197 251c0 180 104 251 202 251c63 0 102 -23 131 -56v25c0 17 14 25 32 25c19 0 33 -4 43 -9v-384c0 -27 12 -34 36 -34h25c4 -8 6 -14 6 -26c0 -18 -18 -33 -58 -33zM264 60c57 0 96 21 124 48
v249c-29 39 -61 65 -120 65c-62 0 -134 -52 -134 -180c0 -129 58 -182 130 -182zM191 672c64 0 111 -41 159 -41c45 0 56 36 63 44c8 -5 18 -24 18 -40c0 -25 -18 -62 -76 -62c-67 0 -110 39 -164 39c-35 0 -53 -35 -56 -46c-15 5 -20 24 -20 39c0 25 20 67 76 67z" />
    <glyph glyph-name="adieresis" unicode="&#xe4;" horiz-adv-x="569" 
d="M473 0c-34 0 -67 13 -77 49c-38 -36 -87 -59 -143 -59c-101 0 -197 69 -197 251c0 180 104 251 202 251c63 0 102 -23 131 -56v25c0 17 14 25 32 25c19 0 33 -4 43 -9v-384c0 -27 12 -34 36 -34h25c4 -8 6 -14 6 -26c0 -18 -18 -33 -58 -33zM264 60c57 0 96 21 124 48
v249c-29 39 -61 65 -120 65c-62 0 -134 -52 -134 -180c0 -129 58 -182 130 -182zM124 615c0 31 15 46 46 46c29 0 45 -15 45 -46s-16 -45 -45 -45c-31 0 -46 14 -46 45zM334 615c0 31 14 46 45 46c30 0 46 -15 46 -46s-16 -45 -46 -45s-45 14 -45 45z" />
    <glyph glyph-name="aring" unicode="&#xe5;" horiz-adv-x="569" 
d="M473 0c-34 0 -67 13 -77 49c-38 -36 -87 -59 -143 -59c-101 0 -197 69 -197 251c0 180 104 251 202 251c63 0 102 -23 131 -56v25c0 17 14 25 32 25c19 0 33 -4 43 -9v-384c0 -27 12 -34 36 -34h25c4 -8 6 -14 6 -26c0 -18 -18 -33 -58 -33zM264 60c57 0 96 21 124 48
v249c-29 39 -61 65 -120 65c-62 0 -134 -52 -134 -180c0 -129 58 -182 130 -182zM184 632c0 59 29 88 88 88c58 0 88 -32 88 -88s-30 -88 -88 -88c-59 0 -88 32 -88 88zM225 632c0 -29 16 -47 47 -47c30 0 48 18 48 47s-18 48 -48 48c-32 0 -47 -16 -47 -48z" />
    <glyph glyph-name="ae" unicode="&#xe6;" horiz-adv-x="783" 
d="M85 386c-8 7 -14 19 -14 32c0 49 94 74 165 74c65 0 135 -20 151 -89c40 59 102 89 167 89c122 0 182 -92 182 -209c0 -18 -2 -37 -7 -50h-318c6 -113 57 -175 153 -175c67 0 121 27 148 46c10 -6 18 -16 18 -32c0 -34 -59 -82 -179 -82c-81 0 -145 39 -181 106
c-55 -59 -135 -106 -206 -106c-89 0 -132 62 -132 148c0 71 37 121 112 132c58 8 128 10 192 15c-2 114 -30 139 -105 139c-60 0 -121 -20 -146 -38zM174 55c59 0 121 36 174 91c-6 21 -10 48 -10 71v11c-56 -6 -111 -11 -167 -16c-50 -5 -71 -31 -71 -75
c0 -43 24 -82 74 -82zM552 425c-65 0 -123 -45 -139 -137h252c0 80 -34 137 -113 137z" />
    <glyph glyph-name="ccedilla" unicode="&#xe7;" horiz-adv-x="473" 
d="M315 -112c0 30 -35 40 -64 41c-3 3 -6 11 -6 20v43c-116 14 -189 106 -189 247c0 188 114 253 221 253c70 0 105 -17 127 -32c16 -10 24 -22 24 -39c0 -11 -8 -27 -21 -37c-42 24 -70 38 -129 38c-78 0 -144 -51 -144 -183c0 -114 59 -179 149 -179c62 0 112 22 135 38
c8 -6 13 -18 13 -32c0 -19 -11 -35 -30 -46c-18 -10 -53 -27 -109 -30l-2 -26c45 -6 70 -31 70 -80c0 -50 -33 -80 -86 -80s-78 24 -78 44c0 15 11 23 19 26c9 -12 31 -25 56 -25c26 0 44 13 44 39z" />
    <glyph glyph-name="egrave" unicode="&#xe8;" horiz-adv-x="506" 
d="M452 233h-318c5 -120 66 -175 147 -175c70 0 130 28 153 46c9 -6 17 -16 17 -32c0 -31 -55 -82 -179 -82c-132 0 -216 99 -216 248c0 169 104 254 218 254c121 0 185 -92 185 -209c0 -18 -3 -37 -7 -50zM272 425c-66 0 -120 -45 -135 -137h251c0 80 -37 137 -116 137z
M329 577c-4 -17 -16 -27 -35 -27c-33 0 -111 79 -161 106c1 19 11 33 38 33c41 0 124 -92 158 -112z" />
    <glyph glyph-name="eacute" unicode="&#xe9;" horiz-adv-x="506" 
d="M452 233h-318c5 -120 66 -175 147 -175c70 0 130 28 153 46c9 -6 17 -16 17 -32c0 -31 -55 -82 -179 -82c-132 0 -216 99 -216 248c0 169 104 254 218 254c121 0 185 -92 185 -209c0 -18 -3 -37 -7 -50zM272 425c-66 0 -120 -45 -135 -137h251c0 80 -37 137 -116 137z
M212 579c35 19 117 112 158 112c27 0 37 -15 38 -34c-50 -27 -127 -106 -161 -106c-19 0 -31 10 -35 28z" />
    <glyph glyph-name="ecircumflex" unicode="&#xea;" horiz-adv-x="506" 
d="M452 233h-318c5 -120 66 -175 147 -175c70 0 130 28 153 46c9 -6 17 -16 17 -32c0 -31 -55 -82 -179 -82c-132 0 -216 99 -216 248c0 169 104 254 218 254c121 0 185 -92 185 -209c0 -18 -3 -37 -7 -50zM272 425c-66 0 -120 -45 -135 -137h251c0 80 -37 137 -116 137z
M427 579c-3 -13 -11 -23 -23 -25c-5 -2 -12 -2 -19 0c-30 8 -75 49 -117 77c-40 -28 -87 -69 -116 -77c-6 -2 -13 -2 -18 0c-13 2 -21 12 -24 25c34 19 115 112 157 112c41 0 121 -91 160 -112z" />
    <glyph glyph-name="edieresis" unicode="&#xeb;" horiz-adv-x="506" 
d="M452 233h-318c5 -120 66 -175 147 -175c70 0 130 28 153 46c9 -6 17 -16 17 -32c0 -31 -55 -82 -179 -82c-132 0 -216 99 -216 248c0 169 104 254 218 254c121 0 185 -92 185 -209c0 -18 -3 -37 -7 -50zM272 425c-66 0 -120 -45 -135 -137h251c0 80 -37 137 -116 137z
M119 615c0 31 15 46 46 46c29 0 45 -15 45 -46s-16 -45 -45 -45c-31 0 -46 14 -46 45zM329 615c0 31 14 46 45 46c30 0 46 -15 46 -46s-16 -45 -46 -45s-45 14 -45 45z" />
    <glyph glyph-name="igrave" unicode="&#xec;" horiz-adv-x="273" 
d="M104 482c43 0 71 -16 71 -78v-317c0 -19 10 -25 23 -25h30c3 -6 5 -13 5 -25c0 -23 -19 -37 -68 -37c-41 0 -65 17 -65 68v315c0 22 -11 28 -26 28h-28c-4 7 -6 17 -6 30c0 29 27 41 64 41zM193 577c-4 -17 -16 -27 -35 -27c-33 0 -111 79 -161 106c1 19 11 33 38 33
c41 0 124 -92 158 -112z" />
    <glyph glyph-name="iacute" unicode="&#xed;" horiz-adv-x="273" 
d="M104 482c43 0 71 -16 71 -78v-317c0 -19 10 -25 23 -25h30c3 -6 5 -13 5 -25c0 -23 -19 -37 -68 -37c-41 0 -65 17 -65 68v315c0 22 -11 28 -26 28h-28c-4 7 -6 17 -6 30c0 29 27 41 64 41zM47 579c35 19 117 112 158 112c27 0 37 -15 38 -34
c-50 -27 -127 -106 -161 -106c-19 0 -31 10 -35 28z" />
    <glyph glyph-name="icircumflex" unicode="&#xee;" horiz-adv-x="273" 
d="M104 482c43 0 71 -16 71 -78v-317c0 -19 10 -25 23 -25h30c3 -6 5 -13 5 -25c0 -23 -19 -37 -68 -37c-41 0 -65 17 -65 68v315c0 22 -11 28 -26 28h-28c-4 7 -6 17 -6 30c0 29 27 41 64 41zM282 579c-3 -13 -11 -23 -23 -25c-5 -2 -12 -2 -19 0c-30 8 -75 49 -117 77
c-40 -28 -87 -69 -116 -77c-6 -2 -13 -2 -18 0c-13 2 -21 12 -24 25c34 19 115 112 157 112c41 0 121 -91 160 -112z" />
    <glyph glyph-name="idieresis" unicode="&#xef;" horiz-adv-x="273" 
d="M104 482c43 0 71 -16 71 -78v-317c0 -19 10 -25 23 -25h30c3 -6 5 -13 5 -25c0 -23 -19 -37 -68 -37c-41 0 -65 17 -65 68v315c0 22 -11 28 -26 28h-28c-4 7 -6 17 -6 30c0 29 27 41 64 41zM-31 615c0 31 15 46 46 46c29 0 45 -15 45 -46s-16 -45 -45 -45
c-31 0 -46 14 -46 45zM179 615c0 31 14 46 45 46c30 0 46 -15 46 -46s-16 -45 -46 -45s-45 14 -45 45z" />
    <glyph glyph-name="eth" unicode="&#xf0;" horiz-adv-x="550" 
d="M440 592l-34 -11c47 -79 86 -184 86 -305c0 -211 -87 -280 -218 -280s-222 69 -222 252c0 174 93 241 202 241c52 0 95 -15 128 -36c-15 41 -35 77 -56 108l-102 -29c-5 6 -10 12 -12 23c-4 17 -5 31 36 43l44 13c-19 23 -38 43 -55 56c6 13 15 26 23 32
c15 11 38 20 55 4c18 -18 39 -42 60 -72l88 26c7 -3 10 -10 13 -21c3 -13 3 -34 -36 -44zM414 276c0 32 -3 62 -9 92c-40 42 -92 55 -140 55c-76 0 -136 -52 -136 -177c0 -135 59 -181 145 -181c88 0 140 48 140 211z" />
    <glyph glyph-name="ntilde" unicode="&#xf1;" horiz-adv-x="592" 
d="M106 482c55 0 73 -31 73 -86v-12c43 61 99 107 170 107c88 0 146 -46 146 -164v-245c0 -16 7 -26 19 -26h39c2 -5 3 -9 3 -21c0 -22 -20 -35 -72 -35c-53 0 -64 24 -64 96v213c0 73 -29 113 -84 113c-63 0 -115 -48 -155 -110v-304c-9 -6 -20 -8 -40 -8
c-19 0 -35 7 -35 38v344c0 21 -10 29 -25 29h-36c-5 8 -7 15 -7 27c0 27 14 44 68 44zM229 667c64 0 111 -41 159 -41c45 0 56 36 63 44c8 -5 18 -24 18 -40c0 -25 -18 -62 -76 -62c-67 0 -110 39 -164 39c-35 0 -53 -35 -56 -46c-15 5 -20 24 -20 39c0 25 20 67 76 67z" />
    <glyph glyph-name="ograve" unicode="&#xf2;" horiz-adv-x="550" 
d="M56 240c0 172 94 252 223 252c130 0 215 -80 215 -252c0 -182 -91 -250 -220 -250c-128 0 -218 71 -218 250zM134 239c0 -134 57 -179 140 -179c85 0 142 45 142 179c0 124 -53 183 -137 183c-85 0 -145 -60 -145 -183zM338 577c-4 -17 -16 -27 -35 -27
c-33 0 -111 79 -161 106c1 19 11 33 38 33c41 0 124 -92 158 -112z" />
    <glyph glyph-name="oacute" unicode="&#xf3;" horiz-adv-x="550" 
d="M56 240c0 172 94 252 223 252c130 0 215 -80 215 -252c0 -182 -91 -250 -220 -250c-128 0 -218 71 -218 250zM134 239c0 -134 57 -179 140 -179c85 0 142 45 142 179c0 124 -53 183 -137 183c-85 0 -145 -60 -145 -183zM212 579c35 19 117 112 158 112
c27 0 37 -15 38 -34c-50 -27 -127 -106 -161 -106c-19 0 -31 10 -35 28z" />
    <glyph glyph-name="ocircumflex" unicode="&#xf4;" horiz-adv-x="550" 
d="M56 240c0 172 94 252 223 252c130 0 215 -80 215 -252c0 -182 -91 -250 -220 -250c-128 0 -218 71 -218 250zM134 239c0 -134 57 -179 140 -179c85 0 142 45 142 179c0 124 -53 183 -137 183c-85 0 -145 -60 -145 -183zM438 579c-3 -13 -11 -23 -23 -25
c-5 -2 -12 -2 -19 0c-30 8 -75 49 -117 77c-40 -28 -87 -69 -116 -77c-6 -2 -13 -2 -18 0c-13 2 -21 12 -24 25c34 19 115 112 157 112c41 0 121 -91 160 -112z" />
    <glyph glyph-name="otilde" unicode="&#xf5;" horiz-adv-x="550" 
d="M56 240c0 172 94 252 223 252c130 0 215 -80 215 -252c0 -182 -91 -250 -220 -250c-128 0 -218 71 -218 250zM134 239c0 -134 57 -179 140 -179c85 0 142 45 142 179c0 124 -53 183 -137 183c-85 0 -145 -60 -145 -183zM200 672c64 0 111 -41 159 -41c45 0 56 36 63 44
c8 -5 18 -24 18 -40c0 -25 -18 -62 -76 -62c-67 0 -110 39 -164 39c-35 0 -53 -35 -56 -46c-15 5 -20 24 -20 39c0 25 20 67 76 67z" />
    <glyph glyph-name="odieresis" unicode="&#xf6;" horiz-adv-x="550" 
d="M56 240c0 172 94 252 223 252c130 0 215 -80 215 -252c0 -182 -91 -250 -220 -250c-128 0 -218 71 -218 250zM134 239c0 -134 57 -179 140 -179c85 0 142 45 142 179c0 124 -53 183 -137 183c-85 0 -145 -60 -145 -183zM124 615c0 31 15 46 46 46c29 0 45 -15 45 -46
s-16 -45 -45 -45c-31 0 -46 14 -46 45zM334 615c0 31 14 46 45 46c30 0 46 -15 46 -46s-16 -45 -46 -45s-45 14 -45 45z" />
    <glyph glyph-name="divide" unicode="&#xf7;" horiz-adv-x="524" 
d="M217 61c0 31 14 46 45 46c30 0 45 -15 45 -46s-15 -45 -45 -45c-31 0 -45 15 -45 45zM217 440c0 31 14 46 45 46c30 0 45 -15 45 -46s-15 -45 -45 -45c-31 0 -45 15 -45 45zM434 216h-372c-4 10 -8 20 -8 39s9 35 32 35h376c5 -8 8 -22 8 -36c0 -19 -7 -38 -36 -38z" />
    <glyph glyph-name="oslash" unicode="&#xf8;" horiz-adv-x="550" 
d="M56 239c0 173 94 253 223 253c18 0 35 -2 52 -5l40 126c7 3 14 5 23 5c13 0 20 -4 20 -14c0 -5 0 -9 -2 -16l-37 -115c74 -33 119 -109 119 -234c0 -181 -91 -249 -220 -249c-18 0 -35 2 -51 5l-31 -98c-7 -5 -13 -6 -26 -6c-12 0 -18 4 -18 14c0 12 4 25 9 39l20 62
c-74 31 -121 104 -121 233zM134 239c0 -89 25 -139 67 -161l108 341c-9 2 -16 3 -23 3c-89 0 -152 -57 -152 -183zM416 239c0 81 -23 135 -64 160l-107 -337c4 -1 9 -2 35 -2c81 0 136 49 136 179z" />
    <glyph glyph-name="ugrave" unicode="&#xf9;" horiz-adv-x="594" 
d="M476 0c-41 0 -61 19 -61 92c-47 -62 -108 -102 -181 -102c-79 0 -132 41 -132 161v234c0 19 -8 27 -23 27h-44c-2 6 -4 14 -4 25c0 30 25 45 77 45c63 0 70 -28 70 -97v-220c0 -74 29 -105 79 -105c66 0 117 46 155 115v297c10 5 25 9 41 9c25 0 35 -9 35 -30v-358
c0 -23 8 -29 22 -29h37c1 -4 2 -8 2 -17c0 -30 -17 -47 -73 -47zM343 577c-4 -17 -16 -27 -35 -27c-33 0 -111 79 -161 106c1 19 11 33 38 33c41 0 124 -92 158 -112z" />
    <glyph glyph-name="uacute" unicode="&#xfa;" horiz-adv-x="594" 
d="M476 0c-41 0 -61 19 -61 92c-47 -62 -108 -102 -181 -102c-79 0 -132 41 -132 161v234c0 19 -8 27 -23 27h-44c-2 6 -4 14 -4 25c0 30 25 45 77 45c63 0 70 -28 70 -97v-220c0 -74 29 -105 79 -105c66 0 117 46 155 115v297c10 5 25 9 41 9c25 0 35 -9 35 -30v-358
c0 -23 8 -29 22 -29h37c1 -4 2 -8 2 -17c0 -30 -17 -47 -73 -47zM235 579c35 19 117 112 158 112c27 0 37 -15 38 -34c-50 -27 -127 -106 -161 -106c-19 0 -31 10 -35 28z" />
    <glyph glyph-name="ucircumflex" unicode="&#xfb;" horiz-adv-x="594" 
d="M476 0c-41 0 -61 19 -61 92c-47 -62 -108 -102 -181 -102c-79 0 -132 41 -132 161v234c0 19 -8 27 -23 27h-44c-2 6 -4 14 -4 25c0 30 25 45 77 45c63 0 70 -28 70 -97v-220c0 -74 29 -105 79 -105c66 0 117 46 155 115v297c10 5 25 9 41 9c25 0 35 -9 35 -30v-358
c0 -23 8 -29 22 -29h37c1 -4 2 -8 2 -17c0 -30 -17 -47 -73 -47zM448 579c-3 -13 -11 -23 -23 -25c-5 -2 -12 -2 -19 0c-30 8 -75 49 -117 77c-40 -28 -87 -69 -116 -77c-6 -2 -13 -2 -18 0c-13 2 -21 12 -24 25c34 19 115 112 157 112c41 0 121 -91 160 -112z" />
    <glyph glyph-name="udieresis" unicode="&#xfc;" horiz-adv-x="594" 
d="M476 0c-41 0 -61 19 -61 92c-47 -62 -108 -102 -181 -102c-79 0 -132 41 -132 161v234c0 19 -8 27 -23 27h-44c-2 6 -4 14 -4 25c0 30 25 45 77 45c63 0 70 -28 70 -97v-220c0 -74 29 -105 79 -105c66 0 117 46 155 115v297c10 5 25 9 41 9c25 0 35 -9 35 -30v-358
c0 -23 8 -29 22 -29h37c1 -4 2 -8 2 -17c0 -30 -17 -47 -73 -47zM142 615c0 31 15 46 46 46c29 0 45 -15 45 -46s-16 -45 -45 -45c-31 0 -46 14 -46 45zM352 615c0 31 14 46 45 46c30 0 46 -15 46 -46s-16 -45 -46 -45s-45 14 -45 45z" />
    <glyph glyph-name="yacute" unicode="&#xfd;" horiz-adv-x="529" 
d="M26 -139h66c57 0 93 32 159 150c-30 5 -42 30 -59 74l-122 316c-5 14 -12 20 -24 20h-38c-3 7 -5 16 -5 23c0 23 18 38 64 38c56 0 71 -45 87 -89l110 -293c5 -14 12 -21 21 -23c60 117 123 263 123 317c0 16 -7 27 -24 27h-37c-2 5 -4 12 -4 19c0 25 18 42 60 42
c58 0 82 -27 82 -72c0 -82 -92 -284 -165 -416c-85 -152 -144 -200 -230 -200c-58 0 -71 20 -71 41c0 6 2 16 7 26zM210 579c35 19 117 112 158 112c27 0 37 -15 38 -34c-50 -27 -127 -106 -161 -106c-19 0 -31 10 -35 28z" />
    <glyph glyph-name="thorn" unicode="&#xfe;" horiz-adv-x="551" 
d="M121 -206c-19 0 -36 7 -36 39v860c11 4 21 7 40 7s35 -8 35 -33v-259c39 49 94 84 155 84c91 0 180 -54 180 -243c0 -177 -90 -259 -196 -259c-64 0 -108 29 -139 60v-247c-10 -6 -19 -9 -39 -9zM160 130c21 -27 66 -70 127 -70c76 0 130 58 130 181
c0 145 -62 181 -123 181c-54 0 -98 -33 -134 -86v-206z" />
    <glyph glyph-name="ydieresis" unicode="&#xff;" horiz-adv-x="529" 
d="M26 -139h66c57 0 93 32 159 150c-30 5 -42 30 -59 74l-122 316c-5 14 -12 20 -24 20h-38c-3 7 -5 16 -5 23c0 23 18 38 64 38c56 0 71 -45 87 -89l110 -293c5 -14 12 -21 21 -23c60 117 123 263 123 317c0 16 -7 27 -24 27h-37c-2 5 -4 12 -4 19c0 25 18 42 60 42
c58 0 82 -27 82 -72c0 -82 -92 -284 -165 -416c-85 -152 -144 -200 -230 -200c-58 0 -71 20 -71 41c0 6 2 16 7 26zM121 615c0 31 15 46 46 46c29 0 45 -15 45 -46s-16 -45 -45 -45c-31 0 -46 14 -46 45zM331 615c0 31 14 46 45 46c30 0 46 -15 46 -46s-16 -45 -46 -45
s-45 14 -45 45z" />
    <glyph glyph-name="Amacron" unicode="&#x100;" horiz-adv-x="616" 
d="M43 0c-19 0 -31 4 -38 11l258 676c12 7 22 13 46 13c23 0 38 -11 46 -30l256 -652c-7 -15 -25 -18 -40 -18c-20 0 -35 8 -44 30l-55 140h-330l-56 -145c-7 -19 -19 -25 -43 -25zM304 607l-138 -371h281zM419 801h-266c-4 8 -8 13 -8 26c0 20 5 34 45 34h273
c5 -4 8 -10 8 -24c0 -17 -8 -36 -52 -36z" />
    <glyph glyph-name="amacron" unicode="&#x101;" horiz-adv-x="569" 
d="M473 0c-34 0 -67 13 -77 49c-38 -36 -87 -59 -143 -59c-101 0 -197 69 -197 251c0 180 104 251 202 251c63 0 102 -23 131 -56v25c0 17 14 25 32 25c19 0 33 -4 43 -9v-384c0 -27 12 -34 36 -34h25c4 -8 6 -14 6 -26c0 -18 -18 -33 -58 -33zM264 60c57 0 96 21 124 48
v249c-29 39 -61 65 -120 65c-62 0 -134 -52 -134 -180c0 -129 58 -182 130 -182zM383 581h-266c-4 8 -8 13 -8 26c0 20 5 34 45 34h273c5 -4 8 -10 8 -24c0 -17 -8 -36 -52 -36z" />
    <glyph glyph-name="Abreve" unicode="&#x102;" horiz-adv-x="616" 
d="M43 0c-19 0 -31 4 -38 11l258 676c12 7 22 13 46 13c23 0 38 -11 46 -30l256 -652c-7 -15 -25 -18 -40 -18c-20 0 -35 8 -44 30l-55 140h-330l-56 -145c-7 -19 -19 -25 -43 -25zM304 607l-138 -371h281zM220 895c1 -19 10 -38 23 -51c15 -13 37 -19 66 -19
c25 0 48 4 62 18c17 15 23 35 25 50c6 5 16 8 29 7c19 -1 26 -12 24 -24c-4 -27 -16 -51 -39 -73c-23 -21 -59 -30 -101 -30c-43 0 -77 10 -101 28c-25 21 -39 49 -41 76c-1 15 6 22 23 24c13 0 23 -2 30 -6z" />
    <glyph glyph-name="abreve" unicode="&#x103;" horiz-adv-x="569" 
d="M473 0c-34 0 -67 13 -77 49c-38 -36 -87 -59 -143 -59c-101 0 -197 69 -197 251c0 180 104 251 202 251c63 0 102 -23 131 -56v25c0 17 14 25 32 25c19 0 33 -4 43 -9v-384c0 -27 12 -34 36 -34h25c4 -8 6 -14 6 -26c0 -18 -18 -33 -58 -33zM264 60c57 0 96 21 124 48
v249c-29 39 -61 65 -120 65c-62 0 -134 -52 -134 -180c0 -129 58 -182 130 -182zM187 675c1 -19 10 -38 23 -51c15 -13 37 -19 66 -19c25 0 48 4 62 18c17 15 23 35 25 50c6 5 16 8 29 7c19 -1 26 -12 24 -24c-4 -27 -16 -51 -39 -73c-23 -21 -59 -30 -101 -30
c-43 0 -77 10 -101 28c-25 21 -39 49 -41 76c-1 15 6 22 23 24c13 0 23 -2 30 -6z" />
    <glyph glyph-name="Aogonek" unicode="&#x104;" horiz-adv-x="616" 
d="M43 0c-19 0 -31 4 -38 11l258 676c12 7 22 13 46 13c23 0 38 -11 46 -30l256 -652c-3 -7 -8 -11 -14 -14c-23 -27 -50 -70 -50 -96c0 -34 22 -42 55 -42c3 -7 5 -13 5 -22c0 -11 -4 -23 -33 -23c-34 0 -77 19 -77 76c0 45 25 85 45 111c-6 5 -11 12 -15 22l-55 140h-330
l-56 -145c-7 -19 -19 -25 -43 -25zM304 607l-138 -371h281z" />
    <glyph glyph-name="aogonek" unicode="&#x105;" horiz-adv-x="569" 
d="M531 33c0 -9 -4 -17 -13 -23h1c-23 -28 -52 -73 -52 -99c0 -34 22 -42 55 -42c3 -7 5 -13 5 -22c0 -11 -4 -23 -33 -23c-34 0 -77 19 -77 76c0 39 19 75 37 101c-27 4 -50 18 -58 48c-38 -36 -87 -59 -143 -59c-101 0 -197 69 -197 251c0 180 104 251 202 251
c63 0 102 -23 131 -56v25c0 17 14 25 32 25c19 0 33 -4 43 -9v-384c0 -27 12 -34 36 -34h25c4 -8 6 -14 6 -26zM264 60c57 0 96 21 124 48v249c-29 39 -61 65 -120 65c-62 0 -134 -52 -134 -180c0 -129 58 -182 130 -182z" />
    <glyph glyph-name="Cacute" unicode="&#x106;" horiz-adv-x="642" 
d="M569 146c15 0 34 -7 34 -32c0 -18 -8 -31 -30 -52c-15 -14 -80 -72 -213 -72c-174 0 -297 105 -297 360c0 244 120 360 293 360c171 0 236 -82 236 -122c0 -19 -11 -36 -28 -40c-43 52 -106 88 -206 88c-129 0 -215 -91 -215 -288c0 -211 88 -285 220 -285
c87 0 159 28 206 83zM287 799c35 19 117 112 158 112c27 0 37 -15 38 -34c-50 -27 -127 -106 -161 -106c-19 0 -31 10 -35 28z" />
    <glyph glyph-name="cacute" unicode="&#x107;" horiz-adv-x="473" 
d="M428 421c0 -11 -8 -27 -21 -37c-42 24 -70 38 -129 38c-78 0 -144 -51 -144 -183c0 -114 59 -179 149 -179c62 0 112 22 135 38c8 -6 13 -18 13 -32c0 -19 -11 -35 -30 -46s-58 -30 -122 -30c-135 0 -223 95 -223 249c0 188 114 253 221 253c70 0 105 -17 127 -32
c16 -10 24 -22 24 -39zM202 579c35 19 117 112 158 112c27 0 37 -15 38 -34c-50 -27 -127 -106 -161 -106c-19 0 -31 10 -35 28z" />
    <glyph glyph-name="Ccircumflex" unicode="&#x108;" horiz-adv-x="642" 
d="M569 146c15 0 34 -7 34 -32c0 -18 -8 -31 -30 -52c-15 -14 -80 -72 -213 -72c-174 0 -297 105 -297 360c0 244 120 360 293 360c171 0 236 -82 236 -122c0 -19 -11 -36 -28 -40c-43 52 -106 88 -206 88c-129 0 -215 -91 -215 -288c0 -211 88 -285 220 -285
c87 0 159 28 206 83zM519 799c-3 -13 -11 -23 -23 -25c-5 -2 -12 -2 -19 0c-30 8 -75 49 -117 77c-40 -28 -87 -69 -116 -77c-6 -2 -13 -2 -18 0c-13 2 -21 12 -24 25c34 19 115 112 157 112c41 0 121 -91 160 -112z" />
    <glyph glyph-name="ccircumflex" unicode="&#x109;" horiz-adv-x="473" 
d="M428 421c0 -11 -8 -27 -21 -37c-42 24 -70 38 -129 38c-78 0 -144 -51 -144 -183c0 -114 59 -179 149 -179c62 0 112 22 135 38c8 -6 13 -18 13 -32c0 -19 -11 -35 -30 -46s-58 -30 -122 -30c-135 0 -223 95 -223 249c0 188 114 253 221 253c70 0 105 -17 127 -32
c16 -10 24 -22 24 -39zM427 579c-3 -13 -11 -23 -23 -25c-5 -2 -12 -2 -19 0c-30 8 -75 49 -117 77c-40 -28 -87 -69 -116 -77c-6 -2 -13 -2 -18 0c-13 2 -21 12 -24 25c34 19 115 112 157 112c41 0 121 -91 160 -112z" />
    <glyph glyph-name="Cdotaccent" unicode="&#x10a;" horiz-adv-x="642" 
d="M569 146c15 0 34 -7 34 -32c0 -18 -8 -31 -30 -52c-15 -14 -80 -72 -213 -72c-174 0 -297 105 -297 360c0 244 120 360 293 360c171 0 236 -82 236 -122c0 -19 -11 -36 -28 -40c-43 52 -106 88 -206 88c-129 0 -215 -91 -215 -288c0 -211 88 -285 220 -285
c87 0 159 28 206 83zM312 836c0 31 16 46 46 46c29 0 46 -15 46 -46s-17 -46 -46 -46c-30 0 -46 15 -46 46z" />
    <glyph glyph-name="cdotaccent" unicode="&#x10b;" horiz-adv-x="473" 
d="M428 421c0 -11 -8 -27 -21 -37c-42 24 -70 38 -129 38c-78 0 -144 -51 -144 -183c0 -114 59 -179 149 -179c62 0 112 22 135 38c8 -6 13 -18 13 -32c0 -19 -11 -35 -30 -46s-58 -30 -122 -30c-135 0 -223 95 -223 249c0 188 114 253 221 253c70 0 105 -17 127 -32
c16 -10 24 -22 24 -39zM225 617c0 31 16 46 46 46c29 0 46 -15 46 -46s-17 -46 -46 -46c-30 0 -46 15 -46 46z" />
    <glyph glyph-name="Ccaron" unicode="&#x10c;" horiz-adv-x="642" 
d="M569 146c15 0 34 -7 34 -32c0 -18 -8 -31 -30 -52c-15 -14 -80 -72 -213 -72c-174 0 -297 105 -297 360c0 244 120 360 293 360c171 0 236 -82 236 -122c0 -19 -11 -36 -28 -40c-43 52 -106 88 -206 88c-129 0 -215 -91 -215 -288c0 -211 88 -285 220 -285
c87 0 159 28 206 83zM355 772c-8 0 -13 2 -17 5c-38 17 -100 78 -143 101c0 19 16 34 38 34c29 0 83 -50 123 -84c41 34 95 84 124 84c21 0 37 -15 39 -34c-43 -23 -105 -83 -144 -101c-4 -2 -9 -5 -20 -5z" />
    <glyph glyph-name="ccaron" unicode="&#x10d;" horiz-adv-x="473" 
d="M428 421c0 -11 -8 -27 -21 -37c-42 24 -70 38 -129 38c-78 0 -144 -51 -144 -183c0 -114 59 -179 149 -179c62 0 112 22 135 38c8 -6 13 -18 13 -32c0 -19 -11 -35 -30 -46s-58 -30 -122 -30c-135 0 -223 95 -223 249c0 188 114 253 221 253c70 0 105 -17 127 -32
c16 -10 24 -22 24 -39zM266 552c-8 0 -13 2 -17 5c-38 17 -100 78 -143 101c0 19 16 34 38 34c29 0 83 -50 123 -84c41 34 95 84 124 84c21 0 37 -15 39 -34c-43 -23 -105 -83 -144 -101c-4 -2 -9 -5 -20 -5z" />
    <glyph glyph-name="Dcaron" unicode="&#x10e;" horiz-adv-x="695" 
d="M143 700h136c238 0 354 -110 354 -357c0 -252 -125 -343 -327 -343h-163c-21 0 -39 5 -39 36v656c8 4 20 8 39 8zM283 629h-102v-558h122c163 0 250 72 250 270c0 197 -85 288 -270 288zM317 770c-8 0 -13 2 -17 5c-38 17 -100 78 -143 101c0 19 16 34 38 34
c29 0 83 -50 123 -84c41 34 95 84 124 84c21 0 37 -15 39 -34c-43 -23 -105 -83 -144 -101c-4 -2 -9 -5 -20 -5z" />
    <glyph glyph-name="dcaron" unicode="&#x10f;" horiz-adv-x="581" 
d="M475 0c-35 0 -69 13 -80 49c-38 -36 -87 -59 -144 -59c-102 0 -196 70 -196 249c0 180 107 253 205 253c59 0 97 -19 128 -49v228c0 18 11 29 30 29c22 0 38 -5 45 -10v-597c0 -27 13 -34 36 -34h26c3 -8 6 -14 6 -26c0 -18 -17 -33 -56 -33zM262 60c57 0 97 21 126 48
v255c-31 37 -62 59 -119 59c-67 0 -136 -55 -136 -180c0 -127 55 -182 129 -182zM567 614c-26 0 -42 14 -42 43c0 28 16 43 43 43c28 0 46 -15 46 -65c0 -70 -22 -111 -48 -111c-15 0 -22 4 -25 15c19 19 26 57 26 75z" />
    <glyph glyph-name="Dcroat" unicode="&#x110;" horiz-adv-x="695" 
d="M143 700h136c238 0 354 -110 354 -357c0 -252 -125 -343 -327 -343h-163c-21 0 -39 5 -39 36v271h-79c-5 10 -9 18 -9 35c0 23 10 39 40 39h48v311c8 4 20 8 39 8zM283 629h-102v-248h165c5 -7 8 -19 8 -35c0 -24 -11 -39 -42 -39h-131v-236h122c163 0 250 72 250 270
c0 197 -85 288 -270 288z" />
    <glyph glyph-name="dcroat" unicode="&#x111;" horiz-adv-x="568" 
d="M475 0c-35 0 -69 13 -80 49c-38 -36 -87 -59 -144 -59c-102 0 -196 70 -196 249c0 180 107 253 205 253c59 0 97 -19 128 -49v116h-142c-4 10 -8 15 -8 31c0 17 8 28 26 28h124v53c0 18 11 29 30 29c22 0 38 -5 45 -10v-72h70c5 -7 7 -16 7 -31c0 -18 -8 -28 -27 -28h-50
v-466c0 -27 13 -34 36 -34h26c3 -8 6 -14 6 -26c0 -18 -17 -33 -56 -33zM262 60c57 0 97 21 126 48v255c-31 37 -62 59 -119 59c-67 0 -136 -55 -136 -180c0 -127 55 -182 129 -182z" />
    <glyph glyph-name="Emacron" unicode="&#x112;" horiz-adv-x="584" 
d="M441 324h-260v-253h342c5 -5 8 -13 8 -31c0 -24 -10 -40 -32 -40h-361c-16 0 -34 5 -34 36v656c8 5 18 8 37 8h382c5 -6 8 -14 8 -32c0 -25 -10 -39 -32 -39h-318v-234h282c5 -6 10 -16 10 -34c0 -25 -11 -37 -32 -37zM425 799h-266c-4 8 -8 13 -8 26c0 20 5 34 45 34
h273c5 -4 8 -10 8 -24c0 -17 -8 -36 -52 -36z" />
    <glyph glyph-name="emacron" unicode="&#x113;" horiz-adv-x="506" 
d="M452 233h-318c5 -120 66 -175 147 -175c70 0 130 28 153 46c9 -6 17 -16 17 -32c0 -31 -55 -82 -179 -82c-132 0 -216 99 -216 248c0 169 104 254 218 254c121 0 185 -92 185 -209c0 -18 -3 -37 -7 -50zM272 425c-66 0 -120 -45 -135 -137h251c0 80 -37 137 -116 137z
M385 581h-266c-4 8 -8 13 -8 26c0 20 5 34 45 34h273c5 -4 8 -10 8 -24c0 -17 -8 -36 -52 -36z" />
    <glyph glyph-name="Ebreve" unicode="&#x114;" horiz-adv-x="584" 
d="M441 324h-260v-253h342c5 -5 8 -13 8 -31c0 -24 -10 -40 -32 -40h-361c-16 0 -34 5 -34 36v656c8 5 18 8 37 8h382c5 -6 8 -14 8 -32c0 -25 -10 -39 -32 -39h-318v-234h282c5 -6 10 -16 10 -34c0 -25 -11 -37 -32 -37zM225 893c1 -19 10 -38 23 -51c15 -13 37 -19 66 -19
c25 0 48 4 62 18c17 15 23 35 25 50c6 5 16 8 29 7c19 -1 26 -12 24 -24c-4 -27 -16 -51 -39 -73c-23 -21 -59 -30 -101 -30c-43 0 -77 10 -101 28c-25 21 -39 49 -41 76c-1 15 6 22 23 24c13 0 23 -2 30 -6z" />
    <glyph glyph-name="ebreve" unicode="&#x115;" horiz-adv-x="506" 
d="M452 233h-318c5 -120 66 -175 147 -175c70 0 130 28 153 46c9 -6 17 -16 17 -32c0 -31 -55 -82 -179 -82c-132 0 -216 99 -216 248c0 169 104 254 218 254c121 0 185 -92 185 -209c0 -18 -3 -37 -7 -50zM272 425c-66 0 -120 -45 -135 -137h251c0 80 -37 137 -116 137z
M185 675c1 -19 10 -38 23 -51c15 -13 37 -19 66 -19c25 0 48 4 62 18c17 15 23 35 25 50c6 5 16 8 29 7c19 -1 26 -12 24 -24c-4 -27 -16 -51 -39 -73c-23 -21 -59 -30 -101 -30c-43 0 -77 10 -101 28c-25 21 -39 49 -41 76c-1 15 6 22 23 24c13 0 23 -2 30 -6z" />
    <glyph glyph-name="Edotaccent" unicode="&#x116;" horiz-adv-x="584" 
d="M441 324h-260v-253h342c5 -5 8 -13 8 -31c0 -24 -10 -40 -32 -40h-361c-16 0 -34 5 -34 36v656c8 5 18 8 37 8h382c5 -6 8 -14 8 -32c0 -25 -10 -39 -32 -39h-318v-234h282c5 -6 10 -16 10 -34c0 -25 -11 -37 -32 -37zM278 834c0 31 16 46 46 46c29 0 46 -15 46 -46
s-17 -46 -46 -46c-30 0 -46 15 -46 46z" />
    <glyph glyph-name="edotaccent" unicode="&#x117;" horiz-adv-x="506" 
d="M452 233h-318c5 -120 66 -175 147 -175c70 0 130 28 153 46c9 -6 17 -16 17 -32c0 -31 -55 -82 -179 -82c-132 0 -216 99 -216 248c0 169 104 254 218 254c121 0 185 -92 185 -209c0 -18 -3 -37 -7 -50zM272 425c-66 0 -120 -45 -135 -137h251c0 80 -37 137 -116 137z
M229 617c0 31 16 46 46 46c29 0 46 -15 46 -46s-17 -46 -46 -46c-30 0 -46 15 -46 46z" />
    <glyph glyph-name="Eogonek" unicode="&#x118;" horiz-adv-x="584" 
d="M441 324h-260v-253h342c5 -5 8 -13 8 -31c0 -15 -4 -26 -11 -33c-23 -28 -52 -73 -52 -99c0 -34 22 -42 55 -42c3 -7 5 -13 5 -22c0 -11 -4 -23 -33 -23c-34 0 -77 19 -77 76c0 40 20 77 39 103h-319c-16 0 -34 5 -34 36v656c8 5 18 8 37 8h382c5 -6 8 -14 8 -32
c0 -25 -10 -39 -32 -39h-318v-234h282c5 -6 10 -16 10 -34c0 -25 -11 -37 -32 -37z" />
    <glyph glyph-name="eogonek" unicode="&#x119;" horiz-adv-x="506" 
d="M452 233h-318c5 -120 66 -175 147 -175c70 0 130 28 153 46c9 -6 17 -16 17 -32c0 -9 -5 -20 -15 -31l2 -1c-23 -28 -52 -73 -52 -99c0 -34 22 -42 55 -42c3 -7 5 -13 5 -22c0 -11 -4 -23 -33 -23c-34 0 -77 19 -77 76c0 25 7 49 18 69c-23 -5 -51 -9 -82 -9
c-132 0 -216 99 -216 248c0 169 104 254 218 254c121 0 185 -92 185 -209c0 -18 -3 -37 -7 -50zM272 425c-66 0 -120 -45 -135 -137h251c0 80 -37 137 -116 137z" />
    <glyph glyph-name="Ecaron" unicode="&#x11a;" horiz-adv-x="584" 
d="M441 324h-260v-253h342c5 -5 8 -13 8 -31c0 -24 -10 -40 -32 -40h-361c-16 0 -34 5 -34 36v656c8 5 18 8 37 8h382c5 -6 8 -14 8 -32c0 -25 -10 -39 -32 -39h-318v-234h282c5 -6 10 -16 10 -34c0 -25 -11 -37 -32 -37zM313 770c-8 0 -13 2 -17 5c-38 17 -100 78 -143 101
c0 19 16 34 38 34c29 0 83 -50 123 -84c41 34 95 84 124 84c21 0 37 -15 39 -34c-43 -23 -105 -83 -144 -101c-4 -2 -9 -5 -20 -5z" />
    <glyph glyph-name="ecaron" unicode="&#x11b;" horiz-adv-x="506" 
d="M452 233h-318c5 -120 66 -175 147 -175c70 0 130 28 153 46c9 -6 17 -16 17 -32c0 -31 -55 -82 -179 -82c-132 0 -216 99 -216 248c0 169 104 254 218 254c121 0 185 -92 185 -209c0 -18 -3 -37 -7 -50zM272 425c-66 0 -120 -45 -135 -137h251c0 80 -37 137 -116 137z
M271 552c-8 0 -13 2 -17 5c-38 17 -100 78 -143 101c0 19 16 34 38 34c29 0 83 -50 123 -84c41 34 95 84 124 84c21 0 37 -15 39 -34c-43 -23 -105 -83 -144 -101c-4 -2 -9 -5 -20 -5z" />
    <glyph glyph-name="Gcircumflex" unicode="&#x11c;" horiz-adv-x="710" 
d="M562 292h-188c-4 9 -7 18 -7 33c0 18 6 36 46 36h160c43 0 59 -17 59 -64v-289c-10 -7 -19 -9 -38 -9c-17 0 -32 5 -32 32v63c-50 -62 -118 -104 -206 -104c-151 0 -294 105 -294 360c0 245 137 360 308 360c141 0 231 -55 231 -100c0 -21 -15 -37 -32 -40
c-39 33 -99 67 -195 67c-129 0 -232 -95 -232 -288c0 -211 107 -286 221 -286c76 0 155 43 199 113v116zM532 797c-3 -13 -11 -23 -23 -25c-5 -2 -12 -2 -19 0c-30 8 -75 49 -117 77c-40 -28 -87 -69 -116 -77c-6 -2 -13 -2 -18 0c-13 2 -21 12 -24 25
c34 19 115 112 157 112c41 0 121 -91 160 -112z" />
    <glyph glyph-name="gcircumflex" unicode="&#x11d;" horiz-adv-x="565" 
d="M392 -16v59c-37 -33 -82 -53 -143 -53c-107 0 -193 80 -193 251s93 251 197 251c69 0 116 -25 147 -59c12 32 41 49 76 49c38 0 58 -14 58 -36c0 -15 -2 -24 -6 -32h-34c-16 0 -26 -8 -26 -31v-396c0 -134 -73 -193 -195 -193c-105 0 -181 34 -181 81c0 15 4 28 16 38
c34 -26 97 -49 162 -49c79 0 122 42 122 120zM264 60c62 0 100 22 128 48v248c-28 40 -69 66 -131 66c-67 0 -127 -58 -127 -181c0 -122 57 -181 130 -181zM437 579c-3 -13 -11 -23 -23 -25c-5 -2 -12 -2 -19 0c-30 8 -75 49 -117 77c-40 -28 -87 -69 -116 -77
c-6 -2 -13 -2 -18 0c-13 2 -21 12 -24 25c34 19 115 112 157 112c41 0 121 -91 160 -112z" />
    <glyph glyph-name="Gbreve" unicode="&#x11e;" horiz-adv-x="710" 
d="M562 292h-188c-4 9 -7 18 -7 33c0 18 6 36 46 36h160c43 0 59 -17 59 -64v-289c-10 -7 -19 -9 -38 -9c-17 0 -32 5 -32 32v63c-50 -62 -118 -104 -206 -104c-151 0 -294 105 -294 360c0 245 137 360 308 360c141 0 231 -55 231 -100c0 -21 -15 -37 -32 -40
c-39 33 -99 67 -195 67c-129 0 -232 -95 -232 -288c0 -211 107 -286 221 -286c76 0 155 43 199 113v116zM279 893c1 -19 10 -38 23 -51c15 -13 37 -19 66 -19c25 0 48 4 62 18c17 15 23 35 25 50c6 5 16 8 29 7c19 -1 26 -12 24 -24c-4 -27 -16 -51 -39 -73
c-23 -21 -59 -30 -101 -30c-43 0 -77 10 -101 28c-25 21 -39 49 -41 76c-1 15 6 22 23 24c13 0 23 -2 30 -6z" />
    <glyph glyph-name="gbreve" unicode="&#x11f;" horiz-adv-x="565" 
d="M392 -16v59c-37 -33 -82 -53 -143 -53c-107 0 -193 80 -193 251s93 251 197 251c69 0 116 -25 147 -59c12 32 41 49 76 49c38 0 58 -14 58 -36c0 -15 -2 -24 -6 -32h-34c-16 0 -26 -8 -26 -31v-396c0 -134 -73 -193 -195 -193c-105 0 -181 34 -181 81c0 15 4 28 16 38
c34 -26 97 -49 162 -49c79 0 122 42 122 120zM264 60c62 0 100 22 128 48v248c-28 40 -69 66 -131 66c-67 0 -127 -58 -127 -181c0 -122 57 -181 130 -181zM190 675c1 -19 10 -38 23 -51c15 -13 37 -19 66 -19c25 0 48 4 62 18c17 15 23 35 25 50c6 5 16 8 29 7
c19 -1 26 -12 24 -24c-4 -27 -16 -51 -39 -73c-23 -21 -59 -30 -101 -30c-43 0 -77 10 -101 28c-25 21 -39 49 -41 76c-1 15 6 22 23 24c13 0 23 -2 30 -6z" />
    <glyph glyph-name="Gdotaccent" unicode="&#x120;" horiz-adv-x="710" 
d="M562 292h-188c-4 9 -7 18 -7 33c0 18 6 36 46 36h160c43 0 59 -17 59 -64v-289c-10 -7 -19 -9 -38 -9c-17 0 -32 5 -32 32v63c-50 -62 -118 -104 -206 -104c-151 0 -294 105 -294 360c0 245 137 360 308 360c141 0 231 -55 231 -100c0 -21 -15 -37 -32 -40
c-39 33 -99 67 -195 67c-129 0 -232 -95 -232 -288c0 -211 107 -286 221 -286c76 0 155 43 199 113v116zM319 831c0 31 16 46 46 46c29 0 46 -15 46 -46s-17 -46 -46 -46c-30 0 -46 15 -46 46z" />
    <glyph glyph-name="gdotaccent" unicode="&#x121;" horiz-adv-x="565" 
d="M392 -16v59c-37 -33 -82 -53 -143 -53c-107 0 -193 80 -193 251s93 251 197 251c69 0 116 -25 147 -59c12 32 41 49 76 49c38 0 58 -14 58 -36c0 -15 -2 -24 -6 -32h-34c-16 0 -26 -8 -26 -31v-396c0 -134 -73 -193 -195 -193c-105 0 -181 34 -181 81c0 15 4 28 16 38
c34 -26 97 -49 162 -49c79 0 122 42 122 120zM264 60c62 0 100 22 128 48v248c-28 40 -69 66 -131 66c-67 0 -127 -58 -127 -181c0 -122 57 -181 130 -181zM230 617c0 31 16 46 46 46c29 0 46 -15 46 -46s-17 -46 -46 -46c-30 0 -46 15 -46 46z" />
    <glyph glyph-name="Gcommaaccent" unicode="&#x122;" horiz-adv-x="710" 
d="M562 292h-188c-4 9 -7 18 -7 33c0 18 6 36 46 36h160c43 0 59 -17 59 -64v-289c-10 -7 -19 -9 -38 -9c-17 0 -32 5 -32 32v63c-50 -62 -118 -104 -206 -104c-151 0 -294 105 -294 360c0 245 137 360 308 360c141 0 231 -55 231 -100c0 -21 -15 -37 -32 -40
c-39 33 -99 67 -195 67c-129 0 -232 -95 -232 -288c0 -211 107 -286 221 -286c76 0 155 43 199 113v116zM363 -177c-29 0 -48 16 -48 47c0 34 18 50 49 50c32 0 52 -17 52 -74c0 -79 -26 -124 -54 -124c-16 0 -25 4 -28 17c20 19 29 63 29 84z" />
    <glyph glyph-name="gcommaaccent" unicode="&#x123;" horiz-adv-x="565" 
d="M392 -16v59c-37 -33 -82 -53 -143 -53c-107 0 -193 80 -193 251s93 251 197 251c69 0 116 -25 147 -59c12 32 41 49 76 49c38 0 58 -14 58 -36c0 -15 -2 -24 -6 -32h-34c-16 0 -26 -8 -26 -31v-396c0 -134 -73 -193 -195 -193c-105 0 -181 34 -181 81c0 15 4 28 16 38
c34 -26 97 -49 162 -49c79 0 122 42 122 120zM264 60c62 0 100 22 128 48v248c-28 40 -69 66 -131 66c-67 0 -127 -58 -127 -181c0 -122 57 -181 130 -181zM273 646c26 0 42 -14 42 -43c0 -28 -16 -43 -43 -43c-28 0 -46 15 -46 65c0 70 22 111 48 111c15 0 22 -4 25 -15
c-19 -19 -26 -57 -26 -75z" />
    <glyph glyph-name="Hcircumflex" unicode="&#x124;" horiz-adv-x="732" 
d="M591 700c21 0 37 -8 37 -31v-661c-6 -4 -22 -8 -36 -8c-22 0 -41 5 -41 37v285h-370v-312c-6 -6 -24 -10 -43 -10c-16 0 -34 5 -34 37v654c9 5 24 9 41 9c21 0 36 -8 36 -31v-276h370v298c7 5 24 9 40 9zM524 797c-3 -13 -11 -23 -23 -25c-5 -2 -12 -2 -19 0
c-30 8 -75 49 -117 77c-40 -28 -87 -69 -116 -77c-6 -2 -13 -2 -18 0c-13 2 -21 12 -24 25c34 19 115 112 157 112c41 0 121 -91 160 -112z" />
    <glyph glyph-name="hcircumflex" unicode="&#x125;" horiz-adv-x="564" 
d="M124 700c20 0 36 -9 36 -31v-275c43 59 106 98 174 98c86 0 136 -52 136 -159v-252c0 -19 7 -26 20 -26h30c4 -5 5 -11 5 -21c0 -20 -23 -34 -70 -34c-38 0 -61 20 -61 74v241c0 69 -22 107 -78 107c-58 0 -122 -45 -156 -105v-309c-7 -5 -22 -8 -40 -8
c-17 0 -35 4 -35 36v655c8 5 21 9 39 9zM281 761c-3 -13 -11 -23 -23 -25c-5 -2 -12 -2 -19 0c-30 8 -75 49 -117 77c-40 -28 -87 -69 -116 -77c-6 -2 -13 -2 -18 0c-13 2 -21 12 -24 25c34 19 115 112 157 112c41 0 121 -91 160 -112z" />
    <glyph glyph-name="Hbar" unicode="&#x126;" horiz-adv-x="732" 
d="M591 700c21 0 37 -8 37 -31v-101h92c5 -7 8 -17 8 -33c0 -24 -10 -38 -42 -38h-58v-489c-6 -4 -22 -8 -36 -8c-22 0 -41 5 -41 37v273h-370v-300c-6 -6 -24 -10 -43 -10c-16 0 -34 5 -34 37v460h-91c-5 10 -9 17 -9 34c0 22 10 37 40 37h60v123c9 5 24 9 41 9
c21 0 36 -8 36 -31v-101h370v123c7 5 24 9 40 9zM181 382h370v115h-370v-115z" />
    <glyph glyph-name="hbar" unicode="&#x127;" horiz-adv-x="564" 
d="M124 700c20 0 36 -9 36 -31v-51h149c5 -7 6 -16 6 -31c0 -18 -7 -28 -27 -28h-128v-165c43 59 106 98 174 98c86 0 136 -52 136 -159v-252c0 -19 7 -26 20 -26h30c4 -5 5 -11 5 -21c0 -20 -23 -34 -70 -34c-38 0 -61 20 -61 74v241c0 69 -22 107 -78 107
c-58 0 -122 -45 -156 -105v-309c-7 -5 -22 -8 -40 -8c-17 0 -35 4 -35 36v523h-64c-4 10 -7 15 -7 31c0 17 8 28 26 28h45v73c8 5 21 9 39 9z" />
    <glyph glyph-name="Itilde" unicode="&#x128;" horiz-adv-x="286" 
d="M145 700c21 0 36 -8 36 -31v-659c-9 -6 -20 -10 -41 -10c-20 0 -36 7 -36 37v654c9 5 22 9 41 9zM62 890c64 0 111 -41 159 -41c45 0 56 36 63 44c8 -5 18 -24 18 -40c0 -25 -18 -62 -76 -62c-67 0 -110 39 -164 39c-35 0 -53 -35 -56 -46c-15 5 -20 24 -20 39
c0 25 20 67 76 67z" />
    <glyph glyph-name="itilde" unicode="&#x129;" horiz-adv-x="273" 
d="M104 482c43 0 71 -16 71 -78v-317c0 -19 10 -25 23 -25h30c3 -6 5 -13 5 -25c0 -23 -19 -37 -68 -37c-41 0 -65 17 -65 68v315c0 22 -11 28 -26 28h-28c-4 7 -6 17 -6 30c0 29 27 41 64 41zM38 672c64 0 111 -41 159 -41c45 0 56 36 63 44c8 -5 18 -24 18 -40
c0 -25 -18 -62 -76 -62c-67 0 -110 39 -164 39c-35 0 -53 -35 -56 -46c-15 5 -20 24 -20 39c0 25 20 67 76 67z" />
    <glyph glyph-name="Imacron" unicode="&#x12a;" horiz-adv-x="286" 
d="M145 700c21 0 36 -8 36 -31v-659c-9 -6 -20 -10 -41 -10c-20 0 -36 7 -36 37v654c9 5 22 9 41 9zM254 799h-266c-4 8 -8 13 -8 26c0 20 5 34 45 34h273c5 -4 8 -10 8 -24c0 -17 -8 -36 -52 -36z" />
    <glyph glyph-name="imacron" unicode="&#x12b;" horiz-adv-x="273" 
d="M104 482c43 0 71 -16 71 -78v-317c0 -19 10 -25 23 -25h30c3 -6 5 -13 5 -25c0 -23 -19 -37 -68 -37c-41 0 -65 17 -65 68v315c0 22 -11 28 -26 28h-28c-4 7 -6 17 -6 30c0 29 27 41 64 41zM232 581h-266c-4 8 -8 13 -8 26c0 20 5 34 45 34h273c5 -4 8 -10 8 -24
c0 -17 -8 -36 -52 -36z" />
    <glyph glyph-name="Ibreve" unicode="&#x12c;" horiz-adv-x="286" 
d="M145 700c21 0 36 -8 36 -31v-659c-9 -6 -20 -10 -41 -10c-20 0 -36 7 -36 37v654c9 5 22 9 41 9zM55 893c1 -19 10 -38 23 -51c15 -13 37 -19 66 -19c25 0 48 4 62 18c17 15 23 35 25 50c6 5 16 8 29 7c19 -1 26 -12 24 -24c-4 -27 -16 -51 -39 -73
c-23 -21 -59 -30 -101 -30c-43 0 -77 10 -101 28c-25 21 -39 49 -41 76c-1 15 6 22 23 24c13 0 23 -2 30 -6z" />
    <glyph glyph-name="ibreve" unicode="&#x12d;" horiz-adv-x="273" 
d="M104 482c43 0 71 -16 71 -78v-317c0 -19 10 -25 23 -25h30c3 -6 5 -13 5 -25c0 -23 -19 -37 -68 -37c-41 0 -65 17 -65 68v315c0 22 -11 28 -26 28h-28c-4 7 -6 17 -6 30c0 29 27 41 64 41zM28 675c1 -19 10 -38 23 -51c15 -13 37 -19 66 -19c25 0 48 4 62 18
c17 15 23 35 25 50c6 5 16 8 29 7c19 -1 26 -12 24 -24c-4 -27 -16 -51 -39 -73c-23 -21 -59 -30 -101 -30c-43 0 -77 10 -101 28c-25 21 -39 49 -41 76c-1 15 6 22 23 24c13 0 23 -2 30 -6z" />
    <glyph glyph-name="Iogonek" unicode="&#x12e;" horiz-adv-x="286" 
d="M145 700c21 0 36 -8 36 -31v-659l-1 -1h2c-23 -28 -52 -73 -52 -99c0 -34 22 -42 55 -42c3 -7 5 -13 5 -22c0 -11 -4 -23 -33 -23c-34 0 -77 19 -77 76c0 41 21 78 40 104c-10 5 -16 14 -16 34v654c9 5 22 9 41 9z" />
    <glyph glyph-name="iogonek" unicode="&#x12f;" horiz-adv-x="273" 
d="M104 482c43 0 71 -16 71 -78v-317c0 -19 10 -25 23 -25h30c3 -6 5 -13 5 -25c0 -9 -3 -17 -10 -23h1c-23 -28 -52 -73 -52 -99c0 -34 22 -42 55 -42c3 -7 5 -13 5 -22c0 -11 -4 -23 -33 -23c-34 0 -77 19 -77 76c0 37 17 70 34 96c-36 2 -56 20 -56 68v315
c0 22 -11 28 -26 28h-28c-4 7 -6 17 -6 30c0 29 27 41 64 41zM79 619c0 33 16 49 48 49s50 -16 50 -49s-18 -48 -50 -48s-48 16 -48 48z" />
    <glyph glyph-name="Idotaccent" unicode="&#x130;" horiz-adv-x="286" 
d="M145 700c21 0 36 -8 36 -31v-659c-9 -6 -20 -10 -41 -10c-20 0 -36 7 -36 37v654c9 5 22 9 41 9zM97 831c0 31 16 46 46 46c29 0 46 -15 46 -46s-17 -46 -46 -46c-30 0 -46 15 -46 46z" />
    <glyph glyph-name="dotlessi" unicode="&#x131;" horiz-adv-x="273" 
d="M104 482c43 0 71 -16 71 -78v-317c0 -19 10 -25 23 -25h30c3 -6 5 -13 5 -25c0 -23 -19 -37 -68 -37c-41 0 -65 17 -65 68v315c0 22 -11 28 -26 28h-28c-4 7 -6 17 -6 30c0 29 27 41 64 41z" />
    <glyph glyph-name="IJ" unicode="&#x132;" horiz-adv-x="651" 
d="M145 700c21 0 36 -8 36 -31v-659c-9 -6 -20 -10 -41 -10c-20 0 -36 7 -36 37v654c9 5 22 9 41 9zM526 700c20 0 36 -7 36 -32v-533c0 -97 -53 -135 -137 -135c-88 0 -127 17 -127 45c0 11 2 18 6 28h102c53 0 80 21 80 78v540c10 6 23 9 40 9z" />
    <glyph glyph-name="ij" unicode="&#x133;" horiz-adv-x="540" 
d="M104 482c43 0 71 -16 71 -78v-317c0 -19 10 -25 23 -25h30c3 -6 5 -13 5 -25c0 -23 -19 -37 -68 -37c-41 0 -65 17 -65 68v315c0 22 -11 28 -26 28h-28c-4 7 -6 17 -6 30c0 29 27 41 64 41zM79 619c0 33 16 49 48 49s50 -16 50 -49s-18 -48 -50 -48s-48 16 -48 48z
M379 482c51 0 76 -21 76 -77v-486c0 -92 -52 -125 -122 -125c-55 0 -94 11 -94 41c0 9 1 17 5 28h73c38 0 62 21 62 69v451c0 21 -9 28 -23 28h-39c-3 8 -5 16 -5 30c0 26 20 41 67 41zM358 619c0 33 16 49 49 49c32 0 49 -16 49 -49s-17 -48 -49 -48s-49 16 -49 48z" />
    <glyph glyph-name="Jcircumflex" unicode="&#x134;" horiz-adv-x="365" 
d="M240 700c20 0 36 -7 36 -32v-533c0 -97 -53 -135 -137 -135c-88 0 -127 17 -127 45c0 11 2 18 6 28h102c53 0 80 21 80 78v540c10 6 23 9 40 9zM392 797c-3 -13 -11 -23 -23 -25c-5 -2 -12 -2 -19 0c-30 8 -75 49 -117 77c-40 -28 -87 -69 -116 -77c-6 -2 -13 -2 -18 0
c-13 2 -21 12 -24 25c34 19 115 112 157 112c41 0 121 -91 160 -112z" />
    <glyph glyph-name="jcircumflex" unicode="&#x135;" horiz-adv-x="267" 
d="M106 482c51 0 76 -21 76 -77v-486c0 -92 -52 -125 -122 -125c-55 0 -94 11 -94 41c0 9 1 17 5 28h73c38 0 62 21 62 69v451c0 21 -9 28 -23 28h-39c-3 8 -5 16 -5 30c0 26 20 41 67 41zM281 579c-3 -13 -11 -23 -23 -25c-5 -2 -12 -2 -19 0c-30 8 -75 49 -117 77
c-40 -28 -87 -69 -116 -77c-6 -2 -13 -2 -18 0c-13 2 -21 12 -24 25c34 19 115 112 157 112c41 0 121 -91 160 -112z" />
    <glyph glyph-name="Kcommaaccent" unicode="&#x136;" horiz-adv-x="600" 
d="M145 700c21 0 36 -8 36 -31v-302c130 85 236 220 279 327c8 4 25 6 39 6c17 0 29 -12 29 -28c0 -60 -112 -206 -220 -295c75 -79 176 -309 261 -309h6c4 -5 7 -14 7 -26c0 -22 -12 -40 -41 -40c-113 0 -206 223 -288 330c-20 -16 -49 -31 -72 -47v-276
c-9 -7 -25 -9 -44 -9c-20 0 -33 7 -33 36v655c9 5 24 9 41 9zM315 -169c-26 0 -42 14 -42 43c0 28 16 43 43 43c28 0 46 -15 46 -65c0 -70 -22 -111 -48 -111c-15 0 -22 4 -25 15c19 19 26 57 26 75z" />
    <glyph glyph-name="kcommaaccent" unicode="&#x137;" horiz-adv-x="469" 
d="M120 700c20 0 40 -8 40 -31v-390c98 43 167 115 169 195c8 5 23 8 35 8c22 0 40 -9 40 -32c0 -80 -88 -166 -174 -197c66 -39 123 -180 207 -180h11c4 -7 6 -17 6 -32c0 -28 -17 -41 -45 -41c-104 0 -170 176 -249 228v-218c-7 -6 -22 -10 -41 -10c-16 0 -34 5 -34 36
v654c8 6 18 10 35 10zM251 -169c-26 0 -42 14 -42 43c0 28 16 43 43 43c28 0 46 -15 46 -65c0 -70 -22 -111 -48 -111c-15 0 -22 4 -25 15c19 19 26 57 26 75z" />
    <glyph glyph-name="kgreenlandic" unicode="&#x138;" horiz-adv-x="469" 
d="M120 482c20 0 40 -8 40 -31v-172c98 43 167 115 169 195c8 5 23 8 35 8c22 0 40 -9 40 -32c0 -80 -88 -166 -174 -197c66 -39 123 -180 207 -180h11c4 -7 6 -17 6 -32c0 -28 -17 -41 -45 -41c-104 0 -170 176 -249 228v-218c-7 -6 -22 -10 -41 -10c-16 0 -34 5 -34 36
v436c8 6 18 10 35 10z" />
    <glyph glyph-name="Lacute" unicode="&#x139;" horiz-adv-x="540" 
d="M148 700c18 0 38 -8 38 -31v-597h331c4 -5 9 -17 9 -32c0 -25 -11 -40 -44 -40h-339c-20 0 -35 9 -35 35v657c8 5 23 8 40 8zM123 797c35 19 117 112 158 112c27 0 37 -15 38 -34c-50 -27 -127 -106 -161 -106c-19 0 -31 10 -35 28z" />
    <glyph glyph-name="lacute" unicode="&#x13a;" horiz-adv-x="285" 
d="M156 667v-526c0 -60 19 -76 68 -76h45c1 -7 3 -12 3 -22c0 -25 -16 -43 -74 -43c-81 0 -117 36 -117 123v567c9 7 17 10 37 10c29 0 38 -14 38 -33zM54 778c35 19 117 112 158 112c27 0 37 -15 38 -34c-50 -27 -127 -106 -161 -106c-19 0 -31 10 -35 28z" />
    <glyph glyph-name="Lcommaaccent" unicode="&#x13b;" horiz-adv-x="540" 
d="M148 700c18 0 38 -8 38 -31v-597h331c4 -5 9 -17 9 -32c0 -25 -11 -40 -44 -40h-339c-20 0 -35 9 -35 35v657c8 5 23 8 40 8zM312 -169c-26 0 -42 14 -42 43c0 28 16 43 43 43c28 0 46 -15 46 -65c0 -70 -22 -111 -48 -111c-15 0 -22 4 -25 15c19 19 26 57 26 75z" />
    <glyph glyph-name="lcommaaccent" unicode="&#x13c;" horiz-adv-x="285" 
d="M156 667v-526c0 -60 19 -76 68 -76h45c1 -7 3 -12 3 -22c0 -25 -16 -43 -74 -43c-81 0 -117 36 -117 123v567c9 7 17 10 37 10c29 0 38 -14 38 -33zM150 -143c-26 0 -42 14 -42 43c0 28 16 43 43 43c28 0 46 -15 46 -65c0 -70 -22 -111 -48 -111c-15 0 -22 4 -25 15
c19 19 26 57 26 75z" />
    <glyph glyph-name="Lcaron" unicode="&#x13d;" horiz-adv-x="540" 
d="M148 700c18 0 38 -8 38 -31v-597h331c4 -5 9 -17 9 -32c0 -25 -11 -40 -44 -40h-339c-20 0 -35 9 -35 35v657c8 5 23 8 40 8zM302 614c-26 0 -42 14 -42 43c0 28 16 43 43 43c28 0 46 -15 46 -65c0 -70 -22 -111 -48 -111c-15 0 -22 4 -25 15c19 19 26 57 26 75z" />
    <glyph glyph-name="lcaron" unicode="&#x13e;" horiz-adv-x="295" 
d="M156 667v-526c0 -60 19 -76 68 -76h45c1 -7 3 -12 3 -22c0 -25 -16 -43 -74 -43c-81 0 -117 36 -117 123v567c9 7 17 10 37 10c29 0 38 -14 38 -33zM239 624c-26 0 -42 14 -42 43c0 28 16 43 43 43c28 0 46 -15 46 -65c0 -70 -22 -111 -48 -111c-15 0 -22 4 -25 15
c19 19 26 57 26 75z" />
    <glyph glyph-name="Ldot" unicode="&#x13f;" horiz-adv-x="540" 
d="M148 700c18 0 38 -8 38 -31v-597h331c4 -5 9 -17 9 -32c0 -25 -11 -40 -44 -40h-339c-20 0 -35 9 -35 35v657c8 5 23 8 40 8zM349 335c0 31 16 46 46 46c29 0 46 -15 46 -46s-17 -46 -46 -46c-30 0 -46 15 -46 46z" />
    <glyph glyph-name="ldot" unicode="&#x140;" horiz-adv-x="325" 
d="M156 667v-526c0 -60 19 -76 68 -76h45c1 -7 3 -12 3 -22c0 -25 -16 -43 -74 -43c-81 0 -117 36 -117 123v567c9 7 17 10 37 10c29 0 38 -14 38 -33zM233 346c0 31 16 46 46 46c29 0 46 -15 46 -46s-17 -46 -46 -46c-30 0 -46 15 -46 46z" />
    <glyph glyph-name="Lslash" unicode="&#x141;" horiz-adv-x="540" 
d="M148 700c18 0 38 -8 38 -31v-296l134 87c9 -4 28 -19 28 -41c0 -13 -10 -25 -24 -33l-138 -90v-224h331c4 -5 9 -17 9 -32c0 -25 -11 -40 -44 -40h-339c-20 0 -35 9 -35 35v211l-67 -42c-15 7 -31 21 -31 38c0 12 8 24 24 34l74 48v368c8 5 23 8 40 8z" />
    <glyph glyph-name="lslash" unicode="&#x142;" horiz-adv-x="285" 
d="M156 667v-262l90 61c15 -5 30 -22 30 -39c0 -14 -4 -21 -16 -28l-104 -70v-188c0 -60 19 -76 68 -76h45c1 -7 3 -12 3 -22c0 -25 -16 -43 -74 -43c-81 0 -117 36 -117 123v156l-56 -37c-12 7 -27 21 -27 43c0 11 5 19 17 27l66 44v334c9 7 17 10 37 10
c29 0 38 -14 38 -33z" />
    <glyph glyph-name="Nacute" unicode="&#x143;" horiz-adv-x="736" 
d="M555 20l-377 537l2 -548c-6 -5 -24 -9 -42 -9c-16 0 -34 4 -34 36v656c10 4 24 8 41 8c16 0 27 -8 35 -19l376 -538l-1 547c9 6 20 10 38 10c20 0 39 -8 39 -31v-662c-7 -4 -20 -7 -40 -7c-15 0 -28 7 -37 20zM311 797c35 19 117 112 158 112c27 0 37 -15 38 -34
c-50 -27 -127 -106 -161 -106c-19 0 -31 10 -35 28z" />
    <glyph glyph-name="nacute" unicode="&#x144;" horiz-adv-x="592" 
d="M106 482c55 0 73 -31 73 -86v-12c43 61 99 107 170 107c88 0 146 -46 146 -164v-245c0 -16 7 -26 19 -26h39c2 -5 3 -9 3 -21c0 -22 -20 -35 -72 -35c-53 0 -64 24 -64 96v213c0 73 -29 113 -84 113c-63 0 -115 -48 -155 -110v-304c-9 -6 -20 -8 -40 -8
c-19 0 -35 7 -35 38v344c0 21 -10 29 -25 29h-36c-5 8 -7 15 -7 27c0 27 14 44 68 44zM230 579c35 19 117 112 158 112c27 0 37 -15 38 -34c-50 -27 -127 -106 -161 -106c-19 0 -31 10 -35 28z" />
    <glyph glyph-name="Ncommaaccent" unicode="&#x145;" horiz-adv-x="736" 
d="M555 20l-377 537l2 -548c-6 -5 -24 -9 -42 -9c-16 0 -34 4 -34 36v656c10 4 24 8 41 8c16 0 27 -8 35 -19l376 -538l-1 547c9 6 20 10 38 10c20 0 39 -8 39 -31v-662c-7 -4 -20 -7 -40 -7c-15 0 -28 7 -37 20zM368 -169c-26 0 -42 14 -42 43c0 28 16 43 43 43
c28 0 46 -15 46 -65c0 -70 -22 -111 -48 -111c-15 0 -22 4 -25 15c19 19 26 57 26 75z" />
    <glyph glyph-name="ncommaaccent" unicode="&#x146;" horiz-adv-x="592" 
d="M106 482c55 0 73 -31 73 -86v-12c43 61 99 107 170 107c88 0 146 -46 146 -164v-245c0 -16 7 -26 19 -26h39c2 -5 3 -9 3 -21c0 -22 -20 -35 -72 -35c-53 0 -64 24 -64 96v213c0 73 -29 113 -84 113c-63 0 -115 -48 -155 -110v-304c-9 -6 -20 -8 -40 -8
c-19 0 -35 7 -35 38v344c0 21 -10 29 -25 29h-36c-5 8 -7 15 -7 27c0 27 14 44 68 44zM310 -166c-26 0 -42 14 -42 43c0 28 16 43 43 43c28 0 46 -15 46 -65c0 -70 -22 -111 -48 -111c-15 0 -22 4 -25 15c19 19 26 57 26 75z" />
    <glyph glyph-name="Ncaron" unicode="&#x147;" horiz-adv-x="736" 
d="M555 20l-377 537l2 -548c-6 -5 -24 -9 -42 -9c-16 0 -34 4 -34 36v656c10 4 24 8 41 8c16 0 27 -8 35 -19l376 -538l-1 547c9 6 20 10 38 10c20 0 39 -8 39 -31v-662c-7 -4 -20 -7 -40 -7c-15 0 -28 7 -37 20zM373 770c-8 0 -13 2 -17 5c-38 17 -100 78 -143 101
c0 19 16 34 38 34c29 0 83 -50 123 -84c41 34 95 84 124 84c21 0 37 -15 39 -34c-43 -23 -105 -83 -144 -101c-4 -2 -9 -5 -20 -5z" />
    <glyph glyph-name="ncaron" unicode="&#x148;" horiz-adv-x="592" 
d="M106 482c55 0 73 -31 73 -86v-12c43 61 99 107 170 107c88 0 146 -46 146 -164v-245c0 -16 7 -26 19 -26h39c2 -5 3 -9 3 -21c0 -22 -20 -35 -72 -35c-53 0 -64 24 -64 96v213c0 73 -29 113 -84 113c-63 0 -115 -48 -155 -110v-304c-9 -6 -20 -8 -40 -8
c-19 0 -35 7 -35 38v344c0 21 -10 29 -25 29h-36c-5 8 -7 15 -7 27c0 27 14 44 68 44zM291 552c-8 0 -13 2 -17 5c-38 17 -100 78 -143 101c0 19 16 34 38 34c29 0 83 -50 123 -84c41 34 95 84 124 84c21 0 37 -15 39 -34c-43 -23 -105 -83 -144 -101c-4 -2 -9 -5 -20 -5z
" />
    <glyph glyph-name="napostrophe" unicode="&#x149;" horiz-adv-x="653" 
d="M167 482c55 0 73 -31 73 -86v-12c43 61 99 107 170 107c88 0 146 -46 146 -164v-245c0 -16 7 -26 19 -26h39c2 -5 3 -9 3 -21c0 -22 -20 -35 -72 -35c-53 0 -64 24 -64 96v213c0 73 -29 113 -84 113c-63 0 -115 -48 -155 -110v-304c-9 -6 -20 -8 -40 -8
c-19 0 -35 7 -35 38v344c0 21 -10 29 -25 29h-36c-5 8 -7 15 -7 27c0 27 14 44 68 44zM22 591c-26 0 -42 14 -42 43c0 28 16 43 43 43c28 0 46 -15 46 -65c0 -70 -22 -111 -48 -111c-15 0 -22 4 -25 15c19 19 26 57 26 75z" />
    <glyph glyph-name="Eng" unicode="&#x14a;" horiz-adv-x="736" 
d="M178 557l2 -548c-6 -5 -24 -9 -42 -9c-16 0 -34 4 -34 36v656c10 4 24 8 41 8c16 0 27 -8 35 -19l376 -538l-1 547c9 6 20 10 38 10c20 0 39 -8 39 -31v-740c0 -97 -46 -135 -134 -135c-43 0 -77 15 -77 43c0 11 2 18 6 27h53c52 0 77 22 77 78v75z" />
    <glyph glyph-name="eng" unicode="&#x14b;" horiz-adv-x="581" 
d="M106 482c59 0 73 -32 73 -98c46 64 104 108 179 108c83 0 137 -53 137 -164v-373c0 -121 -35 -161 -118 -161c-55 0 -94 13 -94 42c0 10 0 19 5 30h70c37 0 62 21 62 69v374c0 73 -29 113 -84 113c-63 0 -115 -48 -155 -110v-304c-9 -6 -20 -8 -40 -8c-19 0 -35 7 -35 38
v344c0 21 -10 29 -25 29h-36c-5 8 -7 16 -7 28c0 27 15 43 68 43z" />
    <glyph glyph-name="Omacron" unicode="&#x14c;" horiz-adv-x="712" 
d="M62 350c0 245 124 360 298 360c172 0 290 -115 290 -360c0 -258 -119 -360 -290 -360c-173 0 -298 105 -298 360zM142 349c0 -211 90 -286 218 -286c129 0 210 76 210 286c0 197 -83 288 -210 288c-132 0 -218 -92 -218 -288zM467 799h-266c-4 8 -8 13 -8 26
c0 20 5 34 45 34h273c5 -4 8 -10 8 -24c0 -17 -8 -36 -52 -36z" />
    <glyph glyph-name="omacron" unicode="&#x14d;" horiz-adv-x="550" 
d="M56 240c0 172 94 252 223 252c130 0 215 -80 215 -252c0 -182 -91 -250 -220 -250c-128 0 -218 71 -218 250zM134 239c0 -134 57 -179 140 -179c85 0 142 45 142 179c0 124 -53 183 -137 183c-85 0 -145 -60 -145 -183zM385 581h-266c-4 8 -8 13 -8 26c0 20 5 34 45 34
h273c5 -4 8 -10 8 -24c0 -17 -8 -36 -52 -36z" />
    <glyph glyph-name="Obreve" unicode="&#x14e;" horiz-adv-x="712" 
d="M62 350c0 245 124 360 298 360c172 0 290 -115 290 -360c0 -258 -119 -360 -290 -360c-173 0 -298 105 -298 360zM142 349c0 -211 90 -286 218 -286c129 0 210 76 210 286c0 197 -83 288 -210 288c-132 0 -218 -92 -218 -288zM268 893c1 -19 10 -38 23 -51
c15 -13 37 -19 66 -19c25 0 48 4 62 18c17 15 23 35 25 50c6 5 16 8 29 7c19 -1 26 -12 24 -24c-4 -27 -16 -51 -39 -73c-23 -21 -59 -30 -101 -30c-43 0 -77 10 -101 28c-25 21 -39 49 -41 76c-1 15 6 22 23 24c13 0 23 -2 30 -6z" />
    <glyph glyph-name="obreve" unicode="&#x14f;" horiz-adv-x="550" 
d="M56 240c0 172 94 252 223 252c130 0 215 -80 215 -252c0 -182 -91 -250 -220 -250c-128 0 -218 71 -218 250zM134 239c0 -134 57 -179 140 -179c85 0 142 45 142 179c0 124 -53 183 -137 183c-85 0 -145 -60 -145 -183zM186 675c1 -19 10 -38 23 -51
c15 -13 37 -19 66 -19c25 0 48 4 62 18c17 15 23 35 25 50c6 5 16 8 29 7c19 -1 26 -12 24 -24c-4 -27 -16 -51 -39 -73c-23 -21 -59 -30 -101 -30c-43 0 -77 10 -101 28c-25 21 -39 49 -41 76c-1 15 6 22 23 24c13 0 23 -2 30 -6z" />
    <glyph glyph-name="Ohungarumlaut" unicode="&#x150;" horiz-adv-x="712" 
d="M62 350c0 245 124 360 298 360c172 0 290 -115 290 -360c0 -258 -119 -360 -290 -360c-173 0 -298 105 -298 360zM142 349c0 -211 90 -286 218 -286c129 0 210 76 210 286c0 197 -83 288 -210 288c-132 0 -218 -92 -218 -288zM213 796c35 25 102 132 146 132
c25 0 35 -11 38 -27c-49 -35 -114 -127 -152 -127c-16 0 -27 8 -32 22zM388 802c34 19 118 112 158 112c28 0 38 -15 38 -34c-50 -27 -128 -106 -161 -106c-18 0 -31 10 -35 28z" />
    <glyph glyph-name="ohungarumlaut" unicode="&#x151;" horiz-adv-x="550" 
d="M56 240c0 172 94 252 223 252c130 0 215 -80 215 -252c0 -182 -91 -250 -220 -250c-128 0 -218 71 -218 250zM134 239c0 -134 57 -179 140 -179c85 0 142 45 142 179c0 124 -53 183 -137 183c-85 0 -145 -60 -145 -183zM137 578c35 25 102 132 146 132
c25 0 35 -11 38 -27c-49 -35 -114 -127 -152 -127c-16 0 -27 8 -32 22zM312 584c34 19 118 112 158 112c28 0 38 -15 38 -34c-50 -27 -128 -106 -161 -106c-18 0 -31 10 -35 28z" />
    <glyph glyph-name="OE" unicode="&#x152;" horiz-adv-x="979" 
d="M894 0h-359c-7 0 -17 0 -22 3c-52 -10 -93 -13 -145 -13c-182 0 -306 105 -306 360c0 236 115 360 306 360c46 0 88 -4 137 -15c8 4 18 5 33 5h380c4 -6 8 -14 8 -32c0 -25 -11 -39 -32 -39h-318v-234h282c5 -6 9 -16 9 -34c0 -25 -11 -37 -31 -37h-260v-253h342
c4 -5 8 -13 8 -31c0 -25 -11 -40 -32 -40zM142 349c0 -210 89 -286 226 -286c46 0 89 2 131 14v540c-45 17 -83 20 -131 20c-141 0 -226 -93 -226 -288z" />
    <glyph glyph-name="oe" unicode="&#x153;" horiz-adv-x="868" 
d="M56 240c0 172 94 252 223 252c84 0 148 -37 181 -110c37 73 105 110 178 110c121 0 183 -91 183 -209c0 -18 -3 -37 -7 -50h-318c4 -112 56 -174 147 -174c72 0 131 28 154 45c10 -6 17 -16 17 -32c0 -34 -58 -82 -179 -82c-79 0 -142 39 -176 105
c-35 -75 -101 -105 -185 -105c-128 0 -218 71 -218 250zM134 239c0 -134 57 -179 140 -179s142 46 142 172c0 128 -50 190 -137 190c-85 0 -145 -60 -145 -183zM637 425c-65 0 -124 -45 -139 -137h252c0 80 -33 137 -113 137z" />
    <glyph glyph-name="Racute" unicode="&#x154;" horiz-adv-x="645" 
d="M143 700h220c109 0 203 -52 203 -194c0 -112 -77 -177 -163 -195c74 -98 135 -243 204 -243h4c4 -5 7 -14 7 -26c0 -27 -16 -42 -49 -42c-103 0 -168 198 -248 301h-140v-292c-6 -6 -22 -9 -38 -9c-21 0 -39 5 -39 36v657c8 5 22 7 39 7zM344 632h-163v-263h149
c85 0 156 40 156 137c0 96 -56 126 -142 126zM244 797c35 19 117 112 158 112c27 0 37 -15 38 -34c-50 -27 -127 -106 -161 -106c-19 0 -31 10 -35 28z" />
    <glyph glyph-name="racute" unicode="&#x155;" horiz-adv-x="433" 
d="M107 482c50 0 72 -25 72 -79v-14c41 55 102 103 159 103c54 0 86 -27 86 -84c0 -41 -16 -53 -41 -53c-13 0 -26 5 -31 11c0 16 -2 44 -42 44c-46 0 -94 -34 -129 -91v-311c-6 -5 -23 -8 -45 -8c-24 0 -30 15 -30 61v319c0 21 -8 30 -25 30h-37c-3 10 -6 20 -6 32
c0 23 26 40 69 40zM168 579c35 19 117 112 158 112c27 0 37 -15 38 -34c-50 -27 -127 -106 -161 -106c-19 0 -31 10 -35 28z" />
    <glyph glyph-name="Rcommaaccent" unicode="&#x156;" horiz-adv-x="645" 
d="M143 700h220c109 0 203 -52 203 -194c0 -112 -77 -177 -163 -195c74 -98 135 -243 204 -243h4c4 -5 7 -14 7 -26c0 -27 -16 -42 -49 -42c-103 0 -168 198 -248 301h-140v-292c-6 -6 -22 -9 -38 -9c-21 0 -39 5 -39 36v657c8 5 22 7 39 7zM344 632h-163v-263h149
c85 0 156 40 156 137c0 96 -56 126 -142 126zM337 -169c-26 0 -42 14 -42 43c0 28 16 43 43 43c28 0 46 -15 46 -65c0 -70 -22 -111 -48 -111c-15 0 -22 4 -25 15c19 19 26 57 26 75z" />
    <glyph glyph-name="rcommaaccent" unicode="&#x157;" horiz-adv-x="433" 
d="M107 482c50 0 72 -25 72 -79v-14c41 55 102 103 159 103c54 0 86 -27 86 -84c0 -41 -16 -53 -41 -53c-13 0 -26 5 -31 11c0 16 -2 44 -42 44c-46 0 -94 -34 -129 -91v-311c-6 -5 -23 -8 -45 -8c-24 0 -30 15 -30 61v319c0 21 -8 30 -25 30h-37c-3 10 -6 20 -6 32
c0 23 26 40 69 40zM141 -143c-26 0 -42 14 -42 43c0 28 16 43 43 43c28 0 46 -15 46 -65c0 -70 -22 -111 -48 -111c-15 0 -22 4 -25 15c19 19 26 57 26 75z" />
    <glyph glyph-name="Rcaron" unicode="&#x158;" horiz-adv-x="645" 
d="M143 700h220c109 0 203 -52 203 -194c0 -112 -77 -177 -163 -195c74 -98 135 -243 204 -243h4c4 -5 7 -14 7 -26c0 -27 -16 -42 -49 -42c-103 0 -168 198 -248 301h-140v-292c-6 -6 -22 -9 -38 -9c-21 0 -39 5 -39 36v657c8 5 22 7 39 7zM344 632h-163v-263h149
c85 0 156 40 156 137c0 96 -56 126 -142 126zM303 770c-8 0 -13 2 -17 5c-38 17 -100 78 -143 101c0 19 16 34 38 34c29 0 83 -50 123 -84c41 34 95 84 124 84c21 0 37 -15 39 -34c-43 -23 -105 -83 -144 -101c-4 -2 -9 -5 -20 -5z" />
    <glyph glyph-name="rcaron" unicode="&#x159;" horiz-adv-x="433" 
d="M107 482c50 0 72 -25 72 -79v-14c41 55 102 103 159 103c54 0 86 -27 86 -84c0 -41 -16 -53 -41 -53c-13 0 -26 5 -31 11c0 16 -2 44 -42 44c-46 0 -94 -34 -129 -91v-311c-6 -5 -23 -8 -45 -8c-24 0 -30 15 -30 61v319c0 21 -8 30 -25 30h-37c-3 10 -6 20 -6 32
c0 23 26 40 69 40zM233 552c-8 0 -13 2 -17 5c-38 17 -100 78 -143 101c0 19 16 34 38 34c29 0 83 -50 123 -84c41 34 95 84 124 84c21 0 37 -15 39 -34c-43 -23 -105 -83 -144 -101c-4 -2 -9 -5 -20 -5z" />
    <glyph glyph-name="Sacute" unicode="&#x15a;" horiz-adv-x="601" 
d="M292 710c116 0 175 -31 203 -55c17 -15 20 -29 20 -42c0 -15 -11 -31 -22 -40c-31 26 -93 64 -200 64s-147 -53 -147 -111c0 -61 41 -97 181 -137c147 -42 218 -92 218 -207c0 -116 -79 -192 -246 -192c-103 0 -172 20 -212 46c-29 20 -36 38 -36 59c0 19 7 31 15 38
c49 -43 139 -70 229 -70c126 0 171 52 171 115s-38 101 -169 139c-170 50 -230 99 -230 208c0 105 71 185 225 185zM227 797c35 19 117 112 158 112c27 0 37 -15 38 -34c-50 -27 -127 -106 -161 -106c-19 0 -31 10 -35 28z" />
    <glyph glyph-name="sacute" unicode="&#x15b;" horiz-adv-x="450" 
d="M222 492c111 0 165 -40 165 -77c0 -18 -6 -28 -18 -36c-21 20 -76 45 -145 45c-70 0 -97 -35 -97 -69c0 -41 33 -60 112 -74c119 -22 166 -64 166 -150c0 -89 -59 -141 -178 -141c-108 0 -182 40 -182 82c0 11 4 24 16 34c29 -22 102 -49 161 -49c80 0 111 32 111 70
c0 44 -29 66 -111 81c-121 22 -167 62 -167 148c0 77 57 136 167 136zM152 579c35 19 117 112 158 112c27 0 37 -15 38 -34c-50 -27 -127 -106 -161 -106c-19 0 -31 10 -35 28z" />
    <glyph glyph-name="Scircumflex" unicode="&#x15c;" horiz-adv-x="601" 
d="M292 710c116 0 175 -31 203 -55c17 -15 20 -29 20 -42c0 -15 -11 -31 -22 -40c-31 26 -93 64 -200 64s-147 -53 -147 -111c0 -61 41 -97 181 -137c147 -42 218 -92 218 -207c0 -116 -79 -192 -246 -192c-103 0 -172 20 -212 46c-29 20 -36 38 -36 59c0 19 7 31 15 38
c49 -43 139 -70 229 -70c126 0 171 52 171 115s-38 101 -169 139c-170 50 -230 99 -230 208c0 105 71 185 225 185zM459 797c-3 -13 -11 -23 -23 -25c-5 -2 -12 -2 -19 0c-30 8 -75 49 -117 77c-40 -28 -87 -69 -116 -77c-6 -2 -13 -2 -18 0c-13 2 -21 12 -24 25
c34 19 115 112 157 112c41 0 121 -91 160 -112z" />
    <glyph glyph-name="scircumflex" unicode="&#x15d;" horiz-adv-x="450" 
d="M222 492c111 0 165 -40 165 -77c0 -18 -6 -28 -18 -36c-21 20 -76 45 -145 45c-70 0 -97 -35 -97 -69c0 -41 33 -60 112 -74c119 -22 166 -64 166 -150c0 -89 -59 -141 -178 -141c-108 0 -182 40 -182 82c0 11 4 24 16 34c29 -22 102 -49 161 -49c80 0 111 32 111 70
c0 44 -29 66 -111 81c-121 22 -167 62 -167 148c0 77 57 136 167 136zM383 579c-3 -13 -11 -23 -23 -25c-5 -2 -12 -2 -19 0c-30 8 -75 49 -117 77c-40 -28 -87 -69 -116 -77c-6 -2 -13 -2 -18 0c-13 2 -21 12 -24 25c34 19 115 112 157 112c41 0 121 -91 160 -112z" />
    <glyph glyph-name="Scedilla" unicode="&#x15e;" horiz-adv-x="601" 
d="M339 -112c0 30 -35 40 -64 41c-3 3 -6 11 -6 20v42c-87 3 -146 21 -182 45c-29 20 -36 38 -36 59c0 19 7 31 15 38c49 -43 139 -70 229 -70c126 0 171 52 171 115s-38 101 -169 139c-170 50 -230 99 -230 208c0 105 71 185 225 185c116 0 175 -31 203 -55
c17 -15 20 -29 20 -42c0 -15 -11 -31 -22 -40c-31 26 -93 64 -200 64s-147 -53 -147 -111c0 -61 41 -97 181 -137c147 -42 218 -92 218 -207c0 -112 -74 -187 -229 -192l-2 -26c45 -6 70 -31 70 -80c0 -50 -33 -80 -86 -80s-78 24 -78 44c0 15 11 23 19 26
c9 -12 31 -25 56 -25c26 0 44 13 44 39z" />
    <glyph glyph-name="scedilla" unicode="&#x15f;" horiz-adv-x="450" 
d="M266 -112c0 30 -35 40 -64 41c-3 3 -6 11 -6 20v42c-91 7 -151 43 -151 81c0 11 4 24 16 34c29 -22 102 -49 161 -49c80 0 111 32 111 70c0 44 -29 66 -111 81c-121 22 -167 62 -167 148c0 77 57 136 167 136c111 0 165 -40 165 -77c0 -18 -6 -28 -18 -36
c-21 20 -76 45 -145 45c-70 0 -97 -35 -97 -69c0 -41 33 -60 112 -74c119 -22 166 -64 166 -150c0 -85 -54 -136 -162 -140l-2 -27c45 -6 70 -31 70 -80c0 -50 -33 -80 -86 -80s-78 24 -78 44c0 15 11 23 19 26c9 -12 31 -25 56 -25c26 0 44 13 44 39z" />
    <glyph glyph-name="Scaron" unicode="&#x160;" horiz-adv-x="601" 
d="M292 710c116 0 175 -31 203 -55c17 -15 20 -29 20 -42c0 -15 -11 -31 -22 -40c-31 26 -93 64 -200 64s-147 -53 -147 -111c0 -61 41 -97 181 -137c147 -42 218 -92 218 -207c0 -116 -79 -192 -246 -192c-103 0 -172 20 -212 46c-29 20 -36 38 -36 59c0 19 7 31 15 38
c49 -43 139 -70 229 -70c126 0 171 52 171 115s-38 101 -169 139c-170 50 -230 99 -230 208c0 105 71 185 225 185zM298 772c-8 0 -13 2 -17 5c-38 17 -100 78 -143 101c0 19 16 34 38 34c29 0 83 -50 123 -84c41 34 95 84 124 84c21 0 37 -15 39 -34
c-43 -23 -105 -83 -144 -101c-4 -2 -9 -5 -20 -5z" />
    <glyph glyph-name="scaron" unicode="&#x161;" horiz-adv-x="450" 
d="M222 492c111 0 165 -40 165 -77c0 -18 -6 -28 -18 -36c-21 20 -76 45 -145 45c-70 0 -97 -35 -97 -69c0 -41 33 -60 112 -74c119 -22 166 -64 166 -150c0 -89 -59 -141 -178 -141c-108 0 -182 40 -182 82c0 11 4 24 16 34c29 -22 102 -49 161 -49c80 0 111 32 111 70
c0 44 -29 66 -111 81c-121 22 -167 62 -167 148c0 77 57 136 167 136zM224 552c-8 0 -13 2 -17 5c-38 17 -100 78 -143 101c0 19 16 34 38 34c29 0 83 -50 123 -84c41 34 95 84 124 84c21 0 37 -15 39 -34c-43 -23 -105 -83 -144 -101c-4 -2 -9 -5 -20 -5z" />
    <glyph glyph-name="uni021A" unicode="&#x21a;" horiz-adv-x="563" 
d="M517 628h-196v-621c-8 -5 -24 -7 -44 -7c-18 0 -33 9 -33 36v592h-222c-4 10 -8 23 -8 36c0 18 9 36 40 36h487c5 -6 8 -17 8 -32c0 -25 -10 -40 -32 -40zM279 -168c-26 0 -42 14 -42 43c0 28 16 43 43 43c28 0 46 -15 46 -65c0 -70 -22 -111 -48 -111
c-15 0 -22 4 -25 15c19 19 26 57 26 75z" />
    <glyph glyph-name="uni021B" unicode="&#x21b;" horiz-adv-x="366" 
d="M304 417h-122v-276c0 -60 21 -75 61 -75h96c3 -7 5 -12 5 -22c0 -25 -24 -44 -123 -44c-65 0 -114 26 -114 124v293h-59c-4 7 -8 16 -8 28c0 23 7 37 33 37h34v131c7 4 23 8 39 8c20 0 36 -10 36 -33v-106h153c5 -6 7 -13 7 -26c0 -16 -5 -39 -38 -39zM179 -144
c-26 0 -42 14 -42 43c0 28 16 43 43 43c28 0 46 -15 46 -65c0 -70 -22 -111 -48 -111c-15 0 -22 4 -25 15c19 19 26 57 26 75z" />
    <glyph glyph-name="Tcaron" unicode="&#x164;" horiz-adv-x="563" 
d="M517 628h-196v-621c-8 -5 -24 -7 -44 -7c-18 0 -33 9 -33 36v592h-222c-4 10 -8 23 -8 36c0 18 9 36 40 36h487c5 -6 8 -17 8 -32c0 -25 -10 -40 -32 -40zM279 770c-8 0 -13 2 -17 5c-38 17 -100 78 -143 101c0 19 16 34 38 34c29 0 83 -50 123 -84c41 34 95 84 124 84
c21 0 37 -15 39 -34c-43 -23 -105 -83 -144 -101c-4 -2 -9 -5 -20 -5z" />
    <glyph glyph-name="tcaron" unicode="&#x165;" horiz-adv-x="366" 
d="M304 417h-122v-276c0 -60 21 -75 61 -75h96c3 -7 5 -12 5 -22c0 -25 -24 -44 -123 -44c-65 0 -114 26 -114 124v293h-59c-4 7 -8 16 -8 28c0 23 7 37 33 37h34v131c7 4 23 8 39 8c20 0 36 -10 36 -33v-106h153c5 -6 7 -13 7 -26c0 -16 -5 -39 -38 -39zM298 647
c-26 0 -42 14 -42 43c0 28 16 43 43 43c28 0 46 -15 46 -65c0 -70 -22 -111 -48 -111c-15 0 -22 4 -25 15c19 19 26 57 26 75z" />
    <glyph glyph-name="Tbar" unicode="&#x166;" horiz-adv-x="563" 
d="M517 628h-196v-255h150c4 -9 7 -23 7 -36c0 -19 -7 -38 -36 -38h-121v-292c-8 -5 -24 -7 -44 -7c-18 0 -33 9 -33 36v263h-150c-4 10 -8 19 -8 38s10 36 32 36h126v255h-222c-4 10 -8 23 -8 36c0 18 9 36 40 36h487c5 -6 8 -17 8 -32c0 -25 -10 -40 -32 -40z" />
    <glyph glyph-name="tbar" unicode="&#x167;" horiz-adv-x="367" 
d="M304 417h-122v-119h146c4 -6 7 -13 7 -29c0 -20 -6 -38 -40 -38h-113v-90c0 -60 21 -75 61 -75h97c2 -7 4 -12 4 -22c0 -25 -24 -44 -122 -44c-66 0 -115 26 -115 124v107h-59c-4 9 -8 19 -8 31c0 22 7 36 33 36h34v119h-59c-4 7 -8 16 -8 28c0 23 8 37 33 37h34v131
c8 4 23 8 39 8c20 0 36 -10 36 -33v-106h153c5 -6 8 -13 8 -26c0 -16 -6 -39 -39 -39z" />
    <glyph glyph-name="Utilde" unicode="&#x168;" horiz-adv-x="688" 
d="M522 265v426c8 5 20 9 38 9c23 0 40 -8 40 -31v-416c0 -175 -85 -263 -258 -263s-253 85 -253 263v439c7 5 22 8 39 8c23 0 38 -8 38 -31v-403c0 -136 48 -203 176 -203c133 0 180 66 180 202zM262 890c64 0 111 -41 159 -41c45 0 56 36 63 44c8 -5 18 -24 18 -40
c0 -25 -18 -62 -76 -62c-67 0 -110 39 -164 39c-35 0 -53 -35 -56 -46c-15 5 -20 24 -20 39c0 25 20 67 76 67z" />
    <glyph glyph-name="utilde" unicode="&#x169;" horiz-adv-x="594" 
d="M476 0c-41 0 -61 19 -61 92c-47 -62 -108 -102 -181 -102c-79 0 -132 41 -132 161v234c0 19 -8 27 -23 27h-44c-2 6 -4 14 -4 25c0 30 25 45 77 45c63 0 70 -28 70 -97v-220c0 -74 29 -105 79 -105c66 0 117 46 155 115v297c10 5 25 9 41 9c25 0 35 -9 35 -30v-358
c0 -23 8 -29 22 -29h37c1 -4 2 -8 2 -17c0 -30 -17 -47 -73 -47zM201 672c64 0 111 -41 159 -41c45 0 56 36 63 44c8 -5 18 -24 18 -40c0 -25 -18 -62 -76 -62c-67 0 -110 39 -164 39c-35 0 -53 -35 -56 -46c-15 5 -20 24 -20 39c0 25 20 67 76 67z" />
    <glyph glyph-name="Umacron" unicode="&#x16a;" horiz-adv-x="688" 
d="M522 265v426c8 5 20 9 38 9c23 0 40 -8 40 -31v-416c0 -175 -85 -263 -258 -263s-253 85 -253 263v439c7 5 22 8 39 8c23 0 38 -8 38 -31v-403c0 -136 48 -203 176 -203c133 0 180 66 180 202zM455 799h-266c-4 8 -8 13 -8 26c0 20 5 34 45 34h273c5 -4 8 -10 8 -24
c0 -17 -8 -36 -52 -36z" />
    <glyph glyph-name="umacron" unicode="&#x16b;" horiz-adv-x="594" 
d="M476 0c-41 0 -61 19 -61 92c-47 -62 -108 -102 -181 -102c-79 0 -132 41 -132 161v234c0 19 -8 27 -23 27h-44c-2 6 -4 14 -4 25c0 30 25 45 77 45c63 0 70 -28 70 -97v-220c0 -74 29 -105 79 -105c66 0 117 46 155 115v297c10 5 25 9 41 9c25 0 35 -9 35 -30v-358
c0 -23 8 -29 22 -29h37c1 -4 2 -8 2 -17c0 -30 -17 -47 -73 -47zM397 581h-266c-4 8 -8 13 -8 26c0 20 5 34 45 34h273c5 -4 8 -10 8 -24c0 -17 -8 -36 -52 -36z" />
    <glyph glyph-name="Ubreve" unicode="&#x16c;" horiz-adv-x="688" 
d="M522 265v426c8 5 20 9 38 9c23 0 40 -8 40 -31v-416c0 -175 -85 -263 -258 -263s-253 85 -253 263v439c7 5 22 8 39 8c23 0 38 -8 38 -31v-403c0 -136 48 -203 176 -203c133 0 180 66 180 202zM256 893c1 -19 10 -38 23 -51c15 -13 37 -19 66 -19c25 0 48 4 62 18
c17 15 23 35 25 50c6 5 16 8 29 7c19 -1 26 -12 24 -24c-4 -27 -16 -51 -39 -73c-23 -21 -59 -30 -101 -30c-43 0 -77 10 -101 28c-25 21 -39 49 -41 76c-1 15 6 22 23 24c13 0 23 -2 30 -6z" />
    <glyph glyph-name="ubreve" unicode="&#x16d;" horiz-adv-x="594" 
d="M476 0c-41 0 -61 19 -61 92c-47 -62 -108 -102 -181 -102c-79 0 -132 41 -132 161v234c0 19 -8 27 -23 27h-44c-2 6 -4 14 -4 25c0 30 25 45 77 45c63 0 70 -28 70 -97v-220c0 -74 29 -105 79 -105c66 0 117 46 155 115v297c10 5 25 9 41 9c25 0 35 -9 35 -30v-358
c0 -23 8 -29 22 -29h37c1 -4 2 -8 2 -17c0 -30 -17 -47 -73 -47zM195 675c1 -19 10 -38 23 -51c15 -13 37 -19 66 -19c25 0 48 4 62 18c17 15 23 35 25 50c6 5 16 8 29 7c19 -1 26 -12 24 -24c-4 -27 -16 -51 -39 -73c-23 -21 -59 -30 -101 -30c-43 0 -77 10 -101 28
c-25 21 -39 49 -41 76c-1 15 6 22 23 24c13 0 23 -2 30 -6z" />
    <glyph glyph-name="Uring" unicode="&#x16e;" horiz-adv-x="688" 
d="M522 265v426c8 5 20 9 38 9c23 0 40 -8 40 -31v-416c0 -175 -85 -263 -258 -263s-253 85 -253 263v439c7 5 22 8 39 8c23 0 38 -8 38 -31v-403c0 -136 48 -203 176 -203c133 0 180 66 180 202zM256 850c0 59 29 88 88 88c58 0 88 -32 88 -88s-30 -88 -88 -88
c-59 0 -88 32 -88 88zM297 850c0 -29 16 -47 47 -47c30 0 48 18 48 47s-18 48 -48 48c-32 0 -47 -16 -47 -48z" />
    <glyph glyph-name="uring" unicode="&#x16f;" horiz-adv-x="594" 
d="M476 0c-41 0 -61 19 -61 92c-47 -62 -108 -102 -181 -102c-79 0 -132 41 -132 161v234c0 19 -8 27 -23 27h-44c-2 6 -4 14 -4 25c0 30 25 45 77 45c63 0 70 -28 70 -97v-220c0 -74 29 -105 79 -105c66 0 117 46 155 115v297c10 5 25 9 41 9c25 0 35 -9 35 -30v-358
c0 -23 8 -29 22 -29h37c1 -4 2 -8 2 -17c0 -30 -17 -47 -73 -47zM199 632c0 59 29 88 88 88c58 0 88 -32 88 -88s-30 -88 -88 -88c-59 0 -88 32 -88 88zM240 632c0 -29 16 -47 47 -47c30 0 48 18 48 47s-18 48 -48 48c-32 0 -47 -16 -47 -48z" />
    <glyph glyph-name="Uhungarumlaut" unicode="&#x170;" horiz-adv-x="688" 
d="M522 265v426c8 5 20 9 38 9c23 0 40 -8 40 -31v-416c0 -175 -85 -263 -258 -263s-253 85 -253 263v439c7 5 22 8 39 8c23 0 38 -8 38 -31v-403c0 -136 48 -203 176 -203c133 0 180 66 180 202zM194 796c35 25 102 132 146 132c25 0 35 -11 38 -27
c-49 -35 -114 -127 -152 -127c-16 0 -27 8 -32 22zM369 802c34 19 118 112 158 112c28 0 38 -15 38 -34c-50 -27 -128 -106 -161 -106c-18 0 -31 10 -35 28z" />
    <glyph glyph-name="uhungarumlaut" unicode="&#x171;" horiz-adv-x="594" 
d="M476 0c-41 0 -61 19 -61 92c-47 -62 -108 -102 -181 -102c-79 0 -132 41 -132 161v234c0 19 -8 27 -23 27h-44c-2 6 -4 14 -4 25c0 30 25 45 77 45c63 0 70 -28 70 -97v-220c0 -74 29 -105 79 -105c66 0 117 46 155 115v297c10 5 25 9 41 9c25 0 35 -9 35 -30v-358
c0 -23 8 -29 22 -29h37c1 -4 2 -8 2 -17c0 -30 -17 -47 -73 -47zM141 578c35 25 102 132 146 132c25 0 35 -11 38 -27c-49 -35 -114 -127 -152 -127c-16 0 -27 8 -32 22zM316 584c34 19 118 112 158 112c28 0 38 -15 38 -34c-50 -27 -128 -106 -161 -106
c-18 0 -31 10 -35 28z" />
    <glyph glyph-name="Uogonek" unicode="&#x172;" horiz-adv-x="688" 
d="M522 265v426c8 5 20 9 38 9c23 0 40 -8 40 -31v-416c0 -131 -47 -213 -143 -246c-23 -28 -52 -73 -52 -99c0 -34 22 -42 55 -42c3 -7 5 -13 5 -22c0 -11 -4 -23 -33 -23c-34 0 -77 19 -77 76c0 37 16 70 33 96c-14 -2 -30 -3 -46 -3c-173 0 -253 85 -253 263v439
c7 5 22 8 39 8c23 0 38 -8 38 -31v-403c0 -136 48 -203 176 -203c133 0 180 66 180 202z" />
    <glyph glyph-name="uogonek" unicode="&#x173;" horiz-adv-x="594" 
d="M549 47c0 -12 -3 -21 -9 -29h1c-23 -28 -52 -73 -52 -99c0 -34 22 -42 55 -42c3 -7 5 -13 5 -22c0 -11 -4 -23 -33 -23c-34 0 -77 19 -77 76c0 35 15 67 31 92c-37 1 -55 22 -55 92c-47 -62 -108 -102 -181 -102c-79 0 -132 41 -132 161v234c0 19 -8 27 -23 27h-44
c-2 6 -4 14 -4 25c0 30 25 45 77 45c63 0 70 -28 70 -97v-220c0 -74 29 -105 79 -105c66 0 117 46 155 115v297c10 5 25 9 41 9c25 0 35 -9 35 -30v-358c0 -23 8 -29 22 -29h37c1 -4 2 -8 2 -17z" />
    <glyph glyph-name="Wcircumflex" unicode="&#x174;" horiz-adv-x="997" 
d="M98 673l198 -565c46 114 137 407 172 584c11 4 23 8 37 8c23 0 43 -9 50 -31l168 -566c81 145 174 450 191 588c12 6 23 9 42 9c15 0 29 -8 29 -20c0 -5 -1 -17 -4 -38c-14 -87 -87 -391 -232 -637c-9 -3 -21 -5 -35 -5c-18 0 -36 10 -43 32l-163 551
c-33 -155 -116 -422 -181 -575c-12 -4 -27 -8 -44 -8c-19 0 -34 9 -42 31l-233 661c9 4 29 8 48 8s35 -8 42 -27zM670 797c-3 -13 -11 -23 -23 -25c-5 -2 -12 -2 -19 0c-30 8 -75 49 -117 77c-40 -28 -87 -69 -116 -77c-6 -2 -13 -2 -18 0c-13 2 -21 12 -24 25
c34 19 115 112 157 112c41 0 121 -91 160 -112z" />
    <glyph glyph-name="wcircumflex" unicode="&#x175;" horiz-adv-x="779" 
d="M508 7l-109 315c-22 -92 -69 -202 -112 -275c-20 -34 -37 -47 -58 -47c-13 0 -21 3 -27 7l-130 396c-4 12 -11 19 -22 19h-32c-4 7 -5 15 -5 26c0 21 16 34 59 34c40 0 56 -16 68 -54l104 -326c59 106 103 234 112 371c11 7 23 9 34 9c20 0 30 -11 37 -32l120 -349
c66 89 111 224 111 293c0 17 -10 28 -24 28h-34c-3 7 -5 14 -5 26c0 20 26 34 65 34c50 0 70 -27 70 -75c0 -96 -66 -261 -136 -359c-20 -28 -34 -48 -56 -48c-14 0 -23 2 -30 7zM546 579c-3 -13 -11 -23 -23 -25c-5 -2 -12 -2 -19 0c-30 8 -75 49 -117 77
c-40 -28 -87 -69 -116 -77c-6 -2 -13 -2 -18 0c-13 2 -21 12 -24 25c34 19 115 112 157 112c41 0 121 -91 160 -112z" />
    <glyph glyph-name="Ycircumflex" unicode="&#x176;" horiz-adv-x="579" 
d="M336 232v-223c-7 -5 -23 -9 -43 -9c-22 0 -34 8 -34 29v201c-97 138 -182 303 -229 458c10 7 25 12 43 12c21 0 40 -5 47 -25c43 -135 100 -252 183 -373c77 120 162 304 178 393c8 4 26 5 33 5c24 0 35 -12 35 -27c0 -83 -133 -331 -213 -441zM455 797
c-3 -13 -11 -23 -23 -25c-5 -2 -12 -2 -19 0c-30 8 -75 49 -117 77c-40 -28 -87 -69 -116 -77c-6 -2 -13 -2 -18 0c-13 2 -21 12 -24 25c34 19 115 112 157 112c41 0 121 -91 160 -112z" />
    <glyph glyph-name="ycircumflex" unicode="&#x177;" horiz-adv-x="529" 
d="M26 -139h66c57 0 93 32 159 150c-30 5 -42 30 -59 74l-122 316c-5 14 -12 20 -24 20h-38c-3 7 -5 16 -5 23c0 23 18 38 64 38c56 0 71 -45 87 -89l110 -293c5 -14 12 -21 21 -23c60 117 123 263 123 317c0 16 -7 27 -24 27h-37c-2 5 -4 12 -4 19c0 25 18 42 60 42
c58 0 82 -27 82 -72c0 -82 -92 -284 -165 -416c-85 -152 -144 -200 -230 -200c-58 0 -71 20 -71 41c0 6 2 16 7 26zM420 579c-3 -13 -11 -23 -23 -25c-5 -2 -12 -2 -19 0c-30 8 -75 49 -117 77c-40 -28 -87 -69 -116 -77c-6 -2 -13 -2 -18 0c-13 2 -21 12 -24 25
c34 19 115 112 157 112c41 0 121 -91 160 -112z" />
    <glyph glyph-name="Ydieresis" unicode="&#x178;" horiz-adv-x="579" 
d="M336 232v-223c-7 -5 -23 -9 -43 -9c-22 0 -34 8 -34 29v201c-97 138 -182 303 -229 458c10 7 25 12 43 12c21 0 40 -5 47 -25c43 -135 100 -252 183 -373c77 120 162 304 178 393c8 4 26 5 33 5c24 0 35 -12 35 -27c0 -83 -133 -331 -213 -441zM143 835c0 31 15 46 46 46
c29 0 45 -15 45 -46s-16 -45 -45 -45c-31 0 -46 14 -46 45zM353 835c0 31 14 46 45 46c30 0 46 -15 46 -46s-16 -45 -46 -45s-45 14 -45 45z" />
    <glyph glyph-name="Zacute" unicode="&#x179;" horiz-adv-x="593" 
d="M524 632l-399 -562h440c4 -7 8 -18 8 -34c0 -19 -9 -36 -38 -36h-509c-4 9 -6 15 -6 28c0 15 5 28 14 39l397 561h-376c-5 9 -9 16 -9 34c0 20 9 38 35 38h452c5 -6 7 -15 7 -27c0 -14 -5 -27 -16 -41zM230 797c35 19 117 112 158 112c27 0 37 -15 38 -34
c-50 -27 -127 -106 -161 -106c-19 0 -31 10 -35 28z" />
    <glyph glyph-name="zacute" unicode="&#x17a;" horiz-adv-x="471" 
d="M32 29c0 12 3 22 11 32l283 356h-274c-4 7 -7 16 -7 28c0 19 3 37 33 37h343c2 -6 5 -13 5 -27s-6 -27 -13 -36l-280 -353h308c4 -5 6 -14 6 -29c0 -18 -6 -37 -38 -37h-369c-4 7 -8 17 -8 29zM159 579c35 19 117 112 158 112c27 0 37 -15 38 -34
c-50 -27 -127 -106 -161 -106c-19 0 -31 10 -35 28z" />
    <glyph glyph-name="Zdotaccent" unicode="&#x17b;" horiz-adv-x="593" 
d="M524 632l-399 -562h440c4 -7 8 -18 8 -34c0 -19 -9 -36 -38 -36h-509c-4 9 -6 15 -6 28c0 15 5 28 14 39l397 561h-376c-5 9 -9 16 -9 34c0 20 9 38 35 38h452c5 -6 7 -15 7 -27c0 -14 -5 -27 -16 -41zM249 831c0 31 16 46 46 46c29 0 46 -15 46 -46s-17 -46 -46 -46
c-30 0 -46 15 -46 46z" />
    <glyph glyph-name="zdotaccent" unicode="&#x17c;" horiz-adv-x="471" 
d="M32 29c0 12 3 22 11 32l283 356h-274c-4 7 -7 16 -7 28c0 19 3 37 33 37h343c2 -6 5 -13 5 -27s-6 -27 -13 -36l-280 -353h308c4 -5 6 -14 6 -29c0 -18 -6 -37 -38 -37h-369c-4 7 -8 17 -8 29zM194 617c0 31 16 46 46 46c29 0 46 -15 46 -46s-17 -46 -46 -46
c-30 0 -46 15 -46 46z" />
    <glyph glyph-name="Zcaron" unicode="&#x17d;" horiz-adv-x="593" 
d="M524 632l-399 -562h440c4 -7 8 -18 8 -34c0 -19 -9 -36 -38 -36h-509c-4 9 -6 15 -6 28c0 15 5 28 14 39l397 561h-376c-5 9 -9 16 -9 34c0 20 9 38 35 38h452c5 -6 7 -15 7 -27c0 -14 -5 -27 -16 -41zM296 772c-8 0 -13 2 -17 5c-38 17 -100 78 -143 101
c0 19 16 34 38 34c29 0 83 -50 123 -84c41 34 95 84 124 84c21 0 37 -15 39 -34c-43 -23 -105 -83 -144 -101c-4 -2 -9 -5 -20 -5z" />
    <glyph glyph-name="zcaron" unicode="&#x17e;" horiz-adv-x="471" 
d="M32 29c0 12 3 22 11 32l283 356h-274c-4 7 -7 16 -7 28c0 19 3 37 33 37h343c2 -6 5 -13 5 -27s-6 -27 -13 -36l-280 -353h308c4 -5 6 -14 6 -29c0 -18 -6 -37 -38 -37h-369c-4 7 -8 17 -8 29zM239 552c-8 0 -13 2 -17 5c-38 17 -100 78 -143 101c0 19 16 34 38 34
c29 0 83 -50 123 -84c41 34 95 84 124 84c21 0 37 -15 39 -34c-43 -23 -105 -83 -144 -101c-4 -2 -9 -5 -20 -5z" />
    <glyph glyph-name="florin" unicode="&#x192;" horiz-adv-x="502" 
d="M387 332h-118l-54 -386c-14 -100 -66 -134 -158 -134c-63 0 -80 16 -80 38c0 13 3 24 7 32h81c40 0 66 15 75 78l52 372h-114c-4 10 -8 15 -8 36c0 20 8 35 42 35h90l23 166c13 96 65 131 158 131c69 0 88 -19 88 -37c0 -15 -2 -25 -5 -35h-85c-46 0 -73 -16 -81 -72
l-22 -153h149c4 -4 7 -13 7 -32c0 -23 -10 -39 -47 -39z" />
    <glyph glyph-name="Scommaaccent" unicode="&#x218;" horiz-adv-x="601" 
d="M292 710c116 0 175 -31 203 -55c17 -15 20 -29 20 -42c0 -15 -11 -31 -22 -40c-31 26 -93 64 -200 64s-147 -53 -147 -111c0 -61 41 -97 181 -137c147 -42 218 -92 218 -207c0 -116 -79 -192 -246 -192c-103 0 -172 20 -212 46c-29 20 -36 38 -36 59c0 19 7 31 15 38
c49 -43 139 -70 229 -70c126 0 171 52 171 115s-38 101 -169 139c-170 50 -230 99 -230 208c0 105 71 185 225 185zM295 -169c-26 0 -42 14 -42 43c0 28 16 43 43 43c28 0 46 -15 46 -65c0 -70 -22 -111 -48 -111c-15 0 -22 4 -25 15c19 19 26 57 26 75z" />
    <glyph glyph-name="scommaaccent" unicode="&#x219;" horiz-adv-x="450" 
d="M222 492c111 0 165 -40 165 -77c0 -18 -6 -28 -18 -36c-21 20 -76 45 -145 45c-70 0 -97 -35 -97 -69c0 -41 33 -60 112 -74c119 -22 166 -64 166 -150c0 -89 -59 -141 -178 -141c-108 0 -182 40 -182 82c0 11 4 24 16 34c29 -22 102 -49 161 -49c80 0 111 32 111 70
c0 44 -29 66 -111 81c-121 22 -167 62 -167 148c0 77 57 136 167 136zM218 -144c-26 0 -42 14 -42 43c0 28 16 43 43 43c28 0 46 -15 46 -65c0 -70 -22 -111 -48 -111c-15 0 -22 4 -25 15c19 19 26 57 26 75z" />
    <glyph glyph-name="dotlessj" unicode="&#x237;" horiz-adv-x="267" 
d="M106 482c51 0 76 -21 76 -77v-486c0 -92 -52 -125 -122 -125c-55 0 -94 11 -94 41c0 9 1 17 5 28h73c38 0 62 21 62 69v451c0 21 -9 28 -23 28h-39c-3 8 -5 16 -5 30c0 26 20 41 67 41z" />
    <glyph glyph-name="circumflex" unicode="&#x2c6;" horiz-adv-x="483" 
d="M390 579c-3 -13 -11 -23 -23 -25c-5 -2 -12 -2 -19 0c-30 8 -75 49 -117 77c-40 -28 -87 -69 -116 -77c-6 -2 -13 -2 -18 0c-13 2 -21 12 -24 25c34 19 115 112 157 112c41 0 121 -91 160 -112z" />
    <glyph glyph-name="caron" unicode="&#x2c7;" horiz-adv-x="526" 
d="M256 552c-8 0 -13 2 -17 5c-38 17 -100 78 -143 101c0 19 16 34 38 34c29 0 83 -50 123 -84c41 34 95 84 124 84c21 0 37 -15 39 -34c-43 -23 -105 -83 -144 -101c-4 -2 -9 -5 -20 -5z" />
    <glyph glyph-name="breve" unicode="&#x2d8;" horiz-adv-x="446" 
d="M126 675c1 -19 10 -38 23 -51c15 -13 37 -19 66 -19c25 0 48 4 62 18c17 15 23 35 25 50c6 5 16 8 29 7c19 -1 26 -12 24 -24c-4 -27 -16 -51 -39 -73c-23 -21 -59 -30 -101 -30c-43 0 -77 10 -101 28c-25 21 -39 49 -41 76c-1 15 6 22 23 24c13 0 23 -2 30 -6z" />
    <glyph glyph-name="dotaccent" unicode="&#x2d9;" horiz-adv-x="462" 
d="M186 617c0 31 16 46 46 46c29 0 46 -15 46 -46s-17 -46 -46 -46c-30 0 -46 15 -46 46z" />
    <glyph glyph-name="ring" unicode="&#x2da;" horiz-adv-x="465" 
d="M144 632c0 59 29 88 88 88c58 0 88 -32 88 -88s-30 -88 -88 -88c-59 0 -88 32 -88 88zM185 632c0 -29 16 -47 47 -47c30 0 48 18 48 47s-18 48 -48 48c-32 0 -47 -16 -47 -48z" />
    <glyph glyph-name="ogonek" unicode="&#x2db;" horiz-adv-x="526" 
d="M395 29l40 -22c-23 -28 -52 -73 -52 -99c0 -34 22 -42 55 -42c3 -7 5 -13 5 -22c0 -11 -4 -23 -33 -23c-34 0 -77 19 -77 76c0 58 42 108 62 132z" />
    <glyph glyph-name="tilde" unicode="&#x2dc;" horiz-adv-x="515" 
d="M134 672c64 0 111 -41 159 -41c45 0 56 36 63 44c8 -5 18 -24 18 -40c0 -25 -18 -62 -76 -62c-67 0 -110 39 -164 39c-35 0 -53 -35 -56 -46c-15 5 -20 24 -20 39c0 25 20 67 76 67z" />
    <glyph glyph-name="hungarumlaut" unicode="&#x2dd;" horiz-adv-x="498" 
d="M66 578c35 25 102 132 146 132c25 0 35 -11 38 -27c-49 -35 -114 -127 -152 -127c-16 0 -27 8 -32 22zM241 584c34 19 118 112 158 112c28 0 38 -15 38 -34c-50 -27 -128 -106 -161 -106c-18 0 -31 10 -35 28z" />
    <glyph glyph-name="commaaccent" horiz-adv-x="242" 
d="M120 -169c-26 0 -42 14 -42 43c0 28 16 43 43 43c28 0 46 -15 46 -65c0 -70 -22 -111 -48 -111c-15 0 -22 4 -25 15c19 19 26 57 26 75z" />
    <glyph glyph-name="uni0394" unicode="&#x394;" horiz-adv-x="614" 
d="M46 0c-19 0 -33 4 -41 11l254 647c12 30 31 42 55 42c30 0 47 -33 57 -60l238 -622c-7 -15 -20 -18 -35 -18h-528zM312 593l-207 -525h411z" />
    <glyph glyph-name="uni03A9" unicode="&#x3a9;" horiz-adv-x="712" 
d="M228 61l1 4c-80 30 -165 116 -165 292c0 238 121 353 295 353c172 0 288 -114 288 -353c0 -162 -74 -258 -157 -292v-4l166 3c4 -5 8 -8 8 -26c0 -22 -10 -38 -32 -38h-241c-5 9 -10 22 -10 46c0 20 5 38 19 39c99 4 171 89 171 270c0 191 -85 285 -212 285
c-132 0 -220 -95 -220 -283c0 -189 97 -268 186 -273c4 -7 9 -22 9 -41c0 -23 -11 -43 -32 -43h-245c-5 9 -10 15 -10 30c0 22 11 34 47 34z" />
    <glyph glyph-name="uni03BC" unicode="&#x3bc;" horiz-adv-x="615" 
d="M512 0c-62 0 -81 26 -81 93c-46 -61 -104 -102 -176 -102c-36 0 -62 5 -81 23v-194c-7 -5 -17 -8 -37 -8c-24 0 -34 15 -34 42v531c0 19 -10 27 -25 27h-46c-2 9 -4 17 -4 32c0 26 30 38 78 38c64 0 74 -40 74 -122v-173c0 -82 23 -122 82 -122c70 0 133 40 169 107v301
c11 6 26 9 42 9c26 0 35 -11 35 -30c0 -25 1 -335 1 -359c0 -23 8 -29 23 -29h39c2 -6 3 -14 3 -26c0 -30 -34 -38 -62 -38z" />
    <glyph glyph-name="pi" unicode="&#x3c0;" horiz-adv-x="601" 
d="M113 101v307h-91c-4 10 -9 16 -9 33c0 24 6 41 47 41h518c5 -6 10 -14 10 -33c0 -24 -11 -41 -33 -41h-68v-400c-6 -4 -22 -8 -37 -8c-21 0 -41 5 -41 37v371h-219v-311c0 -80 -45 -101 -98 -101c-23 0 -39 12 -39 41c35 4 60 23 60 64z" />
    <glyph glyph-name="Wgrave" unicode="&#x1e80;" horiz-adv-x="997" 
d="M98 673l198 -565c46 114 137 407 172 584c11 4 23 8 37 8c23 0 43 -9 50 -31l168 -566c81 145 174 450 191 588c12 6 23 9 42 9c15 0 29 -8 29 -20c0 -5 -1 -17 -4 -38c-14 -87 -87 -391 -232 -637c-9 -3 -21 -5 -35 -5c-18 0 -36 10 -43 32l-163 551
c-33 -155 -116 -422 -181 -575c-12 -4 -27 -8 -44 -8c-19 0 -34 9 -42 31l-233 661c9 4 29 8 48 8s35 -8 42 -27zM563 795c-4 -17 -16 -27 -35 -27c-33 0 -111 79 -161 106c1 19 11 33 38 33c41 0 124 -92 158 -112z" />
    <glyph glyph-name="wgrave" unicode="&#x1e81;" horiz-adv-x="779" 
d="M508 7l-109 315c-22 -92 -69 -202 -112 -275c-20 -34 -37 -47 -58 -47c-13 0 -21 3 -27 7l-130 396c-4 12 -11 19 -22 19h-32c-4 7 -5 15 -5 26c0 21 16 34 59 34c40 0 56 -16 68 -54l104 -326c59 106 103 234 112 371c11 7 23 9 34 9c20 0 30 -11 37 -32l120 -349
c66 89 111 224 111 293c0 17 -10 28 -24 28h-34c-3 7 -5 14 -5 26c0 20 26 34 65 34c50 0 70 -27 70 -75c0 -96 -66 -261 -136 -359c-20 -28 -34 -48 -56 -48c-14 0 -23 2 -30 7zM441 577c-4 -17 -16 -27 -35 -27c-33 0 -111 79 -161 106c1 19 11 33 38 33
c41 0 124 -92 158 -112z" />
    <glyph glyph-name="Wacute" unicode="&#x1e82;" horiz-adv-x="997" 
d="M98 673l198 -565c46 114 137 407 172 584c11 4 23 8 37 8c23 0 43 -9 50 -31l168 -566c81 145 174 450 191 588c12 6 23 9 42 9c15 0 29 -8 29 -20c0 -5 -1 -17 -4 -38c-14 -87 -87 -391 -232 -637c-9 -3 -21 -5 -35 -5c-18 0 -36 10 -43 32l-163 551
c-33 -155 -116 -422 -181 -575c-12 -4 -27 -8 -44 -8c-19 0 -34 9 -42 31l-233 661c9 4 29 8 48 8s35 -8 42 -27zM443 797c35 19 117 112 158 112c27 0 37 -15 38 -34c-50 -27 -127 -106 -161 -106c-19 0 -31 10 -35 28z" />
    <glyph glyph-name="wacute" unicode="&#x1e83;" horiz-adv-x="779" 
d="M508 7l-109 315c-22 -92 -69 -202 -112 -275c-20 -34 -37 -47 -58 -47c-13 0 -21 3 -27 7l-130 396c-4 12 -11 19 -22 19h-32c-4 7 -5 15 -5 26c0 21 16 34 59 34c40 0 56 -16 68 -54l104 -326c59 106 103 234 112 371c11 7 23 9 34 9c20 0 30 -11 37 -32l120 -349
c66 89 111 224 111 293c0 17 -10 28 -24 28h-34c-3 7 -5 14 -5 26c0 20 26 34 65 34c50 0 70 -27 70 -75c0 -96 -66 -261 -136 -359c-20 -28 -34 -48 -56 -48c-14 0 -23 2 -30 7zM313 579c35 19 117 112 158 112c27 0 37 -15 38 -34c-50 -27 -127 -106 -161 -106
c-19 0 -31 10 -35 28z" />
    <glyph glyph-name="Wdieresis" unicode="&#x1e84;" horiz-adv-x="997" 
d="M98 673l198 -565c46 114 137 407 172 584c11 4 23 8 37 8c23 0 43 -9 50 -31l168 -566c81 145 174 450 191 588c12 6 23 9 42 9c15 0 29 -8 29 -20c0 -5 -1 -17 -4 -38c-14 -87 -87 -391 -232 -637c-9 -3 -21 -5 -35 -5c-18 0 -36 10 -43 32l-163 551
c-33 -155 -116 -422 -181 -575c-12 -4 -27 -8 -44 -8c-19 0 -34 9 -42 31l-233 661c9 4 29 8 48 8s35 -8 42 -27zM359 833c0 31 15 46 46 46c29 0 45 -15 45 -46s-16 -45 -45 -45c-31 0 -46 14 -46 45zM569 833c0 31 14 46 45 46c30 0 46 -15 46 -46s-16 -45 -46 -45
s-45 14 -45 45z" />
    <glyph glyph-name="wdieresis" unicode="&#x1e85;" horiz-adv-x="779" 
d="M508 7l-109 315c-22 -92 -69 -202 -112 -275c-20 -34 -37 -47 -58 -47c-13 0 -21 3 -27 7l-130 396c-4 12 -11 19 -22 19h-32c-4 7 -5 15 -5 26c0 21 16 34 59 34c40 0 56 -16 68 -54l104 -326c59 106 103 234 112 371c11 7 23 9 34 9c20 0 30 -11 37 -32l120 -349
c66 89 111 224 111 293c0 17 -10 28 -24 28h-34c-3 7 -5 14 -5 26c0 20 26 34 65 34c50 0 70 -27 70 -75c0 -96 -66 -261 -136 -359c-20 -28 -34 -48 -56 -48c-14 0 -23 2 -30 7zM234 615c0 31 15 46 46 46c29 0 45 -15 45 -46s-16 -45 -45 -45c-31 0 -46 14 -46 45z
M444 615c0 31 14 46 45 46c30 0 46 -15 46 -46s-16 -45 -46 -45s-45 14 -45 45z" />
    <glyph glyph-name="Ygrave" unicode="&#x1ef2;" horiz-adv-x="579" 
d="M336 232v-223c-7 -5 -23 -9 -43 -9c-22 0 -34 8 -34 29v201c-97 138 -182 303 -229 458c10 7 25 12 43 12c21 0 40 -5 47 -25c43 -135 100 -252 183 -373c77 120 162 304 178 393c8 4 26 5 33 5c24 0 35 -12 35 -27c0 -83 -133 -331 -213 -441zM374 795
c-4 -17 -16 -27 -35 -27c-33 0 -111 79 -161 106c1 19 11 33 38 33c41 0 124 -92 158 -112z" />
    <glyph glyph-name="ygrave" unicode="&#x1ef3;" horiz-adv-x="529" 
d="M26 -139h66c57 0 93 32 159 150c-30 5 -42 30 -59 74l-122 316c-5 14 -12 20 -24 20h-38c-3 7 -5 16 -5 23c0 23 18 38 64 38c56 0 71 -45 87 -89l110 -293c5 -14 12 -21 21 -23c60 117 123 263 123 317c0 16 -7 27 -24 27h-37c-2 5 -4 12 -4 19c0 25 18 42 60 42
c58 0 82 -27 82 -72c0 -82 -92 -284 -165 -416c-85 -152 -144 -200 -230 -200c-58 0 -71 20 -71 41c0 6 2 16 7 26zM331 577c-4 -17 -16 -27 -35 -27c-33 0 -111 79 -161 106c1 19 11 33 38 33c41 0 124 -92 158 -112z" />
    <glyph glyph-name="endash" unicode="&#x2013;" horiz-adv-x="524" 
d="M434 229h-372c-4 10 -8 20 -8 39s9 35 32 35h376c5 -8 8 -22 8 -36c0 -19 -7 -38 -36 -38z" />
    <glyph glyph-name="emdash" unicode="&#x2014;" horiz-adv-x="677" 
d="M592 229h-530c-4 10 -8 22 -8 37c0 19 9 37 36 37h525c4 -5 7 -20 7 -34c0 -19 -7 -40 -30 -40z" />
    <glyph glyph-name="quoteleft" unicode="&#x2018;" horiz-adv-x="175" 
d="M89 599c30 0 49 -16 49 -48c0 -33 -18 -49 -49 -49c-32 0 -52 17 -52 73c0 79 25 125 54 125c16 0 25 -4 28 -18c-20 -19 -30 -62 -30 -83z" />
    <glyph glyph-name="quoteright" unicode="&#x2019;" horiz-adv-x="175" 
d="M85 603c-29 0 -48 16 -48 47c0 34 18 50 49 50c32 0 52 -17 52 -74c0 -79 -26 -124 -54 -124c-16 0 -25 4 -28 17c20 20 29 63 29 84z" />
    <glyph glyph-name="quotesinglbase" unicode="&#x201a;" horiz-adv-x="175" 
d="M85 0c-29 0 -48 16 -48 47c0 34 18 50 49 50c32 0 52 -17 52 -74c0 -79 -26 -124 -54 -124c-16 0 -25 4 -28 17c20 19 29 63 29 84z" />
    <glyph glyph-name="quotedblleft" unicode="&#x201c;" horiz-adv-x="315" 
d="M86 599c29 0 48 -16 48 -47c0 -34 -18 -50 -49 -50c-33 0 -52 17 -52 74c0 79 26 124 54 124c16 0 25 -4 28 -17c-20 -20 -29 -63 -29 -84zM233 599c30 0 49 -16 49 -47c0 -34 -18 -50 -49 -50c-32 0 -52 17 -52 74c0 79 25 124 54 124c17 0 25 -4 28 -17
c-20 -20 -30 -63 -30 -84z" />
    <glyph glyph-name="quotedblright" unicode="&#x201d;" horiz-adv-x="315" 
d="M82 604c-30 0 -49 16 -49 47c0 34 18 50 49 50c32 0 52 -17 52 -74c0 -79 -25 -124 -54 -124c-17 0 -25 4 -28 17c20 20 30 63 30 84zM229 604c-29 0 -48 16 -48 47c0 34 18 50 49 50c33 0 52 -17 52 -74c0 -79 -26 -124 -54 -124c-16 0 -25 4 -28 17c20 20 29 63 29 84z
" />
    <glyph glyph-name="quotedblbase" unicode="&#x201e;" horiz-adv-x="315" 
d="M82 0c-30 0 -49 16 -49 47c0 34 18 50 49 50c32 0 52 -17 52 -74c0 -79 -25 -124 -54 -124c-17 0 -25 4 -28 17c20 19 30 63 30 84zM229 0c-29 0 -48 16 -48 47c0 34 18 50 49 50c33 0 52 -17 52 -74c0 -79 -26 -124 -54 -124c-16 0 -25 4 -28 17c20 19 29 63 29 84z" />
    <glyph glyph-name="dagger" unicode="&#x2020;" horiz-adv-x="480" 
d="M412 435h-134v-539c-10 -5 -23 -8 -44 -8c-31 0 -33 30 -33 71v476h-161c-4 10 -8 20 -8 39c0 31 24 35 62 35h107v195c8 5 24 8 41 8c23 0 36 -8 36 -27v-176h162c5 -8 7 -22 7 -36c0 -21 -8 -38 -35 -38z" />
    <glyph glyph-name="daggerdbl" unicode="&#x2021;" horiz-adv-x="480" 
d="M412 82h-134v-186c-10 -5 -23 -8 -44 -8c-32 0 -33 27 -33 61v133h-161c-4 10 -8 20 -8 38c0 33 23 35 62 35h107v280h-161c-4 10 -8 20 -8 39c0 18 9 35 32 35h137v195c8 5 24 8 41 8c23 0 36 -8 36 -27v-176h162c5 -8 7 -22 7 -36c0 -35 -21 -38 -64 -38h-105v-280h162
c3 -6 7 -15 7 -36s-10 -37 -35 -37z" />
    <glyph glyph-name="bullet" unicode="&#x2022;" horiz-adv-x="261" 
d="M56 264c0 53 25 79 76 79s78 -26 78 -79c0 -51 -27 -77 -78 -77s-76 26 -76 77z" />
    <glyph glyph-name="ellipsis" unicode="&#x2026;" horiz-adv-x="518" 
d="M37 48c0 33 15 49 48 49c31 0 48 -16 48 -49s-17 -48 -48 -48c-33 0 -48 16 -48 48zM211 48c0 33 16 49 48 49s49 -16 49 -49s-17 -48 -49 -48c-31 0 -48 16 -48 48zM385 48c0 33 15 49 47 49c33 0 49 -16 49 -49s-16 -48 -49 -48c-31 0 -47 16 -47 48z" />
    <glyph glyph-name="perthousand" unicode="&#x2030;" horiz-adv-x="1211" 
d="M552 700c23 0 35 -11 28 -31l-251 -665c-7 -3 -14 -6 -31 -6c-21 0 -33 10 -21 40l245 657c9 4 16 5 30 5zM503 204c0 146 69 211 157 211c93 0 156 -65 156 -211c0 -150 -66 -207 -156 -207s-157 59 -157 207zM560 203c0 -116 45 -158 100 -158c57 0 98 41 98 158
c0 112 -40 161 -98 161c-55 0 -100 -50 -100 -161zM863 204c0 146 69 211 157 211c92 0 156 -65 156 -211c0 -150 -67 -207 -157 -207s-156 59 -156 207zM920 203c0 -116 44 -158 99 -158c58 0 99 41 99 158c0 112 -41 161 -98 161c-55 0 -100 -50 -100 -161zM35 490
c0 146 69 210 157 210c93 0 156 -64 156 -210c0 -151 -66 -207 -156 -207s-157 58 -157 207zM92 488c0 -116 45 -157 100 -157c57 0 98 41 98 157c0 113 -40 161 -98 161c-55 0 -100 -49 -100 -161z" />
    <glyph glyph-name="guilsinglleft" unicode="&#x2039;" horiz-adv-x="294" 
d="M53 280l143 161c10 10 17 13 25 13c18 0 34 -18 34 -33c0 -11 -5 -18 -12 -27l-132 -151l133 -155c7 -8 9 -14 9 -22c0 -16 -16 -31 -32 -31c-11 0 -20 4 -29 15l-141 159c-8 10 -13 19 -13 34s6 28 15 37z" />
    <glyph glyph-name="guilsinglright" unicode="&#x203a;" horiz-adv-x="294" 
d="M241 209l-143 -160c-9 -11 -17 -14 -25 -14c-18 0 -34 18 -34 33c0 11 5 18 12 27l133 151l-134 155c-6 9 -9 14 -9 22c0 16 16 31 32 31c11 0 20 -4 29 -15l142 -159c7 -10 13 -19 13 -34c0 -14 -7 -27 -16 -37z" />
    <glyph glyph-name="fraction" unicode="&#x2044;" horiz-adv-x="164" 
d="M202 700c23 0 36 -11 28 -31l-250 -665c-8 -3 -15 -6 -31 -6c-22 0 -34 10 -22 40l245 657c9 4 16 5 30 5z" />
    <glyph glyph-name="Euro" unicode="&#x20ac;" horiz-adv-x="682" 
d="M401 249h-205c24 -133 102 -181 209 -181c85 0 162 40 186 84c3 1 6 1 11 1c15 0 41 -11 41 -32c0 -35 -77 -124 -238 -124c-150 0 -259 71 -288 252h-85c-6 8 -8 20 -8 31c0 19 6 32 43 32h43c-1 11 -1 23 -1 36s1 26 2 39h-80c-5 9 -8 17 -8 28c0 22 7 35 44 35h50
c29 174 136 256 291 256c126 0 214 -41 214 -87c0 -19 -18 -35 -36 -40c-42 37 -102 54 -178 54c-112 0 -187 -60 -211 -183h282c5 -4 7 -10 7 -21c0 -23 -10 -42 -52 -42h-248v-75h260c4 -4 7 -9 7 -22c0 -21 -8 -41 -52 -41z" />
    <glyph glyph-name="trademark" unicode="&#x2122;" horiz-adv-x="727" 
d="M522 361c-16 0 -27 6 -36 30l-87 211l-16 -238c-1 -15 -12 -20 -29 -20c-10 0 -21 1 -27 4l23 291c2 30 9 63 41 63c12 0 19 -1 26 -5l106 -261l75 212c8 27 23 54 46 54c17 0 23 -2 33 -7l45 -344c-7 -5 -17 -7 -30 -7c-15 0 -27 3 -29 20l-24 238l-79 -211
c-9 -28 -22 -30 -38 -30zM284 650h-103v-302c-6 -3 -17 -4 -29 -4c-22 0 -26 18 -26 42v264h-118c-4 7 -6 16 -6 24c0 23 16 28 42 28h254c2 -5 6 -11 6 -23c0 -16 -7 -29 -20 -29z" />
    <glyph glyph-name="Omega" unicode="&#x2126;" horiz-adv-x="712" 
d="M228 61l1 4c-80 30 -165 116 -165 292c0 238 121 353 295 353c172 0 288 -114 288 -353c0 -162 -74 -258 -157 -292v-4l166 3c4 -5 8 -8 8 -26c0 -22 -10 -38 -32 -38h-241c-5 9 -10 22 -10 46c0 20 5 38 19 39c99 4 171 89 171 270c0 191 -85 285 -212 285
c-132 0 -220 -95 -220 -283c0 -189 97 -268 186 -273c4 -7 9 -22 9 -41c0 -23 -11 -43 -32 -43h-245c-5 9 -10 15 -10 30c0 22 11 34 47 34z" />
    <glyph glyph-name="partialdiff" unicode="&#x2202;" horiz-adv-x="573" 
d="M514 421c0 -268 -112 -431 -260 -431c-115 0 -196 64 -196 222c0 191 104 280 243 280c52 0 100 -13 137 -46c-4 153 -42 287 -164 287c-45 0 -113 -10 -152 -32c-7 8 -13 16 -13 29c0 12 3 25 15 31c38 21 97 35 157 35c178 0 233 -187 233 -375zM296 422
c-93 0 -160 -67 -160 -206c0 -116 52 -157 120 -157c93 0 169 123 180 308c-32 38 -79 55 -140 55z" />
    <glyph glyph-name="Delta" unicode="&#x2206;" horiz-adv-x="614" 
d="M46 0c-19 0 -33 4 -41 11l254 647c12 30 31 42 55 42c30 0 47 -33 57 -60l238 -622c-7 -15 -20 -18 -35 -18h-528zM312 593l-207 -525h411z" />
    <glyph glyph-name="product" unicode="&#x220f;" horiz-adv-x="766" 
d="M708 626h-90v-829c-6 -5 -23 -9 -38 -9c-21 0 -41 5 -41 37v801h-313v-828c-6 -6 -24 -10 -43 -10c-16 0 -34 5 -34 37v801h-114c-4 10 -9 16 -9 33c0 24 6 41 46 41h660c4 -6 8 -14 8 -32c0 -25 -11 -42 -32 -42z" />
    <glyph glyph-name="summation" unicode="&#x2211;" horiz-adv-x="696" 
d="M613 -197h-564c-5 10 -9 17 -9 35c0 10 0 18 7 23l300 396l-285 371c-3 9 -6 16 -6 32c0 23 6 40 44 40h525c5 -6 7 -9 7 -27c0 -20 -8 -45 -51 -45h-420l276 -356c0 -8 -2 -16 -12 -30l-272 -371h504c5 -4 8 -18 8 -30c0 -21 -9 -38 -52 -38z" />
    <glyph glyph-name="minus" unicode="&#x2212;" horiz-adv-x="524" 
d="M434 229h-372c-4 10 -8 20 -8 39s9 35 32 35h376c5 -8 8 -22 8 -36c0 -19 -7 -38 -36 -38z" />
    <glyph glyph-name="radical" unicode="&#x221a;" horiz-adv-x="602" 
d="M44 358h177l103 -286l183 604c5 16 16 24 40 24c20 0 29 -4 43 -12l-216 -679c-12 -5 -31 -9 -58 -9c-30 0 -45 13 -54 38l-97 254h-105c-14 0 -24 13 -24 33c0 11 4 22 8 33z" />
    <glyph glyph-name="infinity" unicode="&#x221e;" horiz-adv-x="688" 
d="M502 87c-77 0 -125 56 -155 121c-33 -62 -87 -121 -156 -121c-87 0 -149 70 -149 181c0 115 59 187 148 187c70 0 123 -50 155 -117c30 65 74 117 157 117c80 0 144 -61 144 -185c0 -118 -59 -183 -144 -183zM194 158c60 0 102 57 124 116c-26 66 -71 111 -124 111
c-54 0 -87 -46 -87 -114c0 -65 35 -113 87 -113zM497 385c-58 0 -96 -45 -123 -113c23 -57 64 -114 124 -114c53 0 85 47 85 112c0 74 -33 115 -86 115z" />
    <glyph glyph-name="integral" unicode="&#x222b;" horiz-adv-x="371" 
d="M189 721c0 -242 59 -502 59 -731c0 -145 -66 -178 -150 -178c-69 0 -88 15 -88 38c0 11 3 21 7 29h81c39 0 74 15 75 101c3 242 -58 508 -58 748c0 121 64 156 150 156c77 0 96 -18 96 -37c0 -15 -2 -22 -6 -33h-85c-45 0 -81 -15 -81 -93z" />
    <glyph glyph-name="approxequal" unicode="&#x2248;" horiz-adv-x="524" 
d="M155 407c72 0 142 -36 205 -36c53 0 72 19 81 28c11 -6 23 -24 23 -44c0 -28 -31 -57 -89 -57c-68 0 -163 34 -222 34c-33 0 -66 -17 -70 -31c-18 7 -25 25 -25 43c0 29 37 63 97 63zM155 223c72 0 142 -36 205 -36c53 0 72 19 81 28c11 -6 23 -24 23 -44
c0 -28 -31 -57 -89 -57c-68 0 -163 34 -222 34c-33 0 -66 -17 -70 -31c-18 7 -25 25 -25 43c0 30 37 63 97 63z" />
    <glyph glyph-name="notequal" unicode="&#x2260;" horiz-adv-x="524" 
d="M434 123h-193l-57 -151c-6 -3 -21 -6 -35 -6c-19 0 -29 9 -19 36l45 121h-113c-4 10 -8 20 -8 39s9 35 32 35h117l44 116h-185c-4 10 -8 20 -8 39s9 35 32 35h188l58 153c7 4 18 5 30 5c19 0 34 -9 29 -27l-50 -131h121c5 -8 8 -22 8 -36c0 -19 -7 -38 -36 -38h-121
l-44 -116h193c5 -8 8 -22 8 -36c0 -19 -7 -38 -36 -38z" />
    <glyph glyph-name="lessequal" unicode="&#x2264;" horiz-adv-x="524" 
d="M434 -9h-372c-4 9 -8 18 -8 34c0 17 9 31 32 31h376c5 -7 8 -19 8 -31c0 -18 -7 -34 -36 -34zM131 362l201 173c18 16 29 13 41 6c13 -6 22 -19 27 -34l-213 -184l209 -182c-5 -15 -17 -28 -30 -34c-13 -7 -23 -8 -40 6l-199 171c-13 11 -20 24 -20 38c0 15 8 26 24 40z
" />
    <glyph glyph-name="greaterequal" unicode="&#x2265;" horiz-adv-x="524" 
d="M461 -9h-372c-29 0 -35 16 -35 34c0 12 3 24 7 31h376c23 0 33 -14 33 -31c0 -16 -4 -25 -9 -34zM192 535l200 -173c17 -14 24 -25 24 -40c0 -14 -7 -27 -19 -38l-200 -171c-16 -14 -27 -13 -40 -6c-13 6 -24 19 -29 34l208 182l-213 184c5 15 15 28 28 34
c11 7 22 10 41 -6z" />
    <glyph glyph-name="lozenge" unicode="&#x25ca;" horiz-adv-x="403" 
d="M377 347l-136 -311c-13 -28 -29 -36 -53 -36c-10 0 -21 2 -28 6l-134 352l137 305c13 29 29 37 53 37c9 0 21 -3 27 -6zM100 359l101 -261l103 243l-101 261z" />
    <glyph glyph-name="AEacute" unicode="&#x1fc;" horiz-adv-x="913" 
d="M770 323h-260v-252h342c5 -5 8 -13 8 -31c0 -24 -10 -40 -32 -40h-361c-16 0 -34 5 -34 36v134h-285l-58 -145c-8 -19 -20 -25 -45 -25c-19 0 -33 3 -40 11l272 676c18 12 45 13 74 13h501c5 -6 8 -14 8 -32c0 -25 -10 -40 -32 -40h-318v-233h282c5 -6 10 -16 10 -35
c0 -24 -11 -37 -32 -37zM331 628l-156 -389h258v389h-102zM457 797c35 19 117 112 158 112c27 0 37 -15 38 -34c-50 -27 -127 -106 -161 -106c-19 0 -31 10 -35 28z" />
    <glyph glyph-name="aeacute" unicode="&#x1fd;" horiz-adv-x="783" 
d="M85 386c-8 7 -14 19 -14 32c0 49 94 74 165 74c65 0 135 -20 151 -89c40 59 102 89 167 89c122 0 182 -92 182 -209c0 -18 -2 -37 -7 -50h-318c6 -113 57 -175 153 -175c67 0 121 27 148 46c10 -6 18 -16 18 -32c0 -34 -59 -82 -179 -82c-81 0 -145 39 -181 106
c-55 -59 -135 -106 -206 -106c-89 0 -132 62 -132 148c0 71 37 121 112 132c58 8 128 10 192 15c-2 114 -30 139 -105 139c-60 0 -121 -20 -146 -38zM174 55c59 0 121 36 174 91c-6 21 -10 48 -10 71v11c-56 -6 -111 -11 -167 -16c-50 -5 -71 -31 -71 -75
c0 -43 24 -82 74 -82zM552 425c-65 0 -123 -45 -139 -137h252c0 80 -34 137 -113 137zM350 581c35 19 117 112 158 112c27 0 37 -15 38 -34c-50 -27 -127 -106 -161 -106c-19 0 -31 10 -35 28z" />
    <glyph glyph-name="Oslashacute" unicode="&#x1fe;" horiz-adv-x="712" 
d="M62 350c0 245 124 360 298 360c38 0 73 -6 105 -18l45 115c8 4 17 4 28 4c16 0 27 -9 27 -20c0 -4 0 -9 -2 -14l-44 -112c82 -53 131 -157 131 -315c0 -258 -119 -360 -290 -360c-36 0 -69 4 -100 13l-53 -138c-7 -2 -14 -2 -24 -2c-14 0 -31 8 -31 21c0 4 1 10 4 16
l50 128c-89 50 -144 152 -144 322zM142 349c0 -130 36 -208 95 -246l199 520c-23 9 -49 14 -76 14c-132 0 -218 -92 -218 -288zM570 349c0 115 -31 195 -83 238l-198 -515c22 -6 46 -9 71 -9c129 0 210 76 210 286zM264 797c35 19 117 112 158 112c27 0 37 -15 38 -34
c-50 -27 -127 -106 -161 -106c-19 0 -31 10 -35 28z" />
    <glyph glyph-name="oslashacute" unicode="&#x1ff;" horiz-adv-x="550" 
d="M56 239c0 173 94 253 223 253c18 0 35 -2 52 -5l40 126c7 3 14 5 23 5c13 0 20 -4 20 -14c0 -5 0 -9 -2 -16l-37 -115c74 -33 119 -109 119 -234c0 -181 -91 -249 -220 -249c-18 0 -35 2 -51 5l-31 -98c-7 -5 -13 -6 -26 -6c-12 0 -18 4 -18 14c0 12 4 25 9 39l20 62
c-74 31 -121 104 -121 233zM134 239c0 -89 25 -139 67 -161l108 341c-9 2 -16 3 -23 3c-89 0 -152 -57 -152 -183zM416 239c0 81 -23 135 -64 160l-107 -337c4 -1 9 -2 35 -2c81 0 136 49 136 179zM176 579c35 19 117 112 158 112c27 0 37 -15 38 -34
c-50 -27 -127 -106 -161 -106c-19 0 -31 10 -35 28z" />
    <glyph glyph-name="Tcommaaccent" unicode="&#x162;" horiz-adv-x="563" 
d="M517 628h-196v-621c-8 -5 -24 -7 -44 -7c-18 0 -33 9 -33 36v592h-222c-4 10 -8 23 -8 36c0 18 9 36 40 36h487c5 -6 8 -17 8 -32c0 -25 -10 -40 -32 -40zM280 -169c-26 0 -42 14 -42 43c0 28 16 43 43 43c28 0 46 -15 46 -65c0 -70 -22 -111 -48 -111
c-15 0 -22 4 -25 15c19 19 26 57 26 75z" />
    <glyph glyph-name="tcommaaccent" unicode="&#x163;" horiz-adv-x="366" 
d="M304 417h-122v-276c0 -60 21 -75 61 -75h96c3 -7 5 -12 5 -22c0 -25 -24 -44 -123 -44c-65 0 -114 26 -114 124v293h-59c-4 7 -8 16 -8 28c0 23 7 37 33 37h34v131c7 4 23 8 39 8c20 0 36 -10 36 -33v-106h153c5 -6 7 -13 7 -26c0 -16 -5 -39 -38 -39zM178 -145
c-26 0 -42 14 -42 43c0 28 16 43 43 43c28 0 46 -15 46 -65c0 -70 -22 -111 -48 -111c-15 0 -22 4 -25 15c19 19 26 57 26 75z" />
    <glyph glyph-name="uni1E8A" unicode="&#x1e8a;" horiz-adv-x="616" 
d="M83 700c29 0 42 -15 60 -40l168 -237l175 248c14 19 29 29 55 29c25 0 35 -7 41 -16l-228 -323l245 -346c-10 -9 -19 -16 -47 -16c-21 0 -47 11 -61 31l-188 267l-193 -271c-13 -18 -30 -26 -53 -26c-22 0 -32 6 -40 18l242 342l-224 319c8 12 21 21 48 21zM265 832
c0 31 16 46 46 46c29 0 46 -15 46 -46s-17 -46 -46 -46c-30 0 -46 15 -46 46z" />
    <glyph glyph-name="uni1E8B" unicode="&#x1e8b;" horiz-adv-x="499" 
d="M101 482c36 0 56 -15 74 -44l84 -133l109 146c15 20 29 31 49 31c31 0 42 -22 42 -42l-164 -192l100 -156c16 -25 28 -32 45 -32h37c4 -7 4 -13 4 -24c0 -21 -22 -36 -66 -36c-32 0 -59 13 -76 40l-95 147l-120 -159c-14 -18 -28 -28 -49 -28c-26 0 -38 19 -40 41
l174 202l-104 163c-7 10 -15 16 -28 16h-42c-2 6 -4 13 -4 21c0 25 32 39 70 39zM216 615c0 31 16 46 46 46c29 0 46 -15 46 -46s-17 -46 -46 -46c-30 0 -46 15 -46 46z" />
    <glyph glyph-name="aringacute" unicode="&#x1fb;" horiz-adv-x="569" 
d="M473 0c-34 0 -67 13 -77 49c-38 -36 -87 -59 -143 -59c-101 0 -197 69 -197 251c0 180 104 251 202 251c63 0 102 -23 131 -56v25c0 17 14 25 32 25c19 0 33 -4 43 -9v-384c0 -27 12 -34 36 -34h25c4 -8 6 -14 6 -26c0 -18 -18 -33 -58 -33zM264 60c57 0 96 21 124 48
v249c-29 39 -61 65 -120 65c-62 0 -134 -52 -134 -180c0 -129 58 -182 130 -182zM193 616c0 59 29 88 88 88c58 0 88 -32 88 -88s-30 -88 -88 -88c-59 0 -88 32 -88 88zM234 616c0 -29 16 -47 47 -47c30 0 48 18 48 47s-18 48 -48 48c-32 0 -47 -16 -47 -48zM215 768
c35 19 117 112 158 112c27 0 37 -15 38 -34c-50 -27 -127 -106 -161 -106c-19 0 -31 10 -35 28z" />
    <glyph glyph-name="idotaccent" horiz-adv-x="273" 
d="M104 482c43 0 71 -16 71 -78v-317c0 -19 10 -25 23 -25h30c3 -6 5 -13 5 -25c0 -23 -19 -37 -68 -37c-41 0 -65 17 -65 68v315c0 22 -11 28 -26 28h-28c-4 7 -6 17 -6 30c0 29 27 41 64 41zM79 619c0 33 16 49 48 49s50 -16 50 -49s-18 -48 -50 -48s-48 16 -48 48z" />
    <glyph glyph-name="braceleft.case" horiz-adv-x="320" 
d="M199 764c54 0 85 -13 85 -44c0 -11 -3 -19 -7 -26h-69c-31 0 -50 -21 -50 -58v-204c0 -62 -30 -78 -45 -80v-4c15 -1 45 -22 45 -84v-202c0 -40 20 -54 49 -54h71c3 -6 6 -14 6 -24c0 -30 -37 -44 -96 -44c-49 0 -99 28 -99 102v219c0 38 -19 49 -38 52
c-14 3 -22 14 -22 38c0 14 3 26 6 31c29 -1 54 21 54 54v214c0 89 56 114 110 114z" />
    <glyph glyph-name="braceright.case" horiz-adv-x="320" 
d="M121 -63c-54 0 -85 13 -85 44c0 11 2 19 6 26h69c31 0 51 21 51 58v204c0 62 29 78 44 80v4c-14 1 -44 22 -44 83v203c0 40 -21 53 -49 53h-71c-4 6 -6 15 -6 25c0 30 36 44 95 44c49 0 99 -28 99 -103v-218c0 -38 19 -49 39 -52c14 -3 22 -14 22 -38
c0 -14 -3 -26 -7 -31c-29 1 -54 -22 -54 -54v-215c0 -88 -56 -113 -109 -113z" />
    <glyph glyph-name="bracketleft.case" horiz-adv-x="306" 
d="M58 -17v774c13 8 29 12 52 12h158c4 -6 9 -16 9 -33c0 -25 -8 -36 -27 -36h-117v-686h135c4 -6 9 -14 9 -31c0 -24 -10 -37 -29 -37h-180c-6 9 -10 21 -10 37z" />
    <glyph glyph-name="bracketright.case" horiz-adv-x="306" 
d="M248 731v-774c-13 -7 -29 -11 -52 -11h-158c-4 5 -9 15 -9 33c0 24 8 35 27 35h117v687h-135c-4 6 -9 15 -9 32c0 25 10 36 29 36h180c6 -9 10 -21 10 -38z" />
    <glyph glyph-name="parenleft.case" horiz-adv-x="235" 
d="M28 352c0 260 74 408 141 408c21 0 39 -11 43 -35c-54 -40 -108 -156 -108 -373c0 -207 50 -334 112 -379c-4 -25 -18 -37 -43 -37c-71 0 -145 169 -145 416z" />
    <glyph glyph-name="parenright.case" horiz-adv-x="235" 
d="M206 348c0 -260 -73 -408 -141 -408c-20 0 -39 11 -43 35c54 40 108 156 108 373c0 207 -50 334 -112 378c4 25 18 38 43 38c71 0 145 -169 145 -416z" />
    <glyph glyph-name="hyphen.case" horiz-adv-x="427" 
d="M320 311h-257c-3 10 -8 17 -8 33c0 25 6 41 45 41h265c5 -5 8 -12 8 -30s-9 -44 -53 -44z" />
    <glyph glyph-name="emdash.case" horiz-adv-x="677" 
d="M569 308h-507c-3 9 -8 16 -8 32c0 24 6 41 45 41h516c4 -5 7 -12 7 -29c0 -19 -8 -44 -53 -44z" />
    <glyph glyph-name="endash.case" horiz-adv-x="524" 
d="M417 311h-355c-3 10 -8 17 -8 33c0 25 6 41 45 41h363c4 -5 8 -12 8 -30c0 -19 -9 -44 -53 -44z" />
    <glyph glyph-name="exclamdown.case" horiz-adv-x="204" 
d="M106 0c-21 0 -42 8 -42 30v506c6 5 21 10 39 10c22 0 39 -10 39 -42v-497c-8 -5 -17 -7 -36 -7zM151 652c0 -34 -16 -50 -48 -50s-49 16 -49 50c0 32 17 48 49 48c31 0 48 -17 48 -48z" />
    <glyph glyph-name="questiondown.case" horiz-adv-x="493" 
d="M120 222c0 -95 59 -145 146 -145c79 0 142 47 162 89c18 -6 31 -19 31 -44c0 -42 -60 -122 -197 -122c-135 0 -221 85 -221 211c0 129 87 197 201 209l-6 125c8 7 19 10 38 10c20 0 30 -13 31 -31l5 -126c0 -12 -3 -23 -8 -30c-87 -3 -182 -39 -182 -146zM314 650
c0 -32 -16 -48 -48 -48s-48 16 -48 48c0 34 16 50 48 50c31 0 48 -17 48 -50z" />
    <glyph glyph-name="guillemotleft.case" horiz-adv-x="495" 
d="M53 386l143 161c10 10 17 13 25 13c18 0 34 -18 34 -33c0 -11 -5 -18 -12 -27l-132 -151l133 -155c7 -8 9 -14 9 -22c0 -16 -16 -31 -32 -31c-11 0 -20 4 -29 15l-141 159c-8 10 -13 19 -13 34s6 28 15 37zM253 386l144 161c9 10 16 13 24 13c19 0 34 -18 34 -33
c0 -11 -4 -18 -12 -27l-132 -151l133 -155c7 -8 9 -14 9 -22c0 -16 -16 -31 -32 -31c-10 0 -19 4 -29 15l-141 159c-8 10 -13 19 -13 34s6 28 15 37z" />
    <glyph glyph-name="guillemotright.case" horiz-adv-x="495" 
d="M241 313l-143 -160c-9 -11 -17 -14 -25 -14c-18 0 -34 18 -34 33c0 11 5 18 12 27l133 151l-134 155c-6 9 -9 14 -9 22c0 16 16 31 32 31c11 0 20 -4 29 -15l142 -159c7 -10 13 -19 13 -34c0 -14 -7 -27 -16 -37zM442 313l-144 -160c-9 -11 -17 -14 -25 -14
c-18 0 -34 18 -34 33c0 11 5 18 12 27l133 151l-133 155c-7 9 -10 14 -10 22c0 16 17 31 32 31c11 0 20 -4 29 -15l142 -159c8 -10 13 -19 13 -34c0 -14 -7 -27 -15 -37z" />
    <glyph glyph-name="guilsinglleft.case" horiz-adv-x="294" 
d="M53 385l143 161c10 10 17 13 25 13c18 0 34 -18 34 -33c0 -11 -5 -18 -12 -27l-132 -151l133 -155c7 -8 9 -14 9 -22c0 -16 -16 -31 -32 -31c-11 0 -20 4 -29 15l-141 159c-8 10 -13 19 -13 34s6 28 15 37z" />
    <glyph glyph-name="guilsinglright.case" horiz-adv-x="294" 
d="M241 313l-143 -160c-9 -11 -17 -14 -25 -14c-18 0 -34 18 -34 33c0 11 5 18 12 27l133 151l-134 155c-6 9 -9 14 -9 22c0 16 16 31 32 31c11 0 20 -4 29 -15l142 -159c7 -10 13 -19 13 -34c0 -14 -7 -27 -16 -37z" />
    <glyph glyph-name="periodcentered.case" horiz-adv-x="171" 
d="M40 351c0 31 14 46 45 46c30 0 46 -15 46 -46c0 -30 -16 -45 -46 -45s-45 15 -45 45z" />
    <glyph glyph-name="bsuperior" unicode="&#xf6ea;" horiz-adv-x="289" 
d="M84 681v-113c19 18 45 31 73 31c59 0 100 -40 100 -119c0 -95 -51 -135 -119 -135c-38 0 -65 9 -88 24c-7 5 -13 12 -13 21v304c6 3 14 6 23 6c14 0 24 -5 24 -19zM145 550c-25 0 -44 -9 -61 -25v-119c11 -8 30 -17 55 -17c44 0 71 29 71 84c0 51 -26 77 -65 77z" />
    <glyph glyph-name="asuperior" unicode="&#xf6e9;" horiz-adv-x="309" 
d="M252 350c-18 0 -35 8 -42 23c-20 -18 -45 -28 -76 -28c-53 0 -103 34 -103 125c0 90 55 129 106 129c30 0 52 -12 67 -27v7c0 12 7 18 20 18c14 0 22 -3 27 -6v-188c0 -13 6 -17 16 -17h17c2 -4 3 -8 3 -15c0 -12 -10 -21 -35 -21zM143 389c27 0 46 8 61 20v116
c-15 16 -29 28 -58 28c-31 0 -66 -26 -66 -81c0 -57 27 -83 63 -83z" />
    <glyph glyph-name="dsuperior" unicode="&#xf6eb;" horiz-adv-x="309" 
d="M252 350c-18 0 -35 8 -42 23c-20 -18 -45 -28 -76 -28c-53 0 -103 34 -103 125c0 90 55 129 108 129c29 0 49 -9 65 -22v105c0 12 7 18 20 18c14 0 22 -4 27 -6v-291c0 -13 6 -17 16 -17h17c2 -4 3 -8 3 -15c0 -12 -10 -21 -35 -21zM143 389c27 0 46 8 61 20v119
c-15 14 -29 21 -58 21c-31 0 -66 -22 -66 -77c0 -57 27 -83 63 -83z" />
    <glyph glyph-name="egravesuperior" horiz-adv-x="277" 
d="M247 462h-167c2 -48 33 -73 74 -73c36 0 71 12 83 20c6 -3 11 -10 11 -19c0 -11 -5 -18 -12 -22c-15 -12 -39 -23 -87 -23c-72 0 -118 52 -118 127c0 84 58 127 120 127c67 0 99 -45 99 -107c0 -10 -1 -21 -3 -30zM151 555c-30 0 -61 -20 -70 -59h126c0 36 -17 59 -56 59
zM209 654c-3 -11 -12 -19 -24 -19c-24 0 -80 57 -116 77c0 13 7 23 27 23c28 0 88 -66 113 -81z" />
    <glyph glyph-name="esuperior" unicode="&#xf6ec;" horiz-adv-x="277" 
d="M247 462h-167c2 -48 33 -73 74 -73c36 0 71 12 83 20c6 -3 11 -10 11 -19c0 -11 -5 -18 -12 -22c-15 -12 -39 -23 -87 -23c-72 0 -118 52 -118 127c0 84 58 127 120 127c67 0 99 -45 99 -107c0 -10 -1 -21 -3 -30zM151 555c-30 0 -61 -20 -70 -59h126c0 36 -17 59 -56 59
z" />
    <glyph glyph-name="hsuperior" unicode="&#x2b0;" horiz-adv-x="295" 
d="M61 700c13 0 23 -6 23 -19v-128c23 27 54 46 90 46c46 0 74 -26 74 -83v-119c0 -9 3 -13 10 -13h15c3 -3 4 -6 4 -13c0 -12 -15 -21 -44 -21c-22 0 -35 11 -35 40v115c0 30 -14 45 -42 45c-26 0 -53 -15 -72 -39v-156c-4 -4 -14 -5 -25 -5c-12 0 -24 3 -24 23v322
c6 2 14 5 26 5z" />
    <glyph glyph-name="isuperior" unicode="&#xf6ed;" horiz-adv-x="164" 
d="M65 593c32 0 43 -13 43 -69v-123c0 -10 4 -14 12 -14h15c2 -3 2 -5 3 -9v-8c-1 -12 -13 -20 -40 -20c-33 0 -40 17 -40 63v122c0 12 -5 15 -13 15h-15c-2 2 -3 6 -3 11v11c2 15 17 21 38 21zM47 660c0 20 10 31 30 31s31 -11 31 -31c0 -19 -11 -29 -31 -29s-30 10 -30 29
z" />
    <glyph glyph-name="lsuperior" unicode="&#xf6ee;" horiz-adv-x="171" 
d="M88 679v-254c0 -27 10 -35 33 -35h36c1 -4 2 -7 2 -13c0 -14 -14 -27 -59 -27c-41 0 -61 22 -61 63v280c6 4 11 7 24 7c18 0 25 -9 25 -21z" />
    <glyph glyph-name="msuperior" unicode="&#xf6ef;" horiz-adv-x="476" 
d="M66 593c24 0 44 -15 44 -45c23 29 48 50 83 50c33 0 59 -12 68 -50c25 29 54 50 92 50c41 0 72 -25 72 -81v-121c0 -8 4 -13 10 -13h20c2 -3 2 -4 2 -11c0 -14 -14 -22 -45 -22h-4c-22 1 -34 12 -34 39v115c0 30 -14 43 -38 43c-28 0 -52 -15 -71 -37v-114
c0 -8 2 -13 10 -13h17c1 -3 2 -6 2 -12v-3c-2 -13 -18 -18 -44 -18h-4c-23 1 -33 12 -33 39v117c0 28 -13 41 -36 41c-27 0 -49 -15 -66 -36v-156c-6 -4 -15 -5 -28 -5h-4c-15 1 -21 6 -21 39v146c0 10 -5 15 -13 15h-19c-2 6 -4 11 -4 20c0 15 17 23 44 23z" />
    <glyph glyph-name="nsuperior" unicode="&#x207f;" horiz-adv-x="324" 
d="M65 593c23 0 39 -11 42 -34l3 -9c23 29 53 48 90 48c43 0 72 -25 72 -81v-121c0 -8 4 -13 11 -13h19c2 -3 3 -4 3 -11v-3c-2 -12 -16 -19 -45 -19h-5c-22 1 -33 12 -33 39v115c0 28 -15 45 -39 45c-30 0 -52 -17 -72 -40v-154c-4 -3 -10 -4 -18 -5h-14
c-15 0 -21 8 -21 39v146c0 10 -5 15 -13 15h-19c-1 5 -4 9 -4 17c0 17 11 26 43 26z" />
    <glyph glyph-name="osuperior" unicode="&#xf6f0;" horiz-adv-x="301" 
d="M31 471c0 88 52 128 121 128s118 -40 118 -128c0 -92 -51 -126 -120 -126s-119 37 -119 126zM83 471c0 -61 28 -82 67 -82c40 0 67 20 67 82c0 57 -25 83 -65 83c-39 0 -69 -26 -69 -83z" />
    <glyph glyph-name="rsuperior" unicode="&#xf6f1;" horiz-adv-x="238" 
d="M59 593c24 0 39 -8 42 -34l3 -6c20 25 51 45 78 45c31 0 46 -14 46 -46v-5c-2 -24 -13 -31 -29 -31c-30 0 -11 28 -40 28c-19 0 -39 -12 -54 -32v-157c-3 -4 -15 -6 -28 -6c-17 0 -23 6 -23 36v149c0 11 -5 16 -12 16h-20c-2 6 -4 12 -4 20c0 12 15 23 41 23z" />
    <glyph glyph-name="ssuperior" unicode="&#xf6f2;" horiz-adv-x="256" 
d="M127 599c62 0 92 -23 92 -41c0 -12 -3 -21 -10 -26c-12 10 -47 18 -83 18c-35 0 -49 -11 -49 -26c0 -17 18 -25 59 -30c65 -11 92 -32 92 -76c0 -46 -33 -73 -99 -73c-62 0 -102 19 -102 40c0 13 3 21 10 26c17 -10 57 -22 89 -22c43 0 56 12 56 29c0 18 -15 27 -58 32
c-67 11 -91 31 -91 76c0 42 32 73 94 73z" />
    <glyph glyph-name="tsuperior" unicode="&#xf6f3;" horiz-adv-x="206" 
d="M163 553h-57v-127c0 -27 10 -34 29 -34h49c2 -5 3 -8 3 -14c0 -16 -12 -28 -67 -28c-36 0 -62 14 -62 65v138h-31c-3 5 -4 10 -4 17c0 15 4 24 18 24h17v61c5 3 15 6 26 6c13 0 22 -7 22 -21v-46h74c4 -3 6 -8 6 -16c0 -10 -4 -25 -23 -25z" />
    <glyph glyph-name="uni2070" unicode="&#x2070;" horiz-adv-x="384" 
d="M35 489c0 146 69 211 157 211c93 0 156 -65 156 -211c0 -150 -66 -207 -156 -207s-157 59 -157 207zM92 488c0 -116 45 -158 100 -158c57 0 98 41 98 158c0 112 -40 161 -98 161c-55 0 -100 -50 -100 -161z" />
    <glyph glyph-name="uni2074" unicode="&#x2074;" horiz-adv-x="372" 
d="M258 576c16 0 26 -5 26 -20v-140h60c3 -3 6 -12 6 -24c0 -15 -7 -23 -19 -23h-47l1 -79c-6 -4 -17 -5 -31 -5s-24 5 -24 21v63h-203c-4 5 -5 11 -5 19c0 6 2 16 5 25l92 281c7 2 17 5 31 5c17 0 24 -11 20 -23l-84 -260h144l-1 153c7 4 17 7 29 7z" />
    <glyph glyph-name="uni2075" unicode="&#x2075;" horiz-adv-x="345" 
d="M285 644h-183l-6 -121c20 7 47 13 79 13c80 0 145 -35 145 -127c0 -71 -51 -130 -155 -130c-107 0 -139 53 -139 84c0 15 9 25 25 31c9 -28 41 -68 112 -68c69 0 101 34 101 86c0 55 -43 78 -107 78c-42 0 -69 -11 -96 -11c-12 0 -19 9 -19 24l8 187c8 5 18 6 35 6h215
c4 -4 7 -11 7 -22c0 -18 -8 -30 -22 -30z" />
    <glyph glyph-name="uni2076" unicode="&#x2076;" horiz-adv-x="360" 
d="M35 488c0 131 56 212 166 212c68 0 114 -24 114 -50c0 -13 -7 -26 -16 -30c-15 9 -46 29 -97 29c-76 0 -105 -53 -110 -141c28 13 62 23 102 23c79 0 140 -29 140 -121c0 -68 -39 -131 -142 -131c-96 0 -157 59 -157 209zM188 487c-39 0 -73 -10 -96 -23
c3 -96 33 -137 99 -137c62 0 88 35 88 82c0 57 -37 78 -91 78z" />
    <glyph glyph-name="uni2077" unicode="&#x2077;" horiz-adv-x="313" 
d="M128 285c-19 0 -25 10 -21 23l124 337h-220c-4 4 -7 12 -7 27c0 13 8 27 22 27h267c3 -5 4 -12 4 -19c0 -9 -2 -20 -6 -31l-133 -359c-6 -4 -14 -5 -30 -5z" />
    <glyph glyph-name="uni2078" unicode="&#x2078;" horiz-adv-x="353" 
d="M29 400c0 53 31 86 69 103c-30 18 -53 45 -53 92c0 66 46 105 129 105c86 0 133 -38 133 -106c0 -43 -25 -75 -58 -93c43 -17 75 -46 75 -103c0 -64 -43 -119 -147 -119c-103 0 -148 51 -148 121zM170 477c-8 0 -14 1 -21 1c-35 -9 -65 -33 -65 -78c0 -40 31 -73 91 -73
c67 0 94 30 94 71c0 47 -45 66 -99 79zM97 595c0 -54 46 -69 93 -79c2 0 3 -1 4 -1l5 2c33 11 58 38 58 76c0 40 -31 63 -80 63c-47 0 -80 -24 -80 -61z" />
    <glyph glyph-name="uni2079" unicode="&#x2079;" horiz-adv-x="357" 
d="M321 485c0 -140 -55 -206 -158 -206c-81 0 -131 31 -131 57c0 13 6 21 13 28c15 -10 59 -34 108 -34c78 0 108 41 111 138c-29 -17 -62 -26 -108 -26c-67 0 -132 32 -132 116c0 81 42 142 144 142c98 0 153 -49 153 -215zM162 487c45 0 77 10 102 27
c-4 99 -30 138 -92 138c-65 0 -93 -37 -93 -89c0 -51 37 -76 83 -76z" />
    <glyph glyph-name="uni2080" unicode="&#x2080;" horiz-adv-x="384" 
d="M35 74c0 146 69 211 157 211c93 0 156 -65 156 -211c0 -150 -66 -207 -156 -207s-157 59 -157 207zM92 73c0 -116 45 -158 100 -158c57 0 98 41 98 158c0 112 -40 161 -98 161c-55 0 -100 -50 -100 -161z" />
    <glyph glyph-name="uni2081" unicode="&#x2081;" horiz-adv-x="318" 
d="M278 -130h-229c-3 7 -6 13 -6 24c0 17 3 28 33 28h72v285c-27 -22 -65 -33 -90 -33c-15 0 -24 10 -24 27c0 9 1 15 6 22c48 3 94 26 108 58c6 3 17 5 29 5c17 0 28 -7 28 -22v-342h89c2 -4 6 -11 6 -22c0 -18 -7 -30 -22 -30z" />
    <glyph glyph-name="uni2082" unicode="&#x2082;" horiz-adv-x="343" 
d="M25 215c0 27 46 69 132 69c96 0 146 -47 146 -119c0 -106 -130 -201 -203 -243v-3l217 3c2 -6 5 -16 5 -27c0 -17 -7 -25 -22 -25h-273c-3 7 -6 13 -6 29c0 15 4 27 18 37c70 50 205 139 205 221c0 48 -35 72 -89 72c-47 0 -93 -22 -109 -47c-12 6 -21 15 -21 33z" />
    <glyph glyph-name="uni2083" unicode="&#x2083;" horiz-adv-x="338" 
d="M236 164c0 37 -29 64 -85 64c-47 0 -86 -19 -102 -43c-13 6 -21 13 -21 30c0 27 39 69 127 69c93 0 139 -49 139 -111c0 -43 -28 -83 -68 -93v-1c41 -6 79 -38 79 -97c0 -61 -43 -116 -149 -116c-105 0 -135 49 -135 79c0 19 8 28 23 33c12 -28 41 -61 109 -61
c66 0 96 32 96 71c0 41 -31 64 -81 64h-21c-10 0 -15 10 -15 23c0 12 2 17 4 23c64 0 101 26 100 66z" />
    <glyph glyph-name="uni2084" unicode="&#x2084;" horiz-adv-x="372" 
d="M258 161c16 0 26 -5 26 -20v-140h60c3 -3 6 -12 6 -24c0 -15 -7 -23 -19 -23h-47l1 -79c-6 -4 -17 -5 -31 -5s-24 5 -24 21v63h-203c-4 5 -5 11 -5 19c0 6 2 16 5 25l92 281c7 2 17 5 31 5c17 0 24 -11 20 -23l-84 -260h144l-1 153c7 4 17 7 29 7z" />
    <glyph glyph-name="uni2085" unicode="&#x2085;" horiz-adv-x="345" 
d="M285 229h-183l-6 -121c20 7 47 13 79 13c80 0 145 -35 145 -127c0 -71 -51 -130 -155 -130c-107 0 -139 53 -139 84c0 15 9 25 25 31c9 -28 41 -68 112 -68c69 0 101 34 101 86c0 55 -43 78 -107 78c-42 0 -69 -11 -96 -11c-12 0 -19 9 -19 24l8 187c8 5 18 6 35 6h215
c4 -4 7 -11 7 -22c0 -18 -8 -30 -22 -30z" />
    <glyph glyph-name="uni2086" unicode="&#x2086;" horiz-adv-x="360" 
d="M35 73c0 131 56 212 166 212c68 0 114 -24 114 -50c0 -13 -7 -26 -16 -30c-15 9 -46 29 -97 29c-76 0 -105 -53 -110 -141c28 13 62 23 102 23c79 0 140 -29 140 -121c0 -68 -39 -131 -142 -131c-96 0 -157 59 -157 209zM188 72c-39 0 -73 -10 -96 -23
c3 -96 33 -137 99 -137c62 0 88 35 88 82c0 57 -37 78 -91 78z" />
    <glyph glyph-name="uni2087" unicode="&#x2087;" horiz-adv-x="313" 
d="M128 -130c-19 0 -25 10 -21 23l124 337h-220c-4 4 -7 12 -7 27c0 13 8 27 22 27h267c3 -5 4 -12 4 -19c0 -9 -2 -20 -6 -31l-133 -359c-6 -4 -14 -5 -30 -5z" />
    <glyph glyph-name="uni2088" unicode="&#x2088;" horiz-adv-x="353" 
d="M29 -14c0 52 31 85 69 102c-30 18 -53 45 -53 92c0 66 46 105 129 105c86 0 133 -38 133 -106c0 -43 -25 -75 -58 -93c43 -17 75 -46 75 -102c0 -64 -43 -120 -147 -120c-103 0 -148 51 -148 122zM170 62c-8 0 -14 1 -21 1c-35 -9 -65 -33 -65 -77c0 -41 31 -73 91 -73
c67 0 94 29 94 71c0 46 -45 65 -99 78zM97 180c0 -54 46 -69 93 -79c2 0 3 -1 4 -1l5 2c33 11 58 38 58 76c0 40 -31 63 -80 63c-47 0 -80 -24 -80 -61z" />
    <glyph glyph-name="uni2089" unicode="&#x2089;" horiz-adv-x="357" 
d="M321 70c0 -140 -55 -206 -158 -206c-81 0 -131 31 -131 57c0 13 6 21 13 28c15 -10 59 -34 108 -34c78 0 108 41 111 138c-29 -17 -62 -26 -108 -26c-67 0 -132 32 -132 116c0 81 42 142 144 142c98 0 153 -49 153 -215zM162 72c45 0 77 10 102 27c-4 99 -30 138 -92 138
c-65 0 -93 -37 -93 -89c0 -51 37 -76 83 -76z" />
    <glyph glyph-name="zero.numr" horiz-adv-x="384" 
d="M35 489c0 146 69 211 157 211c93 0 156 -65 156 -211c0 -150 -66 -207 -156 -207s-157 59 -157 207zM92 488c0 -116 45 -158 100 -158c57 0 98 41 98 158c0 112 -40 161 -98 161c-55 0 -100 -50 -100 -161z" />
    <glyph glyph-name="one.numr" horiz-adv-x="318" 
d="M278 285h-229c-3 7 -6 13 -6 24c0 17 3 28 33 28h72v285c-27 -22 -65 -33 -90 -33c-15 0 -24 10 -24 27c0 9 1 15 6 22c48 3 94 26 108 58c6 3 17 5 29 5c17 0 28 -7 28 -22v-342h89c2 -4 6 -11 6 -22c0 -18 -7 -30 -22 -30z" />
    <glyph glyph-name="two.numr" horiz-adv-x="343" 
d="M25 630c0 27 46 69 132 69c96 0 146 -47 146 -119c0 -106 -130 -201 -203 -243v-3l217 3c2 -6 5 -16 5 -27c0 -17 -7 -25 -22 -25h-273c-3 7 -6 13 -6 29c0 15 4 27 18 37c70 50 205 139 205 221c0 48 -35 72 -89 72c-47 0 -93 -22 -109 -47c-12 6 -21 15 -21 33z" />
    <glyph glyph-name="three.numr" horiz-adv-x="338" 
d="M236 579c0 37 -29 64 -85 64c-47 0 -86 -19 -102 -43c-13 6 -21 13 -21 30c0 27 39 69 127 69c93 0 139 -49 139 -111c0 -43 -28 -83 -68 -93v-1c41 -6 79 -38 79 -97c0 -61 -43 -116 -149 -116c-105 0 -135 49 -135 79c0 19 8 28 23 33c12 -28 41 -61 109 -61
c66 0 96 32 96 71c0 41 -31 64 -81 64h-21c-10 0 -15 10 -15 23c0 12 2 17 4 23c64 0 101 26 100 66z" />
    <glyph glyph-name="four.numr" horiz-adv-x="372" 
d="M258 576c16 0 26 -5 26 -20v-140h60c3 -3 6 -12 6 -24c0 -15 -7 -23 -19 -23h-47l1 -79c-6 -4 -17 -5 -31 -5s-24 5 -24 21v63h-203c-4 5 -5 11 -5 19c0 6 2 16 5 25l92 281c7 2 17 5 31 5c17 0 24 -11 20 -23l-84 -260h144l-1 153c7 4 17 7 29 7z" />
    <glyph glyph-name="five.numr" horiz-adv-x="345" 
d="M285 644h-183l-6 -121c20 7 47 13 79 13c80 0 145 -35 145 -127c0 -71 -51 -130 -155 -130c-107 0 -139 53 -139 84c0 15 9 25 25 31c9 -28 41 -68 112 -68c69 0 101 34 101 86c0 55 -43 78 -107 78c-42 0 -69 -11 -96 -11c-12 0 -19 9 -19 24l8 187c8 5 18 6 35 6h215
c4 -4 7 -11 7 -22c0 -18 -8 -30 -22 -30z" />
    <glyph glyph-name="six.numr" horiz-adv-x="360" 
d="M35 488c0 131 56 212 166 212c68 0 114 -24 114 -50c0 -13 -7 -26 -16 -30c-15 9 -46 29 -97 29c-76 0 -105 -53 -110 -141c28 13 62 23 102 23c79 0 140 -29 140 -121c0 -68 -39 -131 -142 -131c-96 0 -157 59 -157 209zM188 487c-39 0 -73 -10 -96 -23
c3 -96 33 -137 99 -137c62 0 88 35 88 82c0 57 -37 78 -91 78z" />
    <glyph glyph-name="seven.numr" horiz-adv-x="313" 
d="M128 285c-19 0 -25 10 -21 23l124 337h-220c-4 4 -7 12 -7 27c0 13 8 27 22 27h267c3 -5 4 -12 4 -19c0 -9 -2 -20 -6 -31l-133 -359c-6 -4 -14 -5 -30 -5z" />
    <glyph glyph-name="eight.numr" horiz-adv-x="353" 
d="M29 400c0 53 31 86 69 103c-30 18 -53 45 -53 92c0 66 46 105 129 105c86 0 133 -38 133 -106c0 -43 -25 -75 -58 -93c43 -17 75 -46 75 -103c0 -64 -43 -119 -147 -119c-103 0 -148 51 -148 121zM170 477c-8 0 -14 1 -21 1c-35 -9 -65 -33 -65 -78c0 -40 31 -73 91 -73
c67 0 94 30 94 71c0 47 -45 66 -99 79zM97 595c0 -54 46 -69 93 -79c2 0 3 -1 4 -1l5 2c33 11 58 38 58 76c0 40 -31 63 -80 63c-47 0 -80 -24 -80 -61z" />
    <glyph glyph-name="nine.numr" horiz-adv-x="357" 
d="M321 485c0 -140 -55 -206 -158 -206c-81 0 -131 31 -131 57c0 13 6 21 13 28c15 -10 59 -34 108 -34c78 0 108 41 111 138c-29 -17 -62 -26 -108 -26c-67 0 -132 32 -132 116c0 81 42 142 144 142c98 0 153 -49 153 -215zM162 487c45 0 77 10 102 27
c-4 99 -30 138 -92 138c-65 0 -93 -37 -93 -89c0 -51 37 -76 83 -76z" />
    <glyph glyph-name="zero.dnom" horiz-adv-x="384" 
d="M35 204c0 146 69 211 157 211c93 0 156 -65 156 -211c0 -150 -66 -207 -156 -207s-157 59 -157 207zM92 203c0 -116 45 -158 100 -158c57 0 98 41 98 158c0 112 -40 161 -98 161c-55 0 -100 -50 -100 -161z" />
    <glyph glyph-name="one.dnom" horiz-adv-x="318" 
d="M278 0h-229c-3 7 -6 13 -6 24c0 17 3 28 33 28h72v285c-27 -22 -65 -33 -90 -33c-15 0 -24 10 -24 27c0 9 1 15 6 22c48 3 94 26 108 58c6 3 17 5 29 5c17 0 28 -7 28 -22v-342h89c2 -4 6 -11 6 -22c0 -18 -7 -30 -22 -30z" />
    <glyph glyph-name="two.dnom" horiz-adv-x="343" 
d="M25 345c0 27 46 69 132 69c96 0 146 -47 146 -119c0 -106 -130 -201 -203 -243v-3l217 3c2 -6 5 -16 5 -27c0 -17 -7 -25 -22 -25h-273c-3 7 -6 13 -6 29c0 15 4 27 18 37c70 50 205 139 205 221c0 48 -35 72 -89 72c-47 0 -93 -22 -109 -47c-12 6 -21 15 -21 33z" />
    <glyph glyph-name="three.dnom" horiz-adv-x="338" 
d="M236 294c0 37 -29 64 -85 64c-47 0 -86 -19 -102 -43c-13 6 -21 13 -21 30c0 27 39 69 127 69c93 0 139 -49 139 -111c0 -43 -28 -83 -68 -93v-1c41 -6 79 -38 79 -97c0 -61 -43 -116 -149 -116c-105 0 -135 49 -135 79c0 19 8 28 23 33c12 -28 41 -61 109 -61
c66 0 96 32 96 71c0 41 -31 64 -81 64h-21c-10 0 -15 10 -15 23c0 12 2 17 4 23c64 0 101 26 100 66z" />
    <glyph glyph-name="four.dnom" horiz-adv-x="371" 
d="M258 291c16 0 26 -5 26 -20v-140h60c3 -3 6 -12 6 -24c0 -15 -7 -23 -19 -23h-47l1 -79c-6 -4 -17 -5 -31 -5s-24 5 -24 21v63h-203c-4 5 -5 11 -5 19c0 6 2 16 5 25l92 281c7 2 17 5 31 5c17 0 24 -11 20 -23l-84 -260h144l-1 153c7 4 17 7 29 7z" />
    <glyph glyph-name="five.dnom" horiz-adv-x="345" 
d="M285 359h-183l-6 -121c20 7 47 13 79 13c80 0 145 -35 145 -127c0 -71 -51 -130 -155 -130c-107 0 -139 53 -139 84c0 15 9 25 25 31c9 -28 41 -68 112 -68c69 0 101 34 101 86c0 55 -43 78 -107 78c-42 0 -69 -11 -96 -11c-12 0 -19 9 -19 24l8 187c8 5 18 6 35 6h215
c4 -4 7 -11 7 -22c0 -18 -8 -30 -22 -30z" />
    <glyph glyph-name="six.dnom" horiz-adv-x="359" 
d="M35 203c0 131 56 212 166 212c68 0 114 -24 114 -50c0 -13 -7 -26 -16 -30c-15 9 -46 29 -97 29c-76 0 -105 -53 -110 -141c28 13 62 23 102 23c79 0 140 -29 140 -121c0 -68 -39 -131 -142 -131c-96 0 -157 59 -157 209zM188 202c-39 0 -73 -10 -96 -23
c3 -96 33 -137 99 -137c62 0 88 35 88 82c0 57 -37 78 -91 78z" />
    <glyph glyph-name="seven.dnom" horiz-adv-x="313" 
d="M128 0c-19 0 -25 10 -21 23l124 337h-220c-4 4 -7 12 -7 27c0 13 8 27 22 27h267c3 -5 4 -12 4 -19c0 -9 -2 -20 -6 -31l-133 -359c-6 -4 -14 -5 -30 -5z" />
    <glyph glyph-name="eight.dnom" horiz-adv-x="353" 
d="M29 115c0 53 31 86 69 103c-30 18 -53 45 -53 92c0 66 46 105 129 105c86 0 133 -38 133 -106c0 -43 -25 -75 -58 -93c43 -17 75 -46 75 -103c0 -64 -43 -119 -147 -119c-103 0 -148 51 -148 121zM170 192c-8 0 -14 1 -21 1c-35 -9 -65 -33 -65 -78c0 -40 31 -73 91 -73
c67 0 94 30 94 71c0 47 -45 66 -99 79zM97 310c0 -54 46 -69 93 -79c2 0 3 -1 4 -1l5 2c33 11 58 38 58 76c0 40 -31 63 -80 63c-47 0 -80 -24 -80 -61z" />
    <glyph glyph-name="nine.dnom" horiz-adv-x="357" 
d="M321 200c0 -140 -55 -206 -158 -206c-81 0 -131 31 -131 57c0 13 6 21 13 28c15 -10 59 -34 108 -34c78 0 108 41 111 138c-29 -17 -62 -26 -108 -26c-67 0 -132 32 -132 116c0 81 42 142 144 142c98 0 153 -49 153 -215zM162 202c45 0 77 10 102 27
c-4 99 -30 138 -92 138c-65 0 -93 -37 -93 -89c0 -51 37 -76 83 -76z" />
    <glyph glyph-name="onethird" unicode="&#x2153;" horiz-adv-x="877" 
d="M554 700c23 0 35 -11 28 -31l-251 -665c-7 -3 -14 -6 -31 -6c-22 0 -33 10 -21 40l245 657c8 4 16 5 30 5zM278 285h-229c-3 7 -6 13 -6 24c0 17 3 28 33 28h72v285c-27 -22 -65 -33 -90 -33c-15 0 -24 10 -24 27c0 9 1 15 6 22c48 3 94 26 108 58c6 3 17 5 29 5
c17 0 28 -7 28 -22v-342h89c2 -4 6 -11 6 -22c0 -18 -7 -30 -22 -30zM775 294c0 37 -29 64 -85 64c-47 0 -86 -19 -102 -43c-13 6 -21 13 -21 30c0 27 39 69 127 69c93 0 139 -49 139 -111c0 -43 -28 -83 -68 -93v-1c41 -6 79 -38 79 -97c0 -61 -43 -116 -149 -116
c-105 0 -135 49 -135 79c0 19 8 28 23 33c12 -28 41 -61 109 -61c66 0 96 32 96 71c0 41 -31 64 -81 64h-21c-10 0 -15 10 -15 23c0 12 2 17 4 23c64 0 101 26 100 66z" />
    <glyph glyph-name="twothirds" unicode="&#x2154;" horiz-adv-x="904" 
d="M581 700c23 0 35 -11 28 -31l-251 -665c-7 -3 -14 -6 -31 -6c-22 0 -33 10 -21 40l245 657c8 4 16 5 30 5zM25 630c0 27 46 69 132 69c96 0 146 -47 146 -119c0 -106 -130 -201 -203 -243v-3l217 3c2 -6 5 -16 5 -27c0 -17 -7 -25 -22 -25h-273c-3 7 -6 13 -6 29
c0 15 4 27 18 37c70 50 205 139 205 221c0 48 -35 72 -89 72c-47 0 -93 -22 -109 -47c-12 6 -21 15 -21 33zM802 294c0 37 -29 64 -85 64c-47 0 -86 -19 -102 -43c-13 6 -21 13 -21 30c0 27 39 69 127 69c93 0 139 -49 139 -111c0 -43 -28 -83 -68 -93v-1
c41 -6 79 -38 79 -97c0 -61 -43 -116 -149 -116c-105 0 -135 49 -135 79c0 19 8 28 23 33c12 -28 41 -61 109 -61c66 0 96 32 96 71c0 41 -31 64 -81 64h-21c-10 0 -15 10 -15 23c0 12 2 17 4 23c64 0 101 26 100 66z" />
    <glyph glyph-name="oneeighth" unicode="&#x215b;" horiz-adv-x="883" 
d="M554 700c18 0 30 -8 30 -22c0 -3 -1 -6 -2 -10l-251 -664c-8 -4 -15 -6 -31 -6s-26 5 -26 19c0 5 1 12 5 21l245 657c8 3 15 5 30 5zM278 285h-229c-3 7 -6 13 -6 24v6c2 13 7 22 33 22h71v285c-27 -22 -64 -33 -90 -33c-14 0 -24 9 -24 27c0 9 2 15 7 21
c48 4 94 27 107 59c7 3 18 5 30 5c17 0 27 -8 27 -22v-342h89c3 -4 7 -11 7 -22c0 -18 -7 -30 -22 -30zM560 115c0 53 31 86 69 103c-31 18 -53 45 -53 92c0 66 45 105 128 105c87 0 133 -38 133 -106c0 -43 -25 -75 -57 -93c43 -17 74 -46 74 -103
c0 -64 -42 -119 -147 -119c-102 0 -147 51 -147 121zM701 192c-8 0 -15 1 -21 1c-36 -9 -65 -33 -65 -78c0 -40 30 -73 91 -73c66 0 94 30 94 71c0 47 -46 66 -99 79zM627 310c0 -54 47 -69 94 -79c1 0 2 -1 4 -1l4 2c34 11 58 38 58 76c0 40 -31 63 -79 63s-81 -24 -81 -61
z" />
    <glyph glyph-name="threeeighths" unicode="&#x215c;" horiz-adv-x="910" 
d="M578 700c18 0 30 -8 30 -22c0 -3 -1 -6 -2 -10l-251 -664c-8 -4 -15 -6 -31 -6s-26 5 -26 19c0 5 1 12 5 21l245 657c8 3 15 5 30 5zM236 578c0 38 -29 64 -85 64c-47 0 -87 -19 -102 -42c-13 6 -21 13 -21 30c0 27 39 68 127 68c93 0 138 -49 138 -110
c0 -44 -28 -84 -68 -93c41 -8 80 -38 80 -98c0 -61 -43 -116 -150 -116c-104 0 -134 49 -134 79v6c2 16 9 22 23 27c11 -28 41 -61 109 -61c66 0 95 31 95 71c0 41 -30 64 -80 64h-22c-9 0 -14 10 -14 23c0 11 2 17 4 22c64 1 100 27 100 66zM583 115c0 53 31 86 69 103
c-31 18 -53 45 -53 92c0 66 45 105 128 105c87 0 134 -38 134 -106c0 -43 -26 -75 -58 -93c43 -17 74 -46 74 -103c0 -64 -42 -119 -147 -119c-102 0 -147 51 -147 121zM724 192c-8 0 -15 1 -21 1c-35 -9 -65 -33 -65 -78c0 -40 31 -73 91 -73c67 0 94 30 94 71
c0 47 -46 66 -99 79zM651 310c0 -54 46 -69 93 -79c1 0 3 -1 4 -1l4 2c34 11 58 38 58 76c0 40 -30 63 -79 63c-47 0 -80 -24 -80 -61z" />
    <glyph glyph-name="fiveeighths" unicode="&#x215d;" horiz-adv-x="907" 
d="M578 700c18 0 30 -8 30 -22c0 -3 -1 -6 -2 -10l-251 -664c-8 -4 -15 -6 -31 -6s-26 5 -26 19c0 5 1 12 5 21l245 657c8 3 15 5 30 5zM285 644h-184l-5 -122c20 7 46 13 79 13c80 0 145 -34 145 -126c0 -72 -51 -130 -155 -130c-107 0 -139 53 -139 84c0 15 8 25 25 31
c9 -29 41 -68 112 -68c68 0 101 34 101 86c0 55 -43 78 -107 78c-42 0 -70 -11 -96 -11c-12 0 -19 9 -19 24c2 62 5 124 8 187c8 4 17 6 35 6h215c3 -4 6 -11 6 -22c0 -18 -8 -30 -21 -30zM584 115c0 53 31 86 69 103c-31 18 -53 45 -53 92c0 66 45 105 128 105
c87 0 133 -38 133 -106c0 -43 -25 -75 -57 -93c43 -17 74 -46 74 -103c0 -64 -42 -119 -147 -119c-102 0 -147 51 -147 121zM725 192c-8 0 -15 1 -21 1c-36 -9 -65 -33 -65 -78c0 -40 30 -73 91 -73c66 0 94 30 94 71c0 47 -46 66 -99 79zM651 310c0 -54 47 -69 94 -79
c1 0 2 -1 4 -1l4 2c34 11 58 38 58 76c0 40 -31 63 -79 63s-81 -24 -81 -61z" />
    <glyph glyph-name="seveneighths" unicode="&#x215e;" horiz-adv-x="839" 
d="M510 700c18 0 30 -8 30 -22c0 -3 -1 -6 -2 -10l-251 -664c-8 -4 -15 -6 -31 -6s-26 5 -26 19c0 5 1 12 5 21l245 657c8 3 15 5 30 5zM128 285c-15 0 -23 6 -23 15c0 2 1 4 2 7l124 337h-220c-4 5 -7 13 -7 28c0 13 7 27 22 27h267c3 -6 4 -12 4 -19c0 -12 -7 -37 -17 -59
l-122 -331c-6 -4 -15 -5 -30 -5zM516 115c0 53 31 86 69 103c-31 18 -53 45 -53 92c0 66 45 105 128 105c87 0 133 -38 133 -106c0 -43 -25 -75 -57 -93c43 -17 74 -46 74 -103c0 -64 -42 -119 -147 -119c-102 0 -147 51 -147 121zM657 192c-8 0 -15 1 -21 1
c-36 -9 -65 -33 -65 -78c0 -40 30 -73 91 -73c66 0 94 30 94 71c0 47 -46 66 -99 79zM583 310c0 -54 47 -69 94 -79c1 0 2 -1 4 -1l4 2c34 11 58 38 58 76c0 40 -31 63 -79 63s-81 -24 -81 -61z" />
    <glyph glyph-name="space.frac" horiz-adv-x="240" 
 />
    <glyph glyph-name="zero.tosf" 
d="M46 278c0 196 104 284 245 284c145 0 238 -88 238 -284c0 -206 -100 -284 -241 -284c-142 0 -242 82 -242 284zM122 275c0 -158 69 -211 166 -211c99 0 165 52 165 211c0 153 -62 217 -162 217c-99 0 -169 -65 -169 -217z" />
    <glyph glyph-name="one.tosf" 
d="M477 0h-380c-4 10 -8 20 -8 34c0 23 5 38 46 38h133v378c-44 -40 -105 -57 -140 -57c-19 0 -32 12 -32 36c0 13 2 21 8 31c72 6 141 40 164 94c8 4 22 7 38 7c23 0 37 -10 37 -31v-458h157c4 -6 9 -15 9 -31c0 -24 -11 -41 -32 -41z" />
    <glyph glyph-name="two.tosf" 
d="M74 464c0 39 69 98 197 98c147 0 213 -63 213 -163c0 -153 -209 -279 -318 -336h341c4 -6 6 -17 6 -29c0 -14 -5 -34 -28 -34h-410c-4 10 -7 18 -7 39c0 20 5 33 23 48c107 66 316 181 316 305c0 68 -50 100 -138 100c-77 0 -145 -33 -166 -67c-18 8 -29 19 -29 39z" />
    <glyph glyph-name="three.tosf" 
d="M415 373c0 65 -50 119 -147 119c-80 0 -142 -37 -163 -84c-18 7 -30 17 -30 42c0 42 60 112 198 112c145 0 218 -82 218 -183c0 -74 -43 -137 -110 -154v-2c67 -12 129 -65 129 -163c0 -105 -68 -195 -237 -195c-165 0 -210 91 -210 137c0 28 11 40 34 47
c13 -50 59 -114 173 -114c117 0 165 59 165 131c0 75 -54 119 -136 119h-34c-14 0 -20 14 -20 32c0 17 2 24 6 32c109 0 164 51 164 124z" />
    <glyph glyph-name="four.tosf" 
d="M408 339c21 0 34 -9 34 -29v-243h95c4 -6 7 -17 7 -34c0 -21 -7 -33 -25 -33h-77v-137c-7 -4 -22 -6 -40 -6c-19 0 -33 7 -33 30v113h-327c-4 7 -6 16 -6 27c0 10 3 24 7 36l150 476c8 5 23 8 42 8c22 0 30 -15 24 -33l-139 -447h249v261c9 5 23 11 39 11z" />
    <glyph glyph-name="five.tosf" 
d="M466 486h-300l-10 -224c33 13 79 27 133 27c132 0 231 -58 231 -210c0 -116 -80 -215 -244 -215c-170 0 -218 94 -218 145c0 24 12 40 37 45c10 -52 59 -120 178 -120c117 0 171 62 171 149c0 99 -69 138 -176 138c-72 0 -118 -22 -156 -22c-17 0 -28 14 -27 36l11 313
c11 7 24 10 46 10h347c4 -6 9 -16 9 -33c0 -24 -11 -39 -32 -39z" />
    <glyph glyph-name="six.tosf" 
d="M56 333c0 220 81 358 256 358c112 0 181 -44 181 -84c0 -19 -9 -34 -22 -41c-21 16 -69 55 -157 55c-125 0 -176 -100 -183 -255c45 23 102 42 170 42c125 0 222 -49 222 -200c0 -110 -60 -214 -220 -214c-156 0 -247 97 -247 339zM294 344c-65 0 -124 -18 -163 -42
c4 -170 56 -238 171 -238c107 0 147 64 147 143c0 100 -63 137 -155 137z" />
    <glyph glyph-name="seven.tosf" 
d="M238 -130c-26 0 -34 15 -28 33l221 579h-369c-4 6 -9 16 -9 39c0 18 11 36 32 36h428c4 -7 5 -16 5 -27s-3 -28 -8 -43l-232 -610c-7 -4 -20 -7 -40 -7z" />
    <glyph glyph-name="eight.tosf" 
d="M57 189c0 95 58 148 118 174c-56 38 -92 79 -92 157c0 107 73 171 202 171c135 0 208 -61 208 -174c0 -76 -45 -131 -99 -161c76 -31 124 -81 124 -170c0 -107 -73 -192 -231 -192c-152 0 -230 81 -230 195zM248 331h-1c-62 -14 -118 -58 -118 -142
c0 -73 59 -128 157 -128c109 0 159 52 159 123c0 89 -90 117 -197 147zM153 523c0 -81 70 -115 170 -142c59 17 104 65 104 136s-52 113 -138 113c-82 0 -136 -43 -136 -107z" />
    <glyph glyph-name="nine.tosf" 
d="M520 204c0 -222 -81 -337 -249 -337c-126 0 -207 49 -207 87c0 20 9 30 21 39c21 -16 89 -56 174 -56c131 0 181 79 185 245c-46 -30 -101 -48 -180 -48c-108 0 -209 56 -209 196c0 133 66 232 226 232c158 0 239 -85 239 -358zM271 200c75 0 131 17 173 47
c-6 181 -51 245 -158 245c-112 0 -158 -65 -158 -157c0 -90 64 -135 143 -135z" />
    <glyph glyph-name="zero.pos" horiz-adv-x="592" 
d="M52 278c0 196 106 284 247 284c145 0 241 -88 241 -284c0 -206 -103 -284 -244 -284c-142 0 -244 82 -244 284zM128 275c0 -158 71 -211 168 -211c99 0 167 52 167 211c0 153 -64 217 -164 217c-99 0 -171 -65 -171 -217z" />
    <glyph glyph-name="one.pos" horiz-adv-x="479" 
d="M421 0h-349c-5 10 -9 20 -9 34c0 23 6 38 47 38h117v378c-43 -40 -105 -57 -139 -57c-20 0 -33 12 -33 36c0 13 2 21 8 31c72 6 141 40 164 94c8 4 23 7 38 7c23 0 38 -10 38 -31v-458h141c4 -6 10 -15 10 -31c0 -24 -11 -41 -33 -41z" />
    <glyph glyph-name="two.pos" horiz-adv-x="499" 
d="M32 464c0 39 70 98 198 98c146 0 213 -63 213 -163c0 -153 -210 -279 -319 -336h341c5 -6 7 -17 7 -29c0 -14 -5 -34 -29 -34h-409c-4 10 -7 18 -7 39c0 20 4 33 22 48c108 66 317 181 317 305c0 68 -50 100 -139 100c-77 0 -145 -33 -166 -67c-17 8 -29 19 -29 39z" />
    <glyph glyph-name="three.pos" horiz-adv-x="520" 
d="M380 373c0 65 -50 119 -147 119c-81 0 -142 -37 -163 -84c-19 7 -30 17 -30 42c0 42 60 112 198 112c144 0 218 -82 218 -183c0 -74 -44 -137 -110 -154v-2c67 -12 129 -65 129 -163c0 -105 -69 -195 -237 -195c-165 0 -211 91 -211 137c0 28 11 40 34 47
c14 -50 59 -114 174 -114c117 0 165 59 165 131c0 75 -54 119 -137 119h-34c-13 0 -20 14 -20 32c0 17 2 24 7 32c108 0 164 51 164 124z" />
    <glyph glyph-name="four.pos" horiz-adv-x="573" 
d="M405 338c22 0 35 -8 35 -29v-242h95c4 -7 7 -18 7 -35c0 -21 -8 -32 -26 -32h-76v-137c-8 -5 -23 -6 -41 -6s-32 7 -32 29v114h-327c-4 6 -7 16 -7 26s3 24 7 37l150 476c9 5 24 8 42 8c23 0 31 -15 25 -34l-140 -446h250v261c9 5 22 10 38 10z" />
    <glyph glyph-name="five.pos" horiz-adv-x="531" 
d="M444 485h-299l-10 -224c33 13 79 27 133 27c132 0 231 -58 231 -209c0 -117 -81 -215 -244 -215c-170 0 -218 93 -218 144c0 25 11 40 36 45c11 -52 60 -119 179 -119c116 0 171 62 171 148c0 99 -70 139 -176 139c-72 0 -119 -22 -156 -22c-17 0 -28 13 -27 35l11 313
c10 7 24 10 46 10h346c4 -6 10 -16 10 -32c0 -24 -11 -40 -33 -40z" />
    <glyph glyph-name="six.pos" horiz-adv-x="556" 
d="M52 333c0 220 81 358 257 358c111 0 180 -44 180 -84c0 -19 -9 -34 -22 -41c-21 16 -69 55 -157 55c-125 0 -176 -100 -182 -255c44 23 102 42 170 42c124 0 222 -49 222 -200c0 -110 -61 -214 -221 -214c-155 0 -247 97 -247 339zM290 344c-64 0 -124 -18 -163 -42
c4 -170 56 -238 171 -238c107 0 147 64 147 143c0 100 -63 137 -155 137z" />
    <glyph glyph-name="seven.pos" horiz-adv-x="477" 
d="M189 -132c-27 0 -35 15 -29 33l212 581h-364c-4 6 -8 16 -8 39c0 18 11 36 32 36h423c3 -7 5 -16 5 -27s-3 -28 -8 -43l-224 -612c-8 -4 -20 -7 -39 -7z" />
    <glyph glyph-name="eight.pos" horiz-adv-x="544" 
d="M41 189c0 95 57 148 118 174c-56 38 -92 79 -92 157c0 107 72 171 201 171c136 0 208 -61 208 -174c0 -76 -45 -131 -99 -161c76 -31 125 -81 125 -170c0 -107 -73 -192 -232 -192c-151 0 -229 81 -229 195zM232 331h-2c-62 -14 -118 -58 -118 -142
c0 -73 59 -128 158 -128c108 0 159 52 159 123c0 89 -91 117 -197 147zM137 523c0 -81 69 -115 169 -142c59 17 104 65 104 136s-52 113 -137 113c-82 0 -136 -43 -136 -107z" />
    <glyph glyph-name="nine.pos" horiz-adv-x="550" 
d="M498 204c0 -222 -81 -337 -248 -337c-127 0 -207 49 -207 87c0 20 9 30 20 39c21 -16 90 -56 175 -56c131 0 181 79 185 245c-47 -30 -101 -48 -181 -48c-107 0 -208 56 -208 196c0 133 66 232 226 232c158 0 238 -85 238 -358zM249 200c75 0 132 17 173 47
c-5 181 -50 245 -157 245c-113 0 -158 -65 -158 -157c0 -90 63 -135 142 -135z" />
    <glyph glyph-name="zero.lf" horiz-adv-x="592" 
d="M52 342c0 240 105 349 247 349c145 0 241 -109 241 -349c0 -253 -102 -348 -244 -348s-244 99 -244 348zM128 340c0 -203 72 -276 168 -276c99 0 167 72 167 276c0 192 -66 281 -164 281c-97 0 -171 -90 -171 -281z" />
    <glyph glyph-name="one.lf" horiz-adv-x="479" 
d="M422 0h-350c-4 10 -8 20 -8 34c0 23 5 38 46 38h117v508c-43 -41 -104 -57 -139 -57c-20 0 -33 12 -33 35c0 13 2 22 9 31c72 7 140 41 163 95c9 4 23 7 38 7c23 0 38 -11 38 -31v-588h142c4 -6 9 -15 9 -31c0 -24 -11 -41 -32 -41z" />
    <glyph glyph-name="two.lf" horiz-adv-x="527" 
d="M31 576c0 41 74 115 208 115c147 0 229 -76 229 -197c0 -189 -223 -353 -334 -420v-6l358 4c6 -8 8 -21 8 -37c0 -24 -9 -35 -31 -35h-435c-4 11 -7 19 -7 41c0 20 4 37 22 51c116 82 342 235 342 397c0 86 -62 132 -153 132c-80 0 -156 -44 -175 -91
c-19 8 -32 20 -32 46z" />
    <glyph glyph-name="three.lf" horiz-adv-x="520" 
d="M383 501c0 65 -50 120 -147 120c-80 0 -142 -38 -163 -85c-18 7 -30 18 -30 43c0 41 60 112 198 112c145 0 218 -82 218 -184c0 -73 -43 -136 -110 -154v-2c67 -12 129 -65 129 -163c0 -104 -68 -194 -237 -194c-165 0 -210 90 -210 137c0 28 11 40 34 46
c13 -50 59 -113 173 -113c117 0 165 59 165 131c0 74 -54 118 -136 118h-34c-14 0 -20 15 -20 33c0 16 2 24 6 32c109 0 164 50 164 123z" />
    <glyph glyph-name="four.lf" horiz-adv-x="573" 
d="M405 482c22 0 35 -8 35 -29v-243h95c4 -6 7 -17 7 -34c0 -21 -8 -33 -26 -33h-76v-137c-8 -4 -23 -6 -41 -6s-32 8 -32 30v113h-327c-4 7 -7 16 -7 27c0 10 3 24 7 36l150 477c9 4 24 7 42 7c23 0 31 -15 25 -33l-140 -447h250v261c9 6 22 11 38 11z" />
    <glyph glyph-name="five.lf" horiz-adv-x="531" 
d="M444 615h-299l-10 -224c33 13 79 27 133 27c132 0 231 -58 231 -209c0 -117 -81 -215 -244 -215c-170 0 -218 93 -218 144c0 25 11 40 36 45c11 -52 60 -119 179 -119c116 0 171 62 171 148c0 99 -70 139 -176 139c-72 0 -119 -22 -156 -22c-17 0 -28 13 -27 35l11 313
c10 7 24 10 46 10h346c4 -6 10 -16 10 -32c0 -24 -11 -40 -33 -40z" />
    <glyph glyph-name="six.lf" horiz-adv-x="556" 
d="M44 333c0 220 81 358 257 358c112 0 181 -44 181 -84c0 -19 -10 -34 -22 -41c-22 16 -70 55 -157 55c-125 0 -177 -100 -183 -255c44 23 102 42 170 42c124 0 222 -49 222 -200c0 -110 -60 -214 -220 -214c-156 0 -248 97 -248 339zM283 344c-65 0 -125 -18 -164 -42
c4 -170 56 -238 171 -238c107 0 148 64 148 143c0 100 -64 137 -155 137z" />
    <glyph glyph-name="seven.lf" horiz-adv-x="477" 
d="M190 0c-26 0 -34 15 -28 33l221 579h-369c-4 6 -9 16 -9 39c0 18 11 36 32 36h428c4 -7 5 -16 5 -27s-3 -28 -8 -43l-232 -610c-7 -4 -20 -7 -40 -7z" />
    <glyph glyph-name="eight.lf" horiz-adv-x="544" 
d="M41 189c0 95 57 148 118 174c-56 38 -92 79 -92 157c0 107 72 171 201 171c136 0 208 -61 208 -174c0 -76 -45 -131 -99 -161c76 -31 125 -81 125 -170c0 -107 -73 -192 -232 -192c-151 0 -229 81 -229 195zM232 331h-2c-62 -14 -118 -58 -118 -142
c0 -73 59 -128 158 -128c108 0 159 52 159 123c0 89 -91 117 -197 147zM137 523c0 -81 69 -115 169 -142c59 17 104 65 104 136s-52 113 -137 113c-82 0 -136 -43 -136 -107z" />
    <glyph glyph-name="nine.lf" horiz-adv-x="550" 
d="M506 333c0 -222 -81 -337 -248 -337c-127 0 -207 49 -207 86c0 20 8 30 20 39c21 -16 89 -55 175 -55c130 0 180 78 185 244c-47 -30 -102 -48 -181 -48c-107 0 -209 56 -209 196c0 134 67 233 226 233c158 0 239 -85 239 -358zM257 328c75 0 132 18 173 48
c-6 181 -51 245 -158 245c-112 0 -157 -65 -157 -157c0 -91 63 -136 142 -136z" />
    <glyph glyph-name="cent.tf" 
d="M488 425c0 -12 -6 -27 -18 -40c-36 17 -59 27 -110 29l-2 -353c56 4 105 23 124 37c8 -6 13 -18 13 -32c0 -19 -11 -36 -30 -46c-19 -11 -53 -25 -109 -28l-1 -76c-5 -5 -15 -8 -30 -8s-26 5 -26 27v57c-123 14 -199 105 -199 247c0 174 102 243 205 251l1 80
c7 4 15 7 27 6c17 0 29 -7 29 -26l-1 -61c56 -3 81 -16 104 -29c17 -9 23 -20 23 -35zM167 239c0 -100 52 -163 134 -175l2 350c-74 -7 -136 -56 -136 -175z" />
    <glyph glyph-name="dollar.tf" 
d="M301 815c17 0 27 -8 27 -27l-1 -80c86 -5 138 -35 164 -60c10 -10 16 -25 16 -38c0 -15 -12 -28 -23 -37c-26 23 -78 49 -158 54l-1 -241c143 -41 208 -91 209 -204c1 -108 -68 -181 -212 -191v-100c-6 -5 -13 -7 -29 -7c-17 0 -29 6 -29 33v73c-77 3 -138 22 -177 47
c-29 18 -44 38 -44 59c0 19 7 32 14 39c45 -41 125 -65 209 -68v256c-151 45 -206 94 -206 202c0 98 62 176 209 183v98c8 5 19 9 32 9zM459 180c0 59 -34 93 -135 128v-240c97 9 135 54 135 112zM135 524c0 -56 35 -86 132 -121v223c-98 -5 -132 -50 -132 -102z" />
    <glyph glyph-name="Euro.tf" 
d="M378 249h-200c24 -133 89 -181 196 -181c85 0 147 40 171 84c2 0 11 1 14 1c17 0 37 -8 37 -30c0 -35 -63 -126 -222 -126c-150 0 -247 71 -275 252h-86c-5 8 -8 14 -8 30c0 32 25 33 63 33h24c-1 11 -1 23 -1 36s1 26 1 39h-79c-6 10 -8 15 -8 28c0 22 5 35 44 35h50
c29 174 127 256 275 256c122 0 200 -44 200 -88c0 -19 -16 -34 -34 -39c-42 37 -92 54 -164 54c-107 0 -173 -60 -198 -183h277c5 -4 7 -9 7 -25c0 -18 -7 -38 -51 -38h-243c-1 -13 -1 -26 -1 -39s0 -25 1 -36h254c5 -4 8 -9 8 -25c0 -17 -7 -38 -52 -38z" />
    <glyph glyph-name="florin.tf" 
d="M415 332h-119l-54 -386c-14 -100 -66 -134 -157 -134c-64 0 -81 16 -81 38c0 13 3 24 7 32h82c39 0 65 15 74 78l52 372h-113c-5 10 -9 15 -9 36c0 20 8 35 43 35h89l23 166c14 96 66 131 159 131c68 0 88 -19 88 -37c0 -15 -2 -25 -6 -35h-85c-45 0 -72 -16 -80 -72
l-22 -153h149c4 -4 7 -13 7 -32c0 -23 -11 -39 -47 -39z" />
    <glyph glyph-name="sterling.tf" 
d="M542 0h-510c-4 10 -8 19 -8 36c0 20 7 35 26 37c37 3 61 52 70 211h-66c-4 10 -9 16 -9 33c0 24 6 41 42 41h36v41c0 159 57 298 226 298c118 0 183 -30 183 -66c0 -18 -8 -34 -21 -41c-26 16 -66 35 -158 35c-131 0 -155 -112 -155 -227c0 -14 0 -28 -1 -40h256
c5 -5 8 -12 8 -30c0 -19 -9 -44 -53 -44h-214c-4 -103 -18 -175 -45 -211h417c4 -5 8 -15 8 -32c0 -24 -10 -41 -32 -41z" />
    <glyph glyph-name="yen.tf" 
d="M333 233v-38h168c5 -4 8 -11 8 -25c0 -17 -8 -38 -52 -38h-124v-123c-7 -5 -22 -9 -43 -9s-34 8 -34 29v103h-162c-4 8 -9 13 -9 28c0 20 6 35 41 35h130v35l-17 23h-145c-4 9 -9 14 -9 30c0 19 6 32 41 32h76c-73 117 -131 247 -169 373c11 7 23 12 40 12
c21 0 32 -6 38 -26c41 -132 101 -267 186 -391c82 123 170 322 186 412c9 4 19 5 34 5c16 0 26 -12 26 -27c-2 -67 -84 -239 -157 -358h115c5 -4 8 -9 8 -25s-13 -37 -57 -37h-105z" />
    <glyph glyph-name="zero.lf.slash" horiz-adv-x="592" 
d="M236 341c0 42 19 63 61 63c40 0 61 -21 61 -63c0 -41 -21 -60 -61 -60c-41 0 -61 20 -61 60zM52 342c0 240 105 349 247 349c145 0 241 -109 241 -349c0 -253 -102 -348 -244 -348s-244 99 -244 348zM128 340c0 -203 72 -277 168 -277c99 0 167 73 167 277
c0 192 -66 280 -164 280c-97 0 -171 -89 -171 -280z" />
    <glyph glyph-name="zero.slash" 
d="M230 341c0 42 16 63 58 63c40 0 59 -21 59 -63c0 -41 -19 -60 -59 -60c-41 0 -58 20 -58 60zM49 342c0 240 100 349 242 349c145 0 236 -109 236 -349c0 -253 -97 -348 -239 -348s-239 99 -239 348zM125 340c0 -203 67 -276 163 -276c99 0 162 72 162 276
c0 192 -61 281 -159 281c-97 0 -166 -90 -166 -281z" />
    <glyph glyph-name="zero.pos.slash" horiz-adv-x="592" 
d="M236 273c0 43 20 63 61 63c40 0 61 -20 61 -63c0 -40 -21 -60 -61 -60c-41 0 -61 20 -61 60zM52 278c0 196 105 284 247 284c145 0 241 -88 241 -284c0 -206 -102 -284 -244 -284s-244 82 -244 284zM128 275c0 -158 72 -213 168 -213c99 0 167 54 167 213
c0 153 -66 217 -164 217c-97 0 -171 -65 -171 -217z" />
    <glyph glyph-name="zero.tosf.slash" 
d="M231 273c0 43 17 63 58 63c40 0 59 -20 59 -63c0 -40 -19 -60 -59 -60c-41 0 -58 20 -58 60zM46 278c0 196 104 284 245 284c145 0 238 -88 238 -284c0 -206 -100 -284 -241 -284c-142 0 -242 82 -242 284zM122 275c0 -158 69 -211 166 -211c99 0 165 52 165 211
c0 153 -62 217 -162 217c-99 0 -169 -65 -169 -217z" />
    <glyph glyph-name="fi" unicode="&#xfb01;" horiz-adv-x="601" 
d="M181 560v-78h122c4 -6 6 -16 6 -27c0 -17 -6 -38 -33 -38h-95v-392c0 -20 -18 -25 -43 -25c-12 0 -26 3 -32 9v408h-60c-4 7 -7 17 -7 28c0 21 9 37 35 37h32v83c0 95 39 141 127 141c82 0 96 -16 96 -40c0 -13 -4 -23 -9 -29h-72c-43 0 -67 -16 -67 -77zM432 482
c43 0 71 -16 71 -78v-317c0 -19 10 -25 23 -25h30c3 -6 5 -13 5 -25c0 -23 -19 -37 -68 -37c-41 0 -65 17 -65 68v315c0 22 -11 28 -26 28h-28c-4 7 -6 17 -6 30c0 29 27 41 64 41zM407 619c0 33 16 49 48 49s50 -16 50 -49s-18 -48 -50 -48s-48 16 -48 48z" />
    <glyph glyph-name="fl" unicode="&#xfb02;" horiz-adv-x="613" 
d="M181 560v-78h122c4 -6 6 -16 6 -27c0 -17 -6 -38 -33 -38h-95v-392c0 -20 -18 -25 -43 -25c-12 0 -26 3 -32 9v408h-60c-4 7 -7 17 -7 28c0 21 9 37 35 37h32v83c0 95 39 141 127 141c82 0 96 -16 96 -40c0 -13 -4 -23 -9 -29h-72c-43 0 -67 -16 -67 -77zM484 667v-526
c0 -60 19 -76 68 -76h45c1 -7 3 -12 3 -22c0 -25 -16 -43 -74 -43c-81 0 -117 36 -117 123v567c9 7 17 10 37 10c29 0 38 -14 38 -33z" />
    </font>
</defs>
</svg>
