<?xml version="1.0" standalone="no"?>
<!DOCTYPE svg PUBLIC "-//W3C//DTD SVG 1.1//EN" "http://www.w3.org/Graphics/SVG/1.1/DTD/svg11.dtd" >
<svg>
<metadata>
Created by FontForge 20090914 at Fri Oct 28 23:31:10 2011
 By www-data
Copyright (c) 2010 by Stereotypes.de. All rights reserved.
</metadata>
<defs>
<font id="KelloggsSans-Bold" horiz-adv-x="580" >
  <font-face 
    font-family="Kelloggs Sans"
    font-weight="700"
    font-stretch="normal"
    units-per-em="1000"
    panose-1="2 0 5 3 2 0 0 2 0 3"
    ascent="714"
    descent="-286"
    x-height="500"
    cap-height="700"
    bbox="-82.0646 -333 1242 944"
    underline-thickness="50"
    underline-position="-75"
    stemh="88"
    stemv="97"
    unicode-range="U+000D-U+FB02"
  />
<missing-glyph horiz-adv-x="786" 
d="M80 0v700h626v-700h-626zM116 666v-632h557v632h-557zM228 322c0 89 73 162 162 162s162 -73 162 -162s-73 -162 -162 -162s-162 73 -162 162z" />
    <glyph glyph-name=".notdef" horiz-adv-x="786" 
d="M80 0v700h626v-700h-626zM116 666v-632h557v632h-557zM228 322c0 89 73 162 162 162s162 -73 162 -162s-73 -162 -162 -162s-162 73 -162 162z" />
    <glyph glyph-name=".null" horiz-adv-x="0" 
 />
    <glyph glyph-name=".null" horiz-adv-x="0" 
 />
    <glyph glyph-name="CR" unicode="&#xd;" horiz-adv-x="0" 
 />
    <glyph glyph-name="space" unicode=" " horiz-adv-x="190" 
 />
    <glyph glyph-name="exclam" unicode="!" horiz-adv-x="248" 
d="M119 700c37 0 79 -12 79 -51v-436c-9 -9 -42 -18 -75 -18c-43 0 -73 21 -73 80v412c13 8 32 13 69 13zM53 72c0 48 22 72 72 72c48 0 72 -24 72 -72c0 -49 -24 -72 -72 -72c-49 0 -72 24 -72 72z" />
    <glyph glyph-name="quotedbl" unicode="&#x22;" horiz-adv-x="396" 
d="M220 463v195c0 33 20 43 58 43c48 0 68 -18 68 -69c0 -140 -27 -187 -68 -187c-29 0 -44 7 -58 18zM50 463v195c0 33 20 43 58 43c48 0 68 -18 68 -69c0 -140 -27 -187 -68 -187c-29 0 -44 7 -58 18z" />
    <glyph glyph-name="numbersign" unicode="#" horiz-adv-x="777" 
d="M690 385h-77l-23 -129h117c7 -10 14 -26 14 -52c0 -31 -11 -86 -72 -86h-83l-25 -142c-11 -9 -36 -16 -70 -16c-31 0 -80 9 -69 68l16 90h-132l-25 -142c-11 -9 -36 -16 -70 -16c-31 0 -80 9 -69 68l16 90h-107c-9 19 -16 37 -16 63c0 43 7 75 74 75h73l22 129h-112
c-9 19 -16 37 -16 63c0 43 7 75 74 75h79l31 177c15 8 30 13 67 13s82 -12 75 -51l-25 -139h132l31 177c15 8 30 13 67 13s82 -12 75 -51l-25 -139h111c7 -10 14 -26 14 -52c0 -31 -11 -86 -72 -86zM333 385l-23 -129h132l22 129h-131z" />
    <glyph glyph-name="dollar" unicode="$" horiz-adv-x="571" 
d="M301 823c28 0 43 -10 42 -39l-2 -77c75 -7 111 -29 137 -54c19 -19 26 -43 26 -65c0 -27 -13 -49 -27 -70c-32 16 -77 31 -138 36l-3 -148c134 -32 197 -77 197 -201c0 -116 -60 -199 -204 -213l-1 -114c-10 -6 -22 -9 -49 -9c-31 0 -50 10 -50 59v64
c-76 5 -127 22 -159 47c-28 21 -36 44 -36 74c0 28 10 57 19 72c46 -24 110 -41 179 -47l2 142c-136 30 -193 88 -193 217c0 116 71 196 201 210l2 103c13 8 34 13 57 13zM384 197c0 25 -9 44 -50 59l-2 -115c40 11 52 36 52 56zM189 495c0 -22 10 -43 48 -61l2 116
c-32 -8 -50 -26 -50 -55z" />
    <glyph glyph-name="percent" unicode="%" horiz-adv-x="902" 
d="M579 700c43 0 63 -19 49 -56l-244 -635c-12 -6 -16 -11 -49 -11c-42 0 -64 18 -43 74l233 621c16 5 27 7 54 7zM538 203c0 152 78 211 169 211c96 0 174 -59 174 -211c0 -150 -77 -207 -171 -207c-95 0 -172 60 -172 207zM639 200c0 -92 41 -124 71 -124
c38 0 68 29 68 124c0 98 -36 130 -71 130c-31 0 -68 -32 -68 -130zM28 490c0 152 78 211 169 211c96 0 174 -59 174 -211c0 -150 -77 -207 -171 -207c-95 0 -172 60 -172 207zM129 487c0 -92 41 -124 71 -124c38 0 68 29 68 124c0 98 -36 130 -71 130
c-31 0 -68 -32 -68 -130z" />
    <glyph glyph-name="ampersand" unicode="&#x26;" horiz-adv-x="782" 
d="M686 321h-68c-12 -58 -31 -114 -59 -162c21 -5 44 -8 78 -8h95c10 -16 15 -34 15 -64c0 -60 -39 -87 -108 -87c-63 0 -124 16 -179 44c-48 -34 -106 -54 -176 -54c-147 0 -231 101 -231 224c0 132 73 190 137 217c-2 12 -3 25 -3 38c0 159 79 231 227 231
c120 0 164 -31 164 -82c0 -28 -6 -46 -14 -58h-133c-63 0 -92 -35 -92 -104c0 -99 44 -191 117 -247c26 32 47 71 60 112h-92c-9 19 -13 37 -13 60c0 44 17 71 63 71h241c7 -10 16 -35 16 -64c0 -45 -16 -67 -45 -67zM344 128c-56 54 -100 121 -127 192
c-21 -25 -32 -56 -32 -94c0 -62 40 -106 108 -106c17 0 35 2 51 8z" />
    <glyph glyph-name="quotesingle" unicode="'" horiz-adv-x="226" 
d="M50 463v195c0 33 20 43 58 43c48 0 68 -18 68 -69c0 -140 -27 -187 -68 -187c-29 0 -44 7 -58 18z" />
    <glyph glyph-name="parenleft" unicode="(" horiz-adv-x="312" 
d="M29 313c0 272 99 399 190 399c39 0 74 -21 82 -63c-55 -49 -126 -124 -126 -335c0 -202 61 -288 133 -351c-11 -40 -39 -63 -83 -63c-98 0 -196 148 -196 413z" />
    <glyph glyph-name="parenright" unicode=")" horiz-adv-x="312" 
d="M283 299c0 -272 -99 -399 -190 -399c-39 0 -74 21 -82 63c55 49 126 124 126 335c0 202 -61 288 -133 351c11 40 39 63 83 63c98 0 196 -148 196 -413z" />
    <glyph glyph-name="asterisk" unicode="*" horiz-adv-x="499" 
d="M382 431l-35 8l54 -63c-6 -12 -15 -31 -46 -51c-21 -14 -83 -33 -99 26l-11 41l-34 -85c-21 2 -36 3 -59 16c-37 21 -75 51 -28 98l23 23l-83 -13c-11 18 -19 37 -19 63c0 43 9 90 74 75l31 -7l-57 65c12 17 27 34 49 47c37 22 84 38 102 -26l10 -37l29 85
c12 2 32 2 67 -18c19 -11 68 -55 26 -98l-24 -25l84 14c7 -10 18 -26 18 -66c0 -26 -13 -85 -72 -72z" />
    <glyph glyph-name="plus" unicode="+" horiz-adv-x="499" 
d="M320 413v-80h120c7 -10 14 -36 14 -69c0 -37 -11 -69 -56 -69h-78v-123c-19 -9 -44 -13 -70 -13c-43 0 -68 14 -68 74v62h-124c-9 19 -13 37 -13 71c0 30 12 67 46 67h91v121c10 7 41 14 72 14c33 0 66 -11 66 -55z" />
    <glyph glyph-name="comma" unicode="," horiz-adv-x="229" 
d="M108 0c-49 0 -68 24 -68 72s22 72 72 72c48 0 77 -26 77 -102c0 -115 -36 -162 -77 -162c-29 0 -40 8 -43 28c26 14 39 74 39 92z" />
    <glyph glyph-name="hyphen" unicode="-" horiz-adv-x="420" 
d="M302 195h-240c-9 19 -16 37 -16 68c0 40 16 70 67 70h246c8 -12 14 -34 14 -65c0 -42 -15 -73 -71 -73z" />
    <glyph glyph-name="period" unicode="." horiz-adv-x="224" 
d="M40 72c0 48 22 72 72 72c48 0 72 -24 72 -72c0 -49 -24 -72 -72 -72c-49 0 -72 24 -72 72z" />
    <glyph glyph-name="slash" unicode="/" horiz-adv-x="307" 
d="M209 713c37 0 81 -12 75 -51l-121 -686c-11 -9 -36 -16 -70 -16c-31 0 -80 9 -69 68l118 672c15 8 30 13 67 13z" />
    <glyph glyph-name="zero" unicode="0" 
d="M49 339c0 251 99 351 239 351c147 0 244 -100 244 -351s-97 -346 -240 -346c-146 0 -243 100 -243 346zM198 334c0 -159 41 -211 94 -211c62 0 91 47 91 211c0 167 -37 226 -95 226c-53 0 -90 -59 -90 -226z" />
    <glyph glyph-name="one" unicode="1" 
d="M484 0h-408c-9 19 -16 37 -16 63c0 43 7 75 74 75h98v351c-38 -27 -71 -36 -104 -36c-37 0 -62 22 -62 68c0 28 5 43 15 61c66 5 134 44 151 96c15 6 46 12 74 12c44 0 70 -18 70 -52v-500h137c7 -10 16 -30 16 -59c0 -45 -16 -79 -45 -79z" />
    <glyph glyph-name="two" unicode="2" 
d="M56 569c0 59 75 121 217 121c167 0 238 -88 238 -205c0 -135 -141 -267 -274 -349v-7l283 7c6 -11 11 -41 11 -71c0 -45 -11 -65 -46 -65h-422c-7 18 -13 33 -13 76s8 74 45 104c98 79 267 203 267 300c0 50 -34 80 -99 80c-62 0 -133 -38 -164 -79c-24 18 -43 48 -43 88
z" />
    <glyph glyph-name="three" unicode="3" 
d="M348 491c0 35 -24 69 -90 69c-58 0 -113 -24 -154 -73c-23 18 -39 42 -39 82c0 59 69 121 206 121c162 0 225 -88 225 -191c0 -72 -39 -122 -102 -144v-3c62 -12 117 -70 117 -162c0 -98 -66 -197 -236 -197c-163 0 -219 71 -219 126c0 42 14 64 46 83
c34 -38 87 -79 166 -79c63 0 99 36 99 80c0 49 -24 81 -89 81h-37c-21 0 -33 25 -33 59c0 29 3 41 11 55c66 1 129 29 129 93z" />
    <glyph glyph-name="four" unicode="4" 
d="M401 500c38 0 66 -12 66 -51v-197h92c7 -10 14 -30 14 -64c0 -40 -16 -59 -45 -59h-61v-118c-14 -7 -41 -11 -75 -11c-35 0 -61 16 -61 51v78h-284c-8 11 -11 28 -11 46c0 17 6 43 13 67l131 434c16 8 43 14 82 14c36 0 55 -24 46 -54l-110 -384h133v229
c16 10 40 19 70 19z" />
    <glyph glyph-name="five" unicode="5" 
d="M474 545h-251l-8 -127c25 7 55 12 93 12c115 0 225 -54 225 -216c0 -123 -88 -221 -247 -221c-169 0 -230 65 -230 121c0 33 19 61 53 82c28 -33 84 -73 172 -73c66 0 103 29 103 96c0 66 -46 92 -130 92c-46 0 -78 -7 -132 -7c-27 0 -43 24 -41 63l14 299
c20 12 43 17 86 17h322c7 -10 16 -30 16 -59c0 -45 -16 -79 -45 -79z" />
    <glyph glyph-name="six" unicode="6" 
d="M49 360c0 217 111 330 280 330c93 0 177 -22 177 -85c0 -33 -16 -66 -37 -76c-32 14 -82 31 -136 31c-95 0 -132 -52 -140 -164c39 17 81 28 125 28c128 0 222 -47 222 -202c0 -115 -61 -229 -236 -229c-143 0 -255 81 -255 367zM301 313c-43 0 -80 -11 -108 -25
c7 -122 38 -165 108 -165c62 0 98 33 98 94c0 73 -35 96 -98 96z" />
    <glyph glyph-name="seven" unicode="7" 
d="M215 0c-46 0 -63 23 -53 53l202 488h-318c-7 10 -16 30 -16 71c0 33 16 71 45 71h445c8 -14 10 -32 10 -52c0 -19 -4 -48 -14 -77l-221 -542c-14 -7 -40 -12 -80 -12z" />
    <glyph glyph-name="eight" unicode="8" 
d="M47 203c0 76 49 125 97 158c-54 43 -71 94 -71 145c0 119 71 184 211 184c143 0 218 -58 218 -184c0 -64 -39 -103 -72 -133c81 -45 102 -97 102 -173c0 -105 -71 -207 -236 -207c-172 0 -249 87 -249 210zM252 304l-6 2c-34 -19 -63 -55 -63 -101c0 -51 47 -92 111 -92
s95 37 95 82c0 42 -19 66 -137 109zM208 518c0 -47 39 -73 117 -102c24 17 56 43 56 87c0 52 -43 75 -90 75c-50 0 -83 -25 -83 -60z" />
    <glyph glyph-name="nine" unicode="9" 
d="M531 333c0 -240 -111 -340 -258 -340c-132 0 -210 42 -210 99c0 35 14 58 31 73c32 -14 99 -42 149 -42c97 0 135 49 143 162c-39 -22 -81 -34 -128 -34c-103 0 -214 53 -214 199c0 138 67 240 232 240c146 0 255 -67 255 -357zM274 372c50 0 85 9 112 25
c-7 118 -40 163 -99 163c-65 0 -106 -28 -106 -96c0 -66 40 -92 93 -92z" />
    <glyph glyph-name="colon" unicode=":" horiz-adv-x="224" 
d="M40 72c0 48 22 72 72 72c48 0 72 -24 72 -72c0 -49 -24 -72 -72 -72c-49 0 -72 24 -72 72zM40 427c0 48 22 72 72 72c48 0 72 -24 72 -72c0 -49 -24 -72 -72 -72c-49 0 -72 24 -72 72z" />
    <glyph glyph-name="semicolon" unicode=";" horiz-adv-x="229" 
d="M108 0c-49 0 -68 24 -68 72s22 72 72 72c48 0 77 -26 77 -102c0 -115 -36 -162 -77 -162c-29 0 -40 8 -43 28c26 14 39 74 39 92zM40 427c0 48 22 72 72 72c48 0 72 -24 72 -72c0 -49 -24 -72 -72 -72c-49 0 -72 24 -72 72z" />
    <glyph glyph-name="less" unicode="&#x3c;" horiz-adv-x="499" 
d="M141 334l154 139c26 24 43 26 56 26c28 0 51 -30 65 -71l-195 -177l187 -176c-14 -42 -45 -73 -73 -73c-19 0 -35 9 -53 27l-155 147c-21 21 -34 44 -34 74c0 36 15 54 48 84z" />
    <glyph glyph-name="equal" unicode="=" horiz-adv-x="499" 
d="M388 71h-327c-9 19 -16 37 -16 73c0 34 16 65 57 65h338c9 -17 14 -42 14 -68c0 -31 -11 -70 -66 -70zM388 287h-327c-9 19 -16 37 -16 73c0 34 16 65 57 65h338c9 -17 14 -42 14 -68c0 -31 -11 -70 -66 -70z" />
    <glyph glyph-name="greater" unicode="&#x3e;" horiz-adv-x="499" 
d="M358 167l-154 -139c-26 -24 -43 -26 -56 -26c-28 0 -51 30 -65 71l195 177l-187 176c14 42 45 73 73 73c19 0 35 -9 53 -27l155 -147c21 -21 34 -44 34 -74c0 -36 -15 -54 -48 -84z" />
    <glyph glyph-name="question" unicode="?" horiz-adv-x="498" 
d="M316 482c0 38 -27 69 -87 69c-58 0 -115 -37 -154 -70c-23 18 -42 48 -42 88c0 59 69 131 206 131c162 0 225 -93 225 -196c0 -98 -49 -187 -190 -205l9 -98c-10 -13 -30 -19 -67 -19s-60 22 -62 52l-6 96c-1 21 4 41 14 54c52 2 154 20 154 98zM154 72c0 48 22 72 72 72
c48 0 72 -24 72 -72c0 -49 -24 -72 -72 -72c-49 0 -72 24 -72 72z" />
    <glyph glyph-name="at" unicode="@" horiz-adv-x="848" 
d="M632 97c-59 0 -111 19 -137 60c-22 -36 -61 -55 -105 -55c-73 0 -164 56 -164 205c0 144 73 209 156 209c54 0 83 -31 95 -48v7c0 20 21 32 43 32c21 0 50 -4 68 -14v-221c0 -51 21 -77 50 -77c45 0 61 40 61 145c0 150 -107 256 -275 256c-161 0 -275 -126 -275 -279
c0 -183 107 -289 286 -289c108 0 150 15 191 29c16 -10 28 -25 28 -50c0 -27 -13 -44 -40 -58c-25 -13 -78 -33 -180 -33c-250 0 -409 154 -409 402c0 228 165 392 399 392c239 0 399 -148 399 -373c0 -167 -83 -240 -191 -240zM419 205c24 0 45 17 58 33v126
c-12 22 -34 48 -68 48c-35 0 -64 -36 -64 -104c0 -71 29 -103 74 -103z" />
    <glyph glyph-name="A" unicode="A" horiz-adv-x="640" 
d="M77 0c-38 0 -58 6 -72 20l233 657c21 12 40 23 87 23c43 0 66 -20 77 -49l233 -620c-15 -26 -48 -31 -75 -31c-40 0 -69 16 -86 61l-27 73h-258l-28 -85c-12 -37 -35 -49 -84 -49zM312 510l-81 -253h170z" />
    <glyph glyph-name="B" unicode="B" horiz-adv-x="651" 
d="M154 700h167c148 0 257 -48 257 -185c0 -72 -31 -114 -65 -141c57 -31 103 -77 103 -168c0 -138 -103 -206 -259 -206h-204c-38 0 -73 8 -73 67v622c13 8 37 11 74 11zM350 292h-122v-163h121c72 0 115 19 115 85s-49 78 -114 78zM334 569h-106v-151h102
c62 0 99 21 99 80c0 57 -45 71 -95 71z" />
    <glyph glyph-name="C" unicode="C" horiz-adv-x="611" 
d="M534 184c24 0 57 -18 57 -61c0 -36 -15 -57 -51 -82c-25 -17 -86 -51 -192 -51c-172 0 -308 106 -308 359c0 257 132 361 301 361c109 0 163 -25 197 -51c32 -24 40 -51 40 -77c0 -32 -18 -59 -41 -73c-40 31 -97 64 -189 64c-83 0 -156 -55 -156 -228
c0 -169 75 -218 164 -218c72 0 138 24 178 57z" />
    <glyph glyph-name="D" unicode="D" horiz-adv-x="678" 
d="M154 700h141c209 0 343 -98 343 -360c0 -244 -137 -340 -330 -340h-155c-38 0 -73 8 -73 67v621c13 7 37 12 74 12zM294 565h-66v-430h75c118 0 183 58 183 202c0 170 -79 228 -192 228z" />
    <glyph glyph-name="E" unicode="E" horiz-adv-x="573" 
d="M443 287h-215v-152h289c7 -10 16 -28 16 -57c0 -45 -16 -78 -45 -78h-345c-31 0 -63 8 -63 67v620c13 8 32 13 69 13h368c7 -10 16 -30 16 -59c0 -45 -16 -76 -45 -76h-260v-143h240c7 -10 16 -36 16 -65c0 -45 -16 -70 -41 -70z" />
    <glyph glyph-name="F" unicode="F" horiz-adv-x="551" 
d="M443 278h-215v-263c-9 -9 -51 -15 -85 -15c-31 0 -63 8 -63 67v620c13 8 32 13 69 13h356c7 -10 16 -30 16 -59c0 -45 -16 -76 -45 -76h-248v-152h244c7 -10 16 -29 16 -58c0 -45 -16 -77 -45 -77z" />
    <glyph glyph-name="G" unicode="G" horiz-adv-x="693" 
d="M512 264h-160c-9 15 -15 32 -15 59c0 31 7 66 74 66h133c75 0 99 -28 99 -108v-268c-16 -10 -37 -13 -71 -13c-31 0 -60 8 -60 55v19c-43 -52 -97 -84 -175 -84c-153 0 -297 106 -297 359c0 257 143 361 331 361c176 0 225 -73 225 -122c0 -38 -30 -64 -56 -71
c-45 37 -101 56 -159 56c-109 0 -189 -65 -189 -228c0 -169 83 -218 161 -218c67 0 123 28 159 85v52z" />
    <glyph glyph-name="H" unicode="H" horiz-adv-x="710" 
d="M562 700c38 0 68 -12 68 -51v-636c-10 -7 -46 -13 -69 -13c-42 0 -79 9 -79 68v227h-254v-279c-9 -9 -51 -16 -85 -16c-31 0 -63 9 -63 68v619c16 8 50 13 81 13c37 0 67 -12 67 -51v-219h254v257c14 7 50 13 80 13z" />
    <glyph glyph-name="I" unicode="I" horiz-adv-x="308" 
d="M162 700c36 0 66 -12 66 -51v-633c-19 -10 -43 -16 -81 -16c-39 0 -67 15 -67 68v619c17 8 45 13 82 13z" />
    <glyph glyph-name="J" unicode="J" horiz-adv-x="417" 
d="M275 700c41 0 72 -14 72 -55v-481c0 -109 -69 -164 -167 -164c-116 0 -160 35 -160 89c0 16 3 29 11 46h103c46 0 65 18 65 54v498c17 9 42 13 76 13z" />
    <glyph glyph-name="K" unicode="K" horiz-adv-x="614" 
d="M157 700c40 0 71 -11 71 -50v-224c110 75 175 184 197 262c16 7 47 12 74 12c36 0 59 -21 59 -52c0 -85 -101 -207 -184 -268c60 -75 117 -253 214 -253h4c7 -8 12 -23 12 -48c0 -47 -23 -79 -85 -79c-125 0 -180 183 -252 304l-39 -23v-266c-17 -10 -51 -15 -85 -15
c-38 0 -63 13 -63 67v619c18 8 46 14 77 14z" />
    <glyph glyph-name="L" unicode="L" horiz-adv-x="539" 
d="M153 700c33 0 75 -11 75 -50v-512h280c7 -10 16 -30 16 -59c0 -45 -16 -79 -76 -79h-305c-39 0 -63 17 -63 64v624c14 6 41 12 73 12z" />
    <glyph glyph-name="M" unicode="M" horiz-adv-x="880" 
d="M438 29c-41 0 -73 13 -93 79l-112 351l-24 -404c-3 -41 -30 -55 -78 -55c-27 0 -56 4 -71 11l48 588c5 61 39 101 103 101c34 0 54 -4 74 -11l153 -484l129 414c17 60 43 81 91 81c36 0 69 -4 96 -15l76 -665c-17 -12 -46 -20 -79 -20c-41 0 -75 10 -79 55l-24 404
l-111 -350c-21 -78 -56 -80 -99 -80z" />
    <glyph glyph-name="N" unicode="N" horiz-adv-x="720" 
d="M493 38l-272 392l7 -415c-9 -9 -51 -16 -85 -16c-31 0 -63 9 -63 68v620c19 8 49 13 80 13c33 0 56 -18 69 -38l266 -394l-4 414c15 12 37 19 72 19c34 0 77 -12 77 -51v-638c-12 -7 -37 -12 -76 -12c-32 0 -55 15 -71 38z" />
    <glyph glyph-name="O" unicode="O" horiz-adv-x="687" 
d="M40 349c0 257 138 361 303 361c172 0 304 -104 304 -361c0 -258 -135 -359 -303 -359c-169 0 -304 106 -304 359zM192 345c0 -166 74 -218 152 -218c88 0 151 48 151 218c0 173 -68 228 -152 228c-79 0 -151 -55 -151 -228z" />
    <glyph glyph-name="P" unicode="P" horiz-adv-x="626" 
d="M154 700h205c105 0 227 -51 227 -212c0 -199 -145 -237 -239 -237h-119v-238c-14 -8 -48 -13 -82 -13c-36 0 -66 13 -66 67v622c19 8 37 11 74 11zM339 575h-111v-199h97c68 0 109 28 109 100c0 76 -45 99 -95 99z" />
    <glyph glyph-name="Q" unicode="Q" horiz-adv-x="687" 
d="M40 349c0 257 138 361 303 361c172 0 304 -104 304 -361c0 -154 -48 -252 -123 -306c40 -48 65 -63 132 -63h6c6 -9 12 -28 12 -56c0 -54 -35 -94 -104 -94c-83 0 -141 77 -178 163c-15 -2 -32 -3 -48 -3c-169 0 -304 106 -304 359zM192 345c0 -166 74 -218 152 -218
c88 0 151 48 151 218c0 173 -68 228 -152 228c-79 0 -151 -55 -151 -228z" />
    <glyph glyph-name="R" unicode="R" horiz-adv-x="652" 
d="M154 700h212c105 0 220 -55 220 -207c0 -104 -67 -172 -147 -200c87 -131 125 -166 175 -166h6c7 -8 12 -23 12 -48c0 -47 -30 -79 -97 -79c-124 0 -165 146 -235 267h-72v-253c-12 -9 -48 -14 -75 -14c-38 0 -73 8 -73 67v622c15 8 42 11 74 11zM340 569h-112v-172h98
c68 0 108 32 108 94c0 57 -44 78 -94 78z" />
    <glyph glyph-name="S" unicode="S" horiz-adv-x="579" 
d="M291 710c109 0 160 -27 191 -55c23 -21 28 -45 28 -67c0 -27 -13 -49 -27 -70c-40 21 -102 55 -191 55c-60 0 -93 -29 -93 -70c0 -32 17 -64 131 -92c144 -35 209 -91 209 -206c0 -123 -66 -215 -247 -215c-109 0 -176 15 -216 45c-28 21 -36 44 -36 74c0 28 10 52 19 67
c57 -29 142 -49 228 -49c82 0 100 38 100 65c0 36 -17 58 -118 82c-166 40 -222 105 -222 223c0 129 87 213 244 213z" />
    <glyph glyph-name="T" unicode="T" horiz-adv-x="573" 
d="M518 562h-157v-550c-15 -8 -44 -12 -84 -12c-34 0 -64 15 -64 67v495h-187c-9 19 -16 43 -16 70c0 34 15 68 66 68h471c7 -10 16 -30 16 -59c0 -45 -16 -79 -45 -79z" />
    <glyph glyph-name="U" unicode="U" horiz-adv-x="678" 
d="M460 276v411c13 8 38 13 75 13c41 0 73 -12 73 -51v-394c0 -182 -100 -265 -272 -265s-266 83 -266 265v433c13 8 45 12 77 12c43 0 71 -11 71 -50v-374c0 -96 37 -149 118 -149c92 0 124 52 124 149z" />
    <glyph glyph-name="V" unicode="V" horiz-adv-x="632" 
d="M88 700c38 0 70 -12 83 -49l156 -437c87 150 142 372 152 470c22 11 43 16 81 16c27 0 57 -12 57 -36c0 -22 -4 -47 -13 -87c-24 -104 -87 -310 -237 -567c-20 -7 -36 -10 -60 -10c-35 0 -56 16 -71 57l-236 627c17 9 50 16 88 16z" />
    <glyph glyph-name="W" unicode="W" horiz-adv-x="985" 
d="M624 57l-125 409c-49 -174 -85 -301 -161 -455c-20 -7 -50 -11 -74 -11c-35 0 -56 16 -71 57l-188 627c17 9 50 16 88 16s76 -12 86 -48l117 -434c48 121 90 285 127 466c17 9 38 16 76 16s76 -15 86 -48l132 -435c73 168 98 374 105 467c22 11 46 16 84 16
c27 0 54 -14 54 -38c0 -12 -2 -35 -10 -87c-10 -69 -48 -317 -190 -565c-20 -7 -41 -10 -65 -10c-35 0 -56 16 -71 57z" />
    <glyph glyph-name="X" unicode="X" horiz-adv-x="651" 
d="M109 700c59 0 82 -28 115 -75l104 -149l116 172c23 34 51 52 103 52c48 0 70 -12 81 -29l-215 -317l233 -334c-22 -12 -39 -20 -95 -20c-43 0 -88 23 -118 65l-116 167l-130 -188c-20 -30 -59 -44 -101 -44c-43 0 -62 11 -76 28l218 330l-213 305c16 21 39 37 94 37z" />
    <glyph glyph-name="Y" unicode="Y" horiz-adv-x="569" 
d="M370 243v-227c-12 -8 -41 -16 -83 -16s-65 13 -65 46v192c-87 144 -182 308 -217 444c19 10 48 18 81 18c39 0 80 -7 92 -45c38 -118 76 -187 129 -282c69 120 113 242 132 320c15 5 47 7 75 7c30 0 50 -20 50 -51c0 -72 -117 -292 -194 -406z" />
    <glyph glyph-name="Z" unicode="Z" horiz-adv-x="613" 
d="M550 574l-325 -443h356c6 -12 12 -37 12 -68c0 -30 -12 -63 -56 -63h-505c-9 17 -12 29 -12 52c0 26 7 48 22 68l331 446h-310c-9 19 -16 36 -16 66c0 33 16 68 48 68h473c7 -10 10 -26 10 -49c0 -29 -9 -51 -28 -77z" />
    <glyph glyph-name="bracketleft" unicode="[" horiz-adv-x="388" 
d="M57 -30v722c19 13 49 20 88 20h188c7 -10 16 -30 16 -60c0 -45 -16 -70 -45 -70h-105v-553h134c7 -10 16 -25 16 -54c0 -46 -16 -75 -45 -75h-231c-9 19 -16 43 -16 70z" />
    <glyph glyph-name="backslash" unicode="\" horiz-adv-x="307" 
d="M94 713c37 0 52 -5 67 -13l118 -672c11 -59 -38 -68 -69 -68c-34 0 -59 7 -70 16l-121 686c-6 39 38 51 75 51z" />
    <glyph glyph-name="bracketright" unicode="]" horiz-adv-x="388" 
d="M331 641v-722c-19 -13 -49 -20 -88 -20h-188c-7 10 -16 30 -16 60c0 45 16 70 45 70h105v553h-134c-7 10 -16 30 -16 59c0 46 16 70 45 70h231c9 -19 16 -43 16 -70z" />
    <glyph glyph-name="asciicircum" unicode="^" horiz-adv-x="494" 
d="M464 342c-4 -26 -26 -45 -63 -45c-89 0 -113 154 -154 221c-36 -62 -77 -221 -152 -221c-38 0 -59 16 -65 45c25 9 128 330 214 330c90 0 190 -319 220 -330z" />
    <glyph glyph-name="underscore" unicode="_" horiz-adv-x="593" 
d="M521 -210h-485c-9 19 -16 44 -16 70c0 31 15 68 59 68h480c7 -10 14 -39 14 -65c0 -31 -11 -73 -52 -73z" />
    <glyph glyph-name="grave" unicode="`" horiz-adv-x="530" 
d="M357 579c-5 -28 -27 -45 -55 -45c-53 0 -132 87 -183 119c2 31 18 56 63 56c56 0 150 -120 175 -130z" />
    <glyph glyph-name="a" unicode="a" horiz-adv-x="568" 
d="M449 0c-35 0 -65 15 -85 40c-36 -34 -77 -50 -132 -50c-88 0 -197 71 -197 258c0 181 89 262 189 262c59 0 95 -27 115 -57v10c0 26 33 37 61 37s59 -7 81 -17v-346c0 -24 9 -33 45 -33h13c5 -14 9 -22 9 -44c0 -31 -33 -60 -99 -60zM268 120c27 0 49 7 68 17v182
c-15 28 -40 61 -78 61c-40 0 -73 -46 -73 -131c0 -90 33 -129 83 -129z" />
    <glyph glyph-name="b" unicode="b" horiz-adv-x="555" 
d="M215 645v-182c33 28 77 47 117 47c108 0 188 -76 188 -247c0 -185 -108 -273 -239 -273c-78 0 -134 20 -181 56c-12 9 -30 30 -30 50v587c17 10 48 17 78 17c37 0 67 -15 67 -55zM294 380c-26 0 -57 -16 -79 -37v-204c15 -11 39 -19 69 -19c59 0 86 57 86 125
c0 73 -20 135 -76 135z" />
    <glyph glyph-name="c" unicode="c" horiz-adv-x="453" 
d="M429 416c0 -19 -12 -46 -32 -69c-48 18 -70 33 -116 33c-49 0 -96 -43 -96 -137c0 -81 42 -123 101 -123c55 0 96 15 130 33c9 -11 17 -31 17 -60c0 -34 -14 -58 -39 -74c-17 -11 -60 -29 -120 -29c-144 0 -239 103 -239 254c0 201 137 266 242 266c66 0 95 -14 123 -33
c15 -10 29 -30 29 -61z" />
    <glyph glyph-name="d" unicode="d" horiz-adv-x="568" 
d="M459 0c-35 0 -75 15 -95 40c-38 -34 -80 -50 -138 -50c-92 0 -191 72 -191 250c0 183 100 270 203 270c40 0 72 -11 98 -29v170c0 31 20 49 57 49c40 0 75 -9 88 -19v-544c0 -24 9 -33 46 -33h12c5 -14 9 -22 9 -44c0 -31 -23 -60 -89 -60zM261 120c30 0 54 7 75 17v204
c-20 23 -42 39 -74 39c-56 0 -77 -57 -77 -133c0 -81 21 -127 76 -127z" />
    <glyph glyph-name="e" unicode="e" horiz-adv-x="507" 
d="M467 208h-282c12 -62 43 -93 111 -93c58 0 117 19 147 39c11 -10 24 -29 24 -57c0 -72 -92 -107 -196 -107c-156 0 -236 111 -236 266c0 163 104 254 236 254c124 0 206 -89 206 -225c0 -28 -3 -56 -10 -77zM272 385c-42 0 -74 -29 -86 -84h160c0 55 -29 84 -74 84z" />
    <glyph glyph-name="f" unicode="f" horiz-adv-x="358" 
d="M232 544v-44h97c11 -10 15 -26 15 -45c0 -27 -9 -72 -56 -72h-56v-337c0 -42 -38 -47 -83 -47c-22 0 -50 6 -62 16v368h-44c-8 14 -13 30 -13 51c0 34 14 66 51 66h6v54c0 111 54 160 149 160c103 0 122 -25 122 -68c0 -30 -7 -46 -15 -58h-64c-27 0 -47 -10 -47 -44z
" />
    <glyph glyph-name="g" unicode="g" horiz-adv-x="576" 
d="M349 -3v33c-35 -25 -74 -40 -122 -40c-113 0 -192 87 -192 256c0 176 89 264 202 264c64 0 107 -25 137 -60c23 31 60 50 102 50c56 0 90 -22 90 -63c0 -31 -3 -49 -9 -63h-32c-21 0 -31 -11 -31 -34v-344c0 -146 -79 -208 -216 -208c-133 0 -204 36 -204 103
c0 23 6 45 21 64c39 -19 100 -37 172 -37c52 0 82 27 82 79zM261 120c33 0 61 11 88 26v183c-25 28 -48 51 -86 51c-52 0 -78 -48 -78 -134c0 -80 23 -126 76 -126z" />
    <glyph glyph-name="h" unicode="h" horiz-adv-x="570" 
d="M145 700c37 0 70 -13 70 -52v-201c37 38 83 63 138 63c87 0 146 -49 146 -174v-216c0 -17 7 -24 17 -24h27c5 -8 7 -17 7 -34c0 -34 -37 -62 -114 -62c-48 0 -82 26 -82 97v200c0 44 -3 83 -42 83c-35 0 -73 -25 -97 -49v-318c-13 -8 -45 -13 -79 -13c-31 0 -66 9 -66 68
v616c15 9 43 16 75 16z" />
    <glyph glyph-name="i" unicode="i" horiz-adv-x="319" 
d="M124 500c55 0 108 -17 108 -117v-247c0 -21 7 -30 22 -30h33c5 -11 8 -22 8 -43c0 -38 -31 -63 -107 -63c-66 0 -101 25 -101 112v231c0 24 -11 31 -24 31h-29c-6 12 -8 27 -8 51c0 53 37 75 98 75zM64 629c0 53 25 80 80 80c53 0 80 -27 80 -80c0 -54 -27 -80 -80 -80
c-54 0 -80 27 -80 80z" />
    <glyph glyph-name="j" unicode="j" horiz-adv-x="302" 
d="M126 500c66 0 106 -28 106 -108v-439c0 -112 -44 -165 -146 -165c-71 0 -129 13 -129 69c0 22 1 38 10 58h74c34 0 46 30 46 66v362c0 24 -11 31 -24 31h-35c-5 16 -8 29 -8 52c0 48 36 74 106 74zM63 629c0 53 25 80 80 80c53 0 80 -27 80 -80c0 -54 -27 -80 -80 -80
c-54 0 -80 27 -80 80z" />
    <glyph glyph-name="k" unicode="k" horiz-adv-x="522" 
d="M137 701c34 0 78 -12 78 -51v-325c69 49 109 104 118 161c13 7 48 14 71 14c45 0 73 -16 73 -63c0 -59 -81 -133 -146 -163c47 -37 63 -135 156 -135h14c7 -9 11 -30 11 -54c0 -49 -37 -85 -92 -85c-116 0 -143 154 -205 224v-209c-12 -8 -48 -15 -82 -15
c-31 0 -63 8 -63 67v615c15 12 32 19 67 19z" />
    <glyph glyph-name="l" unicode="l" horiz-adv-x="331" 
d="M215 638v-470c0 -39 16 -52 46 -52h61c4 -12 6 -21 6 -40c0 -42 -34 -76 -136 -76c-88 0 -122 56 -122 137v543c15 13 29 22 69 22c53 0 76 -30 76 -64z" />
    <glyph glyph-name="m" unicode="m" horiz-adv-x="867" 
d="M364 74v238c0 29 -7 68 -39 68c-33 0 -67 -24 -93 -52v-314c-16 -10 -37 -14 -76 -14c-36 0 -69 15 -69 74v269c0 21 -9 31 -28 31h-31c-8 17 -13 32 -13 56c0 48 45 70 114 70c47 0 84 -28 98 -81c48 63 98 91 163 91c49 0 90 -25 109 -86c47 53 92 86 152 86
c72 0 135 -43 135 -158v-231c0 -17 8 -26 21 -26h33c4 -7 7 -13 7 -33c0 -38 -40 -62 -114 -62c-63 0 -92 26 -92 97v215c0 29 -8 68 -39 68c-40 0 -64 -23 -93 -54v-312c-16 -10 -37 -14 -76 -14c-36 0 -69 15 -69 74z" />
    <glyph glyph-name="n" unicode="n" horiz-adv-x="600" 
d="M114 500c57 0 93 -27 110 -71c46 52 96 81 159 81c75 0 136 -43 136 -158v-231c0 -17 8 -26 21 -26h34c4 -7 6 -13 6 -33c0 -38 -40 -62 -114 -62c-64 0 -92 26 -92 97v215c0 43 -10 68 -49 68c-34 0 -65 -22 -93 -53v-313c-16 -10 -37 -14 -76 -14c-36 0 -69 15 -69 74
v269c0 21 -9 31 -28 31h-31c-8 17 -13 32 -13 56c0 48 36 70 99 70z" />
    <glyph glyph-name="o" unicode="o" horiz-adv-x="553" 
d="M35 248c0 185 106 262 241 262c139 0 242 -77 242 -262c0 -186 -106 -258 -242 -258c-137 0 -241 76 -241 258zM185 246c0 -95 44 -126 91 -126c52 0 92 29 92 126s-42 134 -92 134c-48 0 -91 -37 -91 -134z" />
    <glyph glyph-name="p" unicode="p" horiz-adv-x="574" 
d="M131 500c44 0 76 -25 91 -65c39 45 87 75 138 75c102 0 179 -79 179 -252c0 -174 -78 -268 -199 -268c-41 0 -77 13 -108 37v-225c-21 -9 -36 -14 -75 -14c-37 0 -70 15 -70 74v481c0 21 -8 31 -27 31h-29c-8 17 -13 32 -13 56c0 48 36 70 113 70zM311 380
c-28 0 -57 -19 -79 -49v-172c18 -18 55 -39 82 -39c56 0 75 54 75 122c0 86 -28 138 -78 138z" />
    <glyph glyph-name="q" unicode="q" horiz-adv-x="558" 
d="M337 -159v189c-34 -25 -71 -40 -117 -40c-109 0 -185 87 -185 256c0 186 89 264 200 264c55 0 94 -25 122 -60c22 31 67 50 107 50c56 0 79 -22 79 -63c0 -31 -3 -49 -9 -63h-32c-21 0 -31 -11 -31 -34v-537c-11 -7 -43 -15 -75 -15c-38 0 -59 17 -59 53zM255 120
c31 0 57 11 82 26v183c-19 25 -39 51 -82 51c-37 0 -70 -38 -70 -134c0 -80 21 -126 70 -126z" />
    <glyph glyph-name="r" unicode="r" horiz-adv-x="462" 
d="M119 500c47 0 88 -10 105 -60c38 40 89 70 133 70c68 0 95 -38 95 -111c0 -86 -26 -110 -81 -110c-19 0 -40 8 -51 17c0 29 -10 50 -35 50c-19 0 -38 -9 -53 -22v-320c-10 -9 -41 -14 -78 -14c-33 0 -67 8 -67 67v276c0 24 -10 31 -24 31h-34c-6 15 -10 32 -10 56
c0 41 39 70 100 70z" />
    <glyph glyph-name="s" unicode="s" horiz-adv-x="446" 
d="M226 510c127 0 171 -37 171 -91c0 -33 -5 -43 -17 -67c-29 16 -93 38 -145 38c-49 0 -66 -20 -66 -35c0 -16 13 -32 69 -39c131 -17 178 -68 178 -162c0 -99 -61 -164 -188 -164c-133 0 -198 36 -198 99c0 17 6 39 21 58c39 -19 113 -37 168 -37c52 0 66 19 66 34
c0 18 -21 31 -81 40c-130 19 -165 79 -165 162c0 101 64 164 187 164z" />
    <glyph glyph-name="t" unicode="t" horiz-adv-x="389" 
d="M312 383h-75v-210c0 -40 13 -52 42 -52h86c5 -12 9 -20 9 -42c0 -43 -29 -79 -151 -79c-71 0 -131 34 -131 145v238h-59c-8 14 -13 30 -13 51c0 42 11 66 49 66h23v106c15 8 44 15 75 15c36 0 70 -15 70 -57v-64h116c11 -10 15 -26 15 -45c0 -27 -9 -72 -56 -72z" />
    <glyph glyph-name="u" unicode="u" horiz-adv-x="590" 
d="M458 0c-34 0 -72 11 -91 59c-41 -43 -92 -69 -154 -69c-67 0 -132 43 -132 158v198c0 21 -8 28 -23 28h-45c-5 16 -7 28 -7 50c0 54 57 76 117 76c74 0 103 -24 103 -93v-229c0 -40 14 -58 43 -58c42 0 67 26 89 57v307c19 10 47 16 78 16c50 0 67 -19 67 -55v-298
c0 -24 12 -31 26 -31h36c2 -8 4 -17 4 -45c0 -41 -28 -71 -111 -71z" />
    <glyph glyph-name="v" unicode="v" horiz-adv-x="517" 
d="M83 500c64 0 92 -24 109 -77l81 -249c42 55 74 145 74 184c0 22 -11 30 -26 30h-29c-4 10 -8 24 -8 50c0 35 34 62 92 62c81 0 110 -37 110 -106c0 -78 -65 -229 -147 -344c-25 -35 -55 -50 -98 -50c-18 0 -40 4 -54 12l-127 347c-7 19 -19 29 -33 29h-16
c-6 14 -11 29 -11 56c0 30 35 56 83 56z" />
    <glyph glyph-name="w" unicode="w" horiz-adv-x="777" 
d="M476 12l-75 219c-15 -54 -34 -111 -58 -154c-29 -52 -59 -77 -101 -77c-25 0 -38 5 -50 12l-130 357c-4 12 -12 19 -25 19h-23c-5 15 -8 29 -8 50c0 39 22 62 83 62c70 0 86 -30 113 -109l68 -202c38 90 44 160 44 288c22 18 52 23 73 23c40 0 63 -20 73 -50l91 -267
c39 50 63 135 63 180c0 15 -13 25 -23 25h-26c-4 11 -8 27 -8 48c0 37 33 64 94 64c73 0 96 -43 96 -103c0 -92 -61 -234 -121 -325c-29 -43 -51 -72 -94 -72c-25 0 -43 4 -56 12z" />
    <glyph glyph-name="x" unicode="x" horiz-adv-x="513" 
d="M128 500c56 0 79 -22 106 -70l36 -64l43 73c29 49 55 61 91 61c61 0 78 -44 78 -89l-145 -159l51 -87c24 -42 43 -52 64 -52h43c6 -14 8 -25 8 -44c0 -43 -34 -69 -109 -69c-42 0 -82 21 -108 64l-45 75l-51 -86c-22 -37 -52 -53 -94 -53c-51 0 -70 36 -74 85l152 165
l-74 122c-6 9 -17 16 -34 16h-40c-4 13 -6 26 -6 41c0 45 50 71 108 71z" />
    <glyph glyph-name="y" unicode="y" horiz-adv-x="540" 
d="M27 -98h59c62 0 113 64 150 128c-32 8 -55 36 -68 71l-95 261c-7 19 -15 26 -29 26h-35c-7 15 -9 34 -9 50c0 37 37 62 103 62c56 0 88 -27 105 -81l77 -241c4 -13 7 -18 15 -23c41 84 71 159 71 204c0 18 -8 29 -24 29h-31c-5 11 -9 30 -9 50c0 38 44 62 96 62
c82 0 112 -39 112 -101c0 -94 -85 -278 -159 -411c-69 -124 -154 -200 -256 -200c-54 0 -84 20 -84 64c0 15 2 29 11 50z" />
    <glyph glyph-name="z" unicode="z" horiz-adv-x="481" 
d="M25 55c0 22 5 41 17 56l201 272h-195c-8 14 -13 30 -13 51c0 35 5 66 55 66h333c5 -11 9 -26 9 -49c0 -26 -10 -54 -23 -71l-190 -258h229c6 -11 11 -25 11 -60c0 -27 -8 -62 -54 -62h-366c-8 14 -14 34 -14 55z" />
    <glyph glyph-name="braceleft" unicode="{" horiz-adv-x="391" 
d="M238 712c81 0 123 -24 123 -83c0 -19 -3 -34 -7 -46h-87c-34 0 -52 -22 -52 -57v-133c0 -73 -38 -89 -53 -91v-7c14 -1 53 -22 53 -93v-113c0 -48 21 -65 51 -65h87c5 -9 8 -24 8 -42c0 -53 -35 -82 -132 -82c-62 0 -141 33 -141 128v157c0 48 -20 55 -40 58
c-18 2 -28 23 -28 58c0 20 2 40 8 48c29 1 60 10 60 54v155c0 120 74 154 150 154z" />
    <glyph glyph-name="bar" unicode="|" horiz-adv-x="288" 
d="M147 713c42 0 71 -12 71 -51v-746c-19 -10 -45 -16 -85 -16c-37 0 -63 18 -63 59v741c14 8 45 13 77 13z" />
    <glyph glyph-name="braceright" unicode="}" horiz-adv-x="391" 
d="M153 -100c-81 0 -123 24 -123 83c0 19 3 34 7 46h87c34 0 52 22 52 57v133c0 73 38 89 53 91v7c-14 1 -53 22 -53 93v113c0 48 -21 65 -51 65h-87c-5 9 -8 24 -8 42c0 53 35 82 132 82c62 0 141 -33 141 -128v-157c0 -48 20 -55 40 -58c18 -2 28 -23 28 -58
c0 -20 -2 -40 -8 -48c-29 -1 -60 -10 -60 -54v-155c0 -120 -74 -154 -150 -154z" />
    <glyph glyph-name="asciitilde" unicode="~" horiz-adv-x="586" 
d="M174 441c94 0 146 -36 220 -36c57 0 83 44 86 52c17 -6 42 -32 42 -85c0 -46 -35 -91 -103 -91c-78 0 -174 35 -253 35c-32 0 -58 -35 -63 -55c-29 13 -39 40 -39 75c0 43 30 105 110 105z" />
    <glyph glyph-name="uni00A0" unicode="&#xa0;" horiz-adv-x="190" 
 />
    <glyph glyph-name="exclamdown" unicode="&#xa1;" horiz-adv-x="248" 
d="M129 -201c-37 0 -79 12 -79 51v437c9 9 42 18 75 18c43 0 73 -21 73 -80v-413c-13 -8 -32 -13 -69 -13zM195 428c0 -48 -22 -72 -72 -72c-48 0 -72 24 -72 72c0 49 24 72 72 72c49 0 72 -24 72 -72z" />
    <glyph glyph-name="cent" unicode="&#xa2;" horiz-adv-x="476" 
d="M424 420c0 -19 -12 -50 -32 -73c-25 6 -46 12 -68 15l-6 -238c36 6 69 16 93 29c9 -11 17 -31 17 -60c0 -34 -14 -58 -39 -74c-13 -8 -38 -19 -74 -25l-3 -93c-7 -7 -28 -11 -54 -11c-24 0 -41 8 -40 42l2 62c-114 21 -180 117 -180 250c0 176 98 248 193 263l3 89
c10 6 25 9 46 9c28 0 49 -10 48 -41l-3 -59c30 -5 49 -16 68 -28c15 -10 29 -26 29 -57zM164 243c0 -59 24 -96 59 -113l6 231c-36 -12 -65 -46 -65 -118z" />
    <glyph glyph-name="sterling" unicode="&#xa3;" horiz-adv-x="592" 
d="M532 0h-500c-7 20 -13 37 -13 69c0 33 9 63 40 69c29 6 49 24 59 127h-66c-9 19 -16 34 -16 60c0 43 7 75 67 75h21v8c0 169 83 286 248 286c108 0 175 -19 175 -82c0 -33 -16 -70 -37 -80c-32 14 -65 24 -132 24c-99 0 -111 -68 -111 -146v-10h164c7 -10 14 -26 14 -52
c0 -31 -11 -83 -72 -83h-115c-4 -47 -12 -102 -36 -132h339c7 -10 16 -25 16 -54c0 -45 -16 -79 -45 -79z" />
    <glyph glyph-name="currency" unicode="&#xa4;" horiz-adv-x="515" 
d="M68 252c0 23 4 45 12 66l-7 5c-30 21 -51 57 -51 94c0 41 29 82 77 82c5 0 14 -1 19 -2l67 -74c21 8 43 13 67 13c19 0 38 -3 55 -9l8 14c19 34 57 59 93 59c61 0 85 -38 85 -77c0 -4 0 -7 -1 -12l-74 -81c12 -24 18 -50 18 -78c0 -22 -4 -42 -11 -61l24 -20
c33 -27 45 -59 45 -95c0 -50 -48 -78 -97 -78l-72 85c-23 -10 -47 -15 -73 -15c-15 0 -29 2 -42 5l-14 -20c-24 -35 -60 -53 -94 -53c-51 0 -78 41 -82 90l71 72c-15 27 -23 57 -23 90zM172 252c0 -44 36 -80 80 -80s80 36 80 80s-36 80 -80 80s-80 -36 -80 -80z" />
    <glyph glyph-name="yen" unicode="&#xa5;" horiz-adv-x="600" 
d="M374 246v-36h152c7 -8 14 -21 14 -41c0 -25 -11 -69 -72 -69h-94v-84c-12 -8 -40 -16 -82 -16s-65 13 -65 46v54h-146c-9 15 -16 29 -16 50c0 35 7 60 62 60h100v28l-9 14h-137c-9 15 -16 29 -16 56c0 29 7 57 60 54l32 -2c-58 110 -107 223 -132 322c19 10 40 18 73 18
c39 0 60 -10 71 -48c30 -107 75 -210 134 -316c71 123 126 276 146 357c15 5 34 7 62 7c30 0 50 -20 50 -51c0 -52 -58 -180 -119 -290l84 3c7 -8 14 -21 14 -41c0 -25 -23 -69 -84 -69h-78c-2 -2 -3 -4 -4 -6z" />
    <glyph glyph-name="brokenbar" unicode="&#xa6;" horiz-adv-x="288" 
d="M139 713c37 0 79 -12 79 -51v-305c-9 -9 -51 -16 -85 -16c-31 0 -63 9 -63 68v291c13 8 32 13 69 13zM139 272c37 0 79 -12 79 -51v-305c-9 -9 -51 -16 -85 -16c-31 0 -63 9 -63 68v291c13 8 32 13 69 13z" />
    <glyph glyph-name="section" unicode="&#xa7;" horiz-adv-x="586" 
d="M304 719c116 0 186 -42 186 -89c0 -44 -20 -66 -40 -83c-30 16 -97 35 -155 35c-80 0 -97 -16 -97 -33c0 -22 31 -38 126 -56c114 -21 214 -68 214 -162c0 -49 -24 -92 -57 -137c19 -20 32 -43 32 -71c0 -107 -89 -167 -227 -167c-144 0 -217 46 -217 107
c0 30 9 41 28 60c37 -20 118 -36 181 -36c68 0 102 10 102 28c0 24 -47 39 -141 59c-126 27 -203 71 -203 162c0 52 36 90 66 117c-23 24 -34 55 -34 97c0 95 67 169 236 169zM251 385c-24 6 -45 12 -64 19c-15 -18 -28 -40 -28 -59c0 -27 52 -55 140 -72
c30 -6 60 -14 87 -23c15 22 25 42 25 58c0 32 -59 52 -160 77z" />
    <glyph glyph-name="dieresis" unicode="&#xa8;" horiz-adv-x="488" 
d="M52 631c0 48 22 72 72 72c48 0 72 -24 72 -72c0 -49 -24 -72 -72 -72c-49 0 -72 24 -72 72zM256 631c0 48 22 72 72 72c48 0 72 -24 72 -72c0 -49 -24 -72 -72 -72c-49 0 -72 24 -72 72z" />
    <glyph glyph-name="copyright" unicode="&#xa9;" horiz-adv-x="770" 
d="M25 350c0 218 139 360 360 360c219 0 360 -142 360 -360c0 -219 -141 -360 -360 -360c-221 0 -360 141 -360 360zM146 351c0 -146 93 -240 239 -240s239 94 239 240c0 145 -93 239 -239 239s-239 -94 -239 -239zM507 474c0 -14 -15 -44 -29 -59c-30 8 -44 14 -77 14
s-66 -21 -66 -84c0 -53 30 -81 70 -81c36 0 63 10 86 21c6 -6 19 -27 19 -48c0 -25 -10 -42 -28 -53c-12 -9 -43 -22 -88 -22c-104 0 -165 75 -165 184c0 146 92 193 168 193c48 0 69 -10 89 -24c11 -7 21 -18 21 -41z" />
    <glyph glyph-name="ordfeminine" unicode="&#xaa;" horiz-adv-x="301" 
d="M242 449c-23 0 -45 7 -55 20c-18 -17 -38 -25 -65 -25c-43 0 -107 35 -107 127c0 89 54 129 103 129c29 0 47 -13 57 -28v5c0 13 16 18 29 18c14 0 42 -3 53 -8v-156c0 -11 5 -16 22 -16h7c2 -7 4 -15 4 -30c0 -16 -16 -36 -48 -36zM140 513c13 0 24 4 33 8v85
c-7 14 -20 23 -38 23c-20 0 -34 -16 -34 -57c0 -45 14 -59 39 -59z" />
    <glyph glyph-name="guillemotleft" unicode="&#xab;" horiz-adv-x="509" 
d="M47 317l109 126c13 15 28 18 39 18c40 0 64 -34 64 -62c0 -21 -7 -35 -18 -48l-89 -108l86 -111c15 -20 19 -31 19 -46c0 -36 -38 -56 -65 -56c-19 0 -37 7 -53 27l-92 120c-16 21 -25 42 -25 71c0 27 11 52 25 69zM272 317l109 126c13 15 28 18 39 18
c40 0 64 -34 64 -62c0 -21 -7 -35 -18 -48l-89 -108l86 -111c15 -20 19 -31 19 -46c0 -36 -38 -56 -65 -56c-19 0 -37 7 -53 27l-92 120c-16 21 -25 42 -25 71c0 27 11 52 25 69z" />
    <glyph glyph-name="logicalnot" unicode="&#xac;" horiz-adv-x="499" 
d="M369 117c-31 0 -63 9 -63 68v108h-245c-9 19 -16 37 -16 73c0 34 16 65 57 65h338c9 -17 14 -42 14 -68v-230c-9 -9 -51 -16 -85 -16z" />
    <glyph glyph-name="uni00AD" unicode="&#xad;" horiz-adv-x="420" 
d="M302 195h-240c-9 19 -16 37 -16 68c0 40 16 70 67 70h246c8 -12 14 -34 14 -65c0 -42 -15 -73 -71 -73z" />
    <glyph glyph-name="registered" unicode="&#xae;" horiz-adv-x="572" 
d="M25 443c0 158 101 261 261 261c159 0 261 -103 261 -261c0 -159 -102 -261 -261 -261c-160 0 -261 102 -261 261zM105 444c0 -111 70 -182 181 -182s181 71 181 182c0 110 -70 181 -181 181s-181 -71 -181 -181zM224 574h80c39 0 87 -20 87 -79c0 -35 -22 -59 -48 -72
c15 -20 27 -46 45 -46h17c4 -4 6 -11 6 -23c0 -23 -15 -39 -47 -39c-54 0 -54 52 -86 98h-16v-91c-6 -5 -25 -7 -39 -7c-19 0 -37 4 -37 33v221c8 4 22 5 38 5zM294 517h-32v-49h27c22 0 31 12 31 26c0 12 -9 23 -26 23z" />
    <glyph glyph-name="macron" unicode="&#xaf;" horiz-adv-x="464" 
d="M341 558h-262c-9 14 -16 28 -16 47c0 33 7 57 74 57h262c7 -8 14 -20 14 -39c0 -24 -11 -65 -72 -65z" />
    <glyph glyph-name="degree" unicode="&#xb0;" horiz-adv-x="349" 
d="M20 545c0 85 69 155 154 155s155 -70 155 -155s-70 -154 -155 -154s-154 69 -154 154zM105 546c0 -39 31 -70 70 -70s70 31 70 70s-31 70 -70 70s-70 -31 -70 -70z" />
    <glyph glyph-name="plusminus" unicode="&#xb1;" horiz-adv-x="499" 
d="M320 468v-80h120c7 -10 14 -36 14 -69c0 -37 -11 -69 -56 -69h-78v-123c-19 -9 -44 -13 -70 -13c-43 0 -68 14 -68 74v62h-124c-9 19 -13 37 -13 71c0 30 12 67 46 67h91v121c10 7 41 14 72 14c33 0 66 -11 66 -55zM388 -19h-327c-9 15 -16 30 -16 58s16 52 57 52h338
c9 -13 14 -33 14 -54c0 -25 -11 -56 -66 -56z" />
    <glyph glyph-name="twosuperior" unicode="&#xb2;" horiz-adv-x="359" 
d="M27 626c0 37 49 72 142 72c110 0 155 -53 155 -123c0 -76 -85 -152 -173 -203v-4l178 4c4 -7 7 -26 7 -45c0 -29 -7 -42 -31 -42h-273c-5 11 -9 21 -9 49s5 47 31 67c62 47 165 123 165 158c0 30 -18 43 -58 43c-39 0 -79 -14 -105 -33c-16 12 -29 32 -29 57z" />
    <glyph glyph-name="threesuperior" unicode="&#xb3;" horiz-adv-x="347" 
d="M203 563c0 24 -15 37 -51 37s-73 -10 -102 -27c-15 12 -26 27 -26 53c0 36 45 72 134 72c107 0 147 -52 147 -114c0 -43 -28 -83 -65 -91v-1c38 -5 75 -38 75 -93c0 -58 -43 -120 -154 -120c-105 0 -143 40 -143 74c0 28 10 43 31 56c24 -22 59 -42 107 -42
c36 0 59 17 59 41c0 27 -13 40 -54 40h-24c-14 0 -22 16 -22 38c0 18 2 26 7 35c40 1 81 14 81 42z" />
    <glyph glyph-name="acute" unicode="&#xb4;" horiz-adv-x="517" 
d="M119 582c25 10 119 130 175 130c45 0 61 -25 63 -56c-51 -32 -130 -119 -183 -119c-28 0 -50 17 -55 45z" />
    <glyph glyph-name="mu" unicode="&#xb5;" horiz-adv-x="607" 
d="M470 0c-34 0 -77 11 -96 59c-33 -34 -72 -58 -118 -66c-12 -2 -24 -3 -36 -3v-145c-10 -9 -35 -15 -72 -15c-33 0 -67 10 -67 68v448c0 21 -8 28 -23 28h-45c-5 16 -7 27 -7 57c0 47 57 69 117 69c74 0 110 -25 110 -93v-183c0 -51 4 -85 43 -85c42 0 67 12 89 38v307
c19 10 52 16 83 16c50 0 71 -18 71 -55c0 -99 1 -199 1 -298c0 -24 12 -31 26 -31h36c2 -8 4 -17 4 -45c0 -21 -8 -38 -27 -51s-48 -20 -89 -20z" />
    <glyph glyph-name="paragraph" unicode="&#xb6;" horiz-adv-x="793" 
d="M718 562h-60v-719c-10 -7 -38 -13 -61 -13c-42 0 -79 9 -79 68v664h-89v-592c0 -87 -72 -119 -126 -119s-88 35 -88 74c37 13 75 25 75 73v182c-144 0 -260 115 -260 260c0 143 116 260 260 260h457c7 -10 16 -30 16 -59c0 -45 -16 -79 -45 -79z" />
    <glyph glyph-name="periodcentered" unicode="&#xb7;" horiz-adv-x="224" 
d="M40 264c0 48 22 72 72 72c48 0 72 -24 72 -72c0 -49 -24 -72 -72 -72c-49 0 -72 24 -72 72z" />
    <glyph glyph-name="cedilla" unicode="&#xb8;" horiz-adv-x="545" 
d="M292 -113c0 26 -44 35 -70 35c-5 6 -9 16 -9 25l1 70l76 -1l-5 -46c62 -12 79 -44 79 -90c0 -52 -33 -92 -104 -92c-64 0 -96 29 -96 56c0 19 8 33 20 41c17 -15 44 -28 71 -28c28 0 37 13 37 30z" />
    <glyph glyph-name="onesuperior" unicode="&#xb9;" horiz-adv-x="357" 
d="M318 285h-270c-6 12 -11 24 -11 40c0 28 5 48 51 48h62v200c-24 -15 -51 -22 -72 -22c-25 0 -42 14 -42 44c0 18 3 28 10 39c42 3 93 29 104 60c10 4 32 7 51 7c30 0 48 -11 48 -33v-295h89c4 -6 11 -19 11 -37c0 -29 -11 -51 -31 -51z" />
    <glyph glyph-name="ordmasculine" unicode="&#xba;" horiz-adv-x="277" 
d="M15 571c0 92 55 129 122 129c70 0 125 -37 125 -129s-55 -127 -124 -127s-123 37 -123 127zM101 570c0 -42 19 -57 37 -57c21 0 36 13 36 57s-17 59 -37 59c-18 0 -36 -15 -36 -59z" />
    <glyph glyph-name="guillemotright" unicode="&#xbb;" horiz-adv-x="509" 
d="M237 174l-109 -126c-13 -15 -28 -18 -39 -18c-40 0 -64 34 -64 62c0 21 7 35 18 48l89 108l-86 111c-15 20 -19 31 -19 46c0 36 38 56 65 56c19 0 37 -7 53 -27l92 -120c16 -21 25 -42 25 -71c0 -27 -11 -52 -25 -69zM462 174l-109 -126c-13 -15 -28 -18 -39 -18
c-40 0 -64 34 -64 62c0 21 7 35 18 48l89 108l-86 111c-15 20 -19 31 -19 46c0 36 38 56 65 56c19 0 37 -7 53 -27l92 -120c16 -21 25 -42 25 -71c0 -27 -11 -52 -25 -69z" />
    <glyph glyph-name="onequarter" unicode="&#xbc;" horiz-adv-x="919" 
d="M602 700c43 0 63 -19 49 -56l-244 -635c-12 -6 -16 -11 -49 -11c-42 0 -64 18 -43 74l233 621c16 5 27 7 54 7zM318 285h-270c-6 12 -11 24 -11 40c0 28 5 48 51 48h62v200c-24 -15 -51 -22 -72 -22c-25 0 -42 14 -42 44c0 18 3 28 10 39c42 3 93 29 104 60
c10 4 32 7 51 7c30 0 48 -11 48 -33v-295h89c4 -6 11 -19 11 -37c0 -29 -11 -51 -31 -51zM793 302c26 0 45 -8 45 -33v-114h60c5 -6 10 -19 10 -41c0 -26 -11 -38 -31 -38h-38v-69c-9 -4 -29 -7 -52 -7c-24 0 -41 10 -41 32l-1 44h-188c-6 7 -8 18 -8 29s4 28 9 43l84 257
c11 5 29 9 56 9c25 0 38 -15 32 -34l-69 -225h84l-1 134c11 7 28 13 49 13z" />
    <glyph glyph-name="onehalf" unicode="&#xbd;" horiz-adv-x="946" 
d="M602 700c43 0 63 -19 49 -56l-244 -635c-12 -6 -16 -11 -49 -11c-42 0 -64 18 -43 74l233 621c16 5 27 7 54 7zM318 285h-270c-6 12 -11 24 -11 40c0 28 5 48 51 48h62v200c-24 -15 -51 -22 -72 -22c-25 0 -42 14 -42 44c0 18 3 28 10 39c42 3 93 29 104 60
c10 4 32 7 51 7c30 0 48 -11 48 -33v-295h89c4 -6 11 -19 11 -37c0 -29 -11 -51 -31 -51zM614 341c0 37 49 72 142 72c110 0 155 -53 155 -123c0 -76 -85 -152 -173 -203v-4l178 4c4 -7 7 -26 7 -45c0 -29 -7 -42 -31 -42h-273c-5 11 -9 21 -9 49s5 47 31 67
c62 47 165 123 165 158c0 30 -18 43 -58 43c-39 0 -79 -14 -105 -33c-16 12 -29 32 -29 57z" />
    <glyph glyph-name="threequarters" unicode="&#xbe;" horiz-adv-x="867" 
d="M550 700c43 0 63 -19 49 -56l-244 -635c-12 -6 -16 -11 -49 -11c-42 0 -64 18 -43 74l233 621c16 5 27 7 54 7zM203 563c0 24 -15 37 -51 37s-73 -10 -102 -27c-15 12 -26 27 -26 53c0 36 45 72 134 72c107 0 147 -52 147 -114c0 -43 -28 -83 -65 -91v-1
c38 -5 75 -38 75 -93c0 -58 -43 -120 -154 -120c-105 0 -143 40 -143 74c0 28 10 43 31 56c24 -22 59 -42 107 -42c36 0 59 17 59 41c0 27 -13 40 -54 40h-24c-14 0 -22 16 -22 38c0 18 2 26 7 35c40 1 81 14 81 42zM741 302c26 0 45 -8 45 -33v-114h60c5 -6 10 -19 10 -41
c0 -26 -11 -38 -31 -38h-38v-69c-9 -4 -29 -7 -52 -7c-24 0 -41 10 -41 32l-1 44h-188c-6 7 -8 18 -8 29s4 28 9 43l84 257c11 5 29 9 56 9c25 0 38 -15 32 -34l-69 -225h84l-1 134c11 7 28 13 49 13z" />
    <glyph glyph-name="questiondown" unicode="&#xbf;" horiz-adv-x="498" 
d="M181 18c0 -38 27 -69 87 -69c58 0 115 37 154 70c23 -18 42 -48 42 -88c0 -59 -69 -131 -206 -131c-162 0 -225 93 -225 196c0 98 49 187 190 205l-9 98c10 13 30 19 67 19s60 -22 62 -52l6 -96c1 -21 -4 -41 -14 -54c-52 -2 -154 -20 -154 -98zM343 428
c0 -48 -22 -72 -72 -72c-48 0 -72 24 -72 72c0 49 24 72 72 72c49 0 72 -24 72 -72z" />
    <glyph glyph-name="Agrave" unicode="&#xc0;" horiz-adv-x="640" 
d="M77 0c-38 0 -58 6 -72 20l233 657c21 12 40 23 87 23c43 0 66 -20 77 -49l233 -620c-15 -26 -48 -31 -75 -31c-40 0 -69 16 -86 61l-27 73h-258l-28 -85c-12 -37 -35 -49 -84 -49zM312 510l-81 -253h170zM401 789c-5 -28 -27 -45 -55 -45c-53 0 -132 87 -183 119
c2 31 18 56 63 56c56 0 150 -120 175 -130z" />
    <glyph glyph-name="Aacute" unicode="&#xc1;" horiz-adv-x="640" 
d="M77 0c-38 0 -58 6 -72 20l233 657c21 12 40 23 87 23c43 0 66 -20 77 -49l233 -620c-15 -26 -48 -31 -75 -31c-40 0 -69 16 -86 61l-27 73h-258l-28 -85c-12 -37 -35 -49 -84 -49zM312 510l-81 -253h170zM219 792c25 10 119 130 175 130c45 0 61 -25 63 -56
c-51 -32 -130 -119 -183 -119c-28 0 -50 17 -55 45z" />
    <glyph glyph-name="Acircumflex" unicode="&#xc2;" horiz-adv-x="640" 
d="M77 0c-38 0 -58 6 -72 20l233 657c21 12 40 23 87 23c43 0 66 -20 77 -49l233 -620c-15 -26 -48 -31 -75 -31c-40 0 -69 16 -86 61l-27 73h-258l-28 -85c-12 -37 -35 -49 -84 -49zM312 510l-81 -253h170zM489 794c-3 -19 -14 -33 -29 -40c-8 -4 -17 -5 -26 -5
c-35 0 -80 37 -122 71c-42 -34 -88 -71 -122 -71c-9 0 -18 1 -26 5c-15 7 -26 21 -29 40c25 9 118 130 174 130c60 0 150 -119 180 -130z" />
    <glyph glyph-name="Atilde" unicode="&#xc3;" horiz-adv-x="640" 
d="M77 0c-38 0 -58 6 -72 20l233 657c21 12 40 23 87 23c43 0 66 -20 77 -49l233 -620c-15 -26 -48 -31 -75 -31c-40 0 -69 16 -86 61l-27 73h-258l-28 -85c-12 -37 -35 -49 -84 -49zM312 510l-81 -253h170zM241 903c66 0 106 -36 148 -36c45 0 61 35 63 42
c13 -5 30 -38 30 -65c0 -36 -24 -78 -82 -78c-68 0 -103 35 -159 35c-33 0 -52 -28 -55 -43c-22 6 -28 36 -28 58c0 29 16 87 83 87z" />
    <glyph glyph-name="Adieresis" unicode="&#xc4;" horiz-adv-x="640" 
d="M77 0c-38 0 -58 6 -72 20l233 657c21 12 40 23 87 23c43 0 66 -20 77 -49l233 -620c-15 -26 -48 -31 -75 -31c-40 0 -69 16 -86 61l-27 73h-258l-28 -85c-12 -37 -35 -49 -84 -49zM312 510l-81 -253h170zM130 841c0 48 22 72 72 72c48 0 72 -24 72 -72
c0 -49 -24 -72 -72 -72c-49 0 -72 24 -72 72zM334 841c0 48 22 72 72 72c48 0 72 -24 72 -72c0 -49 -24 -72 -72 -72c-49 0 -72 24 -72 72z" />
    <glyph glyph-name="Aring" unicode="&#xc5;" horiz-adv-x="640" 
d="M223 735c0 62 32 94 94 94s94 -32 94 -94c0 -28 -7 -50 -19 -65c4 -6 7 -12 10 -19l233 -620c-15 -26 -48 -31 -75 -31c-40 0 -69 16 -86 61l-27 73h-258l-28 -85c-12 -37 -35 -49 -84 -49c-38 0 -58 6 -72 20l232 656c-9 15 -14 34 -14 59zM312 510l-81 -253h170z
M282 735c0 -23 11 -35 33 -35h2c23 0 35 12 35 35s-12 35 -35 35s-35 -12 -35 -35z" />
    <glyph glyph-name="AE" unicode="&#xc6;" horiz-adv-x="906" 
d="M821 0h-345c-31 0 -63 8 -63 67v67h-213l-32 -85c-14 -36 -35 -49 -84 -49c-38 0 -65 6 -79 20l254 656c23 16 55 24 90 24h501c7 -10 16 -30 16 -59c0 -45 -16 -76 -45 -76h-260v-143h240c7 -10 16 -36 16 -65c0 -45 -16 -70 -41 -70h-215v-152h289c7 -10 16 -27 16 -56
c0 -45 -16 -79 -45 -79zM361 565l-114 -304h166v304h-52z" />
    <glyph glyph-name="Ccedilla" unicode="&#xc7;" horiz-adv-x="611" 
d="M377 -113c0 26 -44 35 -70 35c-5 6 -9 16 -9 25v46c-148 19 -258 128 -258 356c0 257 132 361 301 361c109 0 163 -25 197 -51c32 -24 40 -51 40 -77c0 -32 -18 -59 -41 -73c-40 31 -97 64 -189 64c-83 0 -156 -55 -156 -228c0 -169 75 -218 164 -218c72 0 138 24 178 57
c24 0 57 -18 57 -61c0 -36 -15 -57 -51 -82c-23 -16 -77 -46 -168 -50l-2 -21c62 -12 79 -44 79 -90c0 -52 -33 -92 -104 -92c-64 0 -96 29 -96 56c0 19 8 33 20 41c17 -15 44 -28 71 -28c28 0 37 13 37 30z" />
    <glyph glyph-name="Egrave" unicode="&#xc8;" horiz-adv-x="573" 
d="M443 287h-215v-152h289c7 -10 16 -28 16 -57c0 -45 -16 -78 -45 -78h-345c-31 0 -63 8 -63 67v620c13 8 32 13 69 13h368c7 -10 16 -30 16 -59c0 -45 -16 -76 -45 -76h-260v-143h240c7 -10 16 -36 16 -65c0 -45 -16 -70 -41 -70zM396 803c-5 -28 -27 -45 -55 -45
c-53 0 -132 87 -183 119c2 31 18 56 63 56c56 0 150 -120 175 -130z" />
    <glyph glyph-name="Eacute" unicode="&#xc9;" horiz-adv-x="573" 
d="M443 287h-215v-152h289c7 -10 16 -28 16 -57c0 -45 -16 -78 -45 -78h-345c-31 0 -63 8 -63 67v620c13 8 32 13 69 13h368c7 -10 16 -30 16 -59c0 -45 -16 -76 -45 -76h-260v-143h240c7 -10 16 -36 16 -65c0 -45 -16 -70 -41 -70zM242 806c25 10 119 130 175 130
c45 0 61 -25 63 -56c-51 -32 -130 -119 -183 -119c-28 0 -50 17 -55 45z" />
    <glyph glyph-name="Ecircumflex" unicode="&#xca;" horiz-adv-x="573" 
d="M443 287h-215v-152h289c7 -10 16 -28 16 -57c0 -45 -16 -78 -45 -78h-345c-31 0 -63 8 -63 67v620c13 8 32 13 69 13h368c7 -10 16 -30 16 -59c0 -45 -16 -76 -45 -76h-260v-143h240c7 -10 16 -36 16 -65c0 -45 -16 -70 -41 -70zM487 808c-3 -19 -14 -33 -29 -40
c-8 -4 -17 -5 -26 -5c-35 0 -80 37 -122 71c-42 -34 -88 -71 -122 -71c-9 0 -18 1 -26 5c-15 7 -26 21 -29 40c25 9 118 130 174 130c60 0 150 -119 180 -130z" />
    <glyph glyph-name="Edieresis" unicode="&#xcb;" horiz-adv-x="573" 
d="M443 287h-215v-152h289c7 -10 16 -28 16 -57c0 -45 -16 -78 -45 -78h-345c-31 0 -63 8 -63 67v620c13 8 32 13 69 13h368c7 -10 16 -30 16 -59c0 -45 -16 -76 -45 -76h-260v-143h240c7 -10 16 -36 16 -65c0 -45 -16 -70 -41 -70zM145 855c0 48 22 72 72 72
c48 0 72 -24 72 -72c0 -49 -24 -72 -72 -72c-49 0 -72 24 -72 72zM349 855c0 48 22 72 72 72c48 0 72 -24 72 -72c0 -49 -24 -72 -72 -72c-49 0 -72 24 -72 72z" />
    <glyph glyph-name="Igrave" unicode="&#xcc;" horiz-adv-x="308" 
d="M162 700c36 0 66 -12 66 -51v-633c-19 -10 -43 -16 -81 -16c-39 0 -67 15 -67 68v619c17 8 45 13 82 13zM246 803c-5 -28 -27 -45 -55 -45c-53 0 -132 87 -183 119c2 31 18 56 63 56c56 0 150 -120 175 -130z" />
    <glyph glyph-name="Iacute" unicode="&#xcd;" horiz-adv-x="308" 
d="M162 700c36 0 66 -12 66 -51v-633c-19 -10 -43 -16 -81 -16c-39 0 -67 15 -67 68v619c17 8 45 13 82 13zM36 806c25 10 119 130 175 130c45 0 61 -25 63 -56c-51 -32 -130 -119 -183 -119c-28 0 -50 17 -55 45z" />
    <glyph glyph-name="Icircumflex" unicode="&#xce;" horiz-adv-x="308" 
d="M162 700c36 0 66 -12 66 -51v-633c-19 -10 -43 -16 -81 -16c-39 0 -67 15 -67 68v619c17 8 45 13 82 13zM328 808c-3 -19 -14 -33 -29 -40c-8 -4 -17 -5 -26 -5c-35 0 -80 37 -122 71c-42 -34 -88 -71 -122 -71c-9 0 -18 1 -26 5c-15 7 -26 21 -29 40
c25 9 118 130 174 130c60 0 150 -119 180 -130z" />
    <glyph glyph-name="Idieresis" unicode="&#xcf;" horiz-adv-x="308" 
d="M162 700c36 0 66 -12 66 -51v-633c-19 -10 -43 -16 -81 -16c-39 0 -67 15 -67 68v619c17 8 45 13 82 13zM-20 855c0 48 22 72 72 72c48 0 72 -24 72 -72c0 -49 -24 -72 -72 -72c-49 0 -72 24 -72 72zM184 855c0 48 22 72 72 72c48 0 72 -24 72 -72c0 -49 -24 -72 -72 -72
c-49 0 -72 24 -72 72z" />
    <glyph glyph-name="Eth" unicode="&#xd0;" horiz-adv-x="678" 
d="M154 700h141c209 0 343 -98 343 -360c0 -244 -137 -340 -330 -340h-155c-38 0 -73 8 -73 67v202h-65c-9 19 -16 37 -16 68c0 40 16 70 67 70h14v281c13 7 37 12 74 12zM294 565h-66v-158h133c8 -12 14 -34 14 -65c0 -44 -16 -73 -71 -73h-76v-134h75
c118 0 183 58 183 202c0 170 -79 228 -192 228z" />
    <glyph glyph-name="Ntilde" unicode="&#xd1;" horiz-adv-x="720" 
d="M493 38l-272 392l7 -415c-9 -9 -51 -16 -85 -16c-31 0 -63 9 -63 68v620c19 8 49 13 80 13c33 0 56 -18 69 -38l266 -394l-4 414c15 12 37 19 72 19c34 0 77 -12 77 -51v-638c-12 -7 -37 -12 -76 -12c-32 0 -55 15 -71 38zM286 903c66 0 106 -36 148 -36
c45 0 61 35 63 42c13 -5 30 -38 30 -65c0 -36 -24 -78 -82 -78c-68 0 -103 35 -159 35c-33 0 -52 -28 -55 -43c-22 6 -28 36 -28 58c0 29 16 87 83 87z" />
    <glyph glyph-name="Ograve" unicode="&#xd2;" horiz-adv-x="687" 
d="M40 349c0 257 138 361 303 361c172 0 304 -104 304 -361c0 -258 -135 -359 -303 -359c-169 0 -304 106 -304 359zM192 345c0 -166 74 -218 152 -218c88 0 151 48 151 218c0 173 -68 228 -152 228c-79 0 -151 -55 -151 -228zM430 789c-5 -28 -27 -45 -55 -45
c-53 0 -132 87 -183 119c2 31 18 56 63 56c56 0 150 -120 175 -130z" />
    <glyph glyph-name="Oacute" unicode="&#xd3;" horiz-adv-x="687" 
d="M40 349c0 257 138 361 303 361c172 0 304 -104 304 -361c0 -258 -135 -359 -303 -359c-169 0 -304 106 -304 359zM192 345c0 -166 74 -218 152 -218c88 0 151 48 151 218c0 173 -68 228 -152 228c-79 0 -151 -55 -151 -228zM252 792c25 10 119 130 175 130
c45 0 61 -25 63 -56c-51 -32 -130 -119 -183 -119c-28 0 -50 17 -55 45z" />
    <glyph glyph-name="Ocircumflex" unicode="&#xd4;" horiz-adv-x="687" 
d="M40 349c0 257 138 361 303 361c172 0 304 -104 304 -361c0 -258 -135 -359 -303 -359c-169 0 -304 106 -304 359zM192 345c0 -166 74 -218 152 -218c88 0 151 48 151 218c0 173 -68 228 -152 228c-79 0 -151 -55 -151 -228zM520 794c-3 -19 -14 -33 -29 -40
c-8 -4 -17 -5 -26 -5c-35 0 -80 37 -122 71c-42 -34 -88 -71 -122 -71c-9 0 -18 1 -26 5c-15 7 -26 21 -29 40c25 9 118 130 174 130c60 0 150 -119 180 -130z" />
    <glyph glyph-name="Otilde" unicode="&#xd5;" horiz-adv-x="687" 
d="M40 349c0 257 138 361 303 361c172 0 304 -104 304 -361c0 -258 -135 -359 -303 -359c-169 0 -304 106 -304 359zM192 345c0 -166 74 -218 152 -218c88 0 151 48 151 218c0 173 -68 228 -152 228c-79 0 -151 -55 -151 -228zM264 903c66 0 106 -36 148 -36
c45 0 61 35 63 42c13 -5 30 -38 30 -65c0 -36 -24 -78 -82 -78c-68 0 -103 35 -159 35c-33 0 -52 -28 -55 -43c-22 6 -28 36 -28 58c0 29 16 87 83 87z" />
    <glyph glyph-name="Odieresis" unicode="&#xd6;" horiz-adv-x="687" 
d="M40 349c0 257 138 361 303 361c172 0 304 -104 304 -361c0 -258 -135 -359 -303 -359c-169 0 -304 106 -304 359zM192 345c0 -166 74 -218 152 -218c88 0 151 48 151 218c0 173 -68 228 -152 228c-79 0 -151 -55 -151 -228zM169 841c0 48 22 72 72 72c48 0 72 -24 72 -72
c0 -49 -24 -72 -72 -72c-49 0 -72 24 -72 72zM373 841c0 48 22 72 72 72c48 0 72 -24 72 -72c0 -49 -24 -72 -72 -72c-49 0 -72 24 -72 72z" />
    <glyph glyph-name="multiply" unicode="&#xd7;" horiz-adv-x="499" 
d="M185 427l64 -65l105 105c12 -2 28 -8 47 -27c22 -21 53 -68 10 -111l-64 -64l105 -105c-7 -20 -15 -37 -34 -56c-30 -30 -58 -48 -105 -1l-64 64l-105 -105c-20 7 -38 15 -56 33c-31 30 -48 58 -1 105l64 64l-105 106c2 12 9 29 27 47c22 22 69 53 112 10z" />
    <glyph glyph-name="Oslash" unicode="&#xd8;" horiz-adv-x="687" 
d="M40 349c0 257 138 361 303 361c37 0 73 -5 106 -16l51 108c15 5 31 5 46 5c32 0 53 -21 53 -37c0 -8 -1 -14 -5 -23l-50 -106c64 -57 103 -152 103 -292c0 -258 -135 -359 -303 -359c-36 0 -71 5 -103 15l-59 -126c-13 -3 -23 -4 -36 -4c-26 0 -59 17 -59 38
c0 9 2 18 7 29l54 114c-67 57 -108 152 -108 293zM192 345c0 -61 10 -107 26 -140l171 361c-15 5 -30 7 -46 7c-79 0 -151 -55 -151 -228zM495 345c0 62 -9 108 -24 143l-169 -356c13 -4 28 -5 42 -5c88 0 151 48 151 218z" />
    <glyph glyph-name="Ugrave" unicode="&#xd9;" horiz-adv-x="678" 
d="M460 276v411c13 8 38 13 75 13c41 0 73 -12 73 -51v-394c0 -182 -100 -265 -272 -265s-266 83 -266 265v433c13 8 45 12 77 12c43 0 71 -11 71 -50v-374c0 -96 37 -149 118 -149c92 0 124 52 124 149zM427 789c-5 -28 -27 -45 -55 -45c-53 0 -132 87 -183 119
c2 31 18 56 63 56c56 0 150 -120 175 -130z" />
    <glyph glyph-name="Uacute" unicode="&#xda;" horiz-adv-x="678" 
d="M460 276v411c13 8 38 13 75 13c41 0 73 -12 73 -51v-394c0 -182 -100 -265 -272 -265s-266 83 -266 265v433c13 8 45 12 77 12c43 0 71 -11 71 -50v-374c0 -96 37 -149 118 -149c92 0 124 52 124 149zM258 792c25 10 119 130 175 130c45 0 61 -25 63 -56
c-51 -32 -130 -119 -183 -119c-28 0 -50 17 -55 45z" />
    <glyph glyph-name="Ucircumflex" unicode="&#xdb;" horiz-adv-x="678" 
d="M460 276v411c13 8 38 13 75 13c41 0 73 -12 73 -51v-394c0 -182 -100 -265 -272 -265s-266 83 -266 265v433c13 8 45 12 77 12c43 0 71 -11 71 -50v-374c0 -96 37 -149 118 -149c92 0 124 52 124 149zM516 794c-3 -19 -14 -33 -29 -40c-8 -4 -17 -5 -26 -5
c-35 0 -80 37 -122 71c-42 -34 -88 -71 -122 -71c-9 0 -18 1 -26 5c-15 7 -26 21 -29 40c25 9 118 130 174 130c60 0 150 -119 180 -130z" />
    <glyph glyph-name="Udieresis" unicode="&#xdc;" horiz-adv-x="678" 
d="M460 276v411c13 8 38 13 75 13c41 0 73 -12 73 -51v-394c0 -182 -100 -265 -272 -265s-266 83 -266 265v433c13 8 45 12 77 12c43 0 71 -11 71 -50v-374c0 -96 37 -149 118 -149c92 0 124 52 124 149zM165 841c0 48 22 72 72 72c48 0 72 -24 72 -72
c0 -49 -24 -72 -72 -72c-49 0 -72 24 -72 72zM369 841c0 48 22 72 72 72c48 0 72 -24 72 -72c0 -49 -24 -72 -72 -72c-49 0 -72 24 -72 72z" />
    <glyph glyph-name="Yacute" unicode="&#xdd;" horiz-adv-x="569" 
d="M370 243v-227c-12 -8 -41 -16 -83 -16s-65 13 -65 46v192c-87 144 -182 308 -217 444c19 10 48 18 81 18c39 0 80 -7 92 -45c38 -118 76 -187 129 -282c69 120 113 242 132 320c15 5 47 7 75 7c30 0 50 -20 50 -51c0 -72 -117 -292 -194 -406zM235 792
c25 10 119 130 175 130c45 0 61 -25 63 -56c-51 -32 -130 -119 -183 -119c-28 0 -50 17 -55 45z" />
    <glyph glyph-name="Thorn" unicode="&#xde;" horiz-adv-x="626" 
d="M168 700c32 0 60 -14 60 -43v-69h136c105 0 222 -53 222 -214c0 -199 -140 -235 -234 -235h-124v-126c-14 -8 -48 -13 -82 -13c-36 0 -66 13 -66 67v622c19 8 51 11 88 11zM344 463h-116v-199h102c68 0 104 26 104 98c0 76 -40 101 -90 101z" />
    <glyph glyph-name="germandbls" unicode="&#xdf;" horiz-adv-x="645" 
d="M514 362c-12 2 -46 5 -66 5c-35 0 -51 -11 -51 -30c0 -16 16 -19 66 -31c105 -25 152 -60 152 -156c0 -87 -51 -160 -180 -160c-109 0 -172 44 -172 94c0 39 9 54 21 73c33 -18 92 -36 153 -36c37 0 52 11 52 25c0 15 -10 23 -71 35c-95 19 -147 65 -147 157
c0 84 43 138 123 151c1 5 2 11 2 20c0 37 -26 58 -82 58c-54 0 -98 -26 -98 -130v-404c0 -20 -30 -33 -67 -33c-30 0 -60 5 -79 15v442c0 155 103 243 245 243c113 0 217 -53 217 -197c0 -70 -10 -127 -18 -141z" />
    <glyph glyph-name="agrave" unicode="&#xe0;" horiz-adv-x="568" 
d="M449 0c-35 0 -65 15 -85 40c-36 -34 -77 -50 -132 -50c-88 0 -197 71 -197 258c0 181 89 262 189 262c59 0 95 -27 115 -57v10c0 26 33 37 61 37s59 -7 81 -17v-346c0 -24 9 -33 45 -33h13c5 -14 9 -22 9 -44c0 -31 -33 -60 -99 -60zM268 120c27 0 49 7 68 17v182
c-15 28 -40 61 -78 61c-40 0 -73 -46 -73 -131c0 -90 33 -129 83 -129zM357 579c-5 -28 -27 -45 -55 -45c-53 0 -132 87 -183 119c2 31 18 56 63 56c56 0 150 -120 175 -130z" />
    <glyph glyph-name="aacute" unicode="&#xe1;" horiz-adv-x="568" 
d="M449 0c-35 0 -65 15 -85 40c-36 -34 -77 -50 -132 -50c-88 0 -197 71 -197 258c0 181 89 262 189 262c59 0 95 -27 115 -57v10c0 26 33 37 61 37s59 -7 81 -17v-346c0 -24 9 -33 45 -33h13c5 -14 9 -22 9 -44c0 -31 -33 -60 -99 -60zM268 120c27 0 49 7 68 17v182
c-15 28 -40 61 -78 61c-40 0 -73 -46 -73 -131c0 -90 33 -129 83 -129zM199 582c25 10 119 130 175 130c45 0 61 -25 63 -56c-51 -32 -130 -119 -183 -119c-28 0 -50 17 -55 45z" />
    <glyph glyph-name="acircumflex" unicode="&#xe2;" horiz-adv-x="568" 
d="M449 0c-35 0 -65 15 -85 40c-36 -34 -77 -50 -132 -50c-88 0 -197 71 -197 258c0 181 89 262 189 262c59 0 95 -27 115 -57v10c0 26 33 37 61 37s59 -7 81 -17v-346c0 -24 9 -33 45 -33h13c5 -14 9 -22 9 -44c0 -31 -33 -60 -99 -60zM268 120c27 0 49 7 68 17v182
c-15 28 -40 61 -78 61c-40 0 -73 -46 -73 -131c0 -90 33 -129 83 -129zM452 584c-3 -19 -14 -33 -29 -40c-8 -4 -17 -5 -26 -5c-35 0 -80 37 -122 71c-42 -34 -88 -71 -122 -71c-9 0 -18 1 -26 5c-15 7 -26 21 -29 40c25 9 118 130 174 130c60 0 150 -119 180 -130z" />
    <glyph glyph-name="atilde" unicode="&#xe3;" horiz-adv-x="568" 
d="M449 0c-35 0 -65 15 -85 40c-36 -34 -77 -50 -132 -50c-88 0 -197 71 -197 258c0 181 89 262 189 262c59 0 95 -27 115 -57v10c0 26 33 37 61 37s59 -7 81 -17v-346c0 -24 9 -33 45 -33h13c5 -14 9 -22 9 -44c0 -31 -33 -60 -99 -60zM268 120c27 0 49 7 68 17v182
c-15 28 -40 61 -78 61c-40 0 -73 -46 -73 -131c0 -90 33 -129 83 -129zM197 693c66 0 106 -36 148 -36c45 0 61 35 63 42c13 -5 30 -38 30 -65c0 -36 -24 -78 -82 -78c-68 0 -103 35 -159 35c-33 0 -52 -28 -55 -43c-22 6 -28 36 -28 58c0 29 16 87 83 87z" />
    <glyph glyph-name="adieresis" unicode="&#xe4;" horiz-adv-x="568" 
d="M449 0c-35 0 -65 15 -85 40c-36 -34 -77 -50 -132 -50c-88 0 -197 71 -197 258c0 181 89 262 189 262c59 0 95 -27 115 -57v10c0 26 33 37 61 37s59 -7 81 -17v-346c0 -24 9 -33 45 -33h13c5 -14 9 -22 9 -44c0 -31 -33 -60 -99 -60zM268 120c27 0 49 7 68 17v182
c-15 28 -40 61 -78 61c-40 0 -73 -46 -73 -131c0 -90 33 -129 83 -129zM97 631c0 48 22 72 72 72c48 0 72 -24 72 -72c0 -49 -24 -72 -72 -72c-49 0 -72 24 -72 72zM301 631c0 48 22 72 72 72c48 0 72 -24 72 -72c0 -49 -24 -72 -72 -72c-49 0 -72 24 -72 72z" />
    <glyph glyph-name="aring" unicode="&#xe5;" horiz-adv-x="568" 
d="M449 0c-35 0 -65 15 -85 40c-36 -34 -77 -50 -132 -50c-88 0 -197 71 -197 258c0 181 89 262 189 262c59 0 95 -27 115 -57v10c0 26 33 37 61 37s59 -7 81 -17v-346c0 -24 9 -33 45 -33h13c5 -14 9 -22 9 -44c0 -31 -33 -60 -99 -60zM268 120c27 0 49 7 68 17v182
c-15 28 -40 61 -78 61c-40 0 -73 -46 -73 -131c0 -90 33 -129 83 -129zM178 634c0 62 32 94 94 94s94 -32 94 -94s-32 -94 -94 -94s-94 32 -94 94zM237 634c0 -23 12 -35 35 -35s35 12 35 35s-12 35 -35 35s-35 -12 -35 -35z" />
    <glyph glyph-name="ae" unicode="&#xe6;" horiz-adv-x="767" 
d="M79 359c-7 16 -17 37 -17 59c0 76 106 92 172 92c69 0 120 -19 153 -54c42 35 95 54 151 54c124 0 199 -89 199 -225c0 -28 -3 -56 -10 -77h-282c11 -61 47 -93 103 -93c53 0 104 10 155 39c11 -10 24 -29 24 -57c0 -68 -79 -107 -196 -107c-77 0 -137 31 -176 83
c-54 -47 -127 -83 -193 -83c-91 0 -142 63 -142 163c0 74 35 127 105 147c44 12 117 9 176 9c-6 48 -37 76 -85 76c-50 0 -101 -13 -137 -26zM189 112c41 0 70 11 125 49c-3 11 -5 22 -7 34l-2 18l-111 -13c-34 -4 -47 -22 -47 -46c0 -22 15 -42 42 -42zM537 385
c-41 0 -76 -29 -91 -84h160c0 55 -24 84 -69 84z" />
    <glyph glyph-name="ccedilla" unicode="&#xe7;" horiz-adv-x="453" 
d="M294 -113c0 26 -44 35 -70 35c-5 6 -9 16 -9 25v49c-110 24 -180 118 -180 248c0 201 137 266 242 266c66 0 95 -14 123 -33c15 -10 29 -30 29 -61c0 -19 -12 -46 -32 -69c-48 18 -70 33 -116 33c-49 0 -96 -43 -96 -137c0 -81 42 -123 101 -123c55 0 96 15 130 33
c9 -11 17 -31 17 -60c0 -34 -14 -58 -39 -74c-16 -10 -53 -26 -105 -28l-2 -21c62 -12 79 -44 79 -90c0 -52 -33 -92 -104 -92c-64 0 -96 29 -96 56c0 19 8 33 20 41c17 -15 44 -28 71 -28c28 0 37 13 37 30z" />
    <glyph glyph-name="egrave" unicode="&#xe8;" horiz-adv-x="507" 
d="M467 208h-282c12 -62 43 -93 111 -93c58 0 117 19 147 39c11 -10 24 -29 24 -57c0 -72 -92 -107 -196 -107c-156 0 -236 111 -236 266c0 163 104 254 236 254c124 0 206 -89 206 -225c0 -28 -3 -56 -10 -77zM272 385c-42 0 -74 -29 -86 -84h160c0 55 -29 84 -74 84z
M368 579c-5 -28 -27 -45 -55 -45c-53 0 -132 87 -183 119c2 31 18 56 63 56c56 0 150 -120 175 -130z" />
    <glyph glyph-name="eacute" unicode="&#xe9;" horiz-adv-x="507" 
d="M467 208h-282c12 -62 43 -93 111 -93c58 0 117 19 147 39c11 -10 24 -29 24 -57c0 -72 -92 -107 -196 -107c-156 0 -236 111 -236 266c0 163 104 254 236 254c124 0 206 -89 206 -225c0 -28 -3 -56 -10 -77zM272 385c-42 0 -74 -29 -86 -84h160c0 55 -29 84 -74 84z
M188 582c25 10 119 130 175 130c45 0 61 -25 63 -56c-51 -32 -130 -119 -183 -119c-28 0 -50 17 -55 45z" />
    <glyph glyph-name="ecircumflex" unicode="&#xea;" horiz-adv-x="507" 
d="M467 208h-282c12 -62 43 -93 111 -93c58 0 117 19 147 39c11 -10 24 -29 24 -57c0 -72 -92 -107 -196 -107c-156 0 -236 111 -236 266c0 163 104 254 236 254c124 0 206 -89 206 -225c0 -28 -3 -56 -10 -77zM272 385c-42 0 -74 -29 -86 -84h160c0 55 -29 84 -74 84z
M441 584c-3 -19 -14 -33 -29 -40c-8 -4 -17 -5 -26 -5c-35 0 -80 37 -122 71c-42 -34 -88 -71 -122 -71c-9 0 -18 1 -26 5c-15 7 -26 21 -29 40c25 9 118 130 174 130c60 0 150 -119 180 -130z" />
    <glyph glyph-name="edieresis" unicode="&#xeb;" horiz-adv-x="507" 
d="M467 208h-282c12 -62 43 -93 111 -93c58 0 117 19 147 39c11 -10 24 -29 24 -57c0 -72 -92 -107 -196 -107c-156 0 -236 111 -236 266c0 163 104 254 236 254c124 0 206 -89 206 -225c0 -28 -3 -56 -10 -77zM272 385c-42 0 -74 -29 -86 -84h160c0 55 -29 84 -74 84z
M94 631c0 48 22 72 72 72c48 0 72 -24 72 -72c0 -49 -24 -72 -72 -72c-49 0 -72 24 -72 72zM298 631c0 48 22 72 72 72c48 0 72 -24 72 -72c0 -49 -24 -72 -72 -72c-49 0 -72 24 -72 72z" />
    <glyph glyph-name="igrave" unicode="&#xec;" horiz-adv-x="319" 
d="M124 500c55 0 108 -17 108 -117v-247c0 -21 7 -30 22 -30h33c5 -11 8 -22 8 -43c0 -38 -31 -63 -107 -63c-66 0 -101 25 -101 112v231c0 24 -11 31 -24 31h-29c-6 12 -8 27 -8 51c0 53 37 75 98 75zM234 579c-5 -28 -27 -45 -55 -45c-53 0 -132 87 -183 119
c2 31 18 56 63 56c56 0 150 -120 175 -130z" />
    <glyph glyph-name="iacute" unicode="&#xed;" horiz-adv-x="319" 
d="M124 500c55 0 108 -17 108 -117v-247c0 -21 7 -30 22 -30h33c5 -11 8 -22 8 -43c0 -38 -31 -63 -107 -63c-66 0 -101 25 -101 112v231c0 24 -11 31 -24 31h-29c-6 12 -8 27 -8 51c0 53 37 75 98 75zM53 582c25 10 119 130 175 130c45 0 61 -25 63 -56
c-51 -32 -130 -119 -183 -119c-28 0 -50 17 -55 45z" />
    <glyph glyph-name="icircumflex" unicode="&#xee;" horiz-adv-x="319" 
d="M124 500c55 0 108 -17 108 -117v-247c0 -21 7 -30 22 -30h33c5 -11 8 -22 8 -43c0 -38 -31 -63 -107 -63c-66 0 -101 25 -101 112v231c0 24 -11 31 -24 31h-29c-6 12 -8 27 -8 51c0 53 37 75 98 75zM329 584c-3 -19 -14 -33 -29 -40c-8 -4 -17 -5 -26 -5
c-35 0 -80 37 -122 71c-42 -34 -88 -71 -122 -71c-9 0 -18 1 -26 5c-15 7 -26 21 -29 40c25 9 118 130 174 130c60 0 150 -119 180 -130z" />
    <glyph glyph-name="idieresis" unicode="&#xef;" horiz-adv-x="319" 
d="M124 500c55 0 108 -17 108 -117v-247c0 -21 7 -30 22 -30h33c5 -11 8 -22 8 -43c0 -38 -31 -63 -107 -63c-66 0 -101 25 -101 112v231c0 24 -11 31 -24 31h-29c-6 12 -8 27 -8 51c0 53 37 75 98 75zM-29 631c0 48 22 72 72 72c48 0 72 -24 72 -72c0 -49 -24 -72 -72 -72
c-49 0 -72 24 -72 72zM175 631c0 48 22 72 72 72c48 0 72 -24 72 -72c0 -49 -24 -72 -72 -72c-49 0 -72 24 -72 72z" />
    <glyph glyph-name="eth" unicode="&#xf0;" horiz-adv-x="513" 
d="M435 555l-10 -2c36 -85 63 -184 63 -279c0 -210 -102 -280 -232 -280s-231 70 -231 250c0 183 103 230 195 230c31 0 58 -7 81 -17c-9 24 -19 48 -30 69l-93 -16c-16 14 -23 34 -23 57c0 20 10 37 52 45l11 2c-10 13 -19 24 -27 32c12 23 33 46 50 55c19 10 44 19 65 19
c13 0 23 -3 30 -12c14 -19 29 -41 44 -66l81 15c17 -7 24 -26 24 -45c0 -21 -9 -49 -50 -57zM337 272c0 21 -2 41 -5 62c-24 12 -56 22 -85 22c-34 0 -73 -19 -73 -114c0 -93 40 -122 82 -122c47 0 81 30 81 152z" />
    <glyph glyph-name="ntilde" unicode="&#xf1;" horiz-adv-x="600" 
d="M114 500c57 0 93 -27 110 -71c46 52 96 81 159 81c75 0 136 -43 136 -158v-231c0 -17 8 -26 21 -26h34c4 -7 6 -13 6 -33c0 -38 -40 -62 -114 -62c-64 0 -92 26 -92 97v215c0 43 -10 68 -49 68c-34 0 -65 -22 -93 -53v-313c-16 -10 -37 -14 -76 -14c-36 0 -69 15 -69 74
v269c0 21 -9 31 -28 31h-31c-8 17 -13 32 -13 56c0 48 36 70 99 70zM235 688c66 0 106 -36 148 -36c45 0 61 35 63 42c13 -5 30 -38 30 -65c0 -36 -24 -78 -82 -78c-68 0 -103 35 -159 35c-33 0 -52 -28 -55 -43c-22 6 -28 36 -28 58c0 29 16 87 83 87z" />
    <glyph glyph-name="ograve" unicode="&#xf2;" horiz-adv-x="553" 
d="M35 248c0 185 106 262 241 262c139 0 242 -77 242 -262c0 -186 -106 -258 -242 -258c-137 0 -241 76 -241 258zM185 246c0 -95 44 -126 91 -126c52 0 92 29 92 126s-42 134 -92 134c-48 0 -91 -37 -91 -134zM357 579c-5 -28 -27 -45 -55 -45c-53 0 -132 87 -183 119
c2 31 18 56 63 56c56 0 150 -120 175 -130z" />
    <glyph glyph-name="oacute" unicode="&#xf3;" horiz-adv-x="553" 
d="M35 248c0 185 106 262 241 262c139 0 242 -77 242 -262c0 -186 -106 -258 -242 -258c-137 0 -241 76 -241 258zM185 246c0 -95 44 -126 91 -126c52 0 92 29 92 126s-42 134 -92 134c-48 0 -91 -37 -91 -134zM188 582c25 10 119 130 175 130c45 0 61 -25 63 -56
c-51 -32 -130 -119 -183 -119c-28 0 -50 17 -55 45z" />
    <glyph glyph-name="ocircumflex" unicode="&#xf4;" horiz-adv-x="553" 
d="M35 248c0 185 106 262 241 262c139 0 242 -77 242 -262c0 -186 -106 -258 -242 -258c-137 0 -241 76 -241 258zM185 246c0 -95 44 -126 91 -126c52 0 92 29 92 126s-42 134 -92 134c-48 0 -91 -37 -91 -134zM455 584c-3 -19 -14 -33 -29 -40c-8 -4 -17 -5 -26 -5
c-35 0 -80 37 -122 71c-42 -34 -88 -71 -122 -71c-9 0 -18 1 -26 5c-15 7 -26 21 -29 40c25 9 118 130 174 130c60 0 150 -119 180 -130z" />
    <glyph glyph-name="otilde" unicode="&#xf5;" horiz-adv-x="553" 
d="M35 248c0 185 106 262 241 262c139 0 242 -77 242 -262c0 -186 -106 -258 -242 -258c-137 0 -241 76 -241 258zM185 246c0 -95 44 -126 91 -126c52 0 92 29 92 126s-42 134 -92 134c-48 0 -91 -37 -91 -134zM197 693c66 0 106 -36 148 -36c45 0 61 35 63 42
c13 -5 30 -38 30 -65c0 -36 -24 -78 -82 -78c-68 0 -103 35 -159 35c-33 0 -52 -28 -55 -43c-22 6 -28 36 -28 58c0 29 16 87 83 87z" />
    <glyph glyph-name="odieresis" unicode="&#xf6;" horiz-adv-x="553" 
d="M35 248c0 185 106 262 241 262c139 0 242 -77 242 -262c0 -186 -106 -258 -242 -258c-137 0 -241 76 -241 258zM185 246c0 -95 44 -126 91 -126c52 0 92 29 92 126s-42 134 -92 134c-48 0 -91 -37 -91 -134zM102 631c0 48 22 72 72 72c48 0 72 -24 72 -72
c0 -49 -24 -72 -72 -72c-49 0 -72 24 -72 72zM306 631c0 48 22 72 72 72c48 0 72 -24 72 -72c0 -49 -24 -72 -72 -72c-49 0 -72 24 -72 72z" />
    <glyph glyph-name="divide" unicode="&#xf7;" horiz-adv-x="499" 
d="M177 72c0 48 22 72 72 72c48 0 72 -24 72 -72c0 -49 -24 -72 -72 -72c-49 0 -72 24 -72 72zM177 427c0 48 22 72 72 72c48 0 72 -24 72 -72c0 -49 -24 -72 -72 -72c-49 0 -72 24 -72 72zM388 185h-327c-9 19 -16 37 -16 73c0 34 16 65 57 65h338c9 -17 14 -42 14 -68
c0 -31 -11 -70 -66 -70z" />
    <glyph glyph-name="oslash" unicode="&#xf8;" horiz-adv-x="553" 
d="M35 248c0 185 106 262 241 262c19 0 38 -2 55 -5l38 105c11 4 24 7 36 7c20 0 33 -6 33 -21c0 -8 -2 -17 -5 -25l-32 -88c72 -37 117 -112 117 -235c0 -186 -106 -258 -242 -258c-17 0 -34 1 -50 4l-31 -88c-13 -7 -20 -9 -40 -9c-14 0 -29 7 -29 20c0 9 2 20 6 31l24 67
c-73 35 -121 110 -121 233zM185 246c0 -41 8 -70 21 -90l80 223c-3 1 -7 1 -10 1c-48 0 -91 -37 -91 -134zM368 246c0 40 -7 70 -19 91l-78 -217h5c52 0 92 29 92 126z" />
    <glyph glyph-name="ugrave" unicode="&#xf9;" horiz-adv-x="590" 
d="M458 0c-34 0 -72 11 -91 59c-41 -43 -92 -69 -154 -69c-67 0 -132 43 -132 158v198c0 21 -8 28 -23 28h-45c-5 16 -7 28 -7 50c0 54 57 76 117 76c74 0 103 -24 103 -93v-229c0 -40 14 -58 43 -58c42 0 67 26 89 57v307c19 10 47 16 78 16c50 0 67 -19 67 -55v-298
c0 -24 12 -31 26 -31h36c2 -8 4 -17 4 -45c0 -41 -28 -71 -111 -71zM347 579c-5 -28 -27 -45 -55 -45c-53 0 -132 87 -183 119c2 31 18 56 63 56c56 0 150 -120 175 -130z" />
    <glyph glyph-name="uacute" unicode="&#xfa;" horiz-adv-x="590" 
d="M458 0c-34 0 -72 11 -91 59c-41 -43 -92 -69 -154 -69c-67 0 -132 43 -132 158v198c0 21 -8 28 -23 28h-45c-5 16 -7 28 -7 50c0 54 57 76 117 76c74 0 103 -24 103 -93v-229c0 -40 14 -58 43 -58c42 0 67 26 89 57v307c19 10 47 16 78 16c50 0 67 -19 67 -55v-298
c0 -24 12 -31 26 -31h36c2 -8 4 -17 4 -45c0 -41 -28 -71 -111 -71zM219 582c25 10 119 130 175 130c45 0 61 -25 63 -56c-51 -32 -130 -119 -183 -119c-28 0 -50 17 -55 45z" />
    <glyph glyph-name="ucircumflex" unicode="&#xfb;" horiz-adv-x="590" 
d="M458 0c-34 0 -72 11 -91 59c-41 -43 -92 -69 -154 -69c-67 0 -132 43 -132 158v198c0 21 -8 28 -23 28h-45c-5 16 -7 28 -7 50c0 54 57 76 117 76c74 0 103 -24 103 -93v-229c0 -40 14 -58 43 -58c42 0 67 26 89 57v307c19 10 47 16 78 16c50 0 67 -19 67 -55v-298
c0 -24 12 -31 26 -31h36c2 -8 4 -17 4 -45c0 -41 -28 -71 -111 -71zM468 584c-3 -19 -14 -33 -29 -40c-8 -4 -17 -5 -26 -5c-35 0 -80 37 -122 71c-42 -34 -88 -71 -122 -71c-9 0 -18 1 -26 5c-15 7 -26 21 -29 40c25 9 118 130 174 130c60 0 150 -119 180 -130z" />
    <glyph glyph-name="udieresis" unicode="&#xfc;" horiz-adv-x="590" 
d="M458 0c-34 0 -72 11 -91 59c-41 -43 -92 -69 -154 -69c-67 0 -132 43 -132 158v198c0 21 -8 28 -23 28h-45c-5 16 -7 28 -7 50c0 54 57 76 117 76c74 0 103 -24 103 -93v-229c0 -40 14 -58 43 -58c42 0 67 26 89 57v307c19 10 47 16 78 16c50 0 67 -19 67 -55v-298
c0 -24 12 -31 26 -31h36c2 -8 4 -17 4 -45c0 -41 -28 -71 -111 -71zM119 631c0 48 22 72 72 72c48 0 72 -24 72 -72c0 -49 -24 -72 -72 -72c-49 0 -72 24 -72 72zM323 631c0 48 22 72 72 72c48 0 72 -24 72 -72c0 -49 -24 -72 -72 -72c-49 0 -72 24 -72 72z" />
    <glyph glyph-name="yacute" unicode="&#xfd;" horiz-adv-x="540" 
d="M27 -98h59c62 0 113 64 150 128c-32 8 -55 36 -68 71l-95 261c-7 19 -15 26 -29 26h-35c-7 15 -9 34 -9 50c0 37 37 62 103 62c56 0 88 -27 105 -81l77 -241c4 -13 7 -18 15 -23c41 84 71 159 71 204c0 18 -8 29 -24 29h-31c-5 11 -9 30 -9 50c0 38 44 62 96 62
c82 0 112 -39 112 -101c0 -94 -85 -278 -159 -411c-69 -124 -154 -200 -256 -200c-54 0 -84 20 -84 64c0 15 2 29 11 50zM207 582c25 10 119 130 175 130c45 0 61 -25 63 -56c-51 -32 -130 -119 -183 -119c-28 0 -50 17 -55 45z" />
    <glyph glyph-name="thorn" unicode="&#xfe;" horiz-adv-x="557" 
d="M140 -212c-37 0 -70 15 -70 74v824c21 9 36 14 75 14c37 0 70 -15 70 -74v-180c37 39 81 64 128 64c102 0 179 -79 179 -252c0 -174 -78 -268 -199 -268c-41 0 -77 13 -108 37v-225c-21 -9 -36 -14 -75 -14zM215 159c18 -18 55 -39 82 -39c56 0 75 54 75 122
c0 86 -28 138 -78 138c-28 0 -57 -19 -79 -49v-172z" />
    <glyph glyph-name="ydieresis" unicode="&#xff;" horiz-adv-x="540" 
d="M27 -98h59c62 0 113 64 150 128c-32 8 -55 36 -68 71l-95 261c-7 19 -15 26 -29 26h-35c-7 15 -9 34 -9 50c0 37 37 62 103 62c56 0 88 -27 105 -81l77 -241c4 -13 7 -18 15 -23c41 84 71 159 71 204c0 18 -8 29 -24 29h-31c-5 11 -9 30 -9 50c0 38 44 62 96 62
c82 0 112 -39 112 -101c0 -94 -85 -278 -159 -411c-69 -124 -154 -200 -256 -200c-54 0 -84 20 -84 64c0 15 2 29 11 50zM106 631c0 48 22 72 72 72c48 0 72 -24 72 -72c0 -49 -24 -72 -72 -72c-49 0 -72 24 -72 72zM310 631c0 48 22 72 72 72c48 0 72 -24 72 -72
c0 -49 -24 -72 -72 -72c-49 0 -72 24 -72 72z" />
    <glyph glyph-name="Amacron" unicode="&#x100;" horiz-adv-x="640" 
d="M77 0c-38 0 -58 6 -72 20l233 657c21 12 40 23 87 23c43 0 66 -20 77 -49l233 -620c-15 -26 -48 -31 -75 -31c-40 0 -69 16 -86 61l-27 73h-258l-28 -85c-12 -37 -35 -49 -84 -49zM312 510l-81 -253h170zM423 768h-262c-9 14 -16 28 -16 47c0 33 7 57 74 57h262
c7 -8 14 -20 14 -39c0 -24 -11 -65 -72 -65z" />
    <glyph glyph-name="amacron" unicode="&#x101;" horiz-adv-x="568" 
d="M449 0c-35 0 -65 15 -85 40c-36 -34 -77 -50 -132 -50c-88 0 -197 71 -197 258c0 181 89 262 189 262c59 0 95 -27 115 -57v10c0 26 33 37 61 37s59 -7 81 -17v-346c0 -24 9 -33 45 -33h13c5 -14 9 -22 9 -44c0 -31 -33 -60 -99 -60zM268 120c27 0 49 7 68 17v182
c-15 28 -40 61 -78 61c-40 0 -73 -46 -73 -131c0 -90 33 -129 83 -129zM381 558h-262c-9 14 -16 28 -16 47c0 33 7 57 74 57h262c7 -8 14 -20 14 -39c0 -24 -11 -65 -72 -65z" />
    <glyph glyph-name="Abreve" unicode="&#x102;" horiz-adv-x="640" 
d="M77 0c-38 0 -58 6 -72 20l233 657c21 12 40 23 87 23c43 0 66 -20 77 -49l233 -620c-15 -26 -48 -31 -75 -31c-40 0 -69 16 -86 61l-27 73h-258l-28 -85c-12 -37 -35 -49 -84 -49zM312 510l-81 -253h170zM247 904c1 -12 5 -26 15 -38c11 -13 30 -22 59 -22
c27 0 43 7 53 18c11 11 15 26 19 38c10 8 29 12 54 11c33 -2 44 -23 38 -46c-9 -30 -22 -57 -48 -77c-25 -20 -62 -32 -115 -32c-56 0 -95 13 -122 34c-28 22 -41 51 -46 82c-3 24 9 37 37 40c22 2 42 -2 56 -8z" />
    <glyph glyph-name="abreve" unicode="&#x103;" horiz-adv-x="568" 
d="M449 0c-35 0 -65 15 -85 40c-36 -34 -77 -50 -132 -50c-88 0 -197 71 -197 258c0 181 89 262 189 262c59 0 95 -27 115 -57v10c0 26 33 37 61 37s59 -7 81 -17v-346c0 -24 9 -33 45 -33h13c5 -14 9 -22 9 -44c0 -31 -33 -60 -99 -60zM268 120c27 0 49 7 68 17v182
c-15 28 -40 61 -78 61c-40 0 -73 -46 -73 -131c0 -90 33 -129 83 -129zM203 694c1 -12 5 -26 15 -38c11 -13 30 -22 59 -22c27 0 43 7 53 18c11 11 15 26 19 38c10 8 29 12 54 11c33 -2 44 -23 38 -46c-9 -30 -22 -57 -48 -77c-25 -20 -62 -32 -115 -32
c-56 0 -95 13 -122 34c-28 22 -41 51 -46 82c-3 24 9 37 37 40c22 2 42 -2 56 -8z" />
    <glyph glyph-name="Aogonek" unicode="&#x104;" horiz-adv-x="640" 
d="M77 0c-38 0 -58 6 -72 20l233 657c21 12 40 23 87 23c43 0 66 -20 77 -49l233 -620c-8 -13 -20 -21 -34 -26c-24 -37 -43 -59 -43 -87c0 -25 13 -34 46 -34c6 -11 8 -20 8 -34c0 -16 -4 -39 -51 -39c-53 0 -83 36 -83 85c0 45 20 83 41 111c-20 9 -35 26 -45 54l-27 73
h-258l-28 -85c-12 -37 -35 -49 -84 -49zM312 510l-81 -253h170z" />
    <glyph glyph-name="aogonek" unicode="&#x105;" horiz-adv-x="568" 
d="M548 60c0 -15 -8 -29 -23 -40c-24 -38 -44 -60 -44 -88c0 -25 13 -34 46 -34c6 -11 8 -20 8 -34c0 -16 -4 -39 -51 -39c-53 0 -83 36 -83 85c0 35 12 66 28 91c-26 5 -49 19 -65 39c-36 -34 -77 -50 -132 -50c-88 0 -197 71 -197 258c0 181 89 262 189 262
c59 0 95 -27 115 -57v10c0 26 33 37 61 37s59 -7 81 -17v-346c0 -24 9 -33 45 -33h13c5 -14 9 -22 9 -44zM268 120c27 0 49 7 68 17v182c-15 28 -40 61 -78 61c-40 0 -73 -46 -73 -131c0 -90 33 -129 83 -129z" />
    <glyph glyph-name="Cacute" unicode="&#x106;" horiz-adv-x="611" 
d="M534 184c24 0 57 -18 57 -61c0 -36 -15 -57 -51 -82c-25 -17 -86 -51 -192 -51c-172 0 -308 106 -308 359c0 257 132 361 301 361c109 0 163 -25 197 -51c32 -24 40 -51 40 -77c0 -32 -18 -59 -41 -73c-40 31 -97 64 -189 64c-83 0 -156 -55 -156 -228
c0 -169 75 -218 164 -218c72 0 138 24 178 57zM256 792c25 10 119 130 175 130c45 0 61 -25 63 -56c-51 -32 -130 -119 -183 -119c-28 0 -50 17 -55 45z" />
    <glyph glyph-name="cacute" unicode="&#x107;" horiz-adv-x="453" 
d="M429 416c0 -19 -12 -46 -32 -69c-48 18 -70 33 -116 33c-49 0 -96 -43 -96 -137c0 -81 42 -123 101 -123c55 0 96 15 130 33c9 -11 17 -31 17 -60c0 -34 -14 -58 -39 -74c-17 -11 -60 -29 -120 -29c-144 0 -239 103 -239 254c0 201 137 266 242 266c66 0 95 -14 123 -33
c15 -10 29 -30 29 -61zM179 582c25 10 119 130 175 130c45 0 61 -25 63 -56c-51 -32 -130 -119 -183 -119c-28 0 -50 17 -55 45z" />
    <glyph glyph-name="Ccircumflex" unicode="&#x108;" horiz-adv-x="611" 
d="M534 184c24 0 57 -18 57 -61c0 -36 -15 -57 -51 -82c-25 -17 -86 -51 -192 -51c-172 0 -308 106 -308 359c0 257 132 361 301 361c109 0 163 -25 197 -51c32 -24 40 -51 40 -77c0 -32 -18 -59 -41 -73c-40 31 -97 64 -189 64c-83 0 -156 -55 -156 -228
c0 -169 75 -218 164 -218c72 0 138 24 178 57zM518 794c-3 -19 -14 -33 -29 -40c-8 -4 -17 -5 -26 -5c-35 0 -80 37 -122 71c-42 -34 -88 -71 -122 -71c-9 0 -18 1 -26 5c-15 7 -26 21 -29 40c25 9 118 130 174 130c60 0 150 -119 180 -130z" />
    <glyph glyph-name="ccircumflex" unicode="&#x109;" horiz-adv-x="453" 
d="M429 416c0 -19 -12 -46 -32 -69c-48 18 -70 33 -116 33c-49 0 -96 -43 -96 -137c0 -81 42 -123 101 -123c55 0 96 15 130 33c9 -11 17 -31 17 -60c0 -34 -14 -58 -39 -74c-17 -11 -60 -29 -120 -29c-144 0 -239 103 -239 254c0 201 137 266 242 266c66 0 95 -14 123 -33
c15 -10 29 -30 29 -61zM434 584c-3 -19 -14 -33 -29 -40c-8 -4 -17 -5 -26 -5c-35 0 -80 37 -122 71c-42 -34 -88 -71 -122 -71c-9 0 -18 1 -26 5c-15 7 -26 21 -29 40c25 9 118 130 174 130c60 0 150 -119 180 -130z" />
    <glyph glyph-name="Cdotaccent" unicode="&#x10a;" horiz-adv-x="611" 
d="M534 184c24 0 57 -18 57 -61c0 -36 -15 -57 -51 -82c-25 -17 -86 -51 -192 -51c-172 0 -308 106 -308 359c0 257 132 361 301 361c109 0 163 -25 197 -51c32 -24 40 -51 40 -77c0 -32 -18 -59 -41 -73c-40 31 -97 64 -189 64c-83 0 -156 -55 -156 -228
c0 -169 75 -218 164 -218c72 0 138 24 178 57zM273 845c0 48 22 72 72 72c48 0 72 -24 72 -72c0 -49 -24 -72 -72 -72c-49 0 -72 24 -72 72z" />
    <glyph glyph-name="cdotaccent" unicode="&#x10b;" horiz-adv-x="453" 
d="M429 416c0 -19 -12 -46 -32 -69c-48 18 -70 33 -116 33c-49 0 -96 -43 -96 -137c0 -81 42 -123 101 -123c55 0 96 15 130 33c9 -11 17 -31 17 -60c0 -34 -14 -58 -39 -74c-17 -11 -60 -29 -120 -29c-144 0 -239 103 -239 254c0 201 137 266 242 266c66 0 95 -14 123 -33
c15 -10 29 -30 29 -61zM186 635c0 48 22 72 72 72c48 0 72 -24 72 -72c0 -49 -24 -72 -72 -72c-49 0 -72 24 -72 72z" />
    <glyph glyph-name="Ccaron" unicode="&#x10c;" horiz-adv-x="611" 
d="M534 184c24 0 57 -18 57 -61c0 -36 -15 -57 -51 -82c-25 -17 -86 -51 -192 -51c-172 0 -308 106 -308 359c0 257 132 361 301 361c109 0 163 -25 197 -51c32 -24 40 -51 40 -77c0 -32 -18 -59 -41 -73c-40 31 -97 64 -189 64c-83 0 -156 -55 -156 -228
c0 -169 75 -218 164 -218c72 0 138 24 178 57zM345 750c-13 0 -19 3 -25 6c-50 20 -113 86 -156 113c2 31 33 56 63 56c34 0 82 -44 120 -81c38 37 86 81 120 81c28 0 61 -25 63 -56c-43 -27 -105 -92 -157 -113c-5 -2 -12 -7 -28 -6z" />
    <glyph glyph-name="ccaron" unicode="&#x10d;" horiz-adv-x="453" 
d="M429 416c0 -19 -12 -46 -32 -69c-48 18 -70 33 -116 33c-49 0 -96 -43 -96 -137c0 -81 42 -123 101 -123c55 0 96 15 130 33c9 -11 17 -31 17 -60c0 -34 -14 -58 -39 -74c-17 -11 -60 -29 -120 -29c-144 0 -239 103 -239 254c0 201 137 266 242 266c66 0 95 -14 123 -33
c15 -10 29 -30 29 -61zM259 540c-13 0 -19 3 -25 6c-50 20 -113 86 -156 113c2 31 33 56 63 56c34 0 82 -44 120 -81c38 37 86 81 120 81c28 0 61 -25 63 -56c-43 -27 -105 -92 -157 -113c-5 -2 -12 -7 -28 -6z" />
    <glyph glyph-name="Dcaron" unicode="&#x10e;" horiz-adv-x="678" 
d="M154 700h141c209 0 343 -98 343 -360c0 -244 -137 -340 -330 -340h-155c-38 0 -73 8 -73 67v621c13 7 37 12 74 12zM294 565h-66v-430h75c118 0 183 58 183 202c0 170 -79 228 -192 228zM309 740c-13 0 -19 3 -25 6c-50 20 -113 86 -156 113c2 31 33 56 63 56
c34 0 82 -44 120 -81c38 37 86 81 120 81c28 0 61 -25 63 -56c-43 -27 -105 -92 -157 -113c-5 -2 -12 -7 -28 -6z" />
    <glyph glyph-name="dcaron" unicode="&#x10f;" horiz-adv-x="619" 
d="M459 0c-35 0 -75 15 -95 40c-38 -34 -80 -50 -138 -50c-92 0 -191 72 -191 250c0 183 100 270 203 270c40 0 72 -11 98 -29v170c0 31 20 49 57 49c40 0 75 -9 88 -19v-544c0 -24 9 -33 46 -33h12c5 -14 9 -22 9 -44c0 -31 -23 -60 -89 -60zM261 120c30 0 54 7 75 17v204
c-20 23 -42 39 -74 39c-56 0 -77 -57 -77 -133c0 -81 21 -127 76 -127zM578 570c-44 0 -61 22 -61 65s20 65 65 65c43 0 69 -24 69 -92c0 -104 -32 -146 -69 -146c-26 0 -36 7 -39 25c23 13 35 67 35 83z" />
    <glyph glyph-name="Dcroat" unicode="&#x110;" horiz-adv-x="678" 
d="M154 700h141c209 0 343 -98 343 -360c0 -244 -137 -340 -330 -340h-155c-38 0 -73 8 -73 67v202h-65c-9 19 -16 37 -16 68c0 40 16 70 67 70h14v281c13 7 37 12 74 12zM294 565h-66v-158h133c8 -12 14 -34 14 -65c0 -44 -16 -73 -71 -73h-76v-134h75
c118 0 183 58 183 202c0 170 -79 228 -192 228z" />
    <glyph glyph-name="dcroat" unicode="&#x111;" horiz-adv-x="568" 
d="M459 0c-35 0 -75 15 -95 40c-38 -34 -80 -50 -138 -50c-92 0 -191 72 -191 250c0 183 100 270 203 270c40 0 72 -11 98 -29v62h-124c-7 18 -11 30 -11 55c0 26 11 45 32 45h103v8c0 31 20 49 57 49c40 0 75 -9 88 -19v-38h37c7 -12 10 -30 10 -56c0 -28 -9 -44 -32 -44
h-15v-406c0 -24 9 -33 46 -33h12c5 -14 9 -22 9 -44c0 -31 -23 -60 -89 -60zM261 120c30 0 54 7 75 17v204c-20 23 -42 39 -74 39c-56 0 -77 -57 -77 -133c0 -81 21 -127 76 -127z" />
    <glyph glyph-name="Emacron" unicode="&#x112;" horiz-adv-x="573" 
d="M443 287h-215v-152h289c7 -10 16 -28 16 -57c0 -45 -16 -78 -45 -78h-345c-31 0 -63 8 -63 67v620c13 8 32 13 69 13h368c7 -10 16 -30 16 -59c0 -45 -16 -76 -45 -76h-260v-143h240c7 -10 16 -36 16 -65c0 -45 -16 -70 -41 -70zM407 758h-262c-9 14 -16 28 -16 47
c0 33 7 57 74 57h262c7 -8 14 -20 14 -39c0 -24 -11 -65 -72 -65z" />
    <glyph glyph-name="emacron" unicode="&#x113;" horiz-adv-x="507" 
d="M467 208h-282c12 -62 43 -93 111 -93c58 0 117 19 147 39c11 -10 24 -29 24 -57c0 -72 -92 -107 -196 -107c-156 0 -236 111 -236 266c0 163 104 254 236 254c124 0 206 -89 206 -225c0 -28 -3 -56 -10 -77zM272 385c-42 0 -74 -29 -86 -84h160c0 55 -29 84 -74 84z
M376 558h-262c-9 14 -16 28 -16 47c0 33 7 57 74 57h262c7 -8 14 -20 14 -39c0 -24 -11 -65 -72 -65z" />
    <glyph glyph-name="Ebreve" unicode="&#x114;" horiz-adv-x="573" 
d="M443 287h-215v-152h289c7 -10 16 -28 16 -57c0 -45 -16 -78 -45 -78h-345c-31 0 -63 8 -63 67v620c13 8 32 13 69 13h368c7 -10 16 -30 16 -59c0 -45 -16 -76 -45 -76h-260v-143h240c7 -10 16 -36 16 -65c0 -45 -16 -70 -41 -70zM228 894c1 -12 5 -26 15 -38
c11 -13 30 -22 59 -22c27 0 43 7 53 18c11 11 15 26 19 38c10 8 29 12 54 11c33 -2 44 -23 38 -46c-9 -30 -22 -57 -48 -77c-25 -20 -62 -32 -115 -32c-56 0 -95 13 -122 34c-28 22 -41 51 -46 82c-3 24 9 37 37 40c22 2 42 -2 56 -8z" />
    <glyph glyph-name="ebreve" unicode="&#x115;" horiz-adv-x="507" 
d="M467 208h-282c12 -62 43 -93 111 -93c58 0 117 19 147 39c11 -10 24 -29 24 -57c0 -72 -92 -107 -196 -107c-156 0 -236 111 -236 266c0 163 104 254 236 254c124 0 206 -89 206 -225c0 -28 -3 -56 -10 -77zM272 385c-42 0 -74 -29 -86 -84h160c0 55 -29 84 -74 84z
M202 694c1 -12 5 -26 15 -38c11 -13 30 -22 59 -22c27 0 43 7 53 18c11 11 15 26 19 38c10 8 29 12 54 11c33 -2 44 -23 38 -46c-9 -30 -22 -57 -48 -77c-25 -20 -62 -32 -115 -32c-56 0 -95 13 -122 34c-28 22 -41 51 -46 82c-3 24 9 37 37 40c22 2 42 -2 56 -8z" />
    <glyph glyph-name="Edotaccent" unicode="&#x116;" horiz-adv-x="573" 
d="M443 287h-215v-152h289c7 -10 16 -28 16 -57c0 -45 -16 -78 -45 -78h-345c-31 0 -63 8 -63 67v620c13 8 32 13 69 13h368c7 -10 16 -30 16 -59c0 -45 -16 -76 -45 -76h-260v-143h240c7 -10 16 -36 16 -65c0 -45 -16 -70 -41 -70zM241 835c0 48 22 72 72 72
c48 0 72 -24 72 -72c0 -49 -24 -72 -72 -72c-49 0 -72 24 -72 72z" />
    <glyph glyph-name="edotaccent" unicode="&#x117;" horiz-adv-x="507" 
d="M467 208h-282c12 -62 43 -93 111 -93c58 0 117 19 147 39c11 -10 24 -29 24 -57c0 -72 -92 -107 -196 -107c-156 0 -236 111 -236 266c0 163 104 254 236 254c124 0 206 -89 206 -225c0 -28 -3 -56 -10 -77zM272 385c-42 0 -74 -29 -86 -84h160c0 55 -29 84 -74 84z
M203 635c0 48 22 72 72 72c48 0 72 -24 72 -72c0 -49 -24 -72 -72 -72c-49 0 -72 24 -72 72z" />
    <glyph glyph-name="Eogonek" unicode="&#x118;" horiz-adv-x="573" 
d="M443 287h-215v-152h289c7 -10 16 -28 16 -57c0 -34 -9 -61 -26 -72c-24 -38 -44 -60 -44 -88c0 -25 13 -34 46 -34c6 -11 8 -20 8 -34c0 -16 -4 -39 -51 -39c-53 0 -83 36 -83 85c0 41 16 77 36 104h-276c-31 0 -63 8 -63 67v620c13 8 32 13 69 13h368
c7 -10 16 -30 16 -59c0 -45 -16 -76 -45 -76h-260v-143h240c7 -10 16 -36 16 -65c0 -45 -16 -70 -41 -70z" />
    <glyph glyph-name="eogonek" unicode="&#x119;" horiz-adv-x="507" 
d="M467 208h-282c12 -62 43 -93 111 -93c58 0 117 19 147 39c11 -10 24 -29 24 -57c0 -22 -9 -41 -24 -56c-23 -38 -43 -59 -43 -87c0 -25 13 -34 46 -34c6 -11 8 -20 8 -34c0 -16 -4 -39 -51 -39c-53 0 -83 36 -83 85c0 23 5 43 13 62c-20 -3 -41 -4 -62 -4
c-156 0 -236 111 -236 266c0 163 104 254 236 254c124 0 206 -89 206 -225c0 -28 -3 -56 -10 -77zM272 385c-42 0 -74 -29 -86 -84h160c0 55 -29 84 -74 84z" />
    <glyph glyph-name="Ecaron" unicode="&#x11a;" horiz-adv-x="573" 
d="M443 287h-215v-152h289c7 -10 16 -28 16 -57c0 -45 -16 -78 -45 -78h-345c-31 0 -63 8 -63 67v620c13 8 32 13 69 13h368c7 -10 16 -30 16 -59c0 -45 -16 -76 -45 -76h-260v-143h240c7 -10 16 -36 16 -65c0 -45 -16 -70 -41 -70zM298 740c-13 0 -19 3 -25 6
c-50 20 -113 86 -156 113c2 31 33 56 63 56c34 0 82 -44 120 -81c38 37 86 81 120 81c28 0 61 -25 63 -56c-43 -27 -105 -92 -157 -113c-5 -2 -12 -7 -28 -6z" />
    <glyph glyph-name="ecaron" unicode="&#x11b;" horiz-adv-x="507" 
d="M467 208h-282c12 -62 43 -93 111 -93c58 0 117 19 147 39c11 -10 24 -29 24 -57c0 -72 -92 -107 -196 -107c-156 0 -236 111 -236 266c0 163 104 254 236 254c124 0 206 -89 206 -225c0 -28 -3 -56 -10 -77zM272 385c-42 0 -74 -29 -86 -84h160c0 55 -29 84 -74 84z
M266 540c-13 0 -19 3 -25 6c-50 20 -113 86 -156 113c2 31 33 56 63 56c34 0 82 -44 120 -81c38 37 86 81 120 81c28 0 61 -25 63 -56c-43 -27 -105 -92 -157 -113c-5 -2 -12 -7 -28 -6z" />
    <glyph glyph-name="Gcircumflex" unicode="&#x11c;" horiz-adv-x="693" 
d="M512 264h-160c-9 15 -15 32 -15 59c0 31 7 66 74 66h133c75 0 99 -28 99 -108v-268c-16 -10 -37 -13 -71 -13c-31 0 -60 8 -60 55v19c-43 -52 -97 -84 -175 -84c-153 0 -297 106 -297 359c0 257 143 361 331 361c176 0 225 -73 225 -122c0 -38 -30 -64 -56 -71
c-45 37 -101 56 -159 56c-109 0 -189 -65 -189 -228c0 -169 83 -218 161 -218c67 0 123 28 159 85v52zM543 784c-3 -19 -14 -33 -29 -40c-8 -4 -17 -5 -26 -5c-35 0 -80 37 -122 71c-42 -34 -88 -71 -122 -71c-9 0 -18 1 -26 5c-15 7 -26 21 -29 40c25 9 118 130 174 130
c60 0 150 -119 180 -130z" />
    <glyph glyph-name="gcircumflex" unicode="&#x11d;" horiz-adv-x="576" 
d="M349 -3v33c-35 -25 -74 -40 -122 -40c-113 0 -192 87 -192 256c0 176 89 264 202 264c64 0 107 -25 137 -60c23 31 60 50 102 50c56 0 90 -22 90 -63c0 -31 -3 -49 -9 -63h-32c-21 0 -31 -11 -31 -34v-344c0 -146 -79 -208 -216 -208c-133 0 -204 36 -204 103
c0 23 6 45 21 64c39 -19 100 -37 172 -37c52 0 82 27 82 79zM261 120c33 0 61 11 88 26v183c-25 28 -48 51 -86 51c-52 0 -78 -48 -78 -134c0 -80 23 -126 76 -126zM460 584c-3 -19 -14 -33 -29 -40c-8 -4 -17 -5 -26 -5c-35 0 -80 37 -122 71c-42 -34 -88 -71 -122 -71
c-9 0 -18 1 -26 5c-15 7 -26 21 -29 40c25 9 118 130 174 130c60 0 150 -119 180 -130z" />
    <glyph glyph-name="Gbreve" unicode="&#x11e;" horiz-adv-x="693" 
d="M512 264h-160c-9 15 -15 32 -15 59c0 31 7 66 74 66h133c75 0 99 -28 99 -108v-268c-16 -10 -37 -13 -71 -13c-31 0 -60 8 -60 55v19c-43 -52 -97 -84 -175 -84c-153 0 -297 106 -297 359c0 257 143 361 331 361c176 0 225 -73 225 -122c0 -38 -30 -64 -56 -71
c-45 37 -101 56 -159 56c-109 0 -189 -65 -189 -228c0 -169 83 -218 161 -218c67 0 123 28 159 85v52zM283 894c1 -12 5 -26 15 -38c11 -13 30 -22 59 -22c27 0 43 7 53 18c11 11 15 26 19 38c10 8 29 12 54 11c33 -2 44 -23 38 -46c-9 -30 -22 -57 -48 -77
c-25 -20 -62 -32 -115 -32c-56 0 -95 13 -122 34c-28 22 -41 51 -46 82c-3 24 9 37 37 40c22 2 42 -2 56 -8z" />
    <glyph glyph-name="gbreve" unicode="&#x11f;" horiz-adv-x="576" 
d="M349 -3v33c-35 -25 -74 -40 -122 -40c-113 0 -192 87 -192 256c0 176 89 264 202 264c64 0 107 -25 137 -60c23 31 60 50 102 50c56 0 90 -22 90 -63c0 -31 -3 -49 -9 -63h-32c-21 0 -31 -11 -31 -34v-344c0 -146 -79 -208 -216 -208c-133 0 -204 36 -204 103
c0 23 6 45 21 64c39 -19 100 -37 172 -37c52 0 82 27 82 79zM261 120c33 0 61 11 88 26v183c-25 28 -48 51 -86 51c-52 0 -78 -48 -78 -134c0 -80 23 -126 76 -126zM203 694c1 -12 5 -26 15 -38c11 -13 30 -22 59 -22c27 0 43 7 53 18c11 11 15 26 19 38c10 8 29 12 54 11
c33 -2 44 -23 38 -46c-9 -30 -22 -57 -48 -77c-25 -20 -62 -32 -115 -32c-56 0 -95 13 -122 34c-28 22 -41 51 -46 82c-3 24 9 37 37 40c22 2 42 -2 56 -8z" />
    <glyph glyph-name="Gdotaccent" unicode="&#x120;" horiz-adv-x="693" 
d="M512 264h-160c-9 15 -15 32 -15 59c0 31 7 66 74 66h133c75 0 99 -28 99 -108v-268c-16 -10 -37 -13 -71 -13c-31 0 -60 8 -60 55v19c-43 -52 -97 -84 -175 -84c-153 0 -297 106 -297 359c0 257 143 361 331 361c176 0 225 -73 225 -122c0 -38 -30 -64 -56 -71
c-45 37 -101 56 -159 56c-109 0 -189 -65 -189 -228c0 -169 83 -218 161 -218c67 0 123 28 159 85v52zM281 824c0 48 22 72 72 72c48 0 72 -24 72 -72c0 -49 -24 -72 -72 -72c-49 0 -72 24 -72 72z" />
    <glyph glyph-name="gdotaccent" unicode="&#x121;" horiz-adv-x="576" 
d="M349 -3v33c-35 -25 -74 -40 -122 -40c-113 0 -192 87 -192 256c0 176 89 264 202 264c64 0 107 -25 137 -60c23 31 60 50 102 50c56 0 90 -22 90 -63c0 -31 -3 -49 -9 -63h-32c-21 0 -31 -11 -31 -34v-344c0 -146 -79 -208 -216 -208c-133 0 -204 36 -204 103
c0 23 6 45 21 64c39 -19 100 -37 172 -37c52 0 82 27 82 79zM261 120c33 0 61 11 88 26v183c-25 28 -48 51 -86 51c-52 0 -78 -48 -78 -134c0 -80 23 -126 76 -126zM202 635c0 48 22 72 72 72c48 0 72 -24 72 -72c0 -49 -24 -72 -72 -72c-49 0 -72 24 -72 72z" />
    <glyph glyph-name="Gcommaaccent" unicode="&#x122;" horiz-adv-x="693" 
d="M512 264h-160c-9 15 -15 32 -15 59c0 31 7 66 74 66h133c75 0 99 -28 99 -108v-268c-16 -10 -37 -13 -71 -13c-31 0 -60 8 -60 55v19c-43 -52 -97 -84 -175 -84c-153 0 -297 106 -297 359c0 257 143 361 331 361c176 0 225 -73 225 -122c0 -38 -30 -64 -56 -71
c-45 37 -101 56 -159 56c-109 0 -189 -65 -189 -228c0 -169 83 -218 161 -218c67 0 123 28 159 85v52zM332 -213c-49 0 -68 24 -68 72s22 72 72 72c48 0 77 -26 77 -102c0 -115 -36 -162 -77 -162c-29 0 -40 8 -43 28c26 14 39 74 39 92z" />
    <glyph glyph-name="gcommaaccent" unicode="&#x123;" horiz-adv-x="576" 
d="M349 -3v33c-35 -25 -74 -40 -122 -40c-113 0 -192 87 -192 256c0 176 89 264 202 264c64 0 107 -25 137 -60c23 31 60 50 102 50c56 0 90 -22 90 -63c0 -31 -3 -49 -9 -63h-32c-21 0 -31 -11 -31 -34v-344c0 -146 -79 -208 -216 -208c-133 0 -204 36 -204 103
c0 23 6 45 21 64c39 -19 100 -37 172 -37c52 0 82 27 82 79zM261 120c33 0 61 11 88 26v183c-25 28 -48 51 -86 51c-52 0 -78 -48 -78 -134c0 -80 23 -126 76 -126zM276 681c44 0 61 -22 61 -65s-20 -65 -65 -65c-43 0 -69 24 -69 92c0 104 32 146 69 146c26 0 36 -7 39 -25
c-23 -13 -35 -67 -35 -83z" />
    <glyph glyph-name="Hcircumflex" unicode="&#x124;" horiz-adv-x="710" 
d="M562 700c38 0 68 -12 68 -51v-636c-10 -7 -46 -13 -69 -13c-42 0 -79 9 -79 68v227h-254v-279c-9 -9 -51 -16 -85 -16c-31 0 -63 9 -63 68v619c16 8 50 13 81 13c37 0 67 -12 67 -51v-219h254v257c14 7 50 13 80 13zM532 784c-3 -19 -14 -33 -29 -40c-8 -4 -17 -5 -26 -5
c-35 0 -80 37 -122 71c-42 -34 -88 -71 -122 -71c-9 0 -18 1 -26 5c-15 7 -26 21 -29 40c25 9 118 130 174 130c60 0 150 -119 180 -130z" />
    <glyph glyph-name="hcircumflex" unicode="&#x125;" horiz-adv-x="570" 
d="M145 700c37 0 70 -13 70 -52v-201c37 38 83 63 138 63c87 0 146 -49 146 -174v-216c0 -17 7 -24 17 -24h27c5 -8 7 -17 7 -34c0 -34 -37 -62 -114 -62c-48 0 -82 26 -82 97v200c0 44 -3 83 -42 83c-35 0 -73 -25 -97 -49v-318c-13 -8 -45 -13 -79 -13c-31 0 -66 9 -66 68
v616c15 9 43 16 75 16zM316 757c-3 -19 -14 -33 -29 -40c-8 -4 -17 -5 -26 -5c-35 0 -80 37 -122 71c-42 -34 -88 -71 -122 -71c-9 0 -18 1 -26 5c-15 7 -26 21 -29 40c25 9 118 130 174 130c60 0 150 -119 180 -130z" />
    <glyph glyph-name="Hbar" unicode="&#x126;" horiz-adv-x="711" 
d="M562 700c38 0 68 -12 68 -51v-64h76c8 -12 14 -29 14 -60c0 -42 -15 -68 -71 -68h-19v-444c-10 -7 -46 -13 -69 -13c-42 0 -79 9 -79 68v181h-254v-233c-9 -9 -51 -16 -85 -16c-31 0 -63 9 -63 68v389h-71c-9 19 -16 32 -16 63c0 40 16 65 67 65h20v102c16 8 50 13 81 13
c37 0 67 -12 67 -51v-64h254v102c14 7 50 13 80 13zM228 384h254v73h-254v-73z" />
    <glyph glyph-name="hbar" unicode="&#x127;" horiz-adv-x="570" 
d="M145 700c37 0 70 -13 70 -52v-5h109c7 -12 10 -30 10 -56c0 -28 -9 -44 -32 -44h-87v-96c37 38 83 63 138 63c87 0 146 -49 146 -174v-216c0 -17 7 -24 17 -24h27c5 -8 7 -17 7 -34c0 -34 -37 -62 -114 -62c-48 0 -82 26 -82 97v200c0 44 -3 83 -42 83
c-35 0 -73 -25 -97 -49v-318c-13 -8 -45 -13 -79 -13c-31 0 -66 9 -66 68v475h-52c-7 18 -11 30 -11 55c0 26 11 45 32 45h31v41c15 9 43 16 75 16z" />
    <glyph glyph-name="Itilde" unicode="&#x128;" horiz-adv-x="308" 
d="M162 700c36 0 66 -12 66 -51v-633c-19 -10 -43 -16 -81 -16c-39 0 -67 15 -67 68v619c17 8 45 13 82 13zM75 893c66 0 106 -36 148 -36c45 0 61 35 63 42c13 -5 30 -38 30 -65c0 -36 -24 -78 -82 -78c-68 0 -103 35 -159 35c-33 0 -52 -28 -55 -43c-22 6 -28 36 -28 58
c0 29 16 87 83 87z" />
    <glyph glyph-name="itilde" unicode="&#x129;" horiz-adv-x="319" 
d="M124 500c55 0 108 -17 108 -117v-247c0 -21 7 -30 22 -30h33c5 -11 8 -22 8 -43c0 -38 -31 -63 -107 -63c-66 0 -101 25 -101 112v231c0 24 -11 31 -24 31h-29c-6 12 -8 27 -8 51c0 53 37 75 98 75zM61 693c66 0 106 -36 148 -36c45 0 61 35 63 42c13 -5 30 -38 30 -65
c0 -36 -24 -78 -82 -78c-68 0 -103 35 -159 35c-33 0 -52 -28 -55 -43c-22 6 -28 36 -28 58c0 29 16 87 83 87z" />
    <glyph glyph-name="Imacron" unicode="&#x12a;" horiz-adv-x="308" 
d="M162 700c36 0 66 -12 66 -51v-633c-19 -10 -43 -16 -81 -16c-39 0 -67 15 -67 68v619c17 8 45 13 82 13zM257 758h-262c-9 14 -16 28 -16 47c0 33 7 57 74 57h262c7 -8 14 -20 14 -39c0 -24 -11 -65 -72 -65z" />
    <glyph glyph-name="imacron" unicode="&#x12b;" horiz-adv-x="319" 
d="M124 500c55 0 108 -17 108 -117v-247c0 -21 7 -30 22 -30h33c5 -11 8 -22 8 -43c0 -38 -31 -63 -107 -63c-66 0 -101 25 -101 112v231c0 24 -11 31 -24 31h-29c-6 12 -8 27 -8 51c0 53 37 75 98 75zM247 558h-262c-9 14 -16 28 -16 47c0 33 7 57 74 57h262
c7 -8 14 -20 14 -39c0 -24 -11 -65 -72 -65z" />
    <glyph glyph-name="Ibreve" unicode="&#x12c;" horiz-adv-x="308" 
d="M162 700c36 0 66 -12 66 -51v-633c-19 -10 -43 -16 -81 -16c-39 0 -67 15 -67 68v619c17 8 45 13 82 13zM80 894c1 -12 5 -26 15 -38c11 -13 30 -22 59 -22c27 0 43 7 53 18c11 11 15 26 19 38c10 8 29 12 54 11c33 -2 44 -23 38 -46c-9 -30 -22 -57 -48 -77
c-25 -20 -62 -32 -115 -32c-56 0 -95 13 -122 34c-28 22 -41 51 -46 82c-3 24 9 37 37 40c22 2 42 -2 56 -8z" />
    <glyph glyph-name="ibreve" unicode="&#x12d;" horiz-adv-x="319" 
d="M124 500c55 0 108 -17 108 -117v-247c0 -21 7 -30 22 -30h33c5 -11 8 -22 8 -43c0 -38 -31 -63 -107 -63c-66 0 -101 25 -101 112v231c0 24 -11 31 -24 31h-29c-6 12 -8 27 -8 51c0 53 37 75 98 75zM60 694c1 -12 5 -26 15 -38c11 -13 30 -22 59 -22c27 0 43 7 53 18
c11 11 15 26 19 38c10 8 29 12 54 11c33 -2 44 -23 38 -46c-9 -30 -22 -57 -48 -77c-25 -20 -62 -32 -115 -32c-56 0 -95 13 -122 34c-28 22 -41 51 -46 82c-3 24 9 37 37 40c22 2 42 -2 56 -8z" />
    <glyph glyph-name="Iogonek" unicode="&#x12e;" horiz-adv-x="308" 
d="M162 700c36 0 66 -12 66 -51v-633c-24 -38 -44 -60 -44 -88c0 -25 13 -34 46 -34c6 -11 8 -20 8 -34c0 -16 -4 -39 -51 -39c-53 0 -83 36 -83 85c0 36 13 69 30 94c-32 4 -54 21 -54 68v619c17 8 45 13 82 13z" />
    <glyph glyph-name="iogonek" unicode="&#x12f;" horiz-adv-x="319" 
d="M124 500c55 0 108 -17 108 -117v-247c0 -21 7 -30 22 -30h33c5 -11 8 -22 8 -43c0 -19 -8 -34 -24 -45c-23 -37 -43 -59 -43 -87c0 -25 13 -34 46 -34c6 -11 8 -20 8 -34c0 -16 -4 -39 -51 -39c-53 0 -83 36 -83 85c0 35 12 66 28 91c-58 3 -89 30 -89 112v231
c0 24 -11 31 -24 31h-29c-6 12 -8 27 -8 51c0 53 37 75 98 75zM64 629c0 53 25 80 80 80c53 0 80 -27 80 -80c0 -54 -27 -80 -80 -80c-54 0 -80 27 -80 80z" />
    <glyph glyph-name="Idotaccent" unicode="&#x130;" horiz-adv-x="308" 
d="M162 700c36 0 66 -12 66 -51v-633c-19 -10 -43 -16 -81 -16c-39 0 -67 15 -67 68v619c17 8 45 13 82 13zM82 824c0 48 22 72 72 72c48 0 72 -24 72 -72c0 -49 -24 -72 -72 -72c-49 0 -72 24 -72 72z" />
    <glyph glyph-name="dotlessi" unicode="&#x131;" horiz-adv-x="319" 
d="M124 500c55 0 108 -17 108 -117v-247c0 -21 7 -30 22 -30h33c5 -11 8 -22 8 -43c0 -38 -31 -63 -107 -63c-66 0 -101 25 -101 112v231c0 24 -11 31 -24 31h-29c-6 12 -8 27 -8 51c0 53 37 75 98 75z" />
    <glyph glyph-name="IJ" unicode="&#x132;" horiz-adv-x="725" 
d="M162 700c36 0 66 -12 66 -51v-633c-19 -10 -43 -16 -81 -16c-39 0 -67 15 -67 68v619c17 8 45 13 82 13zM583 700c41 0 72 -14 72 -55v-481c0 -109 -69 -164 -167 -164c-116 0 -160 35 -160 89c0 16 3 29 11 46h103c46 0 65 18 65 54v498c17 9 42 13 76 13z" />
    <glyph glyph-name="ij" unicode="&#x133;" horiz-adv-x="621" 
d="M124 500c55 0 108 -17 108 -117v-247c0 -21 7 -30 22 -30h33c5 -11 8 -22 8 -43c0 -38 -31 -63 -107 -63c-66 0 -101 25 -101 112v231c0 24 -11 31 -24 31h-29c-6 12 -8 27 -8 51c0 53 37 75 98 75zM64 629c0 53 25 80 80 80c53 0 80 -27 80 -80c0 -54 -27 -80 -80 -80
c-54 0 -80 27 -80 80zM445 500c66 0 106 -28 106 -108v-439c0 -112 -44 -165 -146 -165c-71 0 -129 13 -129 69c0 22 1 38 10 58h74c34 0 46 30 46 66v362c0 24 -11 31 -24 31h-35c-5 16 -8 29 -8 52c0 48 36 74 106 74zM382 629c0 53 25 80 80 80c53 0 80 -27 80 -80
c0 -54 -27 -80 -80 -80c-54 0 -80 27 -80 80z" />
    <glyph glyph-name="Jcircumflex" unicode="&#x134;" horiz-adv-x="417" 
d="M275 700c41 0 72 -14 72 -55v-481c0 -109 -69 -164 -167 -164c-116 0 -160 35 -160 89c0 16 3 29 11 46h103c46 0 65 18 65 54v498c17 9 42 13 76 13zM449 784c-3 -19 -14 -33 -29 -40c-8 -4 -17 -5 -26 -5c-35 0 -80 37 -122 71c-42 -34 -88 -71 -122 -71
c-9 0 -18 1 -26 5c-15 7 -26 21 -29 40c25 9 118 130 174 130c60 0 150 -119 180 -130z" />
    <glyph glyph-name="jcircumflex" unicode="&#x135;" horiz-adv-x="302" 
d="M126 500c66 0 106 -28 106 -108v-439c0 -112 -44 -165 -146 -165c-71 0 -129 13 -129 69c0 22 1 38 10 58h74c34 0 46 30 46 66v362c0 24 -11 31 -24 31h-35c-5 16 -8 29 -8 52c0 48 36 74 106 74zM314 584c-3 -19 -14 -33 -29 -40c-8 -4 -17 -5 -26 -5
c-35 0 -80 37 -122 71c-42 -34 -88 -71 -122 -71c-9 0 -18 1 -26 5c-15 7 -26 21 -29 40c25 9 118 130 174 130c60 0 150 -119 180 -130z" />
    <glyph glyph-name="Kcommaaccent" unicode="&#x136;" horiz-adv-x="614" 
d="M157 700c40 0 71 -11 71 -50v-224c110 75 175 184 197 262c16 7 47 12 74 12c36 0 59 -21 59 -52c0 -85 -101 -207 -184 -268c60 -75 117 -253 214 -253h4c7 -8 12 -23 12 -48c0 -47 -23 -79 -85 -79c-125 0 -180 183 -252 304l-39 -23v-266c-17 -10 -51 -15 -85 -15
c-38 0 -63 13 -63 67v619c18 8 46 14 77 14zM318 -192c-44 0 -61 22 -61 65s20 65 65 65c43 0 69 -24 69 -92c0 -104 -32 -146 -69 -146c-26 0 -36 7 -39 25c23 13 35 67 35 83z" />
    <glyph glyph-name="kcommaaccent" unicode="&#x137;" horiz-adv-x="522" 
d="M137 701c34 0 78 -12 78 -51v-325c69 49 109 104 118 161c13 7 48 14 71 14c45 0 73 -16 73 -63c0 -59 -81 -133 -146 -163c47 -37 63 -135 156 -135h14c7 -9 11 -30 11 -54c0 -49 -37 -85 -92 -85c-116 0 -143 154 -205 224v-209c-12 -8 -48 -15 -82 -15
c-31 0 -63 8 -63 67v615c15 12 32 19 67 19zM279 -192c-44 0 -61 22 -61 65s20 65 65 65c43 0 69 -24 69 -92c0 -104 -32 -146 -69 -146c-26 0 -36 7 -39 25c23 13 35 67 35 83z" />
    <glyph glyph-name="kgreenlandic" unicode="&#x138;" horiz-adv-x="522" 
d="M137 500c34 0 78 -12 78 -51v-124c69 49 109 104 118 161c13 7 48 14 71 14c45 0 73 -16 73 -63c0 -59 -81 -133 -146 -163c47 -37 63 -135 156 -135h14c7 -9 11 -30 11 -54c0 -49 -37 -85 -92 -85c-116 0 -143 154 -205 224v-209c-12 -8 -48 -15 -82 -15
c-31 0 -63 8 -63 67v414c15 12 32 19 67 19z" />
    <glyph glyph-name="Lacute" unicode="&#x139;" horiz-adv-x="539" 
d="M153 700c33 0 75 -11 75 -50v-512h280c7 -10 16 -30 16 -59c0 -45 -16 -79 -76 -79h-305c-39 0 -63 17 -63 64v624c14 6 41 12 73 12zM99 782c25 10 119 130 175 130c45 0 61 -25 63 -56c-51 -32 -130 -119 -183 -119c-28 0 -50 17 -55 45z" />
    <glyph glyph-name="lacute" unicode="&#x13a;" horiz-adv-x="331" 
d="M215 638v-470c0 -39 16 -52 46 -52h61c4 -12 6 -21 6 -40c0 -42 -34 -76 -136 -76c-88 0 -122 56 -122 137v543c15 13 29 22 69 22c53 0 76 -30 76 -64zM54 776c25 10 119 130 175 130c45 0 61 -25 63 -56c-51 -32 -130 -119 -183 -119c-28 0 -50 17 -55 45z" />
    <glyph glyph-name="Lcommaaccent" unicode="&#x13b;" horiz-adv-x="539" 
d="M153 700c33 0 75 -11 75 -50v-512h280c7 -10 16 -30 16 -59c0 -45 -16 -79 -76 -79h-305c-39 0 -63 17 -63 64v624c14 6 41 12 73 12zM299 -192c-44 0 -61 22 -61 65s20 65 65 65c43 0 69 -24 69 -92c0 -104 -32 -146 -69 -146c-26 0 -36 7 -39 25c23 13 35 67 35 83z
" />
    <glyph glyph-name="lcommaaccent" unicode="&#x13c;" horiz-adv-x="331" 
d="M215 638v-470c0 -39 16 -52 46 -52h61c4 -12 6 -21 6 -40c0 -42 -34 -76 -136 -76c-88 0 -122 56 -122 137v543c15 13 29 22 69 22c53 0 76 -30 76 -64zM167 -177c-44 0 -61 22 -61 65s20 65 65 65c43 0 69 -24 69 -92c0 -104 -32 -146 -69 -146c-26 0 -36 7 -39 25
c23 13 35 67 35 83z" />
    <glyph glyph-name="Lcaron" unicode="&#x13d;" horiz-adv-x="539" 
d="M153 700c33 0 75 -11 75 -50v-512h280c7 -10 16 -30 16 -59c0 -45 -16 -79 -76 -79h-305c-39 0 -63 17 -63 64v624c14 6 41 12 73 12zM358 570c-44 0 -61 22 -61 65s20 65 65 65c43 0 69 -24 69 -92c0 -104 -32 -146 -69 -146c-26 0 -36 7 -39 25c23 13 35 67 35 83z" />
    <glyph glyph-name="lcaron" unicode="&#x13e;" horiz-adv-x="371" 
d="M215 638v-470c0 -39 16 -52 46 -52h61c4 -12 6 -21 6 -40c0 -42 -34 -76 -136 -76c-88 0 -122 56 -122 137v543c15 13 29 22 69 22c53 0 76 -30 76 -64zM298 595c-44 0 -61 22 -61 65s20 65 65 65c43 0 69 -24 69 -92c0 -104 -32 -146 -69 -146c-26 0 -36 7 -39 25
c23 13 35 67 35 83z" />
    <glyph glyph-name="Ldot" unicode="&#x13f;" horiz-adv-x="539" 
d="M153 700c33 0 75 -11 75 -50v-512h280c7 -10 16 -30 16 -59c0 -45 -16 -79 -76 -79h-305c-39 0 -63 17 -63 64v624c14 6 41 12 73 12zM337 352c0 48 22 72 72 72c48 0 72 -24 72 -72c0 -49 -24 -72 -72 -72c-49 0 -72 24 -72 72z" />
    <glyph glyph-name="ldot" unicode="&#x140;" horiz-adv-x="389" 
d="M215 638v-470c0 -39 16 -52 46 -52h61c4 -12 6 -21 6 -40c0 -42 -34 -76 -136 -76c-88 0 -122 56 -122 137v543c15 13 29 22 69 22c53 0 76 -30 76 -64zM245 360c0 48 22 72 72 72c48 0 72 -24 72 -72c0 -49 -24 -72 -72 -72c-49 0 -72 24 -72 72z" />
    <glyph glyph-name="Lslash" unicode="&#x141;" horiz-adv-x="539" 
d="M153 700c33 0 75 -11 75 -50v-203l100 64c14 -5 51 -36 51 -75c0 -25 -18 -40 -42 -55l-109 -69v-174h280c7 -10 16 -30 16 -59c0 -45 -16 -79 -76 -79h-305c-39 0 -63 17 -63 64v154l-43 -27c-26 16 -56 38 -56 70c0 20 10 35 36 52l63 40v335c14 6 41 12 73 12z" />
    <glyph glyph-name="lslash" unicode="&#x142;" horiz-adv-x="331" 
d="M215 638v-174l52 34c31 -8 56 -42 56 -72c0 -28 -6 -40 -25 -52l-83 -53v-153c0 -39 16 -52 46 -52h61c4 -12 6 -21 6 -40c0 -42 -34 -76 -136 -76c-88 0 -122 56 -122 137v91l-34 -21c-23 13 -49 40 -49 80c0 21 9 36 30 50l53 34v309c15 13 29 22 69 22
c53 0 76 -30 76 -64z" />
    <glyph glyph-name="Nacute" unicode="&#x143;" horiz-adv-x="720" 
d="M493 38l-272 392l7 -415c-9 -9 -51 -16 -85 -16c-31 0 -63 9 -63 68v620c19 8 49 13 80 13c33 0 56 -18 69 -38l266 -394l-4 414c15 12 37 19 72 19c34 0 77 -12 77 -51v-638c-12 -7 -37 -12 -76 -12c-32 0 -55 15 -71 38zM278 782c25 10 119 130 175 130
c45 0 61 -25 63 -56c-51 -32 -130 -119 -183 -119c-28 0 -50 17 -55 45z" />
    <glyph glyph-name="nacute" unicode="&#x144;" horiz-adv-x="600" 
d="M114 500c57 0 93 -27 110 -71c46 52 96 81 159 81c75 0 136 -43 136 -158v-231c0 -17 8 -26 21 -26h34c4 -7 6 -13 6 -33c0 -38 -40 -62 -114 -62c-64 0 -92 26 -92 97v215c0 43 -10 68 -49 68c-34 0 -65 -22 -93 -53v-313c-16 -10 -37 -14 -76 -14c-36 0 -69 15 -69 74
v269c0 21 -9 31 -28 31h-31c-8 17 -13 32 -13 56c0 48 36 70 99 70zM203 582c25 10 119 130 175 130c45 0 61 -25 63 -56c-51 -32 -130 -119 -183 -119c-28 0 -50 17 -55 45z" />
    <glyph glyph-name="Ncommaaccent" unicode="&#x145;" horiz-adv-x="720" 
d="M493 38l-272 392l7 -415c-9 -9 -51 -16 -85 -16c-31 0 -63 9 -63 68v620c19 8 49 13 80 13c33 0 56 -18 69 -38l266 -394l-4 414c15 12 37 19 72 19c34 0 77 -12 77 -51v-638c-12 -7 -37 -12 -76 -12c-32 0 -55 15 -71 38zM367 -192c-44 0 -61 22 -61 65s20 65 65 65
c43 0 69 -24 69 -92c0 -104 -32 -146 -69 -146c-26 0 -36 7 -39 25c23 13 35 67 35 83z" />
    <glyph glyph-name="ncommaaccent" unicode="&#x146;" horiz-adv-x="600" 
d="M114 500c57 0 93 -27 110 -71c46 52 96 81 159 81c75 0 136 -43 136 -158v-231c0 -17 8 -26 21 -26h34c4 -7 6 -13 6 -33c0 -38 -40 -62 -114 -62c-64 0 -92 26 -92 97v215c0 43 -10 68 -49 68c-34 0 -65 -22 -93 -53v-313c-16 -10 -37 -14 -76 -14c-36 0 -69 15 -69 74
v269c0 21 -9 31 -28 31h-31c-8 17 -13 32 -13 56c0 48 36 70 99 70zM309 -177c-44 0 -61 22 -61 65s20 65 65 65c43 0 69 -24 69 -92c0 -104 -32 -146 -69 -146c-26 0 -36 7 -39 25c23 13 35 67 35 83z" />
    <glyph glyph-name="Ncaron" unicode="&#x147;" horiz-adv-x="720" 
d="M493 38l-272 392l7 -415c-9 -9 -51 -16 -85 -16c-31 0 -63 9 -63 68v620c19 8 49 13 80 13c33 0 56 -18 69 -38l266 -394l-4 414c15 12 37 19 72 19c34 0 77 -12 77 -51v-638c-12 -7 -37 -12 -76 -12c-32 0 -55 15 -71 38zM360 740c-13 0 -19 3 -25 6
c-50 20 -113 86 -156 113c2 31 33 56 63 56c34 0 82 -44 120 -81c38 37 86 81 120 81c28 0 61 -25 63 -56c-43 -27 -105 -92 -157 -113c-5 -2 -12 -7 -28 -6z" />
    <glyph glyph-name="ncaron" unicode="&#x148;" horiz-adv-x="600" 
d="M114 500c57 0 93 -27 110 -71c46 52 96 81 159 81c75 0 136 -43 136 -158v-231c0 -17 8 -26 21 -26h34c4 -7 6 -13 6 -33c0 -38 -40 -62 -114 -62c-64 0 -92 26 -92 97v215c0 43 -10 68 -49 68c-34 0 -65 -22 -93 -53v-313c-16 -10 -37 -14 -76 -14c-36 0 -69 15 -69 74
v269c0 21 -9 31 -28 31h-31c-8 17 -13 32 -13 56c0 48 36 70 99 70zM284 540c-13 0 -19 3 -25 6c-50 20 -113 86 -156 113c2 31 33 56 63 56c34 0 82 -44 120 -81c38 37 86 81 120 81c28 0 61 -25 63 -56c-43 -27 -105 -92 -157 -113c-5 -2 -12 -7 -28 -6z" />
    <glyph glyph-name="napostrophe" unicode="&#x149;" horiz-adv-x="676" 
d="M195 500c57 0 93 -27 110 -71c46 52 96 81 159 81c75 0 136 -43 136 -158v-231c0 -17 8 -26 21 -26h34c4 -7 6 -13 6 -33c0 -38 -40 -62 -114 -62c-64 0 -92 26 -92 97v215c0 43 -10 68 -49 68c-34 0 -65 -22 -93 -53v-313c-16 -10 -37 -14 -76 -14c-36 0 -69 15 -69 74
v269c0 21 -9 31 -28 31h-31c-8 17 -13 32 -13 56c0 48 36 70 99 70zM24 643c-44 0 -61 22 -61 65s20 65 65 65c43 0 69 -24 69 -92c0 -104 -32 -146 -69 -146c-26 0 -36 7 -39 25c23 13 35 67 35 83z" />
    <glyph glyph-name="Eng" unicode="&#x14a;" horiz-adv-x="720" 
d="M221 430l7 -415c-9 -9 -51 -16 -85 -16c-31 0 -63 9 -63 68v620c19 8 49 13 80 13c33 0 56 -18 69 -38l266 -394l-4 414c15 12 37 19 72 19c34 0 77 -12 77 -51l-1 -698c0 -109 -39 -164 -151 -164c-76 0 -112 27 -112 81c0 16 3 29 11 46h55c46 0 56 18 56 54v62z" />
    <glyph glyph-name="eng" unicode="&#x14b;" horiz-adv-x="589" 
d="M114 500c57 0 93 -27 110 -71c46 52 96 81 159 81c75 0 136 -43 136 -158v-399c0 -112 -49 -165 -139 -165c-71 0 -129 13 -129 69c0 22 1 38 10 58h67c34 0 46 30 46 66v331c0 43 -10 68 -49 68c-34 0 -65 -22 -93 -53v-313c-16 -10 -37 -14 -76 -14
c-36 0 -69 15 -69 74v269c0 21 -9 31 -28 31h-31c-8 17 -13 32 -13 56c0 48 36 70 99 70z" />
    <glyph glyph-name="Omacron" unicode="&#x14c;" horiz-adv-x="687" 
d="M40 349c0 257 138 361 303 361c172 0 304 -104 304 -361c0 -258 -135 -359 -303 -359c-169 0 -304 106 -304 359zM192 345c0 -166 74 -218 152 -218c88 0 151 48 151 218c0 173 -68 228 -152 228c-79 0 -151 -55 -151 -228zM446 758h-262c-9 14 -16 28 -16 47
c0 33 7 57 74 57h262c7 -8 14 -20 14 -39c0 -24 -11 -65 -72 -65z" />
    <glyph glyph-name="omacron" unicode="&#x14d;" horiz-adv-x="553" 
d="M35 248c0 185 106 262 241 262c139 0 242 -77 242 -262c0 -186 -106 -258 -242 -258c-137 0 -241 76 -241 258zM185 246c0 -95 44 -126 91 -126c52 0 92 29 92 126s-42 134 -92 134c-48 0 -91 -37 -91 -134zM379 558h-262c-9 14 -16 28 -16 47c0 33 7 57 74 57h262
c7 -8 14 -20 14 -39c0 -24 -11 -65 -72 -65z" />
    <glyph glyph-name="Obreve" unicode="&#x14e;" horiz-adv-x="687" 
d="M40 349c0 257 138 361 303 361c172 0 304 -104 304 -361c0 -258 -135 -359 -303 -359c-169 0 -304 106 -304 359zM192 345c0 -166 74 -218 152 -218c88 0 151 48 151 218c0 173 -68 228 -152 228c-79 0 -151 -55 -151 -228zM270 894c1 -12 5 -26 15 -38
c11 -13 30 -22 59 -22c27 0 43 7 53 18c11 11 15 26 19 38c10 8 29 12 54 11c33 -2 44 -23 38 -46c-9 -30 -22 -57 -48 -77c-25 -20 -62 -32 -115 -32c-56 0 -95 13 -122 34c-28 22 -41 51 -46 82c-3 24 9 37 37 40c22 2 42 -2 56 -8z" />
    <glyph glyph-name="obreve" unicode="&#x14f;" horiz-adv-x="553" 
d="M35 248c0 185 106 262 241 262c139 0 242 -77 242 -262c0 -186 -106 -258 -242 -258c-137 0 -241 76 -241 258zM185 246c0 -95 44 -126 91 -126c52 0 92 29 92 126s-42 134 -92 134c-48 0 -91 -37 -91 -134zM203 694c1 -12 5 -26 15 -38c11 -13 30 -22 59 -22
c27 0 43 7 53 18c11 11 15 26 19 38c10 8 29 12 54 11c33 -2 44 -23 38 -46c-9 -30 -22 -57 -48 -77c-25 -20 -62 -32 -115 -32c-56 0 -95 13 -122 34c-28 22 -41 51 -46 82c-3 24 9 37 37 40c22 2 42 -2 56 -8z" />
    <glyph glyph-name="Ohungarumlaut" unicode="&#x150;" horiz-adv-x="687" 
d="M40 349c0 257 138 361 303 361c172 0 304 -104 304 -361c0 -258 -135 -359 -303 -359c-169 0 -304 106 -304 359zM192 345c0 -166 74 -218 152 -218c88 0 151 48 151 218c0 173 -68 228 -152 228c-79 0 -151 -55 -151 -228zM162 786c47 34 91 158 161 158
c40 0 56 -19 62 -46c-50 -42 -116 -148 -170 -148c-28 0 -45 13 -53 36zM366 795c25 10 119 130 175 130c45 0 61 -25 63 -56c-51 -32 -130 -119 -183 -119c-28 0 -50 17 -55 45z" />
    <glyph glyph-name="ohungarumlaut" unicode="&#x151;" horiz-adv-x="553" 
d="M35 248c0 185 106 262 241 262c139 0 242 -77 242 -262c0 -186 -106 -258 -242 -258c-137 0 -241 76 -241 258zM185 246c0 -95 44 -126 91 -126c52 0 92 29 92 126s-42 134 -92 134c-48 0 -91 -37 -91 -134zM103 586c47 34 91 158 161 158c40 0 56 -19 62 -46
c-50 -42 -116 -148 -170 -148c-28 0 -45 13 -53 36zM307 595c25 10 119 130 175 130c45 0 61 -25 63 -56c-51 -32 -130 -119 -183 -119c-28 0 -50 17 -55 45z" />
    <glyph glyph-name="OE" unicode="&#x152;" horiz-adv-x="937" 
d="M852 0h-345c-12 0 -24 1 -34 5c-40 -10 -85 -15 -127 -15c-174 0 -306 106 -306 359c0 233 115 361 304 361c45 0 75 -5 118 -16c13 4 31 6 59 6h360c7 -10 16 -30 16 -59c0 -45 -16 -76 -45 -76h-260v-143h240c7 -10 16 -36 16 -65c0 -45 -16 -70 -41 -70h-215v-152h289
c7 -10 16 -27 16 -56c0 -45 -16 -79 -45 -79zM192 345c0 -163 71 -218 154 -218c28 0 68 4 98 20v402c-30 17 -65 24 -99 24c-84 0 -153 -58 -153 -228z" />
    <glyph glyph-name="oe" unicode="&#x153;" horiz-adv-x="849" 
d="M35 248c0 185 106 262 241 262c71 0 133 -21 176 -66c44 43 97 66 158 66c124 0 204 -89 204 -225c0 -28 -3 -56 -10 -77h-282c11 -61 45 -93 108 -93c60 0 120 19 150 39c11 -10 24 -29 24 -57c0 -68 -78 -107 -196 -107c-66 0 -119 23 -157 62
c-44 -44 -106 -62 -175 -62c-136 0 -241 76 -241 258zM185 246c0 -95 44 -126 91 -126c52 0 92 29 92 126s-42 134 -92 134c-48 0 -91 -37 -91 -134zM609 385c-44 0 -73 -30 -86 -84h160c0 55 -29 84 -74 84z" />
    <glyph glyph-name="Racute" unicode="&#x154;" horiz-adv-x="652" 
d="M154 700h212c105 0 220 -55 220 -207c0 -104 -67 -172 -147 -200c87 -131 125 -166 175 -166h6c7 -8 12 -23 12 -48c0 -47 -30 -79 -97 -79c-124 0 -165 146 -235 267h-72v-253c-12 -9 -48 -14 -75 -14c-38 0 -73 8 -73 67v622c15 8 42 11 74 11zM340 569h-112v-172h98
c68 0 108 32 108 94c0 57 -44 78 -94 78zM217 782c25 10 119 130 175 130c45 0 61 -25 63 -56c-51 -32 -130 -119 -183 -119c-28 0 -50 17 -55 45z" />
    <glyph glyph-name="racute" unicode="&#x155;" horiz-adv-x="462" 
d="M119 500c47 0 88 -10 105 -60c38 40 89 70 133 70c68 0 95 -38 95 -111c0 -86 -26 -110 -81 -110c-19 0 -40 8 -51 17c0 29 -10 50 -35 50c-19 0 -38 -9 -53 -22v-320c-10 -9 -41 -14 -78 -14c-33 0 -67 8 -67 67v276c0 24 -10 31 -24 31h-34c-6 15 -10 32 -10 56
c0 41 39 70 100 70zM142 582c25 10 119 130 175 130c45 0 61 -25 63 -56c-51 -32 -130 -119 -183 -119c-28 0 -50 17 -55 45z" />
    <glyph glyph-name="Rcommaaccent" unicode="&#x156;" horiz-adv-x="652" 
d="M154 700h212c105 0 220 -55 220 -207c0 -104 -67 -172 -147 -200c87 -131 125 -166 175 -166h6c7 -8 12 -23 12 -48c0 -47 -30 -79 -97 -79c-124 0 -165 146 -235 267h-72v-253c-12 -9 -48 -14 -75 -14c-38 0 -73 8 -73 67v622c15 8 42 11 74 11zM340 569h-112v-172h98
c68 0 108 32 108 94c0 57 -44 78 -94 78zM331 -192c-44 0 -61 22 -61 65s20 65 65 65c43 0 69 -24 69 -92c0 -104 -32 -146 -69 -146c-26 0 -36 7 -39 25c23 13 35 67 35 83z" />
    <glyph glyph-name="rcommaaccent" unicode="&#x157;" horiz-adv-x="462" 
d="M119 500c47 0 88 -10 105 -60c38 40 89 70 133 70c68 0 95 -38 95 -111c0 -86 -26 -110 -81 -110c-19 0 -40 8 -51 17c0 29 -10 50 -35 50c-19 0 -38 -9 -53 -22v-320c-10 -9 -41 -14 -78 -14c-33 0 -67 8 -67 67v276c0 24 -10 31 -24 31h-34c-6 15 -10 32 -10 56
c0 41 39 70 100 70zM157 -176c-44 0 -61 22 -61 65s20 65 65 65c43 0 69 -24 69 -92c0 -104 -32 -146 -69 -146c-26 0 -36 7 -39 25c23 13 35 67 35 83z" />
    <glyph glyph-name="Rcaron" unicode="&#x158;" horiz-adv-x="652" 
d="M154 700h212c105 0 220 -55 220 -207c0 -104 -67 -172 -147 -200c87 -131 125 -166 175 -166h6c7 -8 12 -23 12 -48c0 -47 -30 -79 -97 -79c-124 0 -165 146 -235 267h-72v-253c-12 -9 -48 -14 -75 -14c-38 0 -73 8 -73 67v622c15 8 42 11 74 11zM340 569h-112v-172h98
c68 0 108 32 108 94c0 57 -44 78 -94 78zM299 740c-13 0 -19 3 -25 6c-50 20 -113 86 -156 113c2 31 33 56 63 56c34 0 82 -44 120 -81c38 37 86 81 120 81c28 0 61 -25 63 -56c-43 -27 -105 -92 -157 -113c-5 -2 -12 -7 -28 -6z" />
    <glyph glyph-name="rcaron" unicode="&#x159;" horiz-adv-x="462" 
d="M119 500c47 0 88 -10 105 -60c38 40 89 70 133 70c68 0 95 -38 95 -111c0 -86 -26 -110 -81 -110c-19 0 -40 8 -51 17c0 29 -10 50 -35 50c-19 0 -38 -9 -53 -22v-320c-10 -9 -41 -14 -78 -14c-33 0 -67 8 -67 67v276c0 24 -10 31 -24 31h-34c-6 15 -10 32 -10 56
c0 41 39 70 100 70zM231 540c-13 0 -19 3 -25 6c-50 20 -113 86 -156 113c2 31 33 56 63 56c34 0 82 -44 120 -81c38 37 86 81 120 81c28 0 61 -25 63 -56c-43 -27 -105 -92 -157 -113c-5 -2 -12 -7 -28 -6z" />
    <glyph glyph-name="Sacute" unicode="&#x15a;" horiz-adv-x="579" 
d="M291 710c109 0 160 -27 191 -55c23 -21 28 -45 28 -67c0 -27 -13 -49 -27 -70c-40 21 -102 55 -191 55c-60 0 -93 -29 -93 -70c0 -32 17 -64 131 -92c144 -35 209 -91 209 -206c0 -123 -66 -215 -247 -215c-109 0 -176 15 -216 45c-28 21 -36 44 -36 74c0 28 10 52 19 67
c57 -29 142 -49 228 -49c82 0 100 38 100 65c0 36 -17 58 -118 82c-166 40 -222 105 -222 223c0 129 87 213 244 213zM191 782c25 10 119 130 175 130c45 0 61 -25 63 -56c-51 -32 -130 -119 -183 -119c-28 0 -50 17 -55 45z" />
    <glyph glyph-name="sacute" unicode="&#x15b;" horiz-adv-x="446" 
d="M226 510c127 0 171 -37 171 -91c0 -33 -5 -43 -17 -67c-29 16 -93 38 -145 38c-49 0 -66 -20 -66 -35c0 -16 13 -32 69 -39c131 -17 178 -68 178 -162c0 -99 -61 -164 -188 -164c-133 0 -198 36 -198 99c0 17 6 39 21 58c39 -19 113 -37 168 -37c52 0 66 19 66 34
c0 18 -21 31 -81 40c-130 19 -165 79 -165 162c0 101 64 164 187 164zM132 582c25 10 119 130 175 130c45 0 61 -25 63 -56c-51 -32 -130 -119 -183 -119c-28 0 -50 17 -55 45z" />
    <glyph glyph-name="Scircumflex" unicode="&#x15c;" horiz-adv-x="579" 
d="M291 710c109 0 160 -27 191 -55c23 -21 28 -45 28 -67c0 -27 -13 -49 -27 -70c-40 21 -102 55 -191 55c-60 0 -93 -29 -93 -70c0 -32 17 -64 131 -92c144 -35 209 -91 209 -206c0 -123 -66 -215 -247 -215c-109 0 -176 15 -216 45c-28 21 -36 44 -36 74c0 28 10 52 19 67
c57 -29 142 -49 228 -49c82 0 100 38 100 65c0 36 -17 58 -118 82c-166 40 -222 105 -222 223c0 129 87 213 244 213zM467 784c-3 -19 -14 -33 -29 -40c-8 -4 -17 -5 -26 -5c-35 0 -80 37 -122 71c-42 -34 -88 -71 -122 -71c-9 0 -18 1 -26 5c-15 7 -26 21 -29 40
c25 9 118 130 174 130c60 0 150 -119 180 -130z" />
    <glyph glyph-name="scircumflex" unicode="&#x15d;" horiz-adv-x="446" 
d="M226 510c127 0 171 -37 171 -91c0 -33 -5 -43 -17 -67c-29 16 -93 38 -145 38c-49 0 -66 -20 -66 -35c0 -16 13 -32 69 -39c131 -17 178 -68 178 -162c0 -99 -61 -164 -188 -164c-133 0 -198 36 -198 99c0 17 6 39 21 58c39 -19 113 -37 168 -37c52 0 66 19 66 34
c0 18 -21 31 -81 40c-130 19 -165 79 -165 162c0 101 64 164 187 164zM399 584c-3 -19 -14 -33 -29 -40c-8 -4 -17 -5 -26 -5c-35 0 -80 37 -122 71c-42 -34 -88 -71 -122 -71c-9 0 -18 1 -26 5c-15 7 -26 21 -29 40c25 9 118 130 174 130c60 0 150 -119 180 -130z" />
    <glyph glyph-name="Scedilla" unicode="&#x15e;" horiz-adv-x="579" 
d="M316 -113c0 26 -44 35 -70 35c-5 6 -9 16 -9 25v45c-77 4 -128 18 -161 43c-28 21 -36 44 -36 74c0 28 10 52 19 67c57 -29 142 -49 228 -49c82 0 100 38 100 65c0 36 -17 58 -118 82c-166 40 -222 105 -222 223c0 129 87 213 244 213c109 0 160 -27 191 -55
c23 -21 28 -45 28 -67c0 -27 -13 -49 -27 -70c-40 21 -102 55 -191 55c-60 0 -93 -29 -93 -70c0 -32 17 -64 131 -92c144 -35 209 -91 209 -206c0 -119 -62 -209 -228 -215l-2 -20c62 -12 79 -44 79 -90c0 -52 -33 -92 -104 -92c-64 0 -96 29 -96 56c0 19 8 33 20 41
c17 -15 44 -28 71 -28c28 0 37 13 37 30z" />
    <glyph glyph-name="scedilla" unicode="&#x15f;" horiz-adv-x="446" 
d="M262 -113c0 26 -44 35 -70 35c-5 6 -9 16 -9 25v45c-103 7 -153 41 -153 97c0 17 6 39 21 58c39 -19 113 -37 168 -37c52 0 66 19 66 34c0 18 -21 31 -81 40c-130 19 -165 79 -165 162c0 101 64 164 187 164c127 0 171 -37 171 -91c0 -33 -5 -43 -17 -67
c-29 16 -93 38 -145 38c-49 0 -66 -20 -66 -35c0 -16 13 -32 69 -39c131 -17 178 -68 178 -162c0 -91 -52 -154 -159 -163l-2 -21c62 -12 79 -44 79 -90c0 -52 -33 -92 -104 -92c-64 0 -96 29 -96 56c0 19 8 33 20 41c17 -15 44 -28 71 -28c28 0 37 13 37 30z" />
    <glyph glyph-name="Scaron" unicode="&#x160;" horiz-adv-x="579" 
d="M291 710c109 0 160 -27 191 -55c23 -21 28 -45 28 -67c0 -27 -13 -49 -27 -70c-40 21 -102 55 -191 55c-60 0 -93 -29 -93 -70c0 -32 17 -64 131 -92c144 -35 209 -91 209 -206c0 -123 -66 -215 -247 -215c-109 0 -176 15 -216 45c-28 21 -36 44 -36 74c0 28 10 52 19 67
c57 -29 142 -49 228 -49c82 0 100 38 100 65c0 36 -17 58 -118 82c-166 40 -222 105 -222 223c0 129 87 213 244 213zM287 750c-13 0 -19 3 -25 6c-50 20 -113 86 -156 113c2 31 33 56 63 56c34 0 82 -44 120 -81c38 37 86 81 120 81c28 0 61 -25 63 -56
c-43 -27 -105 -92 -157 -113c-5 -2 -12 -7 -28 -6z" />
    <glyph glyph-name="scaron" unicode="&#x161;" horiz-adv-x="446" 
d="M226 510c127 0 171 -37 171 -91c0 -33 -5 -43 -17 -67c-29 16 -93 38 -145 38c-49 0 -66 -20 -66 -35c0 -16 13 -32 69 -39c131 -17 178 -68 178 -162c0 -99 -61 -164 -188 -164c-133 0 -198 36 -198 99c0 17 6 39 21 58c39 -19 113 -37 168 -37c52 0 66 19 66 34
c0 18 -21 31 -81 40c-130 19 -165 79 -165 162c0 101 64 164 187 164zM221 540c-13 0 -19 3 -25 6c-50 20 -113 86 -156 113c2 31 33 56 63 56c34 0 82 -44 120 -81c38 37 86 81 120 81c28 0 61 -25 63 -56c-43 -27 -105 -92 -157 -113c-5 -2 -12 -7 -28 -6z" />
    <glyph glyph-name="uni021A" unicode="&#x21a;" horiz-adv-x="573" 
d="M518 562h-157v-550c-15 -8 -44 -12 -84 -12c-34 0 -64 15 -64 67v495h-187c-9 19 -16 43 -16 70c0 34 15 68 66 68h471c7 -10 16 -30 16 -59c0 -45 -16 -79 -45 -79zM283 -195c-44 0 -61 22 -61 65s20 65 65 65c43 0 69 -24 69 -92c0 -104 -32 -146 -69 -146
c-26 0 -36 7 -39 25c23 13 35 67 35 83z" />
    <glyph glyph-name="uni021B" unicode="&#x21b;" horiz-adv-x="389" 
d="M312 383h-75v-210c0 -40 13 -52 42 -52h86c5 -12 9 -20 9 -42c0 -43 -29 -79 -151 -79c-71 0 -131 34 -131 145v238h-59c-8 14 -13 30 -13 51c0 42 11 66 49 66h23v106c15 8 44 15 75 15c36 0 70 -15 70 -57v-64h116c11 -10 15 -26 15 -45c0 -27 -9 -72 -56 -72z
M191 -177c-44 0 -61 22 -61 65s20 65 65 65c43 0 69 -24 69 -92c0 -104 -32 -146 -69 -146c-26 0 -36 7 -39 25c23 13 35 67 35 83z" />
    <glyph glyph-name="Tcaron" unicode="&#x164;" horiz-adv-x="573" 
d="M518 562h-157v-550c-15 -8 -44 -12 -84 -12c-34 0 -64 15 -64 67v495h-187c-9 19 -16 43 -16 70c0 34 15 68 66 68h471c7 -10 16 -30 16 -59c0 -45 -16 -79 -45 -79zM284 740c-13 0 -19 3 -25 6c-50 20 -113 86 -156 113c2 31 33 56 63 56c34 0 82 -44 120 -81
c38 37 86 81 120 81c28 0 61 -25 63 -56c-43 -27 -105 -92 -157 -113c-5 -2 -12 -7 -28 -6z" />
    <glyph glyph-name="tcaron" unicode="&#x165;" horiz-adv-x="386" 
d="M312 383h-75v-210c0 -40 13 -52 42 -52h86c5 -12 9 -20 9 -42c0 -43 -29 -79 -151 -79c-71 0 -131 34 -131 145v238h-59c-8 14 -13 30 -13 51c0 42 11 66 49 66h23v106c15 8 44 15 75 15c36 0 70 -15 70 -57v-64h116c11 -10 15 -26 15 -45c0 -27 -9 -72 -56 -72zM313 640
c-44 0 -61 22 -61 65s20 65 65 65c43 0 69 -24 69 -92c0 -104 -32 -146 -69 -146c-26 0 -36 7 -39 25c23 13 35 67 35 83z" />
    <glyph glyph-name="Tbar" unicode="&#x166;" horiz-adv-x="573" 
d="M518 562h-157v-165h118c9 -17 14 -42 14 -68c0 -31 -11 -70 -66 -70h-66v-247c-15 -8 -44 -12 -84 -12c-34 0 -64 15 -64 67v192h-121c-9 19 -16 37 -16 73c0 34 16 65 57 65h80v165h-187c-9 19 -16 43 -16 70c0 34 15 68 66 68h471c7 -10 16 -30 16 -59
c0 -45 -16 -79 -45 -79z" />
    <glyph glyph-name="tbar" unicode="&#x167;" horiz-adv-x="390" 
d="M313 383h-75v-50h103c8 -12 14 -28 14 -59c0 -42 -15 -66 -63 -66h-54v-35c0 -40 13 -52 42 -52h86c5 -12 9 -21 9 -42c0 -43 -29 -79 -151 -79c-71 0 -131 34 -131 145v63h-59c-8 19 -14 38 -14 61c0 40 11 64 51 64h22v50h-59c-8 14 -13 30 -13 51c0 42 11 66 49 66h23
v106c15 8 44 15 75 15c36 0 70 -15 70 -57v-64h116c11 -10 15 -26 15 -45c0 -27 -9 -72 -56 -72z" />
    <glyph glyph-name="Utilde" unicode="&#x168;" horiz-adv-x="678" 
d="M460 276v411c13 8 38 13 75 13c41 0 73 -12 73 -51v-394c0 -182 -100 -265 -272 -265s-266 83 -266 265v433c13 8 45 12 77 12c43 0 71 -11 71 -50v-374c0 -96 37 -149 118 -149c92 0 124 52 124 149zM260 893c66 0 106 -36 148 -36c45 0 61 35 63 42
c13 -5 30 -38 30 -65c0 -36 -24 -78 -82 -78c-68 0 -103 35 -159 35c-33 0 -52 -28 -55 -43c-22 6 -28 36 -28 58c0 29 16 87 83 87z" />
    <glyph glyph-name="utilde" unicode="&#x169;" horiz-adv-x="590" 
d="M458 0c-34 0 -72 11 -91 59c-41 -43 -92 -69 -154 -69c-67 0 -132 43 -132 158v198c0 21 -8 28 -23 28h-45c-5 16 -7 28 -7 50c0 54 57 76 117 76c74 0 103 -24 103 -93v-229c0 -40 14 -58 43 -58c42 0 67 26 89 57v307c19 10 47 16 78 16c50 0 67 -19 67 -55v-298
c0 -24 12 -31 26 -31h36c2 -8 4 -17 4 -45c0 -41 -28 -71 -111 -71zM199 693c66 0 106 -36 148 -36c45 0 61 35 63 42c13 -5 30 -38 30 -65c0 -36 -24 -78 -82 -78c-68 0 -103 35 -159 35c-33 0 -52 -28 -55 -43c-22 6 -28 36 -28 58c0 29 16 87 83 87z" />
    <glyph glyph-name="Umacron" unicode="&#x16a;" horiz-adv-x="678" 
d="M460 276v411c13 8 38 13 75 13c41 0 73 -12 73 -51v-394c0 -182 -100 -265 -272 -265s-266 83 -266 265v433c13 8 45 12 77 12c43 0 71 -11 71 -50v-374c0 -96 37 -149 118 -149c92 0 124 52 124 149zM442 758h-262c-9 14 -16 28 -16 47c0 33 7 57 74 57h262
c7 -8 14 -20 14 -39c0 -24 -11 -65 -72 -65z" />
    <glyph glyph-name="umacron" unicode="&#x16b;" horiz-adv-x="590" 
d="M458 0c-34 0 -72 11 -91 59c-41 -43 -92 -69 -154 -69c-67 0 -132 43 -132 158v198c0 21 -8 28 -23 28h-45c-5 16 -7 28 -7 50c0 54 57 76 117 76c74 0 103 -24 103 -93v-229c0 -40 14 -58 43 -58c42 0 67 26 89 57v307c19 10 47 16 78 16c50 0 67 -19 67 -55v-298
c0 -24 12 -31 26 -31h36c2 -8 4 -17 4 -45c0 -41 -28 -71 -111 -71zM386 558h-262c-9 14 -16 28 -16 47c0 33 7 57 74 57h262c7 -8 14 -20 14 -39c0 -24 -11 -65 -72 -65z" />
    <glyph glyph-name="Ubreve" unicode="&#x16c;" horiz-adv-x="678" 
d="M460 276v411c13 8 38 13 75 13c41 0 73 -12 73 -51v-394c0 -182 -100 -265 -272 -265s-266 83 -266 265v433c13 8 45 12 77 12c43 0 71 -11 71 -50v-374c0 -96 37 -149 118 -149c92 0 124 52 124 149zM266 894c1 -12 5 -26 15 -38c11 -13 30 -22 59 -22c27 0 43 7 53 18
c11 11 15 26 19 38c10 8 29 12 54 11c33 -2 44 -23 38 -46c-9 -30 -22 -57 -48 -77c-25 -20 -62 -32 -115 -32c-56 0 -95 13 -122 34c-28 22 -41 51 -46 82c-3 24 9 37 37 40c22 2 42 -2 56 -8z" />
    <glyph glyph-name="ubreve" unicode="&#x16d;" horiz-adv-x="590" 
d="M458 0c-34 0 -72 11 -91 59c-41 -43 -92 -69 -154 -69c-67 0 -132 43 -132 158v198c0 21 -8 28 -23 28h-45c-5 16 -7 28 -7 50c0 54 57 76 117 76c74 0 103 -24 103 -93v-229c0 -40 14 -58 43 -58c42 0 67 26 89 57v307c19 10 47 16 78 16c50 0 67 -19 67 -55v-298
c0 -24 12 -31 26 -31h36c2 -8 4 -17 4 -45c0 -41 -28 -71 -111 -71zM205 694c1 -12 5 -26 15 -38c11 -13 30 -22 59 -22c27 0 43 7 53 18c11 11 15 26 19 38c10 8 29 12 54 11c33 -2 44 -23 38 -46c-9 -30 -22 -57 -48 -77c-25 -20 -62 -32 -115 -32c-56 0 -95 13 -122 34
c-28 22 -41 51 -46 82c-3 24 9 37 37 40c22 2 42 -2 56 -8z" />
    <glyph glyph-name="Uring" unicode="&#x16e;" horiz-adv-x="678" 
d="M460 276v411c13 8 38 13 75 13c41 0 73 -12 73 -51v-394c0 -182 -100 -265 -272 -265s-266 83 -266 265v433c13 8 45 12 77 12c43 0 71 -11 71 -50v-374c0 -96 37 -149 118 -149c92 0 124 52 124 149zM245 834c0 62 32 94 94 94s94 -32 94 -94s-32 -94 -94 -94
s-94 32 -94 94zM304 834c0 -23 12 -35 35 -35s35 12 35 35s-12 35 -35 35s-35 -12 -35 -35z" />
    <glyph glyph-name="uring" unicode="&#x16f;" horiz-adv-x="590" 
d="M458 0c-34 0 -72 11 -91 59c-41 -43 -92 -69 -154 -69c-67 0 -132 43 -132 158v198c0 21 -8 28 -23 28h-45c-5 16 -7 28 -7 50c0 54 57 76 117 76c74 0 103 -24 103 -93v-229c0 -40 14 -58 43 -58c42 0 67 26 89 57v307c19 10 47 16 78 16c50 0 67 -19 67 -55v-298
c0 -24 12 -31 26 -31h36c2 -8 4 -17 4 -45c0 -41 -28 -71 -111 -71zM187 634c0 62 32 94 94 94s94 -32 94 -94s-32 -94 -94 -94s-94 32 -94 94zM246 634c0 -23 12 -35 35 -35s35 12 35 35s-12 35 -35 35s-35 -12 -35 -35z" />
    <glyph glyph-name="Uhungarumlaut" unicode="&#x170;" horiz-adv-x="678" 
d="M460 276v411c13 8 38 13 75 13c41 0 73 -12 73 -51v-394c0 -182 -100 -265 -272 -265s-266 83 -266 265v433c13 8 45 12 77 12c43 0 71 -11 71 -50v-374c0 -96 37 -149 118 -149c92 0 124 52 124 149zM154 786c47 34 91 158 161 158c40 0 56 -19 62 -46
c-50 -42 -116 -148 -170 -148c-28 0 -45 13 -53 36zM358 795c25 10 119 130 175 130c45 0 61 -25 63 -56c-51 -32 -130 -119 -183 -119c-28 0 -50 17 -55 45z" />
    <glyph glyph-name="uhungarumlaut" unicode="&#x171;" horiz-adv-x="590" 
d="M458 0c-34 0 -72 11 -91 59c-41 -43 -92 -69 -154 -69c-67 0 -132 43 -132 158v198c0 21 -8 28 -23 28h-45c-5 16 -7 28 -7 50c0 54 57 76 117 76c74 0 103 -24 103 -93v-229c0 -40 14 -58 43 -58c42 0 67 26 89 57v307c19 10 47 16 78 16c50 0 67 -19 67 -55v-298
c0 -24 12 -31 26 -31h36c2 -8 4 -17 4 -45c0 -41 -28 -71 -111 -71zM101 586c47 34 91 158 161 158c40 0 56 -19 62 -46c-50 -42 -116 -148 -170 -148c-28 0 -45 13 -53 36zM305 595c25 10 119 130 175 130c45 0 61 -25 63 -56c-51 -32 -130 -119 -183 -119
c-28 0 -50 17 -55 45z" />
    <glyph glyph-name="Uogonek" unicode="&#x172;" horiz-adv-x="678" 
d="M460 276v411c13 8 38 13 75 13c41 0 73 -12 73 -51v-394c0 -137 -57 -218 -158 -250c-24 -37 -44 -59 -44 -87c0 -25 13 -34 46 -34c6 -11 8 -20 8 -34c0 -16 -4 -39 -51 -39c-53 0 -83 36 -83 85c0 36 13 69 30 95c-7 -1 -14 -1 -20 -1c-172 0 -266 83 -266 265v433
c13 8 45 12 77 12c43 0 71 -11 71 -50v-374c0 -96 37 -149 118 -149c92 0 124 52 124 149z" />
    <glyph glyph-name="uogonek" unicode="&#x173;" horiz-adv-x="590" 
d="M569 71c0 -18 -6 -35 -19 -47c-24 -36 -43 -58 -43 -86c0 -25 13 -34 46 -34c6 -11 8 -20 8 -34c0 -16 -4 -39 -51 -39c-53 0 -83 36 -83 85c0 32 10 60 24 84c-32 1 -67 14 -84 59c-41 -43 -92 -69 -154 -69c-67 0 -132 43 -132 158v198c0 21 -8 28 -23 28h-45
c-5 16 -7 28 -7 50c0 54 57 76 117 76c74 0 103 -24 103 -93v-229c0 -40 14 -58 43 -58c42 0 67 26 89 57v307c19 10 47 16 78 16c50 0 67 -19 67 -55v-298c0 -24 12 -31 26 -31h36c2 -8 4 -17 4 -45z" />
    <glyph glyph-name="Wcircumflex" unicode="&#x174;" horiz-adv-x="985" 
d="M624 57l-125 409c-49 -174 -85 -301 -161 -455c-20 -7 -50 -11 -74 -11c-35 0 -56 16 -71 57l-188 627c17 9 50 16 88 16s76 -12 86 -48l117 -434c48 121 90 285 127 466c17 9 38 16 76 16s76 -15 86 -48l132 -435c73 168 98 374 105 467c22 11 46 16 84 16
c27 0 54 -14 54 -38c0 -12 -2 -35 -10 -87c-10 -69 -48 -317 -190 -565c-20 -7 -41 -10 -65 -10c-35 0 -56 16 -71 57zM678 784c-3 -19 -14 -33 -29 -40c-8 -4 -17 -5 -26 -5c-35 0 -80 37 -122 71c-42 -34 -88 -71 -122 -71c-9 0 -18 1 -26 5c-15 7 -26 21 -29 40
c25 9 118 130 174 130c60 0 150 -119 180 -130z" />
    <glyph glyph-name="wcircumflex" unicode="&#x175;" horiz-adv-x="777" 
d="M476 12l-75 219c-15 -54 -34 -111 -58 -154c-29 -52 -59 -77 -101 -77c-25 0 -38 5 -50 12l-130 357c-4 12 -12 19 -25 19h-23c-5 15 -8 29 -8 50c0 39 22 62 83 62c70 0 86 -30 113 -109l68 -202c38 90 44 160 44 288c22 18 52 23 73 23c40 0 63 -20 73 -50l91 -267
c39 50 63 135 63 180c0 15 -13 25 -23 25h-26c-4 11 -8 27 -8 48c0 37 33 64 94 64c73 0 96 -43 96 -103c0 -92 -61 -234 -121 -325c-29 -43 -51 -72 -94 -72c-25 0 -43 4 -56 12zM563 584c-3 -19 -14 -33 -29 -40c-8 -4 -17 -5 -26 -5c-35 0 -80 37 -122 71
c-42 -34 -88 -71 -122 -71c-9 0 -18 1 -26 5c-15 7 -26 21 -29 40c25 9 118 130 174 130c60 0 150 -119 180 -130z" />
    <glyph glyph-name="Ycircumflex" unicode="&#x176;" horiz-adv-x="569" 
d="M370 243v-227c-12 -8 -41 -16 -83 -16s-65 13 -65 46v192c-87 144 -182 308 -217 444c19 10 48 18 81 18c39 0 80 -7 92 -45c38 -118 76 -187 129 -282c69 120 113 242 132 320c15 5 47 7 75 7c30 0 50 -20 50 -51c0 -72 -117 -292 -194 -406zM471 784
c-3 -19 -14 -33 -29 -40c-8 -4 -17 -5 -26 -5c-35 0 -80 37 -122 71c-42 -34 -88 -71 -122 -71c-9 0 -18 1 -26 5c-15 7 -26 21 -29 40c25 9 118 130 174 130c60 0 150 -119 180 -130z" />
    <glyph glyph-name="ycircumflex" unicode="&#x177;" horiz-adv-x="540" 
d="M27 -98h59c62 0 113 64 150 128c-32 8 -55 36 -68 71l-95 261c-7 19 -15 26 -29 26h-35c-7 15 -9 34 -9 50c0 37 37 62 103 62c56 0 88 -27 105 -81l77 -241c4 -13 7 -18 15 -23c41 84 71 159 71 204c0 18 -8 29 -24 29h-31c-5 11 -9 30 -9 50c0 38 44 62 96 62
c82 0 112 -39 112 -101c0 -94 -85 -278 -159 -411c-69 -124 -154 -200 -256 -200c-54 0 -84 20 -84 64c0 15 2 29 11 50zM446 584c-3 -19 -14 -33 -29 -40c-8 -4 -17 -5 -26 -5c-35 0 -80 37 -122 71c-42 -34 -88 -71 -122 -71c-9 0 -18 1 -26 5c-15 7 -26 21 -29 40
c25 9 118 130 174 130c60 0 150 -119 180 -130z" />
    <glyph glyph-name="Ydieresis" unicode="&#x178;" horiz-adv-x="569" 
d="M370 243v-227c-12 -8 -41 -16 -83 -16s-65 13 -65 46v192c-87 144 -182 308 -217 444c19 10 48 18 81 18c39 0 80 -7 92 -45c38 -118 76 -187 129 -282c69 120 113 242 132 320c15 5 47 7 75 7c30 0 50 -20 50 -51c0 -72 -117 -292 -194 -406zM128 841c0 48 22 72 72 72
c48 0 72 -24 72 -72c0 -49 -24 -72 -72 -72c-49 0 -72 24 -72 72zM332 841c0 48 22 72 72 72c48 0 72 -24 72 -72c0 -49 -24 -72 -72 -72c-49 0 -72 24 -72 72z" />
    <glyph glyph-name="Zacute" unicode="&#x179;" horiz-adv-x="613" 
d="M550 574l-325 -443h356c6 -12 12 -37 12 -68c0 -30 -12 -63 -56 -63h-505c-9 17 -12 29 -12 52c0 26 7 48 22 68l331 446h-310c-9 19 -16 36 -16 66c0 33 16 68 48 68h473c7 -10 10 -26 10 -49c0 -29 -9 -51 -28 -77zM227 782c25 10 119 130 175 130c45 0 61 -25 63 -56
c-51 -32 -130 -119 -183 -119c-28 0 -50 17 -55 45z" />
    <glyph glyph-name="zacute" unicode="&#x17a;" horiz-adv-x="481" 
d="M25 55c0 22 5 41 17 56l201 272h-195c-8 14 -13 30 -13 51c0 35 5 66 55 66h333c5 -11 9 -26 9 -49c0 -26 -10 -54 -23 -71l-190 -258h229c6 -11 11 -25 11 -60c0 -27 -8 -62 -54 -62h-366c-8 14 -14 34 -14 55zM139 582c25 10 119 130 175 130c45 0 61 -25 63 -56
c-51 -32 -130 -119 -183 -119c-28 0 -50 17 -55 45z" />
    <glyph glyph-name="Zdotaccent" unicode="&#x17b;" horiz-adv-x="613" 
d="M550 574l-325 -443h356c6 -12 12 -37 12 -68c0 -30 -12 -63 -56 -63h-505c-9 17 -12 29 -12 52c0 26 7 48 22 68l331 446h-310c-9 19 -16 36 -16 66c0 33 16 68 48 68h473c7 -10 10 -26 10 -49c0 -29 -9 -51 -28 -77zM244 824c0 48 22 72 72 72c48 0 72 -24 72 -72
c0 -49 -24 -72 -72 -72c-49 0 -72 24 -72 72z" />
    <glyph glyph-name="zdotaccent" unicode="&#x17c;" horiz-adv-x="481" 
d="M25 55c0 22 5 41 17 56l201 272h-195c-8 14 -13 30 -13 51c0 35 5 66 55 66h333c5 -11 9 -26 9 -49c0 -26 -10 -54 -23 -71l-190 -258h229c6 -11 11 -25 11 -60c0 -27 -8 -62 -54 -62h-366c-8 14 -14 34 -14 55zM169 635c0 48 22 72 72 72c48 0 72 -24 72 -72
c0 -49 -24 -72 -72 -72c-49 0 -72 24 -72 72z" />
    <glyph glyph-name="Zcaron" unicode="&#x17d;" horiz-adv-x="613" 
d="M550 574l-325 -443h356c6 -12 12 -37 12 -68c0 -30 -12 -63 -56 -63h-505c-9 17 -12 29 -12 52c0 26 7 48 22 68l331 446h-310c-9 19 -16 36 -16 66c0 33 16 68 48 68h473c7 -10 10 -26 10 -49c0 -29 -9 -51 -28 -77zM313 750c-13 0 -19 3 -25 6c-50 20 -113 86 -156 113
c2 31 33 56 63 56c34 0 82 -44 120 -81c38 37 86 81 120 81c28 0 61 -25 63 -56c-43 -27 -105 -92 -157 -113c-5 -2 -12 -7 -28 -6z" />
    <glyph glyph-name="zcaron" unicode="&#x17e;" horiz-adv-x="481" 
d="M25 55c0 22 5 41 17 56l201 272h-195c-8 14 -13 30 -13 51c0 35 5 66 55 66h333c5 -11 9 -26 9 -49c0 -26 -10 -54 -23 -71l-190 -258h229c6 -11 11 -25 11 -60c0 -27 -8 -62 -54 -62h-366c-8 14 -14 34 -14 55zM236 540c-13 0 -19 3 -25 6c-50 20 -113 86 -156 113
c2 31 33 56 63 56c34 0 82 -44 120 -81c38 37 86 81 120 81c28 0 61 -25 63 -56c-43 -27 -105 -92 -157 -113c-5 -2 -12 -7 -28 -6z" />
    <glyph glyph-name="florin" unicode="&#x192;" horiz-adv-x="480" 
d="M376 276h-80l-40 -278c-17 -118 -78 -169 -194 -169c-69 0 -91 26 -91 67c0 23 5 47 12 64h74c27 0 49 10 56 57l37 259h-95c-9 19 -16 33 -16 71c0 33 15 61 74 61h56l19 134c15 111 79 158 200 158c64 0 84 -33 84 -66c0 -29 -4 -46 -10 -68h-76c-32 0 -50 -9 -55 -44
l-16 -114h119c7 -10 14 -30 14 -60c0 -43 -19 -72 -72 -72z" />
    <glyph glyph-name="Scommaaccent" unicode="&#x218;" horiz-adv-x="579" 
d="M291 710c109 0 160 -27 191 -55c23 -21 28 -45 28 -67c0 -27 -13 -49 -27 -70c-40 21 -102 55 -191 55c-60 0 -93 -29 -93 -70c0 -32 17 -64 131 -92c144 -35 209 -91 209 -206c0 -123 -66 -215 -247 -215c-109 0 -176 15 -216 45c-28 21 -36 44 -36 74c0 28 10 52 19 67
c57 -29 142 -49 228 -49c82 0 100 38 100 65c0 36 -17 58 -118 82c-166 40 -222 105 -222 223c0 129 87 213 244 213zM280 -192c-44 0 -61 22 -61 65s20 65 65 65c43 0 69 -24 69 -92c0 -104 -32 -146 -69 -146c-26 0 -36 7 -39 25c23 13 35 67 35 83z" />
    <glyph glyph-name="scommaaccent" unicode="&#x219;" horiz-adv-x="446" 
d="M226 510c127 0 171 -37 171 -91c0 -33 -5 -43 -17 -67c-29 16 -93 38 -145 38c-49 0 -66 -20 -66 -35c0 -16 13 -32 69 -39c131 -17 178 -68 178 -162c0 -99 -61 -164 -188 -164c-133 0 -198 36 -198 99c0 17 6 39 21 58c39 -19 113 -37 168 -37c52 0 66 19 66 34
c0 18 -21 31 -81 40c-130 19 -165 79 -165 162c0 101 64 164 187 164zM217 -177c-44 0 -61 22 -61 65s20 65 65 65c43 0 69 -24 69 -92c0 -104 -32 -146 -69 -146c-26 0 -36 7 -39 25c23 13 35 67 35 83z" />
    <glyph glyph-name="dotlessj" unicode="&#x237;" horiz-adv-x="302" 
d="M126 500c66 0 106 -28 106 -108v-439c0 -112 -44 -165 -146 -165c-71 0 -129 13 -129 69c0 22 1 38 10 58h74c34 0 46 30 46 66v362c0 24 -11 31 -24 31h-35c-5 16 -8 29 -8 52c0 48 36 74 106 74z" />
    <glyph glyph-name="circumflex" unicode="&#x2c6;" horiz-adv-x="481" 
d="M404 584c-3 -19 -14 -33 -29 -40c-8 -4 -17 -5 -26 -5c-35 0 -80 37 -122 71c-42 -34 -88 -71 -122 -71c-9 0 -18 1 -26 5c-15 7 -26 21 -29 40c25 9 118 130 174 130c60 0 150 -119 180 -130z" />
    <glyph glyph-name="caron" unicode="&#x2c7;" horiz-adv-x="474" 
d="M231 540c-13 0 -19 3 -25 6c-50 20 -113 86 -156 113c2 31 33 56 63 56c34 0 82 -44 120 -81c38 37 86 81 120 81c28 0 61 -25 63 -56c-43 -27 -105 -92 -157 -113c-5 -2 -12 -7 -28 -6z" />
    <glyph glyph-name="breve" unicode="&#x2d8;" horiz-adv-x="476" 
d="M155 694c1 -12 5 -26 15 -38c11 -13 30 -22 59 -22c27 0 43 7 53 18c11 11 15 26 19 38c10 8 29 12 54 11c33 -2 44 -23 38 -46c-9 -30 -22 -57 -48 -77c-25 -20 -62 -32 -115 -32c-56 0 -95 13 -122 34c-28 22 -41 51 -46 82c-3 24 9 37 37 40c22 2 42 -2 56 -8z" />
    <glyph glyph-name="dotaccent" unicode="&#x2d9;" horiz-adv-x="438" 
d="M143 635c0 48 22 72 72 72c48 0 72 -24 72 -72c0 -49 -24 -72 -72 -72c-49 0 -72 24 -72 72z" />
    <glyph glyph-name="ring" unicode="&#x2da;" horiz-adv-x="428" 
d="M120 634c0 62 32 94 94 94s94 -32 94 -94s-32 -94 -94 -94s-94 32 -94 94zM179 634c0 -23 12 -35 35 -35s35 12 35 35s-12 35 -35 35s-35 -12 -35 -35z" />
    <glyph glyph-name="ogonek" unicode="&#x2db;" horiz-adv-x="495" 
d="M340 38l56 -32c-24 -38 -44 -60 -44 -88c0 -25 13 -34 46 -34c6 -11 8 -20 8 -34c0 -16 -4 -39 -51 -39c-53 0 -83 36 -83 85c0 63 41 114 68 142z" />
    <glyph glyph-name="tilde" unicode="&#x2dc;" horiz-adv-x="484" 
d="M147 693c66 0 106 -36 148 -36c45 0 61 35 63 42c13 -5 30 -38 30 -65c0 -36 -24 -78 -82 -78c-68 0 -103 35 -159 35c-33 0 -52 -28 -55 -43c-22 6 -28 36 -28 58c0 29 16 87 83 87z" />
    <glyph glyph-name="hungarumlaut" unicode="&#x2dd;" horiz-adv-x="509" 
d="M41 586c47 34 91 158 161 158c40 0 56 -19 62 -46c-50 -42 -116 -148 -170 -148c-28 0 -45 13 -53 36zM245 595c25 10 119 130 175 130c45 0 61 -25 63 -56c-51 -32 -130 -119 -183 -119c-28 0 -50 17 -55 45z" />
    <glyph glyph-name="commaaccent" horiz-adv-x="190" 
d="M89 -192c-44 0 -61 22 -61 65s20 65 65 65c43 0 69 -24 69 -92c0 -104 -32 -146 -69 -146c-26 0 -36 7 -39 25c23 13 35 67 35 83z" />
    <glyph glyph-name="uni0394" unicode="&#x394;" horiz-adv-x="640" 
d="M84 0c-38 0 -65 6 -79 20l215 606c20 58 52 74 98 74c38 0 74 -22 93 -72l224 -597c-15 -26 -41 -31 -68 -31h-483zM317 496l-123 -369h262z" />
    <glyph glyph-name="uni03A9" unicode="&#x3a9;" horiz-adv-x="682" 
d="M161 114l2 4c-70 43 -123 139 -123 248c0 240 135 344 300 344c172 0 302 -103 302 -343c0 -110 -46 -203 -123 -249l1 -4h126c7 -9 16 -17 16 -43c0 -41 -16 -71 -45 -71h-237c-9 17 -16 33 -16 77c0 31 6 59 20 61c67 10 110 80 110 225c0 155 -70 218 -154 218
c-79 0 -154 -61 -154 -216c0 -137 70 -214 126 -228c7 -9 16 -40 16 -66c0 -41 -16 -71 -45 -71h-247c-9 17 -16 33 -16 57c0 38 17 57 74 57h67z" />
    <glyph glyph-name="uni03BC" unicode="&#x3bc;" horiz-adv-x="607" 
d="M470 0c-34 0 -77 11 -96 59c-33 -34 -72 -58 -118 -66c-12 -2 -24 -3 -36 -3v-145c-10 -9 -35 -15 -72 -15c-33 0 -67 10 -67 68v448c0 21 -8 28 -23 28h-45c-5 16 -7 27 -7 57c0 47 57 69 117 69c74 0 110 -25 110 -93v-183c0 -51 4 -85 43 -85c42 0 67 12 89 38v307
c19 10 52 16 83 16c50 0 71 -18 71 -55c0 -99 1 -199 1 -298c0 -24 12 -31 26 -31h36c2 -8 4 -17 4 -45c0 -21 -8 -38 -27 -51s-48 -20 -89 -20z" />
    <glyph glyph-name="pi" unicode="&#x3c0;" horiz-adv-x="612" 
d="M94 142v220h-68c-9 19 -16 37 -16 63c0 43 7 75 74 75h502c7 -10 16 -30 16 -59c0 -45 -16 -79 -45 -79h-39v-349c-10 -7 -47 -13 -70 -13c-42 0 -79 9 -79 68v294h-127v-234c0 -109 -63 -133 -148 -133c-41 0 -75 20 -75 74c42 7 75 25 75 73z" />
    <glyph glyph-name="Wgrave" unicode="&#x1e80;" horiz-adv-x="985" 
d="M624 57l-125 409c-49 -174 -85 -301 -161 -455c-20 -7 -50 -11 -74 -11c-35 0 -56 16 -71 57l-188 627c17 9 50 16 88 16s76 -12 86 -48l117 -434c48 121 90 285 127 466c17 9 38 16 76 16s76 -15 86 -48l132 -435c73 168 98 374 105 467c22 11 46 16 84 16
c27 0 54 -14 54 -38c0 -12 -2 -35 -10 -87c-10 -69 -48 -317 -190 -565c-20 -7 -41 -10 -65 -10c-35 0 -56 16 -71 57zM585 779c-5 -28 -27 -45 -55 -45c-53 0 -132 87 -183 119c2 31 18 56 63 56c56 0 150 -120 175 -130z" />
    <glyph glyph-name="wgrave" unicode="&#x1e81;" horiz-adv-x="777" 
d="M476 12l-75 219c-15 -54 -34 -111 -58 -154c-29 -52 -59 -77 -101 -77c-25 0 -38 5 -50 12l-130 357c-4 12 -12 19 -25 19h-23c-5 15 -8 29 -8 50c0 39 22 62 83 62c70 0 86 -30 113 -109l68 -202c38 90 44 160 44 288c22 18 52 23 73 23c40 0 63 -20 73 -50l91 -267
c39 50 63 135 63 180c0 15 -13 25 -23 25h-26c-4 11 -8 27 -8 48c0 37 33 64 94 64c73 0 96 -43 96 -103c0 -92 -61 -234 -121 -325c-29 -43 -51 -72 -94 -72c-25 0 -43 4 -56 12zM466 579c-5 -28 -27 -45 -55 -45c-53 0 -132 87 -183 119c2 31 18 56 63 56
c56 0 150 -120 175 -130z" />
    <glyph glyph-name="Wacute" unicode="&#x1e82;" horiz-adv-x="985" 
d="M624 57l-125 409c-49 -174 -85 -301 -161 -455c-20 -7 -50 -11 -74 -11c-35 0 -56 16 -71 57l-188 627c17 9 50 16 88 16s76 -12 86 -48l117 -434c48 121 90 285 127 466c17 9 38 16 76 16s76 -15 86 -48l132 -435c73 168 98 374 105 467c22 11 46 16 84 16
c27 0 54 -14 54 -38c0 -12 -2 -35 -10 -87c-10 -69 -48 -317 -190 -565c-20 -7 -41 -10 -65 -10c-35 0 -56 16 -71 57zM397 782c25 10 119 130 175 130c45 0 61 -25 63 -56c-51 -32 -130 -119 -183 -119c-28 0 -50 17 -55 45z" />
    <glyph glyph-name="wacute" unicode="&#x1e83;" horiz-adv-x="777" 
d="M476 12l-75 219c-15 -54 -34 -111 -58 -154c-29 -52 -59 -77 -101 -77c-25 0 -38 5 -50 12l-130 357c-4 12 -12 19 -25 19h-23c-5 15 -8 29 -8 50c0 39 22 62 83 62c70 0 86 -30 113 -109l68 -202c38 90 44 160 44 288c22 18 52 23 73 23c40 0 63 -20 73 -50l91 -267
c39 50 63 135 63 180c0 15 -13 25 -23 25h-26c-4 11 -8 27 -8 48c0 37 33 64 94 64c73 0 96 -43 96 -103c0 -92 -61 -234 -121 -325c-29 -43 -51 -72 -94 -72c-25 0 -43 4 -56 12zM286 582c25 10 119 130 175 130c45 0 61 -25 63 -56c-51 -32 -130 -119 -183 -119
c-28 0 -50 17 -55 45z" />
    <glyph glyph-name="Wdieresis" unicode="&#x1e84;" horiz-adv-x="985" 
d="M624 57l-125 409c-49 -174 -85 -301 -161 -455c-20 -7 -50 -11 -74 -11c-35 0 -56 16 -71 57l-188 627c17 9 50 16 88 16s76 -12 86 -48l117 -434c48 121 90 285 127 466c17 9 38 16 76 16s76 -15 86 -48l132 -435c73 168 98 374 105 467c22 11 46 16 84 16
c27 0 54 -14 54 -38c0 -12 -2 -35 -10 -87c-10 -69 -48 -317 -190 -565c-20 -7 -41 -10 -65 -10c-35 0 -56 16 -71 57zM327 831c0 48 22 72 72 72c48 0 72 -24 72 -72c0 -49 -24 -72 -72 -72c-49 0 -72 24 -72 72zM531 831c0 48 22 72 72 72c48 0 72 -24 72 -72
c0 -49 -24 -72 -72 -72c-49 0 -72 24 -72 72z" />
    <glyph glyph-name="wdieresis" unicode="&#x1e85;" horiz-adv-x="777" 
d="M476 12l-75 219c-15 -54 -34 -111 -58 -154c-29 -52 -59 -77 -101 -77c-25 0 -38 5 -50 12l-130 357c-4 12 -12 19 -25 19h-23c-5 15 -8 29 -8 50c0 39 22 62 83 62c70 0 86 -30 113 -109l68 -202c38 90 44 160 44 288c22 18 52 23 73 23c40 0 63 -20 73 -50l91 -267
c39 50 63 135 63 180c0 15 -13 25 -23 25h-26c-4 11 -8 27 -8 48c0 37 33 64 94 64c73 0 96 -43 96 -103c0 -92 -61 -234 -121 -325c-29 -43 -51 -72 -94 -72c-25 0 -43 4 -56 12zM207 631c0 48 22 72 72 72c48 0 72 -24 72 -72c0 -49 -24 -72 -72 -72c-49 0 -72 24 -72 72z
M411 631c0 48 22 72 72 72c48 0 72 -24 72 -72c0 -49 -24 -72 -72 -72c-49 0 -72 24 -72 72z" />
    <glyph glyph-name="Ygrave" unicode="&#x1ef2;" horiz-adv-x="569" 
d="M370 243v-227c-12 -8 -41 -16 -83 -16s-65 13 -65 46v192c-87 144 -182 308 -217 444c19 10 48 18 81 18c39 0 80 -7 92 -45c38 -118 76 -187 129 -282c69 120 113 242 132 320c15 5 47 7 75 7c30 0 50 -20 50 -51c0 -72 -117 -292 -194 -406zM383 779
c-5 -28 -27 -45 -55 -45c-53 0 -132 87 -183 119c2 31 18 56 63 56c56 0 150 -120 175 -130z" />
    <glyph glyph-name="ygrave" unicode="&#x1ef3;" horiz-adv-x="540" 
d="M27 -98h59c62 0 113 64 150 128c-32 8 -55 36 -68 71l-95 261c-7 19 -15 26 -29 26h-35c-7 15 -9 34 -9 50c0 37 37 62 103 62c56 0 88 -27 105 -81l77 -241c4 -13 7 -18 15 -23c41 84 71 159 71 204c0 18 -8 29 -24 29h-31c-5 11 -9 30 -9 50c0 38 44 62 96 62
c82 0 112 -39 112 -101c0 -94 -85 -278 -159 -411c-69 -124 -154 -200 -256 -200c-54 0 -84 20 -84 64c0 15 2 29 11 50zM357 579c-5 -28 -27 -45 -55 -45c-53 0 -132 87 -183 119c2 31 18 56 63 56c56 0 150 -120 175 -130z" />
    <glyph glyph-name="endash" unicode="&#x2013;" horiz-adv-x="499" 
d="M388 195h-327c-9 19 -16 37 -16 73c0 34 16 65 57 65h338c9 -17 14 -42 14 -68c0 -31 -11 -70 -66 -70z" />
    <glyph glyph-name="emdash" unicode="&#x2014;" horiz-adv-x="643" 
d="M546 195h-485c-9 19 -16 44 -16 70c0 31 15 68 59 68h480c7 -10 14 -39 14 -65c0 -31 -11 -73 -52 -73z" />
    <glyph glyph-name="quoteleft" unicode="&#x2018;" horiz-adv-x="229" 
d="M121 580c49 0 68 -24 68 -72s-22 -72 -72 -72c-48 0 -77 26 -77 102c0 115 36 162 77 162c29 0 40 -8 43 -28c-26 -14 -39 -74 -39 -92z" />
    <glyph glyph-name="quoteright" unicode="&#x2019;" horiz-adv-x="229" 
d="M108 556c-49 0 -68 24 -68 72s22 72 72 72c48 0 77 -26 77 -102c0 -115 -36 -162 -77 -162c-29 0 -40 8 -43 28c26 14 39 74 39 92z" />
    <glyph glyph-name="quotesinglbase" unicode="&#x201a;" horiz-adv-x="229" 
d="M108 0c-49 0 -68 24 -68 72s22 72 72 72c48 0 77 -26 77 -102c0 -115 -36 -162 -77 -162c-29 0 -40 8 -43 28c26 14 39 74 39 92z" />
    <glyph glyph-name="quotedblleft" unicode="&#x201c;" horiz-adv-x="418" 
d="M121 581c49 0 68 -24 68 -72s-22 -72 -72 -72c-48 0 -77 26 -77 102c0 115 36 162 77 162c29 0 40 -8 43 -28c-26 -14 -39 -74 -39 -92zM310 581c49 0 68 -24 68 -72s-22 -72 -72 -72c-48 0 -77 26 -77 102c0 115 36 162 77 162c29 0 40 -8 43 -28
c-26 -14 -39 -74 -39 -92z" />
    <glyph glyph-name="quotedblright" unicode="&#x201d;" horiz-adv-x="418" 
d="M108 557c-49 0 -68 24 -68 72s22 72 72 72c48 0 77 -26 77 -102c0 -115 -36 -162 -77 -162c-29 0 -40 8 -43 28c26 14 39 74 39 92zM297 557c-49 0 -68 24 -68 72s22 72 72 72c48 0 77 -26 77 -102c0 -115 -36 -162 -77 -162c-29 0 -40 8 -43 28c26 14 39 74 39 92z" />
    <glyph glyph-name="quotedblbase" unicode="&#x201e;" horiz-adv-x="418" 
d="M108 0c-49 0 -68 24 -68 72s22 72 72 72c48 0 77 -26 77 -102c0 -115 -36 -162 -77 -162c-29 0 -40 8 -43 28c26 14 39 74 39 92zM297 0c-49 0 -68 24 -68 72s22 72 72 72c48 0 77 -26 77 -102c0 -115 -36 -162 -77 -162c-29 0 -40 8 -43 28c26 14 39 74 39 92z" />
    <glyph glyph-name="dagger" unicode="&#x2020;" horiz-adv-x="449" 
d="M363 404h-65v-488c-19 -10 -45 -16 -85 -16c-37 0 -63 18 -63 59v445h-114c-9 19 -16 37 -16 73c0 34 16 65 57 65h73v158c14 8 45 13 77 13c42 0 71 -12 71 -51v-120h117c9 -17 14 -42 14 -68c0 -31 -11 -70 -66 -70z" />
    <glyph glyph-name="daggerdbl" unicode="&#x2021;" horiz-adv-x="449" 
d="M363 65h-65v-149c-19 -10 -45 -16 -85 -16c-37 0 -63 18 -63 59v106h-114c-9 19 -16 37 -16 73c0 34 16 65 57 65h73v201h-114c-9 19 -16 37 -16 73c0 34 16 65 57 65h73v158c14 8 45 13 77 13c42 0 71 -12 71 -51v-120h117c9 -17 14 -42 14 -68c0 -31 -11 -70 -66 -70
h-65v-201h117c9 -17 14 -42 14 -68c0 -31 -11 -70 -66 -70z" />
    <glyph glyph-name="bullet" unicode="&#x2022;" horiz-adv-x="302" 
d="M50 263c0 67 31 101 101 101c67 0 101 -34 101 -101c0 -69 -34 -101 -101 -101c-69 0 -101 34 -101 101z" />
    <glyph glyph-name="ellipsis" unicode="&#x2026;" horiz-adv-x="672" 
d="M40 72c0 48 22 72 72 72c48 0 72 -24 72 -72c0 -49 -24 -72 -72 -72c-49 0 -72 24 -72 72zM264 72c0 48 22 72 72 72c48 0 72 -24 72 -72c0 -49 -24 -72 -72 -72c-49 0 -72 24 -72 72zM488 72c0 48 22 72 72 72c48 0 72 -24 72 -72c0 -49 -24 -72 -72 -72
c-49 0 -72 24 -72 72z" />
    <glyph glyph-name="perthousand" unicode="&#x2030;" horiz-adv-x="1263" 
d="M571 700c43 0 63 -19 49 -56l-244 -635c-12 -6 -16 -11 -49 -11c-42 0 -64 18 -43 74l233 621c16 5 27 7 54 7zM529 203c0 152 78 211 169 211c96 0 174 -59 174 -211c0 -150 -77 -207 -171 -207c-95 0 -172 60 -172 207zM630 200c0 -92 41 -124 71 -124
c38 0 68 29 68 124c0 98 -36 130 -71 130c-31 0 -68 -32 -68 -130zM899 203c0 152 78 211 169 211c96 0 174 -59 174 -211c0 -150 -77 -207 -171 -207c-95 0 -172 60 -172 207zM1000 200c0 -92 41 -124 71 -124c38 0 68 29 68 124c0 98 -36 130 -71 130
c-31 0 -68 -32 -68 -130zM28 490c0 152 78 211 169 211c96 0 174 -59 174 -211c0 -150 -77 -207 -171 -207c-95 0 -172 60 -172 207zM129 487c0 -92 41 -124 71 -124c38 0 68 29 68 124c0 98 -36 130 -71 130c-31 0 -68 -32 -68 -130z" />
    <glyph glyph-name="guilsinglleft" unicode="&#x2039;" horiz-adv-x="284" 
d="M47 317l109 126c13 15 28 18 39 18c40 0 64 -34 64 -62c0 -21 -7 -35 -18 -48l-89 -108l86 -111c15 -20 19 -31 19 -46c0 -36 -38 -56 -65 -56c-19 0 -37 7 -53 27l-92 120c-16 21 -25 42 -25 71c0 27 11 52 25 69z" />
    <glyph glyph-name="guilsinglright" unicode="&#x203a;" horiz-adv-x="284" 
d="M237 174l-109 -126c-13 -15 -28 -18 -39 -18c-40 0 -64 34 -64 62c0 21 7 35 18 48l89 108l-86 111c-15 20 -19 31 -19 46c0 36 38 56 65 56c19 0 37 -7 53 -27l92 -120c16 -21 25 -42 25 -71c0 -27 -11 -52 -25 -69z" />
    <glyph glyph-name="fraction" unicode="&#x2044;" horiz-adv-x="180" 
d="M213 700c43 0 63 -19 49 -56l-244 -635c-12 -6 -16 -11 -49 -11c-42 0 -64 18 -43 74l233 621c16 5 27 7 54 7z" />
    <glyph glyph-name="Euro" unicode="&#x20ac;" horiz-adv-x="701" 
d="M388 215h-117c29 -65 83 -84 138 -84c69 0 137 34 164 84c5 1 9 1 14 1c37 0 83 -17 83 -61c0 -94 -139 -161 -261 -161c-139 0 -253 64 -292 221h-87c-9 16 -13 26 -13 49c0 13 1 24 4 33c6 18 22 28 67 28h15v41h-73c-9 16 -13 26 -13 49c0 38 4 61 71 61h28
c38 163 149 233 299 233c68 0 231 -17 231 -117c0 -37 -27 -72 -64 -85c-52 45 -92 64 -165 64c-71 0 -121 -26 -148 -95h226c7 -8 12 -18 12 -41c0 -26 -9 -69 -70 -69h-188v-41h197c7 -8 12 -18 12 -41c0 -26 -9 -69 -70 -69z" />
    <glyph glyph-name="trademark" unicode="&#x2122;" horiz-adv-x="748" 
d="M523 345c-26 0 -47 6 -59 48l-41 139l-12 -167c-2 -25 -19 -34 -49 -34c-17 0 -35 2 -45 7l27 302c3 37 23 62 65 62c21 0 30 -2 43 -7l70 -224l42 181c8 36 29 50 59 50c28 0 39 -2 56 -9l55 -350c-11 -7 -29 -12 -50 -12c-26 0 -47 6 -50 34l-18 167l-32 -138
c-11 -49 -35 -49 -61 -49zM274 618h-78v-280c-10 -5 -27 -7 -52 -7c-21 0 -39 10 -39 41v246h-96c-6 12 -10 26 -10 43c0 26 16 41 40 41h252c4 -6 10 -18 10 -36c0 -26 -10 -48 -27 -48z" />
    <glyph glyph-name="Omega" unicode="&#x2126;" horiz-adv-x="682" 
d="M161 114l2 4c-70 43 -123 139 -123 248c0 240 135 344 300 344c172 0 302 -103 302 -343c0 -110 -46 -203 -123 -249l1 -4h126c7 -9 16 -17 16 -43c0 -41 -16 -71 -45 -71h-237c-9 17 -16 33 -16 77c0 31 6 59 20 61c67 10 110 80 110 225c0 155 -70 218 -154 218
c-79 0 -154 -61 -154 -216c0 -137 70 -214 126 -228c7 -9 16 -40 16 -66c0 -41 -16 -71 -45 -71h-247c-9 17 -16 33 -16 57c0 38 17 57 74 57h67z" />
    <glyph glyph-name="partialdiff" unicode="&#x2202;" horiz-adv-x="587" 
d="M547 440c0 -297 -127 -450 -275 -450c-137 0 -232 69 -232 233c0 202 117 287 260 287c31 0 68 -10 102 -33c-7 159 -58 219 -150 219c-47 0 -115 -7 -152 -26c-8 14 -16 31 -16 53c0 18 4 43 23 55c34 21 83 35 160 35c197 0 280 -171 280 -373zM291 379
c-52 0 -99 -41 -99 -149c0 -83 37 -112 81 -112c47 0 106 80 124 225c-28 25 -62 36 -106 36z" />
    <glyph glyph-name="Delta" unicode="&#x2206;" horiz-adv-x="640" 
d="M84 0c-38 0 -65 6 -79 20l215 606c20 58 52 74 98 74c38 0 74 -22 93 -72l224 -597c-15 -26 -41 -31 -68 -31h-483zM317 496l-123 -369h262z" />
    <glyph glyph-name="product" unicode="&#x220f;" horiz-adv-x="767" 
d="M702 562h-75v-763c-10 -7 -47 -13 -70 -13c-42 0 -79 9 -79 68v708h-190v-760c-9 -9 -51 -16 -85 -16c-31 0 -63 9 -63 68v708h-104c-9 19 -16 37 -16 63c0 43 7 75 74 75h637c7 -10 16 -30 16 -59c0 -45 -16 -79 -45 -79z" />
    <glyph glyph-name="summation" unicode="&#x2211;" horiz-adv-x="665" 
d="M571 -179h-529c-10 19 -17 29 -17 66c0 17 2 31 12 41l268 340l-244 298c-6 19 -9 36 -9 61c0 42 7 73 72 73h494c7 -10 10 -18 10 -44c0 -37 -10 -90 -69 -90h-299l223 -268c0 -13 -4 -31 -23 -57l-221 -297h390c8 -8 14 -35 14 -53c0 -37 -12 -70 -72 -70z" />
    <glyph glyph-name="minus" unicode="&#x2212;" horiz-adv-x="499" 
d="M388 195h-327c-9 19 -16 37 -16 73c0 34 16 65 57 65h338c9 -17 14 -42 14 -68c0 -31 -11 -70 -66 -70z" />
    <glyph glyph-name="radical" unicode="&#x221a;" horiz-adv-x="659" 
d="M34 372h248l64 -218l147 500c10 30 32 46 80 46c39 0 58 -6 86 -20l-216 -664c-25 -10 -63 -16 -119 -16c-59 0 -84 24 -99 71l-55 171h-110c-24 0 -40 26 -40 66c0 21 8 46 14 64z" />
    <glyph glyph-name="infinity" unicode="&#x221e;" horiz-adv-x="711" 
d="M516 62c-66 0 -112 35 -152 99c-37 -52 -96 -99 -165 -99c-89 0 -169 81 -169 201c0 122 73 212 169 212c70 0 117 -37 158 -100c33 55 79 100 159 100c77 0 165 -61 165 -207c0 -140 -73 -206 -165 -206zM208 196c50 0 81 36 100 74c-32 47 -62 74 -98 74
s-59 -43 -59 -74c0 -35 25 -74 57 -74zM507 344c-35 0 -71 -32 -95 -80c28 -44 61 -68 96 -68c32 0 54 33 54 72c0 43 -22 76 -55 76z" />
    <glyph glyph-name="integral" unicode="&#x222b;" horiz-adv-x="393" 
d="M242 714c0 -239 53 -465 53 -668c0 -167 -78 -217 -174 -217c-81 0 -111 24 -111 65c0 23 5 42 12 59h74c27 0 54 10 57 71c9 236 -54 472 -54 690c0 141 79 184 177 184c87 0 107 -33 107 -66c0 -29 -4 -39 -10 -61h-76c-32 0 -55 -9 -55 -57z" />
    <glyph glyph-name="approxequal" unicode="&#x2248;" horiz-adv-x="499" 
d="M145 244c83 0 130 -35 196 -35c51 0 74 20 76 29c16 -7 38 -38 38 -72c0 -45 -32 -88 -92 -88c-69 0 -155 34 -226 34c-29 0 -51 -12 -55 -30c-28 7 -35 41 -35 69c0 46 26 93 98 93zM142 457c83 0 130 -35 196 -35c51 0 74 20 76 29c16 -7 38 -38 38 -72
c0 -45 -32 -88 -92 -88c-69 0 -155 34 -226 34c-29 0 -51 -12 -55 -30c-28 7 -35 41 -35 69c0 46 26 93 98 93z" />
    <glyph glyph-name="notequal" unicode="&#x2260;" horiz-adv-x="499" 
d="M388 71h-153l-36 -94c-10 -5 -33 -9 -60 -9c-34 0 -52 15 -35 60l16 43h-59c-9 19 -16 37 -16 73c0 34 16 65 57 65h70l29 78h-140c-9 19 -16 37 -16 73c0 34 16 65 57 65h151l42 111c13 5 31 6 53 6c35 0 62 -15 51 -46l-28 -71h69c9 -17 14 -42 14 -68
c0 -31 -11 -70 -66 -70h-70l-30 -78h152c9 -17 14 -42 14 -68c0 -31 -11 -70 -66 -70z" />
    <glyph glyph-name="lessequal" unicode="&#x2264;" horiz-adv-x="499" 
d="M388 -19h-327c-9 15 -16 30 -16 58s16 52 57 52h338c9 -13 14 -33 14 -54c0 -25 -11 -56 -66 -56zM141 456l154 139c26 24 43 26 56 26c28 0 51 -30 65 -71l-195 -177l187 -176c-14 -42 -45 -73 -73 -73c-19 0 -35 9 -53 27l-155 147c-21 21 -34 44 -34 74
c0 36 15 54 48 84z" />
    <glyph glyph-name="greaterequal" unicode="&#x2265;" horiz-adv-x="499" 
d="M438 -19h-327c-55 0 -66 31 -66 56c0 21 5 41 14 54h338c41 0 57 -24 57 -52s-7 -43 -16 -58zM204 595l154 -139c33 -30 48 -48 48 -84c0 -30 -13 -53 -34 -74l-155 -147c-18 -18 -34 -27 -53 -27c-28 0 -59 31 -73 73l187 176l-195 177c14 41 37 71 65 71
c13 0 30 -2 56 -26z" />
    <glyph glyph-name="lozenge" unicode="&#x25ca;" horiz-adv-x="447" 
d="M427 352l-136 -302c-18 -40 -45 -50 -88 -50c-18 0 -40 4 -54 12l-129 350l139 288c19 39 45 50 88 50c18 0 40 -4 54 -12zM162 361l63 -175l63 154l-63 174z" />
    <glyph glyph-name="AEacute" unicode="&#x1fc;" horiz-adv-x="906" 
d="M821 0h-345c-31 0 -63 8 -63 67v67h-213l-32 -85c-14 -36 -35 -49 -84 -49c-38 0 -65 6 -79 20l254 656c23 16 55 24 90 24h501c7 -10 16 -30 16 -59c0 -45 -16 -76 -45 -76h-260v-143h240c7 -10 16 -36 16 -65c0 -45 -16 -70 -41 -70h-215v-152h289c7 -10 16 -27 16 -56
c0 -45 -16 -79 -45 -79zM361 565l-114 -304h166v304h-52zM459 782c25 10 119 130 175 130c45 0 61 -25 63 -56c-51 -32 -130 -119 -183 -119c-28 0 -50 17 -55 45z" />
    <glyph glyph-name="aeacute" unicode="&#x1fd;" horiz-adv-x="767" 
d="M79 359c-7 16 -17 37 -17 59c0 76 106 92 172 92c69 0 120 -19 153 -54c42 35 95 54 151 54c124 0 199 -89 199 -225c0 -28 -3 -56 -10 -77h-282c11 -61 47 -93 103 -93c53 0 104 10 155 39c11 -10 24 -29 24 -57c0 -68 -79 -107 -196 -107c-77 0 -137 31 -176 83
c-54 -47 -127 -83 -193 -83c-91 0 -142 63 -142 163c0 74 35 127 105 147c44 12 117 9 176 9c-6 48 -37 76 -85 76c-50 0 -101 -13 -137 -26zM189 112c41 0 70 11 125 49c-3 11 -5 22 -7 34l-2 18l-111 -13c-34 -4 -47 -22 -47 -46c0 -22 15 -42 42 -42zM537 385
c-41 0 -76 -29 -91 -84h160c0 55 -24 84 -69 84zM321 587c25 10 119 130 175 130c45 0 61 -25 63 -56c-51 -32 -130 -119 -183 -119c-28 0 -50 17 -55 45z" />
    <glyph glyph-name="Oslashacute" unicode="&#x1fe;" horiz-adv-x="687" 
d="M40 349c0 257 138 361 303 361c37 0 73 -5 106 -16l51 108c15 5 31 5 46 5c32 0 53 -21 53 -37c0 -8 -1 -14 -5 -23l-50 -106c64 -57 103 -152 103 -292c0 -258 -135 -359 -303 -359c-36 0 -71 5 -103 15l-59 -126c-13 -3 -23 -4 -36 -4c-26 0 -59 17 -59 38
c0 9 2 18 7 29l54 114c-67 57 -108 152 -108 293zM192 345c0 -61 10 -107 26 -140l171 361c-15 5 -30 7 -46 7c-79 0 -151 -55 -151 -228zM495 345c0 62 -9 108 -24 143l-169 -356c13 -4 28 -5 42 -5c88 0 151 48 151 218zM222 782c25 10 119 130 175 130
c45 0 61 -25 63 -56c-51 -32 -130 -119 -183 -119c-28 0 -50 17 -55 45z" />
    <glyph glyph-name="oslashacute" unicode="&#x1ff;" horiz-adv-x="553" 
d="M35 248c0 185 106 262 241 262c19 0 38 -2 55 -5l38 105c11 4 24 7 36 7c20 0 33 -6 33 -21c0 -8 -2 -17 -5 -25l-32 -88c72 -37 117 -112 117 -235c0 -186 -106 -258 -242 -258c-17 0 -34 1 -50 4l-31 -88c-13 -7 -20 -9 -40 -9c-14 0 -29 7 -29 20c0 9 2 20 6 31l24 67
c-73 35 -121 110 -121 233zM185 246c0 -41 8 -70 21 -90l80 223c-3 1 -7 1 -10 1c-48 0 -91 -37 -91 -134zM368 246c0 40 -7 70 -19 91l-78 -217h5c52 0 92 29 92 126zM157 582c25 10 119 130 175 130c45 0 61 -25 63 -56c-51 -32 -130 -119 -183 -119c-28 0 -50 17 -55 45z
" />
    <glyph glyph-name="Tcommaaccent" unicode="&#x162;" horiz-adv-x="573" 
d="M518 562h-157v-550c-15 -8 -44 -12 -84 -12c-34 0 -64 15 -64 67v495h-187c-9 19 -16 43 -16 70c0 34 15 68 66 68h471c7 -10 16 -30 16 -59c0 -45 -16 -79 -45 -79zM287 -192c-44 0 -61 22 -61 65s20 65 65 65c43 0 69 -24 69 -92c0 -104 -32 -146 -69 -146
c-26 0 -36 7 -39 25c23 13 35 67 35 83z" />
    <glyph glyph-name="tcommaaccent" unicode="&#x163;" horiz-adv-x="389" 
d="M312 383h-75v-210c0 -40 13 -52 42 -52h86c5 -12 9 -20 9 -42c0 -43 -29 -79 -151 -79c-71 0 -131 34 -131 145v238h-59c-8 14 -13 30 -13 51c0 42 11 66 49 66h23v106c15 8 44 15 75 15c36 0 70 -15 70 -57v-64h116c11 -10 15 -26 15 -45c0 -27 -9 -72 -56 -72z
M190 -177c-44 0 -61 22 -61 65s20 65 65 65c43 0 69 -24 69 -92c0 -104 -32 -146 -69 -146c-26 0 -36 7 -39 25c23 13 35 67 35 83z" />
    <glyph glyph-name="uni1E8A" unicode="&#x1e8a;" horiz-adv-x="651" 
d="M109 700c59 0 82 -28 115 -75l104 -149l116 172c23 34 51 52 103 52c48 0 70 -12 81 -29l-215 -317l233 -334c-22 -12 -39 -20 -95 -20c-43 0 -88 23 -118 65l-116 167l-130 -188c-20 -30 -59 -44 -101 -44c-43 0 -62 11 -76 28l218 330l-213 305c16 21 39 37 94 37z
M255 824c0 48 22 72 72 72c48 0 72 -24 72 -72c0 -49 -24 -72 -72 -72c-49 0 -72 24 -72 72z" />
    <glyph glyph-name="uni1E8B" unicode="&#x1e8b;" horiz-adv-x="513" 
d="M128 500c56 0 79 -22 106 -70l36 -64l43 73c29 49 55 61 91 61c61 0 78 -44 78 -89l-145 -159l51 -87c24 -42 43 -52 64 -52h43c6 -14 8 -25 8 -44c0 -43 -34 -69 -109 -69c-42 0 -82 21 -108 64l-45 75l-51 -86c-22 -37 -52 -53 -94 -53c-51 0 -70 36 -74 85l152 165
l-74 122c-6 9 -17 16 -34 16h-40c-4 13 -6 26 -6 41c0 45 50 71 108 71zM193 625c0 48 22 72 72 72c48 0 72 -24 72 -72c0 -49 -24 -72 -72 -72c-49 0 -72 24 -72 72z" />
    <glyph glyph-name="aringacute" unicode="&#x1fb;" horiz-adv-x="568" 
d="M449 0c-35 0 -65 15 -85 40c-36 -34 -77 -50 -132 -50c-88 0 -197 71 -197 258c0 181 89 262 189 262c59 0 95 -27 115 -57v10c0 26 33 37 61 37s59 -7 81 -17v-346c0 -24 9 -33 45 -33h13c5 -14 9 -22 9 -44c0 -31 -33 -60 -99 -60zM268 120c27 0 49 7 68 17v182
c-15 28 -40 61 -78 61c-40 0 -73 -46 -73 -131c0 -90 33 -129 83 -129zM188 628c0 62 32 94 94 94s94 -32 94 -94s-32 -94 -94 -94s-94 32 -94 94zM247 628c0 -23 12 -35 35 -35s35 12 35 35s-12 35 -35 35s-35 -12 -35 -35zM209 792c25 10 119 130 175 130
c45 0 61 -25 63 -56c-51 -32 -130 -119 -183 -119c-28 0 -50 17 -55 45z" />
    <glyph glyph-name="idotaccent" horiz-adv-x="319" 
d="M124 500c55 0 108 -17 108 -117v-247c0 -21 7 -30 22 -30h33c5 -11 8 -22 8 -43c0 -38 -31 -63 -107 -63c-66 0 -101 25 -101 112v231c0 24 -11 31 -24 31h-29c-6 12 -8 27 -8 51c0 53 37 75 98 75zM64 629c0 53 25 80 80 80c53 0 80 -27 80 -80c0 -54 -27 -80 -80 -80
c-54 0 -80 27 -80 80z" />
    <glyph glyph-name="braceleft.case" horiz-adv-x="391" 
d="M238 761c81 0 123 -24 123 -83c0 -19 -3 -34 -7 -46h-87c-34 0 -52 -22 -52 -57v-133c0 -73 -38 -89 -53 -91v-7c14 -1 53 -22 53 -93v-113c0 -48 21 -65 51 -65h87c5 -9 8 -24 8 -42c0 -53 -35 -82 -132 -82c-62 0 -141 33 -141 128v157c0 48 -20 55 -40 58
c-18 2 -28 23 -28 58c0 20 2 40 8 48c29 1 60 10 60 54v155c0 120 74 154 150 154z" />
    <glyph glyph-name="braceright.case" horiz-adv-x="391" 
d="M153 -54c-81 0 -123 24 -123 83c0 19 3 34 7 46h87c34 0 52 22 52 57v133c0 73 38 89 53 91v7c-14 1 -53 22 -53 93v113c0 48 -21 65 -51 65h-87c-5 9 -8 24 -8 42c0 53 35 82 132 82c62 0 141 -33 141 -128v-157c0 -48 20 -55 40 -58c18 -2 28 -23 28 -58
c0 -20 -2 -40 -8 -48c-29 -1 -60 -10 -60 -54v-155c0 -120 -74 -154 -150 -154z" />
    <glyph glyph-name="bracketleft.case" horiz-adv-x="388" 
d="M57 30v722c19 13 49 20 88 20h188c7 -10 16 -30 16 -60c0 -45 -16 -70 -45 -70h-105v-553h134c7 -10 16 -25 16 -54c0 -46 -16 -75 -45 -75h-231c-9 19 -16 43 -16 70z" />
    <glyph glyph-name="bracketright.case" horiz-adv-x="388" 
d="M331 702v-722c-19 -13 -49 -20 -88 -20h-188c-7 10 -16 30 -16 60c0 45 16 70 45 70h105v553h-134c-7 10 -16 30 -16 59c0 46 16 70 45 70h231c9 -19 16 -43 16 -70z" />
    <glyph glyph-name="parenleft.case" horiz-adv-x="312" 
d="M29 359c0 272 99 399 190 399c39 0 74 -21 82 -63c-55 -49 -126 -124 -126 -335c0 -202 61 -288 133 -351c-11 -40 -39 -63 -83 -63c-98 0 -196 148 -196 413z" />
    <glyph glyph-name="parenright.case" horiz-adv-x="312" 
d="M283 344c0 -272 -99 -399 -190 -399c-39 0 -74 21 -82 63c55 49 126 124 126 335c0 202 -61 288 -133 351c11 40 39 63 83 63c98 0 196 -148 196 -413z" />
    <glyph glyph-name="hyphen.case" horiz-adv-x="420" 
d="M301 274h-239c-9 19 -16 37 -16 63c0 43 7 75 74 75h239c7 -10 14 -26 14 -52c0 -31 -11 -86 -72 -86z" />
    <glyph glyph-name="emdash.case" horiz-adv-x="643" 
d="M526 271h-465c-9 19 -16 37 -16 63c0 43 7 75 74 75h465c7 -10 14 -26 14 -52c0 -31 -11 -86 -72 -86z" />
    <glyph glyph-name="endash.case" horiz-adv-x="499" 
d="M382 280h-321c-9 19 -16 37 -16 63c0 43 7 75 74 75h321c7 -10 14 -26 14 -52c0 -31 -11 -86 -72 -86z" />
    <glyph glyph-name="exclamdown.case" horiz-adv-x="248" 
d="M129 -1c-37 0 -79 12 -79 51v437c9 9 42 18 75 18c43 0 73 -21 73 -80v-413c-13 -8 -32 -13 -69 -13zM195 628c0 -48 -22 -72 -72 -72c-48 0 -72 24 -72 72c0 49 24 72 72 72c49 0 72 -24 72 -72z" />
    <glyph glyph-name="questiondown.case" horiz-adv-x="498" 
d="M181 218c0 -38 27 -69 87 -69c58 0 115 37 154 70c23 -18 42 -48 42 -88c0 -59 -69 -131 -206 -131c-162 0 -225 93 -225 196c0 98 49 187 190 205l-9 98c10 13 30 19 67 19s60 -22 62 -52l6 -96c1 -21 -4 -41 -14 -54c-52 -2 -154 -20 -154 -98zM343 628
c0 -48 -22 -72 -72 -72c-48 0 -72 24 -72 72c0 49 24 72 72 72c49 0 72 -24 72 -72z" />
    <glyph glyph-name="guillemotleft.case" horiz-adv-x="509" 
d="M47 422l109 126c13 15 28 18 39 18c40 0 64 -34 64 -62c0 -21 -7 -35 -18 -48l-89 -108l86 -111c15 -20 19 -31 19 -46c0 -36 -38 -56 -65 -56c-19 0 -37 7 -53 27l-92 120c-16 21 -25 42 -25 71c0 27 11 52 25 69zM272 422l109 126c13 15 28 18 39 18
c40 0 64 -34 64 -62c0 -21 -7 -35 -18 -48l-89 -108l86 -111c15 -20 19 -31 19 -46c0 -36 -38 -56 -65 -56c-19 0 -37 7 -53 27l-92 120c-16 21 -25 42 -25 71c0 27 11 52 25 69z" />
    <glyph glyph-name="guillemotright.case" horiz-adv-x="509" 
d="M237 278l-109 -126c-13 -15 -28 -18 -39 -18c-40 0 -64 34 -64 62c0 21 7 35 18 48l89 108l-86 111c-15 20 -19 31 -19 46c0 36 38 56 65 56c19 0 37 -7 53 -27l92 -120c16 -21 25 -42 25 -71c0 -27 -11 -52 -25 -69zM462 278l-109 -126c-13 -15 -28 -18 -39 -18
c-40 0 -64 34 -64 62c0 21 7 35 18 48l89 108l-86 111c-15 20 -19 31 -19 46c0 36 38 56 65 56c19 0 37 -7 53 -27l92 -120c16 -21 25 -42 25 -71c0 -27 -11 -52 -25 -69z" />
    <glyph glyph-name="guilsinglleft.case" horiz-adv-x="284" 
d="M47 422l109 126c13 15 28 18 39 18c40 0 64 -34 64 -62c0 -21 -7 -35 -18 -48l-89 -108l86 -111c15 -20 19 -31 19 -46c0 -36 -38 -56 -65 -56c-19 0 -37 7 -53 27l-92 120c-16 21 -25 42 -25 71c0 27 11 52 25 69z" />
    <glyph glyph-name="guilsinglright.case" horiz-adv-x="284" 
d="M237 278l-109 -126c-13 -15 -28 -18 -39 -18c-40 0 -64 34 -64 62c0 21 7 35 18 48l89 108l-86 111c-15 20 -19 31 -19 46c0 36 38 56 65 56c19 0 37 -7 53 -27l92 -120c16 -21 25 -42 25 -71c0 -27 -11 -52 -25 -69z" />
    <glyph glyph-name="periodcentered.case" horiz-adv-x="224" 
d="M40 354c0 48 22 72 72 72c48 0 72 -24 72 -72c0 -49 -24 -72 -72 -72c-49 0 -72 24 -72 72z" />
    <glyph glyph-name="bsuperior" unicode="&#xf6ea;" horiz-adv-x="276" 
d="M104 670v-85c17 13 36 22 56 22c61 0 96 -43 96 -124c0 -93 -56 -138 -125 -138c-42 0 -66 8 -92 27c-6 4 -13 14 -13 25v294c10 5 22 9 39 9c22 0 39 -8 39 -30zM137 526c-10 0 -22 -2 -33 -6v-93c7 -5 18 -9 31 -9c29 0 41 26 41 54c0 33 -11 54 -39 54z" />
    <glyph glyph-name="asuperior" unicode="&#xf6e9;" horiz-adv-x="296" 
d="M236 350c-19 0 -35 7 -46 19c-19 -17 -41 -24 -72 -24c-48 0 -98 36 -98 125c0 92 50 137 96 137c26 0 49 -15 57 -31v4c0 17 11 27 33 27c23 0 37 -5 45 -10v-174c0 -12 4 -16 13 -16h17c2 -8 5 -12 5 -24c0 -17 -13 -33 -50 -33zM139 418c13 0 24 1 34 5v83
c-10 13 -20 23 -35 23c-21 0 -37 -22 -37 -55c0 -36 11 -56 38 -56z" />
    <glyph glyph-name="dsuperior" unicode="&#xf6eb;" horiz-adv-x="296" 
d="M236 350c-19 0 -35 7 -46 19c-19 -17 -41 -24 -72 -24c-48 0 -98 36 -98 125c0 92 50 137 104 137c19 0 36 -5 49 -13v79c0 17 11 27 33 27c23 0 37 -5 45 -10v-267c0 -12 4 -16 13 -16h17c2 -8 5 -12 5 -24c0 -17 -13 -33 -50 -33zM139 418c13 0 24 1 34 5v94
c-10 6 -20 7 -35 7c-21 0 -37 -17 -37 -50c0 -36 11 -56 38 -56z" />
    <glyph glyph-name="egravesuperior" horiz-adv-x="267" 
d="M244 451h-141c7 -25 24 -35 47 -35c30 0 67 6 83 16c6 -5 14 -16 14 -31c0 -17 -8 -28 -19 -34c-22 -15 -39 -22 -86 -22c-79 0 -122 57 -122 135c0 81 61 127 126 127s103 -44 103 -114c0 -15 -1 -30 -5 -42zM145 537c-14 0 -34 -12 -42 -35h74c0 25 -12 35 -32 35z
M206 662c-3 -17 -16 -27 -33 -27c-33 0 -82 53 -114 73c2 19 12 35 39 35c35 0 93 -75 108 -81z" />
    <glyph glyph-name="esuperior" unicode="&#xf6ec;" horiz-adv-x="267" 
d="M244 451h-141c7 -25 24 -35 47 -35c30 0 67 6 83 16c6 -5 14 -16 14 -31c0 -17 -8 -28 -19 -34c-22 -15 -39 -22 -86 -22c-79 0 -122 57 -122 135c0 81 61 127 126 127s103 -44 103 -114c0 -15 -1 -30 -5 -42zM145 537c-14 0 -34 -12 -42 -35h74c0 25 -12 35 -32 35z" />
    <glyph glyph-name="hsuperior" unicode="&#x2b0;" horiz-adv-x="286" 
d="M66 700c21 0 38 -7 38 -28v-93c19 17 41 28 69 28c46 0 77 -24 77 -89v-104c0 -8 3 -12 8 -12h14c3 -4 4 -9 4 -18c0 -19 -20 -34 -64 -34c-26 0 -45 14 -45 51v96c0 19 -8 29 -27 29c-12 0 -24 -4 -36 -11v-158c-7 -4 -24 -7 -43 -7c-18 0 -38 5 -38 37v304
c8 5 25 9 43 9z" />
    <glyph glyph-name="isuperior" unicode="&#xf6ed;" horiz-adv-x="169" 
d="M67 602c30 0 60 -9 60 -63v-116c0 -11 3 -16 11 -16h18c3 -6 4 -11 4 -23c0 -20 -16 -34 -59 -34c-37 0 -57 13 -57 60v107c0 13 -6 16 -13 16h-15c-3 7 -4 15 -4 28c0 29 20 41 55 41zM32 665c0 29 14 44 45 44c30 0 46 -15 46 -44s-16 -43 -46 -43c-31 0 -45 15 -45 43
z" />
    <glyph glyph-name="lsuperior" unicode="&#xf6ee;" horiz-adv-x="167" 
d="M106 666v-229c0 -18 6 -24 20 -24h31c2 -6 4 -11 4 -22c0 -20 -14 -41 -75 -41c-43 0 -61 30 -61 70v269c9 7 17 13 40 12c30 -1 41 -16 41 -35z" />
    <glyph glyph-name="msuperior" unicode="&#xf6ef;" horiz-adv-x="455" 
d="M77 602c23 0 48 -14 57 -40c25 32 47 45 79 45c22 0 44 -11 55 -41c24 26 50 41 79 41c35 0 68 -21 68 -78v-115c0 -8 4 -13 11 -13h16c2 -3 3 -6 3 -17c0 -21 -23 -34 -63 -34c-36 0 -51 14 -51 51v105c0 11 -3 17 -16 17s-28 -3 -41 -10v-99c0 -8 2 -13 10 -13h16
c2 -3 3 -9 3 -18c0 -22 -23 -33 -67 -33c-32 0 -48 14 -48 51v105c0 11 -3 17 -16 17c-10 0 -23 -4 -34 -9v-156c-10 -6 -26 -8 -48 -8s-41 8 -41 41v126c0 11 -4 16 -14 16h-15c-4 9 -7 18 -7 31c0 26 26 38 64 38z" />
    <glyph glyph-name="nsuperior" unicode="&#x207f;" horiz-adv-x="318" 
d="M74 602c23 0 46 -13 57 -34c23 26 48 39 78 39c37 0 68 -21 68 -78v-115c0 -8 5 -13 11 -13h16c3 -3 4 -6 4 -17c0 -21 -23 -34 -64 -34c-35 0 -51 14 -51 51v105c0 11 -6 19 -18 19c-13 0 -25 -4 -37 -11v-156c-10 -6 -26 -8 -48 -8s-41 8 -41 41v126c0 11 -4 16 -14 16
h-15c-4 9 -7 18 -7 31c0 26 20 38 61 38z" />
    <glyph glyph-name="osuperior" unicode="&#xf6f0;" horiz-adv-x="292" 
d="M20 475c0 94 56 132 126 132c71 0 126 -38 126 -132s-55 -130 -126 -130c-70 0 -126 39 -126 130zM108 474c0 -44 20 -59 38 -59c22 0 37 14 37 59s-17 61 -37 61c-19 0 -38 -15 -38 -61z" />
    <glyph glyph-name="rsuperior" unicode="&#xf6f1;" horiz-adv-x="252" 
d="M67 602c25 0 48 -5 58 -28c20 19 47 33 69 33c38 0 52 -20 52 -58c0 -48 -21 -65 -53 -65c-11 0 -23 4 -29 9c0 15 -4 24 -14 24c-8 0 -13 1 -19 -1v-158c-5 -5 -25 -9 -46 -9c-19 0 -38 5 -38 38v131c0 12 -6 15 -13 15h-18c-4 11 -6 20 -6 33c0 18 22 36 57 36z" />
    <glyph glyph-name="ssuperior" unicode="&#xf6f2;" horiz-adv-x="241" 
d="M123 607c68 0 91 -26 91 -48c0 -18 -2 -34 -9 -43c-16 7 -58 13 -83 13c-20 0 -27 -3 -27 -9c0 -5 6 -10 34 -12c66 -8 94 -32 94 -80c0 -51 -32 -83 -99 -83c-73 0 -106 18 -106 48c0 18 4 31 12 41c21 -9 60 -17 88 -17c24 0 30 4 30 9c0 6 -10 11 -39 13
c-69 9 -86 35 -86 83c0 53 34 85 100 85z" />
    <glyph glyph-name="tsuperior" unicode="&#xf6f3;" horiz-adv-x="215" 
d="M166 538h-36v-98c0 -18 6 -24 21 -24h44c3 -7 6 -11 6 -23c0 -23 -13 -43 -80 -43c-38 0 -69 18 -69 75v113h-32c-4 8 -7 16 -7 28c0 23 6 36 27 36h12v50c8 5 25 9 43 9c20 0 35 -9 35 -31v-28h58c7 -6 9 -14 9 -25c0 -14 -5 -39 -31 -39z" />
    <glyph glyph-name="uni2070" unicode="&#x2070;" horiz-adv-x="399" 
d="M28 488c0 152 78 211 169 211c96 0 174 -59 174 -211c0 -150 -77 -207 -171 -207c-95 0 -172 60 -172 207zM129 485c0 -92 41 -124 71 -124c38 0 68 29 68 124c0 98 -36 130 -71 130c-31 0 -68 -32 -68 -130z" />
    <glyph glyph-name="uni2074" unicode="&#x2074;" horiz-adv-x="383" 
d="M256 587c26 0 45 -8 45 -33v-114h60c5 -6 10 -19 10 -41c0 -26 -11 -38 -31 -38h-38v-69c-9 -4 -29 -7 -52 -7c-24 0 -41 10 -41 32l-1 44h-188c-6 7 -8 18 -8 29s4 28 9 43l84 257c11 5 29 9 56 9c25 0 38 -15 32 -34l-69 -225h84l-1 134c11 7 28 13 49 13z" />
    <glyph glyph-name="uni2075" unicode="&#x2075;" horiz-adv-x="356" 
d="M291 606h-160l-5 -69c16 4 34 7 58 7c73 0 146 -32 146 -130c0 -74 -59 -135 -161 -135c-110 0 -151 39 -151 73c0 20 13 38 36 52c20 -18 57 -44 111 -44c39 0 68 17 68 57c0 37 -34 51 -87 51c-28 0 -47 -3 -84 -3c-18 0 -29 16 -28 40l10 179c13 7 29 10 59 10h207
c5 -6 11 -19 11 -37c0 -29 -11 -51 -30 -51z" />
    <glyph glyph-name="uni2076" unicode="&#x2076;" horiz-adv-x="368" 
d="M28 503c0 130 75 199 184 199c59 0 115 -12 115 -52c0 -21 -11 -45 -26 -51c-21 8 -54 14 -86 14c-60 0 -83 -25 -88 -88c24 10 50 16 78 16c83 0 144 -28 144 -121c0 -69 -40 -141 -155 -141c-92 0 -166 49 -166 224zM193 470c-27 0 -49 -6 -66 -14c4 -69 24 -94 65 -94
c37 0 60 20 60 54c0 42 -20 54 -59 54z" />
    <glyph glyph-name="uni2077" unicode="&#x2077;" horiz-adv-x="333" 
d="M133 285c-31 0 -43 15 -36 34l104 289h-187c-5 6 -11 19 -11 45c0 21 11 46 30 46h277c5 -9 7 -21 7 -33s-3 -31 -10 -50l-122 -323c-10 -5 -24 -8 -52 -8z" />
    <glyph glyph-name="uni2078" unicode="&#x2078;" horiz-adv-x="367" 
d="M25 408c0 41 23 75 58 95c-24 19 -41 46 -41 84c0 73 46 113 138 113c94 0 143 -36 143 -112c0 -34 -17 -59 -42 -77c37 -17 61 -47 61 -105c0 -63 -46 -127 -153 -127c-113 0 -164 54 -164 129zM247 408c0 34 -35 44 -84 58c-28 -10 -41 -32 -41 -57
c0 -28 27 -48 65 -48s60 17 60 47zM131 587c0 -37 33 -49 66 -55c19 9 39 25 39 54s-24 42 -51 42c-30 0 -54 -14 -54 -41z" />
    <glyph glyph-name="uni2079" unicode="&#x2079;" horiz-adv-x="365" 
d="M337 485c0 -145 -75 -206 -169 -206c-86 0 -136 26 -136 62c0 22 9 37 21 47c21 -8 65 -20 94 -20c60 0 84 23 89 86c-24 -13 -50 -19 -78 -19c-67 0 -139 31 -139 119c0 83 43 148 151 148c94 0 167 -42 167 -217zM169 512c30 0 51 5 67 13c-5 65 -24 93 -59 93
c-38 0 -64 -16 -64 -55c0 -37 24 -51 56 -51z" />
    <glyph glyph-name="uni2080" unicode="&#x2080;" horiz-adv-x="399" 
d="M28 73c0 152 78 211 169 211c96 0 174 -59 174 -211c0 -150 -77 -207 -171 -207c-95 0 -172 60 -172 207zM129 70c0 -92 41 -124 71 -124c38 0 68 29 68 124c0 98 -36 130 -71 130c-31 0 -68 -32 -68 -130z" />
    <glyph glyph-name="uni2081" unicode="&#x2081;" horiz-adv-x="357" 
d="M318 -130h-270c-6 12 -11 24 -11 40c0 28 5 48 51 48h62v200c-24 -15 -51 -22 -72 -22c-25 0 -42 14 -42 44c0 18 3 28 10 39c42 3 93 29 104 60c10 4 32 7 51 7c30 0 48 -11 48 -33v-295h89c4 -6 11 -19 11 -37c0 -29 -11 -51 -31 -51z" />
    <glyph glyph-name="uni2082" unicode="&#x2082;" horiz-adv-x="359" 
d="M27 211c0 37 49 72 142 72c110 0 155 -53 155 -123c0 -76 -85 -152 -173 -203v-4l178 4c4 -7 7 -26 7 -45c0 -29 -7 -42 -31 -42h-273c-5 11 -9 21 -9 49s5 47 31 67c62 47 165 123 165 158c0 30 -18 43 -58 43c-39 0 -79 -14 -105 -33c-16 12 -29 32 -29 57z" />
    <glyph glyph-name="uni2083" unicode="&#x2083;" horiz-adv-x="347" 
d="M203 148c0 24 -15 37 -51 37s-73 -10 -102 -27c-15 12 -26 27 -26 53c0 36 45 72 134 72c107 0 147 -52 147 -114c0 -43 -28 -83 -65 -91v-1c38 -5 75 -38 75 -93c0 -58 -43 -120 -154 -120c-105 0 -143 40 -143 74c0 28 10 43 31 56c24 -22 59 -42 107 -42
c36 0 59 17 59 41c0 27 -13 40 -54 40h-24c-14 0 -22 16 -22 38c0 18 2 26 7 35c40 1 81 14 81 42z" />
    <glyph glyph-name="uni2084" unicode="&#x2084;" horiz-adv-x="383" 
d="M256 172c26 0 45 -8 45 -33v-114h60c5 -6 10 -19 10 -41c0 -26 -11 -38 -31 -38h-38v-69c-9 -4 -29 -7 -52 -7c-24 0 -41 10 -41 32l-1 44h-188c-6 7 -8 18 -8 29s4 28 9 43l84 257c11 5 29 9 56 9c25 0 38 -15 32 -34l-69 -225h84l-1 134c11 7 28 13 49 13z" />
    <glyph glyph-name="uni2085" unicode="&#x2085;" horiz-adv-x="356" 
d="M291 191h-160l-5 -69c16 4 34 7 58 7c73 0 146 -32 146 -130c0 -74 -59 -135 -161 -135c-110 0 -151 39 -151 73c0 20 13 38 36 52c20 -18 57 -44 111 -44c39 0 68 17 68 57c0 37 -34 51 -87 51c-28 0 -47 -3 -84 -3c-18 0 -29 16 -28 40l10 179c13 7 29 10 59 10h207
c5 -6 11 -19 11 -37c0 -29 -11 -51 -30 -51z" />
    <glyph glyph-name="uni2086" unicode="&#x2086;" horiz-adv-x="368" 
d="M28 88c0 130 75 199 184 199c59 0 115 -12 115 -52c0 -21 -11 -45 -26 -51c-21 8 -54 14 -86 14c-60 0 -83 -25 -88 -88c24 10 50 16 78 16c83 0 144 -28 144 -121c0 -69 -40 -141 -155 -141c-92 0 -166 49 -166 224zM193 55c-27 0 -49 -6 -66 -14c4 -69 24 -94 65 -94
c37 0 60 20 60 54c0 42 -20 54 -59 54z" />
    <glyph glyph-name="uni2087" unicode="&#x2087;" horiz-adv-x="333" 
d="M133 -130c-31 0 -43 15 -36 34l104 289h-187c-5 6 -11 19 -11 45c0 21 11 46 30 46h277c5 -9 7 -21 7 -33s-3 -31 -10 -50l-122 -323c-10 -5 -24 -8 -52 -8z" />
    <glyph glyph-name="uni2088" unicode="&#x2088;" horiz-adv-x="367" 
d="M25 -7c0 41 23 75 58 95c-24 19 -41 46 -41 84c0 73 46 113 138 113c94 0 143 -36 143 -112c0 -34 -17 -59 -42 -77c37 -17 61 -47 61 -105c0 -63 -46 -127 -153 -127c-113 0 -164 54 -164 129zM247 -7c0 34 -35 44 -84 58c-28 -10 -41 -32 -41 -57c0 -28 27 -48 65 -48
s60 17 60 47zM131 172c0 -37 33 -49 66 -55c19 9 39 25 39 54s-24 42 -51 42c-30 0 -54 -14 -54 -41z" />
    <glyph glyph-name="uni2089" unicode="&#x2089;" horiz-adv-x="365" 
d="M337 70c0 -145 -75 -206 -169 -206c-86 0 -136 26 -136 62c0 22 9 37 21 47c21 -8 65 -20 94 -20c60 0 84 23 89 86c-24 -13 -50 -19 -78 -19c-67 0 -139 31 -139 119c0 83 43 148 151 148c94 0 167 -42 167 -217zM169 97c30 0 51 5 67 13c-5 65 -24 93 -59 93
c-38 0 -64 -16 -64 -55c0 -37 24 -51 56 -51z" />
    <glyph glyph-name="zero.numr" horiz-adv-x="399" 
d="M28 488c0 152 78 211 169 211c96 0 174 -59 174 -211c0 -150 -77 -207 -171 -207c-95 0 -172 60 -172 207zM129 485c0 -92 41 -124 71 -124c38 0 68 29 68 124c0 98 -36 130 -71 130c-31 0 -68 -32 -68 -130z" />
    <glyph glyph-name="one.numr" horiz-adv-x="357" 
d="M318 285h-270c-6 12 -11 24 -11 40c0 28 5 48 51 48h62v200c-24 -15 -51 -22 -72 -22c-25 0 -42 14 -42 44c0 18 3 28 10 39c42 3 93 29 104 60c10 4 32 7 51 7c30 0 48 -11 48 -33v-295h89c4 -6 11 -19 11 -37c0 -29 -11 -51 -31 -51z" />
    <glyph glyph-name="two.numr" horiz-adv-x="359" 
d="M27 626c0 37 49 72 142 72c110 0 155 -53 155 -123c0 -76 -85 -152 -173 -203v-4l178 4c4 -7 7 -26 7 -45c0 -29 -7 -42 -31 -42h-273c-5 11 -9 21 -9 49s5 47 31 67c62 47 165 123 165 158c0 30 -18 43 -58 43c-39 0 -79 -14 -105 -33c-16 12 -29 32 -29 57z" />
    <glyph glyph-name="three.numr" horiz-adv-x="347" 
d="M203 563c0 24 -15 37 -51 37s-73 -10 -102 -27c-15 12 -26 27 -26 53c0 36 45 72 134 72c107 0 147 -52 147 -114c0 -43 -28 -83 -65 -91v-1c38 -5 75 -38 75 -93c0 -58 -43 -120 -154 -120c-105 0 -143 40 -143 74c0 28 10 43 31 56c24 -22 59 -42 107 -42
c36 0 59 17 59 41c0 27 -13 40 -54 40h-24c-14 0 -22 16 -22 38c0 18 2 26 7 35c40 1 81 14 81 42z" />
    <glyph glyph-name="four.numr" horiz-adv-x="383" 
d="M256 587c26 0 45 -8 45 -33v-114h60c5 -6 10 -19 10 -41c0 -26 -11 -38 -31 -38h-38v-69c-9 -4 -29 -7 -52 -7c-24 0 -41 10 -41 32l-1 44h-188c-6 7 -8 18 -8 29s4 28 9 43l84 257c11 5 29 9 56 9c25 0 38 -15 32 -34l-69 -225h84l-1 134c11 7 28 13 49 13z" />
    <glyph glyph-name="five.numr" horiz-adv-x="356" 
d="M291 606h-160l-5 -69c16 4 34 7 58 7c73 0 146 -32 146 -130c0 -74 -59 -135 -161 -135c-110 0 -151 39 -151 73c0 20 13 38 36 52c20 -18 57 -44 111 -44c39 0 68 17 68 57c0 37 -34 51 -87 51c-28 0 -47 -3 -84 -3c-18 0 -29 16 -28 40l10 179c13 7 29 10 59 10h207
c5 -6 11 -19 11 -37c0 -29 -11 -51 -30 -51z" />
    <glyph glyph-name="six.numr" horiz-adv-x="368" 
d="M28 503c0 130 75 199 184 199c59 0 115 -12 115 -52c0 -21 -11 -45 -26 -51c-21 8 -54 14 -86 14c-60 0 -83 -25 -88 -88c24 10 50 16 78 16c83 0 144 -28 144 -121c0 -69 -40 -141 -155 -141c-92 0 -166 49 -166 224zM193 470c-27 0 -49 -6 -66 -14c4 -69 24 -94 65 -94
c37 0 60 20 60 54c0 42 -20 54 -59 54z" />
    <glyph glyph-name="seven.numr" horiz-adv-x="333" 
d="M133 285c-31 0 -43 15 -36 34l104 289h-187c-5 6 -11 19 -11 45c0 21 11 46 30 46h277c5 -9 7 -21 7 -33s-3 -31 -10 -50l-122 -323c-10 -5 -24 -8 -52 -8z" />
    <glyph glyph-name="eight.numr" horiz-adv-x="367" 
d="M25 408c0 41 23 75 58 95c-24 19 -41 46 -41 84c0 73 46 113 138 113c94 0 143 -36 143 -112c0 -34 -17 -59 -42 -77c37 -17 61 -47 61 -105c0 -63 -46 -127 -153 -127c-113 0 -164 54 -164 129zM247 408c0 34 -35 44 -84 58c-28 -10 -41 -32 -41 -57
c0 -28 27 -48 65 -48s60 17 60 47zM131 587c0 -37 33 -49 66 -55c19 9 39 25 39 54s-24 42 -51 42c-30 0 -54 -14 -54 -41z" />
    <glyph glyph-name="nine.numr" horiz-adv-x="365" 
d="M337 485c0 -145 -75 -206 -169 -206c-86 0 -136 26 -136 62c0 22 9 37 21 47c21 -8 65 -20 94 -20c60 0 84 23 89 86c-24 -13 -50 -19 -78 -19c-67 0 -139 31 -139 119c0 83 43 148 151 148c94 0 167 -42 167 -217zM169 512c30 0 51 5 67 13c-5 65 -24 93 -59 93
c-38 0 -64 -16 -64 -55c0 -37 24 -51 56 -51z" />
    <glyph glyph-name="zero.dnom" horiz-adv-x="399" 
d="M28 203c0 152 78 211 169 211c96 0 174 -59 174 -211c0 -150 -77 -207 -171 -207c-95 0 -172 60 -172 207zM129 200c0 -92 41 -124 71 -124c38 0 68 29 68 124c0 98 -36 130 -71 130c-31 0 -68 -32 -68 -130z" />
    <glyph glyph-name="one.dnom" horiz-adv-x="357" 
d="M318 0h-270c-6 12 -11 24 -11 40c0 28 5 48 51 48h62v200c-24 -15 -51 -22 -72 -22c-25 0 -42 14 -42 44c0 18 3 28 10 39c42 3 93 29 104 60c10 4 32 7 51 7c30 0 48 -11 48 -33v-295h89c4 -6 11 -19 11 -37c0 -29 -11 -51 -31 -51z" />
    <glyph glyph-name="two.dnom" horiz-adv-x="359" 
d="M27 341c0 37 49 72 142 72c110 0 155 -53 155 -123c0 -76 -85 -152 -173 -203v-4l178 4c4 -7 7 -26 7 -45c0 -29 -7 -42 -31 -42h-273c-5 11 -9 21 -9 49s5 47 31 67c62 47 165 123 165 158c0 30 -18 43 -58 43c-39 0 -79 -14 -105 -33c-16 12 -29 32 -29 57z" />
    <glyph glyph-name="three.dnom" horiz-adv-x="347" 
d="M203 278c0 24 -15 37 -51 37s-73 -10 -102 -27c-15 12 -26 27 -26 53c0 36 45 72 134 72c107 0 147 -52 147 -114c0 -43 -28 -83 -65 -91v-1c38 -5 75 -38 75 -93c0 -58 -43 -120 -154 -120c-105 0 -143 40 -143 74c0 28 10 43 31 56c24 -22 59 -42 107 -42
c36 0 59 17 59 41c0 27 -13 40 -54 40h-24c-14 0 -22 16 -22 38c0 18 2 26 7 35c40 1 81 14 81 42z" />
    <glyph glyph-name="four.dnom" horiz-adv-x="382" 
d="M256 302c26 0 45 -8 45 -33v-114h60c5 -6 10 -19 10 -41c0 -26 -11 -38 -31 -38h-38v-69c-9 -4 -29 -7 -52 -7c-24 0 -41 10 -41 32l-1 44h-188c-6 7 -8 18 -8 29s4 28 9 43l84 257c11 5 29 9 56 9c25 0 38 -15 32 -34l-69 -225h84l-1 134c11 7 28 13 49 13z" />
    <glyph glyph-name="five.dnom" horiz-adv-x="356" 
d="M291 321h-160l-5 -69c16 4 34 7 58 7c73 0 146 -32 146 -130c0 -74 -59 -135 -161 -135c-110 0 -151 39 -151 73c0 20 13 38 36 52c20 -18 57 -44 111 -44c39 0 68 17 68 57c0 37 -34 51 -87 51c-28 0 -47 -3 -84 -3c-18 0 -29 16 -28 40l10 179c13 7 29 10 59 10h207
c5 -6 11 -19 11 -37c0 -29 -11 -51 -30 -51z" />
    <glyph glyph-name="six.dnom" horiz-adv-x="367" 
d="M28 218c0 130 75 199 184 199c59 0 115 -12 115 -52c0 -21 -11 -45 -26 -51c-21 8 -54 14 -86 14c-60 0 -83 -25 -88 -88c24 10 50 16 78 16c83 0 144 -28 144 -121c0 -69 -40 -141 -155 -141c-92 0 -166 49 -166 224zM193 185c-27 0 -49 -6 -66 -14c4 -69 24 -94 65 -94
c37 0 60 20 60 54c0 42 -20 54 -59 54z" />
    <glyph glyph-name="seven.dnom" horiz-adv-x="333" 
d="M133 0c-31 0 -43 15 -36 34l104 289h-187c-5 6 -11 19 -11 45c0 21 11 46 30 46h277c5 -9 7 -21 7 -33s-3 -31 -10 -50l-122 -323c-10 -5 -24 -8 -52 -8z" />
    <glyph glyph-name="eight.dnom" horiz-adv-x="367" 
d="M25 123c0 41 23 75 58 95c-24 19 -41 46 -41 84c0 73 46 113 138 113c94 0 143 -36 143 -112c0 -34 -17 -59 -42 -77c37 -17 61 -47 61 -105c0 -63 -46 -127 -153 -127c-113 0 -164 54 -164 129zM247 123c0 34 -35 44 -84 58c-28 -10 -41 -32 -41 -57
c0 -28 27 -48 65 -48s60 17 60 47zM131 302c0 -37 33 -49 66 -55c19 9 39 25 39 54s-24 42 -51 42c-30 0 -54 -14 -54 -41z" />
    <glyph glyph-name="nine.dnom" horiz-adv-x="365" 
d="M337 200c0 -145 -75 -206 -169 -206c-86 0 -136 26 -136 62c0 22 9 37 21 47c21 -8 65 -20 94 -20c60 0 84 23 89 86c-24 -13 -50 -19 -78 -19c-67 0 -139 31 -139 119c0 83 43 148 151 148c94 0 167 -42 167 -217zM169 227c30 0 51 5 67 13c-5 65 -24 93 -59 93
c-38 0 -64 -16 -64 -55c0 -37 24 -51 56 -51z" />
    <glyph glyph-name="onethird" unicode="&#x2153;" horiz-adv-x="934" 
d="M602 700c43 0 63 -19 49 -56l-244 -635c-12 -6 -16 -11 -49 -11c-42 0 -64 18 -43 74l233 621c16 5 27 7 54 7zM318 285h-270c-6 12 -11 24 -11 40c0 28 5 48 51 48h62v200c-24 -15 -51 -22 -72 -22c-25 0 -42 14 -42 44c0 18 3 28 10 39c42 3 93 29 104 60
c10 4 32 7 51 7c30 0 48 -11 48 -33v-295h89c4 -6 11 -19 11 -37c0 -29 -11 -51 -31 -51zM790 278c0 24 -15 37 -51 37s-73 -10 -102 -27c-15 12 -26 27 -26 53c0 36 45 72 134 72c107 0 147 -52 147 -114c0 -43 -28 -83 -65 -91v-1c38 -5 75 -38 75 -93
c0 -58 -43 -120 -154 -120c-105 0 -143 40 -143 74c0 28 10 43 31 56c24 -22 59 -42 107 -42c36 0 59 17 59 41c0 27 -13 40 -54 40h-24c-14 0 -22 16 -22 38c0 18 2 26 7 35c40 1 81 14 81 42z" />
    <glyph glyph-name="twothirds" unicode="&#x2154;" horiz-adv-x="934" 
d="M602 700c43 0 63 -19 49 -56l-244 -635c-12 -6 -16 -11 -49 -11c-42 0 -64 18 -43 74l233 621c16 5 27 7 54 7zM27 626c0 37 49 72 142 72c110 0 155 -53 155 -123c0 -76 -85 -152 -173 -203v-4l178 4c4 -7 7 -26 7 -45c0 -29 -7 -42 -31 -42h-273c-5 11 -9 21 -9 49
s5 47 31 67c62 47 165 123 165 158c0 30 -18 43 -58 43c-39 0 -79 -14 -105 -33c-16 12 -29 32 -29 57zM790 278c0 24 -15 37 -51 37s-73 -10 -102 -27c-15 12 -26 27 -26 53c0 36 45 72 134 72c107 0 147 -52 147 -114c0 -43 -28 -83 -65 -91v-1c38 -5 75 -38 75 -93
c0 -58 -43 -120 -154 -120c-105 0 -143 40 -143 74c0 28 10 43 31 56c24 -22 59 -42 107 -42c36 0 59 17 59 41c0 27 -13 40 -54 40h-24c-14 0 -22 16 -22 38c0 18 2 26 7 35c40 1 81 14 81 42z" />
    <glyph glyph-name="oneeighth" unicode="&#x215b;" horiz-adv-x="944" 
d="M602 700c43 0 63 -19 49 -56l-244 -635c-12 -6 -16 -11 -49 -11c-42 0 -64 18 -43 74l233 621c16 5 27 7 54 7zM318 285h-270c-6 12 -11 24 -11 40c0 28 5 48 51 48h62v200c-24 -15 -51 -22 -72 -22c-25 0 -42 14 -42 44c0 18 3 28 10 39c42 3 93 29 104 60
c10 4 32 7 51 7c30 0 48 -11 48 -33v-295h89c4 -6 11 -19 11 -37c0 -29 -11 -51 -31 -51zM602 123c0 41 23 75 58 95c-24 19 -41 46 -41 84c0 73 46 113 138 113c94 0 143 -36 143 -112c0 -34 -17 -59 -42 -77c37 -17 61 -47 61 -105c0 -63 -46 -127 -153 -127
c-113 0 -164 54 -164 129zM824 123c0 34 -35 44 -84 58c-28 -10 -41 -32 -41 -57c0 -28 27 -48 65 -48s60 17 60 47zM708 302c0 -37 33 -49 66 -55c19 9 39 25 39 54s-24 42 -51 42c-30 0 -54 -14 -54 -41z" />
    <glyph glyph-name="threeeighths" unicode="&#x215c;" horiz-adv-x="941" 
d="M590 700c43 0 63 -19 49 -56l-244 -635c-12 -6 -16 -11 -49 -11c-42 0 -64 18 -43 74l233 621c16 5 27 7 54 7zM203 563c0 24 -15 37 -51 37s-73 -10 -102 -27c-15 12 -26 27 -26 53c0 36 45 72 134 72c107 0 147 -52 147 -114c0 -43 -28 -83 -65 -91v-1
c38 -5 75 -38 75 -93c0 -58 -43 -120 -154 -120c-105 0 -143 40 -143 74c0 28 10 43 31 56c24 -22 59 -42 107 -42c36 0 59 17 59 41c0 27 -13 40 -54 40h-24c-14 0 -22 16 -22 38c0 18 2 26 7 35c40 1 81 14 81 42zM590 123c0 41 23 75 58 95c-24 19 -41 46 -41 84
c0 73 46 113 138 113c94 0 143 -36 143 -112c0 -34 -17 -59 -42 -77c37 -17 61 -47 61 -105c0 -63 -46 -127 -153 -127c-113 0 -164 54 -164 129zM812 123c0 34 -35 44 -84 58c-28 -10 -41 -32 -41 -57c0 -28 27 -48 65 -48s60 17 60 47zM696 302c0 -37 33 -49 66 -55
c19 9 39 25 39 54s-24 42 -51 42c-30 0 -54 -14 -54 -41z" />
    <glyph glyph-name="fiveeighths" unicode="&#x215d;" horiz-adv-x="944" 
d="M602 700c43 0 63 -19 49 -56l-244 -635c-12 -6 -16 -11 -49 -11c-42 0 -64 18 -43 74l233 621c16 5 27 7 54 7zM291 606h-160l-5 -69c16 4 34 7 58 7c73 0 146 -32 146 -130c0 -74 -59 -135 -161 -135c-110 0 -151 39 -151 73c0 20 13 38 36 52c20 -18 57 -44 111 -44
c39 0 68 17 68 57c0 37 -34 51 -87 51c-28 0 -47 -3 -84 -3c-18 0 -29 16 -28 40l10 179c13 7 29 10 59 10h207c5 -6 11 -19 11 -37c0 -29 -11 -51 -30 -51zM602 123c0 41 23 75 58 95c-24 19 -41 46 -41 84c0 73 46 113 138 113c94 0 143 -36 143 -112
c0 -34 -17 -59 -42 -77c37 -17 61 -47 61 -105c0 -63 -46 -127 -153 -127c-113 0 -164 54 -164 129zM824 123c0 34 -35 44 -84 58c-28 -10 -41 -32 -41 -57c0 -28 27 -48 65 -48s60 17 60 47zM708 302c0 -37 33 -49 66 -55c19 9 39 25 39 54s-24 42 -51 42
c-30 0 -54 -14 -54 -41z" />
    <glyph glyph-name="seveneighths" unicode="&#x215e;" horiz-adv-x="870" 
d="M528 700c43 0 63 -19 49 -56l-244 -635c-12 -6 -16 -11 -49 -11c-42 0 -64 18 -43 74l233 621c16 5 27 7 54 7zM133 285c-31 0 -43 15 -36 34l104 289h-187c-5 6 -11 19 -11 45c0 21 11 46 30 46h277c5 -9 7 -21 7 -33s-3 -31 -10 -50l-122 -323c-10 -5 -24 -8 -52 -8z
M528 123c0 41 23 75 58 95c-24 19 -41 46 -41 84c0 73 46 113 138 113c94 0 143 -36 143 -112c0 -34 -17 -59 -42 -77c37 -17 61 -47 61 -105c0 -63 -46 -127 -153 -127c-113 0 -164 54 -164 129zM750 123c0 34 -35 44 -84 58c-28 -10 -41 -32 -41 -57c0 -28 27 -48 65 -48
s60 17 60 47zM634 302c0 -37 33 -49 66 -55c19 9 39 25 39 54s-24 42 -51 42c-30 0 -54 -14 -54 -41z" />
    <glyph glyph-name="space.frac" horiz-adv-x="180" 
 />
    <glyph glyph-name="zero.tosf" 
d="M38 274c0 207 111 286 251 286c147 0 253 -79 253 -286c0 -203 -108 -281 -251 -281c-146 0 -253 82 -253 281zM187 268c0 -113 51 -145 104 -145c62 0 102 26 102 145c0 127 -42 162 -105 162c-61 0 -101 -35 -101 -162z" />
    <glyph glyph-name="one.tosf" 
d="M489 0h-408c-9 19 -16 37 -16 63c0 43 7 75 74 75h98v217c-38 -27 -71 -36 -104 -36c-37 0 -62 22 -62 68c0 28 5 43 15 61c66 5 134 44 151 96c15 6 46 12 74 12c44 0 70 -18 70 -52v-366h137c7 -10 16 -30 16 -59c0 -45 -16 -79 -45 -79z" />
    <glyph glyph-name="two.tosf" 
d="M82 441c0 64 68 119 202 119c160 0 225 -78 225 -171c0 -116 -129 -201 -271 -270h277c6 -9 11 -32 11 -53c0 -22 -2 -66 -44 -66h-396c-7 17 -13 32 -13 74c0 43 8 63 45 93c91 62 239 145 239 209c0 34 -31 54 -79 54c-72 0 -119 -36 -157 -59c-23 19 -39 42 -39 70z
" />
    <glyph glyph-name="three.tosf" 
d="M348 361c0 35 -24 69 -90 69c-58 0 -113 -24 -154 -73c-23 18 -39 42 -39 82c0 59 69 121 206 121c162 0 225 -88 225 -191c0 -72 -39 -122 -102 -144v-3c62 -12 117 -70 117 -162c0 -98 -66 -197 -236 -197c-163 0 -219 71 -219 126c0 42 14 64 46 83
c34 -38 87 -79 166 -79c63 0 99 36 99 80c0 49 -24 81 -89 81h-37c-21 0 -33 25 -33 59c0 29 3 41 11 55c66 1 129 29 129 93z" />
    <glyph glyph-name="four.tosf" 
d="M395 371c38 0 66 -12 66 -51v-197h92c7 -10 14 -30 14 -64c0 -40 -16 -59 -45 -59h-61v-118c-14 -7 -41 -11 -75 -11c-35 0 -61 16 -61 51v78h-284c-8 11 -11 28 -11 46c0 17 6 43 13 67l131 434c16 8 43 14 82 14c36 0 55 -24 46 -54l-110 -384h133v229
c16 10 40 19 70 19z" />
    <glyph glyph-name="five.tosf" 
d="M474 415h-251l-8 -127c25 7 55 12 93 12c115 0 225 -54 225 -216c0 -123 -88 -221 -247 -221c-169 0 -230 65 -230 121c0 33 19 61 53 82c28 -33 84 -73 172 -73c66 0 103 29 103 96c0 66 -46 92 -130 92c-46 0 -78 -7 -132 -7c-27 0 -43 24 -41 63l14 299
c20 12 43 17 86 17h322c7 -10 16 -30 16 -59c0 -45 -16 -79 -45 -79z" />
    <glyph glyph-name="six.tosf" 
d="M49 360c0 217 111 330 280 330c93 0 177 -22 177 -85c0 -33 -16 -66 -37 -76c-32 14 -82 31 -136 31c-95 0 -132 -52 -140 -164c39 17 81 28 125 28c128 0 222 -47 222 -202c0 -115 -61 -229 -236 -229c-143 0 -255 81 -255 367zM301 313c-43 0 -80 -11 -108 -25
c7 -122 38 -165 108 -165c62 0 98 33 98 94c0 73 -35 96 -98 96z" />
    <glyph glyph-name="seven.tosf" 
d="M215 -130c-46 0 -63 23 -53 53l202 488h-318c-7 10 -16 30 -16 71c0 33 16 71 45 71h445c8 -14 10 -32 10 -52c0 -19 -4 -48 -14 -77l-221 -542c-14 -7 -40 -12 -80 -12z" />
    <glyph glyph-name="eight.tosf" 
d="M47 203c0 76 49 125 97 158c-54 43 -71 94 -71 145c0 119 71 184 211 184c143 0 218 -58 218 -184c0 -64 -39 -103 -72 -133c81 -45 102 -97 102 -173c0 -105 -71 -207 -236 -207c-172 0 -249 87 -249 210zM252 304l-6 2c-34 -19 -63 -55 -63 -101c0 -51 47 -92 111 -92
s95 37 95 82c0 42 -19 66 -137 109zM208 518c0 -47 39 -73 117 -102c24 17 56 43 56 87c0 52 -43 75 -90 75c-50 0 -83 -25 -83 -60z" />
    <glyph glyph-name="nine.tosf" 
d="M531 203c0 -240 -111 -340 -258 -340c-132 0 -210 42 -210 99c0 35 14 58 31 73c32 -14 99 -42 149 -42c97 0 135 49 143 162c-39 -22 -81 -34 -128 -34c-103 0 -214 53 -214 199c0 138 67 240 232 240c146 0 255 -67 255 -357zM274 242c50 0 85 9 112 25
c-7 118 -40 163 -99 163c-65 0 -106 -28 -106 -96c0 -66 40 -92 93 -92z" />
    <glyph glyph-name="zero.pos" horiz-adv-x="603" 
d="M39 274c0 207 121 286 261 286c147 0 263 -79 263 -286c0 -203 -118 -281 -261 -281c-146 0 -263 82 -263 281zM188 268c0 -113 61 -145 114 -145c62 0 112 26 112 145c0 127 -52 162 -115 162c-61 0 -111 -35 -111 -162z" />
    <glyph glyph-name="one.pos" horiz-adv-x="532" 
d="M477 0h-408c-9 19 -16 37 -16 63c0 43 7 75 74 75h98v217c-38 -27 -71 -36 -104 -36c-37 0 -62 22 -62 68c0 28 5 43 15 61c66 5 134 44 151 96c15 6 46 12 74 12c44 0 70 -18 70 -52v-366h137c7 -10 16 -30 16 -59c0 -45 -16 -79 -45 -79z" />
    <glyph glyph-name="two.pos" horiz-adv-x="513" 
d="M39 441c0 64 68 119 202 119c160 0 225 -78 225 -171c0 -116 -129 -201 -271 -270h277c6 -9 11 -32 11 -53c0 -22 -2 -66 -44 -66h-396c-7 17 -13 32 -13 74c0 43 8 63 45 93c91 62 239 145 239 209c0 34 -31 54 -79 54c-72 0 -119 -36 -157 -59c-23 19 -39 42 -39 70z
" />
    <glyph glyph-name="three.pos" horiz-adv-x="523" 
d="M314 361c0 35 -24 69 -90 69c-58 0 -113 -24 -154 -73c-23 18 -39 42 -39 82c0 59 69 121 206 121c162 0 225 -88 225 -191c0 -72 -39 -122 -102 -144v-3c62 -12 117 -70 117 -162c0 -98 -66 -197 -236 -197c-163 0 -219 71 -219 126c0 42 14 64 46 83
c34 -38 87 -79 166 -79c63 0 99 36 99 80c0 49 -24 81 -89 81h-37c-21 0 -33 25 -33 59c0 29 3 41 11 55c66 1 129 29 129 93z" />
    <glyph glyph-name="four.pos" horiz-adv-x="578" 
d="M391 371c38 0 66 -12 66 -51v-197h92c7 -10 14 -30 14 -64c0 -40 -16 -59 -45 -59h-61v-118c-14 -7 -41 -11 -75 -11c-35 0 -61 16 -61 51v78h-284c-8 11 -11 28 -11 46c0 17 6 43 13 67l131 434c16 8 43 14 82 14c36 0 55 -24 46 -54l-110 -384h133v229
c16 10 40 19 70 19z" />
    <glyph glyph-name="five.pos" horiz-adv-x="537" 
d="M443 415h-251l-8 -127c25 7 55 12 93 12c115 0 225 -54 225 -216c0 -123 -88 -221 -247 -221c-169 0 -230 65 -230 121c0 33 19 61 53 82c28 -33 84 -73 172 -73c66 0 103 29 103 96c0 66 -46 92 -130 92c-46 0 -78 -7 -132 -7c-27 0 -43 24 -41 63l14 299
c20 12 43 17 86 17h322c7 -10 16 -30 16 -59c0 -45 -16 -79 -45 -79z" />
    <glyph glyph-name="six.pos" horiz-adv-x="556" 
d="M40 360c0 217 111 330 280 330c93 0 177 -22 177 -85c0 -33 -16 -66 -37 -76c-32 14 -82 31 -136 31c-95 0 -132 -52 -140 -164c39 17 81 28 125 28c128 0 222 -47 222 -202c0 -115 -61 -229 -236 -229c-143 0 -255 81 -255 367zM292 313c-43 0 -80 -11 -108 -25
c7 -122 38 -165 108 -165c62 0 98 33 98 94c0 73 -35 96 -98 96z" />
    <glyph glyph-name="seven.pos" horiz-adv-x="500" 
d="M200 -137c-46 0 -63 23 -53 53l165 495h-296c-7 10 -16 30 -16 71c0 33 16 71 45 71h425c8 -14 10 -32 10 -52c0 -19 -4 -48 -14 -77l-191 -549c-14 -7 -35 -12 -75 -12z" />
    <glyph glyph-name="eight.pos" horiz-adv-x="555" 
d="M35 203c0 76 49 125 97 158c-54 43 -71 94 -71 145c0 119 71 184 211 184c143 0 218 -58 218 -184c0 -64 -39 -103 -72 -133c81 -45 102 -97 102 -173c0 -105 -71 -207 -236 -207c-172 0 -249 87 -249 210zM240 304l-6 2c-34 -19 -63 -55 -63 -101c0 -51 47 -92 111 -92
s95 37 95 82c0 42 -19 66 -137 109zM196 518c0 -47 39 -73 117 -102c24 17 56 43 56 87c0 52 -43 75 -90 75c-50 0 -83 -25 -83 -60z" />
    <glyph glyph-name="nine.pos" horiz-adv-x="552" 
d="M511 203c0 -240 -111 -340 -258 -340c-132 0 -210 42 -210 99c0 35 14 58 31 73c32 -14 99 -42 149 -42c97 0 135 49 143 162c-39 -22 -81 -34 -128 -34c-103 0 -214 53 -214 199c0 138 67 240 232 240c146 0 255 -67 255 -357zM254 242c50 0 85 9 112 25
c-7 118 -40 163 -99 163c-65 0 -106 -28 -106 -96c0 -66 40 -92 93 -92z" />
    <glyph glyph-name="zero.lf" horiz-adv-x="603" 
d="M40 339c0 251 119 351 259 351c147 0 264 -100 264 -351s-117 -346 -260 -346c-146 0 -263 100 -263 346zM189 334c0 -159 61 -211 114 -211c62 0 111 47 111 211c0 167 -57 226 -115 226c-53 0 -110 -59 -110 -226z" />
    <glyph glyph-name="one.lf" horiz-adv-x="533" 
d="M478 0h-408c-9 19 -16 37 -16 63c0 43 7 75 74 75h98v351c-38 -27 -71 -36 -104 -36c-37 0 -62 22 -62 68c0 28 5 43 15 61c66 5 134 44 151 96c15 6 46 12 74 12c44 0 70 -18 70 -52v-500h137c7 -10 16 -30 16 -59c0 -45 -16 -79 -45 -79z" />
    <glyph glyph-name="two.lf" horiz-adv-x="541" 
d="M36 569c0 59 75 121 217 121c167 0 238 -88 238 -205c0 -135 -141 -267 -274 -349v-7l283 7c6 -11 11 -41 11 -71c0 -45 -11 -65 -46 -65h-422c-7 18 -13 33 -13 76s8 74 45 104c98 79 267 203 267 300c0 50 -34 80 -99 80c-62 0 -133 -38 -164 -79c-24 18 -43 48 -43 88
z" />
    <glyph glyph-name="three.lf" horiz-adv-x="523" 
d="M316 491c0 35 -24 69 -90 69c-58 0 -113 -24 -154 -73c-23 18 -39 42 -39 82c0 59 69 121 206 121c162 0 225 -88 225 -191c0 -72 -39 -122 -102 -144v-3c62 -12 117 -70 117 -162c0 -98 -66 -197 -236 -197c-163 0 -219 71 -219 126c0 42 14 64 46 83
c34 -38 87 -79 166 -79c63 0 99 36 99 80c0 49 -24 81 -89 81h-37c-21 0 -33 25 -33 59c0 29 3 41 11 55c66 1 129 29 129 93z" />
    <glyph glyph-name="four.lf" horiz-adv-x="578" 
d="M391 500c38 0 66 -12 66 -51v-197h92c7 -10 14 -30 14 -64c0 -40 -16 -59 -45 -59h-61v-118c-14 -7 -41 -11 -75 -11c-35 0 -61 16 -61 51v78h-284c-8 11 -11 28 -11 46c0 17 6 43 13 67l131 434c16 8 43 14 82 14c36 0 55 -24 46 -54l-110 -384h133v229
c16 10 40 19 70 19z" />
    <glyph glyph-name="five.lf" horiz-adv-x="537" 
d="M443 545h-251l-8 -127c25 7 55 12 93 12c115 0 225 -54 225 -216c0 -123 -88 -221 -247 -221c-169 0 -230 65 -230 121c0 33 19 61 53 82c28 -33 84 -73 172 -73c66 0 103 29 103 96c0 66 -46 92 -130 92c-46 0 -78 -7 -132 -7c-27 0 -43 24 -41 63l14 299
c20 12 43 17 86 17h322c7 -10 16 -30 16 -59c0 -45 -16 -79 -45 -79z" />
    <glyph glyph-name="six.lf" horiz-adv-x="556" 
d="M39 360c0 217 111 330 280 330c93 0 177 -22 177 -85c0 -33 -16 -66 -37 -76c-32 14 -82 31 -136 31c-95 0 -132 -52 -140 -164c39 17 81 28 125 28c128 0 222 -47 222 -202c0 -115 -61 -229 -236 -229c-143 0 -255 81 -255 367zM291 313c-43 0 -80 -11 -108 -25
c7 -122 38 -165 108 -165c62 0 98 33 98 94c0 73 -35 96 -98 96z" />
    <glyph glyph-name="seven.lf" horiz-adv-x="500" 
d="M185 0c-46 0 -63 23 -53 53l202 488h-318c-7 10 -16 30 -16 71c0 33 16 71 45 71h445c8 -14 10 -32 10 -52c0 -19 -4 -48 -14 -77l-221 -542c-14 -7 -40 -12 -80 -12z" />
    <glyph glyph-name="eight.lf" horiz-adv-x="555" 
d="M35 203c0 76 49 125 97 158c-54 43 -71 94 -71 145c0 119 71 184 211 184c143 0 218 -58 218 -184c0 -64 -39 -103 -72 -133c81 -45 102 -97 102 -173c0 -105 -71 -207 -236 -207c-172 0 -249 87 -249 210zM240 304l-6 2c-34 -19 -63 -55 -63 -101c0 -51 47 -92 111 -92
s95 37 95 82c0 42 -19 66 -137 109zM196 518c0 -47 39 -73 117 -102c24 17 56 43 56 87c0 52 -43 75 -90 75c-50 0 -83 -25 -83 -60z" />
    <glyph glyph-name="nine.lf" horiz-adv-x="552" 
d="M512 333c0 -240 -111 -340 -258 -340c-132 0 -210 42 -210 99c0 35 14 58 31 73c32 -14 99 -42 149 -42c97 0 135 49 143 162c-39 -22 -81 -34 -128 -34c-103 0 -214 53 -214 199c0 138 67 240 232 240c146 0 255 -67 255 -357zM255 372c50 0 85 9 112 25
c-7 118 -40 163 -99 163c-65 0 -106 -28 -106 -96c0 -66 40 -92 93 -92z" />
    <glyph glyph-name="cent.tf" 
d="M490 420c0 -19 -12 -50 -32 -73c-25 6 -46 12 -68 15l-6 -238c36 6 69 16 93 29c9 -11 17 -31 17 -60c0 -34 -14 -58 -39 -74c-13 -8 -38 -19 -74 -25l-3 -93c-7 -7 -28 -11 -54 -11c-24 0 -41 8 -40 42l2 62c-114 21 -180 117 -180 250c0 176 98 248 193 263l3 89
c10 6 26 10 46 9c28 -1 49 -10 48 -41l-3 -59c30 -5 49 -16 68 -28c15 -10 29 -26 29 -57zM230 243c0 -59 24 -96 59 -113l6 231c-36 -12 -65 -46 -65 -118z" />
    <glyph glyph-name="dollar.tf" 
d="M307 823c28 0 43 -10 42 -39l-2 -77c75 -7 111 -29 137 -54c19 -19 26 -43 26 -65c0 -27 -13 -49 -27 -70c-32 16 -77 31 -138 36l-3 -148c134 -32 194 -77 197 -201c2 -112 -60 -199 -204 -213l-1 -114c-10 -6 -22 -9 -49 -9c-31 0 -51 10 -50 59v64
c-76 5 -127 22 -159 47c-28 21 -36 44 -36 74c0 28 10 57 19 72c46 -24 110 -41 179 -47l2 142c-136 30 -193 88 -193 217c0 116 71 196 201 210l2 103c13 8 34 13 57 13zM390 197c0 25 -9 44 -50 59l-2 -115c40 11 52 36 52 56zM195 495c0 -22 10 -43 48 -61l2 116
c-32 -8 -50 -26 -50 -55z" />
    <glyph glyph-name="Euro.tf" 
d="M351 215h-97c29 -65 63 -84 118 -84c69 0 107 34 134 84c15 2 37 2 60 -8c12 -5 21 -12 27 -21c13 -18 13 -44 -2 -75c-34 -67 -101 -117 -219 -117c-139 0 -233 64 -272 221h-87c-9 16 -13 26 -13 49c0 13 1 24 4 33c6 18 22 28 67 28h15v41h-73c-9 16 -13 26 -13 49
c0 38 4 61 71 61h28c38 163 143 233 266 233c82 0 206 -33 206 -124c0 -37 -19 -65 -56 -78c-52 45 -84 64 -141 64c-51 0 -95 -26 -122 -95h206c7 -8 12 -18 12 -41c0 -26 -9 -69 -70 -69h-168v-41h177c7 -8 12 -18 12 -41c0 -26 -9 -69 -70 -69z" />
    <glyph glyph-name="florin.tf" 
d="M426 276h-80l-40 -278c-17 -118 -78 -169 -194 -169c-69 0 -91 26 -91 67c0 23 5 47 12 64h74c27 0 49 10 56 57l37 259h-95c-9 19 -16 31 -16 71c0 33 15 61 74 61h56l19 134c15 111 79 158 200 158c64 0 84 -33 84 -66c0 -29 -4 -46 -10 -68h-76c-32 0 -50 -9 -55 -44
l-16 -114h119c7 -10 14 -30 14 -60c0 -43 -19 -72 -72 -72z" />
    <glyph glyph-name="sterling.tf" 
d="M524 0h-500c-7 20 -13 37 -13 69c0 33 9 63 40 69c29 6 49 21 59 124h-66c-9 19 -16 37 -16 63c0 43 7 75 67 75h21v8c0 169 94 286 256 286c100 0 167 -19 167 -82c0 -33 -16 -70 -37 -80c-32 14 -65 24 -123 24c-104 0 -120 -68 -120 -146v-10h164c7 -10 14 -26 14 -52
c0 -31 -11 -86 -72 -86h-115c-4 -47 -12 -94 -36 -124h339c7 -10 16 -30 16 -59c0 -45 -16 -79 -45 -79z" />
    <glyph glyph-name="yen.tf" 
d="M371 246v-36h152c7 -8 14 -21 14 -41c0 -25 -11 -69 -72 -69h-94v-84c-12 -8 -40 -16 -82 -16s-65 13 -65 46v54h-146c-9 15 -16 29 -16 50c0 35 7 60 62 60h100v28l-9 14h-137c-9 15 -16 29 -16 56c0 29 7 57 60 54l32 -2c-58 110 -107 223 -132 322c19 10 40 18 73 18
c39 0 60 -10 71 -48c30 -107 75 -210 134 -316c71 123 126 276 146 357c15 5 34 7 62 7c30 0 50 -20 50 -51c0 -52 -58 -180 -119 -290l84 3c7 -8 14 -21 14 -41c0 -25 -23 -69 -84 -69h-78c-2 -2 -3 -4 -4 -6z" />
    <glyph glyph-name="zero.lf.slash" horiz-adv-x="603" 
d="M216 336c0 58 26 87 86 87c58 0 87 -29 87 -87s-29 -86 -87 -86s-86 29 -86 86zM40 339c0 251 119 351 259 351c147 0 264 -100 264 -351s-117 -346 -260 -346c-146 0 -263 100 -263 346zM187 334c0 -159 63 -215 116 -215c62 0 111 51 111 215c0 167 -57 225 -115 225
c-53 0 -112 -58 -112 -225z" />
    <glyph glyph-name="zero.slash" 
d="M214 336c0 58 16 87 76 87c58 0 77 -29 77 -87s-19 -86 -77 -86s-76 29 -76 86zM49 339c0 251 99 351 239 351c147 0 244 -100 244 -351s-97 -346 -240 -346c-146 0 -243 100 -243 346zM198 334c0 -159 41 -211 94 -211c62 0 91 47 91 211c0 167 -37 226 -95 226
c-53 0 -90 -59 -90 -226z" />
    <glyph glyph-name="zero.pos.slash" horiz-adv-x="603" 
d="M214 275c0 58 26 87 86 87c58 0 87 -29 87 -87s-29 -86 -87 -86s-86 29 -86 86zM40 274c0 207 119 285 259 285c147 0 264 -78 264 -285c0 -203 -117 -281 -260 -281c-146 0 -263 82 -263 281zM187 268c0 -113 63 -153 116 -153c62 0 111 34 111 153
c0 127 -57 163 -115 163c-53 0 -112 -36 -112 -163z" />
    <glyph glyph-name="zero.tosf.slash" 
d="M214 275c0 58 16 87 76 87c58 0 77 -29 77 -87s-19 -86 -77 -86s-76 29 -76 86zM38 274c0 207 111 286 251 286c147 0 253 -79 253 -286c0 -203 -108 -281 -251 -281c-146 0 -253 82 -253 281zM187 268c0 -113 51 -145 104 -145c62 0 102 26 102 145
c0 127 -42 162 -105 162c-61 0 -101 -35 -101 -162z" />
    <glyph glyph-name="fi" unicode="&#xfb01;" horiz-adv-x="677" 
d="M232 544v-44h97c11 -10 15 -26 15 -45c0 -27 -9 -72 -56 -72h-56v-337c0 -42 -38 -47 -83 -47c-22 0 -50 6 -62 16v368h-44c-8 14 -13 30 -13 51c0 34 14 66 51 66h6v54c0 111 54 160 149 160c103 0 122 -25 122 -68c0 -30 -7 -46 -15 -58h-64c-27 0 -47 -10 -47 -44z
M482 500c55 0 108 -17 108 -117v-247c0 -21 7 -30 22 -30h33c5 -11 8 -22 8 -43c0 -38 -31 -63 -107 -63c-66 0 -101 25 -101 112v231c0 24 -11 31 -24 31h-29c-6 12 -8 27 -8 51c0 53 37 75 98 75zM422 629c0 53 25 80 80 80c53 0 80 -27 80 -80c0 -54 -27 -80 -80 -80
c-54 0 -80 27 -80 80z" />
    <glyph glyph-name="fl" unicode="&#xfb02;" horiz-adv-x="689" 
d="M232 544v-44h97c11 -10 15 -26 15 -45c0 -27 -9 -72 -56 -72h-56v-337c0 -42 -38 -47 -83 -47c-22 0 -50 6 -62 16v368h-44c-8 14 -13 30 -13 51c0 34 14 66 51 66h6v54c0 111 54 160 149 160c103 0 122 -25 122 -68c0 -30 -7 -46 -15 -58h-64c-27 0 -47 -10 -47 -44z
M573 638v-470c0 -39 16 -52 46 -52h61c4 -12 6 -21 6 -40c0 -42 -34 -76 -136 -76c-88 0 -122 56 -122 137v543c15 13 29 22 69 22c53 0 76 -30 76 -64z" />
    </font>
</defs>
</svg>
