<?xml version="1.0" standalone="no"?>
<!DOCTYPE svg PUBLIC "-//W3C//DTD SVG 1.1//EN" "http://www.w3.org/Graphics/SVG/1.1/DTD/svg11.dtd" >
<svg>
<metadata>
Created by FontForge 20090914 at Fri Oct 28 23:31:24 2011
 By www-data
Copyright (c) 2010 by Stereotypes.de. All rights reserved.
</metadata>
<defs>
<font id="KelloggsSans-Medium" horiz-adv-x="578" >
  <font-face 
    font-family="Kelloggs Sans Medium"
    font-weight="500"
    font-stretch="normal"
    units-per-em="1000"
    panose-1="2 0 5 3 2 0 0 2 0 3"
    ascent="714"
    descent="-286"
    x-height="490"
    cap-height="700"
    bbox="-79.2963 -303 1207 935"
    underline-thickness="50"
    underline-position="-75"
    stemh="98"
    stemv="110"
    unicode-range="U+000D-U+FB02"
  />
<missing-glyph horiz-adv-x="786" 
d="M80 0v700h626v-700h-626zM115 666v-632h558v632h-558zM228 333c0 89 73 162 162 162s162 -73 162 -162s-73 -162 -162 -162s-162 73 -162 162z" />
    <glyph glyph-name=".notdef" horiz-adv-x="786" 
d="M80 0v700h626v-700h-626zM115 666v-632h558v632h-558zM228 333c0 89 73 162 162 162s162 -73 162 -162s-73 -162 -162 -162s-162 73 -162 162z" />
    <glyph glyph-name=".null" horiz-adv-x="0" 
 />
    <glyph glyph-name=".null" horiz-adv-x="0" 
 />
    <glyph glyph-name="CR" unicode="&#xd;" horiz-adv-x="0" 
 />
    <glyph glyph-name="space" unicode=" " horiz-adv-x="218" 
 />
    <glyph glyph-name="exclam" unicode="!" horiz-adv-x="225" 
d="M109 700c28 0 59 -10 59 -40v-473c-8 -7 -31 -14 -56 -14c-32 0 -55 15 -55 60v457c10 6 24 10 52 10zM54 59c0 40 19 60 59 60c39 0 60 -20 60 -60s-21 -59 -60 -59c-40 0 -59 20 -59 59z" />
    <glyph glyph-name="quotedbl" unicode="&#x22;" horiz-adv-x="348" 
d="M200 498v170c0 25 15 33 46 33c38 0 53 -15 53 -62c0 -110 -22 -155 -55 -155c-22 0 -34 6 -44 14zM49 498v170c0 25 15 33 46 33c39 0 54 -15 54 -62c0 -110 -22 -155 -55 -155c-23 0 -34 6 -45 14z" />
    <glyph glyph-name="numbersign" unicode="#" horiz-adv-x="790" 
d="M712 405h-105l-31 -174h144c6 -7 11 -19 11 -40c0 -24 -10 -64 -62 -64h-111l-28 -163c-9 -7 -27 -12 -53 -12c-24 0 -59 7 -51 52l22 123h-174l-29 -163c-9 -7 -27 -12 -53 -12c-23 0 -59 7 -50 52l21 123h-134c-7 14 -12 26 -12 47c0 33 6 57 58 57h106l31 174h-141
c-6 14 -12 26 -12 47c0 33 6 57 59 57h112l34 193c12 7 23 11 51 11s60 -10 55 -41l-29 -163h174l34 193c11 7 23 11 50 11c28 0 61 -10 55 -41l-29 -163h138c6 -8 11 -19 11 -40c0 -25 -10 -64 -62 -64zM323 405l-31 -174h174l30 174h-173z" />
    <glyph glyph-name="dollar" unicode="$" horiz-adv-x="586" 
d="M307 819c22 0 34 -9 34 -33l-2 -78c81 -6 126 -32 152 -57c14 -15 21 -34 21 -51c0 -21 -13 -38 -25 -52c-29 19 -78 40 -149 45l-2 -197c139 -38 203 -85 204 -203c0 -112 -64 -189 -208 -201v-107c-8 -5 -18 -8 -39 -8c-24 0 -39 8 -39 45v69c-77 4 -133 22 -169 47
c-29 20 -40 41 -40 66c0 23 8 44 16 55c46 -34 119 -55 195 -59l1 203c-144 38 -200 91 -200 209c0 107 66 185 205 196l2 100c10 6 25 11 43 11zM430 188c0 43 -22 70 -95 96l-1 -182c70 10 96 46 96 86zM166 511c0 -40 24 -67 93 -93l1 173c-67 -7 -94 -39 -94 -80z" />
    <glyph glyph-name="percent" unicode="%" horiz-adv-x="877" 
d="M566 700c32 0 48 -15 38 -43l-248 -650c-9 -5 -15 -9 -39 -9c-31 0 -48 14 -31 56l239 640c12 4 21 6 41 6zM522 204c0 149 73 210 162 210c94 0 165 -61 165 -210c0 -151 -72 -207 -164 -207s-163 59 -163 207zM599 202c0 -105 43 -142 86 -142c49 0 85 35 85 142
c0 105 -39 146 -86 146c-44 0 -85 -41 -85 -146zM32 490c0 149 73 211 163 211c94 0 164 -62 164 -211c0 -150 -71 -207 -163 -207c-93 0 -164 59 -164 207zM109 488c0 -105 43 -142 87 -142c48 0 84 35 84 142c0 105 -38 146 -85 146c-44 0 -86 -41 -86 -146z" />
    <glyph glyph-name="ampersand" unicode="&#x26;" horiz-adv-x="794" 
d="M694 350h-76c-10 -75 -37 -156 -83 -217c33 -13 68 -21 121 -21h82c7 -12 11 -26 11 -48c0 -43 -28 -64 -101 -64c-65 0 -129 18 -187 49c-48 -37 -107 -59 -183 -59c-138 0 -225 93 -225 222s73 189 148 216c-3 17 -4 34 -4 51c0 151 75 221 219 221
c105 0 144 -23 144 -62c0 -20 -3 -34 -10 -44h-121c-85 0 -119 -40 -119 -125c0 -123 59 -233 147 -297c43 49 72 116 82 178h-114c-7 14 -10 27 -10 45c0 34 13 53 52 53h253c6 -7 12 -25 12 -47c0 -34 -13 -51 -38 -51zM375 110c-71 60 -127 143 -155 235
c-42 -26 -68 -67 -68 -125c0 -80 55 -133 131 -133c39 0 67 8 92 23z" />
    <glyph glyph-name="quotesingle" unicode="'" horiz-adv-x="198" 
d="M49 498v170c0 25 15 33 46 33c39 0 54 -15 54 -62c0 -110 -22 -155 -55 -155c-23 0 -34 6 -45 14z" />
    <glyph glyph-name="parenleft" unicode="(" horiz-adv-x="271" 
d="M29 308c0 266 85 404 164 404c29 0 55 -16 61 -48c-55 -44 -117 -141 -117 -355c0 -205 55 -313 122 -366c-7 -32 -28 -49 -62 -49c-83 0 -168 159 -168 414z" />
    <glyph glyph-name="parenright" unicode=")" horiz-adv-x="271" 
d="M242 297c0 -265 -85 -403 -164 -403c-29 0 -55 15 -61 48c55 44 116 141 116 355c0 205 -55 313 -121 366c7 32 27 49 61 49c84 0 169 -159 169 -415z" />
    <glyph glyph-name="asterisk" unicode="*" horiz-adv-x="512" 
d="M401 459l-74 8l66 -89c-5 -10 -11 -22 -35 -38c-16 -11 -57 -20 -74 20l-31 72l-49 -106c-15 1 -27 3 -44 13c-27 16 -51 33 -21 73l44 58l-113 -10c-7 13 -13 26 -13 47c0 32 1 59 55 55l72 -6l-68 91c9 12 20 24 37 35c27 17 56 23 75 -20l31 -71l46 107
c9 1 24 1 50 -14c16 -9 47 -37 19 -74l-44 -59l113 12c5 -8 13 -20 13 -50c0 -20 -11 -62 -55 -54z" />
    <glyph glyph-name="plus" unicode="+" horiz-adv-x="512" 
d="M309 426v-109h143c5 -7 10 -26 10 -51c0 -29 -9 -53 -44 -53h-109v-144c-14 -7 -32 -10 -52 -10c-33 0 -52 11 -52 56v98h-145c-7 15 -10 27 -10 53c0 24 9 51 37 51h118v143c8 6 30 11 54 11c26 0 50 -10 50 -45z" />
    <glyph glyph-name="comma" unicode="," horiz-adv-x="200" 
d="M96 0c-39 0 -58 20 -58 59c0 40 20 60 60 60s64 -21 64 -87c0 -96 -31 -142 -65 -142c-22 0 -32 6 -35 22c23 17 34 68 34 88z" />
    <glyph glyph-name="hyphen" unicode="-" horiz-adv-x="424" 
d="M317 213h-254c-7 15 -13 27 -13 51c0 31 13 53 53 53h259c6 -9 11 -26 11 -49c0 -32 -13 -55 -56 -55z" />
    <glyph glyph-name="period" unicode="." horiz-adv-x="196" 
d="M38 59c0 40 19 60 60 60c39 0 59 -20 59 -60s-20 -59 -59 -59c-40 0 -60 20 -60 59z" />
    <glyph glyph-name="slash" unicode="/" horiz-adv-x="302" 
d="M204 713c28 0 60 -10 55 -41l-124 -708c-9 -7 -27 -12 -53 -12c-24 0 -59 7 -51 52l123 698c11 7 23 11 50 11z" />
    <glyph glyph-name="zero" unicode="0" 
d="M49 341c0 245 100 349 241 349c145 0 239 -104 239 -349c0 -252 -97 -348 -239 -348c-144 0 -241 100 -241 348zM159 337c0 -182 55 -246 131 -246c82 0 129 61 129 246c0 180 -50 255 -129 255c-77 0 -131 -75 -131 -255z" />
    <glyph glyph-name="one" unicode="1" 
d="M480 0h-393c-7 14 -12 28 -12 47c0 33 6 56 59 56h116v434c-40 -34 -89 -47 -122 -47c-28 0 -47 17 -47 51c0 20 4 31 12 45c69 6 137 42 157 95c12 5 34 9 55 9c33 0 53 -14 53 -40v-547h147c6 -8 13 -22 13 -44c0 -34 -13 -59 -38 -59z" />
    <glyph glyph-name="two" unicode="2" 
d="M56 573c0 49 75 117 212 117c157 0 233 -81 233 -200c0 -164 -184 -313 -306 -387l1 -6l323 5c5 -9 9 -31 9 -53c0 -34 -10 -49 -38 -49h-429c-5 14 -10 27 -10 58c0 30 6 54 33 75c107 81 307 220 307 352c0 69 -49 107 -128 107c-71 0 -145 -41 -170 -85
c-21 13 -37 33 -37 66z" />
    <glyph glyph-name="three" unicode="3" 
d="M384 497c0 51 -38 95 -120 95c-70 0 -129 -31 -159 -79c-21 12 -34 29 -34 61c0 50 64 116 201 116c153 0 222 -84 222 -187c0 -72 -42 -129 -107 -149v-2c65 -12 124 -68 124 -163c0 -101 -68 -196 -237 -196c-164 0 -214 82 -214 132c0 35 12 52 39 64
c23 -45 72 -98 170 -98c92 0 134 49 134 108c0 62 -40 101 -114 101h-35c-17 0 -26 19 -26 45c0 22 2 31 8 42c89 1 148 41 148 110z" />
    <glyph glyph-name="four" unicode="4" 
d="M407 490c30 0 50 -10 50 -39v-221h93c6 -8 11 -23 11 -48c0 -30 -12 -45 -35 -45h-69v-128c-11 -6 -31 -9 -57 -9s-46 12 -46 40v97h-307c-6 9 -8 21 -8 36c0 13 4 32 10 50l141 457c12 6 32 10 60 10c29 0 42 -19 35 -43l-126 -417h195v246c13 7 31 14 53 14z" />
    <glyph glyph-name="five" unicode="5" 
d="M470 583h-277l-9 -179c29 10 68 20 114 20c124 0 228 -56 228 -213c0 -119 -84 -218 -245 -218c-170 0 -224 81 -224 134c0 28 15 50 44 62c19 -43 71 -98 176 -98c93 0 139 47 139 124c0 84 -58 117 -154 117c-60 0 -100 -15 -145 -15c-22 0 -35 19 -34 48l13 307
c15 9 32 13 64 13h335c6 -8 13 -22 13 -45c0 -33 -13 -57 -38 -57z" />
    <glyph glyph-name="six" unicode="6" 
d="M53 346c0 218 95 344 267 344c103 0 179 -33 179 -84c0 -25 -12 -49 -29 -57c-26 15 -75 43 -147 43c-111 0 -156 -77 -163 -212c42 20 92 36 149 36c126 0 222 -49 222 -202c0 -112 -60 -221 -227 -221c-150 0 -251 90 -251 353zM297 330c-54 0 -103 -15 -137 -34
c5 -148 47 -205 141 -205c86 0 125 50 125 121c0 87 -50 118 -129 118z" />
    <glyph glyph-name="seven" unicode="7" 
d="M227 0c-35 0 -47 19 -39 42l212 537h-346c-5 8 -12 22 -12 54c0 25 14 52 39 52h435c6 -10 8 -23 8 -38s-4 -38 -11 -59l-227 -579c-10 -5 -29 -9 -59 -9z" />
    <glyph glyph-name="eight" unicode="8" 
d="M53 196c0 86 53 137 108 166c-55 40 -82 86 -82 152c0 112 71 176 205 176c139 0 213 -59 213 -178c0 -70 -42 -118 -86 -148c78 -38 114 -88 114 -171c0 -106 -72 -200 -234 -200c-161 0 -238 84 -238 203zM246 320c-48 -17 -92 -57 -92 -123c0 -63 54 -112 136 -112
c88 0 129 45 129 104c0 67 -57 94 -173 131zM179 521c0 -66 55 -96 145 -123c43 17 81 54 81 113c0 62 -47 95 -115 95c-67 0 -111 -35 -111 -85z" />
    <glyph glyph-name="nine" unicode="9" 
d="M525 333c0 -230 -95 -338 -253 -338c-129 0 -208 45 -208 92c0 27 11 43 25 55c26 -15 94 -49 163 -49c115 0 159 64 165 206c-43 -27 -92 -42 -156 -42c-105 0 -211 55 -211 197c0 136 67 236 229 236c152 0 246 -76 246 -357zM272 349c64 0 110 13 145 37
c-6 151 -46 206 -130 206c-91 0 -134 -47 -134 -128c0 -79 52 -115 119 -115z" />
    <glyph glyph-name="colon" unicode=":" horiz-adv-x="196" 
d="M38 59c0 40 19 60 60 60c39 0 59 -20 59 -60s-20 -59 -59 -59c-40 0 -60 20 -60 59zM38 431c0 41 19 60 60 60c39 0 59 -19 59 -60c0 -39 -20 -58 -59 -58c-40 0 -60 19 -60 58z" />
    <glyph glyph-name="semicolon" unicode=";" horiz-adv-x="200" 
d="M96 0c-39 0 -58 20 -58 59c0 40 20 60 60 60s64 -21 64 -87c0 -95 -31 -142 -65 -142c-22 0 -32 6 -35 23c23 17 34 67 34 87zM39 431c0 41 19 60 59 60s60 -19 60 -60c0 -39 -20 -58 -60 -58c-39 0 -59 19 -59 58z" />
    <glyph glyph-name="less" unicode="&#x3c;" horiz-adv-x="512" 
d="M139 309l186 165c15 13 27 17 36 17c28 0 45 -23 57 -53l-212 -189l206 -187c-8 -24 -28 -53 -60 -53c-11 0 -22 5 -36 17l-186 167c-17 16 -27 34 -27 55c0 25 11 39 36 61z" />
    <glyph glyph-name="equal" unicode="=" horiz-adv-x="512" 
d="M413 99h-351c-7 14 -12 28 -12 55c0 26 12 49 44 49h358c7 -13 10 -32 10 -51c0 -25 -8 -53 -49 -53zM413 301h-351c-7 14 -12 28 -12 55c0 26 12 49 44 49h358c7 -13 10 -32 10 -51c0 -25 -8 -53 -49 -53z" />
    <glyph glyph-name="greater" unicode="&#x3e;" horiz-adv-x="512" 
d="M153 490c24 0 49 -22 68 -40l161 -147c17 -16 26 -33 26 -54c0 -17 -6 -34 -18 -45c-96 -87 -207 -197 -246 -197c-20 0 -42 29 -49 54l211 187l-208 188c9 25 31 54 55 54z" />
    <glyph glyph-name="question" unicode="?" horiz-adv-x="495" 
d="M346 488c0 61 -44 102 -118 102c-70 0 -130 -39 -159 -77c-20 12 -36 33 -36 65c0 50 65 122 202 122c147 0 222 -88 222 -203c0 -114 -69 -190 -196 -204l8 -116c-9 -10 -26 -15 -54 -15s-44 17 -45 41l-5 115c-1 17 4 32 13 42c70 2 168 31 168 128zM167 59
c0 40 19 60 59 60c39 0 60 -20 60 -60s-21 -59 -60 -59c-40 0 -59 20 -59 59z" />
    <glyph glyph-name="at" unicode="@" horiz-adv-x="857" 
d="M520 152c-29 -36 -71 -57 -122 -57c-82 0 -168 62 -168 214c0 148 77 215 164 215c58 0 93 -27 112 -49v13c0 18 18 27 35 27c18 0 39 -5 50 -18v-252c0 -56 25 -77 55 -77c55 0 88 53 88 170c0 165 -120 284 -306 284c-180 0 -305 -132 -305 -307
c0 -196 126 -312 311 -312c108 0 157 17 205 36c13 -9 23 -19 23 -38c0 -39 -59 -83 -229 -83c-239 0 -404 152 -404 397c0 233 163 395 399 395c239 0 399 -152 399 -375c0 -160 -81 -243 -185 -243c-57 0 -102 24 -122 60zM419 175c40 0 68 20 86 40v174
c-18 29 -48 54 -94 54c-47 0 -91 -43 -91 -133c0 -92 43 -135 99 -135z" />
    <glyph glyph-name="A" unicode="A" horiz-adv-x="627" 
d="M59 0c-28 0 -44 5 -54 15l246 668c16 9 31 17 66 17c32 0 51 -16 60 -39l245 -637c-10 -20 -35 -24 -56 -24c-30 0 -51 12 -64 45l-41 108h-297l-43 -117c-10 -27 -27 -36 -62 -36zM308 562l-112 -316h229z" />
    <glyph glyph-name="B" unicode="B" horiz-adv-x="653" 
d="M148 700h189c134 0 231 -46 231 -181c0 -76 -33 -120 -73 -147c64 -29 113 -78 113 -170c0 -140 -109 -202 -248 -202h-212c-29 0 -55 6 -55 51v640c10 6 28 9 55 9zM346 310h-143v-214h146c82 0 145 23 145 111c0 83 -62 103 -148 103zM340 603h-137v-199h134
c71 0 120 25 120 104c0 74 -48 95 -117 95z" />
    <glyph glyph-name="C" unicode="C" horiz-adv-x="627" 
d="M552 164c20 0 45 -13 45 -46c0 -26 -11 -43 -40 -66c-19 -15 -82 -62 -203 -62c-173 0 -302 105 -302 359c0 251 126 361 297 361c184 0 236 -82 236 -125c0 -25 -14 -47 -34 -55c-42 42 -101 77 -198 77c-107 0 -187 -75 -187 -260c0 -192 82 -254 194 -254
c80 0 149 26 192 71z" />
    <glyph glyph-name="D" unicode="D" horiz-adv-x="687" 
d="M148 700h139c224 0 348 -104 348 -358c0 -249 -130 -342 -328 -342h-159c-29 0 -55 6 -55 51v639c10 6 28 10 55 10zM288 599h-85v-498h100c142 0 219 65 219 238c0 184 -82 260 -234 260z" />
    <glyph glyph-name="E" unicode="E" horiz-adv-x="579" 
d="M442 307h-239v-206h317c6 -7 12 -20 12 -43c0 -34 -13 -58 -38 -58h-353c-24 0 -48 6 -48 51v639c10 6 24 10 52 10h375c6 -8 12 -21 12 -45c0 -34 -13 -56 -38 -56h-291v-191h263c5 -8 12 -26 12 -49c0 -34 -13 -52 -36 -52z" />
    <glyph glyph-name="F" unicode="F" horiz-adv-x="556" 
d="M442 296h-239v-285c-7 -7 -36 -11 -62 -11c-24 0 -48 6 -48 51v639c10 6 24 10 52 10h367c6 -8 12 -21 12 -45c0 -34 -13 -56 -38 -56h-283v-202h265c6 -8 12 -23 12 -44c0 -34 -12 -57 -38 -57z" />
    <glyph glyph-name="G" unicode="G" horiz-adv-x="702" 
d="M539 279h-175c-7 12 -11 25 -11 45c0 24 7 50 59 50h148c57 0 77 -22 77 -84v-279c-12 -9 -27 -11 -53 -11c-24 0 -45 6 -45 42v43c-47 -57 -108 -95 -192 -95c-152 0 -295 106 -295 360c0 250 140 360 319 360c157 0 228 -63 228 -110c0 -29 -22 -50 -43 -55
c-42 35 -101 62 -179 62c-119 0 -211 -81 -211 -260c0 -191 95 -254 192 -254c72 0 140 36 181 100v86z" />
    <glyph glyph-name="H" unicode="H" horiz-adv-x="722" 
d="M578 700c28 0 51 -10 51 -40v-649c-8 -6 -33 -11 -52 -11c-31 0 -58 7 -58 52v257h-316v-296c-7 -8 -36 -13 -62 -13c-24 0 -48 7 -48 52v637c12 7 36 11 60 11c28 0 50 -10 50 -40v-250h316v279c10 6 36 11 59 11z" />
    <glyph glyph-name="I" unicode="I" horiz-adv-x="296" 
d="M153 700c28 0 50 -10 50 -40v-647c-14 -8 -31 -13 -60 -13s-50 11 -50 52v637c13 7 33 11 60 11z" />
    <glyph glyph-name="J" unicode="J" horiz-adv-x="389" 
d="M256 700c30 0 53 -10 53 -43v-508c0 -103 -60 -149 -151 -149c-101 0 -142 25 -142 66c0 13 2 23 8 36h103c49 0 73 20 73 67v520c13 8 31 11 56 11z" />
    <glyph glyph-name="K" unicode="K" horiz-adv-x="606" 
d="M150 700c30 0 53 -10 53 -40v-266c120 81 207 204 240 297c12 5 36 9 56 9c26 0 43 -16 43 -39c0 -73 -108 -208 -203 -283c68 -77 148 -283 239 -283h5c5 -6 9 -18 9 -36c0 -33 -17 -57 -61 -57c-122 0 -194 203 -272 317c-17 -13 -38 -24 -56 -36v-272
c-13 -8 -38 -11 -64 -11c-28 0 -47 10 -47 50v638c14 7 35 12 58 12z" />
    <glyph glyph-name="L" unicode="L" horiz-adv-x="539" 
d="M151 700c25 0 55 -9 55 -40v-557h307c5 -7 12 -23 12 -45c0 -34 -13 -58 -59 -58h-323c-29 0 -48 13 -48 49v641c11 6 32 10 56 10z" />
    <glyph glyph-name="M" unicode="M" horiz-adv-x="874" 
d="M435 34c-32 0 -53 13 -70 59l-160 427l-28 -479c-2 -31 -23 -41 -57 -41c-20 0 -43 3 -54 9l46 615c3 46 29 76 77 76c26 0 40 -3 56 -9l190 -525l166 474c15 42 33 60 69 60c29 0 51 -4 71 -13l73 -672c-12 -9 -33 -15 -58 -15c-30 0 -55 8 -58 41l-37 481l-152 -429
c-19 -55 -42 -59 -74 -59z" />
    <glyph glyph-name="N" unicode="N" horiz-adv-x="728" 
d="M526 28l-328 470l4 -486c-7 -7 -36 -13 -61 -13c-24 0 -48 7 -48 52v639c14 6 36 10 59 10c24 0 41 -13 51 -28l325 -470l-3 484c12 9 28 15 54 15s57 -10 57 -41v-650c-10 -6 -28 -10 -57 -10c-23 0 -40 11 -53 28z" />
    <glyph glyph-name="O" unicode="O" horiz-adv-x="701" 
d="M52 350c0 250 130 360 300 360c172 0 297 -110 297 -360c0 -258 -127 -360 -297 -360c-171 0 -300 106 -300 360zM166 347c0 -190 82 -254 187 -254c109 0 182 63 182 254c0 186 -76 260 -183 260s-186 -75 -186 -260z" />
    <glyph glyph-name="P" unicode="P" horiz-adv-x="623" 
d="M148 700h212c108 0 214 -58 214 -209c0 -183 -130 -226 -233 -226h-138v-254c-10 -7 -35 -11 -61 -11s-49 10 -49 51v640c14 7 28 9 55 9zM343 606h-140v-247h118c83 0 139 31 139 124c0 89 -49 123 -117 123z" />
    <glyph glyph-name="Q" unicode="Q" horiz-adv-x="701" 
d="M52 350c0 250 130 360 300 360c172 0 297 -110 297 -360c0 -172 -56 -273 -145 -321c44 -64 75 -85 153 -85h6c4 -7 9 -20 9 -40c0 -41 -29 -70 -85 -70c-81 0 -141 69 -182 160c-17 -3 -34 -4 -53 -4c-171 0 -300 106 -300 360zM166 347c0 -190 82 -254 187 -254
c109 0 182 63 182 254c0 186 -76 260 -183 260s-186 -75 -186 -260z" />
    <glyph glyph-name="R" unicode="R" horiz-adv-x="648" 
d="M148 700h216c108 0 211 -53 211 -200c0 -108 -72 -175 -155 -197c80 -114 130 -207 190 -207h5c6 -7 9 -18 9 -37c0 -36 -22 -59 -71 -59c-113 0 -167 174 -242 285h-108v-274c-9 -7 -34 -11 -55 -11c-29 0 -55 6 -55 51v640c11 6 31 9 55 9zM342 603h-139v-221h125
c77 0 134 37 134 117c0 78 -51 104 -120 104z" />
    <glyph glyph-name="S" unicode="S" horiz-adv-x="591" 
d="M292 710c112 0 167 -29 197 -55c20 -18 24 -36 24 -53c0 -21 -12 -40 -24 -54c-36 23 -98 59 -197 59c-84 0 -121 -41 -121 -92c0 -47 30 -82 157 -116c146 -39 214 -91 214 -206c0 -119 -73 -203 -246 -203c-106 0 -174 18 -214 46c-29 20 -36 41 -36 65s8 41 17 52
c53 -36 140 -60 228 -60c106 0 138 46 138 92c0 50 -28 80 -145 112c-168 45 -226 102 -226 215c0 116 78 198 234 198z" />
    <glyph glyph-name="T" unicode="T" horiz-adv-x="568" 
d="M518 597h-178v-587c-12 -7 -34 -10 -63 -10c-26 0 -48 12 -48 51v546h-205c-7 14 -12 32 -12 52c0 26 12 51 52 51h480c6 -8 12 -23 12 -45c0 -34 -13 -58 -38 -58z" />
    <glyph glyph-name="U" unicode="U" horiz-adv-x="684" 
d="M493 270v419c10 7 29 11 56 11c31 0 55 -10 55 -40v-406c0 -178 -92 -264 -265 -264c-172 0 -259 84 -259 264v436c10 7 33 10 57 10c32 0 53 -9 53 -40v-389c0 -117 43 -178 149 -178c114 0 154 60 154 177z" />
    <glyph glyph-name="V" unicode="V" horiz-adv-x="632" 
d="M69 700c28 0 51 -10 61 -37l191 -506c85 145 174 411 188 531c16 8 32 12 60 12c20 0 44 -10 44 -27s-3 -35 -10 -69c-23 -115 -116 -368 -249 -596c-15 -5 -29 -8 -47 -8c-27 0 -44 13 -56 43l-249 645c13 7 39 12 67 12z" />
    <glyph glyph-name="W" unicode="W" horiz-adv-x="991" 
d="M136 663l160 -504c47 118 115 350 151 529c14 7 30 12 55 12c30 0 59 -12 67 -39l151 -505c77 156 139 415 151 532c17 8 34 12 61 12c21 0 41 -11 41 -29c0 -5 -1 -16 -3 -34c-2 -13 -41 -329 -216 -630c-14 -5 -31 -7 -49 -7c-26 0 -47 12 -56 43l-146 485
c-40 -164 -101 -365 -171 -519c-16 -5 -38 -9 -58 -9c-27 0 -46 11 -56 43l-212 645c13 7 39 12 67 12s54 -10 63 -37z" />
    <glyph glyph-name="X" unicode="X" horiz-adv-x="632" 
d="M95 700c43 0 61 -21 86 -56l138 -196l147 212c18 27 39 40 78 40c35 0 51 -9 60 -22l-222 -320l239 -341c-16 -10 -28 -17 -69 -17c-32 0 -66 16 -88 47l-155 220l-163 -233c-16 -23 -44 -34 -76 -34c-31 0 -45 9 -56 23l230 336l-218 313c11 16 29 28 69 28z" />
    <glyph glyph-name="Y" unicode="Y" horiz-adv-x="574" 
d="M352 237v-225c-10 -6 -31 -12 -62 -12s-48 10 -48 37v197c-93 141 -182 305 -224 451c15 9 36 15 61 15c30 0 59 -6 68 -34c41 -127 89 -222 158 -331c73 120 139 275 156 359c12 4 36 6 57 6c23 0 38 -16 38 -38c0 -78 -125 -313 -204 -425z" />
    <glyph glyph-name="Z" unicode="Z" horiz-adv-x="602" 
d="M536 605l-364 -506h401c4 -10 9 -27 9 -50c0 -24 -10 -49 -46 -49h-507c-6 13 -9 22 -9 39c0 22 6 37 18 53l366 507h-345c-7 14 -12 25 -12 49c0 26 12 52 40 52h463c5 -8 8 -20 8 -37c0 -21 -8 -38 -22 -58z" />
    <glyph glyph-name="bracketleft" unicode="[" horiz-adv-x="344" 
d="M58 -53v749c15 11 38 16 69 16h172c5 -8 12 -22 12 -46c0 -34 -12 -51 -36 -51h-111v-624h135c5 -8 12 -19 12 -42c0 -34 -13 -55 -37 -55h-204c-7 14 -12 31 -12 53z" />
    <glyph glyph-name="backslash" unicode="\" horiz-adv-x="302" 
d="M82 713c28 0 39 -4 51 -11l122 -698c8 -45 -27 -52 -50 -52c-26 0 -44 5 -53 12l-125 708c-5 31 27 41 55 41z" />
    <glyph glyph-name="bracketright" unicode="]" horiz-adv-x="344" 
d="M287 658v-749c-16 -11 -39 -16 -69 -16h-172c-6 8 -12 22 -12 46c0 34 11 51 35 51h112v624h-135c-6 8 -12 23 -12 45c0 35 13 52 36 52h204c7 -14 13 -31 13 -53z" />
    <glyph glyph-name="asciicircum" unicode="^" horiz-adv-x="486" 
d="M452 342c-6 -18 -24 -30 -50 -30c-77 0 -105 175 -159 242c-51 -60 -90 -243 -159 -243c-29 0 -44 11 -50 31c25 9 119 318 206 330c91 -11 182 -319 212 -330z" />
    <glyph glyph-name="underscore" unicode="_" horiz-adv-x="601" 
d="M541 -180h-509c-7 14 -12 32 -12 52c0 24 12 51 47 51h504c5 -7 10 -29 10 -48c0 -25 -9 -55 -40 -55z" />
    <glyph glyph-name="grave" unicode="`" horiz-adv-x="536" 
d="M347 578c-5 -22 -21 -36 -44 -36c-43 0 -121 83 -172 113c2 24 14 44 50 44c48 0 136 -106 166 -121z" />
    <glyph glyph-name="a" unicode="a" horiz-adv-x="568" 
d="M462 0c-35 0 -66 14 -81 45c-37 -35 -82 -55 -138 -55c-95 0 -197 70 -197 254c0 181 97 256 196 256c61 0 99 -25 124 -56v18c0 21 23 31 45 31c23 0 46 -6 61 -13v-367c0 -25 11 -33 40 -33h20c4 -10 7 -18 7 -34c0 -25 -25 -46 -77 -46zM266 88c43 0 74 15 98 34v217
c-23 34 -51 63 -100 63c-52 0 -106 -49 -106 -157c0 -110 46 -157 108 -157z" />
    <glyph glyph-name="b" unicode="b" horiz-adv-x="548" 
d="M186 659v-215c34 33 81 56 130 56c106 0 186 -76 186 -244c0 -183 -100 -266 -227 -266c-72 0 -126 19 -169 51c-13 10 -28 28 -28 45v601c13 8 36 13 58 13c28 0 50 -11 50 -41zM289 402c-40 0 -76 -21 -103 -53v-234c18 -14 50 -27 92 -27c72 0 112 59 112 156
s-36 158 -101 158z" />
    <glyph glyph-name="c" unicode="c" horiz-adv-x="464" 
d="M429 419c0 -15 -10 -36 -26 -52c-46 21 -70 35 -124 35c-64 0 -121 -47 -121 -161c0 -99 51 -153 126 -153c59 0 105 19 133 36c8 -9 15 -24 15 -45c0 -26 -13 -47 -34 -60c-18 -11 -59 -29 -121 -29c-139 0 -231 99 -231 252c0 193 125 258 231 258c68 0 99 -15 125 -32
c16 -11 27 -26 27 -49z" />
    <glyph glyph-name="d" unicode="d" horiz-adv-x="568" 
d="M467 0c-34 0 -71 14 -86 45c-39 -35 -84 -55 -142 -55c-97 0 -193 71 -193 250c0 181 103 260 204 260c50 0 85 -15 114 -39v201c0 24 15 38 43 38c30 0 55 -7 64 -14v-573c0 -25 11 -33 41 -33h19c5 -11 8 -18 8 -34c0 -25 -20 -46 -72 -46zM261 88c45 0 78 15 103 34
v231c-26 30 -53 49 -98 49c-62 0 -109 -55 -109 -158c0 -105 39 -156 104 -156z" />
    <glyph glyph-name="e" unicode="e" horiz-adv-x="507" 
d="M459 221h-302c18 -87 50 -136 131 -136c64 0 124 23 150 42c10 -8 20 -22 20 -44c0 -50 -73 -93 -187 -93c-143 0 -225 104 -225 256c0 167 104 254 226 254c123 0 195 -90 195 -216c0 -23 -3 -46 -8 -63zM272 406c-55 0 -99 -38 -113 -112h209c0 68 -33 112 -96 112z
" />
    <glyph glyph-name="f" unicode="f" horiz-adv-x="342" 
d="M205 553v-63h110c7 -8 11 -20 11 -35c0 -21 -8 -54 -44 -54h-77v-366c0 -31 -27 -36 -62 -36c-16 0 -37 5 -46 13v389h-52c-6 10 -10 23 -10 39c0 27 11 50 42 50h20v70c0 103 46 150 137 150c92 0 108 -21 108 -53c0 -21 -5 -34 -11 -43h-68c-36 0 -58 -13 -58 -61z" />
    <glyph glyph-name="g" unicode="g" horiz-adv-x="570" 
d="M372 -11v48c-36 -29 -78 -47 -133 -47c-110 0 -193 83 -193 254c0 173 91 256 200 256c66 0 111 -25 142 -59c17 32 50 49 88 49c46 0 73 -17 73 -48c0 -23 -2 -36 -7 -47h-33c-19 0 -29 -9 -29 -32v-373c0 -139 -76 -199 -204 -199c-119 0 -192 35 -192 91
c0 19 5 36 18 50c36 -23 98 -43 167 -43c66 0 103 34 103 100zM263 88c48 0 81 17 109 38v217c-27 35 -59 59 -110 59c-60 0 -104 -53 -104 -158c0 -103 41 -156 105 -156z" />
    <glyph glyph-name="h" unicode="h" horiz-adv-x="567" 
d="M134 700c28 0 52 -11 52 -41v-240c40 49 95 81 157 81c86 0 140 -50 140 -166v-235c0 -18 8 -25 19 -25h29c4 -6 6 -13 6 -27c0 -27 -30 -47 -91 -47c-42 0 -70 23 -70 85v222c0 57 -14 95 -62 95c-47 0 -99 -35 -128 -79v-312c-10 -7 -33 -11 -58 -11
c-24 0 -50 7 -50 51v637c11 7 31 12 56 12z" />
    <glyph glyph-name="i" unicode="i" horiz-adv-x="295" 
d="M113 490c49 0 89 -16 89 -96v-284c0 -20 8 -28 22 -28h31c5 -8 7 -17 7 -33c0 -30 -25 -49 -86 -49c-53 0 -82 21 -82 88v276c0 23 -11 30 -25 30h-29c-4 9 -6 21 -6 39c0 41 31 57 79 57zM72 624c0 42 20 63 63 63c42 0 64 -21 64 -63c0 -43 -22 -63 -64 -63
s-63 21 -63 63z" />
    <glyph glyph-name="j" unicode="j" horiz-adv-x="283" 
d="M116 490c57 0 89 -24 89 -91v-464c0 -102 -48 -144 -133 -144c-62 0 -110 12 -110 54c0 15 1 27 7 42h74c36 0 54 25 54 68v409c0 23 -10 30 -23 30h-38c-4 12 -6 22 -6 40c0 36 28 56 86 56zM75 624c0 42 20 63 63 63c42 0 64 -21 64 -63c0 -43 -22 -63 -64 -63
s-63 21 -63 63z" />
    <glyph glyph-name="k" unicode="k" horiz-adv-x="494" 
d="M128 701c27 0 58 -10 58 -41v-359c84 45 140 110 145 179c10 5 35 10 52 10c32 0 55 -12 55 -46c0 -70 -84 -151 -161 -181c57 -38 95 -159 183 -159h13c5 -8 8 -23 8 -42c0 -38 -26 -62 -67 -62c-109 0 -157 166 -228 226v-214c-10 -7 -34 -12 -60 -12
c-24 0 -48 6 -48 51v635c11 9 24 15 50 15z" />
    <glyph glyph-name="l" unicode="l" horiz-adv-x="307" 
d="M184 654v-500c0 -51 17 -65 57 -65h53c2 -9 4 -16 4 -31c0 -32 -24 -58 -103 -58c-84 0 -119 46 -119 129v556c12 10 23 16 52 16c40 0 56 -21 56 -47z" />
    <glyph glyph-name="m" unicode="m" horiz-adv-x="876" 
d="M384 55v256c0 64 -18 91 -59 91c-46 0 -89 -36 -120 -80v-311c-13 -8 -28 -11 -57 -11c-28 0 -51 12 -51 55v309c0 21 -9 30 -26 30h-34c-5 11 -10 22 -10 38c0 37 27 58 86 58c67 0 89 -46 89 -85v-5c46 64 97 100 167 100c58 0 99 -31 116 -98c46 58 97 98 165 98
c77 0 136 -49 136 -162v-238c0 -16 7 -26 20 -26h36c3 -6 6 -11 6 -27c0 -29 -31 -47 -93 -47c-57 0 -77 23 -77 99v211c0 61 -20 92 -62 92c-52 0 -89 -35 -124 -81v-310c-12 -8 -28 -11 -57 -11c-25 0 -51 11 -51 55z" />
    <glyph glyph-name="n" unicode="n" horiz-adv-x="596" 
d="M110 490c53 0 90 -28 90 -80v-5c46 60 100 94 173 94c76 0 133 -51 133 -161v-238c0 -16 7 -26 20 -26h37c3 -5 4 -10 4 -23c0 -33 -28 -51 -92 -51c-57 0 -77 25 -77 96v214c0 59 -20 92 -67 92c-50 0 -92 -36 -126 -83v-308c-13 -8 -28 -11 -57 -11
c-28 0 -51 12 -51 55v309c0 21 -9 30 -26 30h-34c-5 11 -10 22 -10 38c0 37 22 58 83 58z" />
    <glyph glyph-name="o" unicode="o" horiz-adv-x="551" 
d="M46 244c0 178 100 256 232 256c134 0 227 -78 227 -256c0 -184 -98 -254 -230 -254s-229 73 -229 254zM158 242c0 -115 51 -154 117 -154c69 0 119 38 119 154c0 112 -48 160 -116 160s-120 -49 -120 -160z" />
    <glyph glyph-name="p" unicode="p" horiz-adv-x="572" 
d="M119 490c46 0 76 -29 79 -71c39 48 91 81 148 81c96 0 180 -66 180 -247c0 -176 -85 -263 -198 -263c-53 0 -93 21 -124 49v-237c-15 -7 -27 -11 -55 -11s-53 11 -53 55v518c0 21 -9 30 -25 30h-32c-5 11 -10 22 -10 38c0 37 22 58 90 58zM313 402
c-42 0 -80 -26 -109 -69v-190c20 -23 61 -55 106 -55c66 0 104 56 104 153c0 117 -45 161 -101 161z" />
    <glyph glyph-name="q" unicode="q" horiz-adv-x="563" 
d="M365 -168v205c-36 -29 -77 -47 -131 -47c-107 0 -188 83 -188 254c0 179 91 256 199 256c61 0 103 -25 133 -59c16 32 54 49 91 49c46 0 66 -17 66 -48c0 -23 -2 -36 -7 -47h-33c-19 0 -29 -9 -29 -32v-560c-9 -6 -31 -12 -56 -12c-29 0 -45 14 -45 41zM259 88
c47 0 79 17 106 38v217c-23 33 -54 59 -108 59c-51 0 -99 -47 -99 -158c0 -103 40 -156 101 -156z" />
    <glyph glyph-name="r" unicode="r" horiz-adv-x="446" 
d="M112 490c47 0 81 -20 88 -77c40 48 96 87 147 87c60 0 90 -32 90 -97c0 -60 -21 -79 -60 -79c-15 0 -31 7 -39 14c0 29 -11 46 -40 46c-34 0 -68 -20 -93 -58v-315c-7 -5 -27 -11 -51 -11c-38 0 -57 7 -57 63v300c0 22 -9 30 -24 30h-36c-5 12 -8 25 -8 43
c0 32 32 54 83 54z" />
    <glyph glyph-name="s" unicode="s" horiz-adv-x="448" 
d="M224 500c118 0 168 -38 168 -83c0 -25 -6 -35 -18 -51c-25 19 -84 42 -145 42c-60 0 -82 -28 -82 -53c0 -29 23 -47 92 -58c124 -19 171 -65 171 -155c0 -94 -60 -152 -182 -152c-120 0 -190 38 -190 90c0 14 5 31 18 45c34 -21 108 -43 165 -43c67 0 90 26 90 53
c0 32 -26 50 -97 62c-126 20 -167 70 -167 154c0 88 61 149 177 149z" />
    <glyph glyph-name="t" unicode="t" horiz-adv-x="377" 
d="M308 401h-100v-245c0 -51 17 -64 52 -64h91c4 -9 7 -16 7 -31c0 -34 -26 -61 -136 -61c-68 0 -122 30 -122 134v267h-59c-6 10 -10 23 -10 39c0 32 9 50 40 50h29v120c11 6 33 11 56 11c27 0 52 -12 52 -44v-87h135c8 -7 11 -19 11 -35c0 -21 -7 -54 -46 -54z" />
    <glyph glyph-name="u" unicode="u" horiz-adv-x="592" 
d="M468 0c-39 0 -60 17 -76 77c-44 -54 -100 -87 -168 -87c-73 0 -132 42 -132 159v217c0 21 -8 28 -23 28h-44c-4 12 -5 20 -5 38c0 40 38 58 95 58c69 0 85 -26 85 -95v-224c0 -59 23 -83 62 -83c55 0 94 36 125 88v302c15 7 35 11 60 11c35 0 48 -14 48 -41v-330
c0 -23 10 -30 24 -30h36c2 -6 3 -12 3 -30c0 -36 -22 -58 -90 -58z" />
    <glyph glyph-name="v" unicode="v" horiz-adv-x="510" 
d="M69 490c53 0 75 -20 89 -59l106 -299c55 75 102 191 102 244c0 21 -12 30 -29 30h-29c-3 8 -6 19 -6 38c0 27 27 46 75 46c66 0 94 -28 94 -89c0 -85 -72 -244 -152 -357c-21 -30 -45 -44 -78 -44c-13 0 -30 3 -40 9l-140 371c-6 17 -16 26 -30 26h-23c-4 10 -8 22 -8 42
c0 23 29 42 69 42z" />
    <glyph glyph-name="w" unicode="w" horiz-adv-x="778" 
d="M493 9l-93 271c-19 -75 -53 -160 -87 -219c-24 -42 -47 -61 -78 -61c-18 0 -29 4 -38 10l-130 377c-4 12 -11 19 -23 19h-28c-4 11 -6 22 -6 37c0 30 18 47 70 47c54 0 70 -22 89 -79l87 -268c49 98 76 199 80 332c16 12 37 15 53 15c29 0 44 -15 53 -40l107 -311
c53 71 89 183 89 241c0 16 -10 26 -24 26h-30c-3 9 -7 20 -7 36c0 29 29 48 79 48c61 0 82 -34 82 -88c0 -119 -124 -402 -203 -402c-19 0 -32 3 -42 9z" />
    <glyph glyph-name="x" unicode="x" horiz-adv-x="505" 
d="M114 490c46 0 65 -19 88 -56l62 -100l79 111c23 33 41 45 68 45c45 0 59 -32 59 -63l-155 -177l77 -124c20 -32 34 -41 54 -41h39c5 -10 6 -19 6 -34c0 -31 -27 -51 -86 -51c-36 0 -70 17 -91 51l-71 114l-88 -125c-19 -27 -40 -40 -70 -40c-38 0 -53 27 -56 62l164 184
l-90 144c-7 10 -16 16 -31 16h-41c-3 9 -5 19 -5 31c0 34 40 53 88 53z" />
    <glyph glyph-name="y" unicode="y" horiz-adv-x="534" 
d="M28 -120h50c74 0 117 58 166 140c-31 4 -50 37 -63 72l-110 290c-7 17 -13 24 -26 24h-37c-4 9 -6 22 -6 33c0 31 24 51 82 51s81 -44 100 -98l90 -256c5 -13 9 -20 18 -23c51 102 99 215 99 264c0 18 -8 29 -24 29h-35c-3 7 -6 20 -6 33c0 30 29 51 77 51
c69 0 95 -33 95 -86c0 -88 -89 -281 -161 -412c-77 -139 -150 -201 -240 -201c-65 0 -77 26 -77 54c0 10 2 20 8 35z" />
    <glyph glyph-name="z" unicode="z" horiz-adv-x="476" 
d="M29 41c0 17 4 31 14 44l244 316h-237c-6 10 -9 23 -9 39c0 27 3 50 43 50h338c3 -8 7 -19 7 -37c0 -19 -8 -39 -18 -52l-238 -309h271c5 -7 9 -19 9 -43c0 -22 -7 -49 -46 -49h-367c-6 10 -11 25 -11 41z" />
    <glyph glyph-name="braceleft" unicode="{" horiz-adv-x="353" 
d="M217 712c67 0 103 -18 103 -62c0 -15 -3 -26 -7 -35h-77c-33 0 -51 -22 -51 -58v-171c0 -67 -34 -83 -49 -85v-6c14 -1 49 -22 49 -87v-161c0 -44 20 -59 49 -59h79c4 -7 7 -19 7 -33c0 -40 -36 -61 -113 -61c-55 0 -118 30 -118 114v190c0 43 -20 52 -39 55
c-16 2 -25 18 -25 47c0 17 2 33 7 39c29 0 57 16 57 54v187c0 103 64 132 128 132z" />
    <glyph glyph-name="bar" unicode="|" horiz-adv-x="276" 
d="M141 713c32 0 53 -10 53 -39v-769c-15 -7 -34 -11 -63 -11c-28 0 -48 13 -48 45v763c11 7 34 11 58 11z" />
    <glyph glyph-name="braceright" unicode="}" horiz-adv-x="353" 
d="M136 -106c-67 0 -103 18 -103 62c0 14 3 26 7 35h77c33 0 51 22 51 58v170c0 68 34 84 49 86v5c-14 1 -49 22 -49 88v161c0 44 -20 59 -49 59h-79c-4 7 -7 18 -7 32c0 41 36 62 113 62c55 0 118 -30 118 -114v-190c0 -43 20 -52 39 -55c16 -2 25 -18 25 -47
c0 -17 -2 -33 -7 -39c-29 0 -57 -16 -57 -54v-187c0 -103 -64 -132 -128 -132z" />
    <glyph glyph-name="asciitilde" unicode="~" horiz-adv-x="566" 
d="M167 427c85 0 149 -38 219 -38c58 0 81 39 86 47c14 -6 33 -30 33 -68c0 -40 -34 -75 -99 -75c-75 0 -173 36 -244 36c-39 0 -64 -34 -69 -51c-23 11 -32 34 -32 62c0 36 31 87 106 87z" />
    <glyph glyph-name="uni00A0" unicode="&#xa0;" horiz-adv-x="218" 
 />
    <glyph glyph-name="exclamdown" unicode="&#xa1;" horiz-adv-x="225" 
d="M117 -210c-29 0 -59 10 -59 40v473c7 7 30 14 55 14c32 0 55 -15 55 -59v-458c-10 -6 -24 -10 -51 -10zM171 431c0 -40 -18 -60 -59 -60c-39 0 -59 20 -59 60s20 59 59 59c40 0 59 -20 59 -59z" />
    <glyph glyph-name="cent" unicode="&#xa2;" horiz-adv-x="490" 
d="M438 422c0 -15 -10 -38 -26 -55c-31 12 -53 20 -91 23l-3 -300c46 5 89 20 110 34c8 -9 15 -24 15 -45c0 -26 -11 -46 -35 -60c-16 -9 -46 -21 -92 -26l-2 -84c-6 -6 -21 -9 -42 -9c-18 0 -33 6 -32 34l1 59c-119 17 -190 111 -190 249c0 174 100 245 198 256l2 84
c8 5 20 8 36 8c22 0 38 -9 38 -34l-2 -59c45 -5 68 -17 87 -28c16 -10 28 -23 28 -47zM144 241c0 -81 39 -132 99 -146l4 294c-56 -9 -103 -51 -103 -148z" />
    <glyph glyph-name="sterling" unicode="&#xa3;" horiz-adv-x="588" 
d="M531 0h-505c-5 15 -10 27 -10 51c0 27 8 50 32 53c33 5 56 37 65 170h-66c-6 14 -12 28 -12 47c0 33 6 57 54 57h28v25c7 166 68 293 238 293c112 0 178 -25 178 -74c0 -25 -12 -50 -29 -59c-28 15 -65 30 -144 30c-118 0 -136 -91 -136 -189v-26h213c5 -8 10 -19 10 -40
c0 -25 -9 -64 -61 -64h-168c-4 -77 -16 -138 -41 -170h380c6 -8 12 -23 12 -45c0 -34 -12 -59 -38 -59z" />
    <glyph glyph-name="currency" unicode="&#xa4;" horiz-adv-x="522" 
d="M74 247c0 30 7 58 22 82l-10 10c-25 25 -49 48 -49 82c0 30 30 64 63 65l73 -79c25 14 52 23 83 23c26 0 51 -7 72 -18l12 17c19 28 50 53 80 53c28 0 65 -24 67 -56l-77 -86c18 -27 29 -58 29 -93c0 -30 -8 -57 -22 -80l20 -18c28 -25 48 -60 48 -90s-36 -59 -64 -59
l-78 88c-26 -15 -55 -24 -87 -24c-23 0 -43 6 -62 15l-14 -19c-24 -33 -59 -54 -89 -54c-27 0 -57 29 -59 58l75 80c-21 29 -33 64 -33 103zM154 247c0 -56 46 -103 102 -103s103 47 103 103s-47 103 -103 103s-102 -47 -102 -103z" />
    <glyph glyph-name="yen" unicode="&#xa5;" horiz-adv-x="595" 
d="M356 239v-37h160c6 -6 11 -16 11 -33c0 -20 -9 -52 -61 -52h-110v-105c-10 -6 -31 -12 -61 -12c-31 0 -49 10 -49 37v80h-154c-7 12 -13 22 -13 38c0 28 7 47 51 47h116v32l-13 19h-141c-7 11 -13 22 -13 42c0 23 5 42 50 42h56c-66 114 -120 235 -152 348
c15 9 31 15 55 15c30 0 45 -8 54 -36c36 -121 88 -241 161 -356c77 123 150 300 168 386c11 4 26 6 47 6c22 0 37 -16 37 -38c-1 -60 -72 -210 -139 -325h100c6 -6 11 -16 11 -32c0 -21 -18 -52 -69 -52h-93z" />
    <glyph glyph-name="brokenbar" unicode="&#xa6;" horiz-adv-x="276" 
d="M135 713c28 0 59 -10 59 -41v-320c-8 -8 -37 -13 -63 -13c-23 0 -48 7 -48 52v311c10 7 25 11 52 11zM135 267c28 0 59 -10 59 -40v-321c-8 -7 -37 -12 -63 -12c-23 0 -48 7 -48 51v312c10 6 25 10 52 10z" />
    <glyph glyph-name="section" unicode="&#xa7;" horiz-adv-x="589" 
d="M305 721c117 0 185 -44 185 -87c0 -34 -16 -50 -34 -62c-24 22 -85 46 -159 46c-94 0 -117 -25 -117 -53c0 -34 41 -55 138 -75c118 -24 214 -68 214 -163c0 -54 -25 -97 -59 -140c20 -19 34 -42 34 -71c0 -102 -88 -158 -219 -158c-134 0 -207 50 -207 99
c0 24 7 33 23 46c34 -24 105 -46 180 -46c80 0 122 19 122 54c0 31 -50 50 -148 72c-126 29 -209 66 -209 164c0 56 35 95 68 125c-24 23 -36 53 -36 94c0 85 64 155 224 155zM264 408c-31 8 -58 15 -81 26c-24 -24 -40 -52 -40 -82c0 -46 62 -72 160 -94
c35 -8 69 -17 98 -28c21 24 35 54 35 80c0 44 -61 71 -172 98z" />
    <glyph glyph-name="dieresis" unicode="&#xa8;" horiz-adv-x="482" 
d="M65 623c0 38 18 58 58 58c38 0 58 -20 58 -58c0 -40 -20 -58 -58 -58c-39 0 -58 19 -58 58zM272 623c0 38 18 58 58 58c38 0 58 -20 58 -58c0 -40 -20 -58 -58 -58c-39 0 -58 19 -58 58z" />
    <glyph glyph-name="copyright" unicode="&#xa9;" horiz-adv-x="783" 
d="M31 350c0 219 140 360 360 360c219 0 360 -141 360 -360s-141 -360 -360 -360c-220 0 -360 141 -360 360zM123 351c0 -164 104 -270 268 -270c165 0 269 106 269 270s-104 269 -269 269c-164 0 -268 -105 -268 -269zM508 487c0 -12 -12 -33 -22 -44c-33 13 -48 20 -92 20
c-47 0 -91 -29 -91 -114c0 -73 40 -115 97 -115c42 0 76 15 96 26c6 -5 16 -20 16 -36c0 -20 -9 -34 -26 -44c-13 -9 -45 -23 -94 -23c-105 0 -171 76 -171 192c0 147 91 198 170 198c56 0 79 -12 97 -25c13 -8 20 -17 20 -35z" />
    <glyph glyph-name="ordfeminine" unicode="&#xaa;" horiz-adv-x="291" 
d="M239 450c-20 0 -40 7 -49 21c-19 -17 -41 -26 -68 -26c-48 0 -106 33 -106 126c0 91 56 129 106 129c27 0 46 -10 59 -25v4c0 12 12 17 24 17c13 0 32 -2 40 -7v-172c0 -11 5 -15 18 -15h12c1 -6 3 -12 3 -24c0 -13 -13 -28 -39 -28zM134 500c19 0 35 8 46 16v102
c-9 14 -26 25 -47 25c-26 0 -50 -20 -50 -71c0 -54 21 -72 51 -72z" />
    <glyph glyph-name="guillemotleft" unicode="&#xab;" horiz-adv-x="501" 
d="M50 297l128 145c11 12 22 15 31 15c28 0 48 -25 48 -46c0 -16 -6 -26 -15 -37l-112 -131l111 -134c11 -14 14 -22 14 -33c0 -26 -26 -43 -47 -43c-15 0 -28 5 -41 20l-118 141c-12 15 -19 30 -19 52c0 20 9 38 20 51zM262 297l127 145c11 12 22 15 32 15
c28 0 48 -25 48 -46c0 -16 -6 -26 -15 -37l-112 -131l111 -134c11 -14 14 -22 14 -33c0 -26 -27 -43 -48 -43c-14 0 -27 5 -40 20l-118 141c-12 15 -19 30 -19 52c0 20 9 38 20 51z" />
    <glyph glyph-name="logicalnot" unicode="&#xac;" horiz-adv-x="512" 
d="M400 123c-24 0 -48 7 -48 52v124h-290c-7 14 -12 27 -12 54c0 26 12 49 44 49h358c7 -12 10 -31 10 -51v-215c-7 -8 -36 -13 -62 -13z" />
    <glyph glyph-name="uni00AD" unicode="&#xad;" horiz-adv-x="424" 
d="M317 213h-254c-7 15 -13 27 -13 51c0 31 13 53 53 53h259c6 -9 11 -26 11 -49c0 -32 -13 -55 -56 -55z" />
    <glyph glyph-name="registered" unicode="&#xae;" 
d="M31 445c0 157 100 258 258 258c157 0 257 -101 257 -258s-100 -257 -257 -257c-158 0 -258 100 -258 257zM95 446c0 -119 75 -195 194 -195s194 76 194 195s-75 194 -194 194s-194 -75 -194 -194zM224 576h83c40 0 85 -20 85 -77c0 -38 -25 -62 -53 -73
c18 -24 32 -60 53 -60h15c4 -3 5 -9 5 -19c0 -19 -12 -32 -39 -32c-50 0 -56 59 -89 103h-29v-98c-5 -4 -20 -5 -31 -5c-16 0 -30 3 -30 27v230c6 3 17 4 30 4zM298 529h-43v-65h38c26 0 41 13 41 34c0 19 -14 31 -36 31z" />
    <glyph glyph-name="macron" unicode="&#xaf;" horiz-adv-x="458" 
d="M336 570h-264c-6 11 -12 20 -12 36c0 26 6 45 59 45h268c6 -6 11 -15 11 -31c0 -20 -10 -50 -62 -50z" />
    <glyph glyph-name="degree" unicode="&#xb0;" horiz-adv-x="339" 
d="M26 557c0 79 64 143 143 143s144 -64 144 -143s-65 -143 -144 -143s-143 64 -143 143zM93 557c0 -42 34 -77 77 -77s77 35 77 77c0 43 -34 77 -77 77s-77 -34 -77 -77z" />
    <glyph glyph-name="plusminus" unicode="&#xb1;" horiz-adv-x="512" 
d="M309 470v-109h143c5 -7 10 -26 10 -51c0 -29 -9 -52 -44 -52h-109v-145c-14 -7 -32 -10 -52 -10c-33 0 -52 11 -52 56v99h-145c-7 14 -10 26 -10 52c0 24 9 51 37 51h118v144c8 5 30 10 54 10c26 0 50 -9 50 -45zM413 -13h-351c-7 11 -12 23 -12 45s12 41 44 41h358
c7 -10 10 -26 10 -42c0 -21 -8 -44 -49 -44z" />
    <glyph glyph-name="twosuperior" unicode="&#xb2;" horiz-adv-x="351" 
d="M26 628c0 32 48 70 137 70c102 0 150 -49 150 -120c0 -92 -109 -178 -189 -224v-4l199 3c3 -6 5 -20 5 -35c0 -23 -6 -33 -25 -33h-273c-5 9 -8 17 -8 39c0 20 4 36 24 51c66 48 186 131 186 191c0 39 -27 58 -74 58c-44 0 -87 -18 -107 -40c-14 9 -25 23 -25 44z" />
    <glyph glyph-name="threesuperior" unicode="&#xb3;" horiz-adv-x="342" 
d="M221 571c0 32 -23 52 -69 52c-42 0 -81 -15 -102 -36c-14 9 -24 20 -24 41c0 32 42 70 130 70c100 0 143 -50 143 -112c0 -43 -28 -83 -67 -92v-1c40 -5 78 -38 78 -95c0 -59 -43 -118 -152 -118c-104 0 -138 45 -138 77c0 23 8 35 27 44c17 -26 49 -52 107 -52
c52 0 79 24 79 57c0 34 -22 52 -68 52h-23c-11 0 -18 13 -18 30c0 15 2 22 6 29c52 0 91 20 91 54z" />
    <glyph glyph-name="acute" unicode="&#xb4;" horiz-adv-x="518" 
d="M132 580c30 15 118 121 166 121c35 0 48 -20 49 -44c-50 -30 -128 -112 -171 -112c-23 0 -40 13 -44 35z" />
    <glyph glyph-name="mu" unicode="&#xb5;" horiz-adv-x="611" 
d="M507 0c-54 0 -86 25 -101 77c-42 -50 -97 -85 -159 -85c-21 0 -38 3 -51 11v-171c-9 -7 -26 -12 -54 -12s-49 20 -49 66v481c0 20 -9 27 -24 27h-46c-3 12 -5 22 -5 44c0 36 43 52 96 52c69 0 91 -33 91 -108v-178c0 -67 14 -105 64 -105c57 0 102 28 131 75v304
c15 8 39 12 62 12c37 0 51 -14 51 -41v-331c0 -23 11 -30 25 -30h38c2 -7 4 -15 4 -35c0 -33 -35 -53 -73 -53z" />
    <glyph glyph-name="paragraph" unicode="&#xb6;" horiz-adv-x="734" 
d="M656 596h-62v-745c-8 -6 -28 -11 -46 -11c-31 0 -59 7 -59 52v704h-98v-620c0 -79 -59 -107 -105 -107c-42 0 -67 26 -67 57c35 9 68 23 68 68v219c-135 0 -245 108 -245 243s106 244 245 244h395c6 -8 12 -23 12 -45c0 -34 -13 -59 -38 -59z" />
    <glyph glyph-name="periodcentered" unicode="&#xb7;" horiz-adv-x="196" 
d="M38 263c0 40 19 60 60 60c39 0 59 -20 59 -60s-20 -59 -59 -59c-40 0 -60 20 -60 59z" />
    <glyph glyph-name="cedilla" unicode="&#xb8;" horiz-adv-x="551" 
d="M302 -113c0 29 -39 38 -66 39c-5 4 -8 13 -8 22l1 68l61 -1l-4 -48c53 -9 74 -37 74 -85c0 -51 -33 -85 -95 -85c-58 0 -86 26 -86 49c0 17 10 28 19 33c13 -13 38 -26 63 -26c28 0 41 13 41 34z" />
    <glyph glyph-name="onesuperior" unicode="&#xb9;" horiz-adv-x="336" 
d="M297 285h-248c-5 10 -9 18 -9 32c0 22 4 37 42 37h67v245c-26 -19 -58 -28 -82 -28c-19 0 -32 12 -32 35c0 13 2 21 8 30c45 3 94 28 106 59c8 4 24 6 39 6c23 0 37 -9 37 -27v-320h89c4 -5 9 -15 9 -29c0 -23 -9 -40 -26 -40z" />
    <glyph glyph-name="ordmasculine" unicode="&#xba;" horiz-adv-x="286" 
d="M23 572c0 90 52 128 120 128c69 0 120 -38 120 -128c0 -92 -52 -127 -121 -127s-119 36 -119 127zM90 571c0 -52 24 -71 52 -71c31 0 53 18 53 71c0 51 -22 72 -52 72s-53 -21 -53 -72z" />
    <glyph glyph-name="guillemotright" unicode="&#xbb;" horiz-adv-x="501" 
d="M239 193l-127 -145c-11 -12 -22 -15 -31 -15c-29 0 -48 25 -48 46c0 16 5 26 14 37l113 131l-112 134c-10 14 -13 23 -13 34c0 25 26 42 47 42c15 0 28 -5 40 -20l119 -141c11 -15 18 -30 18 -51s-8 -39 -20 -52zM451 193l-127 -145c-11 -12 -22 -15 -32 -15
c-28 0 -48 25 -48 46c0 16 6 26 15 37l112 131l-111 134c-10 14 -14 23 -14 34c0 25 27 42 48 42c14 0 28 -5 40 -20l118 -141c12 -15 19 -30 19 -51s-9 -39 -20 -52z" />
    <glyph glyph-name="onequarter" unicode="&#xbc;" horiz-adv-x="882" 
d="M576 700c33 0 49 -15 38 -43l-247 -650c-10 -5 -16 -9 -40 -9c-31 0 -47 14 -31 56l239 640c12 4 21 6 41 6zM297 285h-248c-5 10 -9 18 -9 32c0 22 4 37 42 37h67v245c-26 -19 -58 -28 -82 -28c-19 0 -32 12 -32 35c0 13 2 21 8 30c45 3 94 28 106 59c8 4 24 6 39 6
c23 0 37 -9 37 -27v-320h89c4 -5 9 -15 9 -29c0 -23 -9 -40 -26 -40zM763 296c20 0 34 -6 34 -26v-128h60c4 -4 8 -15 8 -32c0 -20 -8 -30 -24 -30h-43v-74c-7 -4 -22 -6 -40 -6c-19 0 -32 8 -32 26l-1 54h-196c-5 6 -6 15 -6 24c0 8 3 22 7 33l88 270c9 4 23 7 43 7
s30 -13 25 -28l-77 -244h116l-1 145c9 5 22 9 39 9z" />
    <glyph glyph-name="onehalf" unicode="&#xbd;" horiz-adv-x="912" 
d="M576 700c33 0 49 -15 38 -43l-247 -650c-10 -5 -16 -9 -40 -9c-31 0 -47 14 -31 56l239 640c12 4 21 6 41 6zM297 285h-248c-5 10 -9 18 -9 32c0 22 4 37 42 37h67v245c-26 -19 -58 -28 -82 -28c-19 0 -32 12 -32 35c0 13 2 21 8 30c45 3 94 28 106 59c8 4 24 6 39 6
c23 0 37 -9 37 -27v-320h89c4 -5 9 -15 9 -29c0 -23 -9 -40 -26 -40zM587 343c0 32 48 70 137 70c102 0 150 -49 150 -120c0 -92 -109 -178 -189 -224v-4l199 3c3 -6 6 -20 6 -35c0 -23 -7 -33 -26 -33h-273c-4 9 -7 17 -7 39c0 20 4 36 23 51c67 48 187 131 187 191
c0 39 -27 58 -75 58c-43 0 -86 -18 -107 -40c-14 9 -25 23 -25 44z" />
    <glyph glyph-name="threequarters" unicode="&#xbe;" horiz-adv-x="847" 
d="M541 700c32 0 48 -15 38 -43l-248 -650c-9 -5 -15 -9 -39 -9c-31 0 -48 14 -31 56l239 640c12 4 21 6 41 6zM221 571c0 32 -23 52 -69 52c-42 0 -81 -15 -102 -36c-14 9 -24 20 -24 41c0 32 42 70 130 70c100 0 143 -50 143 -112c0 -43 -28 -83 -67 -92v-1
c40 -5 78 -38 78 -95c0 -59 -43 -118 -152 -118c-104 0 -138 45 -138 77c0 23 8 35 27 44c17 -26 49 -52 107 -52c52 0 79 24 79 57c0 34 -22 52 -68 52h-23c-11 0 -18 13 -18 30c0 15 2 22 6 29c52 0 91 20 91 54zM728 296c20 0 34 -6 34 -26v-128h60c5 -4 8 -15 8 -32
c0 -20 -8 -30 -24 -30h-43v-74c-7 -4 -22 -6 -40 -6c-19 0 -32 8 -32 26l-1 54h-196c-5 6 -6 15 -6 24c0 8 3 22 7 33l88 270c9 4 23 7 43 7c21 0 30 -13 25 -28l-77 -244h116v145c8 5 22 9 38 9z" />
    <glyph glyph-name="questiondown" unicode="&#xbf;" horiz-adv-x="495" 
d="M149 19c0 -74 44 -119 118 -119c69 0 130 43 158 81c21 -12 37 -32 37 -64c0 -50 -65 -127 -202 -127c-148 0 -223 92 -223 207s70 190 196 205l-7 112c9 10 24 14 51 14c28 0 45 -16 46 -41l5 -111c1 -19 -3 -32 -11 -42c-70 -2 -168 -31 -168 -115zM328 430
c0 -39 -19 -59 -60 -59c-39 0 -59 20 -59 59c0 41 20 60 59 60c40 0 60 -20 60 -60z" />
    <glyph glyph-name="Agrave" unicode="&#xc0;" horiz-adv-x="627" 
d="M59 0c-28 0 -44 5 -54 15l246 668c16 9 31 17 66 17c32 0 51 -16 60 -39l245 -637c-10 -20 -35 -24 -56 -24c-30 0 -51 12 -64 45l-41 108h-297l-43 -117c-10 -27 -27 -36 -62 -36zM308 562l-112 -316h229zM391 793c-5 -22 -21 -36 -44 -36c-43 0 -121 83 -172 113
c2 24 14 44 50 44c48 0 136 -106 166 -121z" />
    <glyph glyph-name="Aacute" unicode="&#xc1;" horiz-adv-x="627" 
d="M59 0c-28 0 -44 5 -54 15l246 668c16 9 31 17 66 17c32 0 51 -16 60 -39l245 -637c-10 -20 -35 -24 -56 -24c-30 0 -51 12 -64 45l-41 108h-297l-43 -117c-10 -27 -27 -36 -62 -36zM308 562l-112 -316h229zM232 795c30 15 118 121 166 121c35 0 48 -20 49 -44
c-50 -30 -128 -112 -171 -112c-23 0 -40 13 -44 35z" />
    <glyph glyph-name="Acircumflex" unicode="&#xc2;" horiz-adv-x="627" 
d="M59 0c-28 0 -44 5 -54 15l246 668c16 9 31 17 66 17c32 0 51 -16 60 -39l245 -637c-10 -20 -35 -24 -56 -24c-30 0 -51 12 -64 45l-41 108h-297l-43 -117c-10 -27 -27 -36 -62 -36zM308 562l-112 -316h229zM476 797c-3 -17 -13 -28 -26 -33c-7 -3 -15 -3 -22 -2
c-33 4 -78 43 -120 74c-41 -31 -87 -70 -118 -74c-8 -1 -16 -1 -22 2c-14 5 -24 16 -27 33c30 14 117 120 165 120c50 0 135 -104 170 -120z" />
    <glyph glyph-name="Atilde" unicode="&#xc3;" horiz-adv-x="627" 
d="M59 0c-28 0 -44 5 -54 15l246 668c16 9 31 17 66 17c32 0 51 -16 60 -39l245 -637c-10 -20 -35 -24 -56 -24c-30 0 -51 12 -64 45l-41 108h-297l-43 -117c-10 -27 -27 -36 -62 -36zM308 562l-112 -316h229zM233 893c65 0 109 -39 154 -39s58 36 63 43
c10 -5 23 -30 23 -51c0 -31 -20 -70 -78 -70c-68 0 -107 37 -162 37c-34 0 -53 -31 -56 -44c-18 5 -23 29 -23 48c0 26 18 76 79 76z" />
    <glyph glyph-name="Adieresis" unicode="&#xc4;" horiz-adv-x="627" 
d="M59 0c-28 0 -44 5 -54 15l246 668c16 9 31 17 66 17c32 0 51 -16 60 -39l245 -637c-10 -20 -35 -24 -56 -24c-30 0 -51 12 -64 45l-41 108h-297l-43 -117c-10 -27 -27 -36 -62 -36zM308 562l-112 -316h229zM143 838c0 38 18 58 58 58c38 0 58 -20 58 -58
c0 -40 -20 -58 -58 -58c-39 0 -58 19 -58 58zM350 838c0 38 18 58 58 58c38 0 58 -20 58 -58c0 -40 -20 -58 -58 -58c-39 0 -58 19 -58 58z" />
    <glyph glyph-name="Aring" unicode="&#xc5;" horiz-adv-x="627" 
d="M221 741c0 61 30 91 91 91c60 0 90 -32 90 -91c0 -33 -9 -58 -28 -73l3 -7l245 -637c-10 -20 -35 -24 -56 -24c-30 0 -51 12 -64 45l-41 108h-297l-43 -117c-10 -27 -27 -36 -62 -36c-28 0 -44 5 -54 15l241 655c-17 16 -25 39 -25 71zM308 562l-112 -316h229zM270 741
c0 -25 12 -40 38 -41h4c27 0 41 15 41 41s-14 42 -41 42c-28 0 -42 -14 -42 -42z" />
    <glyph glyph-name="AE" unicode="&#xc6;" horiz-adv-x="910" 
d="M773 306h-239v-205h317c6 -8 12 -20 12 -43c0 -34 -13 -58 -38 -58h-354c-23 0 -48 6 -48 50v103h-251l-46 -117c-11 -27 -27 -36 -63 -36c-28 0 -48 4 -58 15l263 667c21 14 50 18 82 18h501c6 -8 12 -22 12 -45c0 -34 -13 -56 -38 -56h-291v-192h262
c6 -7 13 -25 13 -48c0 -35 -14 -53 -36 -53zM345 599l-137 -350h215v350h-78z" />
    <glyph glyph-name="Ccedilla" unicode="&#xc7;" horiz-adv-x="627" 
d="M393 -113c0 29 -39 38 -66 39c-5 4 -8 13 -8 22v44c-155 13 -267 120 -267 357c0 251 126 361 297 361c184 0 236 -82 236 -125c0 -25 -14 -47 -34 -55c-42 42 -101 77 -198 77c-107 0 -187 -75 -187 -260c0 -192 82 -254 194 -254c80 0 149 26 192 71
c20 0 45 -13 45 -46c0 -26 -11 -43 -40 -66c-18 -14 -73 -55 -178 -61l-2 -24c53 -9 74 -37 74 -85c0 -51 -33 -85 -95 -85c-58 0 -86 26 -86 49c0 17 10 28 19 33c13 -13 38 -26 63 -26c28 0 41 13 41 34z" />
    <glyph glyph-name="Egrave" unicode="&#xc8;" horiz-adv-x="579" 
d="M442 307h-239v-206h317c6 -7 12 -20 12 -43c0 -34 -13 -58 -38 -58h-353c-24 0 -48 6 -48 51v639c10 6 24 10 52 10h375c6 -8 12 -21 12 -45c0 -34 -13 -56 -38 -56h-291v-191h263c5 -8 12 -26 12 -49c0 -34 -13 -52 -36 -52zM386 802c-5 -22 -21 -36 -44 -36
c-43 0 -121 83 -172 113c2 24 14 44 50 44c48 0 136 -106 166 -121z" />
    <glyph glyph-name="Eacute" unicode="&#xc9;" horiz-adv-x="579" 
d="M442 307h-239v-206h317c6 -7 12 -20 12 -43c0 -34 -13 -58 -38 -58h-353c-24 0 -48 6 -48 51v639c10 6 24 10 52 10h375c6 -8 12 -21 12 -45c0 -34 -13 -56 -38 -56h-291v-191h263c5 -8 12 -26 12 -49c0 -34 -13 -52 -36 -52zM255 804c30 15 118 121 166 121
c35 0 48 -20 49 -44c-50 -30 -128 -112 -171 -112c-23 0 -40 13 -44 35z" />
    <glyph glyph-name="Ecircumflex" unicode="&#xca;" horiz-adv-x="579" 
d="M442 307h-239v-206h317c6 -7 12 -20 12 -43c0 -34 -13 -58 -38 -58h-353c-24 0 -48 6 -48 51v639c10 6 24 10 52 10h375c6 -8 12 -21 12 -45c0 -34 -13 -56 -38 -56h-291v-191h263c5 -8 12 -26 12 -49c0 -34 -13 -52 -36 -52zM480 806c-3 -17 -13 -28 -26 -33
c-7 -3 -15 -3 -22 -2c-33 4 -78 43 -120 74c-41 -31 -87 -70 -118 -74c-8 -1 -16 -1 -22 2c-14 5 -24 16 -27 33c30 14 117 120 165 120c50 0 135 -104 170 -120z" />
    <glyph glyph-name="Edieresis" unicode="&#xcb;" horiz-adv-x="579" 
d="M442 307h-239v-206h317c6 -7 12 -20 12 -43c0 -34 -13 -58 -38 -58h-353c-24 0 -48 6 -48 51v639c10 6 24 10 52 10h375c6 -8 12 -21 12 -45c0 -34 -13 -56 -38 -56h-291v-191h263c5 -8 12 -26 12 -49c0 -34 -13 -52 -36 -52zM158 847c0 38 18 58 58 58
c38 0 58 -20 58 -58c0 -40 -20 -58 -58 -58c-39 0 -58 19 -58 58zM365 847c0 38 18 58 58 58c38 0 58 -20 58 -58c0 -40 -20 -58 -58 -58c-39 0 -58 19 -58 58z" />
    <glyph glyph-name="Igrave" unicode="&#xcc;" horiz-adv-x="296" 
d="M153 700c28 0 50 -10 50 -40v-647c-14 -8 -31 -13 -60 -13s-50 11 -50 52v637c13 7 33 11 60 11zM246 802c-5 -22 -21 -36 -44 -36c-43 0 -121 83 -172 113c2 24 14 44 50 44c48 0 136 -106 166 -121z" />
    <glyph glyph-name="Iacute" unicode="&#xcd;" horiz-adv-x="296" 
d="M153 700c28 0 50 -10 50 -40v-647c-14 -8 -31 -13 -60 -13s-50 11 -50 52v637c13 7 33 11 60 11zM49 804c30 15 118 121 166 121c35 0 48 -20 49 -44c-50 -30 -128 -112 -171 -112c-23 0 -40 13 -44 35z" />
    <glyph glyph-name="Icircumflex" unicode="&#xce;" horiz-adv-x="296" 
d="M153 700c28 0 50 -10 50 -40v-647c-14 -8 -31 -13 -60 -13s-50 11 -50 52v637c13 7 33 11 60 11zM303 806c-3 -17 -13 -28 -26 -33c-7 -3 -15 -3 -22 -2c-33 4 -78 43 -120 74c-41 -31 -87 -70 -118 -74c-8 -1 -16 -1 -22 2c-14 5 -24 16 -27 33c30 14 117 120 165 120
c50 0 135 -104 170 -120z" />
    <glyph glyph-name="Idieresis" unicode="&#xcf;" horiz-adv-x="296" 
d="M153 700c28 0 50 -10 50 -40v-647c-14 -8 -31 -13 -60 -13s-50 11 -50 52v637c13 7 33 11 60 11zM-22 847c0 38 18 58 58 58c38 0 58 -20 58 -58c0 -40 -20 -58 -58 -58c-39 0 -58 19 -58 58zM185 847c0 38 18 58 58 58c38 0 58 -20 58 -58c0 -40 -20 -58 -58 -58
c-39 0 -58 19 -58 58z" />
    <glyph glyph-name="Eth" unicode="&#xd0;" horiz-adv-x="687" 
d="M148 700h139c224 0 348 -104 348 -358c0 -249 -130 -342 -328 -342h-159c-29 0 -55 6 -55 51v238h-72c-7 15 -13 27 -13 51c0 31 13 53 53 53h32v297c10 6 28 10 55 10zM288 599h-85v-206h150c6 -9 11 -26 11 -49c0 -33 -13 -55 -56 -55h-105v-188h100
c142 0 219 65 219 238c0 184 -82 260 -234 260z" />
    <glyph glyph-name="Ntilde" unicode="&#xd1;" horiz-adv-x="728" 
d="M526 28l-328 470l4 -486c-7 -7 -36 -13 -61 -13c-24 0 -48 7 -48 52v639c14 6 36 10 59 10c24 0 41 -13 51 -28l325 -470l-3 484c12 9 28 15 54 15s57 -10 57 -41v-650c-10 -6 -28 -10 -57 -10c-23 0 -40 11 -53 28zM287 893c65 0 109 -39 154 -39s58 36 63 43
c10 -5 23 -30 23 -51c0 -31 -20 -70 -78 -70c-68 0 -107 37 -162 37c-34 0 -53 -31 -56 -44c-18 5 -23 29 -23 48c0 26 18 76 79 76z" />
    <glyph glyph-name="Ograve" unicode="&#xd2;" horiz-adv-x="701" 
d="M52 350c0 250 130 360 300 360c172 0 297 -110 297 -360c0 -258 -127 -360 -297 -360c-171 0 -300 106 -300 360zM166 347c0 -190 82 -254 187 -254c109 0 182 63 182 254c0 186 -76 260 -183 260s-186 -75 -186 -260zM422 793c-5 -22 -21 -36 -44 -36
c-43 0 -121 83 -172 113c2 24 14 44 50 44c48 0 136 -106 166 -121z" />
    <glyph glyph-name="Oacute" unicode="&#xd3;" horiz-adv-x="701" 
d="M52 350c0 250 130 360 300 360c172 0 297 -110 297 -360c0 -258 -127 -360 -297 -360c-171 0 -300 106 -300 360zM166 347c0 -190 82 -254 187 -254c109 0 182 63 182 254c0 186 -76 260 -183 260s-186 -75 -186 -260zM271 795c30 15 118 121 166 121c35 0 48 -20 49 -44
c-50 -30 -128 -112 -171 -112c-23 0 -40 13 -44 35z" />
    <glyph glyph-name="Ocircumflex" unicode="&#xd4;" horiz-adv-x="701" 
d="M52 350c0 250 130 360 300 360c172 0 297 -110 297 -360c0 -258 -127 -360 -297 -360c-171 0 -300 106 -300 360zM166 347c0 -190 82 -254 187 -254c109 0 182 63 182 254c0 186 -76 260 -183 260s-186 -75 -186 -260zM517 797c-3 -17 -13 -28 -26 -33
c-7 -3 -15 -3 -22 -2c-33 4 -78 43 -120 74c-41 -31 -87 -70 -118 -74c-8 -1 -16 -1 -22 2c-14 5 -24 16 -27 33c30 14 117 120 165 120c50 0 135 -104 170 -120z" />
    <glyph glyph-name="Otilde" unicode="&#xd5;" horiz-adv-x="701" 
d="M52 350c0 250 130 360 300 360c172 0 297 -110 297 -360c0 -258 -127 -360 -297 -360c-171 0 -300 106 -300 360zM166 347c0 -190 82 -254 187 -254c109 0 182 63 182 254c0 186 -76 260 -183 260s-186 -75 -186 -260zM269 893c65 0 109 -39 154 -39s58 36 63 43
c10 -5 23 -30 23 -51c0 -31 -20 -70 -78 -70c-68 0 -107 37 -162 37c-34 0 -53 -31 -56 -44c-18 5 -23 29 -23 48c0 26 18 76 79 76z" />
    <glyph glyph-name="Odieresis" unicode="&#xd6;" horiz-adv-x="701" 
d="M52 350c0 250 130 360 300 360c172 0 297 -110 297 -360c0 -258 -127 -360 -297 -360c-171 0 -300 106 -300 360zM166 347c0 -190 82 -254 187 -254c109 0 182 63 182 254c0 186 -76 260 -183 260s-186 -75 -186 -260zM188 838c0 38 18 58 58 58c38 0 58 -20 58 -58
c0 -40 -20 -58 -58 -58c-39 0 -58 19 -58 58zM395 838c0 38 18 58 58 58c38 0 58 -20 58 -58c0 -40 -20 -58 -58 -58c-39 0 -58 19 -58 58z" />
    <glyph glyph-name="multiply" unicode="&#xd7;" horiz-adv-x="512" 
d="M171 425l85 -86l121 121c9 -1 20 -5 36 -21c18 -17 39 -51 2 -88l-86 -85l121 -121c-5 -15 -9 -26 -24 -42c-23 -24 -45 -35 -82 1l-88 88l-121 -121c-15 6 -27 10 -42 25c-24 23 -35 44 1 81l88 88l-121 122c1 9 6 21 21 36c17 18 52 38 89 2z" />
    <glyph glyph-name="Oslash" unicode="&#xd8;" horiz-adv-x="701" 
d="M52 350c0 250 130 360 300 360c38 0 73 -5 105 -17l48 112c12 4 29 5 39 5c23 0 37 -16 37 -29c0 -7 -1 -14 -3 -18l-47 -109c73 -55 118 -155 118 -304c0 -258 -127 -360 -297 -360c-35 0 -69 5 -101 14l-55 -132c-11 -3 -19 -3 -30 -3c-20 0 -44 12 -44 29
c0 6 1 13 5 22l52 121c-79 53 -127 152 -127 309zM166 347c0 -98 20 -162 59 -203l189 452c-19 8 -40 11 -62 11c-107 0 -186 -75 -186 -260zM535 347c0 90 -18 161 -53 201l-187 -448c18 -5 38 -7 58 -7c109 0 182 63 182 254z" />
    <glyph glyph-name="Ugrave" unicode="&#xd9;" horiz-adv-x="684" 
d="M493 270v419c10 7 29 11 56 11c31 0 55 -10 55 -40v-406c0 -178 -92 -264 -265 -264c-172 0 -259 84 -259 264v436c10 7 33 10 57 10c32 0 53 -9 53 -40v-389c0 -117 43 -178 149 -178c114 0 154 60 154 177zM419 793c-5 -22 -21 -36 -44 -36c-43 0 -121 83 -172 113
c2 24 14 44 50 44c48 0 136 -106 166 -121z" />
    <glyph glyph-name="Uacute" unicode="&#xda;" horiz-adv-x="684" 
d="M493 270v419c10 7 29 11 56 11c31 0 55 -10 55 -40v-406c0 -178 -92 -264 -265 -264c-172 0 -259 84 -259 264v436c10 7 33 10 57 10c32 0 53 -9 53 -40v-389c0 -117 43 -178 149 -178c114 0 154 60 154 177zM277 795c30 15 118 121 166 121c35 0 48 -20 49 -44
c-50 -30 -128 -112 -171 -112c-23 0 -40 13 -44 35z" />
    <glyph glyph-name="Ucircumflex" unicode="&#xdb;" horiz-adv-x="684" 
d="M493 270v419c10 7 29 11 56 11c31 0 55 -10 55 -40v-406c0 -178 -92 -264 -265 -264c-172 0 -259 84 -259 264v436c10 7 33 10 57 10c32 0 53 -9 53 -40v-389c0 -117 43 -178 149 -178c114 0 154 60 154 177zM509 797c-3 -17 -13 -28 -26 -33c-7 -3 -15 -3 -22 -2
c-33 4 -78 43 -120 74c-41 -31 -87 -70 -118 -74c-8 -1 -16 -1 -22 2c-14 5 -24 16 -27 33c30 14 117 120 165 120c50 0 135 -104 170 -120z" />
    <glyph glyph-name="Udieresis" unicode="&#xdc;" horiz-adv-x="684" 
d="M493 270v419c10 7 29 11 56 11c31 0 55 -10 55 -40v-406c0 -178 -92 -264 -265 -264c-172 0 -259 84 -259 264v436c10 7 33 10 57 10c32 0 53 -9 53 -40v-389c0 -117 43 -178 149 -178c114 0 154 60 154 177zM180 838c0 38 18 58 58 58c38 0 58 -20 58 -58
c0 -40 -20 -58 -58 -58c-39 0 -58 19 -58 58zM387 838c0 38 18 58 58 58c38 0 58 -20 58 -58c0 -40 -20 -58 -58 -58c-39 0 -58 19 -58 58z" />
    <glyph glyph-name="Yacute" unicode="&#xdd;" horiz-adv-x="574" 
d="M352 237v-225c-10 -6 -31 -12 -62 -12s-48 10 -48 37v197c-93 141 -182 305 -224 451c15 9 36 15 61 15c30 0 59 -6 68 -34c41 -127 89 -222 158 -331c73 120 139 275 156 359c12 4 36 6 57 6c23 0 38 -16 38 -38c0 -78 -125 -313 -204 -425zM239 795
c30 15 118 121 166 121c35 0 48 -20 49 -44c-50 -30 -128 -112 -171 -112c-23 0 -40 13 -44 35z" />
    <glyph glyph-name="Thorn" unicode="&#xde;" horiz-adv-x="623" 
d="M158 700c24 0 45 -10 45 -36v-84h160c108 0 211 -59 211 -210c0 -183 -127 -224 -230 -224h-141v-135c-10 -7 -35 -11 -61 -11s-49 10 -49 51v640c13 6 36 9 65 9zM346 487h-143v-247h121c83 0 136 29 136 122c0 89 -46 125 -114 125z" />
    <glyph glyph-name="germandbls" unicode="&#xdf;" horiz-adv-x="634" 
d="M489 398c-10 1 -36 3 -52 3c-51 0 -77 -19 -77 -51c0 -28 26 -42 90 -57c97 -23 146 -60 146 -153c0 -85 -53 -150 -170 -150c-102 0 -169 46 -169 88c0 29 7 40 18 54c28 -19 87 -44 151 -44c54 0 75 24 75 50c0 30 -18 47 -85 61c-96 21 -151 66 -151 152
c0 79 45 133 135 142c1 7 2 20 2 33c0 50 -39 74 -99 74c-61 0 -118 -30 -118 -149v-425c0 -15 -22 -26 -50 -26c-23 0 -45 4 -59 12v456c0 158 103 232 228 232c106 0 200 -49 200 -176c0 -61 -8 -111 -15 -126z" />
    <glyph glyph-name="agrave" unicode="&#xe0;" horiz-adv-x="568" 
d="M462 0c-35 0 -66 14 -81 45c-37 -35 -82 -55 -138 -55c-95 0 -197 70 -197 254c0 181 97 256 196 256c61 0 99 -25 124 -56v18c0 21 23 31 45 31c23 0 46 -6 61 -13v-367c0 -25 11 -33 40 -33h20c4 -10 7 -18 7 -34c0 -25 -25 -46 -77 -46zM266 88c43 0 74 15 98 34v217
c-23 34 -51 63 -100 63c-52 0 -106 -49 -106 -157c0 -110 46 -157 108 -157zM351 578c-5 -22 -21 -36 -44 -36c-43 0 -121 83 -172 113c2 24 14 44 50 44c48 0 136 -106 166 -121z" />
    <glyph glyph-name="aacute" unicode="&#xe1;" horiz-adv-x="568" 
d="M462 0c-35 0 -66 14 -81 45c-37 -35 -82 -55 -138 -55c-95 0 -197 70 -197 254c0 181 97 256 196 256c61 0 99 -25 124 -56v18c0 21 23 31 45 31c23 0 46 -6 61 -13v-367c0 -25 11 -33 40 -33h20c4 -10 7 -18 7 -34c0 -25 -25 -46 -77 -46zM266 88c43 0 74 15 98 34v217
c-23 34 -51 63 -100 63c-52 0 -106 -49 -106 -157c0 -110 46 -157 108 -157zM208 580c30 15 118 121 166 121c35 0 48 -20 49 -44c-50 -30 -128 -112 -171 -112c-23 0 -40 13 -44 35z" />
    <glyph glyph-name="acircumflex" unicode="&#xe2;" horiz-adv-x="568" 
d="M462 0c-35 0 -66 14 -81 45c-37 -35 -82 -55 -138 -55c-95 0 -197 70 -197 254c0 181 97 256 196 256c61 0 99 -25 124 -56v18c0 21 23 31 45 31c23 0 46 -6 61 -13v-367c0 -25 11 -33 40 -33h20c4 -10 7 -18 7 -34c0 -25 -25 -46 -77 -46zM266 88c43 0 74 15 98 34v217
c-23 34 -51 63 -100 63c-52 0 -106 -49 -106 -157c0 -110 46 -157 108 -157zM441 582c-3 -17 -13 -28 -26 -33c-7 -3 -15 -3 -22 -2c-33 4 -78 43 -120 74c-41 -31 -87 -70 -118 -74c-8 -1 -16 -1 -22 2c-14 5 -24 16 -27 33c30 14 117 120 165 120c50 0 135 -104 170 -120z
" />
    <glyph glyph-name="atilde" unicode="&#xe3;" horiz-adv-x="568" 
d="M462 0c-35 0 -66 14 -81 45c-37 -35 -82 -55 -138 -55c-95 0 -197 70 -197 254c0 181 97 256 196 256c61 0 99 -25 124 -56v18c0 21 23 31 45 31c23 0 46 -6 61 -13v-367c0 -25 11 -33 40 -33h20c4 -10 7 -18 7 -34c0 -25 -25 -46 -77 -46zM266 88c43 0 74 15 98 34v217
c-23 34 -51 63 -100 63c-52 0 -106 -49 -106 -157c0 -110 46 -157 108 -157zM194 682c65 0 109 -39 154 -39s58 36 63 43c10 -5 23 -30 23 -51c0 -31 -20 -70 -78 -70c-68 0 -107 37 -162 37c-34 0 -53 -31 -56 -44c-18 5 -23 29 -23 48c0 26 18 76 79 76z" />
    <glyph glyph-name="adieresis" unicode="&#xe4;" horiz-adv-x="568" 
d="M462 0c-35 0 -66 14 -81 45c-37 -35 -82 -55 -138 -55c-95 0 -197 70 -197 254c0 181 97 256 196 256c61 0 99 -25 124 -56v18c0 21 23 31 45 31c23 0 46 -6 61 -13v-367c0 -25 11 -33 40 -33h20c4 -10 7 -18 7 -34c0 -25 -25 -46 -77 -46zM266 88c43 0 74 15 98 34v217
c-23 34 -51 63 -100 63c-52 0 -106 -49 -106 -157c0 -110 46 -157 108 -157zM112 623c0 38 18 58 58 58c38 0 58 -20 58 -58c0 -40 -20 -58 -58 -58c-39 0 -58 19 -58 58zM319 623c0 38 18 58 58 58c38 0 58 -20 58 -58c0 -40 -20 -58 -58 -58c-39 0 -58 19 -58 58z" />
    <glyph glyph-name="aring" unicode="&#xe5;" horiz-adv-x="568" 
d="M462 0c-35 0 -66 14 -81 45c-37 -35 -82 -55 -138 -55c-95 0 -197 70 -197 254c0 181 97 256 196 256c61 0 99 -25 124 -56v18c0 21 23 31 45 31c23 0 46 -6 61 -13v-367c0 -25 11 -33 40 -33h20c4 -10 7 -18 7 -34c0 -25 -25 -46 -77 -46zM266 88c43 0 74 15 98 34v217
c-23 34 -51 63 -100 63c-52 0 -106 -49 -106 -157c0 -110 46 -157 108 -157zM181 633c0 61 30 91 91 91c60 0 90 -32 90 -91s-30 -91 -90 -91c-61 0 -91 32 -91 91zM230 633c0 -26 14 -41 42 -41c27 0 41 15 41 41s-14 42 -41 42c-28 0 -42 -14 -42 -42z" />
    <glyph glyph-name="ae" unicode="&#xe6;" horiz-adv-x="776" 
d="M82 373c-8 12 -16 28 -16 45c0 61 100 82 169 82c67 0 128 -19 152 -72c41 47 99 72 159 72c123 0 190 -90 190 -216c0 -23 -2 -46 -8 -63h-301c7 -87 53 -137 129 -137c60 0 115 19 152 43c10 -8 20 -22 20 -44c0 -50 -68 -93 -187 -93c-79 0 -141 35 -178 95
c-55 -53 -131 -95 -200 -95c-90 0 -137 62 -137 155c0 71 36 124 109 139c52 11 123 9 184 12c-4 83 -33 109 -95 109c-56 0 -112 -16 -142 -32zM181 82c50 0 97 24 151 71c-7 21 -10 45 -10 68l-140 -15c-43 -5 -60 -27 -60 -61c0 -33 20 -63 59 -63zM545 406
c-54 0 -101 -38 -117 -112h209c0 68 -29 112 -92 112z" />
    <glyph glyph-name="ccedilla" unicode="&#xe7;" horiz-adv-x="464" 
d="M313 -113c0 29 -39 38 -66 39c-5 4 -8 13 -8 22v45c-118 16 -193 110 -193 249c0 193 125 258 231 258c68 0 99 -15 125 -32c16 -11 27 -26 27 -49c0 -15 -10 -36 -26 -52c-46 21 -70 35 -124 35c-64 0 -121 -47 -121 -161c0 -99 51 -153 126 -153c59 0 105 19 133 36
c8 -9 15 -24 15 -45c0 -26 -13 -47 -34 -60c-16 -10 -49 -25 -99 -28l-2 -24c53 -9 74 -37 74 -85c0 -51 -33 -85 -95 -85c-58 0 -86 26 -86 49c0 17 10 28 19 33c13 -13 38 -26 63 -26c28 0 41 13 41 34z" />
    <glyph glyph-name="egrave" unicode="&#xe8;" horiz-adv-x="507" 
d="M459 221h-302c18 -87 50 -136 131 -136c64 0 124 23 150 42c10 -8 20 -22 20 -44c0 -50 -73 -93 -187 -93c-143 0 -225 104 -225 256c0 167 104 254 226 254c123 0 195 -90 195 -216c0 -23 -3 -46 -8 -63zM272 406c-55 0 -99 -38 -113 -112h209c0 68 -33 112 -96 112z
M334 578c-5 -22 -21 -36 -44 -36c-43 0 -121 83 -172 113c2 24 14 44 50 44c48 0 136 -106 166 -121z" />
    <glyph glyph-name="eacute" unicode="&#xe9;" horiz-adv-x="507" 
d="M459 221h-302c18 -87 50 -136 131 -136c64 0 124 23 150 42c10 -8 20 -22 20 -44c0 -50 -73 -93 -187 -93c-143 0 -225 104 -225 256c0 167 104 254 226 254c123 0 195 -90 195 -216c0 -23 -3 -46 -8 -63zM272 406c-55 0 -99 -38 -113 -112h209c0 68 -33 112 -96 112z
M201 580c30 15 118 121 166 121c35 0 48 -20 49 -44c-50 -30 -128 -112 -171 -112c-23 0 -40 13 -44 35z" />
    <glyph glyph-name="ecircumflex" unicode="&#xea;" horiz-adv-x="507" 
d="M459 221h-302c18 -87 50 -136 131 -136c64 0 124 23 150 42c10 -8 20 -22 20 -44c0 -50 -73 -93 -187 -93c-143 0 -225 104 -225 256c0 167 104 254 226 254c123 0 195 -90 195 -216c0 -23 -3 -46 -8 -63zM272 406c-55 0 -99 -38 -113 -112h209c0 68 -33 112 -96 112z
M434 582c-3 -17 -13 -28 -26 -33c-7 -3 -15 -3 -22 -2c-33 4 -78 43 -120 74c-41 -31 -87 -70 -118 -74c-8 -1 -16 -1 -22 2c-14 5 -24 16 -27 33c30 14 117 120 165 120c50 0 135 -104 170 -120z" />
    <glyph glyph-name="edieresis" unicode="&#xeb;" horiz-adv-x="507" 
d="M459 221h-302c18 -87 50 -136 131 -136c64 0 124 23 150 42c10 -8 20 -22 20 -44c0 -50 -73 -93 -187 -93c-143 0 -225 104 -225 256c0 167 104 254 226 254c123 0 195 -90 195 -216c0 -23 -3 -46 -8 -63zM272 406c-55 0 -99 -38 -113 -112h209c0 68 -33 112 -96 112z
M107 623c0 38 18 58 58 58c38 0 58 -20 58 -58c0 -40 -20 -58 -58 -58c-39 0 -58 19 -58 58zM314 623c0 38 18 58 58 58c38 0 58 -20 58 -58c0 -40 -20 -58 -58 -58c-39 0 -58 19 -58 58z" />
    <glyph glyph-name="igrave" unicode="&#xec;" horiz-adv-x="295" 
d="M113 490c49 0 89 -16 89 -96v-284c0 -20 9 -28 23 -28h30c5 -8 7 -17 7 -33c0 -30 -24 -49 -86 -49c-52 0 -82 21 -82 88v276c0 23 -11 30 -25 30h-29c-4 9 -6 21 -6 39c0 41 31 57 79 57zM212 578c-5 -22 -21 -36 -44 -36c-43 0 -121 83 -172 113c2 24 14 44 50 44
c48 0 136 -106 166 -121z" />
    <glyph glyph-name="iacute" unicode="&#xed;" horiz-adv-x="295" 
d="M113 490c49 0 89 -16 89 -96v-284c0 -20 9 -28 23 -28h30c5 -8 7 -17 7 -33c0 -30 -24 -49 -86 -49c-52 0 -82 21 -82 88v276c0 23 -11 30 -25 30h-29c-4 9 -6 21 -6 39c0 41 31 57 79 57zM50 580c30 15 118 121 166 121c35 0 48 -20 49 -44c-50 -30 -128 -112 -171 -112
c-23 0 -40 13 -44 35z" />
    <glyph glyph-name="icircumflex" unicode="&#xee;" horiz-adv-x="295" 
d="M113 490c49 0 89 -16 89 -96v-284c0 -20 9 -28 23 -28h30c5 -8 7 -17 7 -33c0 -30 -24 -49 -86 -49c-52 0 -82 21 -82 88v276c0 23 -11 30 -25 30h-29c-4 9 -6 21 -6 39c0 41 31 57 79 57zM305 582c-3 -17 -13 -28 -26 -33c-7 -3 -15 -3 -22 -2c-33 4 -78 43 -120 74
c-41 -31 -87 -70 -118 -74c-8 -1 -16 -1 -22 2c-14 5 -24 16 -27 33c30 14 117 120 165 120c50 0 135 -104 170 -120z" />
    <glyph glyph-name="idieresis" unicode="&#xef;" horiz-adv-x="295" 
d="M113 490c49 0 89 -16 89 -96v-284c0 -20 9 -28 23 -28h30c5 -8 7 -17 7 -33c0 -30 -24 -49 -86 -49c-52 0 -82 21 -82 88v276c0 23 -11 30 -25 30h-29c-4 9 -6 21 -6 39c0 41 31 57 79 57zM-30 623c0 38 18 58 58 58c38 0 58 -20 58 -58c0 -40 -20 -58 -58 -58
c-39 0 -58 19 -58 58zM177 623c0 38 18 58 58 58c38 0 58 -20 58 -58c0 -40 -20 -58 -58 -58c-39 0 -58 19 -58 58z" />
    <glyph glyph-name="eth" unicode="&#xf0;" horiz-adv-x="533" 
d="M437 574l-22 -6c41 -82 75 -185 75 -293c0 -211 -94 -279 -225 -279c-130 0 -226 68 -226 250c0 178 98 236 199 236c42 0 78 -11 106 -27c-12 32 -28 63 -44 89l-98 -22c-13 11 -17 26 -17 46c0 16 8 26 44 36l28 8c-15 19 -29 34 -42 45c18 35 46 57 78 57
c33 0 56 -35 84 -78l85 21c11 -5 18 -19 18 -34c0 -19 -4 -38 -43 -49zM378 274c0 27 -3 52 -8 78c-32 28 -74 40 -114 40c-56 0 -106 -37 -106 -148c0 -115 50 -154 115 -154c69 0 113 40 113 184z" />
    <glyph glyph-name="ntilde" unicode="&#xf1;" horiz-adv-x="596" 
d="M110 490c53 0 90 -28 90 -80v-5c46 60 100 94 173 94c76 0 133 -51 133 -161v-238c0 -16 7 -26 20 -26h37c3 -5 4 -10 4 -23c0 -33 -28 -51 -92 -51c-57 0 -77 25 -77 96v214c0 59 -20 92 -67 92c-50 0 -92 -36 -126 -83v-308c-13 -8 -28 -11 -57 -11
c-28 0 -51 12 -51 55v309c0 21 -9 30 -26 30h-34c-5 11 -10 22 -10 38c0 37 22 58 83 58zM232 677c65 0 109 -39 154 -39s58 36 63 43c10 -5 23 -30 23 -51c0 -31 -20 -70 -78 -70c-68 0 -107 37 -162 37c-34 0 -53 -31 -56 -44c-18 5 -23 29 -23 48c0 26 18 76 79 76z" />
    <glyph glyph-name="ograve" unicode="&#xf2;" horiz-adv-x="551" 
d="M46 244c0 178 100 256 232 256c134 0 227 -78 227 -256c0 -184 -98 -254 -230 -254s-229 73 -229 254zM158 242c0 -115 51 -154 117 -154c69 0 119 38 119 154c0 112 -48 160 -116 160s-120 -49 -120 -160zM347 578c-5 -22 -21 -36 -44 -36c-43 0 -121 83 -172 113
c2 24 14 44 50 44c48 0 136 -106 166 -121z" />
    <glyph glyph-name="oacute" unicode="&#xf3;" horiz-adv-x="551" 
d="M46 244c0 178 100 256 232 256c134 0 227 -78 227 -256c0 -184 -98 -254 -230 -254s-229 73 -229 254zM158 242c0 -115 51 -154 117 -154c69 0 119 38 119 154c0 112 -48 160 -116 160s-120 -49 -120 -160zM201 580c30 15 118 121 166 121c35 0 48 -20 49 -44
c-50 -30 -128 -112 -171 -112c-23 0 -40 13 -44 35z" />
    <glyph glyph-name="ocircumflex" unicode="&#xf4;" horiz-adv-x="551" 
d="M46 244c0 178 100 256 232 256c134 0 227 -78 227 -256c0 -184 -98 -254 -230 -254s-229 73 -229 254zM158 242c0 -115 51 -154 117 -154c69 0 119 38 119 154c0 112 -48 160 -116 160s-120 -49 -120 -160zM446 582c-3 -17 -13 -28 -26 -33c-7 -3 -15 -3 -22 -2
c-33 4 -78 43 -120 74c-41 -31 -87 -70 -118 -74c-8 -1 -16 -1 -22 2c-14 5 -24 16 -27 33c30 14 117 120 165 120c50 0 135 -104 170 -120z" />
    <glyph glyph-name="otilde" unicode="&#xf5;" horiz-adv-x="551" 
d="M46 244c0 178 100 256 232 256c134 0 227 -78 227 -256c0 -184 -98 -254 -230 -254s-229 73 -229 254zM158 242c0 -115 51 -154 117 -154c69 0 119 38 119 154c0 112 -48 160 -116 160s-120 -49 -120 -160zM198 682c65 0 109 -39 154 -39s58 36 63 43
c10 -5 23 -30 23 -51c0 -31 -20 -70 -78 -70c-68 0 -107 37 -162 37c-34 0 -53 -31 -56 -44c-18 5 -23 29 -23 48c0 26 18 76 79 76z" />
    <glyph glyph-name="odieresis" unicode="&#xf6;" horiz-adv-x="551" 
d="M46 244c0 178 100 256 232 256c134 0 227 -78 227 -256c0 -184 -98 -254 -230 -254s-229 73 -229 254zM158 242c0 -115 51 -154 117 -154c69 0 119 38 119 154c0 112 -48 160 -116 160s-120 -49 -120 -160zM114 623c0 38 18 58 58 58c38 0 58 -20 58 -58
c0 -40 -20 -58 -58 -58c-39 0 -58 19 -58 58zM321 623c0 38 18 58 58 58c38 0 58 -20 58 -58c0 -40 -20 -58 -58 -58c-39 0 -58 19 -58 58z" />
    <glyph glyph-name="divide" unicode="&#xf7;" horiz-adv-x="512" 
d="M198 66c0 39 18 58 58 58c38 0 58 -19 58 -58s-20 -58 -58 -58c-39 0 -58 20 -58 58zM198 434c0 39 18 58 58 58c38 0 58 -19 58 -58s-20 -58 -58 -58c-39 0 -58 19 -58 58zM413 202h-351c-7 14 -12 28 -12 54s12 49 44 49h358c7 -12 10 -31 10 -50c0 -25 -8 -53 -49 -53
z" />
    <glyph glyph-name="oslash" unicode="&#xf8;" horiz-adv-x="551" 
d="M46 243c0 178 99 257 231 257c19 0 37 -2 54 -5c13 39 25 78 39 117c9 3 19 5 29 5c16 0 26 -5 26 -17c0 -28 -25 -87 -38 -123c73 -34 118 -110 118 -234c0 -183 -98 -253 -230 -253c-18 0 -35 2 -51 5l-31 -94c-10 -6 -16 -7 -32 -7c-14 0 -23 6 -23 17
c0 27 18 67 29 99c-74 33 -121 107 -121 233zM158 242c0 -67 16 -105 44 -130l96 288c-4 1 -10 2 -14 2c-73 0 -126 -46 -126 -160zM394 242c0 62 -15 108 -43 133l-94 -286c3 0 7 -1 10 -1c73 0 127 33 127 154z" />
    <glyph glyph-name="ugrave" unicode="&#xf9;" horiz-adv-x="592" 
d="M468 0c-39 0 -60 17 -76 77c-44 -54 -100 -87 -168 -87c-73 0 -132 42 -132 159v217c0 21 -8 28 -23 28h-44c-4 12 -5 20 -5 38c0 40 38 58 95 58c69 0 85 -26 85 -95v-224c0 -59 23 -83 62 -83c55 0 94 36 125 88v302c15 7 35 11 60 11c35 0 48 -14 48 -41v-330
c0 -23 10 -30 24 -30h36c2 -6 3 -12 3 -30c0 -36 -22 -58 -90 -58zM345 578c-5 -22 -21 -36 -44 -36c-43 0 -121 83 -172 113c2 24 14 44 50 44c48 0 136 -106 166 -121z" />
    <glyph glyph-name="uacute" unicode="&#xfa;" horiz-adv-x="592" 
d="M468 0c-39 0 -60 17 -76 77c-44 -54 -100 -87 -168 -87c-73 0 -132 42 -132 159v217c0 21 -8 28 -23 28h-44c-4 12 -5 20 -5 38c0 40 38 58 95 58c69 0 85 -26 85 -95v-224c0 -59 23 -83 62 -83c55 0 94 36 125 88v302c15 7 35 11 60 11c35 0 48 -14 48 -41v-330
c0 -23 10 -30 24 -30h36c2 -6 3 -12 3 -30c0 -36 -22 -58 -90 -58zM228 580c30 15 118 121 166 121c35 0 48 -20 49 -44c-50 -30 -128 -112 -171 -112c-23 0 -40 13 -44 35z" />
    <glyph glyph-name="ucircumflex" unicode="&#xfb;" horiz-adv-x="592" 
d="M468 0c-39 0 -60 17 -76 77c-44 -54 -100 -87 -168 -87c-73 0 -132 42 -132 159v217c0 21 -8 28 -23 28h-44c-4 12 -5 20 -5 38c0 40 38 58 95 58c69 0 85 -26 85 -95v-224c0 -59 23 -83 62 -83c55 0 94 36 125 88v302c15 7 35 11 60 11c35 0 48 -14 48 -41v-330
c0 -23 10 -30 24 -30h36c2 -6 3 -12 3 -30c0 -36 -22 -58 -90 -58zM457 582c-3 -17 -13 -28 -26 -33c-7 -3 -15 -3 -22 -2c-33 4 -78 43 -120 74c-41 -31 -87 -70 -118 -74c-8 -1 -16 -1 -22 2c-14 5 -24 16 -27 33c30 14 117 120 165 120c50 0 135 -104 170 -120z" />
    <glyph glyph-name="udieresis" unicode="&#xfc;" horiz-adv-x="592" 
d="M468 0c-39 0 -60 17 -76 77c-44 -54 -100 -87 -168 -87c-73 0 -132 42 -132 159v217c0 21 -8 28 -23 28h-44c-4 12 -5 20 -5 38c0 40 38 58 95 58c69 0 85 -26 85 -95v-224c0 -59 23 -83 62 -83c55 0 94 36 125 88v302c15 7 35 11 60 11c35 0 48 -14 48 -41v-330
c0 -23 10 -30 24 -30h36c2 -6 3 -12 3 -30c0 -36 -22 -58 -90 -58zM131 623c0 38 18 58 58 58c38 0 58 -20 58 -58c0 -40 -20 -58 -58 -58c-39 0 -58 19 -58 58zM338 623c0 38 18 58 58 58c38 0 58 -20 58 -58c0 -40 -20 -58 -58 -58c-39 0 -58 19 -58 58z" />
    <glyph glyph-name="yacute" unicode="&#xfd;" horiz-adv-x="534" 
d="M28 -120h50c74 0 117 58 166 140c-31 4 -50 37 -63 72l-110 290c-7 17 -13 24 -26 24h-37c-4 9 -6 22 -6 33c0 31 24 51 82 51s81 -44 100 -98l90 -256c5 -13 9 -20 18 -23c51 102 99 215 99 264c0 18 -8 29 -24 29h-35c-3 7 -6 20 -6 33c0 30 29 51 77 51
c69 0 95 -33 95 -86c0 -88 -89 -281 -161 -412c-77 -139 -150 -201 -240 -201c-65 0 -77 26 -77 54c0 10 2 20 8 35zM208 580c30 15 118 121 166 121c35 0 48 -20 49 -44c-50 -30 -128 -112 -171 -112c-23 0 -40 13 -44 35z" />
    <glyph glyph-name="thorn" unicode="&#xfe;" horiz-adv-x="554" 
d="M130 -209c-27 0 -52 11 -52 56v843c16 6 28 10 56 10s52 -11 52 -52v-222c38 44 88 74 142 74c96 0 180 -65 180 -247c0 -175 -85 -263 -198 -263c-53 0 -93 21 -124 49v-236c-16 -8 -27 -12 -56 -12zM186 144c19 -23 61 -56 106 -56c66 0 104 56 104 154
c0 117 -46 160 -102 160c-42 0 -79 -26 -108 -68v-190z" />
    <glyph glyph-name="ydieresis" unicode="&#xff;" horiz-adv-x="534" 
d="M28 -120h50c74 0 117 58 166 140c-31 4 -50 37 -63 72l-110 290c-7 17 -13 24 -26 24h-37c-4 9 -6 22 -6 33c0 31 24 51 82 51s81 -44 100 -98l90 -256c5 -13 9 -20 18 -23c51 102 99 215 99 264c0 18 -8 29 -24 29h-35c-3 7 -6 20 -6 33c0 30 29 51 77 51
c69 0 95 -33 95 -86c0 -88 -89 -281 -161 -412c-77 -139 -150 -201 -240 -201c-65 0 -77 26 -77 54c0 10 2 20 8 35zM114 623c0 38 18 58 58 58c38 0 58 -20 58 -58c0 -40 -20 -58 -58 -58c-39 0 -58 19 -58 58zM321 623c0 38 18 58 58 58c38 0 58 -20 58 -58
c0 -40 -20 -58 -58 -58c-39 0 -58 19 -58 58z" />
    <glyph glyph-name="Amacron" unicode="&#x100;" horiz-adv-x="627" 
d="M59 0c-28 0 -44 5 -54 15l246 668c16 9 31 17 66 17c32 0 51 -16 60 -39l245 -637c-10 -20 -35 -24 -56 -24c-30 0 -51 12 -64 45l-41 108h-297l-43 -117c-10 -27 -27 -36 -62 -36zM308 562l-112 -316h229zM420 785h-264c-6 11 -12 20 -12 36c0 26 6 45 59 45h268
c6 -6 11 -15 11 -31c0 -20 -10 -50 -62 -50z" />
    <glyph glyph-name="amacron" unicode="&#x101;" horiz-adv-x="568" 
d="M462 0c-35 0 -66 14 -81 45c-37 -35 -82 -55 -138 -55c-95 0 -197 70 -197 254c0 181 97 256 196 256c61 0 99 -25 124 -56v18c0 21 23 31 45 31c23 0 46 -6 61 -13v-367c0 -25 11 -33 40 -33h20c4 -10 7 -18 7 -34c0 -25 -25 -46 -77 -46zM266 88c43 0 74 15 98 34v217
c-23 34 -51 63 -100 63c-52 0 -106 -49 -106 -157c0 -110 46 -157 108 -157zM382 570h-264c-6 11 -12 20 -12 36c0 26 6 45 59 45h268c6 -6 11 -15 11 -31c0 -20 -10 -50 -62 -50z" />
    <glyph glyph-name="Abreve" unicode="&#x102;" horiz-adv-x="627" 
d="M59 0c-28 0 -44 5 -54 15l246 668c16 9 31 17 66 17c32 0 51 -16 60 -39l245 -637c-10 -20 -35 -24 -56 -24c-30 0 -51 12 -64 45l-41 108h-297l-43 -117c-10 -27 -27 -36 -62 -36zM308 562l-112 -316h229zM233 899c1 -16 7 -32 19 -45c13 -13 33 -21 62 -21
c27 0 46 6 59 19s19 31 21 44c8 7 23 10 41 9c26 -1 35 -17 31 -35c-7 -28 -19 -53 -44 -74c-23 -21 -60 -31 -107 -31c-49 0 -85 11 -111 31c-26 21 -40 50 -43 79c-2 18 7 29 29 31c18 1 32 -2 43 -7z" />
    <glyph glyph-name="abreve" unicode="&#x103;" horiz-adv-x="568" 
d="M462 0c-35 0 -66 14 -81 45c-37 -35 -82 -55 -138 -55c-95 0 -197 70 -197 254c0 181 97 256 196 256c61 0 99 -25 124 -56v18c0 21 23 31 45 31c23 0 46 -6 61 -13v-367c0 -25 11 -33 40 -33h20c4 -10 7 -18 7 -34c0 -25 -25 -46 -77 -46zM266 88c43 0 74 15 98 34v217
c-23 34 -51 63 -100 63c-52 0 -106 -49 -106 -157c0 -110 46 -157 108 -157zM195 684c1 -16 7 -32 19 -45c13 -13 33 -21 62 -21c27 0 46 6 59 19s19 31 21 44c8 7 23 10 41 9c26 -1 35 -17 31 -35c-7 -28 -19 -53 -44 -74c-23 -21 -60 -31 -107 -31c-49 0 -85 11 -111 31
c-26 21 -40 50 -43 79c-2 18 7 29 29 31c18 1 32 -2 43 -7z" />
    <glyph glyph-name="Aogonek" unicode="&#x104;" horiz-adv-x="627" 
d="M59 0c-28 0 -44 5 -54 15l246 668c16 9 31 17 66 17c32 0 51 -16 60 -39l245 -637c-5 -10 -13 -16 -23 -19c-23 -32 -47 -65 -47 -92c0 -30 18 -39 51 -39c5 -9 7 -16 7 -27c0 -13 -4 -31 -42 -31c-42 0 -80 27 -80 80c0 45 22 84 43 111c-12 7 -22 19 -29 38l-41 108
h-297l-43 -117c-10 -27 -27 -36 -62 -36zM308 562l-112 -316h229z" />
    <glyph glyph-name="aogonek" unicode="&#x105;" horiz-adv-x="568" 
d="M539 46c0 -12 -6 -23 -17 -31c-24 -33 -49 -67 -49 -94c0 -30 18 -39 51 -39c5 -9 7 -16 7 -27c0 -13 -4 -31 -42 -31c-42 0 -80 27 -80 80c0 38 15 72 33 97c-27 5 -49 19 -61 44c-37 -35 -82 -55 -138 -55c-95 0 -197 70 -197 254c0 181 97 256 196 256
c61 0 99 -25 124 -56v18c0 21 23 31 45 31c23 0 46 -6 61 -13v-367c0 -25 11 -33 40 -33h20c4 -10 7 -18 7 -34zM266 88c43 0 74 15 98 34v217c-23 34 -51 63 -100 63c-52 0 -106 -49 -106 -157c0 -110 46 -157 108 -157z" />
    <glyph glyph-name="Cacute" unicode="&#x106;" horiz-adv-x="627" 
d="M552 164c20 0 45 -13 45 -46c0 -26 -11 -43 -40 -66c-19 -15 -82 -62 -203 -62c-173 0 -302 105 -302 359c0 251 126 361 297 361c184 0 236 -82 236 -125c0 -25 -14 -47 -34 -55c-42 42 -101 77 -198 77c-107 0 -187 -75 -187 -260c0 -192 82 -254 194 -254
c80 0 149 26 192 71zM273 795c30 15 118 121 166 121c35 0 48 -20 49 -44c-50 -30 -128 -112 -171 -112c-23 0 -40 13 -44 35z" />
    <glyph glyph-name="cacute" unicode="&#x107;" horiz-adv-x="464" 
d="M429 419c0 -15 -10 -36 -26 -52c-46 21 -70 35 -124 35c-64 0 -121 -47 -121 -161c0 -99 51 -153 126 -153c59 0 105 19 133 36c8 -9 15 -24 15 -45c0 -26 -13 -47 -34 -60c-18 -11 -59 -29 -121 -29c-139 0 -231 99 -231 252c0 193 125 258 231 258c68 0 99 -15 125 -32
c16 -11 27 -26 27 -49zM191 580c30 15 118 121 166 121c35 0 48 -20 49 -44c-50 -30 -128 -112 -171 -112c-23 0 -40 13 -44 35z" />
    <glyph glyph-name="Ccircumflex" unicode="&#x108;" horiz-adv-x="627" 
d="M552 164c20 0 45 -13 45 -46c0 -26 -11 -43 -40 -66c-19 -15 -82 -62 -203 -62c-173 0 -302 105 -302 359c0 251 126 361 297 361c184 0 236 -82 236 -125c0 -25 -14 -47 -34 -55c-42 42 -101 77 -198 77c-107 0 -187 -75 -187 -260c0 -192 82 -254 194 -254
c80 0 149 26 192 71zM519 797c-3 -17 -13 -28 -26 -33c-7 -3 -15 -3 -22 -2c-33 4 -78 43 -120 74c-41 -31 -87 -70 -118 -74c-8 -1 -16 -1 -22 2c-14 5 -24 16 -27 33c30 14 117 120 165 120c50 0 135 -104 170 -120z" />
    <glyph glyph-name="ccircumflex" unicode="&#x109;" horiz-adv-x="464" 
d="M429 419c0 -15 -10 -36 -26 -52c-46 21 -70 35 -124 35c-64 0 -121 -47 -121 -161c0 -99 51 -153 126 -153c59 0 105 19 133 36c8 -9 15 -24 15 -45c0 -26 -13 -47 -34 -60c-18 -11 -59 -29 -121 -29c-139 0 -231 99 -231 252c0 193 125 258 231 258c68 0 99 -15 125 -32
c16 -11 27 -26 27 -49zM431 582c-3 -17 -13 -28 -26 -33c-7 -3 -15 -3 -22 -2c-33 4 -78 43 -120 74c-41 -31 -87 -70 -118 -74c-8 -1 -16 -1 -22 2c-14 5 -24 16 -27 33c30 14 117 120 165 120c50 0 135 -104 170 -120z" />
    <glyph glyph-name="Cdotaccent" unicode="&#x10a;" horiz-adv-x="627" 
d="M552 164c20 0 45 -13 45 -46c0 -26 -11 -43 -40 -66c-19 -15 -82 -62 -203 -62c-173 0 -302 105 -302 359c0 251 126 361 297 361c184 0 236 -82 236 -125c0 -25 -14 -47 -34 -55c-42 42 -101 77 -198 77c-107 0 -187 -75 -187 -260c0 -192 82 -254 194 -254
c80 0 149 26 192 71zM294 840c0 39 19 58 58 58c38 0 58 -19 58 -58s-20 -58 -58 -58c-39 0 -58 20 -58 58z" />
    <glyph glyph-name="cdotaccent" unicode="&#x10b;" horiz-adv-x="464" 
d="M429 419c0 -15 -10 -36 -26 -52c-46 21 -70 35 -124 35c-64 0 -121 -47 -121 -161c0 -99 51 -153 126 -153c59 0 105 19 133 36c8 -9 15 -24 15 -45c0 -26 -13 -47 -34 -60c-18 -11 -59 -29 -121 -29c-139 0 -231 99 -231 252c0 193 125 258 231 258c68 0 99 -15 125 -32
c16 -11 27 -26 27 -49zM207 625c0 39 19 58 58 58c38 0 58 -19 58 -58s-20 -58 -58 -58c-39 0 -58 20 -58 58z" />
    <glyph glyph-name="Ccaron" unicode="&#x10c;" horiz-adv-x="627" 
d="M552 164c20 0 45 -13 45 -46c0 -26 -11 -43 -40 -66c-19 -15 -82 -62 -203 -62c-173 0 -302 105 -302 359c0 251 126 361 297 361c184 0 236 -82 236 -125c0 -25 -14 -47 -34 -55c-42 42 -101 77 -198 77c-107 0 -187 -75 -187 -260c0 -192 82 -254 194 -254
c80 0 149 26 192 71zM351 761c-11 0 -17 3 -21 6c-44 18 -107 82 -150 107c2 24 25 44 50 44c31 0 83 -48 122 -83c39 35 91 83 122 83c24 0 48 -20 50 -44c-43 -25 -105 -88 -150 -107c-4 -2 -10 -6 -23 -6z" />
    <glyph glyph-name="ccaron" unicode="&#x10d;" horiz-adv-x="464" 
d="M429 419c0 -15 -10 -36 -26 -52c-46 21 -70 35 -124 35c-64 0 -121 -47 -121 -161c0 -99 51 -153 126 -153c59 0 105 19 133 36c8 -9 15 -24 15 -45c0 -26 -13 -47 -34 -60c-18 -11 -59 -29 -121 -29c-139 0 -231 99 -231 252c0 193 125 258 231 258c68 0 99 -15 125 -32
c16 -11 27 -26 27 -49zM263 546c-11 0 -17 3 -21 6c-44 18 -107 82 -150 107c2 24 25 44 50 44c31 0 83 -48 122 -83c39 35 91 83 122 83c24 0 48 -20 50 -44c-43 -25 -105 -88 -150 -107c-4 -2 -10 -6 -23 -6z" />
    <glyph glyph-name="Dcaron" unicode="&#x10e;" horiz-adv-x="687" 
d="M148 700h139c224 0 348 -104 348 -358c0 -249 -130 -342 -328 -342h-159c-29 0 -55 6 -55 51v639c10 6 28 10 55 10zM288 599h-85v-498h100c142 0 219 65 219 238c0 184 -82 260 -234 260zM314 755c-11 0 -17 3 -21 6c-44 18 -107 82 -150 107c2 24 25 44 50 44
c31 0 83 -48 122 -83c39 35 91 83 122 83c24 0 48 -20 50 -44c-43 -25 -105 -88 -150 -107c-4 -2 -10 -6 -23 -6z" />
    <glyph glyph-name="dcaron" unicode="&#x10f;" horiz-adv-x="599" 
d="M467 0c-34 0 -71 14 -86 45c-39 -35 -84 -55 -142 -55c-97 0 -193 71 -193 250c0 181 103 260 204 260c50 0 85 -15 114 -39v201c0 24 15 38 43 38c30 0 55 -7 64 -14v-573c0 -25 11 -33 41 -33h19c5 -11 8 -18 8 -34c0 -25 -20 -46 -72 -46zM261 88c45 0 78 15 103 34
v231c-26 30 -53 49 -98 49c-62 0 -109 -55 -109 -158c0 -105 39 -156 104 -156zM573 593c-35 0 -51 18 -51 53c0 36 17 54 53 54c35 0 57 -19 57 -78c0 -86 -27 -127 -58 -127c-20 0 -28 5 -31 20c20 16 30 61 30 78z" />
    <glyph glyph-name="Dcroat" unicode="&#x110;" horiz-adv-x="687" 
d="M148 700h139c224 0 348 -104 348 -358c0 -249 -130 -342 -328 -342h-159c-29 0 -55 6 -55 51v238h-72c-7 15 -13 27 -13 51c0 31 13 53 53 53h32v297c10 6 28 10 55 10zM288 599h-85v-206h150c6 -9 11 -26 11 -49c0 -33 -13 -55 -56 -55h-105v-188h100
c142 0 219 65 219 238c0 184 -82 260 -234 260z" />
    <glyph glyph-name="dcroat" unicode="&#x111;" horiz-adv-x="568" 
d="M467 0c-34 0 -71 14 -86 45c-39 -35 -84 -55 -142 -55c-97 0 -193 71 -193 250c0 181 103 260 204 260c50 0 85 -15 114 -39v91h-134c-5 13 -9 22 -9 42c0 21 9 36 29 36h114v32c0 24 15 38 43 38c30 0 55 -7 64 -14v-56h55c6 -9 8 -23 8 -43c0 -22 -8 -35 -29 -35h-34
v-439c0 -25 11 -33 41 -33h19c5 -11 8 -18 8 -34c0 -25 -20 -46 -72 -46zM261 88c45 0 78 15 103 34v231c-26 30 -53 49 -98 49c-62 0 -109 -55 -109 -158c0 -105 39 -156 104 -156z" />
    <glyph glyph-name="Emacron" unicode="&#x112;" horiz-adv-x="579" 
d="M442 307h-239v-206h317c6 -7 12 -20 12 -43c0 -34 -13 -58 -38 -58h-353c-24 0 -48 6 -48 51v639c10 6 24 10 52 10h375c6 -8 12 -21 12 -45c0 -34 -13 -56 -38 -56h-291v-191h263c5 -8 12 -26 12 -49c0 -34 -13 -52 -36 -52zM416 779h-264c-6 11 -12 20 -12 36
c0 26 6 45 59 45h268c6 -6 11 -15 11 -31c0 -20 -10 -50 -62 -50z" />
    <glyph glyph-name="emacron" unicode="&#x113;" horiz-adv-x="507" 
d="M459 221h-302c18 -87 50 -136 131 -136c64 0 124 23 150 42c10 -8 20 -22 20 -44c0 -50 -73 -93 -187 -93c-143 0 -225 104 -225 256c0 167 104 254 226 254c123 0 195 -90 195 -216c0 -23 -3 -46 -8 -63zM272 406c-55 0 -99 -38 -113 -112h209c0 68 -33 112 -96 112z
M380 570h-264c-6 11 -12 20 -12 36c0 26 6 45 59 45h268c6 -6 11 -15 11 -31c0 -20 -10 -50 -62 -50z" />
    <glyph glyph-name="Ebreve" unicode="&#x114;" horiz-adv-x="579" 
d="M442 307h-239v-206h317c6 -7 12 -20 12 -43c0 -34 -13 -58 -38 -58h-353c-24 0 -48 6 -48 51v639c10 6 24 10 52 10h375c6 -8 12 -21 12 -45c0 -34 -13 -56 -38 -56h-291v-191h263c5 -8 12 -26 12 -49c0 -34 -13 -52 -36 -52zM227 893c1 -16 7 -32 19 -45
c13 -13 33 -21 62 -21c27 0 46 6 59 19s19 31 21 44c8 7 23 10 41 9c26 -1 35 -17 31 -35c-7 -28 -19 -53 -44 -74c-23 -21 -60 -31 -107 -31c-49 0 -85 11 -111 31c-26 21 -40 50 -43 79c-2 18 7 29 29 31c18 1 32 -2 43 -7z" />
    <glyph glyph-name="ebreve" unicode="&#x115;" horiz-adv-x="507" 
d="M459 221h-302c18 -87 50 -136 131 -136c64 0 124 23 150 42c10 -8 20 -22 20 -44c0 -50 -73 -93 -187 -93c-143 0 -225 104 -225 256c0 167 104 254 226 254c123 0 195 -90 195 -216c0 -23 -3 -46 -8 -63zM272 406c-55 0 -99 -38 -113 -112h209c0 68 -33 112 -96 112z
M193 684c1 -16 7 -32 19 -45c13 -13 33 -21 62 -21c27 0 46 6 59 19s19 31 21 44c8 7 23 10 41 9c26 -1 35 -17 31 -35c-7 -28 -19 -53 -44 -74c-23 -21 -60 -31 -107 -31c-49 0 -85 11 -111 31c-26 21 -40 50 -43 79c-2 18 7 29 29 31c18 1 32 -2 43 -7z" />
    <glyph glyph-name="Edotaccent" unicode="&#x116;" horiz-adv-x="579" 
d="M442 307h-239v-206h317c6 -7 12 -20 12 -43c0 -34 -13 -58 -38 -58h-353c-24 0 -48 6 -48 51v639c10 6 24 10 52 10h375c6 -8 12 -21 12 -45c0 -34 -13 -56 -38 -56h-291v-191h263c5 -8 12 -26 12 -49c0 -34 -13 -52 -36 -52zM260 834c0 39 19 58 58 58
c38 0 58 -19 58 -58s-20 -58 -58 -58c-39 0 -58 20 -58 58z" />
    <glyph glyph-name="edotaccent" unicode="&#x117;" horiz-adv-x="507" 
d="M459 221h-302c18 -87 50 -136 131 -136c64 0 124 23 150 42c10 -8 20 -22 20 -44c0 -50 -73 -93 -187 -93c-143 0 -225 104 -225 256c0 167 104 254 226 254c123 0 195 -90 195 -216c0 -23 -3 -46 -8 -63zM272 406c-55 0 -99 -38 -113 -112h209c0 68 -33 112 -96 112z
M217 625c0 39 19 58 58 58c38 0 58 -19 58 -58s-20 -58 -58 -58c-39 0 -58 20 -58 58z" />
    <glyph glyph-name="Eogonek" unicode="&#x118;" horiz-adv-x="579" 
d="M442 307h-239v-206h317c6 -7 12 -20 12 -43c0 -24 -7 -44 -19 -53c-24 -32 -48 -65 -48 -92c0 -30 18 -39 51 -39c5 -9 7 -16 7 -27c0 -13 -4 -31 -42 -31c-42 0 -80 27 -80 80c0 41 18 77 38 104h-298c-24 0 -48 6 -48 51v639c10 6 24 10 52 10h375c6 -8 12 -21 12 -45
c0 -34 -13 -56 -38 -56h-291v-191h263c5 -8 12 -26 12 -49c0 -34 -13 -52 -36 -52z" />
    <glyph glyph-name="eogonek" unicode="&#x119;" horiz-adv-x="507" 
d="M459 221h-302c18 -87 50 -136 131 -136c64 0 124 23 150 42c10 -8 20 -22 20 -44c0 -15 -7 -29 -18 -42h1c-24 -33 -49 -67 -49 -94c0 -30 18 -39 51 -39c5 -9 7 -16 7 -27c0 -13 -4 -31 -42 -31c-42 0 -80 27 -80 80c0 24 6 47 16 67c-22 -4 -47 -7 -73 -7
c-143 0 -225 104 -225 256c0 167 104 254 226 254c123 0 195 -90 195 -216c0 -23 -3 -46 -8 -63zM272 406c-55 0 -99 -38 -113 -112h209c0 68 -33 112 -96 112z" />
    <glyph glyph-name="Ecaron" unicode="&#x11a;" horiz-adv-x="579" 
d="M442 307h-239v-206h317c6 -7 12 -20 12 -43c0 -34 -13 -58 -38 -58h-353c-24 0 -48 6 -48 51v639c10 6 24 10 52 10h375c6 -8 12 -21 12 -45c0 -34 -13 -56 -38 -56h-291v-191h263c5 -8 12 -26 12 -49c0 -34 -13 -52 -36 -52zM306 755c-11 0 -17 3 -21 6
c-44 18 -107 82 -150 107c2 24 25 44 50 44c31 0 83 -48 122 -83c39 35 91 83 122 83c24 0 48 -20 50 -44c-43 -25 -105 -88 -150 -107c-4 -2 -10 -6 -23 -6z" />
    <glyph glyph-name="ecaron" unicode="&#x11b;" horiz-adv-x="507" 
d="M459 221h-302c18 -87 50 -136 131 -136c64 0 124 23 150 42c10 -8 20 -22 20 -44c0 -50 -73 -93 -187 -93c-143 0 -225 104 -225 256c0 167 104 254 226 254c123 0 195 -90 195 -216c0 -23 -3 -46 -8 -63zM272 406c-55 0 -99 -38 -113 -112h209c0 68 -33 112 -96 112z
M269 546c-11 0 -17 3 -21 6c-44 18 -107 82 -150 107c2 24 25 44 50 44c31 0 83 -48 122 -83c39 35 91 83 122 83c24 0 48 -20 50 -44c-43 -25 -105 -88 -150 -107c-4 -2 -10 -6 -23 -6z" />
    <glyph glyph-name="Gcircumflex" unicode="&#x11c;" horiz-adv-x="702" 
d="M539 279h-175c-7 12 -11 25 -11 45c0 24 7 50 59 50h148c57 0 77 -22 77 -84v-279c-12 -9 -27 -11 -53 -11c-24 0 -45 6 -45 42v43c-47 -57 -108 -95 -192 -95c-152 0 -295 106 -295 360c0 250 140 360 319 360c157 0 228 -63 228 -110c0 -29 -22 -50 -43 -55
c-42 35 -101 62 -179 62c-119 0 -211 -81 -211 -260c0 -191 95 -254 192 -254c72 0 140 36 181 100v86zM538 791c-3 -17 -13 -28 -26 -33c-7 -3 -15 -3 -22 -2c-33 4 -78 43 -120 74c-41 -31 -87 -70 -118 -74c-8 -1 -16 -1 -22 2c-14 5 -24 16 -27 33
c30 14 117 120 165 120c50 0 135 -104 170 -120z" />
    <glyph glyph-name="gcircumflex" unicode="&#x11d;" horiz-adv-x="570" 
d="M372 -11v48c-36 -29 -78 -47 -133 -47c-110 0 -193 83 -193 254c0 173 91 256 200 256c66 0 111 -25 142 -59c17 32 50 49 88 49c46 0 73 -17 73 -48c0 -23 -2 -36 -7 -47h-33c-19 0 -29 -9 -29 -32v-373c0 -139 -76 -199 -204 -199c-119 0 -192 35 -192 91
c0 19 5 36 18 50c36 -23 98 -43 167 -43c66 0 103 34 103 100zM263 88c48 0 81 17 109 38v217c-27 35 -59 59 -110 59c-60 0 -104 -53 -104 -158c0 -103 41 -156 105 -156zM448 582c-3 -17 -13 -28 -26 -33c-7 -3 -15 -3 -22 -2c-33 4 -78 43 -120 74
c-41 -31 -87 -70 -118 -74c-8 -1 -16 -1 -22 2c-14 5 -24 16 -27 33c30 14 117 120 165 120c50 0 135 -104 170 -120z" />
    <glyph glyph-name="Gbreve" unicode="&#x11e;" horiz-adv-x="702" 
d="M539 279h-175c-7 12 -11 25 -11 45c0 24 7 50 59 50h148c57 0 77 -22 77 -84v-279c-12 -9 -27 -11 -53 -11c-24 0 -45 6 -45 42v43c-47 -57 -108 -95 -192 -95c-152 0 -295 106 -295 360c0 250 140 360 319 360c157 0 228 -63 228 -110c0 -29 -22 -50 -43 -55
c-42 35 -101 62 -179 62c-119 0 -211 -81 -211 -260c0 -191 95 -254 192 -254c72 0 140 36 181 100v86zM281 893c1 -16 7 -32 19 -45c13 -13 33 -21 62 -21c27 0 46 6 59 19s19 31 21 44c8 7 23 10 41 9c26 -1 35 -17 31 -35c-7 -28 -19 -53 -44 -74
c-23 -21 -60 -31 -107 -31c-49 0 -85 11 -111 31c-26 21 -40 50 -43 79c-2 18 7 29 29 31c18 1 32 -2 43 -7z" />
    <glyph glyph-name="gbreve" unicode="&#x11f;" horiz-adv-x="570" 
d="M372 -11v48c-36 -29 -78 -47 -133 -47c-110 0 -193 83 -193 254c0 173 91 256 200 256c66 0 111 -25 142 -59c17 32 50 49 88 49c46 0 73 -17 73 -48c0 -23 -2 -36 -7 -47h-33c-19 0 -29 -9 -29 -32v-373c0 -139 -76 -199 -204 -199c-119 0 -192 35 -192 91
c0 19 5 36 18 50c36 -23 98 -43 167 -43c66 0 103 34 103 100zM263 88c48 0 81 17 109 38v217c-27 35 -59 59 -110 59c-60 0 -104 -53 -104 -158c0 -103 41 -156 105 -156zM196 684c1 -16 7 -32 19 -45c13 -13 33 -21 62 -21c27 0 46 6 59 19s19 31 21 44c8 7 23 10 41 9
c26 -1 35 -17 31 -35c-7 -28 -19 -53 -44 -74c-23 -21 -60 -31 -107 -31c-49 0 -85 11 -111 31c-26 21 -40 50 -43 79c-2 18 7 29 29 31c18 1 32 -2 43 -7z" />
    <glyph glyph-name="Gdotaccent" unicode="&#x120;" horiz-adv-x="702" 
d="M539 279h-175c-7 12 -11 25 -11 45c0 24 7 50 59 50h148c57 0 77 -22 77 -84v-279c-12 -9 -27 -11 -53 -11c-24 0 -45 6 -45 42v43c-47 -57 -108 -95 -192 -95c-152 0 -295 106 -295 360c0 250 140 360 319 360c157 0 228 -63 228 -110c0 -29 -22 -50 -43 -55
c-42 35 -101 62 -179 62c-119 0 -211 -81 -211 -260c0 -191 95 -254 192 -254c72 0 140 36 181 100v86zM301 827c0 39 19 58 58 58c38 0 58 -19 58 -58s-20 -58 -58 -58c-39 0 -58 20 -58 58z" />
    <glyph glyph-name="gdotaccent" unicode="&#x121;" horiz-adv-x="570" 
d="M372 -11v48c-36 -29 -78 -47 -133 -47c-110 0 -193 83 -193 254c0 173 91 256 200 256c66 0 111 -25 142 -59c17 32 50 49 88 49c46 0 73 -17 73 -48c0 -23 -2 -36 -7 -47h-33c-19 0 -29 -9 -29 -32v-373c0 -139 -76 -199 -204 -199c-119 0 -192 35 -192 91
c0 19 5 36 18 50c36 -23 98 -43 167 -43c66 0 103 34 103 100zM263 88c48 0 81 17 109 38v217c-27 35 -59 59 -110 59c-60 0 -104 -53 -104 -158c0 -103 41 -156 105 -156zM217 625c0 39 19 58 58 58c38 0 58 -19 58 -58s-20 -58 -58 -58c-39 0 -58 20 -58 58z" />
    <glyph glyph-name="Gcommaaccent" unicode="&#x122;" horiz-adv-x="702" 
d="M539 279h-175c-7 12 -11 25 -11 45c0 24 7 50 59 50h148c57 0 77 -22 77 -84v-279c-12 -9 -27 -11 -53 -11c-24 0 -45 6 -45 42v43c-47 -57 -108 -95 -192 -95c-152 0 -295 106 -295 360c0 250 140 360 319 360c157 0 228 -63 228 -110c0 -29 -22 -50 -43 -55
c-42 35 -101 62 -179 62c-119 0 -211 -81 -211 -260c0 -191 95 -254 192 -254c72 0 140 36 181 100v86zM348 -193c-39 0 -58 20 -58 59c0 40 20 60 60 60s64 -21 64 -87c0 -96 -31 -142 -65 -142c-22 0 -32 6 -35 22c23 17 34 68 34 88z" />
    <glyph glyph-name="gcommaaccent" unicode="&#x123;" horiz-adv-x="570" 
d="M372 -11v48c-36 -29 -78 -47 -133 -47c-110 0 -193 83 -193 254c0 173 91 256 200 256c66 0 111 -25 142 -59c17 32 50 49 88 49c46 0 73 -17 73 -48c0 -23 -2 -36 -7 -47h-33c-19 0 -29 -9 -29 -32v-373c0 -139 -76 -199 -204 -199c-119 0 -192 35 -192 91
c0 19 5 36 18 50c36 -23 98 -43 167 -43c66 0 103 34 103 100zM263 88c48 0 81 17 109 38v217c-27 35 -59 59 -110 59c-60 0 -104 -53 -104 -158c0 -103 41 -156 105 -156zM274 662c35 0 51 -18 51 -53c0 -36 -17 -54 -53 -54c-35 0 -57 19 -57 78c0 86 27 127 58 127
c20 0 28 -5 31 -20c-20 -16 -30 -61 -30 -78z" />
    <glyph glyph-name="Hcircumflex" unicode="&#x124;" horiz-adv-x="722" 
d="M578 700c28 0 51 -10 51 -40v-649c-8 -6 -33 -11 -52 -11c-31 0 -58 7 -58 52v257h-316v-296c-7 -8 -36 -13 -62 -13c-24 0 -48 7 -48 52v637c12 7 36 11 60 11c28 0 50 -10 50 -40v-250h316v279c10 6 36 11 59 11zM528 791c-3 -17 -13 -28 -26 -33c-7 -3 -15 -3 -22 -2
c-33 4 -78 43 -120 74c-41 -31 -87 -70 -118 -74c-8 -1 -16 -1 -22 2c-14 5 -24 16 -27 33c30 14 117 120 165 120c50 0 135 -104 170 -120z" />
    <glyph glyph-name="hcircumflex" unicode="&#x125;" horiz-adv-x="567" 
d="M134 700c28 0 52 -11 52 -41v-240c40 49 95 81 157 81c86 0 140 -50 140 -166v-235c0 -18 8 -25 19 -25h29c4 -6 6 -13 6 -27c0 -27 -30 -47 -91 -47c-42 0 -70 23 -70 85v222c0 57 -14 95 -62 95c-47 0 -99 -35 -128 -79v-312c-10 -7 -33 -11 -58 -11
c-24 0 -50 7 -50 51v637c11 7 31 12 56 12zM298 760c-3 -17 -13 -28 -26 -33c-7 -3 -15 -3 -22 -2c-33 4 -78 43 -120 74c-41 -31 -87 -70 -118 -74c-8 -1 -16 -1 -22 2c-14 5 -24 16 -27 33c30 14 117 120 165 120c50 0 135 -104 170 -120z" />
    <glyph glyph-name="Hbar" unicode="&#x126;" horiz-adv-x="723" 
d="M578 700c28 0 51 -10 51 -40v-84h85c6 -9 10 -22 10 -46c0 -32 -12 -51 -55 -51h-40v-468c-8 -6 -33 -11 -52 -11c-31 0 -58 7 -58 52v230h-316v-269c-7 -8 -36 -13 -62 -13c-24 0 -48 7 -48 52v427h-82c-7 14 -12 24 -12 47c0 30 13 50 53 50h41v113c12 7 36 11 60 11
c28 0 50 -10 50 -40v-84h316v113c10 6 36 11 59 11zM203 383h316v96h-316v-96z" />
    <glyph glyph-name="hbar" unicode="&#x127;" horiz-adv-x="567" 
d="M134 700c28 0 52 -11 52 -41v-29h130c6 -9 8 -23 8 -43c0 -22 -8 -35 -29 -35h-109v-133c40 49 95 81 157 81c86 0 140 -50 140 -166v-235c0 -18 8 -25 19 -25h29c4 -6 6 -13 6 -27c0 -27 -30 -47 -91 -47c-42 0 -70 23 -70 85v222c0 57 -14 95 -62 95
c-47 0 -99 -35 -128 -79v-312c-10 -7 -33 -11 -58 -11c-24 0 -50 7 -50 51v501h-58c-6 13 -9 22 -9 42c0 21 9 36 29 36h38v58c11 7 31 12 56 12z" />
    <glyph glyph-name="Itilde" unicode="&#x128;" horiz-adv-x="296" 
d="M153 700c28 0 50 -10 50 -40v-647c-14 -8 -31 -13 -60 -13s-50 11 -50 52v637c13 7 33 11 60 11zM68 891c65 0 109 -39 154 -39s58 36 63 43c10 -5 23 -30 23 -51c0 -31 -20 -70 -78 -70c-68 0 -107 37 -162 37c-34 0 -53 -31 -56 -44c-18 5 -23 29 -23 48
c0 26 18 76 79 76z" />
    <glyph glyph-name="itilde" unicode="&#x129;" horiz-adv-x="295" 
d="M113 490c49 0 89 -16 89 -96v-284c0 -20 9 -28 23 -28h30c5 -8 7 -17 7 -33c0 -30 -24 -49 -86 -49c-52 0 -82 21 -82 88v276c0 23 -11 30 -25 30h-29c-4 9 -6 21 -6 39c0 41 31 57 79 57zM49 682c65 0 109 -39 154 -39s58 36 63 43c10 -5 23 -30 23 -51
c0 -31 -20 -70 -78 -70c-68 0 -107 37 -162 37c-34 0 -53 -31 -56 -44c-18 5 -23 29 -23 48c0 26 18 76 79 76z" />
    <glyph glyph-name="Imacron" unicode="&#x12a;" horiz-adv-x="296" 
d="M153 700c28 0 50 -10 50 -40v-647c-14 -8 -31 -13 -60 -13s-50 11 -50 52v637c13 7 33 11 60 11zM256 779h-264c-6 11 -12 20 -12 36c0 26 6 45 59 45h268c6 -6 11 -15 11 -31c0 -20 -10 -50 -62 -50z" />
    <glyph glyph-name="imacron" unicode="&#x12b;" horiz-adv-x="295" 
d="M113 490c49 0 89 -16 89 -96v-284c0 -20 9 -28 23 -28h30c5 -8 7 -17 7 -33c0 -30 -24 -49 -86 -49c-52 0 -82 21 -82 88v276c0 23 -11 30 -25 30h-29c-4 9 -6 21 -6 39c0 41 31 57 79 57zM239 570h-264c-6 11 -12 20 -12 36c0 26 6 45 59 45h268c6 -6 11 -15 11 -31
c0 -20 -10 -50 -62 -50z" />
    <glyph glyph-name="Ibreve" unicode="&#x12c;" horiz-adv-x="296" 
d="M153 700c28 0 50 -10 50 -40v-647c-14 -8 -31 -13 -60 -13s-50 11 -50 52v637c13 7 33 11 60 11zM67 893c1 -16 7 -32 19 -45c13 -13 33 -21 62 -21c27 0 46 6 59 19s19 31 21 44c8 7 23 10 41 9c26 -1 35 -17 31 -35c-7 -28 -19 -53 -44 -74c-23 -21 -60 -31 -107 -31
c-49 0 -85 11 -111 31c-26 21 -40 50 -43 79c-2 18 7 29 29 31c18 1 32 -2 43 -7z" />
    <glyph glyph-name="ibreve" unicode="&#x12d;" horiz-adv-x="295" 
d="M113 490c49 0 89 -16 89 -96v-284c0 -20 9 -28 23 -28h30c5 -8 7 -17 7 -33c0 -30 -24 -49 -86 -49c-52 0 -82 21 -82 88v276c0 23 -11 30 -25 30h-29c-4 9 -6 21 -6 39c0 41 31 57 79 57zM44 684c1 -16 7 -32 19 -45c13 -13 33 -21 62 -21c27 0 46 6 59 19s19 31 21 44
c8 7 23 10 41 9c26 -1 35 -17 31 -35c-7 -28 -19 -53 -44 -74c-23 -21 -60 -31 -107 -31c-49 0 -85 11 -111 31c-26 21 -40 50 -43 79c-2 18 7 29 29 31c18 1 32 -2 43 -7z" />
    <glyph glyph-name="Iogonek" unicode="&#x12e;" horiz-adv-x="296" 
d="M153 700c28 0 50 -10 50 -40v-647h1c-24 -33 -49 -67 -49 -94c0 -30 18 -39 51 -39c5 -9 7 -16 7 -27c0 -13 -4 -31 -42 -31c-42 0 -80 27 -80 80c0 39 16 73 35 99c-20 4 -33 18 -33 51v637c13 7 33 11 60 11z" />
    <glyph glyph-name="iogonek" unicode="&#x12f;" horiz-adv-x="295" 
d="M113 490c49 0 89 -16 89 -96v-284c0 -20 8 -28 22 -28h31c5 -8 7 -17 7 -33c0 -14 -5 -24 -16 -33h1c-24 -33 -49 -67 -49 -94c0 -30 18 -39 51 -39c5 -9 7 -16 7 -27c0 -13 -4 -31 -42 -31c-42 0 -80 27 -80 80c0 37 15 69 32 95c-47 2 -72 25 -72 88v276
c0 23 -11 30 -25 30h-29c-4 9 -6 21 -6 39c0 41 31 57 79 57zM72 624c0 42 20 63 63 63c42 0 64 -21 64 -63c0 -43 -22 -63 -64 -63s-63 21 -63 63z" />
    <glyph glyph-name="Idotaccent" unicode="&#x130;" horiz-adv-x="296" 
d="M153 700c28 0 50 -10 50 -40v-647c-14 -8 -31 -13 -60 -13s-50 11 -50 52v637c13 7 33 11 60 11zM90 827c0 39 19 58 58 58c38 0 58 -19 58 -58s-20 -58 -58 -58c-39 0 -58 20 -58 58z" />
    <glyph glyph-name="dotlessi" unicode="&#x131;" horiz-adv-x="295" 
d="M113 490c49 0 89 -16 89 -96v-284c0 -20 9 -28 23 -28h30c5 -8 7 -17 7 -33c0 -30 -24 -49 -86 -49c-52 0 -82 21 -82 88v276c0 23 -11 30 -25 30h-29c-4 9 -6 21 -6 39c0 41 31 57 79 57z" />
    <glyph glyph-name="IJ" unicode="&#x132;" horiz-adv-x="685" 
d="M153 700c28 0 50 -10 50 -40v-647c-14 -8 -31 -13 -60 -13s-50 11 -50 52v637c13 7 33 11 60 11zM552 700c30 0 53 -10 53 -43v-508c0 -103 -60 -149 -151 -149c-101 0 -142 25 -142 66c0 13 2 23 8 36h103c49 0 73 20 73 67v520c13 8 31 11 56 11z" />
    <glyph glyph-name="ij" unicode="&#x133;" 
d="M113 490c49 0 89 -16 89 -96v-284c0 -20 8 -28 22 -28h31c5 -8 7 -17 7 -33c0 -30 -25 -49 -86 -49c-53 0 -82 21 -82 88v276c0 23 -11 30 -25 30h-29c-4 9 -6 21 -6 39c0 41 31 57 79 57zM72 624c0 42 20 63 63 63c42 0 64 -21 64 -63c0 -43 -22 -63 -64 -63
s-63 21 -63 63zM411 490c57 0 89 -24 89 -91v-464c0 -102 -48 -144 -133 -144c-62 0 -110 12 -110 54c0 15 1 27 7 42h74c36 0 54 25 54 68v409c0 23 -10 30 -23 30h-38c-4 12 -6 22 -6 40c0 36 28 56 86 56zM370 624c0 42 20 63 63 63c42 0 64 -21 64 -63
c0 -43 -22 -63 -64 -63s-63 21 -63 63z" />
    <glyph glyph-name="Jcircumflex" unicode="&#x134;" horiz-adv-x="389" 
d="M256 700c30 0 53 -10 53 -43v-508c0 -103 -60 -149 -151 -149c-101 0 -142 25 -142 66c0 13 2 23 8 36h103c49 0 73 20 73 67v520c13 8 31 11 56 11zM419 791c-3 -17 -13 -28 -26 -33c-7 -3 -15 -3 -22 -2c-33 4 -78 43 -120 74c-41 -31 -87 -70 -118 -74
c-8 -1 -16 -1 -22 2c-14 5 -24 16 -27 33c30 14 117 120 165 120c50 0 135 -104 170 -120z" />
    <glyph glyph-name="jcircumflex" unicode="&#x135;" horiz-adv-x="283" 
d="M116 490c57 0 89 -24 89 -91v-464c0 -102 -48 -144 -133 -144c-62 0 -110 12 -110 54c0 15 1 27 7 42h74c36 0 54 25 54 68v409c0 23 -10 30 -23 30h-38c-3 12 -6 22 -6 40c0 36 28 56 86 56zM297 582c-3 -17 -13 -28 -26 -33c-7 -3 -15 -3 -22 -2c-33 4 -78 43 -120 74
c-41 -31 -87 -70 -118 -74c-8 -1 -16 -1 -22 2c-14 5 -24 16 -27 33c30 14 117 120 165 120c50 0 135 -104 170 -120z" />
    <glyph glyph-name="Kcommaaccent" unicode="&#x136;" horiz-adv-x="606" 
d="M150 700c30 0 53 -10 53 -40v-266c120 81 207 204 240 297c12 5 36 9 56 9c26 0 43 -16 43 -39c0 -73 -108 -208 -203 -283c68 -77 148 -283 239 -283h5c5 -6 9 -18 9 -36c0 -33 -17 -57 -61 -57c-122 0 -194 203 -272 317c-17 -13 -38 -24 -56 -36v-272
c-13 -8 -38 -11 -64 -11c-28 0 -47 10 -47 50v638c14 7 35 12 58 12zM317 -180c-35 0 -51 18 -51 53c0 36 17 54 53 54c35 0 57 -19 57 -78c0 -86 -27 -127 -58 -127c-20 0 -28 5 -31 20c20 16 30 61 30 78z" />
    <glyph glyph-name="kcommaaccent" unicode="&#x137;" horiz-adv-x="494" 
d="M128 701c27 0 58 -10 58 -41v-359c84 45 140 110 145 179c10 5 35 10 52 10c32 0 55 -12 55 -46c0 -70 -84 -151 -161 -181c57 -38 95 -159 183 -159h13c5 -8 8 -23 8 -42c0 -38 -26 -62 -67 -62c-109 0 -157 166 -228 226v-214c-10 -7 -34 -12 -60 -12
c-24 0 -48 6 -48 51v635c11 9 24 15 50 15zM264 -180c-35 0 -51 18 -51 53c0 36 17 54 53 54c35 0 57 -19 57 -78c0 -86 -27 -127 -58 -127c-20 0 -28 5 -31 20c20 16 30 61 30 78z" />
    <glyph glyph-name="kgreenlandic" unicode="&#x138;" horiz-adv-x="494" 
d="M128 490c27 0 58 -10 58 -40v-149c84 45 140 110 145 179c10 5 35 10 52 10c32 0 55 -12 55 -46c0 -70 -84 -151 -161 -181c57 -38 95 -159 183 -159h13c5 -8 8 -23 8 -42c0 -38 -26 -62 -67 -62c-109 0 -157 166 -228 226v-214c-10 -7 -34 -12 -60 -12
c-24 0 -48 6 -48 51v425c11 9 24 14 50 14z" />
    <glyph glyph-name="Lacute" unicode="&#x139;" horiz-adv-x="539" 
d="M151 700c25 0 55 -9 55 -40v-557h307c5 -7 12 -23 12 -45c0 -34 -13 -58 -59 -58h-323c-29 0 -48 13 -48 49v641c11 6 32 10 56 10zM112 789c30 15 118 121 166 121c35 0 48 -20 49 -44c-50 -30 -128 -112 -171 -112c-23 0 -40 13 -44 35z" />
    <glyph glyph-name="lacute" unicode="&#x13a;" horiz-adv-x="307" 
d="M184 654v-500c0 -51 17 -65 57 -65h53c2 -9 4 -16 4 -31c0 -32 -24 -58 -103 -58c-84 0 -119 46 -119 129v556c12 10 23 16 52 16c40 0 56 -21 56 -47zM55 776c30 15 118 121 166 121c35 0 48 -20 49 -44c-50 -30 -128 -112 -171 -112c-23 0 -40 13 -44 35z" />
    <glyph glyph-name="Lcommaaccent" unicode="&#x13b;" horiz-adv-x="539" 
d="M151 700c25 0 55 -9 55 -40v-557h307c5 -7 12 -23 12 -45c0 -34 -13 -58 -59 -58h-323c-29 0 -48 13 -48 49v641c11 6 32 10 56 10zM306 -180c-35 0 -51 18 -51 53c0 36 17 54 53 54c35 0 57 -19 57 -78c0 -86 -27 -127 -58 -127c-20 0 -28 5 -31 20c20 16 30 61 30 78z
" />
    <glyph glyph-name="lcommaaccent" unicode="&#x13c;" horiz-adv-x="307" 
d="M184 654v-500c0 -51 17 -65 57 -65h53c2 -9 4 -16 4 -31c0 -32 -24 -58 -103 -58c-84 0 -119 46 -119 129v556c12 10 23 16 52 16c40 0 56 -21 56 -47zM158 -159c-35 0 -51 18 -51 53c0 36 17 54 53 54c35 0 57 -19 57 -78c0 -86 -27 -127 -58 -127c-20 0 -28 5 -31 20
c20 16 30 61 30 78z" />
    <glyph glyph-name="Lcaron" unicode="&#x13d;" horiz-adv-x="539" 
d="M151 700c25 0 55 -9 55 -40v-557h307c5 -7 12 -23 12 -45c0 -34 -13 -58 -59 -58h-323c-29 0 -48 13 -48 49v641c11 6 32 10 56 10zM329 593c-35 0 -51 18 -51 53c0 36 17 54 53 54c35 0 57 -19 57 -78c0 -86 -27 -127 -58 -127c-20 0 -28 5 -31 20c20 16 30 61 30 78z
" />
    <glyph glyph-name="lcaron" unicode="&#x13e;" horiz-adv-x="331" 
d="M184 654v-500c0 -51 17 -65 57 -65h53c2 -9 4 -16 4 -31c0 -32 -24 -58 -103 -58c-84 0 -119 46 -119 129v556c12 10 23 16 52 16c40 0 56 -21 56 -47zM267 610c-35 0 -51 18 -51 53c0 36 17 54 53 54c35 0 57 -19 57 -78c0 -86 -27 -127 -58 -127c-20 0 -28 5 -31 20
c20 16 30 61 30 78z" />
    <glyph glyph-name="Ldot" unicode="&#x13f;" horiz-adv-x="539" 
d="M151 700c25 0 55 -9 55 -40v-557h307c5 -7 12 -23 12 -45c0 -34 -13 -58 -59 -58h-323c-29 0 -48 13 -48 49v641c11 6 32 10 56 10zM343 343c0 39 19 58 58 58c38 0 58 -19 58 -58s-20 -58 -58 -58c-39 0 -58 20 -58 58z" />
    <glyph glyph-name="ldot" unicode="&#x140;" horiz-adv-x="355" 
d="M184 654v-500c0 -51 17 -65 57 -65h53c2 -9 4 -16 4 -31c0 -32 -24 -58 -103 -58c-84 0 -119 46 -119 129v556c12 10 23 16 52 16c40 0 56 -21 56 -47zM238 352c0 39 19 58 58 58c38 0 58 -19 58 -58s-20 -58 -58 -58c-39 0 -58 20 -58 58z" />
    <glyph glyph-name="Lslash" unicode="&#x141;" horiz-adv-x="539" 
d="M151 700c25 0 55 -9 55 -40v-252l118 76c11 -4 39 -27 39 -57c0 -19 -15 -31 -33 -43l-124 -80v-201h307c5 -7 12 -23 12 -45c0 -34 -13 -58 -59 -58h-323c-29 0 -48 13 -48 49v184l-56 -35c-20 11 -42 29 -42 53c0 16 8 29 29 42l69 44v353c11 6 32 10 56 10z" />
    <glyph glyph-name="lslash" unicode="&#x142;" horiz-adv-x="307" 
d="M184 654v-221l72 48c22 -7 42 -31 42 -54c0 -21 -5 -30 -20 -40l-94 -62v-171c0 -51 17 -65 57 -65h53c2 -9 4 -16 4 -31c0 -32 -24 -58 -103 -58c-84 0 -119 46 -119 129v126l-46 -29c-17 10 -37 30 -37 60c0 16 7 27 23 38l60 39v322c12 10 23 16 52 16
c40 0 56 -21 56 -47z" />
    <glyph glyph-name="Nacute" unicode="&#x143;" horiz-adv-x="728" 
d="M526 28l-328 470l4 -486c-7 -7 -36 -13 -61 -13c-24 0 -48 7 -48 52v639c14 6 36 10 59 10c24 0 41 -13 51 -28l325 -470l-3 484c12 9 28 15 54 15s57 -10 57 -41v-650c-10 -6 -28 -10 -57 -10c-23 0 -40 11 -53 28zM296 789c30 15 118 121 166 121c35 0 48 -20 49 -44
c-50 -30 -128 -112 -171 -112c-23 0 -40 13 -44 35z" />
    <glyph glyph-name="nacute" unicode="&#x144;" horiz-adv-x="596" 
d="M110 490c53 0 90 -28 90 -80v-5c46 60 100 94 173 94c76 0 133 -51 133 -161v-238c0 -16 7 -26 20 -26h37c3 -5 4 -10 4 -23c0 -33 -28 -51 -92 -51c-57 0 -77 25 -77 96v214c0 59 -20 92 -67 92c-50 0 -92 -36 -126 -83v-308c-13 -8 -28 -11 -57 -11
c-28 0 -51 12 -51 55v309c0 21 -9 30 -26 30h-34c-5 11 -10 22 -10 38c0 37 22 58 83 58zM217 580c30 15 118 121 166 121c35 0 48 -20 49 -44c-50 -30 -128 -112 -171 -112c-23 0 -40 13 -44 35z" />
    <glyph glyph-name="Ncommaaccent" unicode="&#x145;" horiz-adv-x="728" 
d="M526 28l-328 470l4 -486c-7 -7 -36 -13 -61 -13c-24 0 -48 7 -48 52v639c14 6 36 10 59 10c24 0 41 -13 51 -28l325 -470l-3 484c12 9 28 15 54 15s57 -10 57 -41v-650c-10 -6 -28 -10 -57 -10c-23 0 -40 11 -53 28zM368 -180c-35 0 -51 18 -51 53c0 36 17 54 53 54
c35 0 57 -19 57 -78c0 -86 -27 -127 -58 -127c-20 0 -28 5 -31 20c20 16 30 61 30 78z" />
    <glyph glyph-name="ncommaaccent" unicode="&#x146;" horiz-adv-x="596" 
d="M110 490c53 0 90 -28 90 -80v-5c46 60 100 94 173 94c76 0 133 -51 133 -161v-238c0 -16 7 -26 20 -26h37c3 -5 4 -10 4 -23c0 -33 -28 -51 -92 -51c-57 0 -77 25 -77 96v214c0 59 -20 92 -67 92c-50 0 -92 -36 -126 -83v-308c-13 -8 -28 -11 -57 -11
c-28 0 -51 12 -51 55v309c0 21 -9 30 -26 30h-34c-5 11 -10 22 -10 38c0 37 22 58 83 58zM310 -171c-35 0 -51 18 -51 53c0 36 17 54 53 54c35 0 57 -19 57 -78c0 -86 -27 -127 -58 -127c-20 0 -28 5 -31 20c20 16 30 61 30 78z" />
    <glyph glyph-name="Ncaron" unicode="&#x147;" horiz-adv-x="728" 
d="M526 28l-328 470l4 -486c-7 -7 -36 -13 -61 -13c-24 0 -48 7 -48 52v639c14 6 36 10 59 10c24 0 41 -13 51 -28l325 -470l-3 484c12 9 28 15 54 15s57 -10 57 -41v-650c-10 -6 -28 -10 -57 -10c-23 0 -40 11 -53 28zM367 755c-11 0 -17 3 -21 6c-44 18 -107 82 -150 107
c2 24 25 44 50 44c31 0 83 -48 122 -83c39 35 91 83 122 83c24 0 48 -20 50 -44c-43 -25 -105 -88 -150 -107c-4 -2 -10 -6 -23 -6z" />
    <glyph glyph-name="ncaron" unicode="&#x148;" horiz-adv-x="596" 
d="M110 490c53 0 90 -28 90 -80v-5c46 60 100 94 173 94c76 0 133 -51 133 -161v-238c0 -16 7 -26 20 -26h37c3 -5 4 -10 4 -23c0 -33 -28 -51 -92 -51c-57 0 -77 25 -77 96v214c0 59 -20 92 -67 92c-50 0 -92 -36 -126 -83v-308c-13 -8 -28 -11 -57 -11
c-28 0 -51 12 -51 55v309c0 21 -9 30 -26 30h-34c-5 11 -10 22 -10 38c0 37 22 58 83 58zM288 546c-11 0 -17 3 -21 6c-44 18 -107 82 -150 107c2 24 25 44 50 44c31 0 83 -48 122 -83c39 35 91 83 122 83c24 0 48 -20 50 -44c-43 -25 -105 -88 -150 -107
c-4 -2 -10 -6 -23 -6z" />
    <glyph glyph-name="napostrophe" unicode="&#x149;" horiz-adv-x="664" 
d="M180 490c53 0 90 -28 90 -80v-5c46 60 100 94 173 94c76 0 133 -51 133 -161v-238c0 -16 7 -26 20 -26h37c3 -5 4 -10 4 -23c0 -33 -28 -51 -92 -51c-57 0 -77 25 -77 96v214c0 59 -20 92 -67 92c-50 0 -92 -36 -126 -83v-308c-13 -8 -28 -11 -57 -11
c-28 0 -51 12 -51 55v309c0 21 -9 30 -26 30h-34c-5 11 -10 22 -10 38c0 37 22 58 83 58zM23 615c-35 0 -51 18 -51 53c0 36 17 54 53 54c35 0 57 -19 57 -78c0 -86 -27 -127 -58 -127c-20 0 -28 5 -31 20c20 16 30 61 30 78z" />
    <glyph glyph-name="Eng" unicode="&#x14a;" horiz-adv-x="728" 
d="M198 498l4 -486c-7 -7 -36 -13 -61 -13c-24 0 -48 7 -48 52v639c14 6 36 10 59 10c24 0 41 -13 51 -28l325 -470l-3 484c12 9 28 15 54 15s57 -10 57 -41v-720c0 -103 -43 -149 -142 -149c-59 0 -93 21 -93 61c0 13 2 23 8 36h54c49 0 67 20 67 67v69z" />
    <glyph glyph-name="eng" unicode="&#x14b;" horiz-adv-x="585" 
d="M110 490c56 0 90 -28 90 -85c46 58 100 95 169 95c80 0 137 -48 137 -161v-385c0 -117 -41 -163 -128 -163c-62 0 -110 13 -110 55c0 15 0 27 7 43h69c38 0 54 25 54 67v354c0 59 -20 92 -67 92c-50 0 -92 -36 -126 -83v-308c-13 -8 -28 -11 -57 -11c-28 0 -51 12 -51 55
v309c0 21 -9 30 -26 30h-34c-5 11 -10 22 -10 38c0 36 21 58 83 58z" />
    <glyph glyph-name="Omacron" unicode="&#x14c;" horiz-adv-x="701" 
d="M52 350c0 250 130 360 300 360c172 0 297 -110 297 -360c0 -258 -127 -360 -297 -360c-171 0 -300 106 -300 360zM166 347c0 -190 82 -254 187 -254c109 0 182 63 182 254c0 186 -76 260 -183 260s-186 -75 -186 -260zM457 779h-264c-6 11 -12 20 -12 36c0 26 6 45 59 45
h268c6 -6 11 -15 11 -31c0 -20 -10 -50 -62 -50z" />
    <glyph glyph-name="omacron" unicode="&#x14d;" horiz-adv-x="551" 
d="M46 244c0 178 100 256 232 256c134 0 227 -78 227 -256c0 -184 -98 -254 -230 -254s-229 73 -229 254zM158 242c0 -115 51 -154 117 -154c69 0 119 38 119 154c0 112 -48 160 -116 160s-120 -49 -120 -160zM382 570h-264c-6 11 -12 20 -12 36c0 26 6 45 59 45h268
c6 -6 11 -15 11 -31c0 -20 -10 -50 -62 -50z" />
    <glyph glyph-name="Obreve" unicode="&#x14e;" horiz-adv-x="701" 
d="M52 350c0 250 130 360 300 360c172 0 297 -110 297 -360c0 -258 -127 -360 -297 -360c-171 0 -300 106 -300 360zM166 347c0 -190 82 -254 187 -254c109 0 182 63 182 254c0 186 -76 260 -183 260s-186 -75 -186 -260zM269 893c1 -16 7 -32 19 -45c13 -13 33 -21 62 -21
c27 0 46 6 59 19s19 31 21 44c8 7 23 10 41 9c26 -1 35 -17 31 -35c-7 -28 -19 -53 -44 -74c-23 -21 -60 -31 -107 -31c-49 0 -85 11 -111 31c-26 21 -40 50 -43 79c-2 18 7 29 29 31c18 1 32 -2 43 -7z" />
    <glyph glyph-name="obreve" unicode="&#x14f;" horiz-adv-x="551" 
d="M46 244c0 178 100 256 232 256c134 0 227 -78 227 -256c0 -184 -98 -254 -230 -254s-229 73 -229 254zM158 242c0 -115 51 -154 117 -154c69 0 119 38 119 154c0 112 -48 160 -116 160s-120 -49 -120 -160zM194 684c1 -16 7 -32 19 -45c13 -13 33 -21 62 -21
c27 0 46 6 59 19s19 31 21 44c8 7 23 10 41 9c26 -1 35 -17 31 -35c-7 -28 -19 -53 -44 -74c-23 -21 -60 -31 -107 -31c-49 0 -85 11 -111 31c-26 21 -40 50 -43 79c-2 18 7 29 29 31c18 1 32 -2 43 -7z" />
    <glyph glyph-name="Ohungarumlaut" unicode="&#x150;" horiz-adv-x="701" 
d="M52 350c0 250 130 360 300 360c172 0 297 -110 297 -360c0 -258 -127 -360 -297 -360c-171 0 -300 106 -300 360zM166 347c0 -190 82 -254 187 -254c109 0 182 63 182 254c0 186 -76 260 -183 260s-186 -75 -186 -260zM190 791c40 29 96 144 152 144c33 0 45 -15 50 -36
c-50 -38 -115 -137 -161 -137c-21 0 -35 11 -41 29zM378 798c30 15 118 120 166 120c36 0 48 -19 50 -44c-51 -29 -129 -112 -172 -112c-23 0 -39 14 -44 36z" />
    <glyph glyph-name="ohungarumlaut" unicode="&#x151;" horiz-adv-x="551" 
d="M46 244c0 178 100 256 232 256c134 0 227 -78 227 -256c0 -184 -98 -254 -230 -254s-229 73 -229 254zM158 242c0 -115 51 -154 117 -154c69 0 119 38 119 154c0 112 -48 160 -116 160s-120 -49 -120 -160zM122 582c40 29 96 144 152 144c33 0 45 -15 50 -36
c-50 -38 -115 -137 -161 -137c-21 0 -35 11 -41 29zM310 589c30 15 118 120 166 120c36 0 48 -19 50 -44c-51 -29 -129 -112 -172 -112c-23 0 -39 14 -44 36z" />
    <glyph glyph-name="OE" unicode="&#x152;" horiz-adv-x="959" 
d="M873 0h-351c-9 0 -20 1 -28 4c-46 -10 -89 -14 -136 -14c-178 0 -306 106 -306 360c0 234 115 360 305 360c46 0 82 -4 128 -15c10 3 24 5 45 5h370c5 -8 12 -21 12 -45c0 -34 -14 -56 -39 -56h-290v-191h262c6 -8 12 -26 12 -49c0 -34 -13 -52 -35 -52h-239v-206h317
c5 -7 12 -19 12 -43c0 -34 -14 -58 -39 -58zM166 347c0 -188 80 -254 192 -254c37 0 79 3 115 17v475c-38 17 -74 22 -116 22c-114 0 -191 -76 -191 -260z" />
    <glyph glyph-name="oe" unicode="&#x153;" horiz-adv-x="858" 
d="M46 244c0 178 100 256 232 256c78 0 141 -29 178 -89c41 59 102 89 169 89c122 0 193 -90 193 -216c0 -23 -3 -47 -9 -63h-301c7 -89 51 -136 129 -136c66 0 126 24 152 43c10 -8 21 -23 21 -44c0 -50 -68 -94 -188 -94c-72 0 -131 31 -167 85c-39 -61 -103 -85 -180 -85
c-132 0 -229 73 -229 254zM158 242c0 -115 51 -154 117 -154c69 0 119 38 119 150c0 114 -47 164 -116 164c-68 0 -120 -49 -120 -160zM623 406c-55 0 -99 -38 -113 -112h209c0 68 -32 112 -96 112z" />
    <glyph glyph-name="Racute" unicode="&#x154;" horiz-adv-x="648" 
d="M148 700h216c108 0 211 -53 211 -200c0 -108 -72 -175 -155 -197c80 -114 130 -207 190 -207h5c6 -7 9 -18 9 -37c0 -36 -22 -59 -71 -59c-113 0 -167 174 -242 285h-108v-274c-9 -7 -34 -11 -55 -11c-29 0 -55 6 -55 51v640c11 6 31 9 55 9zM342 603h-139v-221h125
c77 0 134 37 134 117c0 78 -51 104 -120 104zM231 789c30 15 118 121 166 121c35 0 48 -20 49 -44c-50 -30 -128 -112 -171 -112c-23 0 -40 13 -44 35z" />
    <glyph glyph-name="racute" unicode="&#x155;" horiz-adv-x="446" 
d="M112 490c47 0 81 -20 88 -77c40 48 96 87 147 87c60 0 90 -32 90 -97c0 -60 -21 -79 -60 -79c-15 0 -31 7 -39 14c0 29 -11 46 -40 46c-34 0 -68 -20 -93 -58v-315c-7 -5 -27 -11 -51 -11c-38 0 -57 7 -57 63v300c0 22 -9 30 -24 30h-36c-5 12 -8 25 -8 43
c0 32 32 54 83 54zM156 580c30 15 118 121 166 121c35 0 48 -20 49 -44c-50 -30 -128 -112 -171 -112c-23 0 -40 13 -44 35z" />
    <glyph glyph-name="Rcommaaccent" unicode="&#x156;" horiz-adv-x="648" 
d="M148 700h216c108 0 211 -53 211 -200c0 -108 -72 -175 -155 -197c80 -114 130 -207 190 -207h5c6 -7 9 -18 9 -37c0 -36 -22 -59 -71 -59c-113 0 -167 174 -242 285h-108v-274c-9 -7 -34 -11 -55 -11c-29 0 -55 6 -55 51v640c11 6 31 9 55 9zM342 603h-139v-221h125
c77 0 134 37 134 117c0 78 -51 104 -120 104zM334 -180c-35 0 -51 18 -51 53c0 36 17 54 53 54c35 0 57 -19 57 -78c0 -86 -27 -127 -58 -127c-20 0 -28 5 -31 20c20 16 30 61 30 78z" />
    <glyph glyph-name="rcommaaccent" unicode="&#x157;" horiz-adv-x="446" 
d="M112 490c47 0 81 -20 88 -77c40 48 96 87 147 87c60 0 90 -32 90 -97c0 -60 -21 -79 -60 -79c-15 0 -31 7 -39 14c0 29 -11 46 -40 46c-34 0 -68 -20 -93 -58v-315c-7 -5 -27 -11 -51 -11c-38 0 -57 7 -57 63v300c0 22 -9 30 -24 30h-36c-5 12 -8 25 -8 43
c0 32 32 54 83 54zM149 -159c-35 0 -51 18 -51 53c0 36 17 54 53 54c35 0 57 -19 57 -78c0 -86 -27 -127 -58 -127c-20 0 -28 5 -31 20c20 16 30 61 30 78z" />
    <glyph glyph-name="Rcaron" unicode="&#x158;" horiz-adv-x="648" 
d="M148 700h216c108 0 211 -53 211 -200c0 -108 -72 -175 -155 -197c80 -114 130 -207 190 -207h5c6 -7 9 -18 9 -37c0 -36 -22 -59 -71 -59c-113 0 -167 174 -242 285h-108v-274c-9 -7 -34 -11 -55 -11c-29 0 -55 6 -55 51v640c11 6 31 9 55 9zM342 603h-139v-221h125
c77 0 134 37 134 117c0 78 -51 104 -120 104zM302 755c-11 0 -17 3 -21 6c-44 18 -107 82 -150 107c2 24 25 44 50 44c31 0 83 -48 122 -83c39 35 91 83 122 83c24 0 48 -20 50 -44c-43 -25 -105 -88 -150 -107c-4 -2 -10 -6 -23 -6z" />
    <glyph glyph-name="rcaron" unicode="&#x159;" horiz-adv-x="446" 
d="M112 490c47 0 81 -20 88 -77c40 48 96 87 147 87c60 0 90 -32 90 -97c0 -60 -21 -79 -60 -79c-15 0 -31 7 -39 14c0 29 -11 46 -40 46c-34 0 -68 -20 -93 -58v-315c-7 -5 -27 -11 -51 -11c-38 0 -57 7 -57 63v300c0 22 -9 30 -24 30h-36c-5 12 -8 25 -8 43
c0 32 32 54 83 54zM233 546c-11 0 -17 3 -21 6c-44 18 -107 82 -150 107c2 24 25 44 50 44c31 0 83 -48 122 -83c39 35 91 83 122 83c24 0 48 -20 50 -44c-43 -25 -105 -88 -150 -107c-4 -2 -10 -6 -23 -6z" />
    <glyph glyph-name="Sacute" unicode="&#x15a;" horiz-adv-x="591" 
d="M292 710c112 0 167 -29 197 -55c20 -18 24 -36 24 -53c0 -21 -12 -40 -24 -54c-36 23 -98 59 -197 59c-84 0 -121 -41 -121 -92c0 -47 30 -82 157 -116c146 -39 214 -91 214 -206c0 -119 -73 -203 -246 -203c-106 0 -174 18 -214 46c-29 20 -36 41 -36 65s8 41 17 52
c53 -36 140 -60 228 -60c106 0 138 46 138 92c0 50 -28 80 -145 112c-168 45 -226 102 -226 215c0 116 78 198 234 198zM210 789c30 15 118 121 166 121c35 0 48 -20 49 -44c-50 -30 -128 -112 -171 -112c-23 0 -40 13 -44 35z" />
    <glyph glyph-name="sacute" unicode="&#x15b;" horiz-adv-x="448" 
d="M224 500c118 0 168 -38 168 -83c0 -25 -6 -35 -18 -51c-25 19 -84 42 -145 42c-60 0 -82 -28 -82 -53c0 -29 23 -47 92 -58c124 -19 171 -65 171 -155c0 -94 -60 -152 -182 -152c-120 0 -190 38 -190 90c0 14 5 31 18 45c34 -21 108 -43 165 -43c67 0 90 26 90 53
c0 32 -26 50 -97 62c-126 20 -167 70 -167 154c0 88 61 149 177 149zM143 580c30 15 118 121 166 121c35 0 48 -20 49 -44c-50 -30 -128 -112 -171 -112c-23 0 -40 13 -44 35z" />
    <glyph glyph-name="Scircumflex" unicode="&#x15c;" horiz-adv-x="591" 
d="M292 710c112 0 167 -29 197 -55c20 -18 24 -36 24 -53c0 -21 -12 -40 -24 -54c-36 23 -98 59 -197 59c-84 0 -121 -41 -121 -92c0 -47 30 -82 157 -116c146 -39 214 -91 214 -206c0 -119 -73 -203 -246 -203c-106 0 -174 18 -214 46c-29 20 -36 41 -36 65s8 41 17 52
c53 -36 140 -60 228 -60c106 0 138 46 138 92c0 50 -28 80 -145 112c-168 45 -226 102 -226 215c0 116 78 198 234 198zM463 791c-3 -17 -13 -28 -26 -33c-7 -3 -15 -3 -22 -2c-33 4 -78 43 -120 74c-41 -31 -87 -70 -118 -74c-8 -1 -16 -1 -22 2c-14 5 -24 16 -27 33
c30 14 117 120 165 120c50 0 135 -104 170 -120z" />
    <glyph glyph-name="scircumflex" unicode="&#x15d;" horiz-adv-x="448" 
d="M224 500c118 0 168 -38 168 -83c0 -25 -6 -35 -18 -51c-25 19 -84 42 -145 42c-60 0 -82 -28 -82 -53c0 -29 23 -47 92 -58c124 -19 171 -65 171 -155c0 -94 -60 -152 -182 -152c-120 0 -190 38 -190 90c0 14 5 31 18 45c34 -21 108 -43 165 -43c67 0 90 26 90 53
c0 32 -26 50 -97 62c-126 20 -167 70 -167 154c0 88 61 149 177 149zM391 582c-3 -17 -13 -28 -26 -33c-7 -3 -15 -3 -22 -2c-33 4 -78 43 -120 74c-41 -31 -87 -70 -118 -74c-8 -1 -16 -1 -22 2c-14 5 -24 16 -27 33c30 14 117 120 165 120c50 0 135 -104 170 -120z" />
    <glyph glyph-name="Scedilla" unicode="&#x15e;" horiz-adv-x="591" 
d="M328 -113c0 29 -39 38 -66 39c-5 4 -8 13 -8 22v43c-82 4 -138 21 -172 45c-29 20 -36 41 -36 65s8 41 17 52c53 -36 140 -60 228 -60c106 0 138 46 138 92c0 50 -28 80 -145 112c-168 45 -226 102 -226 215c0 116 78 198 234 198c112 0 167 -29 197 -55
c20 -18 24 -36 24 -53c0 -21 -12 -40 -24 -54c-36 23 -98 59 -197 59c-84 0 -121 -41 -121 -92c0 -47 30 -82 157 -116c146 -39 214 -91 214 -206s-68 -197 -228 -203l-2 -23c53 -9 74 -37 74 -85c0 -51 -33 -85 -95 -85c-58 0 -86 26 -86 49c0 17 10 28 19 33
c13 -13 38 -26 63 -26c28 0 41 13 41 34z" />
    <glyph glyph-name="scedilla" unicode="&#x15f;" horiz-adv-x="448" 
d="M264 -113c0 29 -39 38 -66 39c-5 4 -8 13 -8 22v43c-97 7 -152 42 -152 89c0 14 5 31 18 45c34 -21 108 -43 165 -43c67 0 90 26 90 53c0 32 -26 50 -97 62c-126 20 -167 70 -167 154c0 88 61 149 177 149c118 0 168 -38 168 -83c0 -25 -6 -35 -18 -51
c-25 19 -84 42 -145 42c-60 0 -82 -28 -82 -53c0 -29 23 -47 92 -58c124 -19 171 -65 171 -155c0 -88 -53 -145 -160 -151l-2 -24c53 -9 74 -37 74 -85c0 -51 -33 -85 -95 -85c-58 0 -86 26 -86 49c0 17 10 28 19 33c13 -13 38 -26 63 -26c28 0 41 13 41 34z" />
    <glyph glyph-name="Scaron" unicode="&#x160;" horiz-adv-x="591" 
d="M292 710c112 0 167 -29 197 -55c20 -18 24 -36 24 -53c0 -21 -12 -40 -24 -54c-36 23 -98 59 -197 59c-84 0 -121 -41 -121 -92c0 -47 30 -82 157 -116c146 -39 214 -91 214 -206c0 -119 -73 -203 -246 -203c-106 0 -174 18 -214 46c-29 20 -36 41 -36 65s8 41 17 52
c53 -36 140 -60 228 -60c106 0 138 46 138 92c0 50 -28 80 -145 112c-168 45 -226 102 -226 215c0 116 78 198 234 198zM293 761c-11 0 -17 3 -21 6c-44 18 -107 82 -150 107c2 24 25 44 50 44c31 0 83 -48 122 -83c39 35 91 83 122 83c24 0 48 -20 50 -44
c-43 -25 -105 -88 -150 -107c-4 -2 -10 -6 -23 -6z" />
    <glyph glyph-name="scaron" unicode="&#x161;" horiz-adv-x="448" 
d="M224 500c118 0 168 -38 168 -83c0 -25 -6 -35 -18 -51c-25 19 -84 42 -145 42c-60 0 -82 -28 -82 -53c0 -29 23 -47 92 -58c124 -19 171 -65 171 -155c0 -94 -60 -152 -182 -152c-120 0 -190 38 -190 90c0 14 5 31 18 45c34 -21 108 -43 165 -43c67 0 90 26 90 53
c0 32 -26 50 -97 62c-126 20 -167 70 -167 154c0 88 61 149 177 149zM223 546c-11 0 -17 3 -21 6c-44 18 -107 82 -150 107c2 24 25 44 50 44c31 0 83 -48 122 -83c39 35 91 83 122 83c24 0 48 -20 50 -44c-43 -25 -105 -88 -150 -107c-4 -2 -10 -6 -23 -6z" />
    <glyph glyph-name="uni021A" unicode="&#x21a;" horiz-adv-x="568" 
d="M518 597h-178v-587c-12 -7 -34 -10 -63 -10c-26 0 -48 12 -48 51v546h-205c-7 14 -12 32 -12 52c0 26 12 51 52 51h480c6 -8 12 -23 12 -45c0 -34 -13 -58 -38 -58zM281 -180c-35 0 -51 18 -51 53c0 36 17 54 53 54c35 0 57 -19 57 -78c0 -86 -27 -127 -58 -127
c-20 0 -28 5 -31 20c20 16 30 61 30 78z" />
    <glyph glyph-name="uni021B" unicode="&#x21b;" horiz-adv-x="377" 
d="M308 401h-100v-245c0 -51 17 -64 52 -64h91c4 -9 7 -16 7 -31c0 -34 -26 -61 -136 -61c-68 0 -122 30 -122 134v267h-59c-6 10 -10 23 -10 39c0 32 9 50 40 50h29v120c11 6 33 11 56 11c27 0 52 -12 52 -44v-87h135c8 -7 11 -19 11 -35c0 -21 -7 -54 -46 -54zM185 -160
c-35 0 -51 18 -51 53c0 36 17 54 53 54c35 0 57 -19 57 -78c0 -86 -27 -127 -58 -127c-20 0 -28 5 -31 20c20 16 30 61 30 78z" />
    <glyph glyph-name="Tcaron" unicode="&#x164;" horiz-adv-x="568" 
d="M518 597h-178v-587c-12 -7 -34 -10 -63 -10c-26 0 -48 12 -48 51v546h-205c-7 14 -12 32 -12 52c0 26 12 51 52 51h480c6 -8 12 -23 12 -45c0 -34 -13 -58 -38 -58zM282 755c-11 0 -17 3 -21 6c-44 18 -107 82 -150 107c2 24 25 44 50 44c31 0 83 -48 122 -83
c39 35 91 83 122 83c24 0 48 -20 50 -44c-43 -25 -105 -88 -150 -107c-4 -2 -10 -6 -23 -6z" />
    <glyph glyph-name="tcaron" unicode="&#x165;" horiz-adv-x="376" 
d="M308 401h-100v-245c0 -51 17 -64 52 -64h91c4 -9 7 -16 7 -31c0 -34 -26 -61 -136 -61c-68 0 -122 30 -122 134v267h-59c-6 10 -10 23 -10 39c0 32 9 50 40 50h29v120c11 6 33 11 56 11c27 0 52 -12 52 -44v-87h135c8 -7 11 -19 11 -35c0 -21 -7 -54 -46 -54zM305 643
c-35 0 -51 18 -51 53c0 36 17 54 53 54c35 0 57 -19 57 -78c0 -86 -27 -127 -58 -127c-20 0 -28 5 -31 20c20 16 30 61 30 78z" />
    <glyph glyph-name="Tbar" unicode="&#x166;" horiz-adv-x="568" 
d="M518 597h-178v-213h135c6 -12 10 -31 10 -51c0 -24 -9 -53 -50 -53h-95v-270c-12 -7 -34 -10 -63 -10c-26 0 -48 12 -48 51v229h-136c-6 14 -11 28 -11 55c0 26 12 49 43 49h104v213h-205c-7 14 -12 32 -12 52c0 26 12 51 52 51h480c6 -8 12 -23 12 -45
c0 -34 -13 -58 -38 -58z" />
    <glyph glyph-name="tbar" unicode="&#x167;" horiz-adv-x="378" 
d="M308 401h-100v-86h126c6 -9 11 -21 11 -44c0 -30 -11 -51 -51 -51h-86v-64c0 -51 17 -64 52 -64h92c4 -9 7 -16 7 -31c0 -34 -27 -61 -136 -61c-68 0 -122 30 -122 134v86h-59c-6 14 -11 28 -11 45c0 31 9 50 41 50h29v86h-59c-6 10 -11 23 -11 39c0 32 9 50 41 50h29
v120c11 6 32 11 55 11c28 0 52 -12 52 -44v-87h136c8 -7 11 -19 11 -35c0 -21 -7 -54 -47 -54z" />
    <glyph glyph-name="Utilde" unicode="&#x168;" horiz-adv-x="684" 
d="M493 270v419c10 7 29 11 56 11c31 0 55 -10 55 -40v-406c0 -178 -92 -264 -265 -264c-172 0 -259 84 -259 264v436c10 7 33 10 57 10c32 0 53 -9 53 -40v-389c0 -117 43 -178 149 -178c114 0 154 60 154 177zM261 891c65 0 109 -39 154 -39s58 36 63 43
c10 -5 23 -30 23 -51c0 -31 -20 -70 -78 -70c-68 0 -107 37 -162 37c-34 0 -53 -31 -56 -44c-18 5 -23 29 -23 48c0 26 18 76 79 76z" />
    <glyph glyph-name="utilde" unicode="&#x169;" horiz-adv-x="592" 
d="M468 0c-39 0 -60 17 -76 77c-44 -54 -100 -87 -168 -87c-73 0 -132 42 -132 159v217c0 21 -8 28 -23 28h-44c-4 12 -5 20 -5 38c0 40 38 58 95 58c69 0 85 -26 85 -95v-224c0 -59 23 -83 62 -83c55 0 94 36 125 88v302c15 7 35 11 60 11c35 0 48 -14 48 -41v-330
c0 -23 10 -30 24 -30h36c2 -6 3 -12 3 -30c0 -36 -22 -58 -90 -58zM200 682c65 0 109 -39 154 -39s58 36 63 43c10 -5 23 -30 23 -51c0 -31 -20 -70 -78 -70c-68 0 -107 37 -162 37c-34 0 -53 -31 -56 -44c-18 5 -23 29 -23 48c0 26 18 76 79 76z" />
    <glyph glyph-name="Umacron" unicode="&#x16a;" horiz-adv-x="684" 
d="M493 270v419c10 7 29 11 56 11c31 0 55 -10 55 -40v-406c0 -178 -92 -264 -265 -264c-172 0 -259 84 -259 264v436c10 7 33 10 57 10c32 0 53 -9 53 -40v-389c0 -117 43 -178 149 -178c114 0 154 60 154 177zM449 779h-264c-6 11 -12 20 -12 36c0 26 6 45 59 45h268
c6 -6 11 -15 11 -31c0 -20 -10 -50 -62 -50z" />
    <glyph glyph-name="umacron" unicode="&#x16b;" horiz-adv-x="592" 
d="M468 0c-39 0 -60 17 -76 77c-44 -54 -100 -87 -168 -87c-73 0 -132 42 -132 159v217c0 21 -8 28 -23 28h-44c-4 12 -5 20 -5 38c0 40 38 58 95 58c69 0 85 -26 85 -95v-224c0 -59 23 -83 62 -83c55 0 94 36 125 88v302c15 7 35 11 60 11c35 0 48 -14 48 -41v-330
c0 -23 10 -30 24 -30h36c2 -6 3 -12 3 -30c0 -36 -22 -58 -90 -58zM391 570h-264c-6 11 -12 20 -12 36c0 26 6 45 59 45h268c6 -6 11 -15 11 -31c0 -20 -10 -50 -62 -50z" />
    <glyph glyph-name="Ubreve" unicode="&#x16c;" horiz-adv-x="684" 
d="M493 270v419c10 7 29 11 56 11c31 0 55 -10 55 -40v-406c0 -178 -92 -264 -265 -264c-172 0 -259 84 -259 264v436c10 7 33 10 57 10c32 0 53 -9 53 -40v-389c0 -117 43 -178 149 -178c114 0 154 60 154 177zM261 893c1 -16 7 -32 19 -45c13 -13 33 -21 62 -21
c27 0 46 6 59 19s19 31 21 44c8 7 23 10 41 9c26 -1 35 -17 31 -35c-7 -28 -19 -53 -44 -74c-23 -21 -60 -31 -107 -31c-49 0 -85 11 -111 31c-26 21 -40 50 -43 79c-2 18 7 29 29 31c18 1 32 -2 43 -7z" />
    <glyph glyph-name="ubreve" unicode="&#x16d;" horiz-adv-x="592" 
d="M468 0c-39 0 -60 17 -76 77c-44 -54 -100 -87 -168 -87c-73 0 -132 42 -132 159v217c0 21 -8 28 -23 28h-44c-4 12 -5 20 -5 38c0 40 38 58 95 58c69 0 85 -26 85 -95v-224c0 -59 23 -83 62 -83c55 0 94 36 125 88v302c15 7 35 11 60 11c35 0 48 -14 48 -41v-330
c0 -23 10 -30 24 -30h36c2 -6 3 -12 3 -30c0 -36 -22 -58 -90 -58zM200 684c1 -16 7 -32 19 -45c13 -13 33 -21 62 -21c27 0 46 6 59 19s19 31 21 44c8 7 23 10 41 9c26 -1 35 -17 31 -35c-7 -28 -19 -53 -44 -74c-23 -21 -60 -31 -107 -31c-49 0 -85 11 -111 31
c-26 21 -40 50 -43 79c-2 18 7 29 29 31c18 1 32 -2 43 -7z" />
    <glyph glyph-name="Uring" unicode="&#x16e;" horiz-adv-x="684" 
d="M493 270v419c10 7 29 11 56 11c31 0 55 -10 55 -40v-406c0 -178 -92 -264 -265 -264c-172 0 -259 84 -259 264v436c10 7 33 10 57 10c32 0 53 -9 53 -40v-389c0 -117 43 -178 149 -178c114 0 154 60 154 177zM251 842c0 61 30 91 91 91c60 0 90 -32 90 -91
s-30 -91 -90 -91c-61 0 -91 32 -91 91zM300 842c0 -26 14 -41 42 -41c27 0 41 15 41 41s-14 42 -41 42c-28 0 -42 -14 -42 -42z" />
    <glyph glyph-name="uring" unicode="&#x16f;" horiz-adv-x="592" 
d="M468 0c-39 0 -60 17 -76 77c-44 -54 -100 -87 -168 -87c-73 0 -132 42 -132 159v217c0 21 -8 28 -23 28h-44c-4 12 -5 20 -5 38c0 40 38 58 95 58c69 0 85 -26 85 -95v-224c0 -59 23 -83 62 -83c55 0 94 36 125 88v302c15 7 35 11 60 11c35 0 48 -14 48 -41v-330
c0 -23 10 -30 24 -30h36c2 -6 3 -12 3 -30c0 -36 -22 -58 -90 -58zM194 633c0 61 30 91 91 91c60 0 90 -32 90 -91s-30 -91 -90 -91c-61 0 -91 32 -91 91zM243 633c0 -26 14 -41 42 -41c27 0 41 15 41 41s-14 42 -41 42c-28 0 -42 -14 -42 -42z" />
    <glyph glyph-name="Uhungarumlaut" unicode="&#x170;" horiz-adv-x="684" 
d="M493 270v419c10 7 29 11 56 11c31 0 55 -10 55 -40v-406c0 -178 -92 -264 -265 -264c-172 0 -259 84 -259 264v436c10 7 33 10 57 10c32 0 53 -9 53 -40v-389c0 -117 43 -178 149 -178c114 0 154 60 154 177zM176 791c40 29 96 144 152 144c33 0 45 -15 50 -36
c-50 -38 -115 -137 -161 -137c-21 0 -35 11 -41 29zM364 798c30 15 118 120 166 120c36 0 48 -19 50 -44c-51 -29 -129 -112 -172 -112c-23 0 -39 14 -44 36z" />
    <glyph glyph-name="uhungarumlaut" unicode="&#x171;" horiz-adv-x="592" 
d="M468 0c-39 0 -60 17 -76 77c-44 -54 -100 -87 -168 -87c-73 0 -132 42 -132 159v217c0 21 -8 28 -23 28h-44c-4 12 -5 20 -5 38c0 40 38 58 95 58c69 0 85 -26 85 -95v-224c0 -59 23 -83 62 -83c55 0 94 36 125 88v302c15 7 35 11 60 11c35 0 48 -14 48 -41v-330
c0 -23 10 -30 24 -30h36c2 -6 3 -12 3 -30c0 -36 -22 -58 -90 -58zM123 582c40 29 96 144 152 144c33 0 45 -15 50 -36c-50 -38 -115 -137 -161 -137c-21 0 -35 11 -41 29zM311 589c30 15 118 120 166 120c36 0 48 -19 50 -44c-51 -29 -129 -112 -172 -112
c-23 0 -39 14 -44 36z" />
    <glyph glyph-name="Uogonek" unicode="&#x172;" horiz-adv-x="684" 
d="M493 270v419c10 7 29 11 56 11c31 0 55 -10 55 -40v-406c0 -134 -52 -216 -151 -248c-24 -32 -48 -66 -48 -93c0 -30 18 -39 51 -39c5 -9 7 -16 7 -27c0 -13 -4 -31 -42 -31c-42 0 -80 27 -80 80c0 37 15 69 32 95c-11 -1 -23 -1 -34 -1c-172 0 -259 84 -259 264v436
c10 7 33 10 57 10c32 0 53 -9 53 -40v-389c0 -117 43 -178 149 -178c114 0 154 60 154 177z" />
    <glyph glyph-name="uogonek" unicode="&#x173;" horiz-adv-x="592" 
d="M558 58c0 -15 -4 -27 -12 -36c-24 -33 -49 -67 -49 -94c0 -30 18 -39 51 -39c5 -9 7 -16 7 -27c0 -13 -4 -31 -42 -31c-42 0 -80 27 -80 80c0 34 12 64 28 89c-35 2 -54 21 -69 77c-44 -54 -100 -87 -168 -87c-73 0 -132 42 -132 159v217c0 21 -8 28 -23 28h-44
c-4 12 -5 20 -5 38c0 40 38 58 95 58c69 0 85 -26 85 -95v-224c0 -59 23 -83 62 -83c55 0 94 36 125 88v302c15 7 35 11 60 11c35 0 48 -14 48 -41v-330c0 -23 10 -30 24 -30h36c2 -6 3 -12 3 -30z" />
    <glyph glyph-name="Wcircumflex" unicode="&#x174;" horiz-adv-x="991" 
d="M136 663l160 -504c47 118 115 350 151 529c14 7 30 12 55 12c30 0 59 -12 67 -39l151 -505c77 156 139 415 151 532c17 8 34 12 61 12c21 0 41 -11 41 -29c0 -5 -1 -16 -3 -34c-2 -13 -41 -329 -216 -630c-14 -5 -31 -7 -49 -7c-26 0 -47 12 -56 43l-146 485
c-40 -164 -101 -365 -171 -519c-16 -5 -38 -9 -58 -9c-27 0 -46 11 -56 43l-212 645c13 7 39 12 67 12s54 -10 63 -37zM674 791c-3 -17 -13 -28 -26 -33c-7 -3 -15 -3 -22 -2c-33 4 -78 43 -120 74c-41 -31 -87 -70 -118 -74c-8 -1 -16 -1 -22 2c-14 5 -24 16 -27 33
c30 14 117 120 165 120c50 0 135 -104 170 -120z" />
    <glyph glyph-name="wcircumflex" unicode="&#x175;" horiz-adv-x="778" 
d="M493 9l-93 271c-19 -75 -53 -160 -87 -219c-24 -42 -47 -61 -78 -61c-18 0 -29 4 -38 10l-130 377c-4 12 -11 19 -23 19h-28c-4 11 -6 22 -6 37c0 30 18 47 70 47c54 0 70 -22 89 -79l87 -268c49 98 76 199 80 332c16 12 37 15 53 15c29 0 44 -15 53 -40l107 -311
c53 71 89 183 89 241c0 16 -10 26 -24 26h-30c-3 9 -7 20 -7 36c0 29 29 48 79 48c61 0 82 -34 82 -88c0 -119 -124 -402 -203 -402c-19 0 -32 3 -42 9zM554 582c-3 -17 -13 -28 -26 -33c-7 -3 -15 -3 -22 -2c-33 4 -78 43 -120 74c-41 -31 -87 -70 -118 -74
c-8 -1 -16 -1 -22 2c-14 5 -24 16 -27 33c30 14 117 120 165 120c50 0 135 -104 170 -120z" />
    <glyph glyph-name="Ycircumflex" unicode="&#x176;" horiz-adv-x="574" 
d="M352 237v-225c-10 -6 -31 -12 -62 -12s-48 10 -48 37v197c-93 141 -182 305 -224 451c15 9 36 15 61 15c30 0 59 -6 68 -34c41 -127 89 -222 158 -331c73 120 139 275 156 359c12 4 36 6 57 6c23 0 38 -16 38 -38c0 -78 -125 -313 -204 -425zM463 791
c-3 -17 -13 -28 -26 -33c-7 -3 -15 -3 -22 -2c-33 4 -78 43 -120 74c-41 -31 -87 -70 -118 -74c-8 -1 -16 -1 -22 2c-14 5 -24 16 -27 33c30 14 117 120 165 120c50 0 135 -104 170 -120z" />
    <glyph glyph-name="ycircumflex" unicode="&#x177;" horiz-adv-x="534" 
d="M28 -120h50c74 0 117 58 166 140c-31 4 -50 37 -63 72l-110 290c-7 17 -13 24 -26 24h-37c-4 9 -6 22 -6 33c0 31 24 51 82 51s81 -44 100 -98l90 -256c5 -13 9 -20 18 -23c51 102 99 215 99 264c0 18 -8 29 -24 29h-35c-3 7 -6 20 -6 33c0 30 29 51 77 51
c69 0 95 -33 95 -86c0 -88 -89 -281 -161 -412c-77 -139 -150 -201 -240 -201c-65 0 -77 26 -77 54c0 10 2 20 8 35zM432 582c-3 -17 -13 -28 -26 -33c-7 -3 -15 -3 -22 -2c-33 4 -78 43 -120 74c-41 -31 -87 -70 -118 -74c-8 -1 -16 -1 -22 2c-14 5 -24 16 -27 33
c30 14 117 120 165 120c50 0 135 -104 170 -120z" />
    <glyph glyph-name="Ydieresis" unicode="&#x178;" horiz-adv-x="574" 
d="M352 237v-225c-10 -6 -31 -12 -62 -12s-48 10 -48 37v197c-93 141 -182 305 -224 451c15 9 36 15 61 15c30 0 59 -6 68 -34c41 -127 89 -222 158 -331c73 120 139 275 156 359c12 4 36 6 57 6c23 0 38 -16 38 -38c0 -78 -125 -313 -204 -425zM136 838c0 38 18 58 58 58
c38 0 58 -20 58 -58c0 -40 -20 -58 -58 -58c-39 0 -58 19 -58 58zM343 838c0 38 18 58 58 58c38 0 58 -20 58 -58c0 -40 -20 -58 -58 -58c-39 0 -58 19 -58 58z" />
    <glyph glyph-name="Zacute" unicode="&#x179;" horiz-adv-x="602" 
d="M536 605l-364 -506h401c4 -10 9 -27 9 -50c0 -24 -10 -49 -46 -49h-507c-6 13 -9 22 -9 39c0 22 6 37 18 53l366 507h-345c-7 14 -12 25 -12 49c0 26 12 52 40 52h463c5 -8 8 -20 8 -37c0 -21 -8 -38 -22 -58zM229 789c30 15 118 121 166 121c35 0 48 -20 49 -44
c-50 -30 -128 -112 -171 -112c-23 0 -40 13 -44 35z" />
    <glyph glyph-name="zacute" unicode="&#x17a;" horiz-adv-x="476" 
d="M29 41c0 17 4 31 14 44l244 316h-237c-6 10 -9 23 -9 39c0 27 3 50 43 50h338c3 -8 7 -19 7 -37c0 -19 -8 -39 -18 -52l-238 -309h271c5 -7 9 -19 9 -43c0 -22 -7 -49 -46 -49h-367c-6 10 -11 25 -11 41zM150 580c30 15 118 121 166 121c35 0 48 -20 49 -44
c-50 -30 -128 -112 -171 -112c-23 0 -40 13 -44 35z" />
    <glyph glyph-name="Zdotaccent" unicode="&#x17b;" horiz-adv-x="602" 
d="M536 605l-364 -506h401c4 -10 9 -27 9 -50c0 -24 -10 -49 -46 -49h-507c-6 13 -9 22 -9 39c0 22 6 37 18 53l366 507h-345c-7 14 -12 25 -12 49c0 26 12 52 40 52h463c5 -8 8 -20 8 -37c0 -21 -8 -38 -22 -58zM247 827c0 39 19 58 58 58c38 0 58 -19 58 -58
s-20 -58 -58 -58c-39 0 -58 20 -58 58z" />
    <glyph glyph-name="zdotaccent" unicode="&#x17c;" horiz-adv-x="476" 
d="M29 41c0 17 4 31 14 44l244 316h-237c-6 10 -9 23 -9 39c0 27 3 50 43 50h338c3 -8 7 -19 7 -37c0 -19 -8 -39 -18 -52l-238 -309h271c5 -7 9 -19 9 -43c0 -22 -7 -49 -46 -49h-367c-6 10 -11 25 -11 41zM182 625c0 39 19 58 58 58c38 0 58 -19 58 -58s-20 -58 -58 -58
c-39 0 -58 20 -58 58z" />
    <glyph glyph-name="Zcaron" unicode="&#x17d;" horiz-adv-x="602" 
d="M536 605l-364 -506h401c4 -10 9 -27 9 -50c0 -24 -10 -49 -46 -49h-507c-6 13 -9 22 -9 39c0 22 6 37 18 53l366 507h-345c-7 14 -12 25 -12 49c0 26 12 52 40 52h463c5 -8 8 -20 8 -37c0 -21 -8 -38 -22 -58zM305 761c-11 0 -17 3 -21 6c-44 18 -107 82 -150 107
c2 24 25 44 50 44c31 0 83 -48 122 -83c39 35 91 83 122 83c24 0 48 -20 50 -44c-43 -25 -105 -88 -150 -107c-4 -2 -10 -6 -23 -6z" />
    <glyph glyph-name="zcaron" unicode="&#x17e;" horiz-adv-x="476" 
d="M29 41c0 17 4 31 14 44l244 316h-237c-6 10 -9 23 -9 39c0 27 3 50 43 50h338c3 -8 7 -19 7 -37c0 -19 -8 -39 -18 -52l-238 -309h271c5 -7 9 -19 9 -43c0 -22 -7 -49 -46 -49h-367c-6 10 -11 25 -11 41zM238 546c-11 0 -17 3 -21 6c-44 18 -107 82 -150 107
c2 24 25 44 50 44c31 0 83 -48 122 -83c39 35 91 83 122 83c24 0 48 -20 50 -44c-43 -25 -105 -88 -150 -107c-4 -2 -10 -6 -23 -6z" />
    <glyph glyph-name="florin" unicode="&#x192;" horiz-adv-x="492" 
d="M382 306h-100l-48 -336c-15 -108 -72 -150 -174 -150c-67 0 -86 21 -86 52c0 17 4 34 9 46h78c34 0 58 13 66 69l45 319h-105c-6 14 -12 23 -12 52c0 26 12 48 58 48h74l21 150c14 103 71 144 178 144c66 0 86 -25 86 -50c0 -22 -3 -35 -8 -51h-81c-39 0 -62 -13 -68 -59
l-20 -134h135c6 -8 11 -22 11 -46c0 -32 -15 -54 -59 -54z" />
    <glyph glyph-name="Scommaaccent" unicode="&#x218;" horiz-adv-x="591" 
d="M292 710c112 0 167 -29 197 -55c20 -18 24 -36 24 -53c0 -21 -12 -40 -24 -54c-36 23 -98 59 -197 59c-84 0 -121 -41 -121 -92c0 -47 30 -82 157 -116c146 -39 214 -91 214 -206c0 -119 -73 -203 -246 -203c-106 0 -174 18 -214 46c-29 20 -36 41 -36 65s8 41 17 52
c53 -36 140 -60 228 -60c106 0 138 46 138 92c0 50 -28 80 -145 112c-168 45 -226 102 -226 215c0 116 78 198 234 198zM288 -180c-35 0 -51 18 -51 53c0 36 17 54 53 54c35 0 57 -19 57 -78c0 -86 -27 -127 -58 -127c-20 0 -28 5 -31 20c20 16 30 61 30 78z" />
    <glyph glyph-name="scommaaccent" unicode="&#x219;" horiz-adv-x="448" 
d="M224 500c118 0 168 -38 168 -83c0 -25 -6 -35 -18 -51c-25 19 -84 42 -145 42c-60 0 -82 -28 -82 -53c0 -29 23 -47 92 -58c124 -19 171 -65 171 -155c0 -94 -60 -152 -182 -152c-120 0 -190 38 -190 90c0 14 5 31 18 45c34 -21 108 -43 165 -43c67 0 90 26 90 53
c0 32 -26 50 -97 62c-126 20 -167 70 -167 154c0 88 61 149 177 149zM218 -160c-35 0 -51 18 -51 53c0 36 17 54 53 54c35 0 57 -19 57 -78c0 -86 -27 -127 -58 -127c-20 0 -28 5 -31 20c20 16 30 61 30 78z" />
    <glyph glyph-name="dotlessj" unicode="&#x237;" horiz-adv-x="283" 
d="M116 490c57 0 89 -24 89 -91v-464c0 -102 -48 -144 -133 -144c-62 0 -110 12 -110 54c0 15 1 27 7 42h74c36 0 54 25 54 68v409c0 23 -10 30 -23 30h-38c-3 12 -6 22 -6 40c0 36 28 56 86 56z" />
    <glyph glyph-name="circumflex" unicode="&#x2c6;" horiz-adv-x="482" 
d="M397 582c-3 -17 -13 -28 -26 -33c-7 -3 -15 -3 -22 -2c-33 4 -78 43 -120 74c-41 -31 -87 -70 -118 -74c-8 -1 -16 -1 -22 2c-14 5 -24 16 -27 33c30 14 117 120 165 120c50 0 135 -104 170 -120z" />
    <glyph glyph-name="caron" unicode="&#x2c7;" horiz-adv-x="502" 
d="M245 546c-11 0 -17 3 -21 6c-44 18 -107 82 -150 107c2 24 25 44 50 44c31 0 83 -48 122 -83c39 35 91 83 122 83c24 0 48 -20 50 -44c-43 -25 -105 -88 -150 -107c-4 -2 -10 -6 -23 -6z" />
    <glyph glyph-name="breve" unicode="&#x2d8;" horiz-adv-x="460" 
d="M140 684c1 -16 7 -32 19 -45c13 -13 33 -21 62 -21c27 0 46 6 59 19s19 31 21 44c8 7 23 10 41 9c26 -1 35 -17 31 -35c-7 -28 -19 -53 -44 -74c-23 -21 -60 -31 -107 -31c-49 0 -85 11 -111 31c-26 21 -40 50 -43 79c-2 18 7 29 29 31c18 1 32 -2 43 -7z" />
    <glyph glyph-name="dotaccent" unicode="&#x2d9;" horiz-adv-x="451" 
d="M166 625c0 39 19 58 58 58c38 0 58 -19 58 -58s-20 -58 -58 -58c-39 0 -58 20 -58 58z" />
    <glyph glyph-name="ring" unicode="&#x2da;" horiz-adv-x="448" 
d="M133 633c0 61 30 91 91 91c60 0 90 -32 90 -91s-30 -91 -90 -91c-61 0 -91 32 -91 91zM182 633c0 -26 14 -41 42 -41c27 0 41 15 41 41s-14 42 -41 42c-28 0 -42 -14 -42 -42z" />
    <glyph glyph-name="ogonek" unicode="&#x2db;" horiz-adv-x="511" 
d="M370 33l47 -26c-24 -33 -49 -67 -49 -94c0 -30 18 -39 51 -39c5 -9 7 -16 7 -27c0 -13 -4 -31 -42 -31c-42 0 -80 27 -80 80c0 61 42 112 66 137z" />
    <glyph glyph-name="tilde" unicode="&#x2dc;" horiz-adv-x="501" 
d="M140 682c65 0 109 -39 154 -39s58 36 63 43c10 -5 23 -30 23 -51c0 -31 -20 -70 -78 -70c-68 0 -107 37 -162 37c-34 0 -53 -31 -56 -44c-18 5 -23 29 -23 48c0 26 18 76 79 76z" />
    <glyph glyph-name="hungarumlaut" unicode="&#x2dd;" horiz-adv-x="503" 
d="M55 582c40 29 96 144 152 144c33 0 45 -15 50 -36c-50 -38 -115 -137 -161 -137c-21 0 -35 11 -41 29zM243 589c30 15 118 120 166 120c36 0 48 -19 50 -44c-51 -29 -129 -112 -172 -112c-23 0 -39 14 -44 36z" />
    <glyph glyph-name="commaaccent" horiz-adv-x="218" 
d="M106 -180c-35 0 -51 18 -51 53c0 36 17 54 53 54c35 0 57 -19 57 -78c0 -86 -27 -127 -58 -127c-20 0 -28 5 -31 20c20 16 30 61 30 78z" />
    <glyph glyph-name="uni0394" unicode="&#x394;" horiz-adv-x="626" 
d="M64 0c-28 0 -48 5 -59 15l236 628c15 43 39 57 74 57c34 0 63 -33 80 -78l226 -598c-11 -20 -29 -24 -50 -24h-507zM315 548l-169 -453h342z" />
    <glyph glyph-name="uni03A9" unicode="&#x3a9;" horiz-adv-x="698" 
d="M197 86l1 4c-75 36 -145 127 -145 271c0 239 128 349 297 349c172 0 295 -109 295 -348c0 -138 -61 -233 -142 -272l1 -4l147 2c6 -7 12 -13 12 -35c0 -31 -13 -53 -38 -53h-239c-7 13 -13 27 -13 61c0 25 5 47 19 49c85 6 143 85 143 249c0 174 -78 254 -185 254
s-189 -79 -189 -252c0 -165 85 -243 158 -252c6 -8 12 -30 12 -53c0 -31 -13 -56 -38 -56h-246c-7 13 -13 23 -13 43c0 29 14 45 60 45z" />
    <glyph glyph-name="uni03BC" unicode="&#x3bc;" horiz-adv-x="611" 
d="M507 0c-54 0 -86 25 -101 77c-42 -50 -97 -85 -159 -85c-21 0 -38 3 -51 11v-171c-9 -7 -26 -12 -54 -12s-49 20 -49 66v481c0 20 -9 27 -24 27h-46c-3 12 -5 22 -5 44c0 36 43 52 96 52c69 0 91 -33 91 -108v-178c0 -67 14 -105 64 -105c57 0 102 28 131 75v304
c15 8 39 12 62 12c37 0 51 -14 51 -41v-331c0 -23 11 -30 25 -30h38c2 -7 4 -15 4 -35c0 -33 -35 -53 -73 -53z" />
    <glyph glyph-name="pi" unicode="&#x3c0;" horiz-adv-x="606" 
d="M104 120v267h-80c-7 14 -12 26 -12 46c0 33 6 57 59 57h511c6 -7 12 -21 12 -45c0 -33 -13 -58 -38 -58h-54v-376c-8 -6 -34 -11 -53 -11c-31 0 -58 7 -58 52v335h-177v-275c0 -94 -53 -117 -121 -117c-32 0 -56 16 -56 57c38 6 67 24 67 68z" />
    <glyph glyph-name="Wgrave" unicode="&#x1e80;" horiz-adv-x="991" 
d="M136 663l160 -504c47 118 115 350 151 529c14 7 30 12 55 12c30 0 59 -12 67 -39l151 -505c77 156 139 415 151 532c17 8 34 12 61 12c21 0 41 -11 41 -29c0 -5 -1 -16 -3 -34c-2 -13 -41 -329 -216 -630c-14 -5 -31 -7 -49 -7c-26 0 -47 12 -56 43l-146 485
c-40 -164 -101 -365 -171 -519c-16 -5 -38 -9 -58 -9c-27 0 -46 11 -56 43l-212 645c13 7 39 12 67 12s54 -10 63 -37zM573 787c-5 -22 -21 -36 -44 -36c-43 0 -121 83 -172 113c2 24 14 44 50 44c48 0 136 -106 166 -121z" />
    <glyph glyph-name="wgrave" unicode="&#x1e81;" horiz-adv-x="778" 
d="M493 9l-93 271c-19 -75 -53 -160 -87 -219c-24 -42 -47 -61 -78 -61c-18 0 -29 4 -38 10l-130 377c-4 12 -11 19 -23 19h-28c-4 11 -6 22 -6 37c0 30 18 47 70 47c54 0 70 -22 89 -79l87 -268c49 98 76 199 80 332c16 12 37 15 53 15c29 0 44 -15 53 -40l107 -311
c53 71 89 183 89 241c0 16 -10 26 -24 26h-30c-3 9 -7 20 -7 36c0 29 29 48 79 48c61 0 82 -34 82 -88c0 -119 -124 -402 -203 -402c-19 0 -32 3 -42 9zM452 578c-5 -22 -21 -36 -44 -36c-43 0 -121 83 -172 113c2 24 14 44 50 44c48 0 136 -106 166 -121z" />
    <glyph glyph-name="Wacute" unicode="&#x1e82;" horiz-adv-x="991" 
d="M136 663l160 -504c47 118 115 350 151 529c14 7 30 12 55 12c30 0 59 -12 67 -39l151 -505c77 156 139 415 151 532c17 8 34 12 61 12c21 0 41 -11 41 -29c0 -5 -1 -16 -3 -34c-2 -13 -41 -329 -216 -630c-14 -5 -31 -7 -49 -7c-26 0 -47 12 -56 43l-146 485
c-40 -164 -101 -365 -171 -519c-16 -5 -38 -9 -58 -9c-27 0 -46 11 -56 43l-212 645c13 7 39 12 67 12s54 -10 63 -37zM422 789c30 15 118 121 166 121c35 0 48 -20 49 -44c-50 -30 -128 -112 -171 -112c-23 0 -40 13 -44 35z" />
    <glyph glyph-name="wacute" unicode="&#x1e83;" horiz-adv-x="778" 
d="M493 9l-93 271c-19 -75 -53 -160 -87 -219c-24 -42 -47 -61 -78 -61c-18 0 -29 4 -38 10l-130 377c-4 12 -11 19 -23 19h-28c-4 11 -6 22 -6 37c0 30 18 47 70 47c54 0 70 -22 89 -79l87 -268c49 98 76 199 80 332c16 12 37 15 53 15c29 0 44 -15 53 -40l107 -311
c53 71 89 183 89 241c0 16 -10 26 -24 26h-30c-3 9 -7 20 -7 36c0 29 29 48 79 48c61 0 82 -34 82 -88c0 -119 -124 -402 -203 -402c-19 0 -32 3 -42 9zM300 580c30 15 118 121 166 121c35 0 48 -20 49 -44c-50 -30 -128 -112 -171 -112c-23 0 -40 13 -44 35z" />
    <glyph glyph-name="Wdieresis" unicode="&#x1e84;" horiz-adv-x="991" 
d="M136 663l160 -504c47 118 115 350 151 529c14 7 30 12 55 12c30 0 59 -12 67 -39l151 -505c77 156 139 415 151 532c17 8 34 12 61 12c21 0 41 -11 41 -29c0 -5 -1 -16 -3 -34c-2 -13 -41 -329 -216 -630c-14 -5 -31 -7 -49 -7c-26 0 -47 12 -56 43l-146 485
c-40 -164 -101 -365 -171 -519c-16 -5 -38 -9 -58 -9c-27 0 -46 11 -56 43l-212 645c13 7 39 12 67 12s54 -10 63 -37zM344 832c0 38 18 58 58 58c38 0 58 -20 58 -58c0 -40 -20 -58 -58 -58c-39 0 -58 19 -58 58zM551 832c0 38 18 58 58 58c38 0 58 -20 58 -58
c0 -40 -20 -58 -58 -58c-39 0 -58 19 -58 58z" />
    <glyph glyph-name="wdieresis" unicode="&#x1e85;" horiz-adv-x="778" 
d="M493 9l-93 271c-19 -75 -53 -160 -87 -219c-24 -42 -47 -61 -78 -61c-18 0 -29 4 -38 10l-130 377c-4 12 -11 19 -23 19h-28c-4 11 -6 22 -6 37c0 30 18 47 70 47c54 0 70 -22 89 -79l87 -268c49 98 76 199 80 332c16 12 37 15 53 15c29 0 44 -15 53 -40l107 -311
c53 71 89 183 89 241c0 16 -10 26 -24 26h-30c-3 9 -7 20 -7 36c0 29 29 48 79 48c61 0 82 -34 82 -88c0 -119 -124 -402 -203 -402c-19 0 -32 3 -42 9zM222 623c0 38 18 58 58 58c38 0 58 -20 58 -58c0 -40 -20 -58 -58 -58c-39 0 -58 19 -58 58zM429 623c0 38 18 58 58 58
c38 0 58 -20 58 -58c0 -40 -20 -58 -58 -58c-39 0 -58 19 -58 58z" />
    <glyph glyph-name="Ygrave" unicode="&#x1ef2;" horiz-adv-x="574" 
d="M352 237v-225c-10 -6 -31 -12 -62 -12s-48 10 -48 37v197c-93 141 -182 305 -224 451c15 9 36 15 61 15c30 0 59 -6 68 -34c41 -127 89 -222 158 -331c73 120 139 275 156 359c12 4 36 6 57 6c23 0 38 -16 38 -38c0 -78 -125 -313 -204 -425zM378 787
c-5 -22 -21 -36 -44 -36c-43 0 -121 83 -172 113c2 24 14 44 50 44c48 0 136 -106 166 -121z" />
    <glyph glyph-name="ygrave" unicode="&#x1ef3;" horiz-adv-x="534" 
d="M28 -120h50c74 0 117 58 166 140c-31 4 -50 37 -63 72l-110 290c-7 17 -13 24 -26 24h-37c-4 9 -6 22 -6 33c0 31 24 51 82 51s81 -44 100 -98l90 -256c5 -13 9 -20 18 -23c51 102 99 215 99 264c0 18 -8 29 -24 29h-35c-3 7 -6 20 -6 33c0 30 29 51 77 51
c69 0 95 -33 95 -86c0 -88 -89 -281 -161 -412c-77 -139 -150 -201 -240 -201c-65 0 -77 26 -77 54c0 10 2 20 8 35zM343 578c-5 -22 -21 -36 -44 -36c-43 0 -121 83 -172 113c2 24 14 44 50 44c48 0 136 -106 166 -121z" />
    <glyph glyph-name="endash" unicode="&#x2013;" horiz-adv-x="512" 
d="M413 213h-351c-7 15 -12 28 -12 55c0 26 12 49 44 49h358c7 -12 10 -31 10 -51c0 -24 -8 -53 -49 -53z" />
    <glyph glyph-name="emdash" unicode="&#x2014;" horiz-adv-x="661" 
d="M571 213h-509c-7 15 -12 32 -12 53c0 24 12 51 46 51h504c6 -7 11 -29 11 -49c0 -24 -9 -55 -40 -55z" />
    <glyph glyph-name="quoteleft" unicode="&#x2018;" horiz-adv-x="200" 
d="M104 590c39 0 58 -20 58 -59c0 -40 -20 -60 -60 -60c-39 0 -64 21 -64 87c0 96 31 142 65 142c22 0 32 -6 35 -22c-23 -17 -34 -68 -34 -88z" />
    <glyph glyph-name="quoteright" unicode="&#x2019;" horiz-adv-x="200" 
d="M96 581c-39 0 -58 20 -58 59c0 40 20 60 60 60s64 -21 64 -87c0 -96 -31 -142 -65 -142c-22 0 -32 6 -35 23c23 16 34 68 34 87z" />
    <glyph glyph-name="quotesinglbase" unicode="&#x201a;" horiz-adv-x="200" 
d="M96 0c-39 0 -58 20 -58 59c0 40 20 60 60 60s64 -21 64 -87c0 -96 -31 -142 -65 -142c-22 0 -32 6 -35 22c23 17 34 68 34 88z" />
    <glyph glyph-name="quotedblleft" unicode="&#x201c;" horiz-adv-x="363" 
d="M102 591c39 0 58 -20 58 -59c0 -41 -20 -60 -60 -60s-64 21 -64 87c0 95 31 142 65 142c22 0 32 -6 35 -23c-23 -17 -34 -68 -34 -87zM269 591c39 0 58 -20 58 -59c0 -41 -20 -60 -60 -60c-39 0 -64 21 -64 87c0 95 31 142 65 142c23 0 32 -6 35 -23
c-23 -17 -34 -68 -34 -87z" />
    <glyph glyph-name="quotedblright" unicode="&#x201d;" horiz-adv-x="363" 
d="M94 582c-39 0 -58 20 -58 59c0 40 20 60 60 60s64 -21 64 -87c0 -96 -31 -142 -65 -142c-22 0 -32 6 -35 23c23 16 34 68 34 87zM261 582c-39 0 -58 20 -58 59c0 40 20 60 60 60s64 -21 64 -87c0 -96 -31 -142 -65 -142c-22 0 -32 6 -35 23c23 16 34 68 34 87z" />
    <glyph glyph-name="quotedblbase" unicode="&#x201e;" horiz-adv-x="363" 
d="M94 0c-39 0 -58 20 -58 59c0 40 20 60 60 60s64 -21 64 -87c0 -96 -31 -142 -65 -142c-22 0 -32 6 -35 22c23 17 34 68 34 88zM261 0c-39 0 -58 20 -58 59c0 40 20 60 60 60s64 -21 64 -87c0 -96 -31 -142 -65 -142c-22 0 -32 6 -35 22c23 17 34 68 34 88z" />
    <glyph glyph-name="dagger" unicode="&#x2020;" horiz-adv-x="465" 
d="M389 420h-102v-514c-14 -8 -33 -12 -63 -12c-37 0 -47 24 -47 65v461h-139c-7 15 -12 28 -12 55c0 31 16 49 60 49h91v178c11 6 34 10 58 10c31 0 52 -10 52 -38v-150h141c7 -12 11 -31 11 -51c0 -26 -12 -53 -50 -53z" />
    <glyph glyph-name="daggerdbl" unicode="&#x2021;" horiz-adv-x="465" 
d="M389 74h-102v-168c-14 -8 -33 -12 -63 -12c-34 0 -47 21 -47 60v120h-139c-7 14 -12 28 -12 54c0 34 17 49 60 49h91v243h-139c-7 15 -12 28 -12 55c0 23 13 49 44 49h107v178c11 6 34 10 58 10c31 0 52 -10 52 -38v-150h141c7 -12 11 -31 11 -51c0 -34 -15 -53 -66 -53
h-86v-243h141c7 -12 10 -32 10 -51c0 -24 -9 -52 -49 -52z" />
    <glyph glyph-name="bullet" unicode="&#x2022;" horiz-adv-x="280" 
d="M53 263c0 60 28 90 88 90c59 0 89 -30 89 -90c0 -59 -30 -87 -89 -87s-88 29 -88 87z" />
    <glyph glyph-name="ellipsis" unicode="&#x2026;" horiz-adv-x="590" 
d="M38 59c0 40 19 60 60 60c39 0 59 -20 59 -60s-20 -59 -59 -59c-41 0 -60 20 -60 59zM236 59c0 40 19 60 59 60c39 0 60 -20 60 -60s-21 -59 -60 -59c-40 0 -59 20 -59 59zM433 59c0 40 19 60 59 60s60 -20 60 -60s-20 -59 -60 -59s-59 20 -59 59z" />
    <glyph glyph-name="perthousand" unicode="&#x2030;" horiz-adv-x="1235" 
d="M561 700c32 0 48 -15 38 -43l-248 -650c-9 -5 -15 -9 -39 -9c-31 0 -48 14 -32 56l240 640c12 4 21 6 41 6zM515 204c0 149 74 210 163 210c94 0 164 -61 164 -210c0 -151 -71 -207 -163 -207s-164 59 -164 207zM593 202c0 -105 43 -142 86 -142c48 0 84 35 84 142
c0 105 -38 146 -85 146c-44 0 -85 -41 -85 -146zM880 204c0 149 73 210 162 210c94 0 165 -61 165 -210c0 -151 -72 -207 -164 -207s-163 59 -163 207zM957 202c0 -105 43 -142 86 -142c49 0 85 35 85 142c0 105 -39 146 -86 146c-43 0 -85 -41 -85 -146zM32 490
c0 149 73 211 163 211c94 0 164 -62 164 -211c0 -150 -71 -207 -163 -207c-93 0 -164 59 -164 207zM109 488c0 -105 43 -142 87 -142c48 0 84 35 84 142c0 105 -38 146 -85 146c-44 0 -86 -41 -86 -146z" />
    <glyph glyph-name="guilsinglleft" unicode="&#x2039;" horiz-adv-x="290" 
d="M50 297l128 145c11 12 22 15 31 15c28 0 48 -25 48 -46c0 -16 -6 -26 -15 -37l-112 -131l111 -134c11 -14 14 -22 14 -33c0 -26 -26 -43 -47 -43c-15 0 -28 5 -41 20l-118 141c-12 15 -19 30 -19 52c0 20 9 38 20 51z" />
    <glyph glyph-name="guilsinglright" unicode="&#x203a;" horiz-adv-x="290" 
d="M239 193l-127 -145c-11 -12 -22 -15 -31 -15c-29 0 -48 25 -48 46c0 16 5 26 14 37l113 131l-112 134c-10 14 -13 23 -13 34c0 25 26 42 47 42c15 0 28 -5 40 -20l119 -141c11 -15 18 -30 18 -51s-8 -39 -20 -52z" />
    <glyph glyph-name="fraction" unicode="&#x2044;" horiz-adv-x="172" 
d="M207 700c33 0 49 -15 38 -43l-247 -650c-10 -5 -16 -9 -40 -9c-31 0 -47 14 -31 56l239 640c12 4 21 6 41 6z" />
    <glyph glyph-name="Euro" unicode="&#x20ac;" horiz-adv-x="691" 
d="M395 233h-164c26 -101 93 -136 176 -136c77 0 150 37 175 84c4 1 8 1 13 1c25 0 60 -13 60 -45c0 -63 -106 -141 -248 -141c-145 0 -257 67 -290 237h-86c-6 11 -10 19 -10 34c0 31 1 51 56 51h30c-1 9 -1 18 -1 29c0 10 1 20 1 30h-77c-7 12 -10 21 -10 38
c0 29 7 47 57 47h39c34 169 137 245 309 245c103 0 208 -37 208 -101c0 -27 -22 -52 -49 -61c-47 41 -97 59 -172 59c-93 0 -156 -44 -182 -142h256c6 -6 10 -14 10 -30c0 -26 -10 -55 -61 -55h-220v-59h231c5 -6 9 -13 9 -31c0 -24 -8 -54 -60 -54z" />
    <glyph glyph-name="trademark" unicode="&#x2122;" horiz-adv-x="737" 
d="M523 354c-21 0 -37 6 -47 38l-66 177l-14 -204c-1 -20 -15 -27 -38 -27c-13 0 -28 1 -35 6l24 296c3 33 16 62 52 62c17 0 24 -2 35 -6l88 -243l60 197c8 31 26 52 52 52c23 0 31 -2 44 -8l50 -347c-9 -5 -23 -9 -40 -9c-20 0 -36 5 -38 27l-22 205l-57 -178
c-10 -37 -28 -38 -48 -38zM279 635h-91v-291c-8 -5 -21 -6 -40 -6c-21 0 -32 14 -32 42v255h-107c-5 9 -8 21 -8 33c0 24 16 34 41 34h253c3 -5 8 -14 8 -29c0 -21 -9 -38 -24 -38z" />
    <glyph glyph-name="Omega" unicode="&#x2126;" horiz-adv-x="698" 
d="M197 86l1 4c-75 36 -145 127 -145 271c0 239 128 349 297 349c172 0 295 -109 295 -348c0 -138 -61 -233 -142 -272l1 -4l147 2c6 -7 12 -13 12 -35c0 -31 -13 -53 -38 -53h-239c-7 13 -13 27 -13 61c0 25 5 47 19 49c85 6 143 85 143 249c0 174 -78 254 -185 254
s-189 -79 -189 -252c0 -165 85 -243 158 -252c6 -8 12 -30 12 -53c0 -31 -13 -56 -38 -56h-246c-7 13 -13 23 -13 43c0 29 14 45 60 45z" />
    <glyph glyph-name="partialdiff" unicode="&#x2202;" horiz-adv-x="579" 
d="M529 430c0 -281 -119 -440 -267 -440c-125 0 -212 66 -212 227c0 196 110 283 250 283c43 0 86 -11 121 -39c-5 155 -49 255 -157 255c-46 0 -114 -9 -152 -29c-8 10 -15 22 -15 40c0 14 4 33 19 42c36 21 90 35 159 35c186 0 254 -180 254 -374zM294 402
c-74 0 -132 -55 -132 -180c0 -100 45 -136 102 -136c72 0 140 104 154 270c-30 32 -71 46 -124 46z" />
    <glyph glyph-name="Delta" unicode="&#x2206;" horiz-adv-x="626" 
d="M64 0c-28 0 -48 5 -59 15l236 628c15 43 39 57 74 57c34 0 63 -33 80 -78l226 -598c-11 -20 -29 -24 -50 -24h-507zM315 548l-169 -453h342z" />
    <glyph glyph-name="product" unicode="&#x220f;" horiz-adv-x="767" 
d="M705 596h-83v-798c-8 -6 -34 -11 -53 -11c-30 0 -58 7 -58 52v757h-256v-796c-7 -7 -36 -13 -62 -13c-24 0 -48 7 -48 52v757h-109c-7 15 -13 26 -13 47c0 33 7 57 59 57h649c6 -8 12 -21 12 -45c0 -34 -13 -59 -38 -59z" />
    <glyph glyph-name="summation" unicode="&#x2211;" horiz-adv-x="681" 
d="M593 -189h-547c-8 15 -13 23 -13 50c0 13 1 24 9 31l285 370l-266 337c-4 14 -7 25 -7 46c0 32 7 55 57 55h511c6 -8 8 -13 8 -35c0 -28 -9 -66 -59 -66h-364l252 -315c0 -10 -4 -23 -17 -43l-249 -336h451c6 -6 11 -26 11 -40c0 -29 -11 -54 -62 -54z" />
    <glyph glyph-name="minus" unicode="&#x2212;" horiz-adv-x="512" 
d="M413 213h-351c-7 15 -12 28 -12 55c0 26 12 49 44 49h358c7 -12 10 -31 10 -51c0 -24 -8 -53 -49 -53z" />
    <glyph glyph-name="radical" unicode="&#x221a;" horiz-adv-x="629" 
d="M40 364h210l84 -254l167 556c7 22 23 34 58 34c29 0 43 -5 63 -16l-216 -672c-18 -7 -46 -12 -86 -12c-44 0 -64 18 -75 53l-77 216h-108c-19 0 -31 19 -31 48c0 16 5 33 11 47z" />
    <glyph glyph-name="infinity" unicode="&#x221e;" horiz-adv-x="699" 
d="M508 76c-71 0 -118 45 -153 110c-35 -57 -91 -110 -160 -110c-88 0 -159 75 -159 190c0 118 66 199 158 199c70 0 120 -45 157 -110c31 61 76 110 157 110c79 0 155 -61 155 -196c0 -128 -66 -193 -155 -193zM200 176c56 0 93 47 113 96c-29 57 -66 94 -111 94
c-46 0 -75 -45 -75 -95c0 -51 31 -95 73 -95zM502 366c-48 0 -84 -39 -110 -98c25 -50 62 -92 111 -92c43 0 70 40 70 93c0 60 -27 97 -71 97z" />
    <glyph glyph-name="integral" unicode="&#x222b;" horiz-adv-x="381" 
d="M214 718c0 -241 56 -485 56 -702c0 -155 -72 -196 -161 -196c-75 0 -99 19 -99 50c0 17 4 31 9 44h78c34 0 65 12 67 87c6 239 -57 491 -57 721c0 130 72 168 163 168c82 0 101 -25 101 -50c0 -21 -3 -30 -8 -46h-80c-39 0 -69 -12 -69 -76z" />
    <glyph glyph-name="approxequal" unicode="&#x2248;" horiz-adv-x="512" 
d="M149 233c78 0 137 -35 201 -35c52 0 73 19 79 28c13 -6 30 -30 30 -57c0 -36 -31 -71 -91 -71c-68 0 -159 34 -224 34c-31 0 -58 -15 -62 -31c-23 7 -30 33 -30 55c0 37 32 77 97 77zM149 429c77 0 136 -36 201 -36c52 0 73 19 78 28c14 -6 30 -30 30 -57
c0 -36 -31 -71 -90 -71c-68 0 -159 34 -224 34c-31 0 -59 -15 -63 -30c-22 6 -29 32 -29 55c0 37 31 77 97 77z" />
    <glyph glyph-name="notequal" unicode="&#x2260;" horiz-adv-x="512" 
d="M413 99h-175l-47 -124c-8 -5 -27 -8 -47 -8c-26 0 -39 12 -26 47l32 85h-88c-7 14 -12 28 -12 55c0 26 12 49 44 49h95l36 98h-163c-7 14 -12 28 -12 55c0 26 12 49 44 49h170l51 133c10 5 24 6 41 6c26 0 47 -12 39 -36l-40 -103h97c7 -13 10 -32 10 -51
c0 -25 -8 -53 -49 -53h-98l-37 -98h174c7 -13 10 -32 10 -51c0 -25 -8 -53 -49 -53z" />
    <glyph glyph-name="lessequal" unicode="&#x2264;" horiz-adv-x="512" 
d="M413 -13h-351c-7 11 -12 23 -12 45s12 41 44 41h358c7 -10 10 -26 10 -42c0 -21 -8 -44 -49 -44zM136 406l179 157c22 20 35 19 48 15c20 -3 35 -24 45 -51l-205 -181l199 -179c-10 -27 -30 -49 -50 -52c-16 -4 -29 0 -46 16l-179 159c-17 16 -26 34 -26 56
c0 24 11 38 35 60z" />
    <glyph glyph-name="greaterequal" unicode="&#x2265;" horiz-adv-x="512" 
d="M450 -13h-351c-41 0 -49 23 -49 44c0 16 4 32 10 42h359c31 0 43 -19 43 -41s-5 -34 -12 -45zM198 563l178 -157c25 -22 36 -36 36 -60c0 -22 -10 -40 -27 -56l-178 -159c-18 -16 -31 -20 -47 -16c-20 3 -40 25 -49 52l198 179l-204 181c9 27 25 48 45 51
c12 4 26 5 48 -15z" />
    <glyph glyph-name="lozenge" unicode="&#x25ca;" horiz-adv-x="423" 
d="M400 350l-136 -307c-15 -34 -36 -43 -69 -43c-14 0 -30 3 -40 9l-132 351l138 297c16 34 37 43 70 43c13 0 29 -3 39 -9zM129 360l83 -221l84 202l-83 220z" />
    <glyph glyph-name="AEacute" unicode="&#x1fc;" horiz-adv-x="910" 
d="M773 306h-239v-205h317c6 -8 12 -20 12 -43c0 -34 -13 -58 -38 -58h-354c-23 0 -48 6 -48 50v103h-251l-46 -117c-11 -27 -27 -36 -63 -36c-28 0 -48 4 -58 15l263 667c21 14 50 18 82 18h501c6 -8 12 -22 12 -45c0 -34 -13 -56 -38 -56h-291v-192h262
c6 -7 13 -25 13 -48c0 -35 -14 -53 -36 -53zM345 599l-137 -350h215v350h-78zM458 789c30 15 118 121 166 121c35 0 48 -20 49 -44c-50 -30 -128 -112 -171 -112c-23 0 -40 13 -44 35z" />
    <glyph glyph-name="aeacute" unicode="&#x1fd;" horiz-adv-x="776" 
d="M82 373c-8 12 -16 28 -16 45c0 61 100 82 169 82c67 0 128 -19 152 -72c41 47 99 72 159 72c123 0 190 -90 190 -216c0 -23 -2 -46 -8 -63h-301c7 -87 53 -137 129 -137c60 0 115 19 152 43c10 -8 20 -22 20 -44c0 -50 -68 -93 -187 -93c-79 0 -141 35 -178 95
c-55 -53 -131 -95 -200 -95c-90 0 -137 62 -137 155c0 71 36 124 109 139c52 11 123 9 184 12c-4 83 -33 109 -95 109c-56 0 -112 -16 -142 -32zM181 82c50 0 97 24 151 71c-7 21 -10 45 -10 68l-140 -15c-43 -5 -60 -27 -60 -61c0 -33 20 -63 59 -63zM545 406
c-54 0 -101 -38 -117 -112h209c0 68 -29 112 -92 112zM336 583c30 15 118 121 166 121c35 0 48 -20 49 -44c-50 -30 -128 -112 -171 -112c-23 0 -40 13 -44 35z" />
    <glyph glyph-name="Oslashacute" unicode="&#x1fe;" horiz-adv-x="701" 
d="M52 350c0 250 130 360 300 360c38 0 73 -5 105 -17l48 112c12 4 29 5 39 5c23 0 37 -16 37 -29c0 -7 -1 -14 -3 -18l-47 -109c73 -55 118 -155 118 -304c0 -258 -127 -360 -297 -360c-35 0 -69 5 -101 14l-55 -132c-11 -3 -19 -3 -30 -3c-20 0 -44 12 -44 29
c0 6 1 13 5 22l52 121c-79 53 -127 152 -127 309zM166 347c0 -98 20 -162 59 -203l189 452c-19 8 -40 11 -62 11c-107 0 -186 -75 -186 -260zM535 347c0 90 -18 161 -53 201l-187 -448c18 -5 38 -7 58 -7c109 0 182 63 182 254zM271 795c30 15 118 121 166 121
c35 0 48 -20 49 -44c-50 -30 -128 -112 -171 -112c-23 0 -40 13 -44 35z" />
    <glyph glyph-name="oslashacute" unicode="&#x1ff;" horiz-adv-x="551" 
d="M46 243c0 178 99 257 231 257c19 0 37 -2 54 -5c13 39 25 78 39 117c9 3 19 5 29 5c16 0 26 -5 26 -17c0 -28 -25 -87 -38 -123c73 -34 118 -110 118 -234c0 -183 -98 -253 -230 -253c-18 0 -35 2 -51 5l-31 -94c-10 -6 -16 -7 -32 -7c-14 0 -23 6 -23 17
c0 27 18 67 29 99c-74 33 -121 107 -121 233zM158 242c0 -67 16 -105 44 -130l96 288c-4 1 -10 2 -14 2c-73 0 -126 -46 -126 -160zM394 242c0 62 -15 108 -43 133l-94 -286c3 0 7 -1 10 -1c73 0 127 33 127 154zM181 580c30 15 118 121 166 121c35 0 48 -20 49 -44
c-50 -30 -128 -112 -171 -112c-23 0 -40 13 -44 35z" />
    <glyph glyph-name="Tcommaaccent" unicode="&#x162;" horiz-adv-x="568" 
d="M518 597h-178v-587c-12 -7 -34 -10 -63 -10c-26 0 -48 12 -48 51v546h-205c-7 14 -12 32 -12 52c0 26 12 51 52 51h480c6 -8 12 -23 12 -45c0 -34 -13 -58 -38 -58zM284 -180c-35 0 -51 18 -51 53c0 36 17 54 53 54c35 0 57 -19 57 -78c0 -86 -27 -127 -58 -127
c-20 0 -28 5 -31 20c20 16 30 61 30 78z" />
    <glyph glyph-name="tcommaaccent" unicode="&#x163;" horiz-adv-x="377" 
d="M308 401h-100v-245c0 -51 17 -64 52 -64h91c4 -9 7 -16 7 -31c0 -34 -26 -61 -136 -61c-68 0 -122 30 -122 134v267h-59c-6 10 -10 23 -10 39c0 32 9 50 40 50h29v120c11 6 33 11 56 11c27 0 52 -12 52 -44v-87h135c8 -7 11 -19 11 -35c0 -21 -7 -54 -46 -54zM184 -160
c-35 0 -51 18 -51 53c0 36 17 54 53 54c35 0 57 -19 57 -78c0 -86 -27 -127 -58 -127c-20 0 -28 5 -31 20c20 16 30 61 30 78z" />
    <glyph glyph-name="uni1E8A" unicode="&#x1e8a;" horiz-adv-x="632" 
d="M95 700c43 0 61 -21 86 -56l138 -196l147 212c18 27 39 40 78 40c35 0 51 -9 60 -22l-222 -320l239 -341c-16 -10 -28 -17 -69 -17c-32 0 -66 16 -88 47l-155 220l-163 -233c-16 -23 -44 -34 -76 -34c-31 0 -45 9 -56 23l230 336l-218 313c11 16 29 28 69 28zM260 828
c0 39 19 58 58 58c38 0 58 -19 58 -58s-20 -58 -58 -58c-39 0 -58 20 -58 58z" />
    <glyph glyph-name="uni1E8B" unicode="&#x1e8b;" horiz-adv-x="505" 
d="M114 490c46 0 65 -19 88 -56l62 -100l79 111c23 33 41 45 68 45c45 0 59 -32 59 -63l-155 -177l77 -124c20 -32 34 -41 54 -41h39c5 -10 6 -19 6 -34c0 -31 -27 -51 -86 -51c-36 0 -70 17 -91 51l-71 114l-88 -125c-19 -27 -40 -40 -70 -40c-38 0 -53 27 -56 62l164 184
l-90 144c-7 10 -16 16 -31 16h-41c-3 9 -5 19 -5 31c0 34 40 53 88 53zM205 619c0 39 19 58 58 58c38 0 58 -19 58 -58s-20 -58 -58 -58c-39 0 -58 20 -58 58z" />
    <glyph glyph-name="aringacute" unicode="&#x1fb;" horiz-adv-x="568" 
d="M462 0c-35 0 -66 14 -81 45c-37 -35 -82 -55 -138 -55c-95 0 -197 70 -197 254c0 181 97 256 196 256c61 0 99 -25 124 -56v18c0 21 23 31 45 31c23 0 46 -6 61 -13v-367c0 -25 11 -33 40 -33h20c4 -10 7 -18 7 -34c0 -25 -25 -46 -77 -46zM266 88c43 0 74 15 98 34v217
c-23 34 -51 63 -100 63c-52 0 -106 -49 -106 -157c0 -110 46 -157 108 -157zM191 622c0 61 30 91 91 91c60 0 90 -32 90 -91s-30 -91 -90 -91c-61 0 -91 32 -91 91zM240 622c0 -26 14 -41 42 -41c27 0 41 15 41 41s-14 42 -41 42c-28 0 -42 -14 -42 -42zM212 778
c30 15 118 121 166 121c35 0 48 -20 49 -44c-50 -30 -128 -112 -171 -112c-23 0 -40 13 -44 35z" />
    <glyph glyph-name="idotaccent" horiz-adv-x="295" 
d="M113 490c49 0 89 -16 89 -96v-284c0 -20 8 -28 22 -28h31c5 -8 7 -17 7 -33c0 -30 -25 -49 -86 -49c-53 0 -82 21 -82 88v276c0 23 -11 30 -25 30h-29c-4 9 -6 21 -6 39c0 41 31 57 79 57zM72 624c0 42 20 63 63 63c42 0 64 -21 64 -63c0 -43 -22 -63 -64 -63
s-63 21 -63 63z" />
    <glyph glyph-name="braceleft.case" horiz-adv-x="353" 
d="M217 763c67 0 103 -18 103 -62c0 -15 -3 -26 -7 -35h-77c-33 0 -51 -22 -51 -58v-171c0 -67 -34 -83 -49 -85v-6c14 -1 49 -22 49 -87v-161c0 -44 20 -59 49 -59h79c4 -7 7 -19 7 -33c0 -40 -36 -61 -113 -61c-55 0 -118 30 -118 114v190c0 43 -20 52 -39 55
c-16 2 -25 18 -25 47c0 17 2 33 7 39c29 0 57 16 57 54v187c0 103 64 132 128 132z" />
    <glyph glyph-name="braceright.case" horiz-adv-x="353" 
d="M136 -59c-67 0 -103 18 -103 62c0 14 3 26 7 35h77c33 0 51 22 51 58v170c0 68 34 84 49 86v5c-14 1 -49 22 -49 88v161c0 44 -20 59 -49 59h-79c-4 7 -7 18 -7 32c0 41 36 62 113 62c55 0 118 -30 118 -114v-190c0 -43 20 -52 39 -55c16 -2 25 -18 25 -47
c0 -17 -2 -33 -7 -39c-29 0 -57 -16 -57 -54v-187c0 -103 -64 -132 -128 -132z" />
    <glyph glyph-name="bracketleft.case" horiz-adv-x="344" 
d="M58 5v749c15 11 38 16 69 16h172c5 -8 12 -22 12 -46c0 -34 -12 -51 -36 -51h-111v-624h135c5 -8 12 -19 12 -42c0 -34 -13 -55 -37 -55h-204c-7 14 -12 31 -12 53z" />
    <glyph glyph-name="bracketright.case" horiz-adv-x="344" 
d="M287 717v-749c-16 -11 -39 -16 -69 -16h-172c-6 8 -12 22 -12 46c0 34 11 51 35 51h112v624h-135c-6 8 -12 23 -12 45c0 35 13 52 36 52h204c7 -14 13 -31 13 -53z" />
    <glyph glyph-name="parenleft.case" horiz-adv-x="271" 
d="M29 355c0 266 85 404 164 404c29 0 55 -16 61 -48c-55 -44 -117 -141 -117 -355c0 -205 55 -313 122 -366c-7 -32 -28 -49 -62 -49c-83 0 -168 159 -168 414z" />
    <glyph glyph-name="parenright.case" horiz-adv-x="271" 
d="M242 346c0 -265 -85 -403 -164 -403c-29 0 -55 15 -61 48c55 44 116 141 116 355c0 205 -55 313 -121 366c7 32 27 49 61 49c84 0 169 -159 169 -415z" />
    <glyph glyph-name="hyphen.case" horiz-adv-x="424" 
d="M311 294h-248c-6 14 -12 28 -12 47c0 33 6 57 59 57h252c6 -8 11 -19 11 -40c0 -25 -10 -64 -62 -64z" />
    <glyph glyph-name="emdash.case" horiz-adv-x="661" 
d="M549 291h-487c-6 13 -12 25 -12 46c0 33 6 57 59 57h491c6 -7 11 -19 11 -40c0 -24 -10 -63 -62 -63z" />
    <glyph glyph-name="endash.case" horiz-adv-x="512" 
d="M401 297h-339c-6 14 -12 26 -12 47c0 33 6 56 59 56h343c5 -7 10 -18 10 -40c0 -24 -9 -63 -61 -63z" />
    <glyph glyph-name="exclamdown.case" horiz-adv-x="225" 
d="M117 0c-29 0 -59 10 -59 40v473c7 7 30 14 55 14c32 0 55 -15 55 -59v-458c-10 -6 -24 -10 -51 -10zM171 641c0 -40 -18 -60 -59 -60c-39 0 -59 20 -59 60s20 59 59 59c40 0 59 -20 59 -59z" />
    <glyph glyph-name="questiondown.case" horiz-adv-x="495" 
d="M149 229c0 -74 44 -119 118 -119c69 0 130 43 158 81c21 -12 37 -32 37 -64c0 -50 -65 -127 -202 -127c-148 0 -223 92 -223 207s70 190 196 205l-7 112c9 10 24 14 51 14c28 0 45 -16 46 -41l5 -111c1 -19 -3 -32 -11 -42c-70 -2 -168 -31 -168 -115zM328 640
c0 -39 -19 -59 -60 -59c-39 0 -59 20 -59 59c0 41 20 60 59 60c40 0 60 -20 60 -60z" />
    <glyph glyph-name="guillemotleft.case" horiz-adv-x="501" 
d="M50 402l128 145c11 12 22 15 31 15c28 0 48 -25 48 -46c0 -16 -6 -26 -15 -37l-112 -131l111 -134c11 -14 14 -22 14 -33c0 -26 -26 -43 -47 -43c-15 0 -28 5 -41 20l-118 141c-12 15 -19 30 -19 52c0 20 9 38 20 51zM262 402l127 145c11 12 22 15 32 15
c28 0 48 -25 48 -46c0 -16 -6 -26 -15 -37l-112 -131l111 -134c11 -14 14 -22 14 -33c0 -26 -27 -43 -48 -43c-14 0 -27 5 -40 20l-118 141c-12 15 -19 30 -19 52c0 20 9 38 20 51z" />
    <glyph glyph-name="guillemotright.case" horiz-adv-x="501" 
d="M239 297l-127 -145c-11 -12 -22 -15 -31 -15c-29 0 -48 25 -48 46c0 16 5 26 14 37l113 131l-112 134c-10 14 -13 23 -13 34c0 25 26 42 47 42c15 0 28 -5 40 -20l119 -141c11 -15 18 -30 18 -51s-8 -39 -20 -52zM451 297l-127 -145c-11 -12 -22 -15 -32 -15
c-28 0 -48 25 -48 46c0 16 6 26 15 37l112 131l-111 134c-10 14 -14 23 -14 34c0 25 27 42 48 42c14 0 28 -5 40 -20l118 -141c12 -15 19 -30 19 -51s-9 -39 -20 -52z" />
    <glyph glyph-name="guilsinglleft.case" horiz-adv-x="290" 
d="M50 402l128 145c11 12 22 15 31 15c28 0 48 -25 48 -46c0 -16 -6 -26 -15 -37l-112 -131l111 -134c11 -14 14 -22 14 -33c0 -26 -26 -43 -47 -43c-15 0 -28 5 -41 20l-118 141c-12 15 -19 30 -19 52c0 20 9 38 20 51z" />
    <glyph glyph-name="guilsinglright.case" horiz-adv-x="290" 
d="M239 297l-127 -145c-11 -12 -22 -15 -31 -15c-29 0 -48 25 -48 46c0 16 5 26 14 37l113 131l-112 134c-10 14 -13 23 -13 34c0 25 26 42 47 42c15 0 28 -5 40 -20l119 -141c11 -15 18 -30 18 -51s-8 -39 -20 -52z" />
    <glyph glyph-name="periodcentered.case" horiz-adv-x="196" 
d="M40 352c0 40 18 59 58 59c38 0 58 -19 58 -59c0 -39 -20 -57 -58 -57c-39 0 -58 19 -58 57z" />
    <glyph glyph-name="bsuperior" unicode="&#xf6ea;" horiz-adv-x="283" 
d="M93 676v-100c18 16 41 27 65 27c61 0 99 -42 99 -122c0 -93 -54 -136 -122 -136c-40 0 -66 8 -90 25c-7 5 -13 14 -13 23v300c8 4 18 7 31 7c17 0 30 -6 30 -24zM141 539c-18 0 -34 -6 -48 -16v-107c10 -7 25 -13 44 -13c37 0 57 27 57 70c0 42 -19 66 -53 66z" />
    <glyph glyph-name="asuperior" unicode="&#xf6e9;" horiz-adv-x="303" 
d="M245 350c-19 0 -35 7 -44 21c-20 -17 -43 -26 -74 -26c-51 0 -101 35 -101 125c0 91 53 133 101 133c29 0 51 -13 62 -29v6c0 14 9 22 27 22s29 -4 35 -8v-182c0 -12 5 -16 15 -16h17c2 -6 4 -10 4 -19c0 -15 -12 -27 -42 -27zM141 403c21 0 36 4 48 12v101
c-12 15 -24 26 -47 26c-26 0 -52 -24 -52 -69c0 -47 19 -70 51 -70z" />
    <glyph glyph-name="dsuperior" unicode="&#xf6eb;" horiz-adv-x="303" 
d="M245 350c-19 0 -35 7 -44 21c-20 -17 -43 -26 -74 -26c-51 0 -101 35 -101 125c0 91 53 133 106 133c24 0 43 -7 57 -18v93c0 14 9 22 27 22s29 -4 35 -8v-280c0 -12 5 -16 15 -16h17c2 -6 4 -10 4 -19c0 -15 -12 -27 -42 -27zM141 403c21 0 36 4 48 12v108
c-12 10 -24 14 -47 14c-26 0 -52 -19 -52 -64c0 -47 19 -70 51 -70z" />
    <glyph glyph-name="egravesuperior" horiz-adv-x="273" 
d="M246 457h-155c4 -37 28 -55 61 -55c34 0 69 9 83 18c6 -4 13 -13 13 -25c0 -13 -7 -22 -16 -27c-18 -14 -39 -23 -86 -23c-75 0 -120 54 -120 131c0 82 59 127 123 127c66 0 101 -45 101 -110c0 -13 -1 -26 -4 -36zM148 547c-22 0 -48 -16 -57 -48h102
c0 31 -15 48 -45 48zM208 658c-3 -14 -14 -23 -29 -23c-28 0 -80 55 -115 75c1 16 10 29 33 29c31 0 90 -70 111 -81z" />
    <glyph glyph-name="esuperior" unicode="&#xf6ec;" horiz-adv-x="273" 
d="M246 457h-155c4 -37 28 -55 61 -55c34 0 69 9 83 18c6 -4 13 -13 13 -25c0 -13 -7 -22 -16 -27c-18 -14 -39 -23 -86 -23c-75 0 -120 54 -120 131c0 82 59 127 123 127c66 0 101 -45 101 -110c0 -13 -1 -26 -4 -36zM148 547c-22 0 -48 -16 -57 -48h102
c0 31 -15 48 -45 48z" />
    <glyph glyph-name="hsuperior" unicode="&#x2b0;" horiz-adv-x="291" 
d="M64 700c16 0 30 -6 30 -23v-112c21 23 47 38 79 38c46 0 76 -25 76 -86v-112c0 -9 3 -13 9 -13h15c2 -3 3 -7 3 -15c0 -15 -17 -27 -53 -27c-23 0 -40 12 -40 45v106c0 25 -10 38 -34 38c-20 0 -40 -10 -55 -26v-157c-6 -4 -19 -6 -34 -6s-31 4 -31 29v314c7 4 20 7 35 7
z" />
    <glyph glyph-name="isuperior" unicode="&#xf6ed;" horiz-adv-x="167" 
d="M66 597c30 0 51 -12 51 -66v-120c0 -11 3 -15 11 -15h17c2 -4 3 -8 3 -16c0 -19 -12 -30 -49 -30c-33 0 -48 14 -48 62v114c0 13 -5 16 -13 16h-15c-2 4 -3 10 -3 19c0 25 13 36 46 36zM40 662c0 24 12 37 37 37c24 0 38 -13 38 -37s-14 -35 -38 -35c-25 0 -37 12 -37 35
z" />
    <glyph glyph-name="lsuperior" unicode="&#xf6ee;" horiz-adv-x="169" 
d="M96 673v-242c0 -23 8 -30 27 -30h34c2 -5 3 -9 3 -18c0 -16 -14 -33 -66 -33c-43 0 -61 26 -61 66v275c7 6 13 10 31 10c24 -1 32 -13 32 -28z" />
    <glyph glyph-name="msuperior" unicode="&#xf6ef;" horiz-adv-x="466" 
d="M71 597c25 0 44 -16 50 -43c23 31 47 48 82 48c26 0 51 -12 61 -46c24 28 52 46 86 46c38 0 70 -23 70 -79v-119c0 -8 4 -13 11 -13h18c2 -3 2 -5 2 -14c0 -17 -18 -27 -53 -27c-29 0 -44 12 -44 44v111c0 21 -9 31 -28 31c-21 0 -41 -10 -57 -25v-107c0 -8 2 -13 10 -13
h17c1 -3 2 -7 2 -15c0 -17 -20 -26 -55 -26c-27 0 -42 12 -42 44v112c0 20 -8 30 -27 30c-18 0 -36 -10 -50 -24v-156c-8 -5 -21 -6 -38 -6c-22 0 -32 7 -32 40v136c0 11 -5 16 -14 16h-17c-3 7 -5 14 -5 25c0 20 21 30 53 30z" />
    <glyph glyph-name="nsuperior" unicode="&#x207f;" horiz-adv-x="321" 
d="M69 597c24 0 44 -15 50 -39c24 28 51 44 85 44c40 0 70 -23 70 -79v-119c0 -8 5 -13 11 -13h18c2 -3 3 -5 3 -14c0 -18 -18 -27 -54 -27c-29 0 -44 12 -44 44v111c0 20 -10 32 -29 32c-22 0 -39 -10 -55 -26v-155c-8 -4 -18 -6 -33 -6c-25 0 -37 4 -37 40v136
c0 11 -5 16 -14 16h-17c-3 6 -5 12 -5 21c0 24 13 34 51 34z" />
    <glyph glyph-name="osuperior" unicode="&#xf6f0;" horiz-adv-x="297" 
d="M26 473c0 91 54 130 123 130c70 0 122 -39 122 -130c0 -93 -53 -128 -123 -128c-69 0 -122 38 -122 128zM95 472c0 -53 24 -71 53 -71c32 0 53 18 53 71c0 52 -21 73 -52 73c-30 0 -54 -21 -54 -73z" />
    <glyph glyph-name="rsuperior" unicode="&#xf6f1;" horiz-adv-x="244" 
d="M63 597c23 0 44 -10 50 -34c21 22 50 39 75 39c34 0 48 -17 48 -51c0 -38 -16 -50 -40 -50c-36 0 -17 30 -41 30c-14 0 -27 -6 -38 -17v-158c-4 -4 -20 -7 -36 -7c-20 0 -30 4 -30 37v140c0 12 -6 16 -13 16h-19c-3 8 -5 15 -5 26c0 15 18 29 49 29z" />
    <glyph glyph-name="ssuperior" unicode="&#xf6f2;" horiz-adv-x="249" 
d="M125 603c65 0 92 -24 92 -44c0 -15 -3 -28 -10 -34c-14 8 -52 15 -83 15c-28 0 -39 -7 -39 -18s13 -18 48 -22c65 -9 93 -32 93 -77c0 -48 -33 -78 -99 -78c-68 0 -104 19 -104 44c0 15 3 25 11 33c19 -10 58 -20 88 -20c34 0 44 9 44 20c0 12 -12 19 -49 23
c-68 10 -89 33 -89 79c0 47 33 79 97 79z" />
    <glyph glyph-name="tsuperior" unicode="&#xf6f3;" horiz-adv-x="210" 
d="M164 546h-47v-114c0 -22 8 -29 26 -29h46c3 -6 5 -9 5 -18c0 -19 -13 -35 -73 -35c-37 0 -66 16 -66 70v126h-31c-4 6 -6 13 -6 22c0 19 5 30 23 30h14v56c7 4 20 7 34 7c16 0 28 -8 28 -25v-38h67c5 -5 7 -11 7 -21c0 -11 -4 -31 -27 -31z" />
    <glyph glyph-name="uni2070" unicode="&#x2070;" horiz-adv-x="391" 
d="M32 489c0 149 73 210 163 210c94 0 164 -61 164 -210c0 -151 -71 -207 -163 -207c-93 0 -164 59 -164 207zM109 487c0 -105 43 -142 87 -142c48 0 84 35 84 142c0 105 -38 146 -85 146c-44 0 -86 -41 -86 -146z" />
    <glyph glyph-name="uni2074" unicode="&#x2074;" horiz-adv-x="377" 
d="M257 581c21 0 35 -6 35 -26v-128h60c4 -4 8 -15 8 -32c0 -20 -9 -30 -25 -30h-43l1 -74c-8 -4 -23 -6 -41 -6s-32 8 -32 26v54h-196c-5 6 -7 15 -7 24c0 8 3 22 7 33l89 270c8 4 22 7 42 7c21 0 31 -13 26 -28l-77 -244h116l-1 145c9 5 22 9 38 9z" />
    <glyph glyph-name="uni2075" unicode="&#x2075;" horiz-adv-x="350" 
d="M288 626h-173l-5 -97c18 6 41 11 69 11c77 0 146 -34 146 -128c0 -73 -55 -133 -158 -133c-108 0 -145 47 -145 79c0 17 11 31 30 41c15 -24 49 -57 112 -57c55 0 86 26 86 73c0 46 -39 65 -98 65c-36 0 -59 -7 -90 -7c-15 0 -24 12 -24 31l9 183c11 6 23 8 46 8h212
c4 -5 8 -14 8 -29c0 -23 -9 -40 -25 -40z" />
    <glyph glyph-name="uni2076" unicode="&#x2076;" horiz-adv-x="364" 
d="M32 495c0 131 65 206 174 206c64 0 115 -18 115 -51c0 -17 -9 -35 -21 -40c-18 9 -50 22 -92 22c-68 0 -95 -40 -99 -116c26 12 56 20 90 20c81 0 142 -29 142 -121c0 -69 -39 -136 -148 -136c-94 0 -161 54 -161 216zM191 479c-34 0 -62 -8 -82 -19
c3 -83 28 -116 83 -116c50 0 74 28 74 68c0 50 -29 67 -75 67z" />
    <glyph glyph-name="uni2077" unicode="&#x2077;" horiz-adv-x="322" 
d="M131 285c-25 0 -34 13 -28 28l114 315h-205c-4 5 -8 15 -8 35c0 17 9 36 25 36h272c4 -7 6 -16 6 -25c0 -11 -3 -26 -8 -40l-128 -343c-8 -4 -19 -6 -40 -6z" />
    <glyph glyph-name="uni2078" unicode="&#x2078;" horiz-adv-x="359" 
d="M27 404c0 47 27 81 64 99c-28 18 -47 45 -47 88c0 69 45 109 132 109c90 0 138 -37 138 -109c0 -39 -21 -68 -50 -86c40 -17 68 -46 68 -103c0 -64 -44 -123 -150 -123c-107 0 -155 52 -155 125zM167 472l-20 -4c-26 -11 -45 -31 -45 -64c0 -35 29 -61 79 -61
c53 0 78 23 78 59c0 42 -41 56 -92 70zM113 591c0 -39 41 -68 82 -68c29 9 52 33 52 67s-28 53 -66 53c-40 0 -68 -19 -68 -52z" />
    <glyph glyph-name="uni2079" unicode="&#x2079;" horiz-adv-x="361" 
d="M329 485c0 -142 -65 -206 -164 -206c-83 0 -133 29 -133 59c0 17 7 29 17 37c18 -9 61 -27 101 -27c70 0 97 32 101 114c-27 -16 -57 -23 -94 -23c-67 0 -135 31 -135 117c0 82 42 145 147 145c96 0 160 -46 160 -216zM165 499c38 0 65 8 86 20c-4 83 -27 117 -76 117
c-53 0 -80 -27 -80 -73c0 -45 31 -64 70 -64z" />
    <glyph glyph-name="uni2080" unicode="&#x2080;" horiz-adv-x="391" 
d="M32 74c0 149 73 210 163 210c94 0 164 -61 164 -210c0 -151 -71 -207 -163 -207c-93 0 -164 59 -164 207zM109 72c0 -105 43 -142 87 -142c48 0 84 35 84 142c0 105 -38 146 -85 146c-44 0 -86 -41 -86 -146z" />
    <glyph glyph-name="uni2081" unicode="&#x2081;" horiz-adv-x="336" 
d="M297 -130h-248c-5 10 -9 18 -9 32c0 22 4 37 42 37h67v245c-26 -19 -58 -28 -82 -28c-19 0 -32 12 -32 35c0 13 2 21 8 30c45 3 94 28 106 59c8 4 24 6 39 6c23 0 37 -9 37 -27v-320h89c4 -5 9 -15 9 -29c0 -23 -9 -40 -26 -40z" />
    <glyph glyph-name="uni2082" unicode="&#x2082;" horiz-adv-x="351" 
d="M26 213c0 32 48 70 137 70c102 0 150 -49 150 -120c0 -92 -109 -178 -189 -224v-4l199 3c3 -6 5 -20 5 -35c0 -23 -6 -33 -25 -33h-273c-5 9 -8 17 -8 39c0 20 4 36 24 51c66 48 186 131 186 191c0 39 -27 58 -74 58c-44 0 -87 -18 -107 -40c-14 9 -25 23 -25 44z" />
    <glyph glyph-name="uni2083" unicode="&#x2083;" horiz-adv-x="342" 
d="M221 156c0 32 -23 52 -69 52c-42 0 -81 -15 -102 -36c-14 9 -24 20 -24 41c0 32 42 70 130 70c100 0 143 -50 143 -112c0 -43 -28 -83 -67 -92v-1c40 -5 78 -38 78 -95c0 -59 -43 -118 -152 -118c-104 0 -138 45 -138 77c0 23 8 35 27 44c17 -26 49 -52 107 -52
c52 0 79 24 79 57c0 34 -22 52 -68 52h-23c-11 0 -18 13 -18 30c0 15 2 22 6 29c52 0 91 20 91 54z" />
    <glyph glyph-name="uni2084" unicode="&#x2084;" horiz-adv-x="377" 
d="M257 166c21 0 35 -6 35 -26v-128h60c4 -4 8 -15 8 -32c0 -20 -9 -30 -25 -30h-43l1 -74c-8 -4 -23 -6 -41 -6s-32 8 -32 26v54h-196c-5 6 -7 15 -7 24c0 8 3 22 7 33l89 270c8 4 22 7 42 7c21 0 31 -13 26 -28l-77 -244h116l-1 145c9 5 22 9 38 9z" />
    <glyph glyph-name="uni2085" unicode="&#x2085;" horiz-adv-x="350" 
d="M288 211h-173l-5 -97c18 6 41 11 69 11c77 0 146 -34 146 -128c0 -73 -55 -133 -158 -133c-108 0 -145 47 -145 79c0 17 11 31 30 41c15 -24 49 -57 112 -57c55 0 86 26 86 73c0 46 -39 65 -98 65c-36 0 -59 -7 -90 -7c-15 0 -24 12 -24 31l9 183c11 6 23 8 46 8h212
c4 -5 8 -14 8 -29c0 -23 -9 -40 -25 -40z" />
    <glyph glyph-name="uni2086" unicode="&#x2086;" horiz-adv-x="364" 
d="M32 80c0 131 65 206 174 206c64 0 115 -18 115 -51c0 -17 -9 -35 -21 -40c-18 9 -50 22 -92 22c-68 0 -95 -40 -99 -116c26 12 56 20 90 20c81 0 142 -29 142 -121c0 -69 -39 -136 -148 -136c-94 0 -161 54 -161 216zM191 64c-34 0 -62 -8 -82 -19c3 -83 28 -116 83 -116
c50 0 74 28 74 68c0 50 -29 67 -75 67z" />
    <glyph glyph-name="uni2087" unicode="&#x2087;" horiz-adv-x="322" 
d="M131 -130c-25 0 -34 13 -28 28l114 315h-205c-4 5 -8 15 -8 35c0 17 9 36 25 36h272c4 -7 6 -16 6 -25c0 -11 -3 -26 -8 -40l-128 -343c-8 -4 -19 -6 -40 -6z" />
    <glyph glyph-name="uni2088" unicode="&#x2088;" horiz-adv-x="359" 
d="M27 -11c0 47 27 81 64 99c-28 18 -47 45 -47 88c0 69 45 109 132 109c90 0 138 -37 138 -109c0 -39 -21 -68 -50 -86c40 -17 68 -46 68 -103c0 -63 -44 -123 -150 -123c-107 0 -155 53 -155 125zM167 57l-20 -4c-26 -11 -45 -31 -45 -63c0 -35 29 -62 79 -62
c53 0 78 24 78 60c0 41 -41 55 -92 69zM113 176c0 -39 41 -68 82 -68c29 9 52 33 52 67s-28 53 -66 53c-40 0 -68 -19 -68 -52z" />
    <glyph glyph-name="uni2089" unicode="&#x2089;" horiz-adv-x="361" 
d="M329 70c0 -142 -65 -206 -164 -206c-83 0 -133 29 -133 59c0 17 7 29 17 37c18 -9 61 -27 101 -27c70 0 97 32 101 114c-27 -16 -57 -23 -94 -23c-67 0 -135 31 -135 117c0 82 42 145 147 145c96 0 160 -46 160 -216zM165 84c38 0 65 8 86 20c-4 83 -27 117 -76 117
c-53 0 -80 -27 -80 -73c0 -45 31 -64 70 -64z" />
    <glyph glyph-name="zero.numr" horiz-adv-x="391" 
d="M32 489c0 149 73 210 163 210c94 0 164 -61 164 -210c0 -151 -71 -207 -163 -207c-93 0 -164 59 -164 207zM109 487c0 -105 43 -142 87 -142c48 0 84 35 84 142c0 105 -38 146 -85 146c-44 0 -86 -41 -86 -146z" />
    <glyph glyph-name="one.numr" horiz-adv-x="336" 
d="M297 285h-248c-5 10 -9 18 -9 32c0 22 4 37 42 37h67v245c-26 -19 -58 -28 -82 -28c-19 0 -32 12 -32 35c0 13 2 21 8 30c45 3 94 28 106 59c8 4 24 6 39 6c23 0 37 -9 37 -27v-320h89c4 -5 9 -15 9 -29c0 -23 -9 -40 -26 -40z" />
    <glyph glyph-name="two.numr" horiz-adv-x="351" 
d="M26 628c0 32 48 70 137 70c102 0 150 -49 150 -120c0 -92 -109 -178 -189 -224v-4l199 3c3 -6 5 -20 5 -35c0 -23 -6 -33 -25 -33h-273c-5 9 -8 17 -8 39c0 20 4 36 24 51c66 48 186 131 186 191c0 39 -27 58 -74 58c-44 0 -87 -18 -107 -40c-14 9 -25 23 -25 44z" />
    <glyph glyph-name="three.numr" horiz-adv-x="342" 
d="M221 571c0 32 -23 52 -69 52c-42 0 -81 -15 -102 -36c-14 9 -24 20 -24 41c0 32 42 70 130 70c100 0 143 -50 143 -112c0 -43 -28 -83 -67 -92v-1c40 -5 78 -38 78 -95c0 -59 -43 -118 -152 -118c-104 0 -138 45 -138 77c0 23 8 35 27 44c17 -26 49 -52 107 -52
c52 0 79 24 79 57c0 34 -22 52 -68 52h-23c-11 0 -18 13 -18 30c0 15 2 22 6 29c52 0 91 20 91 54z" />
    <glyph glyph-name="four.numr" horiz-adv-x="377" 
d="M257 581c21 0 35 -6 35 -26v-128h60c4 -4 8 -15 8 -32c0 -20 -9 -30 -25 -30h-43l1 -74c-8 -4 -23 -6 -41 -6s-32 8 -32 26v54h-196c-5 6 -7 15 -7 24c0 8 3 22 7 33l89 270c8 4 22 7 42 7c21 0 31 -13 26 -28l-77 -244h116l-1 145c9 5 22 9 38 9z" />
    <glyph glyph-name="five.numr" horiz-adv-x="350" 
d="M288 626h-173l-5 -97c18 6 41 11 69 11c77 0 146 -34 146 -128c0 -73 -55 -133 -158 -133c-108 0 -145 47 -145 79c0 17 11 31 30 41c15 -24 49 -57 112 -57c55 0 86 26 86 73c0 46 -39 65 -98 65c-36 0 -59 -7 -90 -7c-15 0 -24 12 -24 31l9 183c11 6 23 8 46 8h212
c4 -5 8 -14 8 -29c0 -23 -9 -40 -25 -40z" />
    <glyph glyph-name="six.numr" horiz-adv-x="364" 
d="M32 495c0 131 65 206 174 206c64 0 115 -18 115 -51c0 -17 -9 -35 -21 -40c-18 9 -50 22 -92 22c-68 0 -95 -40 -99 -116c26 12 56 20 90 20c81 0 142 -29 142 -121c0 -69 -39 -136 -148 -136c-94 0 -161 54 -161 216zM191 479c-34 0 -62 -8 -82 -19
c3 -83 28 -116 83 -116c50 0 74 28 74 68c0 50 -29 67 -75 67z" />
    <glyph glyph-name="seven.numr" horiz-adv-x="322" 
d="M131 285c-25 0 -34 13 -28 28l114 315h-205c-4 5 -8 15 -8 35c0 17 9 36 25 36h272c4 -7 6 -16 6 -25c0 -11 -3 -26 -8 -40l-128 -343c-8 -4 -19 -6 -40 -6z" />
    <glyph glyph-name="eight.numr" horiz-adv-x="359" 
d="M27 404c0 47 27 81 64 99c-28 18 -47 45 -47 88c0 69 45 109 132 109c90 0 138 -37 138 -109c0 -39 -21 -68 -50 -86c40 -17 68 -46 68 -103c0 -64 -44 -123 -150 -123c-107 0 -155 52 -155 125zM167 472l-20 -4c-26 -11 -45 -31 -45 -64c0 -35 29 -61 79 -61
c53 0 78 23 78 59c0 42 -41 56 -92 70zM113 591c0 -39 41 -68 82 -68c29 9 52 33 52 67s-28 53 -66 53c-40 0 -68 -19 -68 -52z" />
    <glyph glyph-name="nine.numr" horiz-adv-x="361" 
d="M329 485c0 -142 -65 -206 -164 -206c-83 0 -133 29 -133 59c0 17 7 29 17 37c18 -9 61 -27 101 -27c70 0 97 32 101 114c-27 -16 -57 -23 -94 -23c-67 0 -135 31 -135 117c0 82 42 145 147 145c96 0 160 -46 160 -216zM165 499c38 0 65 8 86 20c-4 83 -27 117 -76 117
c-53 0 -80 -27 -80 -73c0 -45 31 -64 70 -64z" />
    <glyph glyph-name="zero.dnom" horiz-adv-x="391" 
d="M32 204c0 149 73 210 163 210c94 0 164 -61 164 -210c0 -151 -71 -207 -163 -207c-93 0 -164 59 -164 207zM109 202c0 -105 43 -142 87 -142c48 0 84 35 84 142c0 105 -38 146 -85 146c-44 0 -86 -41 -86 -146z" />
    <glyph glyph-name="one.dnom" horiz-adv-x="336" 
d="M297 0h-248c-5 10 -9 18 -9 32c0 22 4 37 42 37h67v245c-26 -19 -58 -28 -82 -28c-19 0 -32 12 -32 35c0 13 2 21 8 30c45 3 94 28 106 59c8 4 24 6 39 6c23 0 37 -9 37 -27v-320h89c4 -5 9 -15 9 -29c0 -23 -9 -40 -26 -40z" />
    <glyph glyph-name="two.dnom" horiz-adv-x="351" 
d="M26 343c0 32 48 70 137 70c102 0 150 -49 150 -120c0 -92 -109 -178 -189 -224v-4l199 3c3 -6 5 -20 5 -35c0 -23 -6 -33 -25 -33h-273c-5 9 -8 17 -8 39c0 20 4 36 24 51c66 48 186 131 186 191c0 39 -27 58 -74 58c-44 0 -87 -18 -107 -40c-14 9 -25 23 -25 44z" />
    <glyph glyph-name="three.dnom" horiz-adv-x="342" 
d="M221 286c0 32 -23 52 -69 52c-42 0 -81 -15 -102 -36c-14 9 -24 20 -24 41c0 32 42 70 130 70c100 0 143 -50 143 -112c0 -43 -28 -83 -67 -92v-1c40 -5 78 -38 78 -95c0 -59 -43 -118 -152 -118c-104 0 -138 45 -138 77c0 23 8 35 27 44c17 -26 49 -52 107 -52
c52 0 79 24 79 57c0 34 -22 52 -68 52h-23c-11 0 -18 13 -18 30c0 15 2 22 6 29c52 0 91 20 91 54z" />
    <glyph glyph-name="four.dnom" horiz-adv-x="376" 
d="M257 296c21 0 35 -6 35 -26v-128h60c4 -4 8 -15 8 -32c0 -20 -9 -30 -25 -30h-43l1 -74c-8 -4 -23 -6 -41 -6s-32 8 -32 26v54h-196c-5 6 -7 15 -7 24c0 8 3 22 7 33l89 270c8 4 22 7 42 7c21 0 31 -13 26 -28l-77 -244h116l-1 145c9 5 22 9 38 9z" />
    <glyph glyph-name="five.dnom" horiz-adv-x="350" 
d="M288 341h-173l-5 -97c18 6 41 11 69 11c77 0 146 -34 146 -128c0 -73 -55 -133 -158 -133c-108 0 -145 47 -145 79c0 17 11 31 30 41c15 -24 49 -57 112 -57c55 0 86 26 86 73c0 46 -39 65 -98 65c-36 0 -59 -7 -90 -7c-15 0 -24 12 -24 31l9 183c11 6 23 8 46 8h212
c4 -5 8 -14 8 -29c0 -23 -9 -40 -25 -40z" />
    <glyph glyph-name="six.dnom" horiz-adv-x="363" 
d="M32 210c0 131 65 206 174 206c64 0 115 -18 115 -51c0 -17 -9 -35 -21 -40c-18 9 -50 22 -92 22c-68 0 -95 -40 -99 -116c26 12 56 20 90 20c81 0 142 -29 142 -121c0 -69 -39 -136 -148 -136c-94 0 -161 54 -161 216zM191 194c-34 0 -62 -8 -82 -19
c3 -83 28 -116 83 -116c50 0 74 28 74 68c0 50 -29 67 -75 67z" />
    <glyph glyph-name="seven.dnom" horiz-adv-x="322" 
d="M131 0c-25 0 -34 13 -28 28l114 315h-205c-4 5 -8 15 -8 35c0 17 9 36 25 36h272c4 -7 6 -16 6 -25c0 -11 -3 -26 -8 -40l-128 -343c-8 -4 -19 -6 -40 -6z" />
    <glyph glyph-name="eight.dnom" horiz-adv-x="359" 
d="M27 119c0 47 27 81 64 99c-28 18 -47 45 -47 88c0 69 45 109 132 109c90 0 138 -37 138 -109c0 -39 -21 -68 -50 -86c40 -17 68 -46 68 -103c0 -64 -44 -123 -150 -123c-107 0 -155 52 -155 125zM167 187l-20 -4c-26 -11 -45 -31 -45 -64c0 -35 29 -61 79 -61
c53 0 78 23 78 59c0 42 -41 56 -92 70zM113 306c0 -39 41 -68 82 -68c29 9 52 33 52 67s-28 53 -66 53c-40 0 -68 -19 -68 -52z" />
    <glyph glyph-name="nine.dnom" horiz-adv-x="361" 
d="M329 200c0 -142 -65 -206 -164 -206c-83 0 -133 29 -133 59c0 17 7 29 17 37c18 -9 61 -27 101 -27c70 0 97 32 101 114c-27 -16 -57 -23 -94 -23c-67 0 -135 31 -135 117c0 82 42 145 147 145c96 0 160 -46 160 -216zM165 214c38 0 65 8 86 20c-4 83 -27 117 -76 117
c-53 0 -80 -27 -80 -73c0 -45 31 -64 70 -64z" />
    <glyph glyph-name="onethird" unicode="&#x2153;" horiz-adv-x="904" 
d="M576 700c33 0 49 -15 38 -43l-247 -650c-10 -5 -16 -9 -40 -9c-31 0 -47 14 -31 56l239 640c12 4 21 6 41 6zM297 285h-248c-5 10 -9 18 -9 32c0 22 4 37 42 37h67v245c-26 -19 -58 -28 -82 -28c-19 0 -32 12 -32 35c0 13 2 21 8 30c45 3 94 28 106 59c8 4 24 6 39 6
c23 0 37 -9 37 -27v-320h89c4 -5 9 -15 9 -29c0 -23 -9 -40 -26 -40zM782 286c0 32 -22 52 -69 52c-42 0 -80 -15 -102 -36c-14 9 -23 20 -23 41c0 32 42 70 130 70c100 0 142 -50 142 -112c0 -43 -28 -83 -66 -92v-1c39 -5 77 -38 77 -95c0 -59 -43 -118 -151 -118
c-105 0 -139 45 -139 77c0 23 9 35 27 44c17 -26 49 -52 108 -52c52 0 78 24 78 57c0 34 -22 52 -68 52h-22c-12 0 -18 13 -18 30c0 15 2 22 5 29c53 0 91 20 91 54z" />
    <glyph glyph-name="twothirds" unicode="&#x2154;" horiz-adv-x="918" 
d="M591 700c32 0 48 -15 38 -43l-248 -650c-10 -5 -15 -9 -39 -9c-32 0 -48 14 -32 56l240 640c12 4 21 6 41 6zM26 628c0 32 48 70 137 70c102 0 150 -49 150 -120c0 -92 -109 -178 -189 -224v-4l199 3c3 -6 5 -20 5 -35c0 -23 -6 -33 -25 -33h-273c-5 9 -8 17 -8 39
c0 20 4 36 24 51c66 48 186 131 186 191c0 39 -27 58 -74 58c-44 0 -87 -18 -107 -40c-14 9 -25 23 -25 44zM796 286c0 32 -22 52 -69 52c-42 0 -80 -15 -102 -36c-13 9 -23 20 -23 41c0 32 42 70 130 70c100 0 143 -50 143 -112c0 -43 -28 -83 -67 -92v-1
c40 -5 78 -38 78 -95c0 -59 -43 -118 -152 -118c-105 0 -139 45 -139 77c0 23 9 35 27 44c18 -26 50 -52 108 -52c52 0 79 24 79 57c0 34 -22 52 -68 52h-23c-12 0 -18 13 -18 30c0 15 2 22 5 29c53 0 92 20 91 54z" />
    <glyph glyph-name="oneeighth" unicode="&#x215b;" horiz-adv-x="912" 
d="M576 700c25 0 41 -10 41 -28c0 -4 -1 -10 -3 -15l-248 -651c-9 -5 -15 -8 -39 -8c-23 0 -38 7 -38 28c0 7 2 17 6 28l240 640c12 4 21 6 41 6zM296 285h-248c-4 9 -8 18 -8 31c0 23 5 37 41 37h67v246c-25 -19 -58 -28 -81 -28c-20 0 -33 12 -33 35c0 13 3 21 8 30
c46 3 94 27 106 59c8 3 25 6 40 6c23 0 37 -9 37 -27v-321h89c3 -4 9 -14 9 -29c0 -23 -9 -39 -27 -39zM579 119c0 47 28 81 64 99c-27 18 -47 45 -47 88c0 69 45 109 133 109c90 0 137 -37 137 -109c0 -39 -21 -68 -50 -86c40 -17 68 -46 68 -103c0 -64 -44 -123 -150 -123
c-107 0 -155 52 -155 125zM719 187l-20 -4c-26 -11 -45 -31 -45 -64c0 -35 29 -61 79 -61c53 0 78 23 78 59c0 42 -41 56 -92 70zM665 306c0 -40 42 -68 83 -68c28 9 51 34 51 67c0 34 -28 53 -66 53c-39 0 -68 -19 -68 -52z" />
    <glyph glyph-name="threeeighths" unicode="&#x215c;" horiz-adv-x="925" 
d="M583 700c25 0 41 -10 41 -28c0 -4 -1 -10 -3 -15l-248 -651c-9 -5 -15 -8 -39 -8c-23 0 -38 7 -38 27c0 8 2 17 7 29l239 640c12 4 21 6 41 6zM220 571c0 31 -22 51 -69 51c-42 0 -80 -14 -102 -35c-14 9 -23 20 -23 41c0 31 42 70 130 70c100 0 143 -50 143 -112
c0 -43 -28 -83 -67 -92c40 -8 77 -38 77 -96c0 -60 -43 -118 -151 -118c-105 0 -139 45 -139 77c0 23 10 36 27 43c17 -25 50 -52 108 -52c52 0 79 25 79 57c0 34 -23 53 -68 53h-23c-12 0 -18 13 -18 30c0 14 2 21 5 28c54 1 91 21 91 55zM586 119c0 47 27 81 64 99
c-28 18 -47 45 -47 88c0 69 45 109 132 109c90 0 138 -37 138 -109c0 -39 -21 -68 -50 -86c40 -17 68 -46 68 -103c0 -64 -44 -123 -150 -123c-107 0 -155 52 -155 125zM726 187l-20 -4c-26 -11 -45 -31 -45 -64c0 -35 29 -61 79 -61c53 0 78 23 78 59c0 42 -41 56 -92 70z
M672 306c0 -39 41 -68 82 -68c29 9 52 33 52 67s-28 53 -66 53c-40 0 -68 -19 -68 -52z" />
    <glyph glyph-name="fiveeighths" unicode="&#x215d;" horiz-adv-x="924" 
d="M589 700c25 0 41 -10 41 -28c0 -4 -1 -10 -3 -15l-248 -651c-10 -5 -15 -8 -39 -8s-38 7 -38 27c0 8 2 17 6 29l240 640c12 4 21 6 41 6zM287 626h-172l-5 -97c18 6 40 10 69 10c77 0 145 -33 145 -128c0 -73 -54 -132 -157 -132c-109 0 -145 46 -145 79
c0 17 11 31 30 40c14 -23 49 -56 112 -56c54 0 85 26 85 72c0 47 -38 66 -97 66c-36 0 -59 -8 -91 -8c-16 0 -23 13 -23 32l9 183c10 6 23 8 46 8h211c5 -5 9 -15 9 -29c0 -23 -9 -40 -26 -40zM592 119c0 47 27 81 64 99c-28 18 -47 45 -47 88c0 69 45 109 132 109
c90 0 138 -37 138 -109c0 -39 -21 -68 -50 -86c40 -17 68 -46 68 -103c0 -64 -44 -123 -150 -123c-107 0 -155 52 -155 125zM732 187l-20 -4c-26 -11 -45 -31 -45 -64c0 -35 29 -61 79 -61c53 0 78 23 78 59c0 42 -41 56 -92 70zM678 306c0 -39 41 -68 82 -68
c29 9 52 33 52 67s-28 53 -66 53c-40 0 -68 -19 -68 -52z" />
    <glyph glyph-name="seveneighths" unicode="&#x215e;" horiz-adv-x="854" 
d="M518 700c25 0 41 -10 41 -28c0 -4 -1 -10 -3 -15l-248 -651c-9 -5 -15 -8 -39 -8c-23 0 -38 7 -38 28c0 7 2 17 6 28l240 640c12 4 21 6 41 6zM130 285c-20 0 -30 8 -30 19c0 3 1 6 2 9l115 314h-205c-4 5 -9 16 -9 36c0 17 9 36 26 36h272c4 -7 5 -17 5 -26v-5
c-1 -5 -1 -11 -3 -18l-10 -32l-123 -327c-7 -4 -19 -6 -40 -6zM521 119c0 47 28 81 64 99c-27 18 -47 45 -47 88c0 69 45 109 133 109c90 0 137 -37 137 -109c0 -39 -21 -68 -50 -86c40 -17 68 -46 68 -103c0 -64 -44 -123 -150 -123c-107 0 -155 52 -155 125zM661 187
l-20 -4c-26 -11 -45 -31 -45 -64c0 -35 29 -61 79 -61c53 0 78 23 78 59c0 42 -41 56 -92 70zM607 306c0 -40 42 -68 83 -68c28 9 51 34 51 67c0 34 -28 53 -66 53c-39 0 -68 -19 -68 -52z" />
    <glyph glyph-name="space.frac" horiz-adv-x="212" 
 />
    <glyph glyph-name="zero.tosf" 
d="M42 276c0 201 107 285 248 285c146 0 245 -84 245 -285c0 -204 -103 -283 -246 -283c-144 0 -247 82 -247 283zM153 272c0 -137 60 -181 136 -181c82 0 136 40 136 181s-53 191 -135 191c-81 0 -137 -51 -137 -191z" />
    <glyph glyph-name="one.tosf" 
d="M483 0h-393c-7 14 -12 28 -12 47c0 33 6 56 59 56h116v303c-40 -34 -89 -47 -122 -47c-28 0 -47 16 -47 50c0 20 4 32 12 45c69 6 137 42 157 96c12 4 34 9 55 9c33 0 53 -14 53 -41v-415h147c6 -8 13 -22 13 -44c0 -34 -13 -59 -38 -59z" />
    <glyph glyph-name="two.tosf" 
d="M78 453c0 51 68 108 199 108c153 0 219 -70 219 -166c0 -136 -172 -243 -296 -306h311c5 -7 8 -24 8 -40c0 -18 -3 -49 -35 -49h-404c-5 13 -9 24 -9 56c0 30 6 47 33 68c99 65 280 164 280 261c0 52 -41 78 -111 78c-75 0 -133 -34 -162 -63c-20 13 -33 29 -33 53z" />
    <glyph glyph-name="three.tosf" 
d="M384 367c0 51 -38 96 -120 96c-70 0 -129 -31 -159 -79c-21 12 -34 29 -34 61c0 50 64 116 201 116c153 0 222 -85 222 -187c0 -73 -42 -129 -107 -149v-3c65 -12 124 -67 124 -162c0 -102 -68 -196 -237 -196c-164 0 -214 82 -214 132c0 35 12 51 39 64
c23 -45 72 -98 170 -98c92 0 134 49 134 107c0 63 -40 101 -114 101h-35c-17 0 -26 20 -26 45c0 23 2 32 8 43c89 1 148 41 148 109z" />
    <glyph glyph-name="four.tosf" 
d="M402 354c29 0 49 -10 49 -39v-222h94c5 -8 10 -23 10 -48c0 -30 -12 -45 -35 -45h-69v-128c-10 -5 -31 -9 -57 -9s-45 12 -45 40v97h-307c-6 9 -9 22 -9 36c0 13 5 33 10 50l141 457c12 6 33 10 61 10c29 0 42 -19 34 -42l-125 -418h195v246c12 8 30 15 53 15z" />
    <glyph glyph-name="five.tosf" 
d="M470 453h-277l-9 -179c29 10 68 20 114 20c124 0 228 -56 228 -212c0 -120 -84 -218 -245 -218c-170 0 -224 80 -224 133c0 29 15 50 44 63c19 -43 71 -98 176 -98c93 0 139 46 139 124c0 83 -58 117 -154 117c-60 0 -100 -15 -145 -15c-22 0 -35 18 -34 48l13 306
c15 10 32 14 64 14h335c6 -8 13 -23 13 -45c0 -34 -13 -58 -38 -58z" />
    <glyph glyph-name="six.tosf" 
d="M53 346c0 218 95 344 267 344c103 0 179 -33 179 -84c0 -25 -12 -49 -29 -57c-26 15 -75 43 -147 43c-111 0 -156 -77 -163 -212c42 20 92 36 149 36c126 0 222 -49 222 -202c0 -112 -60 -221 -227 -221c-150 0 -251 90 -251 353zM297 330c-54 0 -103 -15 -137 -34
c5 -148 47 -205 141 -205c86 0 125 50 125 121c0 87 -50 118 -129 118z" />
    <glyph glyph-name="seven.tosf" 
d="M227 -130c-35 0 -47 19 -39 42l212 537h-346c-5 8 -12 22 -12 54c0 25 14 52 39 52h435c6 -10 8 -23 8 -38s-4 -38 -11 -59l-227 -579c-10 -5 -29 -9 -59 -9z" />
    <glyph glyph-name="eight.tosf" 
d="M53 196c0 86 53 137 108 166c-55 40 -82 86 -82 152c0 112 71 176 205 176c139 0 213 -59 213 -178c0 -70 -42 -118 -86 -148c78 -38 114 -88 114 -171c0 -106 -72 -200 -234 -200c-161 0 -238 84 -238 203zM246 320c-48 -17 -92 -57 -92 -123c0 -63 54 -112 136 -112
c88 0 129 45 129 104c0 67 -57 94 -173 131zM179 521c0 -66 55 -96 145 -123c43 17 81 54 81 113c0 62 -47 95 -115 95c-67 0 -111 -35 -111 -85z" />
    <glyph glyph-name="nine.tosf" 
d="M525 204c0 -231 -95 -339 -253 -339c-129 0 -208 46 -208 93c0 27 11 43 25 55c26 -16 94 -50 163 -50c115 0 159 65 165 206c-43 -26 -92 -41 -156 -41c-105 0 -211 54 -211 197c0 136 67 236 229 236c152 0 246 -76 246 -357zM272 220c64 0 110 13 145 37
c-6 151 -46 206 -130 206c-91 0 -134 -47 -134 -128c0 -79 52 -115 119 -115z" />
    <glyph glyph-name="zero.pos" horiz-adv-x="597" 
d="M46 276c0 201 113 285 254 285c145 0 251 -84 251 -285c0 -204 -110 -283 -252 -283c-144 0 -253 82 -253 283zM156 272c0 -137 67 -181 143 -181c81 0 141 40 141 181s-58 191 -141 191c-81 0 -143 -51 -143 -191z" />
    <glyph glyph-name="one.pos" horiz-adv-x="504" 
d="M447 0h-376c-7 14 -12 28 -12 47c0 33 6 56 59 56h108v303c-41 -34 -89 -47 -123 -47c-27 0 -46 16 -46 50c0 20 3 32 11 45c70 6 138 42 158 96c12 4 34 9 55 9c33 0 53 -14 53 -41v-415h139c6 -8 13 -22 13 -44c0 -34 -14 -59 -39 -59z" />
    <glyph glyph-name="two.pos" horiz-adv-x="505" 
d="M35 453c0 51 69 108 200 108c153 0 219 -70 219 -166c0 -136 -172 -243 -297 -306h311c6 -7 9 -24 9 -40c0 -18 -4 -49 -36 -49h-403c-5 13 -10 24 -10 56c0 30 6 47 33 68c100 65 281 164 281 261c0 52 -41 78 -111 78c-75 0 -133 -34 -162 -63c-20 13 -34 29 -34 53z
" />
    <glyph glyph-name="three.pos" horiz-adv-x="521" 
d="M349 367c0 51 -38 96 -120 96c-70 0 -129 -31 -159 -79c-21 12 -34 29 -34 61c0 50 64 116 201 116c153 0 222 -85 222 -187c0 -73 -42 -129 -107 -149v-3c65 -12 124 -67 124 -162c0 -102 -67 -196 -237 -196c-164 0 -214 82 -214 132c0 35 12 51 39 64
c24 -45 73 -98 170 -98c92 0 135 49 135 107c0 63 -40 101 -115 101h-35c-17 0 -26 20 -26 45c0 23 2 32 8 43c89 1 148 41 148 109z" />
    <glyph glyph-name="four.pos" horiz-adv-x="576" 
d="M399 353c29 0 49 -10 49 -39v-221h93c6 -8 11 -23 11 -48c0 -30 -12 -45 -35 -45h-69v-128c-11 -6 -31 -9 -57 -9s-46 12 -46 40v97h-306c-6 9 -9 22 -9 36c0 13 4 32 10 50l141 457c12 6 32 10 61 10c28 0 42 -19 34 -43l-126 -417h195v246c13 8 31 14 54 14z" />
    <glyph glyph-name="five.pos" horiz-adv-x="534" 
d="M444 453h-277l-9 -179c29 10 68 20 114 20c124 0 228 -56 228 -213c0 -119 -84 -218 -245 -218c-169 0 -224 81 -224 134c0 28 15 50 45 62c18 -43 70 -98 175 -98c93 0 139 47 139 124c0 84 -58 117 -154 117c-60 0 -100 -15 -145 -15c-22 0 -35 19 -33 48l12 307
c15 9 33 13 64 13h336c5 -8 12 -22 12 -45c0 -33 -13 -57 -38 -57z" />
    <glyph glyph-name="six.pos" horiz-adv-x="556" 
d="M46 346c0 218 95 344 268 344c103 0 179 -33 179 -84c0 -25 -12 -49 -29 -57c-26 15 -75 43 -147 43c-111 0 -156 -77 -163 -212c42 20 92 36 149 36c126 0 222 -49 222 -202c0 -112 -61 -221 -228 -221c-149 0 -251 90 -251 353zM291 330c-54 0 -103 -15 -137 -34
c5 -148 47 -205 141 -205c86 0 125 50 125 121c0 87 -51 118 -129 118z" />
    <glyph glyph-name="seven.pos" horiz-adv-x="488" 
d="M194 -134c-36 0 -48 18 -40 42l190 541h-332c-5 8 -12 22 -12 54c0 25 13 52 38 52h424c6 -10 7 -23 7 -38s-3 -38 -11 -59l-208 -583c-11 -5 -27 -9 -56 -9z" />
    <glyph glyph-name="eight.pos" horiz-adv-x="549" 
d="M38 196c0 86 54 137 108 166c-55 40 -82 86 -82 152c0 112 72 176 206 176c139 0 213 -59 213 -178c0 -70 -42 -118 -87 -148c79 -38 114 -88 114 -171c0 -106 -72 -200 -233 -200s-239 84 -239 203zM236 318l-4 2c-49 -17 -92 -57 -92 -123c0 -63 53 -112 136 -112
c87 0 129 45 129 104c0 67 -57 94 -169 129zM164 521c0 -66 56 -96 145 -123c43 17 82 54 82 113c0 62 -48 95 -115 95s-112 -35 -112 -85z" />
    <glyph glyph-name="nine.pos" horiz-adv-x="551" 
d="M504 204c0 -231 -95 -339 -253 -339c-129 0 -208 46 -208 93c0 27 11 43 25 55c26 -16 94 -50 163 -50c115 0 159 65 165 206c-43 -26 -91 -41 -156 -41c-105 0 -211 54 -211 197c0 136 67 236 229 236c152 0 246 -76 246 -357zM252 220c63 0 109 13 144 37
c-6 151 -46 206 -130 206c-90 0 -134 -47 -134 -128c0 -79 53 -115 120 -115z" />
    <glyph glyph-name="zero.lf" horiz-adv-x="597" 
d="M46 341c0 245 112 349 253 349c146 0 252 -104 252 -349c0 -252 -109 -348 -252 -348c-144 0 -253 100 -253 348zM157 337c0 -182 66 -246 142 -246c82 0 141 61 141 246c0 180 -61 255 -141 255c-76 0 -142 -75 -142 -255z" />
    <glyph glyph-name="one.lf" horiz-adv-x="504" 
d="M448 0h-377c-6 14 -12 28 -12 47c0 33 6 56 59 56h109v434c-41 -34 -89 -47 -123 -47c-28 0 -46 17 -46 51c0 20 3 31 11 45c69 6 138 42 158 95c11 5 33 9 55 9c32 0 52 -14 52 -40v-547h140c5 -8 12 -22 12 -44c0 -34 -13 -59 -38 -59z" />
    <glyph glyph-name="two.lf" horiz-adv-x="533" 
d="M34 573c0 49 74 117 211 117c157 0 234 -81 234 -200c0 -164 -185 -313 -306 -387v-6l323 5c6 -9 9 -31 9 -53c0 -34 -10 -49 -38 -49h-429c-5 14 -10 26 -10 58c0 30 6 54 33 75c108 81 307 220 307 352c0 69 -49 107 -128 107c-71 0 -145 -41 -169 -85
c-22 13 -37 33 -37 66z" />
    <glyph glyph-name="three.lf" horiz-adv-x="521" 
d="M352 497c0 51 -38 95 -120 95c-70 0 -129 -31 -159 -79c-21 12 -34 29 -34 61c0 50 64 116 201 116c153 0 222 -84 222 -187c0 -72 -42 -129 -107 -149v-2c65 -12 124 -68 124 -163c0 -101 -68 -196 -237 -196c-164 0 -214 82 -214 132c0 35 12 52 39 64
c23 -45 72 -98 170 -98c92 0 134 49 134 108c0 62 -40 101 -114 101h-35c-17 0 -26 19 -26 45c0 22 2 31 8 42c89 1 148 41 148 110z" />
    <glyph glyph-name="four.lf" horiz-adv-x="576" 
d="M399 490c29 0 49 -10 49 -39v-221h93c6 -8 11 -23 11 -48c0 -30 -12 -45 -35 -45h-69v-128c-11 -6 -31 -9 -57 -9s-46 12 -46 40v97h-306c-6 9 -9 21 -9 36c0 13 4 32 10 50l141 457c12 6 32 10 61 10c28 0 41 -19 34 -43l-126 -417h195v246c13 7 31 14 54 14z" />
    <glyph glyph-name="five.lf" horiz-adv-x="534" 
d="M444 583h-277l-9 -179c29 10 68 20 114 20c124 0 228 -56 228 -213c0 -119 -84 -218 -245 -218c-169 0 -224 81 -224 134c0 28 15 50 45 62c18 -43 70 -98 175 -98c93 0 139 47 139 124c0 84 -58 117 -154 117c-60 0 -100 -15 -145 -15c-22 0 -35 19 -33 48l12 307
c15 9 33 13 64 13h336c5 -8 12 -22 12 -45c0 -33 -13 -57 -38 -57z" />
    <glyph glyph-name="six.lf" horiz-adv-x="556" 
d="M42 346c0 218 95 344 267 344c103 0 179 -33 179 -84c0 -25 -12 -49 -29 -57c-26 15 -75 43 -147 43c-111 0 -155 -77 -163 -212c42 20 93 36 149 36c126 0 222 -49 222 -202c0 -112 -60 -221 -227 -221c-150 0 -251 90 -251 353zM287 330c-55 0 -104 -15 -138 -34
c5 -148 48 -205 142 -205c86 0 124 50 124 121c0 87 -50 118 -128 118z" />
    <glyph glyph-name="seven.lf" horiz-adv-x="488" 
d="M188 0c-36 0 -48 19 -40 42l212 537h-345c-6 8 -12 22 -12 54c0 25 13 52 38 52h436c5 -10 7 -23 7 -38s-3 -38 -11 -59l-226 -579c-11 -5 -30 -9 -59 -9z" />
    <glyph glyph-name="eight.lf" horiz-adv-x="549" 
d="M38 196c0 86 54 137 108 166c-55 40 -82 86 -82 152c0 112 72 176 206 176c139 0 213 -59 213 -178c0 -70 -42 -118 -87 -148c79 -38 114 -88 114 -171c0 -106 -72 -200 -233 -200s-239 84 -239 203zM236 318l-4 2c-49 -17 -92 -57 -92 -123c0 -63 53 -112 136 -112
c87 0 129 45 129 104c0 67 -57 94 -169 129zM164 521c0 -66 56 -96 145 -123c43 17 82 54 82 113c0 62 -48 95 -115 95s-112 -35 -112 -85z" />
    <glyph glyph-name="nine.lf" horiz-adv-x="551" 
d="M509 333c0 -230 -95 -338 -253 -338c-129 0 -208 45 -208 92c0 27 11 43 25 55c26 -15 94 -49 163 -49c115 0 159 64 165 206c-43 -27 -92 -42 -156 -42c-105 0 -211 55 -211 197c0 136 66 236 229 236c152 0 246 -76 246 -357zM256 349c63 0 110 13 145 37
c-7 151 -46 206 -131 206c-90 0 -133 -47 -133 -128c0 -79 52 -115 119 -115z" />
    <glyph glyph-name="cent.tf" 
d="M489 423c0 -16 -9 -38 -25 -56c-31 12 -52 20 -90 23l-4 -300c47 5 89 20 110 34c8 -9 15 -24 15 -45c0 -26 -13 -46 -35 -60c-16 -9 -46 -21 -92 -26l-2 -84c-6 -6 -21 -9 -42 -9c-18 0 -33 6 -32 34l1 59c-119 17 -190 111 -190 249c0 174 100 245 199 256l2 84
c8 5 20 8 36 8c22 -1 39 -9 38 -34l-2 -59c44 -5 66 -16 87 -29c16 -9 26 -23 26 -45zM196 241c0 -81 40 -132 99 -146l4 294c-56 -9 -103 -51 -103 -148z" />
    <glyph glyph-name="dollar.tf" 
d="M304 819c22 0 34 -9 34 -33l-1 -78c80 -6 125 -32 151 -57c14 -15 20 -34 20 -51c0 -21 -12 -38 -24 -52c-29 19 -78 40 -149 45l-2 -197c139 -38 201 -85 204 -203c1 -110 -65 -189 -209 -201v-107c-8 -5 -18 -8 -39 -8c-23 0 -39 8 -38 45v69c-77 4 -133 22 -169 47
c-29 20 -40 41 -40 66c0 23 8 44 16 55c45 -34 118 -55 195 -59l1 203c-144 38 -200 91 -200 209c0 107 66 185 205 196l1 100c11 6 26 11 44 11zM427 188c0 43 -22 70 -95 96l-2 -182c71 10 97 46 97 86zM163 511c0 -40 24 -67 93 -93l1 173c-68 -7 -94 -39 -94 -80z" />
    <glyph glyph-name="Euro.tf" 
d="M365 233h-152c26 -101 77 -136 160 -136c78 0 128 37 153 84c4 1 8 1 13 1c37 0 59 -21 59 -47c0 -57 -82 -139 -225 -139c-145 0 -240 67 -274 237h-86c-6 10 -10 18 -10 33c0 44 14 52 66 52h20c-1 9 -1 18 -1 29c0 10 1 20 1 30h-76c-7 13 -11 20 -11 38
c0 29 7 47 57 47h40c33 169 134 245 270 245c108 0 203 -40 203 -105c0 -27 -17 -48 -44 -57c-47 41 -88 59 -153 59c-81 0 -137 -44 -163 -142h244c6 -6 10 -13 10 -33c0 -21 -10 -52 -60 -52h-208c-1 -10 -1 -21 -1 -31s0 -19 1 -28h218c6 -6 9 -13 9 -33
c0 -21 -8 -52 -60 -52z" />
    <glyph glyph-name="florin.tf" 
d="M420 306h-100l-48 -336c-15 -108 -72 -150 -174 -150c-67 0 -86 21 -86 52c0 17 4 34 9 46h78c34 0 58 13 66 69l45 319h-105c-6 14 -12 22 -12 52c0 26 12 48 58 48h74l21 150c14 103 71 144 178 144c66 0 86 -25 86 -50c0 -22 -3 -35 -8 -51h-81c-39 0 -62 -13 -68 -59
l-20 -134h135c6 -8 11 -22 11 -46c0 -32 -15 -54 -59 -54z" />
    <glyph glyph-name="sterling.tf" 
d="M534 0h-506c-5 15 -10 27 -10 51c0 27 8 49 33 53c33 4 55 37 64 170h-66c-6 14 -12 26 -12 47c0 33 6 57 54 57h29v25c0 164 74 293 248 293c102 0 167 -25 167 -74c0 -25 -11 -50 -28 -59c-29 15 -66 30 -136 30c-124 0 -144 -91 -144 -189c0 -8 0 -20 -1 -26h213
c6 -8 11 -19 11 -40c0 -25 -10 -64 -62 -64h-168c-4 -77 -15 -138 -40 -170h380c5 -8 12 -23 12 -45c0 -34 -13 -59 -38 -59z" />
    <glyph glyph-name="yen.tf" 
d="M351 239v-37h160c6 -6 11 -15 11 -33c0 -20 -9 -52 -61 -52h-110v-105c-10 -6 -31 -12 -61 -12c-31 0 -49 10 -49 37v80h-154c-7 12 -13 21 -13 38c0 28 7 47 51 47h116v32l-13 19h-141c-7 11 -13 20 -13 42c0 23 8 40 51 40h56c-66 114 -121 237 -153 350
c15 9 31 15 55 15c30 0 45 -8 54 -36c36 -121 88 -241 161 -356c77 123 150 300 168 386c11 4 26 6 47 6c22 0 37 -16 37 -38c-1 -60 -72 -212 -139 -327h100c6 -6 11 -13 11 -30c0 -21 -18 -52 -69 -52h-93z" />
    <glyph glyph-name="zero.lf.slash" horiz-adv-x="597" 
d="M227 339c0 49 22 74 72 74c49 0 74 -25 74 -74s-25 -73 -74 -73s-72 25 -72 73zM46 341c0 245 112 349 253 349c146 0 252 -104 252 -349c0 -252 -109 -348 -252 -348c-144 0 -253 100 -253 348zM155 337c0 -182 68 -248 144 -248c82 0 141 63 141 248
c0 180 -61 255 -141 255c-76 0 -144 -75 -144 -255z" />
    <glyph glyph-name="zero.slash" 
d="M222 339c0 49 17 74 67 74c48 0 67 -25 67 -74s-19 -73 -67 -73c-49 0 -67 25 -67 73zM49 341c0 245 100 349 241 349c145 0 239 -104 239 -349c0 -252 -97 -348 -239 -348c-144 0 -241 100 -241 348zM159 337c0 -182 55 -246 131 -246c82 0 129 61 129 246
c0 180 -50 255 -129 255c-77 0 -131 -75 -131 -255z" />
    <glyph glyph-name="zero.pos.slash" horiz-adv-x="597" 
d="M226 274c0 50 22 74 72 74c49 0 74 -24 74 -74c0 -49 -25 -72 -74 -72c-48 0 -72 24 -72 72zM46 276c0 201 112 285 253 285c146 0 252 -84 252 -285c0 -204 -109 -283 -252 -283c-144 0 -253 82 -253 283zM155 272c0 -137 68 -185 144 -185c82 0 141 44 141 185
s-61 192 -141 192c-76 0 -144 -52 -144 -192z" />
    <glyph glyph-name="zero.tosf.slash" 
d="M223 274c0 50 17 74 67 74c48 0 67 -24 67 -74c0 -49 -19 -72 -67 -72c-49 0 -67 24 -67 72zM42 276c0 201 107 285 248 285c146 0 245 -84 245 -285c0 -204 -103 -283 -246 -283c-144 0 -247 82 -247 283zM153 272c0 -137 60 -181 136 -181c82 0 136 40 136 181
s-53 191 -135 191c-81 0 -137 -51 -137 -191z" />
    <glyph glyph-name="fi" unicode="&#xfb01;" horiz-adv-x="637" 
d="M205 553v-63h110c7 -8 11 -20 11 -35c0 -21 -8 -54 -44 -54h-77v-366c0 -31 -27 -36 -62 -36c-16 0 -37 5 -46 13v389h-52c-6 10 -10 23 -10 39c0 27 11 50 42 50h20v70c0 103 46 150 137 150c92 0 108 -21 108 -53c0 -21 -5 -34 -11 -43h-68c-36 0 -58 -13 -58 -61z
M455 490c49 0 89 -16 89 -96v-284c0 -20 8 -28 22 -28h31c5 -8 7 -17 7 -33c0 -30 -25 -49 -86 -49c-53 0 -82 21 -82 88v276c0 23 -11 30 -25 30h-29c-4 9 -6 21 -6 39c0 41 31 57 79 57zM414 624c0 42 20 63 63 63c42 0 64 -21 64 -63c0 -43 -22 -63 -64 -63
s-63 21 -63 63z" />
    <glyph glyph-name="fl" unicode="&#xfb02;" horiz-adv-x="649" 
d="M205 553v-63h110c7 -8 11 -20 11 -35c0 -21 -8 -54 -44 -54h-77v-366c0 -31 -27 -36 -62 -36c-16 0 -37 5 -46 13v389h-52c-6 10 -10 23 -10 39c0 27 11 50 42 50h20v70c0 103 46 150 137 150c92 0 108 -21 108 -53c0 -21 -5 -34 -11 -43h-68c-36 0 -58 -13 -58 -61z
M526 654v-500c0 -51 17 -65 57 -65h53c2 -9 4 -16 4 -31c0 -32 -24 -58 -103 -58c-84 0 -119 46 -119 129v556c12 10 23 16 52 16c40 0 56 -21 56 -47z" />
    </font>
</defs>
</svg>
